0, 0, Header, 1, 1, 240
1, 0, Start_track
1, 0, Tempo, 208333
1, 0, Time_signature, 3, 2, 24, 8
1, 0, Title_t, "        "
1, 480, Note_on_c, 0, 82, 127
1, 480, Note_on_c, 0, 70, 127
1, 480, Note_on_c, 0, 69, 127
1, 480, Note_on_c, 0, 74, 127
1, 480, Note_on_c, 0, 57, 127
1, 480, Note_on_c, 0, 77, 127
1, 480, Note_on_c, 0, 62, 127
1, 480, Note_on_c, 0, 65, 127
1, 719, Note_on_c, 0, 69, 0
1, 719, Note_on_c, 0, 57, 0
1, 719, Note_on_c, 0, 62, 0
1, 719, Note_on_c, 0, 65, 0
1, 720, Note_on_c, 0, 45, 127
1, 720, Note_on_c, 0, 41, 127
1, 779, Note_on_c, 0, 45, 0
1, 779, Note_on_c, 0, 41, 0
1, 780, Note_on_c, 0, 53, 127
1, 839, Note_on_c, 0, 53, 0
1, 840, Note_on_c, 0, 41, 127
1, 840, Note_on_c, 0, 45, 127
1, 899, Note_on_c, 0, 41, 0
1, 899, Note_on_c, 0, 45, 0
1, 900, Note_on_c, 0, 53, 127
1, 959, Note_on_c, 0, 53, 0
1, 960, Note_on_c, 0, 45, 127
1, 960, Note_on_c, 0, 41, 127
1, 1019, Note_on_c, 0, 45, 0
1, 1019, Note_on_c, 0, 41, 0
1, 1020, Note_on_c, 0, 53, 127
1, 1079, Note_on_c, 0, 82, 0
1, 1079, Note_on_c, 0, 70, 0
1, 1079, Note_on_c, 0, 53, 0
1, 1079, Note_on_c, 0, 74, 0
1, 1079, Note_on_c, 0, 77, 0
1, 1080, Note_on_c, 0, 45, 127
1, 1080, Note_on_c, 0, 81, 127
1, 1080, Note_on_c, 0, 41, 127
1, 1080, Note_on_c, 0, 69, 127
1, 1139, Note_on_c, 0, 45, 0
1, 1139, Note_on_c, 0, 81, 0
1, 1139, Note_on_c, 0, 41, 0
1, 1139, Note_on_c, 0, 69, 0
1, 1140, Note_on_c, 0, 53, 127
1, 1199, Note_on_c, 0, 53, 0
1, 1200, Note_on_c, 0, 45, 127
1, 1200, Note_on_c, 0, 41, 127
1, 1200, Note_on_c, 0, 81, 127
1, 1200, Note_on_c, 0, 69, 127
1, 1259, Note_on_c, 0, 45, 0
1, 1259, Note_on_c, 0, 41, 0
1, 1260, Note_on_c, 0, 53, 127
1, 1310, Note_on_c, 0, 81, 0
1, 1310, Note_on_c, 0, 69, 0
1, 1319, Note_on_c, 0, 53, 0
1, 1320, Note_on_c, 0, 41, 127
1, 1320, Note_on_c, 0, 45, 127
1, 1320, Note_on_c, 0, 74, 127
1, 1320, Note_on_c, 0, 86, 127
1, 1379, Note_on_c, 0, 41, 0
1, 1379, Note_on_c, 0, 45, 0
1, 1379, Note_on_c, 0, 74, 0
1, 1379, Note_on_c, 0, 86, 0
1, 1380, Note_on_c, 0, 53, 127
1, 1439, Note_on_c, 0, 53, 0
1, 1440, Note_on_c, 0, 45, 127
1, 1440, Note_on_c, 0, 41, 127
1, 1440, Note_on_c, 0, 74, 127
1, 1440, Note_on_c, 0, 86, 127
1, 1499, Note_on_c, 0, 45, 0
1, 1499, Note_on_c, 0, 41, 0
1, 1500, Note_on_c, 0, 53, 127
1, 1550, Note_on_c, 0, 74, 0
1, 1550, Note_on_c, 0, 86, 0
1, 1559, Note_on_c, 0, 53, 0
1, 1560, Note_on_c, 0, 45, 127
1, 1560, Note_on_c, 0, 41, 127
1, 1560, Note_on_c, 0, 89, 127
1, 1560, Note_on_c, 0, 77, 127
1, 1619, Note_on_c, 0, 45, 0
1, 1619, Note_on_c, 0, 41, 0
1, 1619, Note_on_c, 0, 89, 0
1, 1619, Note_on_c, 0, 77, 0
1, 1620, Note_on_c, 0, 53, 127
1, 1679, Note_on_c, 0, 53, 0
1, 1680, Note_on_c, 0, 41, 127
1, 1680, Note_on_c, 0, 45, 127
1, 1680, Note_on_c, 0, 77, 127
1, 1680, Note_on_c, 0, 89, 127
1, 1739, Note_on_c, 0, 41, 0
1, 1739, Note_on_c, 0, 45, 0
1, 1740, Note_on_c, 0, 53, 127
1, 1790, Note_on_c, 0, 77, 0
1, 1790, Note_on_c, 0, 89, 0
1, 1799, Note_on_c, 0, 53, 0
1, 1800, Note_on_c, 0, 45, 127
1, 1800, Note_on_c, 0, 41, 127
1, 1800, Note_on_c, 0, 81, 127
1, 1800, Note_on_c, 0, 93, 127
1, 1859, Note_on_c, 0, 45, 0
1, 1859, Note_on_c, 0, 41, 0
1, 1859, Note_on_c, 0, 81, 0
1, 1859, Note_on_c, 0, 93, 0
1, 1860, Note_on_c, 0, 53, 127
1, 1914, Control_c, 0, 64, 127
1, 1919, Note_on_c, 0, 53, 0
1, 1920, Note_on_c, 0, 93, 127
1, 1920, Note_on_c, 0, 81, 127
1, 1920, Note_on_c, 0, 45, 127
1, 1920, Note_on_c, 0, 41, 127
1, 1979, Note_on_c, 0, 45, 0
1, 1979, Note_on_c, 0, 41, 0
1, 1980, Note_on_c, 0, 53, 127
1, 2030, Note_on_c, 0, 93, 0
1, 2030, Note_on_c, 0, 81, 0
1, 2039, Note_on_c, 0, 53, 0
1, 2040, Note_on_c, 0, 41, 127
1, 2040, Note_on_c, 0, 74, 127
1, 2040, Note_on_c, 0, 45, 127
1, 2040, Note_on_c, 0, 86, 127
1, 2099, Note_on_c, 0, 41, 0
1, 2099, Note_on_c, 0, 74, 0
1, 2099, Note_on_c, 0, 45, 0
1, 2099, Note_on_c, 0, 86, 0
1, 2100, Note_on_c, 0, 53, 127
1, 2159, Note_on_c, 0, 53, 0
1, 2160, Note_on_c, 0, 45, 127
1, 2160, Note_on_c, 0, 41, 127
1, 2160, Note_on_c, 0, 74, 127
1, 2160, Note_on_c, 0, 86, 127
1, 2219, Note_on_c, 0, 45, 0
1, 2219, Note_on_c, 0, 41, 0
1, 2220, Note_on_c, 0, 50, 127
1, 2270, Note_on_c, 0, 74, 0
1, 2270, Note_on_c, 0, 86, 0
1, 2279, Note_on_c, 0, 50, 0
1, 2280, Note_on_c, 0, 38, 127
1, 2280, Note_on_c, 0, 77, 127
1, 2280, Note_on_c, 0, 89, 127
1, 2339, Note_on_c, 0, 38, 0
1, 2339, Note_on_c, 0, 77, 0
1, 2339, Note_on_c, 0, 89, 0
1, 2340, Note_on_c, 0, 50, 127
1, 2399, Note_on_c, 0, 50, 0
1, 2400, Note_on_c, 0, 38, 127
1, 2400, Note_on_c, 0, 89, 127
1, 2400, Note_on_c, 0, 77, 127
1, 2459, Note_on_c, 0, 38, 0
1, 2460, Note_on_c, 0, 50, 127
1, 2510, Note_on_c, 0, 89, 0
1, 2510, Note_on_c, 0, 77, 0
1, 2519, Note_on_c, 0, 50, 0
1, 2520, Note_on_c, 0, 38, 127
1, 2520, Note_on_c, 0, 69, 127
1, 2520, Note_on_c, 0, 81, 127
1, 2579, Note_on_c, 0, 38, 0
1, 2579, Note_on_c, 0, 69, 0
1, 2579, Note_on_c, 0, 81, 0
1, 2580, Note_on_c, 0, 50, 127
1, 2639, Note_on_c, 0, 50, 0
1, 2640, Note_on_c, 0, 38, 127
1, 2640, Note_on_c, 0, 69, 127
1, 2640, Note_on_c, 0, 81, 127
1, 2699, Note_on_c, 0, 38, 0
1, 2700, Note_on_c, 0, 50, 127
1, 2750, Note_on_c, 0, 69, 0
1, 2750, Note_on_c, 0, 81, 0
1, 2759, Note_on_c, 0, 50, 0
1, 2760, Note_on_c, 0, 38, 127
1, 2760, Note_on_c, 0, 86, 127
1, 2760, Note_on_c, 0, 74, 127
1, 2819, Note_on_c, 0, 38, 0
1, 2819, Note_on_c, 0, 86, 0
1, 2819, Note_on_c, 0, 74, 0
1, 2820, Note_on_c, 0, 50, 127
1, 2879, Note_on_c, 0, 50, 0
1, 2880, Note_on_c, 0, 86, 127
1, 2880, Note_on_c, 0, 74, 127
1, 2880, Note_on_c, 0, 38, 127
1, 2939, Note_on_c, 0, 38, 0
1, 2940, Note_on_c, 0, 50, 127
1, 2990, Note_on_c, 0, 86, 0
1, 2990, Note_on_c, 0, 74, 0
1, 2999, Note_on_c, 0, 50, 0
1, 3000, Note_on_c, 0, 38, 127
1, 3000, Note_on_c, 0, 65, 127
1, 3000, Note_on_c, 0, 77, 127
1, 3059, Note_on_c, 0, 38, 0
1, 3059, Note_on_c, 0, 65, 0
1, 3059, Note_on_c, 0, 77, 0
1, 3060, Note_on_c, 0, 50, 127
1, 3119, Note_on_c, 0, 50, 0
1, 3120, Note_on_c, 0, 38, 127
1, 3120, Note_on_c, 0, 65, 127
1, 3120, Note_on_c, 0, 77, 127
1, 3179, Note_on_c, 0, 38, 0
1, 3180, Note_on_c, 0, 50, 127
1, 3230, Note_on_c, 0, 65, 0
1, 3230, Note_on_c, 0, 77, 0
1, 3239, Note_on_c, 0, 50, 0
1, 3240, Note_on_c, 0, 38, 127
1, 3240, Note_on_c, 0, 69, 127
1, 3240, Note_on_c, 0, 81, 127
1, 3299, Note_on_c, 0, 38, 0
1, 3299, Note_on_c, 0, 69, 0
1, 3299, Note_on_c, 0, 81, 0
1, 3300, Note_on_c, 0, 50, 127
1, 3359, Note_on_c, 0, 50, 0
1, 3360, Note_on_c, 0, 81, 127
1, 3360, Note_on_c, 0, 69, 127
1, 3360, Note_on_c, 0, 38, 127
1, 3419, Note_on_c, 0, 38, 0
1, 3420, Note_on_c, 0, 50, 127
1, 3470, Note_on_c, 0, 81, 0
1, 3470, Note_on_c, 0, 69, 0
1, 3479, Note_on_c, 0, 50, 0
1, 3480, Note_on_c, 0, 38, 127
1, 3480, Note_on_c, 0, 74, 127
1, 3480, Note_on_c, 0, 62, 127
1, 3539, Note_on_c, 0, 38, 0
1, 3539, Note_on_c, 0, 74, 0
1, 3539, Note_on_c, 0, 62, 0
1, 3540, Note_on_c, 0, 50, 127
1, 3599, Note_on_c, 0, 50, 0
1, 3600, Note_on_c, 0, 74, 127
1, 3600, Note_on_c, 0, 38, 127
1, 3600, Note_on_c, 0, 62, 127
1, 3660, Note_on_c, 0, 74, 0
1, 3660, Note_on_c, 0, 38, 0
1, 3660, Note_on_c, 0, 62, 0
1, 3720, Note_on_c, 0, 62, 127
1, 3720, Note_on_c, 0, 50, 127
1, 3720, Note_on_c, 0, 74, 127
1, 3720, Note_on_c, 0, 77, 127
1, 3780, Note_on_c, 0, 62, 0
1, 3780, Note_on_c, 0, 50, 0
1, 3780, Note_on_c, 0, 74, 0
1, 3780, Note_on_c, 0, 77, 0
1, 3840, Note_on_c, 0, 86, 127
1, 3840, Note_on_c, 0, 77, 127
1, 3840, Note_on_c, 0, 74, 127
1, 3840, Note_on_c, 0, 62, 127
1, 3840, Note_on_c, 0, 50, 127
1, 3900, Note_on_c, 0, 86, 0
1, 3900, Note_on_c, 0, 77, 0
1, 3900, Note_on_c, 0, 74, 0
1, 3900, Note_on_c, 0, 62, 0
1, 3900, Note_on_c, 0, 50, 0
1, 3960, Note_on_c, 0, 78, 127
1, 3960, Note_on_c, 0, 86, 127
1, 3960, Note_on_c, 0, 74, 127
1, 3960, Note_on_c, 0, 60, 127
1, 3960, Note_on_c, 0, 48, 127
1, 4020, Note_on_c, 0, 78, 0
1, 4020, Note_on_c, 0, 86, 0
1, 4020, Note_on_c, 0, 74, 0
1, 4020, Note_on_c, 0, 60, 0
1, 4020, Note_on_c, 0, 48, 0
1, 4080, Note_on_c, 0, 74, 127
1, 4080, Note_on_c, 0, 78, 127
1, 4080, Note_on_c, 0, 86, 127
1, 4080, Note_on_c, 0, 60, 127
1, 4080, Note_on_c, 0, 48, 127
1, 4140, Note_on_c, 0, 74, 0
1, 4140, Note_on_c, 0, 78, 0
1, 4140, Note_on_c, 0, 86, 0
1, 4140, Note_on_c, 0, 60, 0
1, 4140, Note_on_c, 0, 48, 0
1, 4200, Note_on_c, 0, 59, 127
1, 4200, Note_on_c, 0, 79, 127
1, 4200, Note_on_c, 0, 47, 127
1, 4200, Note_on_c, 0, 74, 127
1, 4200, Note_on_c, 0, 86, 127
1, 4232, Control_c, 0, 64, 0
1, 4260, Note_on_c, 0, 59, 0
1, 4260, Note_on_c, 0, 79, 0
1, 4260, Note_on_c, 0, 47, 0
1, 4260, Note_on_c, 0, 74, 0
1, 4260, Note_on_c, 0, 86, 0
1, 4320, Note_on_c, 0, 86, 127
1, 4320, Note_on_c, 0, 74, 127
1, 4320, Note_on_c, 0, 79, 127
1, 4320, Note_on_c, 0, 59, 127
1, 4320, Note_on_c, 0, 47, 127
1, 4380, Note_on_c, 0, 86, 0
1, 4380, Note_on_c, 0, 74, 0
1, 4380, Note_on_c, 0, 79, 0
1, 4380, Note_on_c, 0, 59, 0
1, 4380, Note_on_c, 0, 47, 0
1, 4440, Note_on_c, 0, 80, 127
1, 4440, Note_on_c, 0, 86, 127
1, 4440, Note_on_c, 0, 58, 127
1, 4440, Note_on_c, 0, 74, 127
1, 4440, Note_on_c, 0, 46, 127
1, 4500, Note_on_c, 0, 80, 0
1, 4500, Note_on_c, 0, 86, 0
1, 4500, Note_on_c, 0, 58, 0
1, 4500, Note_on_c, 0, 74, 0
1, 4500, Note_on_c, 0, 46, 0
1, 4560, Note_on_c, 0, 58, 127
1, 4560, Note_on_c, 0, 80, 127
1, 4560, Note_on_c, 0, 86, 127
1, 4560, Note_on_c, 0, 74, 127
1, 4560, Note_on_c, 0, 46, 127
1, 4620, Note_on_c, 0, 58, 0
1, 4620, Note_on_c, 0, 80, 0
1, 4620, Note_on_c, 0, 86, 0
1, 4620, Note_on_c, 0, 74, 0
1, 4620, Note_on_c, 0, 46, 0
1, 4680, Note_on_c, 0, 58, 127
1, 4680, Note_on_c, 0, 80, 127
1, 4680, Note_on_c, 0, 46, 127
1, 4680, Note_on_c, 0, 74, 127
1, 4680, Note_on_c, 0, 86, 127
1, 4740, Note_on_c, 0, 58, 0
1, 4740, Note_on_c, 0, 80, 0
1, 4740, Note_on_c, 0, 46, 0
1, 4740, Note_on_c, 0, 74, 0
1, 4740, Note_on_c, 0, 86, 0
1, 4800, Note_on_c, 0, 58, 127
1, 4800, Note_on_c, 0, 80, 127
1, 4800, Note_on_c, 0, 74, 127
1, 4800, Note_on_c, 0, 46, 127
1, 4800, Note_on_c, 0, 86, 127
1, 4860, Note_on_c, 0, 58, 0
1, 4860, Note_on_c, 0, 80, 0
1, 4860, Note_on_c, 0, 74, 0
1, 4860, Note_on_c, 0, 46, 0
1, 4860, Note_on_c, 0, 86, 0
1, 4920, Note_on_c, 0, 46, 127
1, 4920, Note_on_c, 0, 34, 127
1, 4920, Note_on_c, 0, 86, 127
1, 4920, Note_on_c, 0, 89, 127
1, 4920, Note_on_c, 0, 77, 127
1, 4980, Note_on_c, 0, 46, 0
1, 4980, Note_on_c, 0, 34, 0
1, 4980, Note_on_c, 0, 86, 0
1, 4980, Note_on_c, 0, 89, 0
1, 4980, Note_on_c, 0, 77, 0
1, 5040, Note_on_c, 0, 89, 127
1, 5040, Note_on_c, 0, 86, 127
1, 5040, Note_on_c, 0, 77, 127
1, 5040, Note_on_c, 0, 46, 127
1, 5040, Note_on_c, 0, 34, 127
1, 5159, Note_on_c, 0, 89, 0
1, 5159, Note_on_c, 0, 86, 0
1, 5159, Note_on_c, 0, 77, 0
1, 5159, Note_on_c, 0, 46, 0
1, 5159, Note_on_c, 0, 34, 0
1, 5280, Note_on_c, 0, 93, 127
1, 5280, Note_on_c, 0, 33, 127
1, 5280, Note_on_c, 0, 45, 127
1, 5280, Note_on_c, 0, 81, 127
1, 5399, Note_on_c, 0, 93, 0
1, 5399, Note_on_c, 0, 33, 0
1, 5399, Note_on_c, 0, 45, 0
1, 5399, Note_on_c, 0, 81, 0
1, 5477, Control_c, 0, 64, 127
1, 5597, Control_c, 0, 64, 0
1, 5760, Tempo, 750000
1, 6240, Note_on_c, 0, 57, 110
1, 6240, Note_on_c, 0, 45, 110
1, 6315, Note_on_c, 0, 57, 0
1, 6315, Note_on_c, 0, 45, 0
1, 6480, Note_on_c, 0, 64, 110
1, 6480, Note_on_c, 0, 52, 110
1, 7439, Note_on_c, 0, 64, 0
1, 7439, Note_on_c, 0, 52, 0
1, 7440, Note_on_c, 0, 62, 110
1, 7440, Note_on_c, 0, 50, 110
1, 7559, Note_on_c, 0, 62, 0
1, 7559, Note_on_c, 0, 50, 0
1, 7560, Note_on_c, 0, 61, 110
1, 7560, Note_on_c, 0, 49, 110
1, 7679, Note_on_c, 0, 61, 0
1, 7679, Note_on_c, 0, 49, 0
1, 7680, Note_on_c, 0, 62, 110
1, 7680, Note_on_c, 0, 50, 110
1, 7799, Note_on_c, 0, 62, 0
1, 7799, Note_on_c, 0, 50, 0
1, 7800, Note_on_c, 0, 52, 110
1, 7800, Note_on_c, 0, 64, 110
1, 7919, Note_on_c, 0, 52, 0
1, 7919, Note_on_c, 0, 64, 0
1, 7920, Note_on_c, 0, 64, 110
1, 7920, Note_on_c, 0, 52, 110
1, 8279, Note_on_c, 0, 64, 0
1, 8279, Note_on_c, 0, 52, 0
1, 8280, Note_on_c, 0, 55, 110
1, 8280, Note_on_c, 0, 43, 110
1, 8355, Note_on_c, 0, 55, 0
1, 8355, Note_on_c, 0, 43, 0
1, 8400, Note_on_c, 0, 57, 110
1, 8400, Note_on_c, 0, 45, 110
1, 8475, Note_on_c, 0, 57, 0
1, 8475, Note_on_c, 0, 45, 0
1, 8520, Note_on_c, 0, 46, 110
1, 8520, Note_on_c, 0, 58, 110
1, 8595, Note_on_c, 0, 46, 0
1, 8595, Note_on_c, 0, 58, 0
1, 8640, Note_on_c, 0, 58, 110
1, 8640, Note_on_c, 0, 46, 110
1, 8759, Note_on_c, 0, 58, 0
1, 8759, Note_on_c, 0, 46, 0
1, 8760, Note_on_c, 0, 40, 110
1, 8760, Note_on_c, 0, 52, 110
1, 8879, Note_on_c, 0, 40, 0
1, 8879, Note_on_c, 0, 52, 0
1, 8880, Note_on_c, 0, 41, 110
1, 8880, Note_on_c, 0, 53, 110
1, 8999, Note_on_c, 0, 41, 0
1, 8999, Note_on_c, 0, 53, 0
1, 9000, Note_on_c, 0, 55, 110
1, 9000, Note_on_c, 0, 43, 110
1, 9119, Note_on_c, 0, 55, 0
1, 9119, Note_on_c, 0, 43, 0
1, 9120, Note_on_c, 0, 49, 110
1, 9120, Note_on_c, 0, 37, 110
1, 9195, Note_on_c, 0, 49, 0
1, 9195, Note_on_c, 0, 37, 0
1, 9240, Note_on_c, 0, 38, 110
1, 9240, Note_on_c, 0, 50, 110
1, 9315, Note_on_c, 0, 38, 0
1, 9315, Note_on_c, 0, 50, 0
1, 9360, Note_on_c, 0, 52, 110
1, 9360, Note_on_c, 0, 40, 110
1, 9479, Note_on_c, 0, 52, 0
1, 9479, Note_on_c, 0, 40, 0
1, 9480, Note_on_c, 0, 31, 110
1, 9480, Note_on_c, 0, 43, 110
1, 9599, Note_on_c, 0, 31, 0
1, 9599, Note_on_c, 0, 43, 0
1, 9600, Note_on_c, 0, 31, 110
1, 9600, Note_on_c, 0, 43, 110
1, 9959, Note_on_c, 0, 31, 0
1, 9959, Note_on_c, 0, 43, 0
1, 9960, Note_on_c, 0, 33, 110
1, 9960, Note_on_c, 0, 45, 110
1, 10079, Note_on_c, 0, 33, 0
1, 10079, Note_on_c, 0, 45, 0
1, 10080, Note_on_c, 0, 46, 110
1, 10080, Note_on_c, 0, 34, 110
1, 10319, Note_on_c, 0, 46, 0
1, 10319, Note_on_c, 0, 34, 0
1, 10320, Note_on_c, 0, 58, 127
1, 10320, Note_on_c, 0, 46, 127
1, 11039, Note_on_c, 0, 58, 0
1, 11039, Note_on_c, 0, 46, 0
1, 11040, Note_on_c, 0, 57, 110
1, 11040, Note_on_c, 0, 45, 110
1, 11399, Note_on_c, 0, 57, 0
1, 11399, Note_on_c, 0, 45, 0
1, 11400, Note_on_c, 0, 40, 85
1, 11400, Note_on_c, 0, 52, 85
1, 11519, Note_on_c, 0, 40, 0
1, 11519, Note_on_c, 0, 52, 0
1, 11520, Note_on_c, 0, 55, 77
1, 11520, Note_on_c, 0, 43, 77
1, 11759, Note_on_c, 0, 55, 0
1, 11759, Note_on_c, 0, 43, 0
1, 11760, Note_on_c, 0, 53, 60
1, 11760, Note_on_c, 0, 41, 60
1, 11999, Note_on_c, 0, 53, 0
1, 11999, Note_on_c, 0, 41, 0
1, 12000, Tempo, 208333
1, 12000, Note_on_c, 0, 74, 127
1, 12000, Note_on_c, 0, 62, 127
1, 12000, Note_on_c, 0, 38, 127
1, 12059, Note_on_c, 0, 38, 0
1, 12060, Note_on_c, 0, 50, 100
1, 12119, Note_on_c, 0, 50, 0
1, 12120, Note_on_c, 0, 38, 100
1, 12179, Note_on_c, 0, 38, 0
1, 12180, Note_on_c, 0, 50, 100
1, 12202, Control_c, 0, 64, 127
1, 12239, Note_on_c, 0, 50, 0
1, 12240, Note_on_c, 0, 38, 100
1, 12299, Note_on_c, 0, 38, 0
1, 12300, Note_on_c, 0, 50, 100
1, 12359, Note_on_c, 0, 50, 0
1, 12360, Note_on_c, 0, 38, 100
1, 12419, Note_on_c, 0, 38, 0
1, 12420, Note_on_c, 0, 50, 100
1, 12479, Note_on_c, 0, 50, 0
1, 12480, Note_on_c, 0, 38, 100
1, 12539, Note_on_c, 0, 38, 0
1, 12540, Note_on_c, 0, 50, 100
1, 12599, Note_on_c, 0, 50, 0
1, 12600, Note_on_c, 0, 38, 100
1, 12659, Note_on_c, 0, 38, 0
1, 12660, Note_on_c, 0, 50, 100
1, 12719, Note_on_c, 0, 74, 0
1, 12719, Note_on_c, 0, 62, 0
1, 12719, Note_on_c, 0, 50, 0
1, 12720, Note_on_c, 0, 72, 100
1, 12720, Note_on_c, 0, 81, 100
1, 12720, Note_on_c, 0, 75, 100
1, 12720, Note_on_c, 0, 78, 100
1, 12720, Note_on_c, 0, 87, 100
1, 12720, Note_on_c, 0, 63, 100
1, 12720, Note_on_c, 0, 60, 100
1, 12720, Note_on_c, 0, 69, 100
1, 12720, Note_on_c, 0, 66, 100
1, 12959, Note_on_c, 0, 63, 0
1, 12959, Note_on_c, 0, 60, 0
1, 12959, Note_on_c, 0, 69, 0
1, 12959, Note_on_c, 0, 66, 0
1, 12960, Note_on_c, 0, 30, 100
1, 12960, Note_on_c, 0, 38, 100
1, 13019, Note_on_c, 0, 30, 0
1, 13019, Note_on_c, 0, 38, 0
1, 13020, Note_on_c, 0, 42, 100
1, 13079, Note_on_c, 0, 42, 0
1, 13080, Note_on_c, 0, 38, 100
1, 13080, Note_on_c, 0, 30, 100
1, 13139, Note_on_c, 0, 38, 0
1, 13139, Note_on_c, 0, 30, 0
1, 13140, Note_on_c, 0, 42, 100
1, 13199, Note_on_c, 0, 42, 0
1, 13200, Note_on_c, 0, 38, 100
1, 13200, Note_on_c, 0, 30, 100
1, 13259, Note_on_c, 0, 38, 0
1, 13259, Note_on_c, 0, 30, 0
1, 13260, Note_on_c, 0, 42, 100
1, 13319, Control_c, 0, 64, 0
1, 13319, Note_on_c, 0, 72, 0
1, 13319, Note_on_c, 0, 81, 0
1, 13319, Note_on_c, 0, 75, 0
1, 13319, Note_on_c, 0, 78, 0
1, 13319, Note_on_c, 0, 87, 0
1, 13319, Note_on_c, 0, 42, 0
1, 13320, Note_on_c, 0, 81, 100
1, 13320, Note_on_c, 0, 38, 100
1, 13320, Note_on_c, 0, 69, 100
1, 13320, Note_on_c, 0, 30, 100
1, 13379, Note_on_c, 0, 81, 0
1, 13379, Note_on_c, 0, 38, 0
1, 13379, Note_on_c, 0, 69, 0
1, 13379, Note_on_c, 0, 30, 0
1, 13380, Note_on_c, 0, 42, 100
1, 13439, Note_on_c, 0, 42, 0
1, 13440, Note_on_c, 0, 38, 100
1, 13440, Note_on_c, 0, 81, 127
1, 13440, Note_on_c, 0, 69, 127
1, 13440, Note_on_c, 0, 30, 100
1, 13499, Note_on_c, 0, 38, 0
1, 13499, Note_on_c, 0, 81, 0
1, 13499, Note_on_c, 0, 69, 0
1, 13499, Note_on_c, 0, 30, 0
1, 13500, Note_on_c, 0, 42, 100
1, 13550, Control_c, 0, 64, 127
1, 13559, Note_on_c, 0, 42, 0
1, 13560, Note_on_c, 0, 72, 100
1, 13560, Note_on_c, 0, 84, 100
1, 13560, Note_on_c, 0, 38, 100
1, 13560, Note_on_c, 0, 30, 100
1, 13619, Note_on_c, 0, 72, 0
1, 13619, Note_on_c, 0, 84, 0
1, 13619, Note_on_c, 0, 38, 0
1, 13619, Note_on_c, 0, 30, 0
1, 13620, Note_on_c, 0, 42, 100
1, 13679, Note_on_c, 0, 42, 0
1, 13680, Note_on_c, 0, 72, 127
1, 13680, Note_on_c, 0, 38, 100
1, 13680, Note_on_c, 0, 84, 127
1, 13680, Note_on_c, 0, 30, 100
1, 13739, Note_on_c, 0, 72, 0
1, 13739, Note_on_c, 0, 38, 0
1, 13739, Note_on_c, 0, 84, 0
1, 13739, Note_on_c, 0, 30, 0
1, 13740, Note_on_c, 0, 42, 100
1, 13799, Note_on_c, 0, 42, 0
1, 13800, Note_on_c, 0, 38, 100
1, 13800, Note_on_c, 0, 78, 100
1, 13800, Note_on_c, 0, 30, 100
1, 13800, Note_on_c, 0, 90, 100
1, 13859, Note_on_c, 0, 38, 0
1, 13859, Note_on_c, 0, 78, 0
1, 13859, Note_on_c, 0, 30, 0
1, 13859, Note_on_c, 0, 90, 0
1, 13860, Note_on_c, 0, 42, 100
1, 13919, Note_on_c, 0, 42, 0
1, 13920, Note_on_c, 0, 78, 127
1, 13920, Note_on_c, 0, 90, 127
1, 13920, Note_on_c, 0, 38, 100
1, 13920, Note_on_c, 0, 30, 100
1, 13979, Note_on_c, 0, 78, 0
1, 13979, Note_on_c, 0, 90, 0
1, 13979, Note_on_c, 0, 38, 0
1, 13979, Note_on_c, 0, 30, 0
1, 13980, Note_on_c, 0, 42, 100
1, 14039, Note_on_c, 0, 42, 0
1, 14040, Note_on_c, 0, 30, 100
1, 14040, Note_on_c, 0, 38, 100
1, 14040, Note_on_c, 0, 93, 100
1, 14040, Note_on_c, 0, 81, 100
1, 14099, Note_on_c, 0, 30, 0
1, 14099, Note_on_c, 0, 38, 0
1, 14099, Note_on_c, 0, 93, 0
1, 14099, Note_on_c, 0, 81, 0
1, 14100, Note_on_c, 0, 42, 100
1, 14159, Note_on_c, 0, 42, 0
1, 14160, Note_on_c, 0, 93, 127
1, 14160, Note_on_c, 0, 81, 127
1, 14160, Note_on_c, 0, 38, 100
1, 14160, Note_on_c, 0, 30, 100
1, 14219, Note_on_c, 0, 93, 0
1, 14219, Note_on_c, 0, 81, 0
1, 14219, Note_on_c, 0, 38, 0
1, 14219, Note_on_c, 0, 30, 0
1, 14220, Note_on_c, 0, 42, 100
1, 14279, Note_on_c, 0, 42, 0
1, 14280, Note_on_c, 0, 84, 127
1, 14280, Note_on_c, 0, 38, 100
1, 14280, Note_on_c, 0, 72, 127
1, 14280, Note_on_c, 0, 30, 100
1, 14339, Note_on_c, 0, 84, 0
1, 14339, Note_on_c, 0, 38, 0
1, 14339, Note_on_c, 0, 72, 0
1, 14339, Note_on_c, 0, 30, 0
1, 14340, Note_on_c, 0, 42, 100
1, 14399, Note_on_c, 0, 42, 0
1, 14400, Note_on_c, 0, 72, 127
1, 14400, Note_on_c, 0, 38, 100
1, 14400, Note_on_c, 0, 84, 127
1, 14400, Note_on_c, 0, 30, 100
1, 14459, Note_on_c, 0, 72, 0
1, 14459, Note_on_c, 0, 38, 0
1, 14459, Note_on_c, 0, 84, 0
1, 14459, Note_on_c, 0, 30, 0
1, 14460, Note_on_c, 0, 42, 100
1, 14519, Note_on_c, 0, 42, 0
1, 14520, Note_on_c, 0, 26, 100
1, 14520, Note_on_c, 0, 75, 100
1, 14520, Note_on_c, 0, 87, 100
1, 14579, Note_on_c, 0, 26, 0
1, 14579, Note_on_c, 0, 75, 0
1, 14579, Note_on_c, 0, 87, 0
1, 14580, Note_on_c, 0, 38, 100
1, 14639, Note_on_c, 0, 38, 0
1, 14640, Note_on_c, 0, 26, 100
1, 14640, Note_on_c, 0, 75, 127
1, 14640, Note_on_c, 0, 87, 127
1, 14699, Note_on_c, 0, 26, 0
1, 14699, Note_on_c, 0, 75, 0
1, 14699, Note_on_c, 0, 87, 0
1, 14700, Note_on_c, 0, 38, 100
1, 14759, Note_on_c, 0, 38, 0
1, 14760, Note_on_c, 0, 26, 100
1, 14760, Note_on_c, 0, 81, 100
1, 14760, Note_on_c, 0, 69, 100
1, 14819, Note_on_c, 0, 26, 0
1, 14819, Note_on_c, 0, 81, 0
1, 14819, Note_on_c, 0, 69, 0
1, 14820, Note_on_c, 0, 38, 100
1, 14879, Note_on_c, 0, 38, 0
1, 14880, Note_on_c, 0, 26, 100
1, 14880, Note_on_c, 0, 81, 127
1, 14880, Note_on_c, 0, 69, 127
1, 14939, Note_on_c, 0, 26, 0
1, 14939, Note_on_c, 0, 81, 0
1, 14939, Note_on_c, 0, 69, 0
1, 14940, Note_on_c, 0, 38, 100
1, 14999, Note_on_c, 0, 38, 0
1, 15000, Note_on_c, 0, 84, 100
1, 15000, Note_on_c, 0, 26, 100
1, 15000, Note_on_c, 0, 72, 100
1, 15059, Note_on_c, 0, 84, 0
1, 15059, Note_on_c, 0, 26, 0
1, 15059, Note_on_c, 0, 72, 0
1, 15060, Note_on_c, 0, 38, 100
1, 15119, Note_on_c, 0, 38, 0
1, 15120, Note_on_c, 0, 26, 100
1, 15120, Note_on_c, 0, 84, 127
1, 15120, Note_on_c, 0, 72, 127
1, 15179, Note_on_c, 0, 26, 0
1, 15179, Note_on_c, 0, 84, 0
1, 15179, Note_on_c, 0, 72, 0
1, 15180, Note_on_c, 0, 38, 100
1, 15239, Note_on_c, 0, 38, 0
1, 15240, Note_on_c, 0, 26, 100
1, 15240, Note_on_c, 0, 66, 100
1, 15240, Note_on_c, 0, 78, 100
1, 15299, Note_on_c, 0, 26, 0
1, 15299, Note_on_c, 0, 66, 0
1, 15299, Note_on_c, 0, 78, 0
1, 15300, Note_on_c, 0, 38, 100
1, 15359, Note_on_c, 0, 38, 0
1, 15360, Note_on_c, 0, 78, 127
1, 15360, Note_on_c, 0, 26, 100
1, 15360, Note_on_c, 0, 66, 127
1, 15419, Note_on_c, 0, 78, 0
1, 15419, Note_on_c, 0, 26, 0
1, 15419, Note_on_c, 0, 66, 0
1, 15420, Note_on_c, 0, 38, 100
1, 15479, Note_on_c, 0, 38, 0
1, 15480, Note_on_c, 0, 26, 100
1, 15480, Note_on_c, 0, 69, 100
1, 15480, Note_on_c, 0, 83, 100
1, 15480, Note_on_c, 0, 81, 100
1, 15539, Note_on_c, 0, 26, 0
1, 15539, Note_on_c, 0, 69, 0
1, 15539, Note_on_c, 0, 83, 0
1, 15539, Note_on_c, 0, 81, 0
1, 15540, Note_on_c, 0, 38, 100
1, 15560, Control_c, 0, 64, 0
1, 15599, Note_on_c, 0, 38, 0
1, 15600, Note_on_c, 0, 26, 100
1, 15600, Note_on_c, 0, 81, 127
1, 15600, Note_on_c, 0, 69, 127
1, 15659, Note_on_c, 0, 26, 0
1, 15659, Note_on_c, 0, 81, 0
1, 15659, Note_on_c, 0, 69, 0
1, 15660, Note_on_c, 0, 38, 100
1, 15719, Note_on_c, 0, 38, 0
1, 15720, Note_on_c, 0, 66, 127
1, 15720, Note_on_c, 0, 26, 100
1, 15720, Note_on_c, 0, 60, 127
1, 15720, Note_on_c, 0, 54, 127
1, 15779, Note_on_c, 0, 66, 0
1, 15779, Note_on_c, 0, 26, 0
1, 15779, Note_on_c, 0, 60, 0
1, 15779, Note_on_c, 0, 54, 0
1, 15780, Note_on_c, 0, 38, 100
1, 15839, Note_on_c, 0, 38, 0
1, 15840, Note_on_c, 0, 66, 127
1, 15840, Note_on_c, 0, 54, 127
1, 15840, Note_on_c, 0, 60, 127
1, 15840, Note_on_c, 0, 38, 127
1, 15899, Note_on_c, 0, 66, 0
1, 15899, Note_on_c, 0, 54, 0
1, 15899, Note_on_c, 0, 60, 0
1, 15899, Note_on_c, 0, 38, 0
1, 15931, Control_c, 0, 64, 127
1, 15960, Note_on_c, 0, 78, 100
1, 15960, Note_on_c, 0, 48, 100
1, 15960, Note_on_c, 0, 81, 100
1, 15960, Note_on_c, 0, 51, 100
1, 15960, Note_on_c, 0, 69, 100
1, 15960, Note_on_c, 0, 60, 100
1, 16019, Note_on_c, 0, 78, 0
1, 16019, Note_on_c, 0, 48, 0
1, 16019, Note_on_c, 0, 81, 0
1, 16019, Note_on_c, 0, 51, 0
1, 16019, Note_on_c, 0, 69, 0
1, 16019, Note_on_c, 0, 60, 0
1, 16080, Note_on_c, 0, 78, 127
1, 16080, Note_on_c, 0, 81, 127
1, 16080, Note_on_c, 0, 69, 127
1, 16080, Note_on_c, 0, 60, 127
1, 16080, Note_on_c, 0, 48, 127
1, 16080, Note_on_c, 0, 51, 127
1, 16139, Note_on_c, 0, 78, 0
1, 16139, Note_on_c, 0, 81, 0
1, 16139, Note_on_c, 0, 69, 0
1, 16139, Note_on_c, 0, 60, 0
1, 16139, Note_on_c, 0, 48, 0
1, 16139, Note_on_c, 0, 51, 0
1, 16200, Note_on_c, 0, 58, 100
1, 16200, Note_on_c, 0, 70, 100
1, 16200, Note_on_c, 0, 82, 100
1, 16200, Note_on_c, 0, 79, 100
1, 16200, Note_on_c, 0, 50, 100
1, 16200, Note_on_c, 0, 46, 100
1, 16259, Note_on_c, 0, 58, 0
1, 16259, Note_on_c, 0, 70, 0
1, 16259, Note_on_c, 0, 82, 0
1, 16259, Note_on_c, 0, 79, 0
1, 16259, Note_on_c, 0, 50, 0
1, 16259, Note_on_c, 0, 46, 0
1, 16320, Note_on_c, 0, 70, 127
1, 16320, Note_on_c, 0, 82, 127
1, 16320, Note_on_c, 0, 58, 127
1, 16320, Note_on_c, 0, 79, 127
1, 16320, Note_on_c, 0, 46, 127
1, 16320, Note_on_c, 0, 50, 127
1, 16379, Note_on_c, 0, 70, 0
1, 16379, Note_on_c, 0, 82, 0
1, 16379, Note_on_c, 0, 58, 0
1, 16379, Note_on_c, 0, 79, 0
1, 16379, Note_on_c, 0, 46, 0
1, 16379, Note_on_c, 0, 50, 0
1, 16440, Note_on_c, 0, 81, 100
1, 16440, Note_on_c, 0, 84, 100
1, 16440, Note_on_c, 0, 72, 100
1, 16440, Note_on_c, 0, 45, 100
1, 16440, Note_on_c, 0, 57, 100
1, 16440, Note_on_c, 0, 48, 100
1, 16499, Note_on_c, 0, 81, 0
1, 16499, Note_on_c, 0, 84, 0
1, 16499, Note_on_c, 0, 72, 0
1, 16499, Note_on_c, 0, 45, 0
1, 16499, Note_on_c, 0, 57, 0
1, 16499, Note_on_c, 0, 48, 0
1, 16560, Note_on_c, 0, 72, 127
1, 16560, Note_on_c, 0, 81, 127
1, 16560, Note_on_c, 0, 57, 127
1, 16560, Note_on_c, 0, 45, 127
1, 16560, Note_on_c, 0, 84, 127
1, 16560, Note_on_c, 0, 48, 127
1, 16619, Note_on_c, 0, 72, 0
1, 16619, Note_on_c, 0, 81, 0
1, 16619, Note_on_c, 0, 57, 0
1, 16619, Note_on_c, 0, 45, 0
1, 16619, Note_on_c, 0, 84, 0
1, 16619, Note_on_c, 0, 48, 0
1, 16659, Control_c, 0, 64, 0
1, 16680, Note_on_c, 0, 82, 100
1, 16680, Note_on_c, 0, 86, 100
1, 16680, Note_on_c, 0, 74, 100
1, 16680, Note_on_c, 0, 46, 100
1, 16680, Note_on_c, 0, 55, 100
1, 16680, Note_on_c, 0, 43, 100
1, 16739, Note_on_c, 0, 82, 0
1, 16739, Note_on_c, 0, 86, 0
1, 16739, Note_on_c, 0, 74, 0
1, 16739, Note_on_c, 0, 46, 0
1, 16739, Note_on_c, 0, 55, 0
1, 16739, Note_on_c, 0, 43, 0
1, 16800, Note_on_c, 0, 82, 127
1, 16800, Note_on_c, 0, 86, 127
1, 16800, Note_on_c, 0, 74, 127
1, 16800, Note_on_c, 0, 55, 127
1, 16800, Note_on_c, 0, 46, 127
1, 16800, Note_on_c, 0, 43, 127
1, 16859, Note_on_c, 0, 82, 0
1, 16859, Note_on_c, 0, 86, 0
1, 16859, Note_on_c, 0, 74, 0
1, 16859, Note_on_c, 0, 55, 0
1, 16859, Note_on_c, 0, 46, 0
1, 16859, Note_on_c, 0, 43, 0
1, 16920, Note_on_c, 0, 54, 100
1, 16920, Note_on_c, 0, 75, 100
1, 16920, Note_on_c, 0, 42, 100
1, 16920, Note_on_c, 0, 84, 100
1, 16920, Note_on_c, 0, 87, 100
1, 16920, Note_on_c, 0, 81, 100
1, 16979, Note_on_c, 0, 54, 0
1, 16979, Note_on_c, 0, 75, 0
1, 16979, Note_on_c, 0, 42, 0
1, 16979, Note_on_c, 0, 84, 0
1, 16979, Note_on_c, 0, 87, 0
1, 16979, Note_on_c, 0, 81, 0
1, 17040, Note_on_c, 0, 54, 127
1, 17040, Note_on_c, 0, 42, 127
1, 17040, Note_on_c, 0, 75, 127
1, 17040, Note_on_c, 0, 87, 127
1, 17040, Note_on_c, 0, 84, 127
1, 17040, Note_on_c, 0, 81, 127
1, 17099, Note_on_c, 0, 54, 0
1, 17099, Note_on_c, 0, 42, 0
1, 17099, Note_on_c, 0, 75, 0
1, 17099, Note_on_c, 0, 87, 0
1, 17099, Note_on_c, 0, 84, 0
1, 17099, Note_on_c, 0, 81, 0
1, 17160, Note_on_c, 0, 75, 100
1, 17160, Note_on_c, 0, 87, 100
1, 17160, Note_on_c, 0, 42, 100
1, 17160, Note_on_c, 0, 81, 100
1, 17160, Note_on_c, 0, 84, 100
1, 17160, Note_on_c, 0, 30, 100
1, 17219, Note_on_c, 0, 75, 0
1, 17219, Note_on_c, 0, 87, 0
1, 17219, Note_on_c, 0, 42, 0
1, 17219, Note_on_c, 0, 81, 0
1, 17219, Note_on_c, 0, 84, 0
1, 17219, Note_on_c, 0, 30, 0
1, 17280, Note_on_c, 0, 75, 127
1, 17280, Note_on_c, 0, 42, 127
1, 17280, Note_on_c, 0, 87, 127
1, 17280, Note_on_c, 0, 84, 127
1, 17280, Note_on_c, 0, 81, 127
1, 17280, Note_on_c, 0, 30, 127
1, 17339, Note_on_c, 0, 75, 0
1, 17339, Note_on_c, 0, 42, 0
1, 17339, Note_on_c, 0, 87, 0
1, 17339, Note_on_c, 0, 84, 0
1, 17339, Note_on_c, 0, 30, 0
1, 17400, Note_on_c, 0, 54, 100
1, 17400, Note_on_c, 0, 42, 100
1, 17459, Note_on_c, 0, 54, 0
1, 17459, Note_on_c, 0, 42, 0
1, 17520, Note_on_c, 0, 45, 100
1, 17520, Note_on_c, 0, 57, 100
1, 17579, Note_on_c, 0, 45, 0
1, 17579, Note_on_c, 0, 57, 0
1, 17880, Note_on_c, 0, 75, 100
1, 17880, Note_on_c, 0, 87, 100
1, 17880, Note_on_c, 0, 81, 100
1, 17880, Note_on_c, 0, 84, 100
1, 17880, Note_on_c, 0, 41, 100
1, 17880, Note_on_c, 0, 53, 100
1, 17939, Note_on_c, 0, 75, 0
1, 17939, Note_on_c, 0, 87, 0
1, 17939, Note_on_c, 0, 81, 0
1, 17939, Note_on_c, 0, 84, 0
1, 17939, Note_on_c, 0, 41, 0
1, 17939, Note_on_c, 0, 53, 0
1, 18000, Note_on_c, 0, 75, 100
1, 18000, Note_on_c, 0, 87, 100
1, 18000, Note_on_c, 0, 84, 100
1, 18000, Note_on_c, 0, 81, 100
1, 18000, Note_on_c, 0, 29, 100
1, 18000, Note_on_c, 0, 41, 100
1, 18039, Note_on_c, 0, 81, 0
1, 18059, Note_on_c, 0, 75, 0
1, 18059, Note_on_c, 0, 87, 0
1, 18059, Note_on_c, 0, 84, 0
1, 18059, Note_on_c, 0, 81, 0
1, 18059, Note_on_c, 0, 29, 0
1, 18059, Note_on_c, 0, 41, 0
1, 18360, Tempo, 625000
1, 18360, Note_on_c, 0, 53, 100
1, 18360, Note_on_c, 0, 41, 100
1, 18479, Note_on_c, 0, 53, 0
1, 18479, Note_on_c, 0, 41, 0
1, 18480, Note_on_c, 0, 60, 100
1, 18480, Note_on_c, 0, 48, 100
1, 18599, Note_on_c, 0, 60, 0
1, 18599, Note_on_c, 0, 48, 0
1, 18600, Note_on_c, 0, 60, 100
1, 18600, Note_on_c, 0, 48, 100
1, 18719, Note_on_c, 0, 60, 0
1, 18719, Note_on_c, 0, 48, 0
1, 18720, Note_on_c, 0, 63, 100
1, 18720, Note_on_c, 0, 51, 100
1, 19070, Note_on_c, 0, 63, 0
1, 19070, Note_on_c, 0, 51, 0
1, 19080, Note_on_c, 0, 51, 100
1, 19080, Note_on_c, 0, 63, 100
1, 19199, Note_on_c, 0, 51, 0
1, 19199, Note_on_c, 0, 63, 0
1, 19200, Note_on_c, 0, 60, 100
1, 19200, Note_on_c, 0, 48, 100
1, 19319, Note_on_c, 0, 60, 0
1, 19319, Note_on_c, 0, 48, 0
1, 19320, Note_on_c, 0, 46, 100
1, 19320, Note_on_c, 0, 58, 100
1, 19439, Note_on_c, 0, 46, 0
1, 19439, Note_on_c, 0, 58, 0
1, 19440, Note_on_c, 0, 46, 100
1, 19440, Note_on_c, 0, 58, 100
1, 19559, Note_on_c, 0, 46, 0
1, 19559, Note_on_c, 0, 58, 0
1, 19560, Note_on_c, 0, 45, 100
1, 19560, Note_on_c, 0, 57, 100
1, 19679, Note_on_c, 0, 45, 0
1, 19679, Note_on_c, 0, 57, 0
1, 19680, Note_on_c, 0, 45, 100
1, 19680, Note_on_c, 0, 57, 100
1, 19799, Note_on_c, 0, 45, 0
1, 19799, Note_on_c, 0, 57, 0
1, 19800, Note_on_c, 0, 45, 100
1, 19800, Note_on_c, 0, 57, 100
1, 19919, Note_on_c, 0, 45, 0
1, 19919, Note_on_c, 0, 57, 0
1, 19920, Note_on_c, 0, 58, 100
1, 19920, Note_on_c, 0, 46, 100
1, 20039, Note_on_c, 0, 58, 0
1, 20039, Note_on_c, 0, 46, 0
1, 20040, Note_on_c, 0, 60, 100
1, 20040, Note_on_c, 0, 48, 100
1, 20159, Note_on_c, 0, 60, 0
1, 20159, Note_on_c, 0, 48, 0
1, 20160, Note_on_c, 0, 60, 100
1, 20160, Note_on_c, 0, 48, 100
1, 20279, Note_on_c, 0, 60, 0
1, 20279, Note_on_c, 0, 48, 0
1, 20280, Note_on_c, 0, 41, 100
1, 20280, Note_on_c, 0, 53, 100
1, 20399, Note_on_c, 0, 41, 0
1, 20399, Note_on_c, 0, 53, 0
1, 20520, Note_on_c, 0, 51, 100
1, 20520, Note_on_c, 0, 39, 100
1, 20639, Note_on_c, 0, 51, 0
1, 20639, Note_on_c, 0, 39, 0
1, 20640, Note_on_c, 0, 51, 100
1, 20640, Note_on_c, 0, 39, 100
1, 20759, Note_on_c, 0, 51, 0
1, 20759, Note_on_c, 0, 39, 0
1, 20760, Note_on_c, 0, 50, 100
1, 20760, Note_on_c, 0, 38, 100
1, 20879, Note_on_c, 0, 50, 0
1, 20879, Note_on_c, 0, 38, 0
1, 20880, Note_on_c, 0, 36, 100
1, 20880, Note_on_c, 0, 48, 100
1, 20999, Note_on_c, 0, 36, 0
1, 20999, Note_on_c, 0, 48, 0
1, 21000, Note_on_c, 0, 46, 100
1, 21000, Note_on_c, 0, 34, 100
1, 21119, Note_on_c, 0, 46, 0
1, 21119, Note_on_c, 0, 34, 0
1, 21120, Note_on_c, 0, 46, 100
1, 21120, Note_on_c, 0, 53, 100
1, 21120, Note_on_c, 0, 86, 100
1, 21120, Note_on_c, 0, 89, 100
1, 21120, Note_on_c, 0, 77, 100
1, 21120, Note_on_c, 0, 62, 100
1, 21239, Note_on_c, 0, 46, 0
1, 21239, Note_on_c, 0, 53, 0
1, 21239, Note_on_c, 0, 86, 0
1, 21239, Note_on_c, 0, 89, 0
1, 21239, Note_on_c, 0, 77, 0
1, 21239, Note_on_c, 0, 62, 0
1, 21360, Note_on_c, 0, 46, 100
1, 21360, Note_on_c, 0, 55, 100
1, 21360, Note_on_c, 0, 86, 100
1, 21360, Note_on_c, 0, 91, 100
1, 21360, Note_on_c, 0, 79, 100
1, 21360, Note_on_c, 0, 60, 100
1, 21479, Note_on_c, 0, 46, 0
1, 21479, Note_on_c, 0, 55, 0
1, 21479, Note_on_c, 0, 86, 0
1, 21479, Note_on_c, 0, 91, 0
1, 21479, Note_on_c, 0, 79, 0
1, 21479, Note_on_c, 0, 60, 0
1, 21600, Time_signature, 2, 2, 24, 8
1, 21600, Tempo, 789473
1, 21600, Note_on_c, 0, 37, 80
1, 21600, Note_on_c, 0, 81, 40
1, 21600, Note_on_c, 0, 88, 40
1, 21600, Note_on_c, 0, 93, 40
1, 21640, Note_on_c, 0, 52, 40
1, 21679, Note_on_c, 0, 52, 0
1, 21680, Note_on_c, 0, 45, 40
1, 21681, Control_c, 0, 64, 127
1, 21719, Note_on_c, 0, 45, 0
1, 21720, Note_on_c, 0, 52, 40
1, 21759, Note_on_c, 0, 52, 0
1, 21760, Note_on_c, 0, 45, 40
1, 21799, Note_on_c, 0, 45, 0
1, 21800, Note_on_c, 0, 52, 40
1, 21839, Note_on_c, 0, 52, 0
1, 21840, Note_on_c, 0, 45, 40
1, 21879, Note_on_c, 0, 45, 0
1, 21880, Note_on_c, 0, 52, 40
1, 21919, Note_on_c, 0, 52, 0
1, 21920, Note_on_c, 0, 45, 40
1, 21959, Note_on_c, 0, 45, 0
1, 21960, Note_on_c, 0, 52, 40
1, 21999, Note_on_c, 0, 52, 0
1, 22000, Note_on_c, 0, 45, 40
1, 22039, Note_on_c, 0, 45, 0
1, 22040, Note_on_c, 0, 52, 40
1, 22079, Note_on_c, 0, 52, 0
1, 22080, Note_on_c, 0, 45, 40
1, 22119, Note_on_c, 0, 45, 0
1, 22120, Note_on_c, 0, 52, 40
1, 22159, Note_on_c, 0, 52, 0
1, 22160, Note_on_c, 0, 45, 40
1, 22199, Note_on_c, 0, 45, 0
1, 22200, Note_on_c, 0, 52, 40
1, 22239, Note_on_c, 0, 52, 0
1, 22240, Note_on_c, 0, 45, 40
1, 22260, Note_on_c, 0, 81, 0
1, 22260, Note_on_c, 0, 88, 0
1, 22260, Note_on_c, 0, 93, 0
1, 22279, Note_on_c, 0, 45, 0
1, 22280, Note_on_c, 0, 52, 40
1, 22319, Note_on_c, 0, 52, 0
1, 22320, Note_on_c, 0, 45, 40
1, 22359, Note_on_c, 0, 45, 0
1, 22360, Note_on_c, 0, 52, 40
1, 22399, Note_on_c, 0, 52, 0
1, 22400, Note_on_c, 0, 45, 40
1, 22439, Note_on_c, 0, 45, 0
1, 22440, Note_on_c, 0, 52, 40
1, 22479, Note_on_c, 0, 52, 0
1, 22480, Note_on_c, 0, 45, 40
1, 22519, Note_on_c, 0, 45, 0
1, 22520, Note_on_c, 0, 52, 40
1, 22530, Note_on_c, 0, 76, 40
1, 22559, Note_on_c, 0, 52, 0
1, 22559, Note_on_c, 0, 76, 0
1, 22560, Note_on_c, 0, 45, 40
1, 22560, Note_on_c, 0, 69, 40
1, 22589, Note_on_c, 0, 45, 0
1, 22600, Note_on_c, 0, 52, 40
1, 22639, Note_on_c, 0, 52, 0
1, 22640, Note_on_c, 0, 45, 40
1, 22679, Note_on_c, 0, 45, 0
1, 22680, Note_on_c, 0, 52, 40
1, 22719, Note_on_c, 0, 52, 0
1, 22720, Note_on_c, 0, 45, 40
1, 22759, Note_on_c, 0, 45, 0
1, 22760, Note_on_c, 0, 52, 40
1, 22799, Note_on_c, 0, 52, 0
1, 22799, Note_on_c, 0, 69, 0
1, 22800, Note_on_c, 0, 45, 40
1, 22839, Note_on_c, 0, 45, 0
1, 22840, Note_on_c, 0, 52, 40
1, 22879, Note_on_c, 0, 52, 0
1, 22880, Note_on_c, 0, 45, 40
1, 22919, Note_on_c, 0, 45, 0
1, 22920, Note_on_c, 0, 52, 40
1, 22959, Note_on_c, 0, 52, 0
1, 22960, Note_on_c, 0, 45, 40
1, 22999, Note_on_c, 0, 45, 0
1, 23000, Note_on_c, 0, 52, 40
1, 23010, Note_on_c, 0, 69, 40
1, 23039, Note_on_c, 0, 52, 0
1, 23039, Note_on_c, 0, 69, 0
1, 23040, Note_on_c, 0, 45, 40
1, 23040, Note_on_c, 0, 64, 40
1, 23079, Note_on_c, 0, 45, 0
1, 23080, Note_on_c, 0, 52, 40
1, 23119, Note_on_c, 0, 52, 0
1, 23120, Note_on_c, 0, 45, 40
1, 23159, Note_on_c, 0, 45, 0
1, 23160, Note_on_c, 0, 52, 40
1, 23199, Note_on_c, 0, 52, 0
1, 23200, Note_on_c, 0, 45, 40
1, 23239, Note_on_c, 0, 45, 0
1, 23240, Note_on_c, 0, 52, 40
1, 23279, Note_on_c, 0, 52, 0
1, 23279, Note_on_c, 0, 64, 0
1, 23280, Note_on_c, 0, 45, 40
1, 23319, Note_on_c, 0, 45, 0
1, 23320, Note_on_c, 0, 52, 40
1, 23359, Note_on_c, 0, 52, 0
1, 23360, Note_on_c, 0, 45, 40
1, 23399, Note_on_c, 0, 45, 0
1, 23400, Note_on_c, 0, 52, 40
1, 23439, Note_on_c, 0, 52, 0
1, 23440, Note_on_c, 0, 45, 40
1, 23440, Note_off_c, 0, 37, 0
1, 23479, Note_on_c, 0, 45, 0
1, 23480, Note_on_c, 0, 52, 40
1, 23490, Note_on_c, 0, 64, 40
1, 23519, Note_on_c, 0, 52, 0
1, 23519, Note_on_c, 0, 64, 0
1, 23520, Note_on_c, 0, 37, 60
1, 23520, Note_on_c, 0, 45, 40
1, 23520, Note_on_c, 0, 57, 40
1, 23559, Note_on_c, 0, 45, 0
1, 23560, Note_on_c, 0, 52, 40
1, 23599, Note_on_c, 0, 52, 0
1, 23600, Note_on_c, 0, 45, 40
1, 23639, Note_on_c, 0, 45, 0
1, 23640, Note_on_c, 0, 52, 40
1, 23679, Note_on_c, 0, 52, 0
1, 23680, Note_on_c, 0, 45, 40
1, 23719, Note_on_c, 0, 45, 0
1, 23720, Note_on_c, 0, 52, 40
1, 23759, Note_on_c, 0, 52, 0
1, 23759, Note_on_c, 0, 57, 0
1, 23760, Note_on_c, 0, 45, 40
1, 23799, Note_on_c, 0, 45, 0
1, 23800, Note_on_c, 0, 52, 40
1, 23839, Note_on_c, 0, 52, 0
1, 23840, Note_on_c, 0, 45, 40
1, 23879, Note_on_c, 0, 45, 0
1, 23880, Note_on_c, 0, 52, 40
1, 23919, Note_on_c, 0, 52, 0
1, 23920, Note_on_c, 0, 45, 40
1, 23959, Note_on_c, 0, 45, 0
1, 23960, Note_on_c, 0, 52, 40
1, 23999, Note_on_c, 0, 52, 0
1, 24000, Note_on_c, 0, 45, 40
1, 24039, Note_on_c, 0, 45, 0
1, 24040, Note_on_c, 0, 52, 40
1, 24079, Note_on_c, 0, 52, 0
1, 24080, Note_on_c, 0, 45, 40
1, 24119, Note_on_c, 0, 45, 0
1, 24120, Note_on_c, 0, 52, 40
1, 24159, Note_on_c, 0, 52, 0
1, 24160, Note_on_c, 0, 45, 40
1, 24199, Note_on_c, 0, 45, 0
1, 24200, Note_on_c, 0, 52, 40
1, 24239, Note_on_c, 0, 52, 0
1, 24240, Note_on_c, 0, 45, 40
1, 24279, Note_on_c, 0, 45, 0
1, 24280, Note_on_c, 0, 52, 40
1, 24319, Note_on_c, 0, 52, 0
1, 24320, Note_on_c, 0, 45, 40
1, 24359, Note_on_c, 0, 45, 0
1, 24360, Note_on_c, 0, 52, 40
1, 24399, Note_on_c, 0, 52, 0
1, 24400, Note_on_c, 0, 45, 40
1, 24439, Note_on_c, 0, 45, 0
1, 24440, Note_on_c, 0, 52, 40
1, 24450, Note_on_c, 0, 81, 40
1, 24479, Note_on_c, 0, 52, 0
1, 24479, Note_on_c, 0, 81, 0
1, 24480, Note_on_c, 0, 45, 40
1, 24480, Note_on_c, 0, 76, 40
1, 24519, Note_on_c, 0, 45, 0
1, 24520, Note_on_c, 0, 52, 40
1, 24559, Note_on_c, 0, 52, 0
1, 24560, Note_on_c, 0, 45, 40
1, 24599, Note_on_c, 0, 45, 0
1, 24600, Note_on_c, 0, 52, 40
1, 24639, Note_on_c, 0, 52, 0
1, 24640, Note_on_c, 0, 45, 40
1, 24679, Note_on_c, 0, 45, 0
1, 24680, Note_on_c, 0, 52, 40
1, 24719, Note_on_c, 0, 52, 0
1, 24719, Note_on_c, 0, 76, 0
1, 24720, Note_on_c, 0, 45, 40
1, 24759, Note_on_c, 0, 45, 0
1, 24760, Note_on_c, 0, 52, 40
1, 24799, Note_on_c, 0, 52, 0
1, 24800, Note_on_c, 0, 45, 40
1, 24839, Note_on_c, 0, 45, 0
1, 24840, Note_on_c, 0, 52, 40
1, 24879, Note_on_c, 0, 52, 0
1, 24880, Note_on_c, 0, 45, 40
1, 24919, Note_on_c, 0, 45, 0
1, 24920, Note_on_c, 0, 52, 40
1, 24930, Note_on_c, 0, 76, 40
1, 24959, Note_on_c, 0, 52, 0
1, 24959, Note_on_c, 0, 76, 0
1, 24960, Note_on_c, 0, 45, 40
1, 24960, Note_on_c, 0, 69, 40
1, 25000, Note_on_c, 0, 52, 40
1, 25039, Note_on_c, 0, 52, 0
1, 25040, Note_on_c, 0, 45, 40
1, 25048, Note_on_c, 0, 45, 0
1, 25059, Note_on_c, 0, 45, 0
1, 25080, Note_on_c, 0, 52, 40
1, 25119, Note_on_c, 0, 52, 0
1, 25120, Note_on_c, 0, 45, 40
1, 25159, Note_on_c, 0, 45, 0
1, 25160, Note_on_c, 0, 52, 40
1, 25199, Note_on_c, 0, 52, 0
1, 25199, Note_on_c, 0, 69, 0
1, 25200, Note_on_c, 0, 45, 40
1, 25239, Note_on_c, 0, 45, 0
1, 25240, Note_on_c, 0, 52, 40
1, 25279, Note_on_c, 0, 52, 0
1, 25280, Note_on_c, 0, 45, 40
1, 25319, Note_on_c, 0, 45, 0
1, 25320, Note_on_c, 0, 52, 40
1, 25322, Control_c, 0, 64, 0
1, 25359, Note_on_c, 0, 52, 0
1, 25360, Note_on_c, 0, 45, 40
1, 25399, Note_on_c, 0, 45, 0
1, 25400, Note_off_c, 0, 37, 11
1, 25410, Note_on_c, 0, 69, 127
1, 25410, Note_on_c, 0, 57, 127
1, 25410, Note_on_c, 0, 45, 127
1, 25439, Note_on_c, 0, 69, 0
1, 25439, Note_on_c, 0, 57, 0
1, 25439, Note_on_c, 0, 45, 0
1, 25440, Time_signature, 3, 2, 24, 8
1, 25440, Note_on_c, 0, 63, 127
1, 25440, Note_on_c, 0, 57, 127
1, 25440, Note_on_c, 0, 69, 127
1, 25440, Note_on_c, 0, 60, 127
1, 25440, Note_on_c, 0, 54, 127
1, 25440, Note_on_c, 0, 42, 127
1, 25479, Note_on_c, 0, 63, 0
1, 25479, Note_on_c, 0, 57, 0
1, 25479, Note_on_c, 0, 69, 0
1, 25479, Note_on_c, 0, 60, 0
1, 25479, Note_on_c, 0, 54, 0
1, 25479, Note_on_c, 0, 42, 0
1, 25560, Note_on_c, 0, 42, 127
1, 25560, Note_on_c, 0, 54, 127
1, 25599, Note_on_c, 0, 42, 0
1, 25599, Note_on_c, 0, 54, 0
1, 25680, Note_on_c, 0, 63, 127
1, 25680, Note_on_c, 0, 51, 127
1, 25711, Control_c, 0, 64, 127
1, 26519, Note_on_c, 0, 63, 0
1, 26519, Note_on_c, 0, 51, 0
1, 26520, Note_on_c, 0, 63, 127
1, 26520, Note_on_c, 0, 51, 127
1, 26591, Control_c, 0, 64, 0
1, 26637, Note_on_c, 0, 63, 0
1, 26637, Note_on_c, 0, 51, 0
1, 26640, Note_on_c, 0, 63, 127
1, 26640, Note_on_c, 0, 51, 127
1, 26757, Note_on_c, 0, 63, 0
1, 26757, Note_on_c, 0, 51, 0
1, 26760, Note_on_c, 0, 48, 127
1, 26760, Note_on_c, 0, 60, 127
1, 26877, Note_on_c, 0, 48, 0
1, 26877, Note_on_c, 0, 60, 0
1, 26880, Tempo, 714285
1, 26880, Note_on_c, 0, 58, 127
1, 26880, Note_on_c, 0, 46, 127
1, 26997, Note_on_c, 0, 58, 0
1, 26997, Note_on_c, 0, 46, 0
1, 27000, Tempo, 652173
1, 27000, Note_on_c, 0, 45, 127
1, 27000, Note_on_c, 0, 57, 127
1, 27117, Note_on_c, 0, 45, 0
1, 27117, Note_on_c, 0, 57, 0
1, 27120, Tempo, 600000
1, 27120, Note_on_c, 0, 48, 127
1, 27120, Note_on_c, 0, 60, 127
1, 27237, Note_on_c, 0, 48, 0
1, 27237, Note_on_c, 0, 60, 0
1, 27240, Tempo, 555555
1, 27240, Note_on_c, 0, 54, 127
1, 27240, Note_on_c, 0, 42, 127
1, 27357, Note_on_c, 0, 54, 0
1, 27357, Note_on_c, 0, 42, 0
1, 27360, Note_on_c, 0, 43, 127
1, 27360, Note_on_c, 0, 55, 127
1, 27477, Note_on_c, 0, 43, 0
1, 27477, Note_on_c, 0, 55, 0
1, 27480, Note_on_c, 0, 45, 127
1, 27480, Note_on_c, 0, 57, 127
1, 27597, Note_on_c, 0, 45, 0
1, 27597, Note_on_c, 0, 57, 0
1, 27600, Note_on_c, 0, 45, 127
1, 27600, Note_on_c, 0, 57, 127
1, 27717, Note_on_c, 0, 45, 0
1, 27717, Note_on_c, 0, 57, 0
1, 27720, Note_on_c, 0, 36, 127
1, 27720, Note_on_c, 0, 48, 127
1, 27837, Note_on_c, 0, 36, 0
1, 27837, Note_on_c, 0, 48, 0
1, 27840, Note_on_c, 0, 38, 127
1, 27840, Note_on_c, 0, 50, 127
1, 27957, Note_on_c, 0, 38, 0
1, 27957, Note_on_c, 0, 50, 0
1, 27960, Tempo, 600000
1, 27960, Note_on_c, 0, 39, 127
1, 27960, Note_on_c, 0, 51, 127
1, 28199, Note_on_c, 0, 39, 0
1, 28199, Note_on_c, 0, 51, 0
1, 28200, Tempo, 652173
1, 28200, Note_on_c, 0, 38, 127
1, 28200, Note_on_c, 0, 50, 127
1, 28317, Note_on_c, 0, 38, 0
1, 28317, Note_on_c, 0, 50, 0
1, 28320, Tempo, 697674
1, 28320, Note_on_c, 0, 38, 127
1, 28320, Note_on_c, 0, 50, 127
1, 28679, Note_on_c, 0, 38, 0
1, 28679, Note_on_c, 0, 50, 0
1, 28680, Note_on_c, 0, 36, 127
1, 28680, Note_on_c, 0, 48, 127
1, 28790, Note_on_c, 0, 36, 0
1, 28790, Note_on_c, 0, 48, 0
1, 28800, Note_on_c, 0, 48, 127
1, 28800, Note_on_c, 0, 36, 127
1, 28917, Note_on_c, 0, 48, 0
1, 28917, Note_on_c, 0, 36, 0
1, 28920, Note_on_c, 0, 35, 127
1, 28920, Note_on_c, 0, 47, 127
1, 29037, Note_on_c, 0, 35, 0
1, 29037, Note_on_c, 0, 47, 0
1, 29040, Note_on_c, 0, 35, 127
1, 29040, Note_on_c, 0, 47, 127
1, 29157, Note_on_c, 0, 35, 0
1, 29157, Note_on_c, 0, 47, 0
1, 29160, Note_on_c, 0, 41, 127
1, 29160, Note_on_c, 0, 53, 127
1, 29277, Note_on_c, 0, 41, 0
1, 29277, Note_on_c, 0, 53, 0
1, 29280, Note_on_c, 0, 53, 127
1, 29280, Note_on_c, 0, 41, 127
1, 29397, Note_on_c, 0, 53, 0
1, 29397, Note_on_c, 0, 41, 0
1, 29400, Note_on_c, 0, 40, 127
1, 29400, Note_on_c, 0, 52, 127
1, 29639, Note_on_c, 0, 40, 0
1, 29639, Note_on_c, 0, 52, 0
1, 29640, Note_on_c, 0, 38, 127
1, 29640, Note_on_c, 0, 50, 127
1, 29757, Note_on_c, 0, 38, 0
1, 29757, Note_on_c, 0, 50, 0
1, 29760, Note_on_c, 0, 38, 127
1, 29760, Note_on_c, 0, 50, 127
1, 29877, Note_on_c, 0, 38, 0
1, 29877, Note_on_c, 0, 50, 0
1, 29880, Note_on_c, 0, 47, 123
1, 29880, Note_on_c, 0, 59, 123
1, 29997, Note_on_c, 0, 47, 0
1, 29997, Note_on_c, 0, 59, 0
1, 30000, Note_on_c, 0, 59, 119
1, 30000, Note_on_c, 0, 47, 119
1, 30117, Note_on_c, 0, 59, 0
1, 30117, Note_on_c, 0, 47, 0
1, 30120, Note_on_c, 0, 59, 114
1, 30120, Note_on_c, 0, 47, 114
1, 30237, Note_on_c, 0, 59, 0
1, 30237, Note_on_c, 0, 47, 0
1, 30240, Note_on_c, 0, 47, 110
1, 30240, Note_on_c, 0, 59, 110
1, 30357, Note_on_c, 0, 47, 0
1, 30357, Note_on_c, 0, 59, 0
1, 30360, Note_on_c, 0, 60, 105
1, 30360, Note_on_c, 0, 48, 105
1, 30477, Note_on_c, 0, 60, 0
1, 30477, Note_on_c, 0, 48, 0
1, 30480, Note_on_c, 0, 50, 101
1, 30480, Note_on_c, 0, 62, 101
1, 31199, Note_on_c, 0, 50, 0
1, 31199, Note_on_c, 0, 62, 0
1, 31200, Note_on_c, 0, 60, 75
1, 31200, Note_on_c, 0, 48, 75
1, 31679, Note_on_c, 0, 60, 0
1, 31679, Note_on_c, 0, 48, 0
1, 31680, Note_on_c, 0, 59, 57
1, 31680, Note_on_c, 0, 47, 57
1, 31919, Note_on_c, 0, 59, 0
1, 31919, Note_on_c, 0, 47, 0
1, 31920, Note_on_c, 0, 62, 48
1, 31920, Note_on_c, 0, 50, 48
1, 32159, Note_on_c, 0, 62, 0
1, 32159, Note_on_c, 0, 50, 0
1, 32160, Note_on_c, 0, 60, 39
1, 32160, Note_on_c, 0, 48, 39
1, 32639, Note_on_c, 0, 60, 0
1, 32639, Note_on_c, 0, 48, 0
1, 33360, Time_signature, 3, 2, 24, 8
1, 33360, Tempo, 208333
1, 33360, Note_on_c, 0, 56, 60
1, 33360, Note_on_c, 0, 88, 60
1, 33360, Note_on_c, 0, 76, 60
1, 33360, Note_on_c, 0, 59, 60
1, 33479, Note_on_c, 0, 56, 0
1, 33479, Note_on_c, 0, 88, 0
1, 33479, Note_on_c, 0, 76, 0
1, 33479, Note_on_c, 0, 59, 0
1, 33600, Note_on_c, 0, 57, 60
1, 33600, Note_on_c, 0, 60, 60
1, 33719, Note_on_c, 0, 57, 0
1, 33719, Note_on_c, 0, 60, 0
1, 33720, Note_on_c, 0, 64, 60
1, 33720, Note_on_c, 0, 76, 60
1, 33839, Note_on_c, 0, 64, 0
1, 33839, Note_on_c, 0, 76, 0
1, 33840, Note_on_c, 0, 76, 60
1, 33840, Note_on_c, 0, 62, 60
1, 33840, Note_on_c, 0, 64, 60
1, 33840, Note_on_c, 0, 59, 60
1, 33959, Note_on_c, 0, 76, 0
1, 33959, Note_on_c, 0, 62, 0
1, 33959, Note_on_c, 0, 64, 0
1, 33959, Note_on_c, 0, 59, 0
1, 34080, Note_on_c, 0, 81, 60
1, 34080, Note_on_c, 0, 69, 60
1, 34080, Note_on_c, 0, 64, 60
1, 34080, Note_on_c, 0, 60, 60
1, 34199, Note_on_c, 0, 81, 0
1, 34199, Note_on_c, 0, 69, 0
1, 34199, Note_on_c, 0, 64, 0
1, 34199, Note_on_c, 0, 60, 0
1, 34320, Note_on_c, 0, 71, 60
1, 34320, Note_on_c, 0, 83, 60
1, 34320, Note_on_c, 0, 62, 60
1, 34320, Note_on_c, 0, 59, 60
1, 34439, Note_on_c, 0, 71, 0
1, 34439, Note_on_c, 0, 83, 0
1, 34439, Note_on_c, 0, 62, 0
1, 34439, Note_on_c, 0, 59, 0
1, 34560, Note_on_c, 0, 84, 60
1, 34560, Note_on_c, 0, 60, 60
1, 34560, Note_on_c, 0, 72, 60
1, 34560, Note_on_c, 0, 57, 60
1, 34679, Note_on_c, 0, 84, 0
1, 34679, Note_on_c, 0, 60, 0
1, 34679, Note_on_c, 0, 72, 0
1, 34679, Note_on_c, 0, 57, 0
1, 34800, Note_on_c, 0, 80, 60
1, 34800, Note_on_c, 0, 64, 60
1, 34800, Note_on_c, 0, 76, 60
1, 34800, Note_on_c, 0, 83, 60
1, 34800, Note_on_c, 0, 74, 60
1, 34919, Note_on_c, 0, 80, 0
1, 34919, Note_on_c, 0, 64, 0
1, 34919, Note_on_c, 0, 76, 0
1, 34919, Note_on_c, 0, 83, 0
1, 34919, Note_on_c, 0, 74, 0
1, 35040, Note_on_c, 0, 84, 60
1, 35040, Note_on_c, 0, 81, 60
1, 35159, Note_on_c, 0, 84, 0
1, 35159, Note_on_c, 0, 81, 0
1, 35160, Note_on_c, 0, 64, 60
1, 35277, Note_on_c, 0, 64, 0
1, 35280, Note_on_c, 0, 86, 60
1, 35280, Note_on_c, 0, 83, 60
1, 35280, Note_on_c, 0, 64, 60
1, 35399, Note_on_c, 0, 86, 0
1, 35399, Note_on_c, 0, 83, 0
1, 35399, Note_on_c, 0, 64, 0
1, 35520, Note_on_c, 0, 69, 60
1, 35520, Note_on_c, 0, 81, 60
1, 35520, Note_on_c, 0, 84, 60
1, 35639, Note_on_c, 0, 69, 0
1, 35639, Note_on_c, 0, 81, 0
1, 35639, Note_on_c, 0, 84, 0
1, 35760, Note_on_c, 0, 80, 60
1, 35760, Note_on_c, 0, 83, 60
1, 35760, Note_on_c, 0, 71, 60
1, 35879, Note_on_c, 0, 80, 0
1, 35879, Note_on_c, 0, 83, 0
1, 35879, Note_on_c, 0, 71, 0
1, 36000, Note_on_c, 0, 81, 60
1, 36000, Note_on_c, 0, 72, 60
1, 36119, Note_on_c, 0, 81, 0
1, 36119, Note_on_c, 0, 72, 0
1, 36240, Note_on_c, 0, 82, 60
1, 36240, Note_on_c, 0, 79, 60
1, 36240, Note_on_c, 0, 70, 60
1, 36240, Note_on_c, 0, 60, 60
1, 36359, Note_on_c, 0, 82, 0
1, 36359, Note_on_c, 0, 79, 0
1, 36359, Note_on_c, 0, 70, 0
1, 36359, Note_on_c, 0, 60, 0
1, 36480, Note_on_c, 0, 77, 60
1, 36480, Note_on_c, 0, 81, 60
1, 36480, Note_on_c, 0, 69, 60
1, 36599, Note_on_c, 0, 77, 0
1, 36599, Note_on_c, 0, 81, 0
1, 36599, Note_on_c, 0, 69, 0
1, 36600, Note_on_c, 0, 48, 60
1, 36719, Note_on_c, 0, 48, 0
1, 36720, Note_on_c, 0, 67, 60
1, 36720, Note_on_c, 0, 76, 60
1, 36720, Note_on_c, 0, 48, 60
1, 36720, Note_on_c, 0, 79, 60
1, 36839, Note_on_c, 0, 67, 0
1, 36839, Note_on_c, 0, 76, 0
1, 36839, Note_on_c, 0, 48, 0
1, 36839, Note_on_c, 0, 79, 0
1, 36960, Note_on_c, 0, 77, 60
1, 36960, Note_on_c, 0, 53, 60
1, 36960, Note_on_c, 0, 81, 60
1, 36960, Note_on_c, 0, 69, 60
1, 37079, Note_on_c, 0, 77, 0
1, 37079, Note_on_c, 0, 53, 0
1, 37079, Note_on_c, 0, 81, 0
1, 37079, Note_on_c, 0, 69, 0
1, 37200, Note_on_c, 0, 82, 60
1, 37200, Note_on_c, 0, 70, 60
1, 37200, Note_on_c, 0, 55, 60
1, 37319, Note_on_c, 0, 82, 0
1, 37319, Note_on_c, 0, 70, 0
1, 37319, Note_on_c, 0, 55, 0
1, 37440, Note_on_c, 0, 57, 60
1, 37440, Note_on_c, 0, 72, 60
1, 37440, Note_on_c, 0, 84, 60
1, 37559, Note_on_c, 0, 57, 0
1, 37559, Note_on_c, 0, 72, 0
1, 37559, Note_on_c, 0, 84, 0
1, 37680, Note_on_c, 0, 84, 60
1, 37680, Note_on_c, 0, 76, 60
1, 37680, Note_on_c, 0, 88, 60
1, 37680, Note_on_c, 0, 55, 60
1, 37680, Note_on_c, 0, 48, 60
1, 37799, Note_on_c, 0, 84, 0
1, 37799, Note_on_c, 0, 76, 0
1, 37799, Note_on_c, 0, 88, 0
1, 37799, Note_on_c, 0, 55, 0
1, 37799, Note_on_c, 0, 48, 0
1, 37920, Note_on_c, 0, 57, 60
1, 37920, Note_on_c, 0, 77, 60
1, 37920, Note_on_c, 0, 89, 60
1, 38039, Note_on_c, 0, 57, 0
1, 38039, Note_on_c, 0, 77, 0
1, 38039, Note_on_c, 0, 89, 0
1, 38160, Note_on_c, 0, 58, 60
1, 38160, Note_on_c, 0, 91, 60
1, 38160, Note_on_c, 0, 79, 60
1, 38160, Note_on_c, 0, 58, 60
1, 38279, Note_on_c, 0, 58, 0
1, 38279, Note_on_c, 0, 91, 0
1, 38279, Note_on_c, 0, 79, 0
1, 38279, Note_on_c, 0, 58, 0
1, 38400, Time_signature, 4, 2, 24, 8
1, 38400, Note_on_c, 0, 41, 60
1, 38400, Note_on_c, 0, 89, 60
1, 38400, Note_on_c, 0, 77, 60
1, 38400, Note_on_c, 0, 84, 60
1, 38400, Note_on_c, 0, 57, 60
1, 38519, Note_on_c, 0, 41, 0
1, 38519, Note_on_c, 0, 89, 0
1, 38519, Note_on_c, 0, 77, 0
1, 38519, Note_on_c, 0, 84, 0
1, 38519, Note_on_c, 0, 57, 0
1, 38640, Note_on_c, 0, 91, 60
1, 38640, Note_on_c, 0, 55, 60
1, 38640, Note_on_c, 0, 79, 60
1, 38759, Note_on_c, 0, 91, 0
1, 38759, Note_on_c, 0, 55, 0
1, 38759, Note_on_c, 0, 79, 0
1, 38880, Note_on_c, 0, 93, 60
1, 38880, Note_on_c, 0, 81, 60
1, 38880, Note_on_c, 0, 53, 60
1, 38999, Note_on_c, 0, 93, 0
1, 38999, Note_on_c, 0, 81, 0
1, 38999, Note_on_c, 0, 53, 0
1, 39360, Time_signature, 3, 2, 24, 8
1, 39360, Tempo, 750000
1, 39360, Note_on_c, 0, 65, 100
1, 39360, Note_on_c, 0, 53, 100
1, 39479, Note_on_c, 0, 65, 0
1, 39479, Note_on_c, 0, 53, 0
1, 39600, Note_on_c, 0, 60, 100
1, 39600, Note_on_c, 0, 48, 100
1, 39719, Note_on_c, 0, 60, 0
1, 39719, Note_on_c, 0, 48, 0
1, 40320, Note_on_c, 0, 48, 100
1, 40320, Note_on_c, 0, 60, 100
1, 40558, Note_on_c, 0, 48, 0
1, 40558, Note_on_c, 0, 60, 0
1, 40560, Note_on_c, 0, 46, 100
1, 40560, Note_on_c, 0, 58, 100
1, 40678, Note_on_c, 0, 46, 0
1, 40678, Note_on_c, 0, 58, 0
1, 40680, Note_on_c, 0, 48, 100
1, 40680, Note_on_c, 0, 60, 100
1, 40798, Note_on_c, 0, 48, 0
1, 40798, Note_on_c, 0, 60, 0
1, 40800, Note_on_c, 0, 58, 100
1, 40800, Note_on_c, 0, 46, 100
1, 40918, Note_on_c, 0, 58, 0
1, 40918, Note_on_c, 0, 46, 0
1, 40920, Note_on_c, 0, 57, 100
1, 40920, Note_on_c, 0, 45, 100
1, 41038, Note_on_c, 0, 57, 0
1, 41038, Note_on_c, 0, 45, 0
1, 41040, Note_on_c, 0, 45, 100
1, 41040, Note_on_c, 0, 57, 100
1, 41135, Note_on_c, 0, 45, 0
1, 41135, Note_on_c, 0, 57, 0
1, 41280, Note_on_c, 0, 53, 100
1, 41280, Note_on_c, 0, 41, 100
1, 41878, Note_on_c, 0, 53, 0
1, 41878, Note_on_c, 0, 41, 0
1, 41880, Note_on_c, 0, 53, 100
1, 41880, Note_on_c, 0, 41, 100
1, 41998, Note_on_c, 0, 53, 0
1, 41998, Note_on_c, 0, 41, 0
1, 42000, Note_on_c, 0, 41, 100
1, 42000, Note_on_c, 0, 53, 100
1, 42118, Note_on_c, 0, 41, 0
1, 42118, Note_on_c, 0, 53, 0
1, 42120, Note_on_c, 0, 43, 100
1, 42120, Note_on_c, 0, 55, 100
1, 42238, Note_on_c, 0, 43, 0
1, 42238, Note_on_c, 0, 55, 0
1, 42240, Note_on_c, 0, 46, 100
1, 42240, Note_on_c, 0, 58, 100
1, 42358, Note_on_c, 0, 46, 0
1, 42358, Note_on_c, 0, 58, 0
1, 42360, Note_on_c, 0, 57, 100
1, 42360, Note_on_c, 0, 45, 100
1, 42478, Note_on_c, 0, 57, 0
1, 42478, Note_on_c, 0, 45, 0
1, 42600, Note_on_c, 0, 45, 100
1, 42600, Note_on_c, 0, 57, 100
1, 42718, Note_on_c, 0, 45, 0
1, 42718, Note_on_c, 0, 57, 0
1, 42720, Note_on_c, 0, 45, 100
1, 42720, Note_on_c, 0, 57, 100
1, 42838, Note_on_c, 0, 45, 0
1, 42838, Note_on_c, 0, 57, 0
1, 42840, Tempo, 789473
1, 42840, Note_on_c, 0, 46, 100
1, 42840, Note_on_c, 0, 58, 100
1, 42958, Note_on_c, 0, 46, 0
1, 42958, Note_on_c, 0, 58, 0
1, 42960, Tempo, 833333
1, 42960, Note_on_c, 0, 50, 100
1, 42960, Note_on_c, 0, 62, 100
1, 43069, Note_on_c, 0, 50, 0
1, 43069, Note_on_c, 0, 62, 0
1, 43080, Tempo, 882352
1, 43080, Note_on_c, 0, 60, 92
1, 43080, Note_on_c, 0, 48, 92
1, 43189, Note_on_c, 0, 60, 0
1, 43189, Note_on_c, 0, 48, 0
1, 43200, Tempo, 937500
1, 43200, Note_on_c, 0, 48, 84
1, 43200, Note_on_c, 0, 60, 84
1, 43309, Note_on_c, 0, 48, 0
1, 43309, Note_on_c, 0, 60, 0
1, 43320, Tempo, 937500
1, 43320, Note_on_c, 0, 48, 75
1, 43320, Note_on_c, 0, 60, 75
1, 43429, Note_on_c, 0, 48, 0
1, 43429, Note_on_c, 0, 60, 0
1, 43440, Note_on_c, 0, 48, 67
1, 43440, Note_on_c, 0, 60, 67
1, 43549, Note_on_c, 0, 48, 0
1, 43549, Note_on_c, 0, 60, 0
1, 43560, Note_on_c, 0, 50, 59
1, 43560, Note_on_c, 0, 62, 59
1, 43669, Note_on_c, 0, 50, 0
1, 43669, Note_on_c, 0, 62, 0
1, 43680, Note_on_c, 0, 63, 50
1, 43680, Note_on_c, 0, 51, 50
1, 43920, Note_on_c, 0, 63, 0
1, 43920, Note_on_c, 0, 51, 0
1, 44400, Time_signature, 4, 2, 24, 8
1, 44400, Tempo, 1000000
1, 44400, Note_on_c, 0, 46, 75
1, 44400, Note_on_c, 0, 86, 75
1, 44400, Note_on_c, 0, 62, 75
1, 44400, Note_on_c, 0, 74, 75
1, 44400, Note_on_c, 0, 53, 75
1, 44504, Control_c, 0, 64, 127
1, 44638, Note_on_c, 0, 53, 0
1, 44640, Note_on_c, 0, 65, 75
1, 44841, Control_c, 0, 64, 0
1, 44878, Note_on_c, 0, 46, 0
1, 44878, Note_on_c, 0, 86, 0
1, 44878, Note_on_c, 0, 62, 0
1, 44878, Note_on_c, 0, 74, 0
1, 44880, Note_on_c, 0, 81, 75
1, 44880, Note_on_c, 0, 69, 75
1, 44880, Note_on_c, 0, 51, 75
1, 44880, Note_on_c, 0, 60, 75
1, 44928, Control_c, 0, 64, 127
1, 45110, Note_on_c, 0, 65, 0
1, 45120, Note_on_c, 0, 65, 75
1, 45277, Control_c, 0, 64, 0
1, 45358, Note_on_c, 0, 81, 0
1, 45358, Note_on_c, 0, 69, 0
1, 45358, Note_on_c, 0, 51, 0
1, 45358, Note_on_c, 0, 60, 0
1, 45360, Note_on_c, 0, 82, 75
1, 45360, Note_on_c, 0, 58, 75
1, 45360, Note_on_c, 0, 70, 75
1, 45360, Note_on_c, 0, 50, 75
1, 45407, Control_c, 0, 64, 127
1, 45590, Note_on_c, 0, 65, 0
1, 45600, Note_on_c, 0, 65, 75
1, 45754, Control_c, 0, 64, 0
1, 45838, Note_on_c, 0, 82, 0
1, 45838, Note_on_c, 0, 58, 0
1, 45838, Note_on_c, 0, 70, 0
1, 45838, Note_on_c, 0, 50, 0
1, 45840, Note_on_c, 0, 65, 75
1, 45840, Note_on_c, 0, 72, 75
1, 45840, Note_on_c, 0, 77, 75
1, 45840, Note_on_c, 0, 45, 75
1, 45840, Note_on_c, 0, 53, 75
1, 45884, Control_c, 0, 64, 127
1, 46070, Note_on_c, 0, 65, 0
1, 46080, Note_on_c, 0, 60, 75
1, 46198, Note_on_c, 0, 77, 0
1, 46198, Note_on_c, 0, 65, 0
1, 46200, Note_on_c, 0, 75, 75
1, 46200, Note_on_c, 0, 63, 75
1, 46308, Control_c, 0, 64, 0
1, 46318, Note_on_c, 0, 60, 0
1, 46318, Note_on_c, 0, 72, 0
1, 46318, Note_on_c, 0, 75, 0
1, 46318, Note_on_c, 0, 45, 0
1, 46318, Note_on_c, 0, 63, 0
1, 46318, Note_on_c, 0, 53, 0
1, 46320, Time_signature, 3, 2, 24, 8
1, 46320, Tempo, 666666
1, 46320, Note_on_c, 0, 70, 75
1, 46320, Note_on_c, 0, 74, 75
1, 46320, Note_on_c, 0, 58, 75
1, 46320, Note_on_c, 0, 46, 75
1, 46320, Note_on_c, 0, 62, 75
1, 46320, Note_on_c, 0, 53, 75
1, 46559, Note_on_c, 0, 70, 0
1, 46559, Note_on_c, 0, 74, 0
1, 46559, Note_on_c, 0, 62, 0
1, 46559, Note_on_c, 0, 53, 0
1, 47520, Note_off_c, 0, 46, 22
1, 47520, Note_off_c, 0, 58, 69
1, 47520, Note_on_c, 0, 47, 75
1, 47520, Note_on_c, 0, 59, 75
1, 47750, Note_on_c, 0, 47, 0
1, 47750, Note_on_c, 0, 59, 0
1, 47760, Note_on_c, 0, 59, 75
1, 47760, Note_on_c, 0, 47, 75
1, 48239, Note_on_c, 0, 59, 0
1, 48239, Note_on_c, 0, 47, 0
1, 48240, Note_on_c, 0, 56, 75
1, 48240, Note_on_c, 0, 44, 75
1, 48479, Note_on_c, 0, 56, 0
1, 48479, Note_on_c, 0, 44, 0
1, 48480, Note_on_c, 0, 54, 75
1, 48480, Note_on_c, 0, 42, 75
1, 48959, Note_on_c, 0, 54, 0
1, 48959, Note_on_c, 0, 42, 0
1, 48960, Note_on_c, 0, 41, 75
1, 48960, Note_on_c, 0, 53, 75
1, 49199, Note_on_c, 0, 41, 0
1, 49199, Note_on_c, 0, 53, 0
1, 49200, Note_on_c, 0, 73, 75
1, 49200, Note_on_c, 0, 68, 75
1, 49200, Note_on_c, 0, 71, 75
1, 49304, Control_c, 0, 64, 127
1, 49680, Note_on_c, 0, 41, 75
1, 49680, Note_on_c, 0, 53, 75
1, 49919, Note_on_c, 0, 41, 0
1, 49919, Note_on_c, 0, 53, 0
1, 49920, Note_on_c, 0, 56, 75
1, 49920, Note_on_c, 0, 44, 75
1, 50398, Note_on_c, 0, 56, 0
1, 50398, Note_on_c, 0, 44, 0
1, 50400, Note_on_c, 0, 61, 75
1, 50400, Note_on_c, 0, 49, 75
1, 50511, Control_c, 0, 64, 0
1, 50630, Note_on_c, 0, 61, 0
1, 50630, Note_on_c, 0, 49, 0
1, 50640, Note_off_c, 0, 68, 10
1, 50640, Note_off_c, 0, 71, 35
1, 50640, Note_off_c, 0, 73, 61
1, 50640, Note_on_c, 0, 61, 75
1, 50640, Note_on_c, 0, 49, 75
1, 50640, Note_on_c, 0, 66, 75
1, 50640, Note_on_c, 0, 69, 75
1, 50640, Note_on_c, 0, 73, 75
1, 50716, Control_c, 0, 64, 127
1, 50878, Note_on_c, 0, 61, 0
1, 50878, Note_on_c, 0, 49, 0
1, 50880, Note_on_c, 0, 54, 81
1, 50880, Note_on_c, 0, 42, 81
1, 51119, Note_on_c, 0, 66, 0
1, 51119, Note_on_c, 0, 69, 0
1, 51119, Note_on_c, 0, 73, 0
1, 51120, Note_on_c, 0, 78, 87
1, 51120, Note_on_c, 0, 73, 87
1, 51120, Note_on_c, 0, 69, 87
1, 51214, Control_c, 0, 64, 0
1, 51239, Note_on_c, 0, 54, 0
1, 51239, Note_on_c, 0, 42, 0
1, 51240, Note_on_c, 0, 57, 90
1, 51240, Note_on_c, 0, 45, 90
1, 51359, Note_on_c, 0, 57, 0
1, 51359, Note_on_c, 0, 45, 0
1, 51360, Note_on_c, 0, 57, 93
1, 51360, Note_on_c, 0, 45, 93
1, 51599, Note_on_c, 0, 57, 0
1, 51599, Note_on_c, 0, 45, 0
1, 51599, Note_on_c, 0, 78, 0
1, 51599, Note_on_c, 0, 73, 0
1, 51599, Note_on_c, 0, 69, 0
1, 51600, Note_on_c, 0, 75, 99
1, 51600, Note_on_c, 0, 68, 99
1, 51600, Note_on_c, 0, 48, 99
1, 51600, Note_on_c, 0, 36, 99
1, 51719, Note_on_c, 0, 75, 0
1, 51719, Note_on_c, 0, 68, 0
1, 51719, Note_on_c, 0, 48, 0
1, 51719, Note_on_c, 0, 36, 0
1, 51720, Note_on_c, 0, 63, 102
1, 51720, Note_on_c, 0, 51, 102
1, 51839, Note_on_c, 0, 63, 0
1, 51839, Note_on_c, 0, 51, 0
1, 51840, Note_on_c, 0, 51, 105
1, 51840, Note_on_c, 0, 63, 105
1, 51959, Note_on_c, 0, 51, 0
1, 51959, Note_on_c, 0, 63, 0
1, 51960, Note_on_c, 0, 49, 108
1, 51960, Note_on_c, 0, 61, 108
1, 52070, Note_on_c, 0, 49, 0
1, 52070, Note_on_c, 0, 61, 0
1, 52080, Note_on_c, 0, 61, 111
1, 52080, Note_on_c, 0, 49, 111
1, 52197, Note_on_c, 0, 61, 0
1, 52197, Note_on_c, 0, 49, 0
1, 52200, Note_on_c, 0, 48, 114
1, 52200, Note_on_c, 0, 60, 114
1, 52317, Note_on_c, 0, 48, 0
1, 52317, Note_on_c, 0, 60, 0
1, 52320, Note_on_c, 0, 60, 117
1, 52320, Note_on_c, 0, 48, 117
1, 52437, Note_on_c, 0, 60, 0
1, 52437, Note_on_c, 0, 48, 0
1, 52440, Note_on_c, 0, 63, 120
1, 52440, Note_on_c, 0, 51, 120
1, 52557, Note_on_c, 0, 63, 0
1, 52557, Note_on_c, 0, 51, 0
1, 52560, Note_on_c, 0, 51, 123
1, 52560, Note_on_c, 0, 63, 123
1, 52677, Note_on_c, 0, 51, 0
1, 52677, Note_on_c, 0, 63, 0
1, 52680, Note_on_c, 0, 64, 127
1, 52680, Note_on_c, 0, 52, 127
1, 52797, Note_on_c, 0, 64, 0
1, 52797, Note_on_c, 0, 52, 0
1, 52800, Note_on_c, 0, 66, 127
1, 52800, Note_on_c, 0, 54, 127
1, 53150, Note_on_c, 0, 66, 0
1, 53150, Note_on_c, 0, 54, 0
1, 53160, Note_on_c, 0, 51, 127
1, 53160, Note_on_c, 0, 63, 127
1, 53279, Note_on_c, 0, 51, 0
1, 53279, Note_on_c, 0, 63, 0
1, 53280, Note_on_c, 0, 48, 127
1, 53280, Note_on_c, 0, 60, 127
1, 53399, Note_on_c, 0, 48, 0
1, 53399, Note_on_c, 0, 60, 0
1, 53400, Note_on_c, 0, 61, 127
1, 53400, Note_on_c, 0, 49, 127
1, 53519, Note_on_c, 0, 61, 0
1, 53519, Note_on_c, 0, 49, 0
1, 53520, Note_on_c, 0, 49, 127
1, 53520, Note_on_c, 0, 61, 127
1, 53758, Note_on_c, 0, 49, 0
1, 53758, Note_on_c, 0, 61, 0
1, 53760, Note_on_c, 0, 56, 127
1, 53760, Note_on_c, 0, 44, 127
1, 53998, Note_on_c, 0, 56, 0
1, 53998, Note_on_c, 0, 44, 0
1, 54000, Note_on_c, 0, 73, 60
1, 54000, Note_on_c, 0, 56, 60
1, 54000, Note_on_c, 0, 76, 60
1, 54238, Note_on_c, 0, 73, 0
1, 54240, Note_on_c, 0, 59, 60
1, 54240, Note_on_c, 0, 71, 60
1, 54480, Note_on_c, 0, 64, 60
1, 54719, Note_on_c, 0, 76, 0
1, 54720, Note_on_c, 0, 74, 60
1, 54958, Note_on_c, 0, 59, 0
1, 54958, Note_on_c, 0, 56, 0
1, 54958, Note_on_c, 0, 74, 0
1, 54958, Note_on_c, 0, 71, 0
1, 54958, Note_on_c, 0, 64, 0
1, 54960, Time_signature, 4, 2, 24, 8
1, 54960, Tempo, 375000
1, 54960, Note_on_c, 0, 69, 60
1, 54960, Note_on_c, 0, 64, 60
1, 54960, Note_on_c, 0, 73, 60
1, 54960, Note_on_c, 0, 45, 60
1, 54960, Note_on_c, 0, 57, 60
1, 55198, Note_on_c, 0, 69, 0
1, 55198, Note_on_c, 0, 64, 0
1, 55198, Note_on_c, 0, 73, 0
1, 55200, Note_on_c, 0, 73, 60
1, 55200, Note_on_c, 0, 61, 60
1, 55200, Note_on_c, 0, 52, 60
1, 55438, Note_on_c, 0, 73, 0
1, 55438, Note_on_c, 0, 61, 0
1, 55438, Note_on_c, 0, 52, 0
1, 55440, Note_on_c, 0, 54, 60
1, 55440, Note_on_c, 0, 74, 60
1, 55440, Note_on_c, 0, 62, 60
1, 55678, Note_on_c, 0, 54, 0
1, 55678, Note_on_c, 0, 74, 0
1, 55678, Note_on_c, 0, 62, 0
1, 55680, Note_on_c, 0, 76, 60
1, 55680, Note_on_c, 0, 64, 60
1, 55680, Note_on_c, 0, 55, 60
1, 55918, Note_on_c, 0, 76, 0
1, 55918, Note_on_c, 0, 64, 0
1, 55918, Note_on_c, 0, 55, 0
1, 55920, Note_on_c, 0, 76, 60
1, 55920, Note_on_c, 0, 64, 60
1, 55920, Note_on_c, 0, 55, 60
1, 56158, Note_on_c, 0, 76, 0
1, 56158, Note_on_c, 0, 64, 0
1, 56158, Note_on_c, 0, 55, 0
1, 56160, Note_on_c, 0, 54, 60
1, 56160, Note_on_c, 0, 74, 60
1, 56160, Note_on_c, 0, 62, 60
1, 56398, Note_on_c, 0, 54, 0
1, 56398, Note_on_c, 0, 74, 0
1, 56398, Note_on_c, 0, 62, 0
1, 56400, Note_on_c, 0, 73, 60
1, 56400, Note_on_c, 0, 52, 60
1, 56400, Note_on_c, 0, 61, 60
1, 56638, Note_on_c, 0, 73, 0
1, 56638, Note_on_c, 0, 52, 0
1, 56638, Note_on_c, 0, 61, 0
1, 56640, Note_on_c, 0, 71, 60
1, 56640, Note_on_c, 0, 59, 60
1, 56640, Note_on_c, 0, 50, 60
1, 56878, Note_on_c, 0, 71, 0
1, 56878, Note_on_c, 0, 59, 0
1, 56878, Note_on_c, 0, 50, 0
1, 56880, Note_off_c, 0, 57, 0
1, 56880, Note_off_c, 0, 45, 0
1, 56880, Note_on_c, 0, 76, 60
1, 56880, Note_on_c, 0, 73, 60
1, 56880, Note_on_c, 0, 64, 60
1, 56880, Note_on_c, 0, 57, 60
1, 56880, Note_on_c, 0, 45, 60
1, 57118, Note_on_c, 0, 76, 0
1, 57118, Note_on_c, 0, 73, 0
1, 57118, Note_on_c, 0, 64, 0
1, 57120, Note_on_c, 0, 73, 60
1, 57120, Note_on_c, 0, 76, 60
1, 57120, Note_on_c, 0, 64, 60
1, 57120, Note_on_c, 0, 61, 60
1, 57358, Note_on_c, 0, 73, 0
1, 57358, Note_on_c, 0, 76, 0
1, 57358, Note_on_c, 0, 64, 0
1, 57358, Note_on_c, 0, 61, 0
1, 57360, Note_on_c, 0, 66, 60
1, 57360, Note_on_c, 0, 78, 60
1, 57360, Note_on_c, 0, 74, 60
1, 57360, Note_on_c, 0, 62, 60
1, 57598, Note_on_c, 0, 66, 0
1, 57598, Note_on_c, 0, 78, 0
1, 57598, Note_on_c, 0, 74, 0
1, 57598, Note_on_c, 0, 62, 0
1, 57600, Note_on_c, 0, 76, 60
1, 57600, Note_on_c, 0, 67, 60
1, 57600, Note_on_c, 0, 79, 60
1, 57600, Note_on_c, 0, 64, 60
1, 57838, Note_on_c, 0, 76, 0
1, 57838, Note_on_c, 0, 67, 0
1, 57838, Note_on_c, 0, 79, 0
1, 57838, Note_on_c, 0, 64, 0
1, 57840, Note_on_c, 0, 64, 60
1, 57840, Note_on_c, 0, 76, 60
1, 57840, Note_on_c, 0, 67, 60
1, 57840, Note_on_c, 0, 79, 60
1, 58078, Note_on_c, 0, 64, 0
1, 58078, Note_on_c, 0, 76, 0
1, 58078, Note_on_c, 0, 67, 0
1, 58078, Note_on_c, 0, 79, 0
1, 58080, Note_on_c, 0, 66, 60
1, 58080, Note_on_c, 0, 78, 60
1, 58080, Note_on_c, 0, 74, 60
1, 58080, Note_on_c, 0, 62, 60
1, 58200, Note_off_c, 0, 45, 0
1, 58200, Note_off_c, 0, 57, 0
1, 58318, Note_on_c, 0, 66, 0
1, 58318, Note_on_c, 0, 78, 0
1, 58318, Note_on_c, 0, 74, 0
1, 58318, Note_on_c, 0, 62, 0
1, 58320, Note_on_c, 0, 67, 60
1, 58320, Note_on_c, 0, 76, 60
1, 58320, Note_on_c, 0, 73, 60
1, 58320, Note_on_c, 0, 57, 100
1, 58320, Note_on_c, 0, 45, 100
1, 58440, Note_on_c, 0, 57, 0
1, 58440, Note_on_c, 0, 45, 0
1, 58558, Note_on_c, 0, 67, 0
1, 58558, Note_on_c, 0, 76, 0
1, 58558, Note_on_c, 0, 73, 0
1, 58560, Note_on_c, 0, 66, 60
1, 58560, Note_on_c, 0, 74, 60
1, 58798, Note_on_c, 0, 66, 0
1, 58798, Note_on_c, 0, 74, 0
1, 58800, Time_signature, 3, 2, 24, 8
1, 58800, Tempo, 750000
1, 58800, Note_on_c, 0, 73, 110
1, 58800, Note_on_c, 0, 67, 110
1, 58800, Note_on_c, 0, 69, 110
1, 58800, Note_on_c, 0, 79, 110
1, 58800, Note_on_c, 0, 64, 110
1, 58800, Note_on_c, 0, 52, 110
1, 59038, Note_on_c, 0, 73, 0
1, 59038, Note_on_c, 0, 67, 0
1, 59038, Note_on_c, 0, 69, 0
1, 59038, Note_on_c, 0, 79, 0
1, 59038, Note_on_c, 0, 64, 0
1, 59038, Note_on_c, 0, 52, 0
1, 59040, Note_on_c, 0, 73, 110
1, 59040, Note_on_c, 0, 85, 110
1, 59040, Note_on_c, 0, 81, 110
1, 59040, Note_on_c, 0, 79, 110
1, 59240, Note_on_c, 0, 73, 0
1, 59240, Note_on_c, 0, 85, 0
1, 59240, Note_on_c, 0, 81, 0
1, 59240, Note_on_c, 0, 79, 0
1, 59280, Note_on_c, 0, 50, 110
1, 59280, Note_on_c, 0, 62, 110
1, 59398, Note_on_c, 0, 50, 0
1, 59398, Note_on_c, 0, 62, 0
1, 59400, Note_on_c, 0, 64, 110
1, 59400, Note_on_c, 0, 52, 110
1, 59518, Note_on_c, 0, 64, 0
1, 59518, Note_on_c, 0, 52, 0
1, 59520, Note_on_c, 0, 62, 110
1, 59520, Note_on_c, 0, 50, 110
1, 59638, Note_on_c, 0, 62, 0
1, 59638, Note_on_c, 0, 50, 0
1, 59640, Note_on_c, 0, 61, 110
1, 59640, Note_on_c, 0, 49, 110
1, 59758, Note_on_c, 0, 61, 0
1, 59758, Note_on_c, 0, 49, 0
1, 59760, Note_on_c, 0, 81, 110
1, 59760, Note_on_c, 0, 88, 110
1, 59760, Note_on_c, 0, 76, 110
1, 59760, Note_on_c, 0, 79, 110
1, 59880, Note_on_c, 0, 81, 0
1, 59880, Note_on_c, 0, 88, 0
1, 59880, Note_on_c, 0, 76, 0
1, 59880, Note_on_c, 0, 79, 0
1, 60120, Note_on_c, 0, 64, 110
1, 60120, Note_on_c, 0, 52, 110
1, 60238, Note_on_c, 0, 64, 0
1, 60238, Note_on_c, 0, 52, 0
1, 60240, Note_on_c, 0, 64, 110
1, 60240, Note_on_c, 0, 52, 110
1, 60478, Note_on_c, 0, 64, 0
1, 60478, Note_on_c, 0, 52, 0
1, 60480, Note_on_c, 0, 85, 110
1, 60480, Note_on_c, 0, 76, 110
1, 60480, Note_on_c, 0, 81, 110
1, 60480, Note_on_c, 0, 88, 110
1, 60480, Note_on_c, 0, 55, 110
1, 60480, Note_on_c, 0, 43, 110
1, 60830, Note_on_c, 0, 85, 0
1, 60830, Note_on_c, 0, 76, 0
1, 60830, Note_on_c, 0, 81, 0
1, 60830, Note_on_c, 0, 88, 0
1, 60830, Note_on_c, 0, 55, 0
1, 60830, Note_on_c, 0, 43, 0
1, 60840, Note_on_c, 0, 45, 110
1, 60840, Note_on_c, 0, 57, 110
1, 60958, Note_on_c, 0, 45, 0
1, 60958, Note_on_c, 0, 57, 0
1, 60960, Note_on_c, 0, 55, 110
1, 60960, Note_on_c, 0, 43, 110
1, 61199, Note_on_c, 0, 55, 0
1, 61199, Note_on_c, 0, 43, 0
1, 61200, Note_on_c, 0, 54, 110
1, 61200, Note_on_c, 0, 78, 110
1, 61200, Note_on_c, 0, 42, 110
1, 61200, Note_on_c, 0, 86, 110
1, 61200, Note_on_c, 0, 74, 110
1, 61200, Note_on_c, 0, 81, 110
1, 61263, Control_c, 0, 64, 127
1, 61300, Note_on_c, 0, 78, 0
1, 61300, Note_on_c, 0, 86, 0
1, 61300, Note_on_c, 0, 74, 0
1, 61300, Note_on_c, 0, 81, 0
1, 61320, Note_on_c, 0, 74, 110
1, 61320, Note_on_c, 0, 62, 110
1, 61439, Note_on_c, 0, 54, 0
1, 61439, Note_on_c, 0, 74, 0
1, 61439, Note_on_c, 0, 42, 0
1, 61439, Note_on_c, 0, 62, 0
1, 61440, Note_on_c, 0, 62, 110
1, 61440, Note_on_c, 0, 74, 110
1, 61440, Note_on_c, 0, 45, 110
1, 61440, Note_on_c, 0, 57, 110
1, 61559, Note_on_c, 0, 62, 0
1, 61559, Note_on_c, 0, 74, 0
1, 61560, Note_on_c, 0, 74, 110
1, 61560, Note_on_c, 0, 62, 110
1, 61619, Note_on_c, 0, 45, 0
1, 61619, Note_on_c, 0, 57, 0
1, 61620, Note_on_c, 0, 50, 110
1, 61656, Control_c, 0, 64, 0
1, 61670, Note_on_c, 0, 50, 0
1, 61679, Note_on_c, 0, 74, 0
1, 61679, Note_on_c, 0, 62, 0
1, 61680, Note_on_c, 0, 62, 110
1, 61680, Note_on_c, 0, 74, 110
1, 61680, Note_on_c, 0, 50, 110
1, 61800, Note_on_c, 0, 62, 0
1, 61800, Note_on_c, 0, 74, 0
1, 62038, Note_on_c, 0, 50, 0
1, 62040, Note_on_c, 0, 52, 110
1, 62040, Note_on_c, 0, 64, 110
1, 62160, Note_on_c, 0, 66, 110
1, 62160, Note_on_c, 0, 54, 110
1, 62160, Note_on_c, 0, 52, 0
1, 62160, Note_on_c, 0, 64, 0
1, 62280, Note_on_c, 0, 64, 110
1, 62280, Note_on_c, 0, 52, 110
1, 62280, Note_on_c, 0, 66, 0
1, 62280, Note_on_c, 0, 54, 0
1, 62399, Note_on_c, 0, 64, 0
1, 62399, Note_on_c, 0, 52, 0
1, 62400, Note_on_c, 0, 64, 110
1, 62400, Note_on_c, 0, 52, 110
1, 62520, Note_on_c, 0, 50, 110
1, 62520, Note_on_c, 0, 62, 110
1, 62520, Note_on_c, 0, 64, 0
1, 62520, Note_on_c, 0, 52, 0
1, 62639, Note_on_c, 0, 50, 0
1, 62639, Note_on_c, 0, 62, 0
1, 62640, Note_on_c, 0, 50, 110
1, 62640, Note_on_c, 0, 62, 110
1, 62759, Note_on_c, 0, 50, 0
1, 62759, Note_on_c, 0, 62, 0
1, 62760, Note_on_c, 0, 61, 110
1, 62760, Note_on_c, 0, 49, 110
1, 62879, Note_on_c, 0, 61, 0
1, 62879, Note_on_c, 0, 49, 0
1, 62880, Note_on_c, 0, 50, 110
1, 62880, Note_on_c, 0, 62, 110
1, 62999, Note_on_c, 0, 50, 0
1, 62999, Note_on_c, 0, 62, 0
1, 63000, Note_on_c, 0, 57, 110
1, 63000, Note_on_c, 0, 45, 110
1, 63119, Note_on_c, 0, 57, 0
1, 63119, Note_on_c, 0, 45, 0
1, 63120, Note_on_c, 0, 55, 110
1, 63120, Note_on_c, 0, 43, 110
1, 63239, Note_on_c, 0, 55, 0
1, 63239, Note_on_c, 0, 43, 0
1, 63240, Note_on_c, 0, 54, 110
1, 63240, Note_on_c, 0, 42, 110
1, 63359, Note_on_c, 0, 54, 0
1, 63359, Note_on_c, 0, 42, 0
1, 63360, Note_on_c, 0, 54, 110
1, 63360, Note_on_c, 0, 42, 110
1, 63479, Note_on_c, 0, 54, 0
1, 63479, Note_on_c, 0, 42, 0
1, 63480, Note_on_c, 0, 40, 110
1, 63480, Note_on_c, 0, 52, 110
1, 63599, Note_on_c, 0, 40, 0
1, 63599, Note_on_c, 0, 52, 0
1, 63600, Note_on_c, 0, 50, 110
1, 63600, Note_on_c, 0, 38, 110
1, 63719, Note_on_c, 0, 50, 0
1, 63719, Note_on_c, 0, 38, 0
1, 63720, Note_on_c, 0, 36, 110
1, 63720, Note_on_c, 0, 48, 110
1, 63839, Note_on_c, 0, 36, 0
1, 63839, Note_on_c, 0, 48, 0
1, 63840, Note_on_c, 0, 48, 110
1, 63840, Note_on_c, 0, 36, 110
1, 63959, Note_on_c, 0, 48, 0
1, 63959, Note_on_c, 0, 36, 0
1, 63960, Note_on_c, 0, 47, 110
1, 63960, Note_on_c, 0, 35, 110
1, 64079, Note_on_c, 0, 47, 0
1, 64079, Note_on_c, 0, 35, 0
1, 64080, Note_on_c, 0, 74, 110
1, 64080, Note_on_c, 0, 83, 110
1, 64080, Note_on_c, 0, 71, 110
1, 64080, Note_on_c, 0, 43, 110
1, 64080, Note_on_c, 0, 55, 110
1, 64158, Control_c, 0, 64, 127
1, 64200, Note_on_c, 0, 74, 0
1, 64200, Note_on_c, 0, 83, 0
1, 64200, Note_on_c, 0, 71, 0
1, 64320, Note_on_c, 0, 83, 110
1, 64320, Note_on_c, 0, 91, 110
1, 64320, Note_on_c, 0, 79, 110
1, 64420, Note_on_c, 0, 83, 0
1, 64420, Note_on_c, 0, 91, 0
1, 64420, Note_on_c, 0, 79, 0
1, 64704, Control_c, 0, 64, 0
1, 64919, Note_on_c, 0, 43, 0
1, 64919, Note_on_c, 0, 55, 0
1, 64920, Note_on_c, 0, 52, 110
1, 64920, Note_on_c, 0, 40, 110
1, 65038, Note_on_c, 0, 52, 0
1, 65038, Note_on_c, 0, 40, 0
1, 65040, Note_on_c, 0, 37, 110
1, 65040, Note_on_c, 0, 49, 110
1, 65158, Note_on_c, 0, 37, 0
1, 65158, Note_on_c, 0, 49, 0
1, 65160, Note_on_c, 0, 50, 110
1, 65160, Note_on_c, 0, 38, 110
1, 65278, Note_on_c, 0, 50, 0
1, 65278, Note_on_c, 0, 38, 0
1, 65280, Note_on_c, 0, 50, 110
1, 65280, Note_on_c, 0, 38, 110
1, 65518, Note_on_c, 0, 50, 0
1, 65518, Note_on_c, 0, 38, 0
1, 65520, Note_on_c, 0, 33, 110
1, 65520, Note_on_c, 0, 45, 110
1, 65758, Note_on_c, 0, 33, 0
1, 65758, Note_on_c, 0, 45, 0
1, 66000, Time_signature, 4, 2, 24, 8
1, 66000, Note_on_c, 0, 85, 127
1, 66000, Note_on_c, 0, 81, 127
1, 66000, Note_on_c, 0, 69, 127
1, 66000, Note_on_c, 0, 61, 127
1, 66000, Note_on_c, 0, 76, 127
1, 66000, Note_on_c, 0, 57, 127
1, 66000, Note_on_c, 0, 88, 127
1, 66000, Note_on_c, 0, 64, 127
1, 66138, Note_on_c, 0, 85, 0
1, 66138, Note_on_c, 0, 81, 0
1, 66138, Note_on_c, 0, 69, 0
1, 66138, Note_on_c, 0, 61, 0
1, 66138, Note_on_c, 0, 76, 0
1, 66138, Note_on_c, 0, 57, 0
1, 66138, Note_on_c, 0, 88, 0
1, 66138, Note_on_c, 0, 64, 0
1, 66480, Note_on_c, 0, 74, 127
1, 66480, Note_on_c, 0, 90, 127
1, 66480, Note_on_c, 0, 66, 127
1, 66480, Note_on_c, 0, 78, 127
1, 66480, Note_on_c, 0, 86, 127
1, 66480, Note_on_c, 0, 62, 127
1, 66618, Note_on_c, 0, 74, 0
1, 66618, Note_on_c, 0, 90, 0
1, 66618, Note_on_c, 0, 66, 0
1, 66618, Note_on_c, 0, 78, 0
1, 66618, Note_on_c, 0, 86, 0
1, 66618, Note_on_c, 0, 62, 0
1, 66960, Tempo, 375000
1, 66960, Time_signature, 4, 2, 24, 8
1, 66960, Note_on_c, 0, 54, 75
1, 66960, Note_on_c, 0, 42, 75
1, 67438, Note_on_c, 0, 54, 0
1, 67438, Note_on_c, 0, 42, 0
1, 67440, Note_on_c, 0, 55, 60
1, 67440, Note_on_c, 0, 43, 60
1, 67678, Note_on_c, 0, 55, 0
1, 67678, Note_on_c, 0, 43, 0
1, 67680, Note_on_c, 0, 45, 60
1, 67680, Note_on_c, 0, 57, 60
1, 67918, Note_on_c, 0, 45, 0
1, 67918, Note_on_c, 0, 57, 0
1, 67920, Note_on_c, 0, 57, 60
1, 67920, Note_on_c, 0, 45, 60
1, 68158, Note_on_c, 0, 57, 0
1, 68158, Note_on_c, 0, 45, 0
1, 68160, Note_on_c, 0, 55, 60
1, 68160, Note_on_c, 0, 43, 60
1, 68398, Note_on_c, 0, 55, 0
1, 68398, Note_on_c, 0, 43, 0
1, 68400, Note_on_c, 0, 42, 60
1, 68400, Note_on_c, 0, 54, 60
1, 68638, Note_on_c, 0, 42, 0
1, 68638, Note_on_c, 0, 54, 0
1, 68640, Note_on_c, 0, 40, 60
1, 68640, Note_on_c, 0, 52, 60
1, 68878, Note_on_c, 0, 40, 0
1, 68878, Note_on_c, 0, 52, 0
1, 68880, Note_on_c, 0, 50, 60
1, 68880, Note_on_c, 0, 38, 60
1, 69358, Note_on_c, 0, 50, 0
1, 69358, Note_on_c, 0, 38, 0
1, 69360, Note_on_c, 0, 52, 60
1, 69360, Note_on_c, 0, 40, 60
1, 69598, Note_on_c, 0, 52, 0
1, 69598, Note_on_c, 0, 40, 0
1, 69600, Note_on_c, 0, 42, 60
1, 69600, Note_on_c, 0, 54, 60
1, 69838, Note_on_c, 0, 42, 0
1, 69838, Note_on_c, 0, 54, 0
1, 69840, Note_on_c, 0, 54, 60
1, 69840, Note_on_c, 0, 42, 60
1, 70198, Note_on_c, 0, 54, 0
1, 70198, Note_on_c, 0, 42, 0
1, 70200, Note_on_c, 0, 40, 60
1, 70200, Note_on_c, 0, 52, 60
1, 70310, Note_on_c, 0, 40, 0
1, 70310, Note_on_c, 0, 52, 0
1, 70320, Note_on_c, 0, 52, 60
1, 70320, Note_on_c, 0, 40, 60
1, 70799, Note_on_c, 0, 52, 0
1, 70799, Note_on_c, 0, 40, 0
1, 70800, Note_on_c, 0, 54, 60
1, 70800, Note_on_c, 0, 42, 60
1, 71279, Note_on_c, 0, 54, 0
1, 71279, Note_on_c, 0, 42, 0
1, 71280, Note_on_c, 0, 55, 60
1, 71280, Note_on_c, 0, 43, 60
1, 71518, Note_on_c, 0, 55, 0
1, 71518, Note_on_c, 0, 43, 0
1, 71520, Note_on_c, 0, 57, 60
1, 71520, Note_on_c, 0, 45, 60
1, 71758, Note_on_c, 0, 57, 0
1, 71758, Note_on_c, 0, 45, 0
1, 71760, Note_on_c, 0, 45, 60
1, 71760, Note_on_c, 0, 57, 60
1, 71998, Note_on_c, 0, 45, 0
1, 71998, Note_on_c, 0, 57, 0
1, 72000, Note_on_c, 0, 55, 60
1, 72000, Note_on_c, 0, 43, 60
1, 72238, Note_on_c, 0, 55, 0
1, 72238, Note_on_c, 0, 43, 0
1, 72240, Note_on_c, 0, 54, 60
1, 72240, Note_on_c, 0, 42, 60
1, 72478, Note_on_c, 0, 54, 0
1, 72478, Note_on_c, 0, 42, 0
1, 72480, Note_on_c, 0, 40, 60
1, 72480, Note_on_c, 0, 52, 60
1, 72718, Note_on_c, 0, 40, 0
1, 72718, Note_on_c, 0, 52, 0
1, 72720, Note_on_c, 0, 50, 60
1, 72720, Note_on_c, 0, 38, 60
1, 73198, Note_on_c, 0, 50, 0
1, 73198, Note_on_c, 0, 38, 0
1, 73200, Note_on_c, 0, 52, 60
1, 73200, Note_on_c, 0, 40, 60
1, 73438, Note_on_c, 0, 52, 0
1, 73438, Note_on_c, 0, 40, 0
1, 73440, Note_on_c, 0, 54, 60
1, 73440, Note_on_c, 0, 42, 60
1, 73678, Note_on_c, 0, 54, 0
1, 73678, Note_on_c, 0, 42, 0
1, 73680, Note_on_c, 0, 52, 60
1, 73680, Note_on_c, 0, 40, 60
1, 74038, Note_on_c, 0, 52, 0
1, 74038, Note_on_c, 0, 40, 0
1, 74040, Note_on_c, 0, 50, 60
1, 74040, Note_on_c, 0, 38, 60
1, 74150, Note_on_c, 0, 50, 0
1, 74150, Note_on_c, 0, 38, 0
1, 74160, Note_on_c, 0, 38, 60
1, 74160, Note_on_c, 0, 50, 60
1, 74630, Note_on_c, 0, 38, 0
1, 74630, Note_on_c, 0, 50, 0
1, 74640, Note_on_c, 0, 52, 60
1, 74640, Note_on_c, 0, 40, 60
1, 75110, Note_on_c, 0, 52, 0
1, 75110, Note_on_c, 0, 40, 0
1, 75120, Note_on_c, 0, 54, 60
1, 75120, Note_on_c, 0, 42, 60
1, 75358, Note_on_c, 0, 54, 0
1, 75358, Note_on_c, 0, 42, 0
1, 75360, Note_on_c, 0, 50, 60
1, 75360, Note_on_c, 0, 38, 60
1, 75598, Note_on_c, 0, 50, 0
1, 75598, Note_on_c, 0, 38, 0
1, 75600, Note_on_c, 0, 40, 60
1, 75600, Note_on_c, 0, 52, 60
1, 75838, Note_on_c, 0, 40, 0
1, 75838, Note_on_c, 0, 52, 0
1, 75840, Note_on_c, 0, 54, 60
1, 75840, Note_on_c, 0, 42, 60
1, 75958, Note_on_c, 0, 54, 0
1, 75958, Note_on_c, 0, 42, 0
1, 75960, Note_on_c, 0, 55, 60
1, 75960, Note_on_c, 0, 43, 60
1, 76078, Note_on_c, 0, 55, 0
1, 76078, Note_on_c, 0, 43, 0
1, 76080, Note_on_c, 0, 54, 60
1, 76080, Note_on_c, 0, 42, 60
1, 76318, Note_on_c, 0, 54, 0
1, 76318, Note_on_c, 0, 42, 0
1, 76320, Note_on_c, 0, 38, 60
1, 76320, Note_on_c, 0, 50, 60
1, 76558, Note_on_c, 0, 38, 0
1, 76558, Note_on_c, 0, 50, 0
1, 76560, Note_on_c, 0, 40, 60
1, 76560, Note_on_c, 0, 52, 60
1, 76798, Note_on_c, 0, 40, 0
1, 76798, Note_on_c, 0, 52, 0
1, 76800, Note_on_c, 0, 54, 60
1, 76800, Note_on_c, 0, 42, 60
1, 76920, Note_on_c, 0, 55, 60
1, 76920, Note_on_c, 0, 43, 60
1, 77038, Note_on_c, 0, 54, 0
1, 77038, Note_on_c, 0, 42, 0
1, 77040, Note_on_c, 0, 54, 60
1, 77040, Note_on_c, 0, 42, 60
1, 77158, Note_on_c, 0, 55, 0
1, 77158, Note_on_c, 0, 43, 0
1, 77278, Note_on_c, 0, 54, 0
1, 77278, Note_on_c, 0, 42, 0
1, 77280, Note_on_c, 0, 52, 60
1, 77280, Note_on_c, 0, 40, 60
1, 77518, Note_on_c, 0, 52, 0
1, 77518, Note_on_c, 0, 40, 0
1, 77520, Note_on_c, 0, 50, 60
1, 77520, Note_on_c, 0, 38, 60
1, 77758, Note_on_c, 0, 50, 0
1, 77758, Note_on_c, 0, 38, 0
1, 77760, Note_on_c, 0, 52, 71
1, 77760, Note_on_c, 0, 40, 71
1, 77998, Note_on_c, 0, 52, 0
1, 77998, Note_on_c, 0, 40, 0
1, 78000, Note_on_c, 0, 45, 83
1, 78000, Note_on_c, 0, 33, 83
1, 78238, Note_on_c, 0, 45, 0
1, 78238, Note_on_c, 0, 33, 0
1, 78240, Note_on_c, 0, 54, 95
1, 78240, Note_on_c, 0, 42, 95
1, 78718, Note_on_c, 0, 54, 0
1, 78718, Note_on_c, 0, 42, 0
1, 78720, Note_on_c, 0, 54, 60
1, 78720, Note_on_c, 0, 42, 60
1, 78958, Note_on_c, 0, 54, 0
1, 78958, Note_on_c, 0, 42, 0
1, 78960, Note_on_c, 0, 55, 60
1, 78960, Note_on_c, 0, 43, 60
1, 79198, Note_on_c, 0, 55, 0
1, 79198, Note_on_c, 0, 43, 0
1, 79200, Note_on_c, 0, 45, 60
1, 79200, Note_on_c, 0, 57, 60
1, 79438, Note_on_c, 0, 45, 0
1, 79438, Note_on_c, 0, 57, 0
1, 79440, Note_on_c, 0, 57, 60
1, 79440, Note_on_c, 0, 45, 60
1, 79678, Note_on_c, 0, 57, 0
1, 79678, Note_on_c, 0, 45, 0
1, 79680, Note_on_c, 0, 55, 60
1, 79680, Note_on_c, 0, 43, 60
1, 79918, Note_on_c, 0, 55, 0
1, 79918, Note_on_c, 0, 43, 0
1, 79920, Note_on_c, 0, 54, 60
1, 79920, Note_on_c, 0, 42, 60
1, 80158, Note_on_c, 0, 54, 0
1, 80158, Note_on_c, 0, 42, 0
1, 80160, Note_on_c, 0, 40, 60
1, 80160, Note_on_c, 0, 52, 60
1, 80398, Note_on_c, 0, 40, 0
1, 80398, Note_on_c, 0, 52, 0
1, 80400, Note_on_c, 0, 50, 60
1, 80400, Note_on_c, 0, 38, 60
1, 80878, Note_on_c, 0, 50, 0
1, 80878, Note_on_c, 0, 38, 0
1, 80880, Note_on_c, 0, 52, 60
1, 80880, Note_on_c, 0, 40, 60
1, 81118, Note_on_c, 0, 52, 0
1, 81118, Note_on_c, 0, 40, 0
1, 81120, Note_on_c, 0, 54, 60
1, 81120, Note_on_c, 0, 42, 60
1, 81358, Note_on_c, 0, 54, 0
1, 81358, Note_on_c, 0, 42, 0
1, 81360, Note_on_c, 0, 40, 60
1, 81360, Note_on_c, 0, 52, 60
1, 81718, Note_on_c, 0, 40, 0
1, 81718, Note_on_c, 0, 52, 0
1, 81720, Note_on_c, 0, 50, 60
1, 81720, Note_on_c, 0, 38, 60
1, 81838, Note_on_c, 0, 50, 0
1, 81838, Note_on_c, 0, 38, 0
1, 81840, Note_on_c, 0, 50, 60
1, 81840, Note_on_c, 0, 38, 60
1, 82310, Note_on_c, 0, 50, 0
1, 82310, Note_on_c, 0, 38, 0
1, 82320, Note_on_c, 0, 52, 60
1, 82320, Note_on_c, 0, 40, 60
1, 82798, Note_on_c, 0, 52, 0
1, 82798, Note_on_c, 0, 40, 0
1, 82800, Note_on_c, 0, 54, 60
1, 82800, Note_on_c, 0, 42, 60
1, 83038, Note_on_c, 0, 54, 0
1, 83038, Note_on_c, 0, 42, 0
1, 83040, Note_on_c, 0, 50, 60
1, 83040, Note_on_c, 0, 38, 60
1, 83278, Note_on_c, 0, 50, 0
1, 83278, Note_on_c, 0, 38, 0
1, 83280, Note_on_c, 0, 52, 60
1, 83280, Note_on_c, 0, 40, 60
1, 83518, Note_on_c, 0, 52, 0
1, 83518, Note_on_c, 0, 40, 0
1, 83520, Note_on_c, 0, 54, 60
1, 83520, Note_on_c, 0, 42, 60
1, 83639, Note_on_c, 0, 54, 0
1, 83639, Note_on_c, 0, 42, 0
1, 83640, Note_on_c, 0, 55, 60
1, 83640, Note_on_c, 0, 43, 60
1, 83759, Note_on_c, 0, 55, 0
1, 83759, Note_on_c, 0, 43, 0
1, 83760, Note_on_c, 0, 42, 60
1, 83760, Note_on_c, 0, 54, 60
1, 83998, Note_on_c, 0, 42, 0
1, 83998, Note_on_c, 0, 54, 0
1, 84000, Note_on_c, 0, 50, 60
1, 84000, Note_on_c, 0, 38, 60
1, 84238, Note_on_c, 0, 50, 0
1, 84238, Note_on_c, 0, 38, 0
1, 84240, Note_on_c, 0, 40, 60
1, 84240, Note_on_c, 0, 52, 60
1, 84478, Note_on_c, 0, 40, 0
1, 84478, Note_on_c, 0, 52, 0
1, 84480, Note_on_c, 0, 54, 60
1, 84480, Note_on_c, 0, 42, 60
1, 84599, Note_on_c, 0, 54, 0
1, 84599, Note_on_c, 0, 42, 0
1, 84600, Note_on_c, 0, 55, 60
1, 84600, Note_on_c, 0, 43, 60
1, 84719, Note_on_c, 0, 55, 0
1, 84719, Note_on_c, 0, 43, 0
1, 84720, Note_on_c, 0, 42, 60
1, 84720, Note_on_c, 0, 54, 60
1, 84957, Note_on_c, 0, 42, 0
1, 84957, Note_on_c, 0, 54, 0
1, 84960, Note_on_c, 0, 52, 60
1, 84960, Note_on_c, 0, 40, 60
1, 85197, Note_on_c, 0, 52, 0
1, 85197, Note_on_c, 0, 40, 0
1, 85200, Note_on_c, 0, 38, 60
1, 85200, Note_on_c, 0, 50, 60
1, 85437, Note_on_c, 0, 38, 0
1, 85437, Note_on_c, 0, 50, 0
1, 85440, Note_on_c, 0, 40, 71
1, 85440, Note_on_c, 0, 52, 71
1, 85677, Note_on_c, 0, 40, 0
1, 85677, Note_on_c, 0, 52, 0
1, 85680, Note_on_c, 0, 45, 83
1, 85680, Note_on_c, 0, 33, 83
1, 85917, Note_on_c, 0, 45, 0
1, 85917, Note_on_c, 0, 33, 0
1, 85920, Note_on_c, 0, 54, 95
1, 85920, Note_on_c, 0, 42, 95
1, 86390, Note_on_c, 0, 54, 0
1, 86390, Note_on_c, 0, 42, 0
1, 86400, Note_on_c, 0, 42, 60
1, 86400, Note_on_c, 0, 54, 60
1, 86637, Note_on_c, 0, 42, 0
1, 86637, Note_on_c, 0, 54, 0
1, 86640, Note_on_c, 0, 55, 60
1, 86640, Note_on_c, 0, 43, 60
1, 86877, Note_on_c, 0, 55, 0
1, 86877, Note_on_c, 0, 43, 0
1, 86880, Note_on_c, 0, 57, 60
1, 86880, Note_on_c, 0, 45, 60
1, 87117, Note_on_c, 0, 57, 0
1, 87117, Note_on_c, 0, 45, 0
1, 87120, Note_on_c, 0, 57, 60
1, 87120, Note_on_c, 0, 45, 60
1, 87357, Note_on_c, 0, 57, 0
1, 87357, Note_on_c, 0, 45, 0
1, 87360, Note_on_c, 0, 43, 60
1, 87360, Note_on_c, 0, 55, 60
1, 87597, Note_on_c, 0, 43, 0
1, 87597, Note_on_c, 0, 55, 0
1, 87600, Note_on_c, 0, 54, 60
1, 87600, Note_on_c, 0, 42, 60
1, 87837, Note_on_c, 0, 54, 0
1, 87837, Note_on_c, 0, 42, 0
1, 87840, Note_on_c, 0, 40, 60
1, 87840, Note_on_c, 0, 52, 60
1, 88077, Note_on_c, 0, 40, 0
1, 88077, Note_on_c, 0, 52, 0
1, 88080, Note_on_c, 0, 50, 60
1, 88080, Note_on_c, 0, 38, 60
1, 88558, Note_on_c, 0, 50, 0
1, 88558, Note_on_c, 0, 38, 0
1, 88560, Note_on_c, 0, 52, 60
1, 88560, Note_on_c, 0, 40, 60
1, 88797, Note_on_c, 0, 52, 0
1, 88797, Note_on_c, 0, 40, 0
1, 88800, Note_on_c, 0, 54, 60
1, 88800, Note_on_c, 0, 42, 60
1, 89037, Note_on_c, 0, 54, 0
1, 89037, Note_on_c, 0, 42, 0
1, 89040, Note_on_c, 0, 52, 60
1, 89040, Note_on_c, 0, 40, 60
1, 89390, Note_on_c, 0, 52, 0
1, 89390, Note_on_c, 0, 40, 0
1, 89400, Note_on_c, 0, 50, 60
1, 89400, Note_on_c, 0, 38, 75
1, 89510, Note_on_c, 0, 50, 0
1, 89510, Note_on_c, 0, 38, 0
1, 89520, Note_on_c, 0, 38, 75
1, 89520, Note_on_c, 0, 50, 75
1, 89757, Note_on_c, 0, 38, 0
1, 89757, Note_on_c, 0, 50, 0
1, 89760, Note_on_c, 0, 57, 75
1, 89760, Note_on_c, 0, 45, 75
1, 89997, Note_on_c, 0, 57, 0
1, 89997, Note_on_c, 0, 45, 0
1, 90000, Note_on_c, 0, 66, 75
1, 90000, Note_on_c, 0, 45, 75
1, 90478, Note_on_c, 0, 66, 0
1, 90478, Note_on_c, 0, 45, 0
1, 90480, Note_on_c, 0, 67, 75
1, 90480, Note_on_c, 0, 38, 75
1, 90717, Note_on_c, 0, 67, 0
1, 90720, Note_on_c, 0, 69, 75
1, 90720, Note_on_c, 0, 66, 75
1, 90940, Note_on_c, 0, 69, 0
1, 90957, Note_on_c, 0, 38, 0
1, 90957, Note_on_c, 0, 66, 0
1, 90960, Note_on_c, 0, 62, 75
1, 90960, Note_on_c, 0, 69, 75
1, 90960, Note_on_c, 0, 35, 75
1, 91197, Note_on_c, 0, 69, 0
1, 91200, Note_on_c, 0, 67, 75
1, 91318, Note_on_c, 0, 62, 0
1, 91318, Note_on_c, 0, 35, 0
1, 91320, Note_on_c, 0, 37, 75
1, 91320, Note_on_c, 0, 64, 75
1, 91438, Note_on_c, 0, 37, 0
1, 91438, Note_on_c, 0, 67, 0
1, 91438, Note_on_c, 0, 64, 0
1, 91440, Note_on_c, 0, 66, 75
1, 91440, Note_on_c, 0, 38, 75
1, 91678, Note_on_c, 0, 66, 0
1, 91678, Note_on_c, 0, 38, 0
1, 91680, Note_on_c, 0, 64, 75
1, 91680, Note_on_c, 0, 59, 75
1, 91680, Note_on_c, 0, 43, 75
1, 91918, Note_on_c, 0, 64, 0
1, 91920, Note_on_c, 0, 62, 75
1, 92158, Note_on_c, 0, 59, 0
1, 92158, Note_on_c, 0, 43, 0
1, 92160, Note_on_c, 0, 57, 75
1, 92160, Note_on_c, 0, 42, 75
1, 92398, Note_on_c, 0, 62, 0
1, 92398, Note_on_c, 0, 57, 0
1, 92398, Note_on_c, 0, 42, 0
1, 92400, Note_on_c, 0, 64, 75
1, 92400, Note_on_c, 0, 40, 75
1, 92400, Note_on_c, 0, 55, 75
1, 92638, Note_on_c, 0, 64, 0
1, 92638, Note_on_c, 0, 40, 0
1, 92638, Note_on_c, 0, 55, 0
1, 92640, Note_on_c, 0, 66, 75
1, 92640, Note_on_c, 0, 38, 75
1, 92640, Note_on_c, 0, 54, 75
1, 92870, Note_on_c, 0, 66, 0
1, 92880, Note_on_c, 0, 66, 75
1, 93110, Note_on_c, 0, 38, 0
1, 93110, Note_on_c, 0, 54, 0
1, 93118, Note_on_c, 0, 66, 0
1, 93120, Note_on_c, 0, 37, 75
1, 93120, Note_on_c, 0, 57, 75
1, 93120, Note_on_c, 0, 64, 75
1, 93358, Note_on_c, 0, 37, 0
1, 93358, Note_on_c, 0, 57, 0
1, 93358, Note_on_c, 0, 64, 0
1, 93360, Note_on_c, 0, 64, 75
1, 93360, Note_on_c, 0, 62, 75
1, 93360, Note_on_c, 0, 35, 75
1, 93598, Note_on_c, 0, 62, 0
1, 93598, Note_on_c, 0, 35, 0
1, 93600, Note_on_c, 0, 61, 75
1, 93600, Note_on_c, 0, 33, 75
1, 93838, Note_on_c, 0, 64, 0
1, 93838, Note_on_c, 0, 61, 0
1, 93838, Note_on_c, 0, 33, 0
1, 93840, Note_on_c, 0, 66, 75
1, 93840, Note_on_c, 0, 45, 75
1, 94080, Note_on_c, 0, 62, 75
1, 94318, Note_on_c, 0, 66, 0
1, 94318, Note_on_c, 0, 45, 0
1, 94320, Note_on_c, 0, 67, 75
1, 94320, Note_on_c, 0, 38, 75
1, 94558, Note_on_c, 0, 67, 0
1, 94558, Note_on_c, 0, 62, 0
1, 94560, Note_on_c, 0, 69, 75
1, 94560, Note_on_c, 0, 64, 75
1, 94679, Note_on_c, 0, 64, 0
1, 94680, Note_on_c, 0, 66, 75
1, 94798, Note_on_c, 0, 69, 0
1, 94798, Note_on_c, 0, 38, 0
1, 94798, Note_on_c, 0, 66, 0
1, 94800, Note_on_c, 0, 62, 75
1, 94800, Note_on_c, 0, 69, 75
1, 94800, Note_on_c, 0, 35, 75
1, 95038, Note_on_c, 0, 69, 0
1, 95040, Note_on_c, 0, 67, 75
1, 95158, Note_on_c, 0, 62, 0
1, 95158, Note_on_c, 0, 35, 0
1, 95160, Note_on_c, 0, 37, 75
1, 95160, Note_on_c, 0, 64, 75
1, 95278, Note_on_c, 0, 37, 0
1, 95278, Note_on_c, 0, 67, 0
1, 95278, Note_on_c, 0, 64, 0
1, 95280, Note_on_c, 0, 38, 75
1, 95280, Note_on_c, 0, 66, 75
1, 95518, Note_on_c, 0, 38, 0
1, 95518, Note_on_c, 0, 66, 0
1, 95520, Note_on_c, 0, 64, 75
1, 95520, Note_on_c, 0, 59, 75
1, 95520, Note_on_c, 0, 43, 75
1, 95758, Note_on_c, 0, 64, 0
1, 95760, Note_on_c, 0, 62, 75
1, 95998, Note_on_c, 0, 59, 0
1, 95998, Note_on_c, 0, 43, 0
1, 96000, Note_on_c, 0, 42, 75
1, 96000, Note_on_c, 0, 57, 75
1, 96118, Note_on_c, 0, 42, 0
1, 96118, Note_on_c, 0, 57, 0
1, 96120, Note_on_c, 0, 55, 75
1, 96120, Note_on_c, 0, 40, 75
1, 96238, Note_on_c, 0, 62, 0
1, 96238, Note_on_c, 0, 55, 0
1, 96238, Note_on_c, 0, 40, 0
1, 96240, Note_on_c, 0, 64, 75
1, 96240, Note_on_c, 0, 54, 75
1, 96240, Note_on_c, 0, 38, 75
1, 96358, Note_on_c, 0, 38, 0
1, 96360, Note_on_c, 0, 37, 75
1, 96478, Note_on_c, 0, 64, 0
1, 96478, Note_on_c, 0, 54, 0
1, 96478, Note_on_c, 0, 37, 0
1, 96480, Note_on_c, 0, 35, 75
1, 96480, Note_on_c, 0, 66, 75
1, 96480, Note_on_c, 0, 62, 75
1, 96598, Note_on_c, 0, 35, 0
1, 96598, Note_on_c, 0, 62, 0
1, 96600, Note_on_c, 0, 61, 75
1, 96600, Note_on_c, 0, 33, 75
1, 96718, Note_on_c, 0, 61, 0
1, 96718, Note_on_c, 0, 66, 0
1, 96718, Note_on_c, 0, 33, 0
1, 96720, Note_on_c, 0, 31, 75
1, 96720, Note_on_c, 0, 64, 75
1, 96720, Note_on_c, 0, 59, 75
1, 96958, Note_on_c, 0, 31, 0
1, 96958, Note_on_c, 0, 59, 0
1, 96960, Note_on_c, 0, 61, 75
1, 96960, Note_on_c, 0, 33, 75
1, 97078, Note_on_c, 0, 64, 0
1, 97080, Note_on_c, 0, 62, 75
1, 97190, Note_on_c, 0, 62, 0
1, 97198, Note_on_c, 0, 61, 0
1, 97198, Note_on_c, 0, 33, 0
1, 97200, Note_on_c, 0, 30, 75
1, 97200, Note_on_c, 0, 62, 75
1, 97438, Note_on_c, 0, 30, 0
1, 97440, Note_on_c, 0, 42, 75
1, 97678, Note_on_c, 0, 42, 0
1, 97678, Note_on_c, 0, 62, 0
1, 97680, Note_on_c, 0, 64, 75
1, 97680, Note_on_c, 0, 43, 75
1, 98158, Note_on_c, 0, 64, 0
1, 98158, Note_on_c, 0, 43, 0
1, 98160, Note_on_c, 0, 66, 75
1, 98160, Note_on_c, 0, 45, 75
1, 98398, Note_on_c, 0, 66, 0
1, 98398, Note_on_c, 0, 45, 0
1, 98400, Note_on_c, 0, 47, 75
1, 98400, Note_on_c, 0, 62, 75
1, 98638, Note_on_c, 0, 47, 0
1, 98638, Note_on_c, 0, 62, 0
1, 98640, Note_on_c, 0, 64, 75
1, 98640, Note_on_c, 0, 57, 75
1, 98640, Note_on_c, 0, 37, 75
1, 98878, Note_on_c, 0, 64, 0
1, 98880, Note_on_c, 0, 66, 75
1, 98998, Note_on_c, 0, 66, 0
1, 99000, Note_on_c, 0, 67, 75
1, 99118, Note_on_c, 0, 67, 0
1, 99118, Note_on_c, 0, 37, 0
1, 99120, Note_on_c, 0, 66, 75
1, 99120, Note_on_c, 0, 38, 75
1, 99358, Note_on_c, 0, 66, 0
1, 99358, Note_on_c, 0, 57, 0
1, 99358, Note_on_c, 0, 38, 0
1, 99360, Note_on_c, 0, 40, 75
1, 99360, Note_on_c, 0, 55, 75
1, 99360, Note_on_c, 0, 62, 75
1, 99478, Note_on_c, 0, 40, 0
1, 99478, Note_on_c, 0, 55, 0
1, 99480, Note_on_c, 0, 42, 75
1, 99480, Note_on_c, 0, 57, 75
1, 99598, Note_on_c, 0, 42, 0
1, 99598, Note_on_c, 0, 57, 0
1, 99598, Note_on_c, 0, 62, 0
1, 99600, Note_on_c, 0, 64, 75
1, 99600, Note_on_c, 0, 43, 75
1, 99600, Note_on_c, 0, 59, 75
1, 99838, Note_on_c, 0, 64, 0
1, 99840, Note_on_c, 0, 66, 75
1, 99958, Note_on_c, 0, 66, 0
1, 99960, Note_on_c, 0, 67, 75
1, 100078, Note_on_c, 0, 67, 0
1, 100078, Note_on_c, 0, 43, 0
1, 100078, Note_on_c, 0, 59, 0
1, 100080, Note_on_c, 0, 66, 75
1, 100080, Note_on_c, 0, 61, 75
1, 100080, Note_on_c, 0, 45, 75
1, 100318, Note_on_c, 0, 66, 0
1, 100318, Note_on_c, 0, 45, 0
1, 100320, Note_on_c, 0, 46, 75
1, 100320, Note_on_c, 0, 64, 75
1, 100558, Note_on_c, 0, 46, 0
1, 100558, Note_on_c, 0, 61, 0
1, 100558, Note_on_c, 0, 64, 0
1, 100560, Note_on_c, 0, 62, 75
1, 100560, Note_on_c, 0, 47, 75
1, 100798, Note_on_c, 0, 62, 0
1, 100798, Note_on_c, 0, 47, 0
1, 100800, Note_on_c, 0, 49, 80
1, 100800, Note_on_c, 0, 64, 80
1, 101040, Note_on_c, 0, 57, 85
1, 101278, Note_on_c, 0, 49, 0
1, 101278, Note_on_c, 0, 64, 0
1, 101278, Note_on_c, 0, 57, 0
1, 101280, Note_on_c, 0, 62, 90
1, 101280, Note_on_c, 0, 66, 90
1, 101280, Note_on_c, 0, 50, 90
1, 101520, Note_on_c, 0, 45, 75
1, 101638, Note_on_c, 0, 50, 0
1, 101640, Note_on_c, 0, 57, 75
1, 101741, Note_on_c, 0, 62, 0
1, 101758, Note_on_c, 0, 66, 0
1, 101758, Note_on_c, 0, 57, 0
1, 101760, Note_on_c, 0, 66, 75
1, 101760, Note_on_c, 0, 62, 75
1, 101998, Note_on_c, 0, 66, 0
1, 102000, Note_on_c, 0, 36, 75
1, 102000, Note_on_c, 0, 67, 75
1, 102000, Note_on_c, 0, 45, 0
1, 102118, Note_on_c, 0, 62, 0
1, 102120, Note_on_c, 0, 64, 75
1, 102238, Note_on_c, 0, 64, 0
1, 102238, Note_on_c, 0, 67, 0
1, 102240, Note_on_c, 0, 66, 75
1, 102240, Note_on_c, 0, 69, 75
1, 102470, Note_on_c, 0, 69, 0
1, 102478, Note_on_c, 0, 36, 0
1, 102480, Note_on_c, 0, 35, 75
1, 102480, Note_on_c, 0, 69, 75
1, 102598, Note_on_c, 0, 66, 0
1, 102600, Note_on_c, 0, 62, 75
1, 102718, Note_on_c, 0, 62, 0
1, 102718, Note_on_c, 0, 69, 0
1, 102720, Note_on_c, 0, 67, 75
1, 102720, Note_on_c, 0, 64, 75
1, 102838, Note_on_c, 0, 35, 0
1, 102840, Note_on_c, 0, 37, 75
1, 102958, Note_on_c, 0, 37, 0
1, 102958, Note_on_c, 0, 67, 0
1, 102958, Note_on_c, 0, 64, 0
1, 102960, Note_on_c, 0, 38, 75
1, 102960, Note_on_c, 0, 66, 75
1, 103198, Note_on_c, 0, 38, 0
1, 103198, Note_on_c, 0, 66, 0
1, 103200, Note_on_c, 0, 64, 75
1, 103200, Note_on_c, 0, 43, 75
1, 103200, Note_on_c, 0, 59, 75
1, 103420, Note_on_c, 0, 64, 0
1, 103440, Note_on_c, 0, 62, 75
1, 103678, Note_on_c, 0, 43, 0
1, 103678, Note_on_c, 0, 59, 0
1, 103680, Note_on_c, 0, 42, 75
1, 103680, Note_on_c, 0, 57, 75
1, 103798, Note_on_c, 0, 42, 0
1, 103798, Note_on_c, 0, 57, 0
1, 103800, Note_on_c, 0, 40, 75
1, 103800, Note_on_c, 0, 55, 75
1, 103918, Note_on_c, 0, 62, 0
1, 103918, Note_on_c, 0, 40, 0
1, 103918, Note_on_c, 0, 55, 0
1, 103920, Note_on_c, 0, 38, 75
1, 103920, Note_on_c, 0, 64, 75
1, 103920, Note_on_c, 0, 54, 75
1, 104038, Note_on_c, 0, 38, 0
1, 104040, Note_on_c, 0, 37, 75
1, 104158, Note_on_c, 0, 37, 0
1, 104158, Note_on_c, 0, 64, 0
1, 104158, Note_on_c, 0, 54, 0
1, 104160, Note_on_c, 0, 66, 75
1, 104160, Note_on_c, 0, 35, 75
1, 104160, Note_on_c, 0, 62, 75
1, 104278, Note_on_c, 0, 35, 0
1, 104278, Note_on_c, 0, 62, 0
1, 104280, Note_on_c, 0, 61, 75
1, 104280, Note_on_c, 0, 33, 75
1, 104398, Note_on_c, 0, 66, 0
1, 104398, Note_on_c, 0, 61, 0
1, 104398, Note_on_c, 0, 33, 0
1, 104400, Note_on_c, 0, 64, 75
1, 104400, Note_on_c, 0, 59, 75
1, 104400, Note_on_c, 0, 31, 75
1, 104638, Note_on_c, 0, 59, 0
1, 104638, Note_on_c, 0, 31, 0
1, 104640, Note_on_c, 0, 61, 75
1, 104640, Note_on_c, 0, 33, 75
1, 104758, Note_on_c, 0, 64, 0
1, 104760, Note_on_c, 0, 62, 75
1, 104878, Note_on_c, 0, 62, 0
1, 104878, Note_on_c, 0, 61, 0
1, 104878, Note_on_c, 0, 33, 0
1, 104880, Note_on_c, 0, 30, 75
1, 104880, Note_on_c, 0, 62, 75
1, 105118, Note_on_c, 0, 30, 0
1, 105120, Note_on_c, 0, 42, 75
1, 105358, Note_on_c, 0, 42, 0
1, 105358, Note_on_c, 0, 62, 0
1, 105360, Note_on_c, 0, 64, 75
1, 105360, Note_on_c, 0, 43, 75
1, 105838, Note_on_c, 0, 64, 0
1, 105838, Note_on_c, 0, 43, 0
1, 105840, Note_on_c, 0, 66, 75
1, 105840, Note_on_c, 0, 45, 75
1, 106078, Note_on_c, 0, 66, 0
1, 106078, Note_on_c, 0, 45, 0
1, 106080, Note_on_c, 0, 62, 75
1, 106080, Note_on_c, 0, 47, 75
1, 106318, Note_on_c, 0, 62, 0
1, 106318, Note_on_c, 0, 47, 0
1, 106320, Note_on_c, 0, 64, 75
1, 106320, Note_on_c, 0, 57, 75
1, 106320, Note_on_c, 0, 37, 75
1, 106558, Note_on_c, 0, 64, 0
1, 106560, Note_on_c, 0, 66, 75
1, 106678, Note_on_c, 0, 66, 0
1, 106680, Note_on_c, 0, 67, 75
1, 106798, Note_on_c, 0, 67, 0
1, 106798, Note_on_c, 0, 37, 0
1, 106800, Note_on_c, 0, 38, 75
1, 106800, Note_on_c, 0, 66, 75
1, 106918, Note_on_c, 0, 57, 0
1, 106920, Note_on_c, 0, 54, 75
1, 107038, Note_on_c, 0, 38, 0
1, 107038, Note_on_c, 0, 54, 0
1, 107038, Note_on_c, 0, 66, 0
1, 107040, Note_on_c, 0, 40, 75
1, 107040, Note_on_c, 0, 62, 75
1, 107040, Note_on_c, 0, 55, 75
1, 107158, Note_on_c, 0, 40, 0
1, 107158, Note_on_c, 0, 55, 0
1, 107160, Note_on_c, 0, 42, 75
1, 107160, Note_on_c, 0, 57, 75
1, 107278, Note_on_c, 0, 42, 0
1, 107278, Note_on_c, 0, 62, 0
1, 107278, Note_on_c, 0, 57, 0
1, 107280, Note_on_c, 0, 64, 75
1, 107280, Note_on_c, 0, 59, 75
1, 107280, Note_on_c, 0, 43, 75
1, 107518, Note_on_c, 0, 64, 0
1, 107520, Note_on_c, 0, 66, 75
1, 107638, Note_on_c, 0, 66, 0
1, 107640, Note_on_c, 0, 67, 75
1, 107758, Note_on_c, 0, 67, 0
1, 107758, Note_on_c, 0, 59, 0
1, 107758, Note_on_c, 0, 43, 0
1, 107760, Note_on_c, 0, 66, 75
1, 107760, Note_on_c, 0, 45, 75
1, 107760, Note_on_c, 0, 61, 75
1, 107998, Note_on_c, 0, 66, 0
1, 107998, Note_on_c, 0, 45, 0
1, 108000, Note_on_c, 0, 46, 75
1, 108000, Note_on_c, 0, 64, 75
1, 108238, Note_on_c, 0, 46, 0
1, 108238, Note_on_c, 0, 64, 0
1, 108238, Note_on_c, 0, 61, 0
1, 108240, Note_on_c, 0, 47, 75
1, 108240, Note_on_c, 0, 62, 75
1, 108478, Note_on_c, 0, 47, 0
1, 108478, Note_on_c, 0, 62, 0
1, 108480, Note_on_c, 0, 49, 80
1, 108480, Note_on_c, 0, 64, 80
1, 108720, Note_on_c, 0, 57, 85
1, 108958, Note_on_c, 0, 49, 0
1, 108958, Note_on_c, 0, 64, 0
1, 108958, Note_on_c, 0, 57, 0
1, 108960, Note_on_c, 0, 66, 90
1, 108960, Note_on_c, 0, 62, 90
1, 108960, Note_on_c, 0, 50, 90
1, 109198, Note_on_c, 0, 50, 0
1, 109200, Note_on_c, 0, 45, 75
1, 109318, Note_on_c, 0, 62, 0
1, 109320, Note_on_c, 0, 57, 75
1, 109438, Note_on_c, 0, 66, 0
1, 109438, Note_on_c, 0, 57, 0
1, 109440, Note_on_c, 0, 66, 75
1, 109440, Note_on_c, 0, 62, 75
1, 109678, Note_on_c, 0, 66, 0
1, 109678, Note_on_c, 0, 45, 0
1, 109680, Note_on_c, 0, 36, 75
1, 109680, Note_on_c, 0, 67, 75
1, 109798, Note_on_c, 0, 62, 0
1, 109800, Note_on_c, 0, 64, 75
1, 109918, Note_on_c, 0, 64, 0
1, 109918, Note_on_c, 0, 67, 0
1, 109920, Note_on_c, 0, 66, 75
1, 109920, Note_on_c, 0, 69, 75
1, 110158, Note_on_c, 0, 36, 0
1, 110158, Note_on_c, 0, 69, 0
1, 110160, Note_on_c, 0, 35, 75
1, 110160, Note_on_c, 0, 69, 75
1, 110279, Note_on_c, 0, 66, 0
1, 110280, Note_on_c, 0, 62, 75
1, 110398, Note_on_c, 0, 62, 0
1, 110398, Note_on_c, 0, 69, 0
1, 110400, Note_on_c, 0, 67, 75
1, 110400, Note_on_c, 0, 64, 75
1, 110519, Note_on_c, 0, 35, 0
1, 110520, Note_on_c, 0, 37, 75
1, 110638, Note_on_c, 0, 37, 0
1, 110638, Note_on_c, 0, 67, 0
1, 110638, Note_on_c, 0, 64, 0
1, 110640, Note_on_c, 0, 66, 75
1, 110640, Note_on_c, 0, 38, 75
1, 110760, Note_on_c, 0, 57, 75
1, 110878, Note_on_c, 0, 66, 0
1, 110878, Note_on_c, 0, 38, 0
1, 110878, Note_on_c, 0, 57, 0
1, 110880, Note_on_c, 0, 64, 75
1, 110880, Note_on_c, 0, 59, 75
1, 110880, Note_on_c, 0, 43, 75
1, 110998, Note_on_c, 0, 59, 0
1, 111000, Note_on_c, 0, 61, 75
1, 111118, Note_on_c, 0, 64, 0
1, 111118, Note_on_c, 0, 61, 0
1, 111118, Note_on_c, 0, 43, 0
1, 111120, Note_on_c, 0, 62, 75
1, 111240, Note_on_c, 0, 59, 75
1, 111350, Note_on_c, 0, 59, 0
1, 111360, Note_on_c, 0, 42, 75
1, 111360, Note_on_c, 0, 57, 75
1, 111470, Note_on_c, 0, 42, 0
1, 111470, Note_on_c, 0, 57, 0
1, 111480, Note_on_c, 0, 40, 75
1, 111480, Note_on_c, 0, 55, 75
1, 111590, Note_on_c, 0, 62, 0
1, 111590, Note_on_c, 0, 40, 0
1, 111590, Note_on_c, 0, 55, 0
1, 111600, Note_on_c, 0, 64, 75
1, 111600, Note_on_c, 0, 54, 75
1, 111600, Note_on_c, 0, 38, 75
1, 111710, Note_on_c, 0, 38, 0
1, 111720, Note_on_c, 0, 37, 75
1, 111830, Note_on_c, 0, 64, 0
1, 111830, Note_on_c, 0, 54, 0
1, 111830, Note_on_c, 0, 37, 0
1, 111840, Note_on_c, 0, 66, 75
1, 111840, Note_on_c, 0, 62, 75
1, 111840, Note_on_c, 0, 35, 75
1, 111950, Note_on_c, 0, 62, 0
1, 111950, Note_on_c, 0, 35, 0
1, 111960, Note_on_c, 0, 33, 75
1, 111960, Note_on_c, 0, 61, 75
1, 112070, Note_on_c, 0, 66, 0
1, 112077, Note_on_c, 0, 61, 0
1, 112080, Note_on_c, 0, 59, 75
1, 112080, Note_on_c, 0, 64, 75
1, 112080, Note_on_c, 0, 31, 75
1, 112094, Note_on_c, 0, 33, 0
1, 112310, Note_on_c, 0, 59, 0
1, 112310, Note_on_c, 0, 31, 0
1, 112320, Note_on_c, 0, 61, 75
1, 112320, Note_on_c, 0, 33, 75
1, 112430, Note_on_c, 0, 64, 0
1, 112440, Note_on_c, 0, 62, 75
1, 112550, Note_on_c, 0, 61, 0
1, 112550, Note_on_c, 0, 33, 0
1, 112550, Note_on_c, 0, 62, 0
1, 112560, Note_on_c, 0, 62, 75
1, 112560, Note_on_c, 0, 30, 75
1, 112670, Note_on_c, 0, 62, 0
1, 112670, Note_on_c, 0, 30, 0
1, 112680, Note_on_c, 0, 71, 75
1, 112680, Note_on_c, 0, 57, 75
1, 112680, Note_on_c, 0, 43, 75
1, 112790, Note_on_c, 0, 71, 0
1, 112790, Note_on_c, 0, 57, 0
1, 112790, Note_on_c, 0, 43, 0
1, 112800, Note_on_c, 0, 42, 75
1, 112800, Note_on_c, 0, 69, 75
1, 112800, Note_on_c, 0, 59, 75
1, 112910, Note_on_c, 0, 42, 0
1, 112910, Note_on_c, 0, 69, 0
1, 112910, Note_on_c, 0, 59, 0
1, 112920, Note_on_c, 0, 67, 75
1, 112920, Note_on_c, 0, 61, 75
1, 112920, Note_on_c, 0, 40, 75
1, 113030, Note_on_c, 0, 67, 0
1, 113030, Note_on_c, 0, 61, 0
1, 113030, Note_on_c, 0, 40, 0
1, 113040, Note_on_c, 0, 38, 75
1, 113040, Note_on_c, 0, 57, 75
1, 113040, Note_on_c, 0, 78, 75
1, 113040, Note_on_c, 0, 66, 75
1, 113280, Note_on_c, 0, 62, 75
1, 113510, Note_on_c, 0, 38, 0
1, 113510, Note_on_c, 0, 57, 0
1, 113510, Note_on_c, 0, 78, 0
1, 113510, Note_on_c, 0, 66, 0
1, 113510, Note_on_c, 0, 62, 0
1, 113520, Note_on_c, 0, 67, 75
1, 113520, Note_on_c, 0, 79, 75
1, 113520, Note_on_c, 0, 50, 75
1, 113520, Note_on_c, 0, 64, 75
1, 113750, Note_on_c, 0, 67, 0
1, 113750, Note_on_c, 0, 79, 0
1, 113750, Note_on_c, 0, 64, 0
1, 113760, Note_on_c, 0, 81, 75
1, 113760, Note_on_c, 0, 69, 75
1, 113760, Note_on_c, 0, 66, 75
1, 113990, Note_on_c, 0, 81, 0
1, 113990, Note_on_c, 0, 69, 0
1, 113990, Note_on_c, 0, 50, 0
1, 113990, Note_on_c, 0, 66, 0
1, 114000, Note_on_c, 0, 81, 75
1, 114000, Note_on_c, 0, 69, 75
1, 114000, Note_on_c, 0, 62, 75
1, 114000, Note_on_c, 0, 59, 75
1, 114000, Note_on_c, 0, 50, 75
1, 114230, Note_on_c, 0, 81, 0
1, 114230, Note_on_c, 0, 69, 0
1, 114240, Note_on_c, 0, 79, 75
1, 114350, Note_on_c, 0, 62, 0
1, 114350, Note_on_c, 0, 59, 0
1, 114360, Note_on_c, 0, 61, 75
1, 114360, Note_on_c, 0, 64, 75
1, 114470, Note_on_c, 0, 79, 0
1, 114470, Note_on_c, 0, 61, 0
1, 114470, Note_on_c, 0, 64, 0
1, 114480, Note_on_c, 0, 66, 75
1, 114480, Note_on_c, 0, 78, 75
1, 114480, Note_on_c, 0, 62, 75
1, 114590, Note_on_c, 0, 66, 0
1, 114590, Note_on_c, 0, 62, 0
1, 114600, Note_on_c, 0, 62, 75
1, 114710, Note_on_c, 0, 62, 0
1, 114710, Note_on_c, 0, 78, 0
1, 114720, Note_on_c, 0, 67, 75
1, 114720, Note_on_c, 0, 59, 75
1, 114720, Note_on_c, 0, 76, 75
1, 114830, Note_on_c, 0, 59, 0
1, 114840, Note_on_c, 0, 61, 75
1, 114920, Note_on_c, 0, 76, 0
1, 114950, Note_on_c, 0, 61, 0
1, 114960, Note_on_c, 0, 74, 75
1, 114960, Note_on_c, 0, 62, 75
1, 114960, Note_on_c, 0, 57, 75
1, 114999, Note_on_c, 0, 50, 0
1, 115190, Note_on_c, 0, 67, 0
1, 115190, Note_on_c, 0, 62, 0
1, 115190, Note_on_c, 0, 57, 0
1, 115200, Note_on_c, 0, 66, 75
1, 115200, Note_on_c, 0, 69, 75
1, 115200, Note_on_c, 0, 50, 75
1, 115200, Note_on_c, 0, 38, 75
1, 115430, Note_on_c, 0, 66, 0
1, 115430, Note_on_c, 0, 74, 0
1, 115430, Note_on_c, 0, 50, 0
1, 115430, Note_on_c, 0, 38, 0
1, 115440, Note_on_c, 0, 76, 75
1, 115440, Note_on_c, 0, 64, 75
1, 115440, Note_on_c, 0, 37, 75
1, 115440, Note_on_c, 0, 49, 75
1, 115660, Note_on_c, 0, 69, 0
1, 115670, Note_on_c, 0, 76, 0
1, 115670, Note_on_c, 0, 64, 0
1, 115670, Note_on_c, 0, 37, 0
1, 115670, Note_on_c, 0, 49, 0
1, 115680, Note_on_c, 0, 62, 75
1, 115680, Note_on_c, 0, 69, 75
1, 115680, Note_on_c, 0, 35, 75
1, 115680, Note_on_c, 0, 47, 75
1, 115680, Note_on_c, 0, 78, 75
1, 115779, Note_on_c, 0, 78, 0
1, 115910, Note_on_c, 0, 62, 0
1, 115910, Note_on_c, 0, 69, 0
1, 115910, Note_on_c, 0, 35, 0
1, 115910, Note_on_c, 0, 47, 0
1, 115920, Note_on_c, 0, 66, 75
1, 115920, Note_on_c, 0, 78, 75
1, 115920, Note_on_c, 0, 74, 75
1, 115920, Note_on_c, 0, 33, 75
1, 115920, Note_on_c, 0, 45, 75
1, 116150, Note_on_c, 0, 74, 0
1, 116160, Note_on_c, 0, 73, 75
1, 116270, Note_on_c, 0, 66, 0
1, 116270, Note_on_c, 0, 78, 0
1, 116280, Note_on_c, 0, 76, 75
1, 116280, Note_on_c, 0, 64, 75
1, 116390, Note_on_c, 0, 76, 0
1, 116390, Note_on_c, 0, 64, 0
1, 116390, Note_on_c, 0, 73, 0
1, 116400, Note_on_c, 0, 61, 75
1, 116400, Note_on_c, 0, 71, 75
1, 116400, Note_on_c, 0, 76, 75
1, 116510, Note_on_c, 0, 61, 0
1, 116510, Note_on_c, 0, 33, 0
1, 116510, Note_on_c, 0, 45, 0
1, 116520, Note_on_c, 0, 64, 75
1, 116520, Note_on_c, 0, 43, 75
1, 116630, Note_on_c, 0, 64, 0
1, 116630, Note_on_c, 0, 71, 0
1, 116630, Note_on_c, 0, 76, 0
1, 116630, Note_on_c, 0, 43, 0
1, 116640, Note_on_c, 0, 66, 75
1, 116640, Note_on_c, 0, 42, 75
1, 116640, Note_on_c, 0, 69, 75
1, 116750, Note_on_c, 0, 66, 0
1, 116750, Note_on_c, 0, 42, 0
1, 116760, Note_on_c, 0, 40, 75
1, 116760, Note_on_c, 0, 67, 75
1, 116870, Note_on_c, 0, 40, 0
1, 116870, Note_on_c, 0, 67, 0
1, 116870, Note_on_c, 0, 69, 0
1, 116880, Note_on_c, 0, 38, 75
1, 116880, Note_on_c, 0, 78, 75
1, 116880, Note_on_c, 0, 66, 75
1, 116880, Note_on_c, 0, 57, 75
1, 117120, Note_on_c, 0, 62, 75
1, 117350, Note_on_c, 0, 38, 0
1, 117350, Note_on_c, 0, 78, 0
1, 117350, Note_on_c, 0, 66, 0
1, 117350, Note_on_c, 0, 57, 0
1, 117350, Note_on_c, 0, 62, 0
1, 117360, Note_on_c, 0, 50, 75
1, 117360, Note_on_c, 0, 79, 75
1, 117360, Note_on_c, 0, 67, 75
1, 117360, Note_on_c, 0, 64, 75
1, 117590, Note_on_c, 0, 79, 0
1, 117590, Note_on_c, 0, 67, 0
1, 117590, Note_on_c, 0, 64, 0
1, 117600, Note_on_c, 0, 81, 75
1, 117600, Note_on_c, 0, 69, 75
1, 117600, Note_on_c, 0, 66, 75
1, 117830, Note_on_c, 0, 50, 0
1, 117830, Note_on_c, 0, 81, 0
1, 117830, Note_on_c, 0, 69, 0
1, 117830, Note_on_c, 0, 66, 0
1, 117840, Note_on_c, 0, 50, 75
1, 117840, Note_on_c, 0, 81, 75
1, 117840, Note_on_c, 0, 69, 75
1, 117840, Note_on_c, 0, 62, 75
1, 117840, Note_on_c, 0, 59, 75
1, 118070, Note_on_c, 0, 81, 0
1, 118080, Note_on_c, 0, 79, 75
1, 118190, Note_on_c, 0, 62, 0
1, 118190, Note_on_c, 0, 59, 0
1, 118200, Note_on_c, 0, 61, 75
1, 118200, Note_on_c, 0, 64, 75
1, 118310, Note_on_c, 0, 79, 0
1, 118310, Note_on_c, 0, 69, 0
1, 118310, Note_on_c, 0, 61, 0
1, 118310, Note_on_c, 0, 64, 0
1, 118320, Note_on_c, 0, 66, 75
1, 118320, Note_on_c, 0, 78, 75
1, 118320, Note_on_c, 0, 62, 75
1, 118430, Note_on_c, 0, 66, 0
1, 118440, Note_on_c, 0, 69, 75
1, 118550, Note_on_c, 0, 69, 0
1, 118550, Note_on_c, 0, 78, 0
1, 118550, Note_on_c, 0, 62, 0
1, 118560, Note_on_c, 0, 67, 75
1, 118560, Note_on_c, 0, 76, 75
1, 118560, Note_on_c, 0, 71, 75
1, 118670, Note_on_c, 0, 71, 0
1, 118680, Note_on_c, 0, 73, 75
1, 118790, Note_on_c, 0, 50, 0
1, 118790, Note_on_c, 0, 76, 0
1, 118790, Note_on_c, 0, 73, 0
1, 118800, Note_on_c, 0, 74, 75
1, 118920, Note_on_c, 0, 73, 75
1, 118920, Note_on_c, 0, 64, 75
1, 119030, Note_on_c, 0, 67, 0
1, 119030, Note_on_c, 0, 73, 0
1, 119030, Note_on_c, 0, 64, 0
1, 119040, Note_on_c, 0, 66, 75
1, 119040, Note_on_c, 0, 62, 75
1, 119040, Note_on_c, 0, 71, 75
1, 119150, Note_on_c, 0, 66, 0
1, 119150, Note_on_c, 0, 62, 0
1, 119150, Note_on_c, 0, 71, 0
1, 119160, Note_on_c, 0, 69, 75
1, 119160, Note_on_c, 0, 61, 75
1, 119160, Note_on_c, 0, 64, 75
1, 119270, Note_on_c, 0, 74, 0
1, 119270, Note_on_c, 0, 69, 0
1, 119270, Note_on_c, 0, 61, 0
1, 119270, Note_on_c, 0, 64, 0
1, 119280, Note_on_c, 0, 67, 75
1, 119280, Note_on_c, 0, 76, 75
1, 119280, Note_on_c, 0, 62, 75
1, 119280, Note_on_c, 0, 59, 75
1, 119390, Note_on_c, 0, 67, 0
1, 119390, Note_on_c, 0, 62, 0
1, 119390, Note_on_c, 0, 59, 0
1, 119400, Note_on_c, 0, 61, 75
1, 119400, Note_on_c, 0, 66, 75
1, 119400, Note_on_c, 0, 57, 75
1, 119510, Note_on_c, 0, 61, 0
1, 119510, Note_on_c, 0, 76, 0
1, 119510, Note_on_c, 0, 66, 0
1, 119510, Note_on_c, 0, 57, 0
1, 119520, Note_on_c, 0, 78, 75
1, 119520, Note_on_c, 0, 64, 75
1, 119520, Note_on_c, 0, 59, 75
1, 119520, Note_on_c, 0, 55, 75
1, 119630, Note_on_c, 0, 64, 0
1, 119630, Note_on_c, 0, 59, 0
1, 119630, Note_on_c, 0, 55, 0
1, 119640, Note_on_c, 0, 54, 75
1, 119640, Note_on_c, 0, 62, 75
1, 119640, Note_on_c, 0, 57, 75
1, 119750, Note_on_c, 0, 78, 0
1, 119750, Note_on_c, 0, 54, 0
1, 119750, Note_on_c, 0, 62, 0
1, 119750, Note_on_c, 0, 57, 0
1, 119760, Note_on_c, 0, 76, 75
1, 119760, Note_on_c, 0, 62, 75
1, 119760, Note_on_c, 0, 55, 75
1, 119760, Note_on_c, 0, 45, 75
1, 119870, Note_on_c, 0, 62, 0
1, 119880, Note_on_c, 0, 61, 75
1, 119990, Note_on_c, 0, 61, 0
1, 119990, Note_on_c, 0, 55, 0
1, 120000, Note_on_c, 0, 67, 75
1, 120000, Note_on_c, 0, 57, 75
1, 120110, Note_on_c, 0, 76, 0
1, 120110, Note_on_c, 0, 67, 0
1, 120120, Note_on_c, 0, 66, 75
1, 120120, Note_on_c, 0, 74, 75
1, 120230, Note_on_c, 0, 66, 0
1, 120230, Note_on_c, 0, 74, 0
1, 120230, Note_on_c, 0, 57, 0
1, 120230, Note_on_c, 0, 45, 0
1, 120240, Note_on_c, 0, 38, 75
1, 120240, Note_on_c, 0, 74, 75
1, 120240, Note_on_c, 0, 62, 75
1, 120240, Note_on_c, 0, 54, 75
1, 120350, Note_on_c, 0, 62, 0
1, 120360, Note_on_c, 0, 66, 75
1, 120470, Note_on_c, 0, 38, 0
1, 120470, Note_on_c, 0, 66, 0
1, 120470, Note_on_c, 0, 54, 0
1, 120480, Note_on_c, 0, 45, 75
1, 120480, Note_on_c, 0, 64, 75
1, 120590, Note_on_c, 0, 64, 0
1, 120600, Note_on_c, 0, 62, 75
1, 120636, Note_on_c, 0, 62, 0
1, 120710, Note_on_c, 0, 74, 0
1, 120720, Note_on_c, 0, 61, 75
1, 120720, Note_on_c, 0, 67, 75
1, 120720, Note_on_c, 0, 76, 75
1, 120950, Note_on_c, 0, 61, 0
1, 120960, Note_on_c, 0, 64, 75
1, 121190, Note_on_c, 0, 64, 0
1, 121190, Note_on_c, 0, 67, 0
1, 121190, Note_on_c, 0, 76, 0
1, 121200, Note_on_c, 0, 78, 75
1, 121200, Note_on_c, 0, 62, 75
1, 121200, Note_on_c, 0, 69, 75
1, 121430, Note_on_c, 0, 78, 0
1, 121430, Note_on_c, 0, 62, 0
1, 121430, Note_on_c, 0, 69, 0
1, 121440, Note_on_c, 0, 59, 75
1, 121440, Note_on_c, 0, 74, 75
1, 121479, Note_on_c, 0, 45, 0
1, 121670, Note_on_c, 0, 59, 0
1, 121670, Note_on_c, 0, 74, 0
1, 121680, Note_on_c, 0, 67, 75
1, 121680, Note_on_c, 0, 45, 75
1, 121680, Note_on_c, 0, 61, 75
1, 121680, Note_on_c, 0, 76, 75
1, 121910, Note_on_c, 0, 67, 0
1, 121910, Note_on_c, 0, 76, 0
1, 121920, Note_on_c, 0, 78, 75
1, 121920, Note_on_c, 0, 66, 75
1, 122030, Note_on_c, 0, 78, 0
1, 122030, Note_on_c, 0, 66, 0
1, 122040, Note_on_c, 0, 64, 75
1, 122040, Note_on_c, 0, 79, 75
1, 122150, Note_on_c, 0, 64, 0
1, 122150, Note_on_c, 0, 61, 0
1, 122150, Note_on_c, 0, 79, 0
1, 122160, Note_on_c, 0, 78, 75
1, 122160, Note_on_c, 0, 66, 75
1, 122160, Note_on_c, 0, 62, 75
1, 122390, Note_on_c, 0, 78, 0
1, 122390, Note_on_c, 0, 66, 0
1, 122390, Note_on_c, 0, 62, 0
1, 122400, Note_on_c, 0, 74, 75
1, 122400, Note_on_c, 0, 67, 75
1, 122400, Note_on_c, 0, 64, 75
1, 122510, Note_on_c, 0, 67, 0
1, 122510, Note_on_c, 0, 64, 0
1, 122520, Note_on_c, 0, 66, 75
1, 122520, Note_on_c, 0, 69, 75
1, 122630, Note_on_c, 0, 74, 0
1, 122639, Note_on_c, 0, 45, 0
1, 122639, Note_on_c, 0, 66, 0
1, 122639, Note_on_c, 0, 69, 0
1, 122640, Note_on_c, 0, 76, 75
1, 122640, Note_on_c, 0, 71, 75
1, 122640, Note_on_c, 0, 67, 75
1, 122640, Note_on_c, 0, 57, 75
1, 122759, Note_on_c, 0, 71, 0
1, 122760, Note_on_c, 0, 73, 75
1, 122879, Note_on_c, 0, 76, 0
1, 122879, Note_on_c, 0, 73, 0
1, 122879, Note_on_c, 0, 67, 0
1, 122880, Note_on_c, 0, 66, 75
1, 122880, Note_on_c, 0, 78, 75
1, 122880, Note_on_c, 0, 74, 75
1, 122999, Note_on_c, 0, 66, 0
1, 122999, Note_on_c, 0, 78, 0
1, 122999, Note_on_c, 0, 74, 0
1, 123000, Note_on_c, 0, 64, 75
1, 123000, Note_on_c, 0, 76, 75
1, 123000, Note_on_c, 0, 79, 75
1, 123110, Note_on_c, 0, 57, 0
1, 123119, Note_on_c, 0, 64, 0
1, 123119, Note_on_c, 0, 76, 0
1, 123119, Note_on_c, 0, 79, 0
1, 123120, Note_on_c, 0, 78, 75
1, 123120, Note_on_c, 0, 74, 75
1, 123120, Note_on_c, 0, 66, 75
1, 123230, Note_on_c, 0, 66, 0
1, 123240, Note_on_c, 0, 57, 75
1, 123350, Note_on_c, 0, 78, 0
1, 123350, Note_on_c, 0, 74, 0
1, 123350, Note_on_c, 0, 57, 0
1, 123360, Note_on_c, 0, 76, 75
1, 123360, Note_on_c, 0, 73, 75
1, 123360, Note_on_c, 0, 42, 75
1, 123360, Note_on_c, 0, 58, 75
1, 123470, Note_on_c, 0, 73, 0
1, 123480, Note_on_c, 0, 64, 75
1, 123590, Note_on_c, 0, 76, 0
1, 123590, Note_on_c, 0, 64, 0
1, 123590, Note_on_c, 0, 42, 0
1, 123590, Note_on_c, 0, 58, 0
1, 123600, Note_on_c, 0, 71, 75
1, 123600, Note_on_c, 0, 59, 75
1, 123600, Note_on_c, 0, 47, 75
1, 123600, Note_on_c, 0, 74, 75
1, 123710, Note_on_c, 0, 71, 0
1, 123720, Note_on_c, 0, 62, 78
1, 123830, Note_on_c, 0, 62, 0
1, 123830, Note_on_c, 0, 59, 0
1, 123830, Note_on_c, 0, 47, 0
1, 123830, Note_on_c, 0, 74, 0
1, 123840, Note_on_c, 0, 76, 82
1, 123840, Note_on_c, 0, 43, 82
1, 123840, Note_on_c, 0, 61, 82
1, 123840, Note_on_c, 0, 58, 82
1, 123950, Note_on_c, 0, 61, 0
1, 123960, Note_on_c, 0, 70, 85
1, 124070, Note_on_c, 0, 76, 0
1, 124070, Note_on_c, 0, 70, 0
1, 124070, Note_on_c, 0, 58, 0
1, 124080, Note_on_c, 0, 69, 89
1, 124080, Note_on_c, 0, 57, 89
1, 124200, Note_on_c, 0, 64, 92
1, 124230, Note_on_c, 0, 64, 0
1, 124310, Note_on_c, 0, 69, 0
1, 124310, Note_on_c, 0, 43, 0
1, 124310, Note_on_c, 0, 57, 0
1, 124320, Note_on_c, 0, 62, 96
1, 124320, Note_on_c, 0, 69, 96
1, 124320, Note_on_c, 0, 42, 96
1, 124320, Note_on_c, 0, 78, 96
1, 124430, Note_on_c, 0, 62, 0
1, 124430, Note_on_c, 0, 69, 0
1, 124430, Note_on_c, 0, 42, 0
1, 124440, Note_on_c, 0, 67, 100
1, 124440, Note_on_c, 0, 40, 100
1, 124550, Note_on_c, 0, 67, 0
1, 124550, Note_on_c, 0, 40, 0
1, 124560, Note_on_c, 0, 66, 75
1, 124560, Note_on_c, 0, 38, 75
1, 124560, Note_on_c, 0, 57, 75
1, 124790, Note_on_c, 0, 66, 0
1, 124790, Note_on_c, 0, 38, 0
1, 124790, Note_on_c, 0, 57, 0
1, 124790, Note_on_c, 0, 78, 0
1, 124800, Note_on_c, 0, 78, 75
1, 124800, Note_on_c, 0, 74, 75
1, 124800, Note_on_c, 0, 66, 75
1, 125030, Note_on_c, 0, 78, 0
1, 125030, Note_on_c, 0, 74, 0
1, 125030, Note_on_c, 0, 66, 0
1, 125040, Note_on_c, 0, 50, 75
1, 125040, Note_on_c, 0, 67, 75
1, 125040, Note_on_c, 0, 79, 75
1, 125040, Note_on_c, 0, 60, 75
1, 125040, Note_on_c, 0, 76, 75
1, 125270, Note_on_c, 0, 67, 0
1, 125270, Note_on_c, 0, 79, 0
1, 125270, Note_on_c, 0, 76, 0
1, 125280, Note_on_c, 0, 81, 75
1, 125280, Note_on_c, 0, 78, 75
1, 125280, Note_on_c, 0, 69, 75
1, 125510, Note_on_c, 0, 81, 0
1, 125510, Note_on_c, 0, 78, 0
1, 125510, Note_on_c, 0, 60, 0
1, 125510, Note_on_c, 0, 69, 0
1, 125520, Note_on_c, 0, 74, 75
1, 125520, Note_on_c, 0, 81, 75
1, 125520, Note_on_c, 0, 59, 75
1, 125750, Note_on_c, 0, 74, 0
1, 125750, Note_on_c, 0, 81, 0
1, 125760, Note_on_c, 0, 76, 75
1, 125760, Note_on_c, 0, 79, 75
1, 125880, Note_on_c, 0, 61, 75
1, 125990, Note_on_c, 0, 50, 0
1, 125990, Note_on_c, 0, 76, 0
1, 125990, Note_on_c, 0, 79, 0
1, 125990, Note_on_c, 0, 61, 0
1, 126000, Note_on_c, 0, 50, 75
1, 126000, Note_on_c, 0, 62, 75
1, 126000, Note_on_c, 0, 78, 75
1, 126000, Note_on_c, 0, 69, 75
1, 126230, Note_on_c, 0, 62, 0
1, 126230, Note_on_c, 0, 78, 0
1, 126230, Note_on_c, 0, 69, 0
1, 126240, Note_on_c, 0, 67, 75
1, 126240, Note_on_c, 0, 76, 75
1, 126240, Note_on_c, 0, 71, 75
1, 126350, Note_on_c, 0, 71, 0
1, 126360, Note_on_c, 0, 73, 75
1, 126470, Note_on_c, 0, 67, 0
1, 126470, Note_on_c, 0, 76, 0
1, 126470, Note_on_c, 0, 59, 0
1, 126470, Note_on_c, 0, 73, 0
1, 126480, Note_on_c, 0, 50, 75
1, 126600, Note_on_c, 0, 69, 75
1, 126710, Note_on_c, 0, 50, 0
1, 126710, Note_on_c, 0, 69, 0
1, 126720, Note_on_c, 0, 71, 75
1, 126720, Note_on_c, 0, 66, 75
1, 126720, Note_on_c, 0, 62, 75
1, 126830, Note_on_c, 0, 71, 0
1, 126830, Note_on_c, 0, 66, 0
1, 126830, Note_on_c, 0, 62, 0
1, 126840, Note_on_c, 0, 61, 75
1, 126840, Note_on_c, 0, 64, 75
1, 126840, Note_on_c, 0, 69, 75
1, 126950, Note_on_c, 0, 50, 0
1, 126950, Note_on_c, 0, 61, 0
1, 126950, Note_on_c, 0, 64, 0
1, 126950, Note_on_c, 0, 69, 0
1, 126960, Note_on_c, 0, 67, 75
1, 126960, Note_on_c, 0, 76, 75
1, 126960, Note_on_c, 0, 62, 75
1, 126960, Note_on_c, 0, 59, 75
1, 127070, Note_on_c, 0, 67, 0
1, 127070, Note_on_c, 0, 62, 0
1, 127070, Note_on_c, 0, 59, 0
1, 127080, Note_on_c, 0, 61, 75
1, 127080, Note_on_c, 0, 57, 75
1, 127080, Note_on_c, 0, 66, 75
1, 127190, Note_on_c, 0, 61, 0
1, 127190, Note_on_c, 0, 76, 0
1, 127190, Note_on_c, 0, 57, 0
1, 127190, Note_on_c, 0, 66, 0
1, 127200, Note_on_c, 0, 78, 75
1, 127200, Note_on_c, 0, 64, 75
1, 127200, Note_on_c, 0, 59, 75
1, 127200, Note_on_c, 0, 55, 75
1, 127310, Note_on_c, 0, 64, 0
1, 127310, Note_on_c, 0, 59, 0
1, 127310, Note_on_c, 0, 55, 0
1, 127320, Note_on_c, 0, 54, 75
1, 127320, Note_on_c, 0, 57, 75
1, 127320, Note_on_c, 0, 62, 75
1, 127430, Note_on_c, 0, 78, 0
1, 127430, Note_on_c, 0, 54, 0
1, 127430, Note_on_c, 0, 57, 0
1, 127430, Note_on_c, 0, 62, 0
1, 127440, Note_on_c, 0, 76, 75
1, 127440, Note_on_c, 0, 45, 75
1, 127440, Note_on_c, 0, 62, 75
1, 127440, Note_on_c, 0, 55, 75
1, 127550, Note_on_c, 0, 62, 0
1, 127560, Note_on_c, 0, 61, 75
1, 127670, Note_on_c, 0, 61, 0
1, 127670, Note_on_c, 0, 55, 0
1, 127680, Note_on_c, 0, 67, 75
1, 127680, Note_on_c, 0, 57, 75
1, 127790, Note_on_c, 0, 76, 0
1, 127790, Note_on_c, 0, 67, 0
1, 127800, Note_on_c, 0, 66, 75
1, 127800, Note_on_c, 0, 74, 75
1, 127910, Note_on_c, 0, 66, 0
1, 127910, Note_on_c, 0, 45, 0
1, 127910, Note_on_c, 0, 74, 0
1, 127910, Note_on_c, 0, 57, 0
1, 127920, Note_on_c, 0, 54, 75
1, 127920, Note_on_c, 0, 38, 75
1, 127920, Note_on_c, 0, 74, 75
1, 127920, Note_on_c, 0, 62, 75
1, 128030, Note_on_c, 0, 62, 0
1, 128040, Note_on_c, 0, 66, 75
1, 128150, Note_on_c, 0, 54, 0
1, 128150, Note_on_c, 0, 38, 0
1, 128150, Note_on_c, 0, 66, 0
1, 128160, Note_on_c, 0, 64, 75
1, 128160, Note_on_c, 0, 45, 75
1, 128270, Note_on_c, 0, 64, 0
1, 128280, Note_on_c, 0, 62, 75
1, 128390, Note_on_c, 0, 62, 0
1, 128390, Note_on_c, 0, 74, 0
1, 128400, Note_on_c, 0, 67, 75
1, 128400, Note_on_c, 0, 76, 75
1, 128400, Note_on_c, 0, 61, 75
1, 128630, Note_on_c, 0, 61, 0
1, 128640, Note_on_c, 0, 64, 75
1, 128870, Note_on_c, 0, 67, 0
1, 128870, Note_on_c, 0, 76, 0
1, 128870, Note_on_c, 0, 64, 0
1, 128880, Note_on_c, 0, 78, 76
1, 128880, Note_on_c, 0, 69, 76
1, 128880, Note_on_c, 0, 62, 76
1, 129110, Note_on_c, 0, 78, 0
1, 129110, Note_on_c, 0, 69, 0
1, 129110, Note_on_c, 0, 62, 0
1, 129120, Note_on_c, 0, 74, 77
1, 129120, Note_on_c, 0, 59, 77
1, 129159, Note_on_c, 0, 45, 0
1, 129350, Note_on_c, 0, 74, 0
1, 129350, Note_on_c, 0, 59, 0
1, 129360, Note_on_c, 0, 67, 78
1, 129360, Note_on_c, 0, 76, 78
1, 129360, Note_on_c, 0, 61, 78
1, 129360, Note_on_c, 0, 45, 78
1, 129590, Note_on_c, 0, 67, 0
1, 129590, Note_on_c, 0, 76, 0
1, 129600, Note_on_c, 0, 66, 78
1, 129600, Note_on_c, 0, 78, 78
1, 129710, Note_on_c, 0, 66, 0
1, 129710, Note_on_c, 0, 78, 0
1, 129720, Note_on_c, 0, 79, 79
1, 129720, Note_on_c, 0, 64, 79
1, 129830, Note_on_c, 0, 79, 0
1, 129830, Note_on_c, 0, 64, 0
1, 129830, Note_on_c, 0, 61, 0
1, 129840, Note_on_c, 0, 62, 79
1, 129840, Note_on_c, 0, 78, 79
1, 129840, Note_on_c, 0, 66, 79
1, 130070, Note_on_c, 0, 62, 0
1, 130070, Note_on_c, 0, 78, 0
1, 130070, Note_on_c, 0, 66, 0
1, 130080, Note_on_c, 0, 67, 80
1, 130080, Note_on_c, 0, 74, 80
1, 130080, Note_on_c, 0, 64, 80
1, 130190, Note_on_c, 0, 67, 0
1, 130190, Note_on_c, 0, 64, 0
1, 130200, Note_on_c, 0, 69, 80
1, 130200, Note_on_c, 0, 66, 80
1, 130310, Note_on_c, 0, 69, 0
1, 130310, Note_on_c, 0, 74, 0
1, 130310, Note_on_c, 0, 66, 0
1, 130310, Note_on_c, 0, 45, 0
1, 130320, Note_on_c, 0, 67, 81
1, 130320, Note_on_c, 0, 76, 81
1, 130320, Note_on_c, 0, 71, 81
1, 130320, Note_on_c, 0, 57, 81
1, 130430, Note_on_c, 0, 71, 0
1, 130440, Note_on_c, 0, 73, 81
1, 130550, Note_on_c, 0, 67, 0
1, 130550, Note_on_c, 0, 76, 0
1, 130550, Note_on_c, 0, 73, 0
1, 130560, Note_on_c, 0, 66, 82
1, 130560, Note_on_c, 0, 78, 82
1, 130560, Note_on_c, 0, 74, 82
1, 130670, Note_on_c, 0, 66, 0
1, 130670, Note_on_c, 0, 78, 0
1, 130670, Note_on_c, 0, 74, 0
1, 130680, Note_on_c, 0, 79, 82
1, 130680, Note_on_c, 0, 76, 82
1, 130680, Note_on_c, 0, 64, 82
1, 130790, Note_on_c, 0, 79, 0
1, 130790, Note_on_c, 0, 76, 0
1, 130790, Note_on_c, 0, 64, 0
1, 130790, Note_on_c, 0, 57, 0
1, 130800, Note_on_c, 0, 66, 82
1, 130800, Note_on_c, 0, 78, 82
1, 130800, Note_on_c, 0, 74, 82
1, 130910, Note_on_c, 0, 66, 0
1, 130920, Note_on_c, 0, 57, 83
1, 131030, Note_on_c, 0, 57, 0
1, 131030, Note_on_c, 0, 78, 0
1, 131030, Note_on_c, 0, 74, 0
1, 131040, Note_on_c, 0, 73, 83
1, 131040, Note_on_c, 0, 58, 83
1, 131040, Note_on_c, 0, 42, 83
1, 131040, Note_on_c, 0, 76, 83
1, 131150, Note_on_c, 0, 73, 0
1, 131160, Note_on_c, 0, 64, 84
1, 131270, Note_on_c, 0, 64, 0
1, 131270, Note_on_c, 0, 58, 0
1, 131270, Note_on_c, 0, 42, 0
1, 131270, Note_on_c, 0, 76, 0
1, 131280, Note_on_c, 0, 71, 84
1, 131280, Note_on_c, 0, 74, 84
1, 131280, Note_on_c, 0, 47, 84
1, 131280, Note_on_c, 0, 59, 84
1, 131390, Note_on_c, 0, 71, 0
1, 131400, Note_on_c, 0, 62, 84
1, 131510, Note_on_c, 0, 62, 0
1, 131510, Note_on_c, 0, 74, 0
1, 131510, Note_on_c, 0, 47, 0
1, 131510, Note_on_c, 0, 59, 0
1, 131520, Note_on_c, 0, 76, 85
1, 131520, Note_on_c, 0, 61, 85
1, 131520, Note_on_c, 0, 58, 85
1, 131520, Note_on_c, 0, 43, 85
1, 131630, Note_on_c, 0, 61, 0
1, 131640, Note_on_c, 0, 70, 85
1, 131750, Note_on_c, 0, 76, 0
1, 131750, Note_on_c, 0, 70, 0
1, 131750, Note_on_c, 0, 58, 0
1, 131760, Note_on_c, 0, 69, 86
1, 131760, Note_on_c, 0, 57, 86
1, 131880, Note_on_c, 0, 64, 86
1, 131990, Note_on_c, 0, 69, 0
1, 131990, Note_on_c, 0, 57, 0
1, 131990, Note_on_c, 0, 64, 0
1, 131990, Note_on_c, 0, 43, 0
1, 132000, Note_on_c, 0, 62, 86
1, 132000, Note_on_c, 0, 42, 86
1, 132000, Note_on_c, 0, 69, 86
1, 132000, Note_on_c, 0, 78, 86
1, 132110, Note_on_c, 0, 62, 0
1, 132110, Note_on_c, 0, 42, 0
1, 132110, Note_on_c, 0, 69, 0
1, 132120, Note_on_c, 0, 40, 87
1, 132120, Note_on_c, 0, 67, 87
1, 132157, Note_on_c, 0, 40, 0
1, 132179, Note_on_c, 0, 67, 0
1, 132240, Note_on_c, 0, 66, 87
1, 132240, Note_on_c, 0, 38, 87
1, 132240, Note_on_c, 0, 57, 87
1, 132470, Note_on_c, 0, 66, 0
1, 132470, Note_on_c, 0, 78, 0
1, 132480, Note_on_c, 0, 78, 88
1, 132480, Note_on_c, 0, 74, 88
1, 132480, Note_on_c, 0, 66, 88
1, 132710, Note_on_c, 0, 78, 0
1, 132710, Note_on_c, 0, 38, 0
1, 132710, Note_on_c, 0, 57, 0
1, 132710, Note_on_c, 0, 74, 0
1, 132710, Note_on_c, 0, 66, 0
1, 132720, Note_on_c, 0, 67, 89
1, 132720, Note_on_c, 0, 76, 89
1, 132720, Note_on_c, 0, 79, 89
1, 132720, Note_on_c, 0, 50, 89
1, 132720, Note_on_c, 0, 60, 89
1, 132950, Note_on_c, 0, 67, 0
1, 132950, Note_on_c, 0, 76, 0
1, 132950, Note_on_c, 0, 79, 0
1, 132960, Note_on_c, 0, 78, 90
1, 132960, Note_on_c, 0, 81, 90
1, 132960, Note_on_c, 0, 69, 90
1, 133190, Note_on_c, 0, 78, 0
1, 133190, Note_on_c, 0, 81, 0
1, 133190, Note_on_c, 0, 69, 0
1, 133190, Note_on_c, 0, 60, 0
1, 133200, Note_on_c, 0, 81, 90
1, 133200, Note_on_c, 0, 74, 90
1, 133200, Note_on_c, 0, 59, 90
1, 133430, Note_on_c, 0, 81, 0
1, 133430, Note_on_c, 0, 74, 0
1, 133440, Note_on_c, 0, 79, 91
1, 133440, Note_on_c, 0, 76, 91
1, 133550, Note_on_c, 0, 59, 0
1, 133560, Note_on_c, 0, 61, 92
1, 133670, Note_on_c, 0, 79, 0
1, 133670, Note_on_c, 0, 76, 0
1, 133670, Note_on_c, 0, 61, 0
1, 133670, Note_on_c, 0, 50, 0
1, 133680, Note_on_c, 0, 78, 92
1, 133680, Note_on_c, 0, 69, 92
1, 133680, Note_on_c, 0, 50, 92
1, 133680, Note_on_c, 0, 62, 92
1, 133910, Note_on_c, 0, 78, 0
1, 133910, Note_on_c, 0, 69, 0
1, 133910, Note_on_c, 0, 62, 0
1, 133920, Note_on_c, 0, 67, 93
1, 133920, Note_on_c, 0, 76, 93
1, 133920, Note_on_c, 0, 71, 93
1, 134030, Note_on_c, 0, 71, 0
1, 134040, Note_on_c, 0, 73, 93
1, 134150, Note_on_c, 0, 76, 0
1, 134150, Note_on_c, 0, 73, 0
1, 134160, Note_on_c, 0, 74, 94
1, 134280, Note_on_c, 0, 69, 94
1, 134390, Note_on_c, 0, 67, 0
1, 134390, Note_on_c, 0, 50, 0
1, 134390, Note_on_c, 0, 69, 0
1, 134400, Note_on_c, 0, 66, 94
1, 134400, Note_on_c, 0, 71, 94
1, 134400, Note_on_c, 0, 62, 94
1, 134510, Note_on_c, 0, 66, 0
1, 134510, Note_on_c, 0, 71, 0
1, 134510, Note_on_c, 0, 62, 0
1, 134520, Note_on_c, 0, 69, 95
1, 134520, Note_on_c, 0, 61, 95
1, 134520, Note_on_c, 0, 64, 95
1, 134630, Note_on_c, 0, 69, 0
1, 134630, Note_on_c, 0, 74, 0
1, 134630, Note_on_c, 0, 61, 0
1, 134630, Note_on_c, 0, 64, 0
1, 134640, Note_on_c, 0, 67, 95
1, 134640, Note_on_c, 0, 62, 95
1, 134640, Note_on_c, 0, 76, 95
1, 134640, Note_on_c, 0, 59, 95
1, 134750, Note_on_c, 0, 67, 0
1, 134750, Note_on_c, 0, 62, 0
1, 134750, Note_on_c, 0, 59, 0
1, 134760, Note_on_c, 0, 66, 96
1, 134760, Note_on_c, 0, 61, 96
1, 134760, Note_on_c, 0, 57, 96
1, 134870, Note_on_c, 0, 66, 0
1, 134870, Note_on_c, 0, 61, 0
1, 134870, Note_on_c, 0, 76, 0
1, 134870, Note_on_c, 0, 57, 0
1, 134880, Note_on_c, 0, 78, 96
1, 134880, Note_on_c, 0, 64, 96
1, 134880, Note_on_c, 0, 55, 96
1, 134880, Note_on_c, 0, 59, 96
1, 134990, Note_on_c, 0, 64, 0
1, 134990, Note_on_c, 0, 55, 0
1, 134990, Note_on_c, 0, 59, 0
1, 135000, Note_on_c, 0, 54, 96
1, 135000, Note_on_c, 0, 62, 96
1, 135000, Note_on_c, 0, 57, 96
1, 135110, Note_on_c, 0, 78, 0
1, 135110, Note_on_c, 0, 54, 0
1, 135110, Note_on_c, 0, 62, 0
1, 135110, Note_on_c, 0, 57, 0
1, 135120, Note_on_c, 0, 76, 97
1, 135120, Note_on_c, 0, 62, 97
1, 135120, Note_on_c, 0, 45, 97
1, 135120, Note_on_c, 0, 55, 97
1, 135230, Note_on_c, 0, 62, 0
1, 135240, Note_on_c, 0, 61, 97
1, 135350, Note_on_c, 0, 61, 0
1, 135350, Note_on_c, 0, 55, 0
1, 135360, Note_on_c, 0, 67, 98
1, 135360, Note_on_c, 0, 57, 98
1, 135470, Note_on_c, 0, 76, 0
1, 135470, Note_on_c, 0, 67, 0
1, 135480, Note_on_c, 0, 66, 98
1, 135480, Note_on_c, 0, 74, 98
1, 135590, Note_on_c, 0, 66, 0
1, 135590, Note_on_c, 0, 74, 0
1, 135590, Note_on_c, 0, 45, 0
1, 135590, Note_on_c, 0, 57, 0
1, 135600, Note_on_c, 0, 38, 98
1, 135600, Note_on_c, 0, 74, 98
1, 135600, Note_on_c, 0, 62, 98
1, 135600, Note_on_c, 0, 54, 98
1, 135710, Note_on_c, 0, 38, 0
1, 135710, Note_on_c, 0, 62, 0
1, 135710, Note_on_c, 0, 54, 0
1, 135720, Note_on_c, 0, 59, 99
1, 135720, Note_on_c, 0, 55, 99
1, 135720, Note_on_c, 0, 71, 99
1, 135830, Note_on_c, 0, 59, 0
1, 135830, Note_on_c, 0, 55, 0
1, 135830, Note_on_c, 0, 71, 0
1, 135840, Note_on_c, 0, 54, 99
1, 135840, Note_on_c, 0, 57, 99
1, 135840, Note_on_c, 0, 69, 99
1, 135950, Note_on_c, 0, 54, 0
1, 135950, Note_on_c, 0, 57, 0
1, 135950, Note_on_c, 0, 69, 0
1, 135960, Note_on_c, 0, 52, 100
1, 135960, Note_on_c, 0, 55, 100
1, 135960, Note_on_c, 0, 67, 100
1, 136070, Note_on_c, 0, 52, 0
1, 136070, Note_on_c, 0, 74, 0
1, 136070, Note_on_c, 0, 55, 0
1, 136070, Note_on_c, 0, 67, 0
1, 136080, Note_on_c, 0, 50, 100
1, 136080, Note_on_c, 0, 57, 100
1, 136080, Note_on_c, 0, 62, 100
1, 136080, Note_on_c, 0, 78, 100
1, 136080, Note_on_c, 0, 66, 100
1, 136080, Note_on_c, 0, 86, 100
1, 136080, Note_on_c, 0, 90, 100
1, 136172, Control_c, 0, 64, 127
1, 136310, Note_on_c, 0, 50, 0
1, 136310, Note_on_c, 0, 57, 0
1, 136310, Note_on_c, 0, 62, 0
1, 136440, Note_on_c, 0, 38, 100
1, 136440, Note_on_c, 0, 50, 100
1, 136550, Note_on_c, 0, 38, 0
1, 136550, Note_on_c, 0, 50, 0
1, 136550, Note_on_c, 0, 78, 0
1, 136550, Note_on_c, 0, 66, 0
1, 136550, Note_on_c, 0, 86, 0
1, 136550, Note_on_c, 0, 90, 0
1, 136560, Note_on_c, 0, 88, 100
1, 136560, Note_on_c, 0, 91, 100
1, 136560, Note_on_c, 0, 79, 100
1, 136560, Note_on_c, 0, 50, 100
1, 136560, Note_on_c, 0, 62, 100
1, 136790, Note_on_c, 0, 88, 0
1, 136790, Note_on_c, 0, 91, 0
1, 136790, Note_on_c, 0, 79, 0
1, 136790, Note_on_c, 0, 50, 0
1, 136790, Note_on_c, 0, 62, 0
1, 136800, Note_on_c, 0, 50, 100
1, 136800, Note_on_c, 0, 90, 100
1, 136800, Note_on_c, 0, 81, 100
1, 136800, Note_on_c, 0, 93, 100
1, 136920, Note_on_c, 0, 38, 100
1, 136920, Note_on_c, 0, 50, 100
1, 136965, Control_c, 0, 64, 0
1, 137030, Note_on_c, 0, 50, 0
1, 137030, Note_on_c, 0, 90, 0
1, 137030, Note_on_c, 0, 81, 0
1, 137030, Note_on_c, 0, 93, 0
1, 137030, Note_on_c, 0, 38, 0
1, 137030, Note_on_c, 0, 50, 0
1, 137040, Note_on_c, 0, 90, 100
1, 137040, Note_on_c, 0, 57, 100
1, 137040, Note_on_c, 0, 69, 100
1, 137040, Note_on_c, 0, 81, 100
1, 137040, Note_on_c, 0, 93, 100
1, 137151, Control_c, 0, 64, 127
1, 137270, Note_on_c, 0, 90, 0
1, 137270, Note_on_c, 0, 57, 0
1, 137270, Note_on_c, 0, 69, 0
1, 137270, Note_on_c, 0, 81, 0
1, 137270, Note_on_c, 0, 93, 0
1, 137280, Note_on_c, 0, 88, 100
1, 137280, Note_on_c, 0, 91, 100
1, 137280, Note_on_c, 0, 79, 100
1, 137400, Note_on_c, 0, 45, 100
1, 137400, Note_on_c, 0, 57, 100
1, 137510, Note_on_c, 0, 88, 0
1, 137510, Note_on_c, 0, 91, 0
1, 137510, Note_on_c, 0, 79, 0
1, 137510, Note_on_c, 0, 45, 0
1, 137510, Note_on_c, 0, 57, 0
1, 137520, Note_on_c, 0, 78, 100
1, 137520, Note_on_c, 0, 69, 100
1, 137520, Note_on_c, 0, 90, 100
1, 137520, Note_on_c, 0, 57, 100
1, 137520, Note_on_c, 0, 86, 100
1, 137630, Note_on_c, 0, 78, 0
1, 137630, Note_on_c, 0, 69, 0
1, 137630, Note_on_c, 0, 90, 0
1, 137630, Note_on_c, 0, 57, 0
1, 137630, Note_on_c, 0, 86, 0
1, 137691, Control_c, 0, 64, 0
1, 137760, Note_on_c, 0, 88, 100
1, 137760, Note_on_c, 0, 76, 100
1, 137760, Note_on_c, 0, 81, 100
1, 137870, Note_on_c, 0, 88, 0
1, 137870, Note_on_c, 0, 76, 0
1, 137870, Note_on_c, 0, 81, 0
1, 137880, Note_on_c, 0, 57, 100
1, 137880, Note_on_c, 0, 45, 100
1, 137990, Note_on_c, 0, 57, 0
1, 137990, Note_on_c, 0, 45, 0
1, 138000, Note_on_c, 0, 78, 100
1, 138000, Note_on_c, 0, 74, 100
1, 138000, Note_on_c, 0, 86, 100
1, 138000, Note_on_c, 0, 38, 100
1, 138000, Note_on_c, 0, 50, 100
1, 138060, Control_c, 0, 64, 127
1, 138230, Note_on_c, 0, 78, 0
1, 138230, Note_on_c, 0, 74, 0
1, 138230, Note_on_c, 0, 86, 0
1, 138230, Note_on_c, 0, 38, 0
1, 138230, Note_on_c, 0, 50, 0
1, 138240, Note_on_c, 0, 78, 100
1, 138240, Note_on_c, 0, 86, 100
1, 138240, Note_on_c, 0, 74, 100
1, 138240, Note_on_c, 0, 62, 100
1, 138240, Note_on_c, 0, 50, 100
1, 138240, Note_on_c, 0, 57, 100
1, 138240, Note_on_c, 0, 54, 100
1, 138470, Note_on_c, 0, 78, 0
1, 138470, Note_on_c, 0, 86, 0
1, 138470, Note_on_c, 0, 74, 0
1, 138470, Note_on_c, 0, 62, 0
1, 138470, Note_on_c, 0, 50, 0
1, 138470, Note_on_c, 0, 57, 0
1, 138470, Note_on_c, 0, 54, 0
1, 138480, Note_on_c, 0, 81, 100
1, 138480, Note_on_c, 0, 64, 100
1, 138480, Note_on_c, 0, 76, 100
1, 138480, Note_on_c, 0, 88, 100
1, 138480, Note_on_c, 0, 49, 100
1, 138480, Note_on_c, 0, 57, 100
1, 138557, Control_c, 0, 64, 0
1, 138710, Note_on_c, 0, 81, 0
1, 138710, Note_on_c, 0, 64, 0
1, 138710, Note_on_c, 0, 76, 0
1, 138710, Note_on_c, 0, 88, 0
1, 138710, Note_on_c, 0, 49, 0
1, 138710, Note_on_c, 0, 57, 0
1, 138720, Note_on_c, 0, 66, 100
1, 138720, Note_on_c, 0, 78, 100
1, 138720, Note_on_c, 0, 86, 100
1, 138720, Note_on_c, 0, 50, 100
1, 138720, Note_on_c, 0, 90, 100
1, 138720, Note_on_c, 0, 57, 100
1, 138950, Note_on_c, 0, 66, 0
1, 138950, Note_on_c, 0, 78, 0
1, 138950, Note_on_c, 0, 86, 0
1, 138950, Note_on_c, 0, 50, 0
1, 138950, Note_on_c, 0, 90, 0
1, 138950, Note_on_c, 0, 57, 0
1, 138960, Note_on_c, 0, 66, 100
1, 138960, Note_on_c, 0, 78, 100
1, 138960, Note_on_c, 0, 90, 100
1, 138960, Note_on_c, 0, 86, 100
1, 138960, Note_on_c, 0, 62, 100
1, 138960, Note_on_c, 0, 57, 100
1, 139024, Control_c, 0, 64, 127
1, 139290, Note_on_c, 0, 66, 0
1, 139290, Note_on_c, 0, 78, 0
1, 139290, Note_on_c, 0, 90, 0
1, 139290, Note_on_c, 0, 86, 0
1, 139290, Note_on_c, 0, 62, 0
1, 139290, Note_on_c, 0, 57, 0
1, 139320, Note_on_c, 0, 57, 100
1, 139320, Note_on_c, 0, 85, 100
1, 139320, Note_on_c, 0, 64, 100
1, 139320, Note_on_c, 0, 88, 100
1, 139320, Note_on_c, 0, 76, 100
1, 139320, Note_on_c, 0, 61, 100
1, 139416, Control_c, 0, 64, 0
1, 139440, Note_on_c, 0, 45, 100
1, 139440, Note_on_c, 0, 85, 100
1, 139440, Note_on_c, 0, 88, 100
1, 139440, Note_on_c, 0, 76, 100
1, 139440, Note_on_c, 0, 61, 100
1, 139440, Note_on_c, 0, 57, 100
1, 139440, Note_on_c, 0, 64, 100
1, 139532, Control_c, 0, 64, 127
1, 139859, Control_c, 0, 64, 0
1, 139910, Note_on_c, 0, 45, 0
1, 139910, Note_on_c, 0, 85, 0
1, 139910, Note_on_c, 0, 88, 0
1, 139910, Note_on_c, 0, 76, 0
1, 139910, Note_on_c, 0, 61, 0
1, 139910, Note_on_c, 0, 57, 0
1, 139910, Note_on_c, 0, 64, 0
1, 139919, Note_on_c, 0, 57, 0
1, 139919, Note_on_c, 0, 85, 0
1, 139919, Note_on_c, 0, 64, 0
1, 139919, Note_on_c, 0, 88, 0
1, 139919, Note_on_c, 0, 76, 0
1, 139919, Note_on_c, 0, 61, 0
1, 139920, Note_on_c, 0, 50, 100
1, 139920, Note_on_c, 0, 57, 100
1, 139920, Note_on_c, 0, 62, 100
1, 139920, Note_on_c, 0, 78, 100
1, 139920, Note_on_c, 0, 90, 100
1, 139920, Note_on_c, 0, 86, 100
1, 139920, Note_on_c, 0, 66, 100
1, 139941, Control_c, 0, 64, 127
1, 140150, Note_on_c, 0, 50, 0
1, 140150, Note_on_c, 0, 57, 0
1, 140150, Note_on_c, 0, 62, 0
1, 140150, Note_on_c, 0, 66, 0
1, 140280, Note_on_c, 0, 38, 100
1, 140280, Note_on_c, 0, 50, 100
1, 140390, Note_on_c, 0, 38, 0
1, 140390, Note_on_c, 0, 50, 0
1, 140390, Note_on_c, 0, 78, 0
1, 140390, Note_on_c, 0, 90, 0
1, 140390, Note_on_c, 0, 86, 0
1, 140400, Note_on_c, 0, 50, 100
1, 140400, Note_on_c, 0, 62, 100
1, 140400, Note_on_c, 0, 88, 100
1, 140400, Note_on_c, 0, 91, 100
1, 140400, Note_on_c, 0, 79, 100
1, 140630, Note_on_c, 0, 50, 0
1, 140630, Note_on_c, 0, 62, 0
1, 140630, Note_on_c, 0, 88, 0
1, 140630, Note_on_c, 0, 91, 0
1, 140630, Note_on_c, 0, 79, 0
1, 140640, Note_on_c, 0, 90, 100
1, 140640, Note_on_c, 0, 81, 100
1, 140640, Note_on_c, 0, 93, 100
1, 140661, Control_c, 0, 64, 0
1, 140760, Note_on_c, 0, 38, 100
1, 140760, Note_on_c, 0, 50, 100
1, 140870, Note_on_c, 0, 90, 0
1, 140870, Note_on_c, 0, 81, 0
1, 140870, Note_on_c, 0, 93, 0
1, 140870, Note_on_c, 0, 38, 0
1, 140870, Note_on_c, 0, 50, 0
1, 140880, Note_on_c, 0, 90, 100
1, 140880, Note_on_c, 0, 93, 100
1, 140880, Note_on_c, 0, 81, 100
1, 140880, Note_on_c, 0, 57, 100
1, 140880, Note_on_c, 0, 69, 100
1, 140948, Control_c, 0, 64, 127
1, 141000, Note_on_c, 0, 57, 0
1, 141000, Note_on_c, 0, 69, 0
1, 141110, Note_on_c, 0, 90, 0
1, 141110, Note_on_c, 0, 93, 0
1, 141110, Note_on_c, 0, 81, 0
1, 141120, Note_on_c, 0, 91, 100
1, 141120, Note_on_c, 0, 79, 100
1, 141120, Note_on_c, 0, 88, 100
1, 141240, Note_on_c, 0, 57, 100
1, 141240, Note_on_c, 0, 45, 100
1, 141350, Note_on_c, 0, 91, 0
1, 141350, Note_on_c, 0, 79, 0
1, 141350, Note_on_c, 0, 88, 0
1, 141350, Note_on_c, 0, 57, 0
1, 141350, Note_on_c, 0, 45, 0
1, 141360, Note_on_c, 0, 90, 100
1, 141360, Note_on_c, 0, 78, 100
1, 141360, Note_on_c, 0, 86, 100
1, 141360, Note_on_c, 0, 57, 100
1, 141360, Note_on_c, 0, 69, 100
1, 141386, Control_c, 0, 64, 0
1, 141480, Note_on_c, 0, 90, 0
1, 141480, Note_on_c, 0, 78, 0
1, 141480, Note_on_c, 0, 86, 0
1, 141480, Note_on_c, 0, 57, 0
1, 141480, Note_on_c, 0, 69, 0
1, 141600, Note_on_c, 0, 88, 100
1, 141600, Note_on_c, 0, 76, 100
1, 141600, Note_on_c, 0, 81, 100
1, 141720, Note_on_c, 0, 57, 100
1, 141720, Note_on_c, 0, 45, 100
1, 141720, Note_on_c, 0, 88, 0
1, 141720, Note_on_c, 0, 76, 0
1, 141720, Note_on_c, 0, 81, 0
1, 141830, Note_on_c, 0, 57, 0
1, 141830, Note_on_c, 0, 45, 0
1, 141840, Note_on_c, 0, 38, 100
1, 141840, Note_on_c, 0, 86, 100
1, 141840, Note_on_c, 0, 78, 100
1, 141840, Note_on_c, 0, 74, 100
1, 141840, Note_on_c, 0, 50, 100
1, 141914, Control_c, 0, 64, 127
1, 142070, Note_on_c, 0, 38, 0
1, 142070, Note_on_c, 0, 86, 0
1, 142070, Note_on_c, 0, 78, 0
1, 142070, Note_on_c, 0, 74, 0
1, 142070, Note_on_c, 0, 50, 0
1, 142080, Note_on_c, 0, 57, 100
1, 142080, Note_on_c, 0, 78, 100
1, 142080, Note_on_c, 0, 86, 100
1, 142080, Note_on_c, 0, 62, 100
1, 142080, Note_on_c, 0, 74, 100
1, 142080, Note_on_c, 0, 50, 100
1, 142080, Note_on_c, 0, 54, 100
1, 142310, Note_on_c, 0, 57, 0
1, 142310, Note_on_c, 0, 78, 0
1, 142310, Note_on_c, 0, 86, 0
1, 142310, Note_on_c, 0, 62, 0
1, 142310, Note_on_c, 0, 74, 0
1, 142310, Note_on_c, 0, 50, 0
1, 142310, Note_on_c, 0, 54, 0
1, 142320, Note_on_c, 0, 81, 100
1, 142320, Note_on_c, 0, 76, 100
1, 142320, Note_on_c, 0, 88, 100
1, 142320, Note_on_c, 0, 49, 100
1, 142320, Note_on_c, 0, 64, 100
1, 142320, Note_on_c, 0, 57, 100
1, 142355, Control_c, 0, 64, 0
1, 142550, Note_on_c, 0, 81, 0
1, 142550, Note_on_c, 0, 76, 0
1, 142550, Note_on_c, 0, 88, 0
1, 142550, Note_on_c, 0, 49, 0
1, 142550, Note_on_c, 0, 64, 0
1, 142550, Note_on_c, 0, 57, 0
1, 142560, Note_on_c, 0, 66, 100
1, 142560, Note_on_c, 0, 50, 100
1, 142560, Note_on_c, 0, 90, 100
1, 142560, Note_on_c, 0, 57, 100
1, 142560, Note_on_c, 0, 86, 100
1, 142560, Note_on_c, 0, 78, 100
1, 142790, Note_on_c, 0, 66, 0
1, 142790, Note_on_c, 0, 50, 0
1, 142790, Note_on_c, 0, 90, 0
1, 142790, Note_on_c, 0, 57, 0
1, 142790, Note_on_c, 0, 86, 0
1, 142790, Note_on_c, 0, 78, 0
1, 142800, Note_on_c, 0, 88, 100
1, 142800, Note_on_c, 0, 81, 100
1, 142800, Note_on_c, 0, 76, 100
1, 142800, Note_on_c, 0, 61, 100
1, 142800, Note_on_c, 0, 69, 100
1, 142800, Note_on_c, 0, 64, 100
1, 142800, Note_on_c, 0, 57, 100
1, 142889, Control_c, 0, 64, 127
1, 143150, Note_on_c, 0, 88, 0
1, 143150, Note_on_c, 0, 81, 0
1, 143150, Note_on_c, 0, 76, 0
1, 143150, Note_on_c, 0, 61, 0
1, 143150, Note_on_c, 0, 69, 0
1, 143150, Note_on_c, 0, 64, 0
1, 143150, Note_on_c, 0, 57, 0
1, 143160, Note_on_c, 0, 78, 100
1, 143160, Note_on_c, 0, 86, 100
1, 143160, Note_on_c, 0, 74, 100
1, 143160, Note_on_c, 0, 50, 100
1, 143160, Note_on_c, 0, 54, 100
1, 143160, Note_on_c, 0, 62, 100
1, 143160, Note_on_c, 0, 57, 100
1, 143219, Control_c, 0, 64, 0
1, 143270, Note_on_c, 0, 78, 0
1, 143270, Note_on_c, 0, 86, 0
1, 143270, Note_on_c, 0, 74, 0
1, 143270, Note_on_c, 0, 50, 0
1, 143270, Note_on_c, 0, 54, 0
1, 143270, Note_on_c, 0, 62, 0
1, 143270, Note_on_c, 0, 57, 0
1, 143280, Note_on_c, 0, 78, 100
1, 143280, Note_on_c, 0, 86, 100
1, 143280, Note_on_c, 0, 74, 100
1, 143280, Note_on_c, 0, 62, 100
1, 143280, Note_on_c, 0, 57, 100
1, 143280, Note_on_c, 0, 50, 100
1, 143280, Note_on_c, 0, 54, 100
1, 143357, Control_c, 0, 64, 127
1, 143510, Note_on_c, 0, 78, 0
1, 143510, Note_on_c, 0, 86, 0
1, 143510, Note_on_c, 0, 74, 0
1, 143510, Note_on_c, 0, 62, 0
1, 143510, Note_on_c, 0, 57, 0
1, 143510, Note_on_c, 0, 50, 0
1, 143510, Note_on_c, 0, 54, 0
1, 143675, Control_c, 0, 64, 0
1, 143760, Note_on_c, 0, 85, 100
1, 143760, Note_on_c, 0, 76, 100
1, 143760, Note_on_c, 0, 88, 100
1, 143760, Note_on_c, 0, 81, 100
1, 143760, Note_on_c, 0, 64, 100
1, 143760, Note_on_c, 0, 57, 100
1, 143760, Note_on_c, 0, 61, 100
1, 143875, Control_c, 0, 64, 127
1, 143990, Note_on_c, 0, 64, 0
1, 143990, Note_on_c, 0, 57, 0
1, 143990, Note_on_c, 0, 61, 0
1, 144120, Note_on_c, 0, 45, 100
1, 144120, Note_on_c, 0, 33, 100
1, 144230, Note_on_c, 0, 85, 0
1, 144230, Note_on_c, 0, 76, 0
1, 144230, Note_on_c, 0, 88, 0
1, 144230, Note_on_c, 0, 81, 0
1, 144230, Note_on_c, 0, 45, 0
1, 144230, Note_on_c, 0, 33, 0
1, 144240, Note_on_c, 0, 78, 100
1, 144240, Note_on_c, 0, 90, 100
1, 144240, Note_on_c, 0, 57, 100
1, 144240, Note_on_c, 0, 86, 100
1, 144240, Note_on_c, 0, 45, 100
1, 144250, Control_c, 0, 64, 0
1, 144360, Note_on_c, 0, 57, 0
1, 144360, Note_on_c, 0, 45, 0
1, 144470, Note_on_c, 0, 78, 0
1, 144470, Note_on_c, 0, 90, 0
1, 144470, Note_on_c, 0, 86, 0
1, 144480, Note_on_c, 0, 78, 100
1, 144480, Note_on_c, 0, 81, 100
1, 144480, Note_on_c, 0, 74, 100
1, 144480, Note_on_c, 0, 86, 100
1, 144480, Note_on_c, 0, 50, 100
1, 144480, Note_on_c, 0, 57, 100
1, 144480, Note_on_c, 0, 62, 100
1, 144480, Note_on_c, 0, 54, 100
1, 144689, Control_c, 0, 64, 127
1, 144710, Note_on_c, 0, 78, 0
1, 144710, Note_on_c, 0, 81, 0
1, 144710, Note_on_c, 0, 74, 0
1, 144710, Note_on_c, 0, 86, 0
1, 144710, Note_on_c, 0, 50, 0
1, 144710, Note_on_c, 0, 57, 0
1, 144710, Note_on_c, 0, 62, 0
1, 144710, Note_on_c, 0, 54, 0
1, 144720, Note_on_c, 0, 85, 100
1, 144720, Note_on_c, 0, 81, 100
1, 144720, Note_on_c, 0, 88, 100
1, 144720, Note_on_c, 0, 76, 100
1, 144720, Note_on_c, 0, 57, 100
1, 144720, Note_on_c, 0, 61, 100
1, 144720, Note_on_c, 0, 69, 100
1, 144720, Note_on_c, 0, 64, 100
1, 144822, Control_c, 0, 64, 0
1, 144950, Note_on_c, 0, 85, 0
1, 144950, Note_on_c, 0, 81, 0
1, 144950, Note_on_c, 0, 88, 0
1, 144950, Note_on_c, 0, 76, 0
1, 144950, Note_on_c, 0, 57, 0
1, 144950, Note_on_c, 0, 61, 0
1, 144950, Note_on_c, 0, 69, 0
1, 144950, Note_on_c, 0, 64, 0
1, 144960, Note_on_c, 0, 78, 100
1, 144960, Note_on_c, 0, 90, 100
1, 144960, Note_on_c, 0, 86, 100
1, 145070, Note_on_c, 0, 78, 0
1, 145070, Note_on_c, 0, 90, 0
1, 145070, Note_on_c, 0, 86, 0
1, 145080, Note_on_c, 0, 33, 100
1, 145080, Note_on_c, 0, 91, 100
1, 145080, Note_on_c, 0, 88, 100
1, 145080, Note_on_c, 0, 79, 100
1, 145080, Note_on_c, 0, 45, 100
1, 145190, Note_on_c, 0, 33, 0
1, 145190, Note_on_c, 0, 91, 0
1, 145190, Note_on_c, 0, 88, 0
1, 145190, Note_on_c, 0, 79, 0
1, 145190, Note_on_c, 0, 45, 0
1, 145200, Note_on_c, 0, 90, 100
1, 145200, Note_on_c, 0, 86, 100
1, 145200, Note_on_c, 0, 78, 100
1, 145200, Note_on_c, 0, 45, 100
1, 145200, Note_on_c, 0, 57, 100
1, 145370, Note_on_c, 0, 90, 0
1, 145370, Note_on_c, 0, 86, 0
1, 145370, Note_on_c, 0, 78, 0
1, 145370, Note_on_c, 0, 45, 0
1, 145370, Note_on_c, 0, 57, 0
1, 145440, Note_on_c, 0, 86, 100
1, 145440, Note_on_c, 0, 74, 100
1, 145440, Note_on_c, 0, 78, 100
1, 145440, Note_on_c, 0, 81, 100
1, 145440, Note_on_c, 0, 57, 100
1, 145440, Note_on_c, 0, 62, 100
1, 145440, Note_on_c, 0, 54, 100
1, 145440, Note_on_c, 0, 50, 100
1, 145610, Note_on_c, 0, 86, 0
1, 145610, Note_on_c, 0, 74, 0
1, 145610, Note_on_c, 0, 78, 0
1, 145610, Note_on_c, 0, 81, 0
1, 145610, Note_on_c, 0, 57, 0
1, 145610, Note_on_c, 0, 62, 0
1, 145610, Note_on_c, 0, 54, 0
1, 145610, Note_on_c, 0, 50, 0
1, 145680, Note_on_c, 0, 85, 100
1, 145680, Note_on_c, 0, 76, 100
1, 145680, Note_on_c, 0, 81, 100
1, 145680, Note_on_c, 0, 88, 100
1, 145680, Note_on_c, 0, 64, 100
1, 145680, Note_on_c, 0, 69, 100
1, 145680, Note_on_c, 0, 61, 100
1, 145680, Note_on_c, 0, 57, 100
1, 145910, Note_on_c, 0, 85, 0
1, 145910, Note_on_c, 0, 76, 0
1, 145910, Note_on_c, 0, 81, 0
1, 145910, Note_on_c, 0, 88, 0
1, 145910, Note_on_c, 0, 64, 0
1, 145910, Note_on_c, 0, 69, 0
1, 145910, Note_on_c, 0, 61, 0
1, 145910, Note_on_c, 0, 57, 0
1, 145920, Note_on_c, 0, 78, 100
1, 145920, Note_on_c, 0, 90, 100
1, 145920, Note_on_c, 0, 86, 100
1, 146030, Note_on_c, 0, 78, 0
1, 146030, Note_on_c, 0, 90, 0
1, 146030, Note_on_c, 0, 86, 0
1, 146040, Note_on_c, 0, 91, 100
1, 146040, Note_on_c, 0, 88, 100
1, 146040, Note_on_c, 0, 79, 100
1, 146040, Note_on_c, 0, 45, 100
1, 146040, Note_on_c, 0, 57, 100
1, 146150, Note_on_c, 0, 91, 0
1, 146150, Note_on_c, 0, 88, 0
1, 146150, Note_on_c, 0, 79, 0
1, 146150, Note_on_c, 0, 45, 0
1, 146150, Note_on_c, 0, 57, 0
1, 146160, Note_on_c, 0, 46, 100
1, 146160, Note_on_c, 0, 85, 100
1, 146160, Note_on_c, 0, 90, 100
1, 146160, Note_on_c, 0, 58, 100
1, 146160, Note_on_c, 0, 78, 100
1, 146270, Note_on_c, 0, 46, 0
1, 146270, Note_on_c, 0, 58, 0
1, 146390, Note_on_c, 0, 85, 0
1, 146390, Note_on_c, 0, 90, 0
1, 146390, Note_on_c, 0, 78, 0
1, 146400, Note_on_c, 0, 85, 100
1, 146400, Note_on_c, 0, 54, 100
1, 146400, Note_on_c, 0, 76, 100
1, 146400, Note_on_c, 0, 42, 100
1, 146400, Note_on_c, 0, 88, 100
1, 146510, Note_on_c, 0, 54, 0
1, 146510, Note_on_c, 0, 42, 0
1, 146630, Note_on_c, 0, 85, 0
1, 146630, Note_on_c, 0, 76, 0
1, 146630, Note_on_c, 0, 88, 0
1, 146640, Note_on_c, 0, 83, 100
1, 146640, Note_on_c, 0, 86, 100
1, 146640, Note_on_c, 0, 47, 100
1, 146640, Note_on_c, 0, 59, 100
1, 146640, Note_on_c, 0, 74, 100
1, 146732, Control_c, 0, 64, 127
1, 146760, Note_on_c, 0, 83, 0
1, 146760, Note_on_c, 0, 86, 0
1, 146760, Note_on_c, 0, 47, 0
1, 146760, Note_on_c, 0, 59, 0
1, 146760, Note_on_c, 0, 74, 0
1, 146880, Note_on_c, 0, 88, 100
1, 146880, Note_on_c, 0, 80, 100
1, 146880, Note_on_c, 0, 76, 100
1, 146880, Note_on_c, 0, 40, 100
1, 146880, Note_on_c, 0, 52, 100
1, 147000, Note_on_c, 0, 88, 0
1, 147000, Note_on_c, 0, 80, 0
1, 147000, Note_on_c, 0, 76, 0
1, 147000, Note_on_c, 0, 40, 0
1, 147000, Note_on_c, 0, 52, 0
1, 147074, Control_c, 0, 64, 0
1, 147120, Note_on_c, 0, 69, 100
1, 147120, Note_on_c, 0, 81, 100
1, 147120, Note_on_c, 0, 57, 100
1, 147120, Note_on_c, 0, 45, 100
1, 147240, Note_on_c, 0, 69, 0
1, 147240, Note_on_c, 0, 81, 0
1, 147240, Note_on_c, 0, 57, 0
1, 147240, Note_on_c, 0, 45, 0
1, 147253, Control_c, 0, 64, 127
1, 147360, Note_on_c, 0, 66, 100
1, 147360, Note_on_c, 0, 90, 100
1, 147360, Note_on_c, 0, 81, 100
1, 147360, Note_on_c, 0, 78, 100
1, 147360, Note_on_c, 0, 86, 100
1, 147360, Note_on_c, 0, 62, 100
1, 147360, Note_on_c, 0, 57, 100
1, 147429, Control_c, 0, 64, 0
1, 147444, Note_on_c, 0, 62, 0
1, 147446, Note_on_c, 0, 66, 0
1, 147452, Note_on_c, 0, 57, 0
1, 147600, Note_on_c, 0, 38, 100
1, 147600, Note_on_c, 0, 50, 100
1, 147673, Note_on_c, 0, 81, 0
1, 147698, Note_on_c, 0, 86, 0
1, 147727, Note_on_c, 0, 90, 0
1, 147729, Note_on_c, 0, 78, 0
1, 147840, Note_on_c, 0, 78, 100
1, 147840, Note_on_c, 0, 90, 100
1, 147840, Note_on_c, 0, 86, 100
1, 147902, Note_on_c, 0, 38, 0
1, 147902, Note_on_c, 0, 50, 0
1, 147954, Note_on_c, 0, 86, 0
1, 147960, Note_on_c, 0, 50, 100
1, 147960, Note_on_c, 0, 38, 100
1, 147969, Note_on_c, 0, 38, 0
1, 147974, Note_on_c, 0, 50, 0
1, 147976, Note_on_c, 0, 78, 0
1, 147976, Note_on_c, 0, 90, 0
1, 148080, Note_on_c, 0, 88, 100
1, 148080, Note_on_c, 0, 50, 100
1, 148080, Note_on_c, 0, 79, 100
1, 148080, Note_on_c, 0, 91, 100
1, 148080, Note_on_c, 0, 62, 100
1, 148186, Note_on_c, 0, 62, 0
1, 148213, Note_on_c, 0, 88, 0
1, 148218, Note_on_c, 0, 79, 0
1, 148224, Note_on_c, 0, 91, 0
1, 148320, Note_on_c, 0, 90, 100
1, 148320, Note_on_c, 0, 81, 100
1, 148320, Note_on_c, 0, 93, 100
1, 148351, Note_on_c, 0, 50, 0
1, 148440, Note_on_c, 0, 38, 100
1, 148440, Note_on_c, 0, 50, 100
1, 148451, Note_on_c, 0, 90, 0
1, 148451, Note_on_c, 0, 50, 0
1, 148454, Note_on_c, 0, 38, 0
1, 148454, Note_on_c, 0, 81, 0
1, 148454, Note_on_c, 0, 93, 0
1, 148560, Note_on_c, 0, 90, 100
1, 148560, Note_on_c, 0, 81, 100
1, 148560, Note_on_c, 0, 93, 100
1, 148560, Note_on_c, 0, 57, 100
1, 148560, Note_on_c, 0, 69, 100
1, 148648, Note_on_c, 0, 69, 0
1, 148662, Note_on_c, 0, 93, 0
1, 148672, Note_on_c, 0, 90, 0
1, 148707, Note_on_c, 0, 81, 0
1, 148789, Note_on_c, 0, 57, 0
1, 148800, Note_on_c, 0, 79, 100
1, 148800, Note_on_c, 0, 91, 100
1, 148800, Note_on_c, 0, 88, 100
1, 148857, Note_on_c, 0, 88, 0
1, 148863, Note_on_c, 0, 91, 0
1, 148886, Note_on_c, 0, 79, 0
1, 148920, Note_on_c, 0, 45, 100
1, 148920, Note_on_c, 0, 57, 100
1, 148939, Note_on_c, 0, 57, 0
1, 148943, Note_on_c, 0, 45, 0
1, 149040, Note_on_c, 0, 78, 100
1, 149040, Note_on_c, 0, 90, 100
1, 149040, Note_on_c, 0, 86, 100
1, 149040, Note_on_c, 0, 57, 100
1, 149040, Note_on_c, 0, 69, 100
1, 149123, Note_on_c, 0, 69, 0
1, 149141, Note_on_c, 0, 86, 0
1, 149157, Control_c, 0, 64, 127
1, 149157, Note_on_c, 0, 90, 0
1, 149173, Note_on_c, 0, 78, 0
1, 149223, Note_on_c, 0, 57, 0
1, 149280, Note_on_c, 0, 57, 100
1, 149280, Note_on_c, 0, 88, 100
1, 149280, Note_on_c, 0, 81, 100
1, 149280, Note_on_c, 0, 76, 100
1, 149332, Control_c, 0, 64, 0
1, 149343, Note_on_c, 0, 57, 0
1, 149375, Note_on_c, 0, 88, 0
1, 149381, Note_on_c, 0, 81, 0
1, 149400, Note_on_c, 0, 57, 100
1, 149400, Note_on_c, 0, 45, 100
1, 149403, Note_on_c, 0, 76, 0
1, 149415, Note_on_c, 0, 57, 0
1, 149425, Note_on_c, 0, 45, 0
1, 149520, Note_on_c, 0, 86, 100
1, 149520, Note_on_c, 0, 78, 100
1, 149520, Note_on_c, 0, 74, 100
1, 149520, Note_on_c, 0, 50, 100
1, 149520, Note_on_c, 0, 38, 100
1, 149572, Note_on_c, 0, 38, 0
1, 149604, Note_on_c, 0, 50, 0
1, 149627, Note_on_c, 0, 86, 0
1, 149651, Note_on_c, 0, 78, 0
1, 149651, Note_on_c, 0, 74, 0
1, 149760, Note_on_c, 0, 86, 100
1, 149760, Note_on_c, 0, 78, 100
1, 149760, Note_on_c, 0, 74, 100
1, 149760, Note_on_c, 0, 54, 100
1, 149760, Note_on_c, 0, 50, 100
1, 149760, Note_on_c, 0, 62, 100
1, 149868, Note_on_c, 0, 78, 0
1, 149868, Note_on_c, 0, 50, 0
1, 149868, Note_on_c, 0, 62, 0
1, 149879, Note_on_c, 0, 74, 0
1, 149879, Note_on_c, 0, 54, 0
1, 149881, Note_on_c, 0, 86, 0
1, 150000, Note_on_c, 0, 88, 100
1, 150000, Note_on_c, 0, 49, 100
1, 150000, Note_on_c, 0, 81, 100
1, 150000, Note_on_c, 0, 64, 100
1, 150000, Note_on_c, 0, 76, 100
1, 150000, Note_on_c, 0, 57, 100
1, 150109, Note_on_c, 0, 49, 0
1, 150113, Note_on_c, 0, 88, 0
1, 150118, Note_on_c, 0, 76, 0
1, 150120, Note_on_c, 0, 64, 0
1, 150123, Note_on_c, 0, 57, 0
1, 150125, Note_on_c, 0, 81, 0
1, 150240, Note_on_c, 0, 66, 100
1, 150240, Note_on_c, 0, 50, 100
1, 150240, Note_on_c, 0, 57, 100
1, 150240, Note_on_c, 0, 78, 100
1, 150240, Note_on_c, 0, 90, 100
1, 150240, Note_on_c, 0, 86, 100
1, 150316, Note_on_c, 0, 50, 0
1, 150325, Note_on_c, 0, 57, 0
1, 150340, Note_on_c, 0, 86, 0
1, 150349, Note_on_c, 0, 90, 0
1, 150352, Note_on_c, 0, 66, 0
1, 150360, Note_on_c, 0, 78, 0
1, 150480, Note_on_c, 0, 76, 100
1, 150480, Note_on_c, 0, 81, 100
1, 150480, Note_on_c, 0, 88, 100
1, 150480, Note_on_c, 0, 61, 100
1, 150480, Note_on_c, 0, 64, 100
1, 150480, Note_on_c, 0, 69, 100
1, 150480, Note_on_c, 0, 57, 100
1, 150706, Note_on_c, 0, 64, 0
1, 150706, Note_on_c, 0, 69, 0
1, 150712, Note_on_c, 0, 88, 0
1, 150716, Note_on_c, 0, 61, 0
1, 150716, Note_on_c, 0, 57, 0
1, 150733, Note_on_c, 0, 81, 0
1, 150742, Note_on_c, 0, 76, 0
1, 150840, Note_on_c, 0, 86, 100
1, 150840, Note_on_c, 0, 78, 100
1, 150840, Note_on_c, 0, 62, 100
1, 150840, Note_on_c, 0, 81, 100
1, 150840, Note_on_c, 0, 74, 100
1, 150840, Note_on_c, 0, 50, 100
1, 150840, Note_on_c, 0, 57, 100
1, 150840, Note_on_c, 0, 54, 100
1, 150884, Note_on_c, 0, 62, 0
1, 150886, Note_on_c, 0, 54, 0
1, 150888, Note_on_c, 0, 57, 0
1, 150891, Note_on_c, 0, 50, 0
1, 150894, Note_on_c, 0, 74, 0
1, 150897, Note_on_c, 0, 86, 0
1, 150899, Note_on_c, 0, 81, 0
1, 150902, Note_on_c, 0, 78, 0
1, 150960, Note_on_c, 0, 62, 100
1, 150960, Note_on_c, 0, 57, 100
1, 150960, Note_on_c, 0, 54, 100
1, 150960, Note_on_c, 0, 50, 100
1, 150960, Note_on_c, 0, 78, 100
1, 150960, Note_on_c, 0, 81, 100
1, 150960, Note_on_c, 0, 86, 100
1, 150960, Note_on_c, 0, 74, 100
1, 150992, Note_on_c, 0, 62, 0
1, 151004, Note_on_c, 0, 54, 0
1, 151022, Note_on_c, 0, 57, 0
1, 151080, Note_on_c, 0, 93, 100
1, 151080, Note_on_c, 0, 81, 100
1, 151080, Note_on_c, 0, 90, 100
1, 151080, Note_on_c, 0, 66, 100
1, 151080, Note_on_c, 0, 69, 100
1, 151092, Note_on_c, 0, 50, 0
1, 151121, Note_on_c, 0, 93, 0
1, 151121, Note_on_c, 0, 86, 0
1, 151125, Note_on_c, 0, 81, 0
1, 151125, Note_on_c, 0, 90, 0
1, 151125, Note_on_c, 0, 66, 0
1, 151125, Note_on_c, 0, 69, 0
1, 151162, Note_on_c, 0, 81, 0
1, 151195, Note_on_c, 0, 74, 0
1, 151200, Note_on_c, 0, 91, 100
1, 151200, Note_on_c, 0, 79, 100
1, 151200, Note_on_c, 0, 88, 100
1, 151200, Note_on_c, 0, 64, 100
1, 151200, Note_on_c, 0, 67, 100
1, 151202, Note_on_c, 0, 91, 0
1, 151242, Note_on_c, 0, 88, 0
1, 151273, Note_on_c, 0, 79, 0
1, 151320, Note_on_c, 0, 90, 100
1, 151320, Note_on_c, 0, 78, 100
1, 151320, Note_on_c, 0, 66, 100
1, 151320, Note_on_c, 0, 86, 100
1, 151320, Note_on_c, 0, 62, 100
1, 151358, Note_on_c, 0, 78, 0
1, 151358, Note_on_c, 0, 66, 0
1, 151358, Note_on_c, 0, 86, 0
1, 151358, Note_on_c, 0, 62, 0
1, 151362, Note_on_c, 0, 90, 0
1, 151440, Note_on_c, 0, 85, 100
1, 151440, Note_on_c, 0, 76, 100
1, 151440, Note_on_c, 0, 88, 100
1, 151440, Note_on_c, 0, 81, 100
1, 151440, Note_on_c, 0, 64, 100
1, 151440, Note_on_c, 0, 57, 100
1, 151440, Note_on_c, 0, 61, 100
1, 151541, Control_c, 0, 64, 127
1, 151551, Note_on_c, 0, 67, 0
1, 151574, Note_on_c, 0, 78, 0
1, 151605, Note_on_c, 0, 64, 0
1, 151670, Note_on_c, 0, 64, 0
1, 151670, Note_on_c, 0, 57, 0
1, 151670, Note_on_c, 0, 61, 0
1, 151800, Note_on_c, 0, 45, 100
1, 151800, Note_on_c, 0, 33, 100
1, 151910, Note_on_c, 0, 85, 0
1, 151910, Note_on_c, 0, 76, 0
1, 151910, Note_on_c, 0, 88, 0
1, 151910, Note_on_c, 0, 45, 0
1, 151910, Note_on_c, 0, 33, 0
1, 151910, Note_on_c, 0, 81, 0
1, 151920, Note_on_c, 0, 78, 100
1, 151920, Note_on_c, 0, 90, 100
1, 151920, Note_on_c, 0, 57, 100
1, 151920, Note_on_c, 0, 86, 100
1, 151920, Note_on_c, 0, 45, 100
1, 151920, Control_c, 0, 64, 0
1, 151995, Control_c, 0, 64, 127
1, 152040, Note_on_c, 0, 57, 0
1, 152040, Note_on_c, 0, 45, 0
1, 152150, Note_on_c, 0, 78, 0
1, 152150, Note_on_c, 0, 90, 0
1, 152150, Note_on_c, 0, 86, 0
1, 152160, Note_on_c, 0, 78, 100
1, 152160, Note_on_c, 0, 81, 100
1, 152160, Note_on_c, 0, 74, 100
1, 152160, Note_on_c, 0, 86, 100
1, 152160, Note_on_c, 0, 50, 100
1, 152160, Note_on_c, 0, 57, 100
1, 152160, Note_on_c, 0, 62, 100
1, 152160, Note_on_c, 0, 54, 100
1, 152306, Control_c, 0, 64, 0
1, 152390, Note_on_c, 0, 78, 0
1, 152390, Note_on_c, 0, 81, 0
1, 152390, Note_on_c, 0, 74, 0
1, 152390, Note_on_c, 0, 86, 0
1, 152390, Note_on_c, 0, 50, 0
1, 152390, Note_on_c, 0, 57, 0
1, 152390, Note_on_c, 0, 62, 0
1, 152390, Note_on_c, 0, 54, 0
1, 152400, Note_on_c, 0, 85, 100
1, 152400, Note_on_c, 0, 81, 100
1, 152400, Note_on_c, 0, 88, 100
1, 152400, Note_on_c, 0, 76, 100
1, 152400, Note_on_c, 0, 57, 100
1, 152400, Note_on_c, 0, 61, 100
1, 152400, Note_on_c, 0, 69, 100
1, 152400, Note_on_c, 0, 64, 100
1, 152506, Control_c, 0, 64, 127
1, 152630, Note_on_c, 0, 85, 0
1, 152630, Note_on_c, 0, 81, 0
1, 152630, Note_on_c, 0, 88, 0
1, 152630, Note_on_c, 0, 76, 0
1, 152630, Note_on_c, 0, 57, 0
1, 152630, Note_on_c, 0, 61, 0
1, 152630, Note_on_c, 0, 69, 0
1, 152630, Note_on_c, 0, 64, 0
1, 152640, Note_on_c, 0, 78, 100
1, 152640, Note_on_c, 0, 90, 100
1, 152640, Note_on_c, 0, 86, 100
1, 152750, Note_on_c, 0, 78, 0
1, 152750, Note_on_c, 0, 90, 0
1, 152750, Note_on_c, 0, 86, 0
1, 152760, Note_on_c, 0, 33, 100
1, 152760, Note_on_c, 0, 91, 100
1, 152760, Note_on_c, 0, 88, 100
1, 152760, Note_on_c, 0, 79, 100
1, 152760, Note_on_c, 0, 45, 100
1, 152806, Control_c, 0, 64, 0
1, 152870, Note_on_c, 0, 33, 0
1, 152870, Note_on_c, 0, 91, 0
1, 152870, Note_on_c, 0, 88, 0
1, 152870, Note_on_c, 0, 79, 0
1, 152870, Note_on_c, 0, 45, 0
1, 152880, Note_on_c, 0, 90, 100
1, 152880, Note_on_c, 0, 86, 100
1, 152880, Note_on_c, 0, 78, 100
1, 152880, Note_on_c, 0, 45, 100
1, 152880, Note_on_c, 0, 57, 100
1, 152976, Control_c, 0, 64, 127
1, 153050, Note_on_c, 0, 90, 0
1, 153050, Note_on_c, 0, 86, 0
1, 153050, Note_on_c, 0, 78, 0
1, 153050, Note_on_c, 0, 45, 0
1, 153050, Note_on_c, 0, 57, 0
1, 153120, Note_on_c, 0, 86, 100
1, 153120, Note_on_c, 0, 74, 100
1, 153120, Note_on_c, 0, 78, 100
1, 153120, Note_on_c, 0, 81, 100
1, 153120, Note_on_c, 0, 57, 100
1, 153120, Note_on_c, 0, 62, 100
1, 153120, Note_on_c, 0, 54, 100
1, 153120, Note_on_c, 0, 50, 100
1, 153261, Control_c, 0, 64, 0
1, 153290, Note_on_c, 0, 86, 0
1, 153290, Note_on_c, 0, 74, 0
1, 153290, Note_on_c, 0, 78, 0
1, 153290, Note_on_c, 0, 81, 0
1, 153290, Note_on_c, 0, 57, 0
1, 153290, Note_on_c, 0, 62, 0
1, 153290, Note_on_c, 0, 54, 0
1, 153290, Note_on_c, 0, 50, 0
1, 153360, Note_on_c, 0, 85, 100
1, 153360, Note_on_c, 0, 76, 100
1, 153360, Note_on_c, 0, 81, 100
1, 153360, Note_on_c, 0, 88, 100
1, 153360, Note_on_c, 0, 64, 100
1, 153360, Note_on_c, 0, 69, 100
1, 153360, Note_on_c, 0, 61, 100
1, 153360, Note_on_c, 0, 57, 100
1, 153529, Control_c, 0, 64, 127
1, 153590, Note_on_c, 0, 85, 0
1, 153590, Note_on_c, 0, 76, 0
1, 153590, Note_on_c, 0, 81, 0
1, 153590, Note_on_c, 0, 88, 0
1, 153590, Note_on_c, 0, 64, 0
1, 153590, Note_on_c, 0, 69, 0
1, 153590, Note_on_c, 0, 61, 0
1, 153590, Note_on_c, 0, 57, 0
1, 153600, Note_on_c, 0, 78, 100
1, 153600, Note_on_c, 0, 90, 100
1, 153600, Note_on_c, 0, 86, 100
1, 153710, Note_on_c, 0, 78, 0
1, 153710, Note_on_c, 0, 90, 0
1, 153710, Note_on_c, 0, 86, 0
1, 153720, Note_on_c, 0, 91, 100
1, 153720, Note_on_c, 0, 88, 100
1, 153720, Note_on_c, 0, 79, 100
1, 153720, Note_on_c, 0, 45, 100
1, 153720, Note_on_c, 0, 57, 100
1, 153811, Control_c, 0, 64, 0
1, 153830, Note_on_c, 0, 91, 0
1, 153830, Note_on_c, 0, 88, 0
1, 153830, Note_on_c, 0, 79, 0
1, 153830, Note_on_c, 0, 45, 0
1, 153830, Note_on_c, 0, 57, 0
1, 153840, Note_on_c, 0, 46, 100
1, 153840, Note_on_c, 0, 85, 100
1, 153840, Note_on_c, 0, 90, 100
1, 153840, Note_on_c, 0, 58, 100
1, 153840, Note_on_c, 0, 78, 100
1, 153950, Note_on_c, 0, 46, 0
1, 153950, Note_on_c, 0, 58, 0
1, 153968, Control_c, 0, 64, 127
1, 154070, Note_on_c, 0, 85, 0
1, 154070, Note_on_c, 0, 90, 0
1, 154070, Note_on_c, 0, 78, 0
1, 154080, Note_on_c, 0, 85, 100
1, 154080, Note_on_c, 0, 54, 100
1, 154080, Note_on_c, 0, 76, 100
1, 154080, Note_on_c, 0, 42, 100
1, 154080, Note_on_c, 0, 88, 100
1, 154190, Note_on_c, 0, 54, 0
1, 154190, Note_on_c, 0, 42, 0
1, 154214, Control_c, 0, 64, 0
1, 154310, Note_on_c, 0, 85, 0
1, 154310, Note_on_c, 0, 76, 0
1, 154310, Note_on_c, 0, 88, 0
1, 154320, Note_on_c, 0, 83, 100
1, 154320, Note_on_c, 0, 86, 100
1, 154320, Note_on_c, 0, 47, 100
1, 154320, Note_on_c, 0, 59, 100
1, 154320, Note_on_c, 0, 74, 100
1, 154419, Control_c, 0, 64, 127
1, 154440, Note_on_c, 0, 83, 0
1, 154440, Note_on_c, 0, 86, 0
1, 154440, Note_on_c, 0, 47, 0
1, 154440, Note_on_c, 0, 59, 0
1, 154440, Note_on_c, 0, 74, 0
1, 154548, Control_c, 0, 64, 0
1, 154560, Note_on_c, 0, 88, 100
1, 154560, Note_on_c, 0, 80, 100
1, 154560, Note_on_c, 0, 76, 100
1, 154560, Note_on_c, 0, 40, 100
1, 154560, Note_on_c, 0, 52, 100
1, 154680, Note_on_c, 0, 88, 0
1, 154680, Note_on_c, 0, 80, 0
1, 154680, Note_on_c, 0, 76, 0
1, 154680, Note_on_c, 0, 40, 0
1, 154680, Note_on_c, 0, 52, 0
1, 154737, Control_c, 0, 64, 127
1, 154800, Note_on_c, 0, 69, 100
1, 154800, Note_on_c, 0, 81, 100
1, 154800, Note_on_c, 0, 57, 100
1, 154800, Note_on_c, 0, 45, 100
1, 154920, Note_on_c, 0, 69, 0
1, 154920, Note_on_c, 0, 81, 0
1, 154920, Note_on_c, 0, 57, 0
1, 154920, Note_on_c, 0, 45, 0
1, 154982, Control_c, 0, 64, 0
1, 155040, Note_on_c, 0, 66, 100
1, 155040, Note_on_c, 0, 90, 100
1, 155040, Note_on_c, 0, 81, 100
1, 155040, Note_on_c, 0, 78, 100
1, 155040, Note_on_c, 0, 86, 100
1, 155040, Note_on_c, 0, 62, 100
1, 155040, Note_on_c, 0, 57, 100
1, 155124, Note_on_c, 0, 62, 0
1, 155126, Note_on_c, 0, 66, 0
1, 155132, Note_on_c, 0, 57, 0
1, 155280, Note_on_c, 0, 38, 100
1, 155280, Note_on_c, 0, 50, 100
1, 155353, Note_on_c, 0, 81, 0
1, 155378, Note_on_c, 0, 86, 0
1, 155407, Note_on_c, 0, 90, 0
1, 155409, Note_on_c, 0, 78, 0
1, 155520, Note_on_c, 0, 78, 100
1, 155520, Note_on_c, 0, 90, 100
1, 155520, Note_on_c, 0, 86, 100
1, 155582, Note_on_c, 0, 38, 0
1, 155582, Note_on_c, 0, 50, 0
1, 155634, Note_on_c, 0, 86, 0
1, 155640, Note_on_c, 0, 50, 100
1, 155640, Note_on_c, 0, 38, 100
1, 155649, Note_on_c, 0, 38, 0
1, 155654, Note_on_c, 0, 50, 0
1, 155656, Note_on_c, 0, 78, 0
1, 155656, Note_on_c, 0, 90, 0
1, 155760, Note_on_c, 0, 88, 100
1, 155760, Note_on_c, 0, 50, 100
1, 155760, Note_on_c, 0, 79, 100
1, 155760, Note_on_c, 0, 91, 100
1, 155760, Note_on_c, 0, 62, 100
1, 155866, Note_on_c, 0, 62, 0
1, 155893, Note_on_c, 0, 88, 0
1, 155898, Note_on_c, 0, 79, 0
1, 155904, Note_on_c, 0, 91, 0
1, 156000, Note_on_c, 0, 90, 100
1, 156000, Note_on_c, 0, 81, 100
1, 156000, Note_on_c, 0, 93, 100
1, 156031, Note_on_c, 0, 50, 0
1, 156120, Note_on_c, 0, 38, 100
1, 156120, Note_on_c, 0, 50, 100
1, 156131, Note_on_c, 0, 90, 0
1, 156131, Note_on_c, 0, 50, 0
1, 156134, Note_on_c, 0, 38, 0
1, 156134, Note_on_c, 0, 81, 0
1, 156134, Note_on_c, 0, 93, 0
1, 156240, Note_on_c, 0, 90, 100
1, 156240, Note_on_c, 0, 81, 100
1, 156240, Note_on_c, 0, 93, 100
1, 156240, Note_on_c, 0, 57, 100
1, 156240, Note_on_c, 0, 69, 100
1, 156313, Control_c, 0, 64, 127
1, 156328, Note_on_c, 0, 69, 0
1, 156342, Note_on_c, 0, 93, 0
1, 156352, Note_on_c, 0, 90, 0
1, 156387, Note_on_c, 0, 81, 0
1, 156469, Note_on_c, 0, 57, 0
1, 156480, Note_on_c, 0, 79, 100
1, 156480, Note_on_c, 0, 91, 100
1, 156480, Note_on_c, 0, 88, 100
1, 156537, Note_on_c, 0, 88, 0
1, 156543, Note_on_c, 0, 91, 0
1, 156566, Note_on_c, 0, 79, 0
1, 156600, Note_on_c, 0, 45, 100
1, 156600, Note_on_c, 0, 57, 100
1, 156619, Note_on_c, 0, 57, 0
1, 156623, Note_on_c, 0, 45, 0
1, 156720, Note_on_c, 0, 78, 100
1, 156720, Note_on_c, 0, 90, 100
1, 156720, Note_on_c, 0, 86, 100
1, 156720, Note_on_c, 0, 57, 100
1, 156720, Note_on_c, 0, 69, 100
1, 156803, Note_on_c, 0, 69, 0
1, 156821, Note_on_c, 0, 86, 0
1, 156837, Note_on_c, 0, 90, 0
1, 156853, Note_on_c, 0, 78, 0
1, 156869, Control_c, 0, 64, 0
1, 156903, Note_on_c, 0, 57, 0
1, 156960, Note_on_c, 0, 57, 100
1, 156960, Note_on_c, 0, 88, 100
1, 156960, Note_on_c, 0, 81, 100
1, 156960, Note_on_c, 0, 76, 100
1, 157023, Note_on_c, 0, 57, 0
1, 157055, Note_on_c, 0, 88, 0
1, 157061, Note_on_c, 0, 81, 0
1, 157080, Note_on_c, 0, 57, 100
1, 157080, Note_on_c, 0, 45, 100
1, 157083, Note_on_c, 0, 76, 0
1, 157095, Note_on_c, 0, 57, 0
1, 157105, Note_on_c, 0, 45, 0
1, 157200, Note_on_c, 0, 86, 100
1, 157200, Note_on_c, 0, 78, 100
1, 157200, Note_on_c, 0, 74, 100
1, 157200, Note_on_c, 0, 50, 100
1, 157200, Note_on_c, 0, 38, 100
1, 157243, Control_c, 0, 64, 127
1, 157252, Note_on_c, 0, 38, 0
1, 157284, Note_on_c, 0, 50, 0
1, 157307, Note_on_c, 0, 86, 0
1, 157331, Note_on_c, 0, 78, 0
1, 157331, Note_on_c, 0, 74, 0
1, 157440, Note_on_c, 0, 86, 100
1, 157440, Note_on_c, 0, 78, 100
1, 157440, Note_on_c, 0, 74, 100
1, 157440, Note_on_c, 0, 54, 100
1, 157440, Note_on_c, 0, 50, 100
1, 157440, Note_on_c, 0, 62, 100
1, 157548, Note_on_c, 0, 78, 0
1, 157548, Note_on_c, 0, 50, 0
1, 157548, Note_on_c, 0, 62, 0
1, 157559, Note_on_c, 0, 74, 0
1, 157559, Note_on_c, 0, 54, 0
1, 157561, Note_on_c, 0, 86, 0
1, 157656, Control_c, 0, 64, 0
1, 157680, Note_on_c, 0, 88, 100
1, 157680, Note_on_c, 0, 49, 100
1, 157680, Note_on_c, 0, 81, 100
1, 157680, Note_on_c, 0, 64, 100
1, 157680, Note_on_c, 0, 76, 100
1, 157680, Note_on_c, 0, 57, 100
1, 157789, Note_on_c, 0, 49, 0
1, 157793, Note_on_c, 0, 88, 0
1, 157798, Note_on_c, 0, 76, 0
1, 157800, Note_on_c, 0, 64, 0
1, 157803, Note_on_c, 0, 57, 0
1, 157805, Note_on_c, 0, 81, 0
1, 157920, Note_on_c, 0, 66, 100
1, 157920, Note_on_c, 0, 50, 100
1, 157920, Note_on_c, 0, 57, 100
1, 157920, Note_on_c, 0, 78, 100
1, 157920, Note_on_c, 0, 90, 100
1, 157920, Note_on_c, 0, 86, 100
1, 157996, Note_on_c, 0, 50, 0
1, 158005, Note_on_c, 0, 57, 0
1, 158020, Note_on_c, 0, 86, 0
1, 158029, Note_on_c, 0, 90, 0
1, 158032, Note_on_c, 0, 66, 0
1, 158040, Note_on_c, 0, 78, 0
1, 158160, Note_on_c, 0, 76, 100
1, 158160, Note_on_c, 0, 81, 100
1, 158160, Note_on_c, 0, 88, 100
1, 158160, Note_on_c, 0, 61, 100
1, 158160, Note_on_c, 0, 64, 100
1, 158160, Note_on_c, 0, 69, 100
1, 158160, Note_on_c, 0, 57, 100
1, 158263, Control_c, 0, 64, 127
1, 158386, Note_on_c, 0, 64, 0
1, 158386, Note_on_c, 0, 69, 0
1, 158392, Note_on_c, 0, 88, 0
1, 158396, Note_on_c, 0, 61, 0
1, 158396, Note_on_c, 0, 57, 0
1, 158413, Note_on_c, 0, 81, 0
1, 158422, Note_on_c, 0, 76, 0
1, 158520, Note_on_c, 0, 86, 100
1, 158520, Note_on_c, 0, 78, 100
1, 158520, Note_on_c, 0, 62, 100
1, 158520, Note_on_c, 0, 81, 100
1, 158520, Note_on_c, 0, 74, 100
1, 158520, Note_on_c, 0, 50, 100
1, 158520, Note_on_c, 0, 57, 100
1, 158520, Note_on_c, 0, 54, 100
1, 158564, Note_on_c, 0, 62, 0
1, 158566, Note_on_c, 0, 54, 0
1, 158568, Note_on_c, 0, 57, 0
1, 158571, Note_on_c, 0, 50, 0
1, 158574, Note_on_c, 0, 74, 0
1, 158577, Note_on_c, 0, 86, 0
1, 158579, Note_on_c, 0, 81, 0
1, 158582, Note_on_c, 0, 78, 0
1, 158640, Note_on_c, 0, 62, 100
1, 158640, Note_on_c, 0, 57, 100
1, 158640, Note_on_c, 0, 54, 100
1, 158640, Note_on_c, 0, 50, 100
1, 158640, Note_on_c, 0, 78, 100
1, 158640, Note_on_c, 0, 81, 100
1, 158640, Note_on_c, 0, 86, 100
1, 158640, Note_on_c, 0, 74, 100
1, 158672, Note_on_c, 0, 62, 0
1, 158684, Note_on_c, 0, 54, 0
1, 158702, Note_on_c, 0, 57, 0
1, 158726, Control_c, 0, 64, 0
1, 158760, Note_on_c, 0, 45, 100
1, 158760, Note_on_c, 0, 57, 100
1, 158772, Note_on_c, 0, 50, 0
1, 158801, Note_on_c, 0, 45, 0
1, 158801, Note_on_c, 0, 86, 0
1, 158805, Note_on_c, 0, 57, 0
1, 158842, Note_on_c, 0, 81, 0
1, 158875, Note_on_c, 0, 74, 0
1, 158880, Note_on_c, 0, 78, 100
1, 158880, Note_on_c, 0, 50, 100
1, 158880, Note_on_c, 0, 62, 100
1, 158880, Note_on_c, 0, 69, 100
1, 158880, Note_on_c, 0, 81, 100
1, 158882, Note_on_c, 0, 78, 0
1, 158922, Note_on_c, 0, 62, 0
1, 158953, Note_on_c, 0, 50, 0
1, 159000, Note_on_c, 0, 38, 100
1, 159000, Note_on_c, 0, 50, 100
1, 159038, Note_on_c, 0, 50, 0
1, 159042, Note_on_c, 0, 38, 0
1, 159083, Control_c, 0, 64, 127
1, 159120, Note_on_c, 0, 76, 100
1, 159120, Note_on_c, 0, 67, 100
1, 159120, Note_on_c, 0, 50, 100
1, 159120, Note_on_c, 0, 79, 100
1, 159120, Note_on_c, 0, 62, 100
1, 159172, Note_on_c, 0, 62, 0
1, 159231, Note_on_c, 0, 81, 0
1, 159240, Note_on_c, 0, 45, 100
1, 159240, Note_on_c, 0, 57, 100
1, 159254, Note_on_c, 0, 78, 0
1, 159285, Note_on_c, 0, 69, 0
1, 159334, Note_on_c, 0, 50, 0
1, 159360, Note_on_c, 0, 62, 100
1, 159360, Note_on_c, 0, 50, 100
1, 159373, Note_on_c, 0, 57, 0
1, 159375, Note_on_c, 0, 45, 0
1, 159401, Control_c, 0, 64, 0
1, 159406, Note_on_c, 0, 62, 0
1, 159426, Note_on_c, 0, 50, 0
1, 159480, Note_on_c, 0, 38, 100
1, 159480, Note_on_c, 0, 66, 100
1, 159480, Note_on_c, 0, 50, 100
1, 159480, Note_on_c, 0, 78, 100
1, 159480, Note_on_c, 0, 74, 100
1, 159524, Note_on_c, 0, 38, 0
1, 159534, Note_on_c, 0, 50, 0
1, 159600, Note_on_c, 0, 62, 100
1, 159600, Note_on_c, 0, 50, 100
1, 159600, Note_on_c, 0, 66, 100
1, 159600, Note_on_c, 0, 78, 100
1, 159600, Note_on_c, 0, 74, 100
1, 159667, Note_on_c, 0, 62, 0
1, 159669, Note_on_c, 0, 78, 0
1, 159676, Note_on_c, 0, 74, 0
1, 159706, Note_on_c, 0, 66, 0
1, 159720, Note_on_c, 0, 45, 100
1, 159720, Note_on_c, 0, 57, 100
1, 159745, Control_c, 0, 64, 127
1, 159747, Note_on_c, 0, 50, 0
1, 159759, Note_on_c, 0, 57, 0
1, 159766, Note_on_c, 0, 45, 0
1, 159796, Note_on_c, 0, 66, 0
1, 159810, Note_on_c, 0, 74, 0
1, 159837, Note_on_c, 0, 78, 0
1, 159840, Note_on_c, 0, 86, 100
1, 159840, Note_on_c, 0, 74, 100
1, 159840, Note_on_c, 0, 83, 100
1, 159840, Note_on_c, 0, 62, 100
1, 159840, Note_on_c, 0, 50, 100
1, 159868, Control_c, 0, 64, 0
1, 159940, Note_on_c, 0, 62, 0
1, 159940, Note_on_c, 0, 50, 0
1, 159960, Note_on_c, 0, 50, 100
1, 159960, Note_on_c, 0, 38, 100
1, 159971, Note_on_c, 0, 76, 0
1, 159987, Note_on_c, 0, 79, 0
1, 159999, Note_on_c, 0, 38, 0
1, 160004, Note_on_c, 0, 50, 0
1, 160017, Note_on_c, 0, 67, 0
1, 160070, Note_on_c, 0, 86, 0
1, 160070, Note_on_c, 0, 74, 0
1, 160070, Note_on_c, 0, 83, 0
1, 160080, Note_on_c, 0, 81, 100
1, 160080, Note_on_c, 0, 84, 100
1, 160080, Note_on_c, 0, 72, 100
1, 160080, Note_on_c, 0, 43, 100
1, 160080, Note_on_c, 0, 55, 100
1, 160148, Note_on_c, 0, 43, 0
1, 160175, Note_on_c, 0, 55, 0
1, 160200, Note_on_c, 0, 50, 100
1, 160200, Note_on_c, 0, 62, 100
1, 160208, Control_c, 0, 64, 127
1, 160252, Note_on_c, 0, 62, 0
1, 160265, Note_on_c, 0, 50, 0
1, 160320, Note_on_c, 0, 62, 100
1, 160320, Note_on_c, 0, 50, 100
1, 160377, Note_on_c, 0, 62, 0
1, 160408, Note_on_c, 0, 50, 0
1, 160440, Note_on_c, 0, 31, 100
1, 160440, Note_on_c, 0, 43, 100
1, 160440, Note_on_c, 0, 71, 100
1, 160440, Note_on_c, 0, 79, 100
1, 160440, Note_on_c, 0, 83, 100
1, 160474, Control_c, 0, 64, 0
1, 160508, Note_on_c, 0, 31, 0
1, 160543, Note_on_c, 0, 43, 0
1, 160560, Note_on_c, 0, 55, 100
1, 160560, Note_on_c, 0, 43, 100
1, 160560, Note_on_c, 0, 79, 100
1, 160560, Note_on_c, 0, 83, 100
1, 160560, Note_on_c, 0, 71, 100
1, 160594, Note_on_c, 0, 81, 0
1, 160610, Note_on_c, 0, 43, 0
1, 160621, Note_on_c, 0, 84, 0
1, 160631, Note_on_c, 0, 55, 0
1, 160631, Note_on_c, 0, 83, 0
1, 160635, Control_c, 0, 64, 127
1, 160643, Note_on_c, 0, 79, 0
1, 160658, Note_on_c, 0, 71, 0
1, 160680, Note_on_c, 0, 50, 100
1, 160680, Note_on_c, 0, 62, 100
1, 160701, Note_on_c, 0, 72, 0
1, 160731, Note_on_c, 0, 62, 0
1, 160741, Note_on_c, 0, 50, 0
1, 160800, Note_on_c, 0, 74, 100
1, 160800, Note_on_c, 0, 59, 100
1, 160800, Note_on_c, 0, 86, 100
1, 160800, Note_on_c, 0, 47, 100
1, 160860, Note_on_c, 0, 83, 100
1, 160860, Note_on_c, 0, 79, 100
1, 160879, Note_on_c, 0, 59, 0
1, 160905, Note_on_c, 0, 79, 0
1, 160913, Note_on_c, 0, 83, 0
1, 160920, Note_on_c, 0, 55, 100
1, 160920, Note_on_c, 0, 43, 100
1, 160939, Note_on_c, 0, 47, 0
1, 160949, Control_c, 0, 64, 0
1, 160970, Note_on_c, 0, 74, 0
1, 161005, Note_on_c, 0, 55, 0
1, 161005, Note_on_c, 0, 43, 0
1, 161005, Note_on_c, 0, 71, 0
1, 161010, Note_on_c, 0, 86, 0
1, 161040, Note_on_c, 0, 78, 100
1, 161040, Note_on_c, 0, 55, 100
1, 161040, Note_on_c, 0, 67, 100
1, 161040, Note_on_c, 0, 69, 100
1, 161040, Note_on_c, 0, 81, 100
1, 161043, Note_on_c, 0, 83, 0
1, 161056, Note_on_c, 0, 79, 0
1, 161081, Note_on_c, 0, 67, 0
1, 161085, Note_on_c, 0, 78, 0
1, 161090, Note_on_c, 0, 55, 0
1, 161095, Note_on_c, 0, 81, 0
1, 161100, Note_on_c, 0, 76, 100
1, 161100, Note_on_c, 0, 79, 100
1, 161140, Control_c, 0, 64, 127
1, 161145, Note_on_c, 0, 76, 0
1, 161145, Note_on_c, 0, 79, 0
1, 161145, Note_on_c, 0, 69, 0
1, 161160, Note_on_c, 0, 66, 100
1, 161160, Note_on_c, 0, 54, 100
1, 161210, Note_on_c, 0, 66, 0
1, 161216, Note_on_c, 0, 54, 0
1, 161280, Note_on_c, 0, 83, 100
1, 161280, Note_on_c, 0, 79, 100
1, 161280, Note_on_c, 0, 71, 100
1, 161280, Note_on_c, 0, 52, 100
1, 161280, Note_on_c, 0, 64, 100
1, 161320, Note_on_c, 0, 79, 0
1, 161335, Note_on_c, 0, 64, 0
1, 161340, Note_on_c, 0, 76, 100
1, 161341, Note_on_c, 0, 52, 0
1, 161359, Note_on_c, 0, 71, 0
1, 161361, Note_on_c, 0, 76, 0
1, 161367, Note_on_c, 0, 83, 0
1, 161397, Control_c, 0, 64, 0
1, 161400, Note_on_c, 0, 43, 100
1, 161400, Note_on_c, 0, 55, 100
1, 161443, Note_on_c, 0, 43, 0
1, 161456, Note_on_c, 0, 55, 0
1, 161520, Note_on_c, 0, 76, 100
1, 161520, Note_on_c, 0, 67, 100
1, 161520, Note_on_c, 0, 79, 100
1, 161520, Note_on_c, 0, 57, 100
1, 161520, Note_on_c, 0, 45, 100
1, 161531, Control_c, 0, 64, 127
1, 161566, Note_on_c, 0, 45, 0
1, 161568, Note_on_c, 0, 76, 0
1, 161577, Note_on_c, 0, 57, 0
1, 161580, Note_on_c, 0, 73, 100
1, 161580, Note_on_c, 0, 59, 100
1, 161582, Note_on_c, 0, 67, 0
1, 161586, Note_on_c, 0, 79, 0
1, 161631, Note_on_c, 0, 59, 0
1, 161640, Note_on_c, 0, 47, 100
1, 161642, Note_on_c, 0, 73, 0
1, 161687, Note_on_c, 0, 47, 0
1, 161760, Note_on_c, 0, 61, 100
1, 161760, Note_on_c, 0, 49, 100
1, 161760, Note_on_c, 0, 64, 100
1, 161760, Note_on_c, 0, 73, 100
1, 161760, Note_on_c, 0, 76, 100
1, 161779, Note_on_c, 0, 61, 0
1, 161786, Note_on_c, 0, 49, 0
1, 161793, Note_on_c, 0, 64, 0
1, 161793, Note_on_c, 0, 76, 0
1, 161796, Note_on_c, 0, 73, 0
1, 161820, Note_on_c, 0, 67, 100
1, 161820, Note_on_c, 0, 73, 100
1, 161833, Note_on_c, 0, 73, 0
1, 161846, Note_on_c, 0, 67, 0
1, 161878, Control_c, 0, 64, 0
1, 161880, Note_on_c, 0, 45, 100
1, 161880, Note_on_c, 0, 33, 100
1, 161907, Note_on_c, 0, 33, 0
1, 161919, Note_on_c, 0, 45, 0
1, 162000, Note_on_c, 0, 67, 100
1, 162000, Note_on_c, 0, 57, 100
1, 162000, Note_on_c, 0, 38, 100
1, 162000, Note_on_c, 0, 62, 100
1, 162000, Note_on_c, 0, 50, 100
1, 162052, Note_on_c, 0, 67, 0
1, 162060, Note_on_c, 0, 66, 100
1, 162060, Note_on_c, 0, 52, 100
1, 162067, Note_on_c, 0, 38, 0
1, 162071, Note_on_c, 0, 57, 0
1, 162071, Note_on_c, 0, 62, 0
1, 162081, Note_on_c, 0, 50, 0
1, 162090, Note_on_c, 0, 66, 0
1, 162113, Control_c, 0, 64, 127
1, 162117, Note_on_c, 0, 52, 0
1, 162120, Note_on_c, 0, 40, 100
1, 162173, Note_on_c, 0, 40, 0
1, 162240, Note_on_c, 0, 42, 100
1, 162240, Note_on_c, 0, 54, 100
1, 162240, Note_on_c, 0, 74, 100
1, 162240, Note_on_c, 0, 62, 100
1, 162282, Note_on_c, 0, 54, 0
1, 162290, Note_on_c, 0, 42, 0
1, 162293, Note_on_c, 0, 62, 0
1, 162298, Note_on_c, 0, 74, 0
1, 162300, Note_on_c, 0, 66, 100
1, 162300, Note_on_c, 0, 69, 100
1, 162314, Note_on_c, 0, 66, 0
1, 162314, Note_on_c, 0, 69, 0
1, 162347, Control_c, 0, 64, 0
1, 162360, Note_on_c, 0, 38, 100
1, 162360, Note_on_c, 0, 50, 100
1, 162409, Note_on_c, 0, 38, 0
1, 162413, Note_on_c, 0, 50, 0
1, 162480, Note_on_c, 0, 54, 100
1, 162480, Note_on_c, 0, 42, 100
1, 162480, Note_on_c, 0, 81, 100
1, 162480, Note_on_c, 0, 69, 100
1, 162528, Note_on_c, 0, 42, 0
1, 162530, Note_on_c, 0, 81, 0
1, 162534, Note_on_c, 0, 54, 0
1, 162540, Note_on_c, 0, 78, 100
1, 162540, Note_on_c, 0, 74, 100
1, 162542, Note_on_c, 0, 69, 0
1, 162551, Control_c, 0, 64, 127
1, 162565, Note_on_c, 0, 74, 0
1, 162574, Note_on_c, 0, 78, 0
1, 162600, Note_on_c, 0, 45, 100
1, 162600, Note_on_c, 0, 57, 100
1, 162621, Note_on_c, 0, 45, 0
1, 162629, Note_on_c, 0, 57, 0
1, 162720, Note_on_c, 0, 80, 100
1, 162720, Note_on_c, 0, 50, 100
1, 162720, Note_on_c, 0, 62, 100
1, 162720, Note_on_c, 0, 74, 100
1, 162720, Note_on_c, 0, 86, 100
1, 162732, Note_on_c, 0, 80, 0
1, 162774, Note_on_c, 0, 86, 0
1, 162779, Note_on_c, 0, 74, 0
1, 162780, Note_on_c, 0, 78, 100
1, 162780, Note_on_c, 0, 81, 100
1, 162802, Note_on_c, 0, 78, 0
1, 162802, Note_on_c, 0, 81, 0
1, 162806, Control_c, 0, 64, 0
1, 162809, Note_on_c, 0, 50, 0
1, 162814, Note_on_c, 0, 62, 0
1, 162840, Note_on_c, 0, 54, 100
1, 162840, Note_on_c, 0, 66, 100
1, 162895, Note_on_c, 0, 54, 0
1, 162909, Note_on_c, 0, 66, 0
1, 162960, Note_on_c, 0, 67, 100
1, 162960, Note_on_c, 0, 55, 100
1, 162960, Note_on_c, 0, 78, 100
1, 162960, Note_on_c, 0, 81, 100
1, 162960, Note_on_c, 0, 71, 100
1, 163012, Note_on_c, 0, 78, 0
1, 163015, Note_on_c, 0, 81, 0
1, 163020, Note_on_c, 0, 58, 100
1, 163020, Note_on_c, 0, 76, 100
1, 163020, Note_on_c, 0, 79, 100
1, 163021, Note_on_c, 0, 71, 0
1, 163029, Note_on_c, 0, 58, 0
1, 163032, Note_on_c, 0, 67, 0
1, 163035, Control_c, 0, 64, 127
1, 163038, Note_on_c, 0, 55, 0
1, 163043, Note_on_c, 0, 76, 0
1, 163043, Note_on_c, 0, 79, 0
1, 163080, Note_on_c, 0, 66, 100
1, 163080, Note_on_c, 0, 54, 100
1, 163147, Note_on_c, 0, 66, 0
1, 163154, Note_on_c, 0, 54, 0
1, 163200, Note_on_c, 0, 52, 100
1, 163200, Note_on_c, 0, 64, 100
1, 163200, Note_on_c, 0, 83, 100
1, 163200, Note_on_c, 0, 79, 100
1, 163200, Note_on_c, 0, 71, 100
1, 163237, Note_on_c, 0, 79, 0
1, 163260, Note_on_c, 0, 79, 100
1, 163260, Note_on_c, 0, 76, 100
1, 163263, Note_on_c, 0, 83, 0
1, 163263, Note_on_c, 0, 71, 0
1, 163266, Note_on_c, 0, 64, 0
1, 163283, Note_on_c, 0, 52, 0
1, 163289, Note_on_c, 0, 79, 0
1, 163289, Note_on_c, 0, 76, 0
1, 163301, Control_c, 0, 64, 0
1, 163320, Note_on_c, 0, 43, 100
1, 163320, Note_on_c, 0, 55, 100
1, 163381, Note_on_c, 0, 43, 0
1, 163395, Note_on_c, 0, 55, 0
1, 163440, Note_on_c, 0, 57, 100
1, 163440, Note_on_c, 0, 45, 100
1, 163440, Note_on_c, 0, 67, 100
1, 163440, Note_on_c, 0, 79, 100
1, 163440, Note_on_c, 0, 76, 100
1, 163474, Note_on_c, 0, 76, 0
1, 163493, Control_c, 0, 64, 127
1, 163500, Note_on_c, 0, 76, 100
1, 163500, Note_on_c, 0, 73, 100
1, 163502, Note_on_c, 0, 67, 0
1, 163502, Note_on_c, 0, 79, 0
1, 163509, Note_on_c, 0, 45, 0
1, 163524, Note_on_c, 0, 57, 0
1, 163524, Note_on_c, 0, 76, 0
1, 163532, Note_on_c, 0, 73, 0
1, 163560, Note_on_c, 0, 47, 100
1, 163560, Note_on_c, 0, 59, 100
1, 163616, Note_on_c, 0, 47, 0
1, 163621, Note_on_c, 0, 59, 0
1, 163680, Note_on_c, 0, 49, 100
1, 163680, Note_on_c, 0, 61, 100
1, 163680, Note_on_c, 0, 64, 100
1, 163680, Note_on_c, 0, 73, 100
1, 163680, Note_on_c, 0, 76, 100
1, 163717, Note_on_c, 0, 61, 0
1, 163726, Note_on_c, 0, 49, 0
1, 163733, Note_on_c, 0, 64, 0
1, 163740, Note_on_c, 0, 67, 100
1, 163741, Note_on_c, 0, 76, 0
1, 163750, Note_on_c, 0, 73, 0
1, 163756, Note_on_c, 0, 67, 0
1, 163800, Note_on_c, 0, 33, 100
1, 163800, Note_on_c, 0, 45, 100
1, 163851, Control_c, 0, 64, 0
1, 163856, Note_on_c, 0, 33, 0
1, 163864, Note_on_c, 0, 45, 0
1, 163920, Note_on_c, 0, 46, 100
1, 163920, Note_on_c, 0, 34, 100
1, 163920, Note_on_c, 0, 76, 100
1, 163920, Note_on_c, 0, 79, 100
1, 163920, Note_on_c, 0, 67, 100
1, 163955, Note_on_c, 0, 34, 0
1, 163967, Note_on_c, 0, 46, 0
1, 163979, Note_on_c, 0, 76, 0
1, 163980, Note_on_c, 0, 73, 100
1, 164032, Control_c, 0, 64, 127
1, 164040, Note_on_c, 0, 46, 100
1, 164040, Note_on_c, 0, 58, 100
1, 164087, Note_on_c, 0, 46, 0
1, 164095, Note_on_c, 0, 73, 0
1, 164097, Note_on_c, 0, 58, 0
1, 164160, Note_on_c, 0, 61, 100
1, 164160, Note_on_c, 0, 49, 100
1, 164160, Note_on_c, 0, 76, 100
1, 164193, Note_on_c, 0, 61, 0
1, 164202, Note_on_c, 0, 49, 0
1, 164202, Note_on_c, 0, 76, 0
1, 164214, Note_on_c, 0, 67, 0
1, 164218, Note_on_c, 0, 79, 0
1, 164220, Note_on_c, 0, 73, 100
1, 164233, Note_on_c, 0, 73, 0
1, 164280, Note_on_c, 0, 46, 100
1, 164280, Note_on_c, 0, 66, 100
1, 164280, Note_on_c, 0, 73, 100
1, 164280, Note_on_c, 0, 34, 100
1, 164280, Note_on_c, 0, 78, 100
1, 164302, Control_c, 0, 64, 0
1, 164351, Note_on_c, 0, 73, 0
1, 164353, Note_on_c, 0, 34, 0
1, 164353, Note_on_c, 0, 78, 0
1, 164360, Note_on_c, 0, 66, 0
1, 164363, Note_on_c, 0, 46, 0
1, 164400, Note_on_c, 0, 66, 100
1, 164400, Note_on_c, 0, 78, 100
1, 164400, Note_on_c, 0, 74, 100
1, 164400, Note_on_c, 0, 35, 100
1, 164400, Note_on_c, 0, 47, 100
1, 164434, Note_on_c, 0, 35, 0
1, 164446, Note_on_c, 0, 47, 0
1, 164456, Control_c, 0, 64, 127
1, 164460, Note_on_c, 0, 71, 100
1, 164460, Note_on_c, 0, 47, 100
1, 164469, Note_on_c, 0, 74, 0
1, 164479, Note_on_c, 0, 71, 0
1, 164491, Note_on_c, 0, 47, 0
1, 164520, Note_on_c, 0, 59, 100
1, 164561, Note_on_c, 0, 59, 0
1, 164564, Note_on_c, 0, 78, 0
1, 164585, Note_on_c, 0, 66, 0
1, 164640, Note_on_c, 0, 66, 100
1, 164640, Note_on_c, 0, 78, 100
1, 164640, Note_on_c, 0, 62, 100
1, 164640, Note_on_c, 0, 50, 100
1, 164640, Note_on_c, 0, 74, 100
1, 164660, Note_on_c, 0, 62, 0
1, 164667, Note_on_c, 0, 50, 0
1, 164700, Note_on_c, 0, 71, 100
1, 164700, Note_on_c, 0, 74, 0
1, 164727, Note_on_c, 0, 71, 0
1, 164760, Note_on_c, 0, 47, 100
1, 164760, Note_on_c, 0, 35, 100
1, 164795, Note_on_c, 0, 66, 0
1, 164800, Note_on_c, 0, 78, 0
1, 164806, Note_on_c, 0, 35, 0
1, 164811, Control_c, 0, 64, 0
1, 164825, Note_on_c, 0, 47, 0
1, 164880, Note_on_c, 0, 80, 100
1, 164880, Note_on_c, 0, 81, 100
1, 164880, Note_on_c, 0, 78, 100
1, 164880, Note_on_c, 0, 69, 100
1, 164880, Note_on_c, 0, 48, 100
1, 164880, Note_on_c, 0, 36, 100
1, 164899, Note_on_c, 0, 80, 0
1, 164917, Note_on_c, 0, 36, 0
1, 164931, Note_on_c, 0, 48, 0
1, 164934, Note_on_c, 0, 78, 0
1, 164940, Note_on_c, 0, 75, 100
1, 164968, Control_c, 0, 64, 127
1, 164970, Note_on_c, 0, 75, 0
1, 165000, Note_on_c, 0, 48, 100
1, 165000, Note_on_c, 0, 60, 100
1, 165041, Note_on_c, 0, 48, 0
1, 165052, Note_on_c, 0, 60, 0
1, 165120, Note_on_c, 0, 63, 100
1, 165120, Note_on_c, 0, 51, 100
1, 165120, Note_on_c, 0, 78, 100
1, 165146, Note_on_c, 0, 63, 0
1, 165156, Note_on_c, 0, 51, 0
1, 165170, Note_on_c, 0, 78, 0
1, 165180, Note_on_c, 0, 75, 100
1, 165182, Note_on_c, 0, 81, 0
1, 165185, Note_on_c, 0, 69, 0
1, 165191, Note_on_c, 0, 75, 0
1, 165240, Note_on_c, 0, 68, 100
1, 165240, Note_on_c, 0, 75, 100
1, 165240, Note_on_c, 0, 80, 100
1, 165240, Note_on_c, 0, 36, 100
1, 165240, Note_on_c, 0, 48, 100
1, 165299, Note_on_c, 0, 36, 0
1, 165299, Note_on_c, 0, 48, 0
1, 165305, Control_c, 0, 64, 0
1, 165309, Note_on_c, 0, 75, 0
1, 165314, Note_on_c, 0, 68, 0
1, 165314, Note_on_c, 0, 80, 0
1, 165360, Note_on_c, 0, 37, 100
1, 165360, Note_on_c, 0, 49, 100
1, 165360, Note_on_c, 0, 68, 100
1, 165360, Note_on_c, 0, 80, 100
1, 165360, Note_on_c, 0, 77, 100
1, 165407, Note_on_c, 0, 37, 0
1, 165416, Note_on_c, 0, 49, 0
1, 165420, Note_on_c, 0, 73, 100
1, 165423, Note_on_c, 0, 77, 0
1, 165452, Control_c, 0, 64, 127
1, 165480, Note_on_c, 0, 49, 100
1, 165480, Note_on_c, 0, 61, 100
1, 165517, Note_on_c, 0, 49, 0
1, 165525, Note_on_c, 0, 61, 0
1, 165558, Note_on_c, 0, 80, 0
1, 165560, Note_on_c, 0, 73, 0
1, 165566, Note_on_c, 0, 68, 0
1, 165600, Note_on_c, 0, 65, 100
1, 165600, Note_on_c, 0, 80, 100
1, 165600, Note_on_c, 0, 68, 100
1, 165600, Note_on_c, 0, 53, 100
1, 165600, Note_on_c, 0, 77, 100
1, 165642, Note_on_c, 0, 65, 0
1, 165650, Note_on_c, 0, 53, 0
1, 165660, Note_on_c, 0, 73, 100
1, 165664, Note_on_c, 0, 77, 0
1, 165720, Note_on_c, 0, 37, 100
1, 165720, Note_on_c, 0, 49, 100
1, 165777, Note_on_c, 0, 68, 0
1, 165781, Note_on_c, 0, 73, 0
1, 165781, Note_on_c, 0, 49, 0
1, 165784, Note_on_c, 0, 80, 0
1, 165795, Note_on_c, 0, 37, 0
1, 165820, Control_c, 0, 64, 0
1, 165840, Note_on_c, 0, 37, 100
1, 165840, Note_on_c, 0, 83, 100
1, 165840, Note_on_c, 0, 49, 100
1, 165840, Note_on_c, 0, 79, 100
1, 165840, Note_on_c, 0, 71, 100
1, 165883, Note_on_c, 0, 37, 0
1, 165892, Note_on_c, 0, 49, 0
1, 165900, Note_on_c, 0, 76, 100
1, 165913, Note_on_c, 0, 79, 0
1, 165957, Control_c, 0, 64, 127
1, 165960, Note_on_c, 0, 61, 100
1, 165960, Note_on_c, 0, 49, 100
1, 166002, Note_on_c, 0, 49, 0
1, 166011, Note_on_c, 0, 61, 0
1, 166080, Note_on_c, 0, 52, 100
1, 166080, Note_on_c, 0, 64, 100
1, 166080, Note_on_c, 0, 79, 100
1, 166089, Note_on_c, 0, 76, 0
1, 166120, Note_on_c, 0, 64, 0
1, 166131, Note_on_c, 0, 52, 0
1, 166140, Note_on_c, 0, 76, 100
1, 166149, Note_on_c, 0, 79, 0
1, 166200, Note_on_c, 0, 49, 100
1, 166200, Note_on_c, 0, 37, 100
1, 166200, Note_on_c, 0, 82, 100
1, 166200, Note_on_c, 0, 70, 100
1, 166200, Note_on_c, 0, 83, 0
1, 166200, Note_on_c, 0, 71, 0
1, 166218, Note_on_c, 0, 76, 0
1, 166268, Note_on_c, 0, 70, 0
1, 166271, Note_on_c, 0, 37, 0
1, 166271, Note_on_c, 0, 82, 0
1, 166274, Note_on_c, 0, 49, 0
1, 166300, Control_c, 0, 64, 0
1, 166320, Note_on_c, 0, 85, 100
1, 166320, Note_on_c, 0, 38, 100
1, 166351, Note_on_c, 0, 38, 0
1, 166380, Note_on_c, 0, 78, 100
1, 166380, Note_on_c, 0, 50, 100
1, 166380, Note_on_c, 0, 73, 100
1, 166424, Note_on_c, 0, 50, 0
1, 166440, Note_on_c, 0, 62, 100
1, 166440, Note_on_c, 0, 50, 100
1, 166446, Control_c, 0, 64, 127
1, 166473, Note_on_c, 0, 50, 0
1, 166482, Note_on_c, 0, 62, 0
1, 166560, Note_on_c, 0, 66, 100
1, 166560, Note_on_c, 0, 54, 100
1, 166560, Note_on_c, 0, 80, 100
1, 166575, Note_on_c, 0, 78, 0
1, 166591, Note_on_c, 0, 66, 0
1, 166604, Note_on_c, 0, 54, 0
1, 166619, Note_on_c, 0, 80, 0
1, 166620, Note_on_c, 0, 78, 100
1, 166631, Note_on_c, 0, 85, 0
1, 166638, Note_on_c, 0, 73, 0
1, 166641, Note_on_c, 0, 78, 0
1, 166680, Note_on_c, 0, 78, 100
1, 166680, Note_on_c, 0, 83, 100
1, 166680, Note_on_c, 0, 71, 100
1, 166680, Note_on_c, 0, 51, 100
1, 166680, Note_on_c, 0, 39, 100
1, 166725, Note_on_c, 0, 71, 0
1, 166732, Note_on_c, 0, 78, 0
1, 166732, Note_on_c, 0, 83, 0
1, 166740, Note_on_c, 0, 39, 0
1, 166749, Note_on_c, 0, 51, 0
1, 166770, Control_c, 0, 64, 0
1, 166800, Note_on_c, 0, 83, 100
1, 166800, Note_on_c, 0, 74, 100
1, 166800, Note_on_c, 0, 86, 100
1, 166800, Note_on_c, 0, 40, 100
1, 166800, Note_on_c, 0, 52, 100
1, 166832, Note_on_c, 0, 40, 0
1, 166842, Note_on_c, 0, 52, 0
1, 166860, Note_on_c, 0, 80, 100
1, 166868, Note_on_c, 0, 83, 0
1, 166920, Note_on_c, 0, 64, 100
1, 166920, Note_on_c, 0, 52, 100
1, 166949, Control_c, 0, 64, 127
1, 166958, Note_on_c, 0, 52, 0
1, 166968, Note_on_c, 0, 64, 0
1, 167004, Note_on_c, 0, 74, 0
1, 167015, Note_on_c, 0, 80, 0
1, 167040, Note_on_c, 0, 74, 100
1, 167040, Note_on_c, 0, 56, 100
1, 167040, Note_on_c, 0, 83, 100
1, 167040, Note_on_c, 0, 68, 100
1, 167084, Note_on_c, 0, 68, 0
1, 167095, Note_on_c, 0, 56, 0
1, 167100, Note_on_c, 0, 80, 100
1, 167103, Note_on_c, 0, 83, 0
1, 167116, Note_on_c, 0, 80, 0
1, 167128, Note_on_c, 0, 86, 0
1, 167134, Note_on_c, 0, 74, 0
1, 167160, Note_on_c, 0, 85, 100
1, 167160, Note_on_c, 0, 80, 100
1, 167160, Note_on_c, 0, 73, 100
1, 167160, Note_on_c, 0, 53, 100
1, 167160, Note_on_c, 0, 41, 100
1, 167197, Control_c, 0, 64, 0
1, 167219, Note_on_c, 0, 80, 0
1, 167219, Note_on_c, 0, 41, 0
1, 167224, Note_on_c, 0, 53, 0
1, 167229, Note_on_c, 0, 73, 0
1, 167232, Note_on_c, 0, 85, 0
1, 167280, Note_on_c, 0, 85, 100
1, 167280, Note_on_c, 0, 88, 100
1, 167280, Note_on_c, 0, 42, 100
1, 167280, Note_on_c, 0, 54, 100
1, 167280, Note_on_c, 0, 76, 100
1, 167336, Note_on_c, 0, 42, 0
1, 167340, Note_on_c, 0, 81, 100
1, 167343, Note_on_c, 0, 54, 0
1, 167377, Note_on_c, 0, 85, 0
1, 167400, Note_on_c, 0, 66, 100
1, 167400, Note_on_c, 0, 54, 100
1, 167436, Note_on_c, 0, 54, 0
1, 167446, Control_c, 0, 64, 127
1, 167448, Note_on_c, 0, 66, 0
1, 167510, Note_on_c, 0, 88, 0
1, 167520, Note_on_c, 0, 85, 100
1, 167520, Note_on_c, 0, 57, 100
1, 167520, Note_on_c, 0, 69, 100
1, 167520, Note_on_c, 0, 76, 100
1, 167530, Note_on_c, 0, 76, 0
1, 167536, Note_on_c, 0, 81, 0
1, 167556, Note_on_c, 0, 69, 0
1, 167570, Note_on_c, 0, 57, 0
1, 167580, Note_on_c, 0, 81, 100
1, 167585, Note_on_c, 0, 85, 0
1, 167589, Note_on_c, 0, 76, 0
1, 167602, Note_on_c, 0, 81, 0
1, 167640, Note_on_c, 0, 54, 100
1, 167640, Note_on_c, 0, 42, 100
1, 167640, Note_on_c, 0, 86, 100
1, 167640, Note_on_c, 0, 81, 100
1, 167640, Note_on_c, 0, 74, 100
1, 167700, Note_on_c, 0, 86, 0
1, 167700, Note_on_c, 0, 74, 0
1, 167712, Note_on_c, 0, 81, 0
1, 167726, Note_on_c, 0, 54, 0
1, 167726, Note_on_c, 0, 42, 0
1, 167760, Note_on_c, 0, 44, 100
1, 167760, Note_on_c, 0, 56, 100
1, 167760, Note_on_c, 0, 78, 100
1, 167760, Note_on_c, 0, 90, 100
1, 167760, Note_on_c, 0, 86, 100
1, 167766, Control_c, 0, 64, 0
1, 167820, Note_on_c, 0, 83, 100
1, 167833, Note_on_c, 0, 86, 0
1, 167843, Note_on_c, 0, 44, 0
1, 167851, Note_on_c, 0, 56, 0
1, 167880, Note_on_c, 0, 68, 100
1, 167880, Note_on_c, 0, 56, 100
1, 167920, Note_on_c, 0, 56, 0
1, 167933, Control_c, 0, 64, 127
1, 167935, Note_on_c, 0, 68, 0
1, 167960, Note_on_c, 0, 83, 0
1, 168000, Note_on_c, 0, 86, 100
1, 168000, Note_on_c, 0, 71, 100
1, 168000, Note_on_c, 0, 59, 100
1, 168030, Note_on_c, 0, 71, 0
1, 168037, Note_on_c, 0, 59, 0
1, 168056, Note_on_c, 0, 86, 0
1, 168060, Note_on_c, 0, 83, 100
1, 168087, Note_on_c, 0, 83, 0
1, 168120, Note_on_c, 0, 56, 100
1, 168120, Note_on_c, 0, 44, 100
1, 168120, Note_on_c, 0, 88, 100
1, 168120, Note_on_c, 0, 76, 100
1, 168120, Note_on_c, 0, 83, 100
1, 168120, Note_on_c, 0, 78, 0
1, 168120, Note_on_c, 0, 90, 0
1, 168240, Note_on_c, 0, 59, 100
1, 168240, Note_on_c, 0, 47, 100
1, 168244, Control_c, 0, 64, 0
1, 168278, Note_on_c, 0, 44, 0
1, 168317, Note_on_c, 0, 47, 0
1, 168325, Note_on_c, 0, 56, 0
1, 168344, Note_on_c, 0, 59, 0
1, 168360, Note_on_c, 0, 86, 100
1, 168360, Note_on_c, 0, 52, 100
1, 168360, Note_on_c, 0, 74, 100
1, 168360, Note_on_c, 0, 64, 100
1, 168420, Note_on_c, 0, 86, 0
1, 168439, Control_c, 0, 64, 127
1, 168445, Note_on_c, 0, 74, 0
1, 168460, Note_on_c, 0, 64, 0
1, 168464, Note_on_c, 0, 52, 0
1, 168480, Note_on_c, 0, 56, 100
1, 168480, Note_on_c, 0, 83, 100
1, 168480, Note_on_c, 0, 71, 100
1, 168480, Note_on_c, 0, 59, 100
1, 168480, Note_on_c, 0, 64, 100
1, 168580, Note_on_c, 0, 56, 0
1, 168598, Note_on_c, 0, 88, 0
1, 168600, Note_on_c, 0, 68, 100
1, 168600, Note_on_c, 0, 56, 100
1, 168600, Note_on_c, 0, 88, 100
1, 168600, Note_on_c, 0, 76, 100
1, 168619, Note_on_c, 0, 83, 0
1, 168625, Note_on_c, 0, 64, 0
1, 168631, Note_on_c, 0, 76, 0
1, 168635, Note_on_c, 0, 83, 0
1, 168637, Note_on_c, 0, 71, 0
1, 168701, Note_on_c, 0, 76, 0
1, 168720, Note_on_c, 0, 81, 100
1, 168720, Note_on_c, 0, 57, 100
1, 168720, Note_on_c, 0, 69, 100
1, 168720, Note_on_c, 0, 88, 100
1, 168720, Note_on_c, 0, 73, 100
1, 168720, Control_c, 0, 64, 0
1, 168746, Note_on_c, 0, 88, 0
1, 168787, Note_on_c, 0, 59, 0
1, 168787, Note_on_c, 0, 56, 0
1, 168834, Note_on_c, 0, 68, 0
1, 168840, Note_on_c, 0, 64, 100
1, 168840, Note_on_c, 0, 52, 100
1, 168840, Note_on_c, 0, 86, 100
1, 168868, Note_on_c, 0, 88, 0
1, 168874, Note_on_c, 0, 69, 0
1, 168890, Note_on_c, 0, 86, 0
1, 168895, Note_on_c, 0, 73, 0
1, 168900, Note_on_c, 0, 85, 100
1, 168911, Note_on_c, 0, 57, 0
1, 168960, Note_on_c, 0, 76, 100
1, 168960, Note_on_c, 0, 83, 100
1, 168960, Note_on_c, 0, 49, 100
1, 168960, Note_on_c, 0, 67, 100
1, 168960, Note_on_c, 0, 69, 100
1, 168960, Note_on_c, 0, 61, 100
1, 168963, Note_on_c, 0, 85, 0
1, 169041, Note_on_c, 0, 64, 0
1, 169044, Note_on_c, 0, 52, 0
1, 169080, Note_on_c, 0, 81, 100
1, 169080, Note_on_c, 0, 45, 100
1, 169080, Note_on_c, 0, 57, 100
1, 169140, Note_on_c, 0, 79, 100
1, 169142, Note_on_c, 0, 83, 0
1, 169146, Note_on_c, 0, 61, 0
1, 169166, Note_on_c, 0, 49, 0
1, 169172, Note_on_c, 0, 79, 0
1, 169200, Note_on_c, 0, 62, 100
1, 169200, Note_on_c, 0, 50, 100
1, 169200, Note_on_c, 0, 78, 100
1, 169200, Note_on_c, 0, 74, 100
1, 169200, Note_on_c, 0, 69, 100
1, 169212, Note_on_c, 0, 45, 0
1, 169232, Note_on_c, 0, 57, 0
1, 169289, Note_on_c, 0, 81, 0
1, 169320, Note_on_c, 0, 66, 100
1, 169320, Note_on_c, 0, 79, 100
1, 169320, Note_on_c, 0, 54, 100
1, 169368, Note_on_c, 0, 81, 0
1, 169376, Note_on_c, 0, 50, 0
1, 169378, Note_on_c, 0, 74, 0
1, 169380, Note_on_c, 0, 81, 100
1, 169406, Note_on_c, 0, 62, 0
1, 169420, Note_on_c, 0, 78, 0
1, 169420, Note_on_c, 0, 69, 0
1, 169429, Note_on_c, 0, 81, 0
1, 169440, Note_on_c, 0, 71, 100
1, 169440, Note_on_c, 0, 50, 100
1, 169440, Note_on_c, 0, 78, 100
1, 169440, Note_on_c, 0, 62, 100
1, 169440, Note_on_c, 0, 83, 100
1, 169515, Note_on_c, 0, 66, 0
1, 169535, Note_on_c, 0, 79, 0
1, 169540, Note_on_c, 0, 54, 0
1, 169550, Note_on_c, 0, 67, 0
1, 169554, Note_on_c, 0, 69, 0
1, 169560, Note_on_c, 0, 85, 100
1, 169560, Note_on_c, 0, 47, 100
1, 169560, Note_on_c, 0, 59, 100
1, 169571, Note_on_c, 0, 76, 0
1, 169576, Note_on_c, 0, 71, 0
1, 169589, Note_on_c, 0, 78, 0
1, 169589, Note_on_c, 0, 83, 0
1, 169611, Note_on_c, 0, 62, 0
1, 169620, Note_on_c, 0, 86, 100
1, 169626, Note_on_c, 0, 50, 0
1, 169672, Note_on_c, 0, 86, 0
1, 169680, Note_on_c, 0, 61, 100
1, 169680, Note_on_c, 0, 49, 100
1, 169680, Note_on_c, 0, 93, 100
1, 169680, Note_on_c, 0, 81, 100
1, 169753, Note_on_c, 0, 47, 0
1, 169756, Note_on_c, 0, 93, 0
1, 169770, Note_on_c, 0, 85, 0
1, 169772, Note_on_c, 0, 59, 0
1, 169800, Note_on_c, 0, 78, 100
1, 169800, Note_on_c, 0, 57, 100
1, 169800, Note_on_c, 0, 45, 100
1, 169850, Note_on_c, 0, 81, 0
1, 169860, Note_on_c, 0, 80, 100
1, 169881, Note_on_c, 0, 61, 0
1, 169900, Note_on_c, 0, 49, 0
1, 169920, Note_on_c, 0, 93, 100
1, 169920, Note_on_c, 0, 55, 100
1, 169920, Note_on_c, 0, 81, 100
1, 169920, Note_on_c, 0, 43, 100
1, 169920, Note_on_c, 0, 90, 100
1, 169942, Note_on_c, 0, 90, 0
1, 169957, Note_on_c, 0, 93, 0
1, 169960, Note_on_c, 0, 80, 0
1, 169980, Note_on_c, 0, 78, 0
1, 170038, Note_on_c, 0, 81, 0
1, 170040, Note_on_c, 0, 54, 100
1, 170040, Note_on_c, 0, 42, 100
1, 170040, Note_on_c, 0, 95, 100
1, 170069, Note_on_c, 0, 57, 0
1, 170080, Note_on_c, 0, 55, 0
1, 170082, Note_on_c, 0, 45, 0
1, 170096, Note_on_c, 0, 43, 0
1, 170100, Note_on_c, 0, 97, 100
1, 170160, Note_on_c, 0, 54, 100
1, 170160, Note_on_c, 0, 42, 100
1, 170160, Note_on_c, 0, 98, 100
1, 170160, Note_on_c, 0, 86, 100
1, 170185, Note_on_c, 0, 97, 0
1, 170262, Note_on_c, 0, 95, 0
1, 170272, Note_on_c, 0, 54, 0
1, 170280, Note_on_c, 0, 87, 100
1, 170280, Note_on_c, 0, 99, 100
1, 170280, Note_on_c, 0, 53, 100
1, 170280, Note_on_c, 0, 41, 100
1, 170315, Note_on_c, 0, 86, 0
1, 170360, Note_on_c, 0, 42, 0
1, 170361, Control_c, 0, 64, 127
1, 170373, Note_on_c, 0, 54, 0
1, 170376, Note_on_c, 0, 98, 0
1, 170400, Note_on_c, 0, 100, 100
1, 170400, Note_on_c, 0, 88, 100
1, 170400, Note_on_c, 0, 52, 100
1, 170400, Note_on_c, 0, 40, 100
1, 170400, Note_on_c, 0, 53, 100
1, 170418, Note_on_c, 0, 42, 0
1, 170453, Note_on_c, 0, 53, 0
1, 170460, Note_on_c, 0, 41, 0
1, 170466, Note_on_c, 0, 100, 0
1, 170493, Note_on_c, 0, 53, 0
1, 170500, Note_on_c, 0, 88, 0
1, 170520, Note_on_c, 0, 80, 100
1, 170520, Note_on_c, 0, 52, 100
1, 170520, Note_on_c, 0, 40, 100
1, 170520, Note_on_c, 0, 92, 100
1, 170547, Note_on_c, 0, 87, 0
1, 170563, Note_on_c, 0, 99, 0
1, 170620, Note_on_c, 0, 80, 0
1, 170627, Note_on_c, 0, 40, 0
1, 170640, Note_on_c, 0, 57, 127
1, 170640, Note_on_c, 0, 45, 127
1, 170640, Note_on_c, 0, 93, 127
1, 170640, Note_on_c, 0, 81, 127
1, 170671, Note_on_c, 0, 52, 0
1, 170685, Control_c, 0, 64, 0
1, 170690, Note_on_c, 0, 93, 0
1, 170700, Note_on_c, 0, 40, 0
1, 170728, Note_on_c, 0, 81, 0
1, 170751, Note_on_c, 0, 52, 0
1, 170760, Note_on_c, 0, 69, 127
1, 170784, Note_on_c, 0, 92, 0
1, 170819, Note_on_c, 0, 69, 0
1, 170820, Note_on_c, 0, 71, 127
1, 170879, Note_on_c, 0, 71, 0
1, 170880, Note_on_c, 0, 73, 127
1, 170880, Note_on_c, 0, 61, 127
1, 170984, Note_on_c, 0, 61, 0
1, 171000, Note_on_c, 0, 61, 127
1, 171059, Note_on_c, 0, 73, 0
1, 171060, Note_on_c, 0, 74, 127
1, 171104, Note_on_c, 0, 61, 0
1, 171110, Note_on_c, 0, 45, 0
1, 171120, Note_on_c, 0, 76, 127
1, 171120, Note_on_c, 0, 64, 127
1, 171120, Note_on_c, 0, 52, 127
1, 171120, Note_on_c, 0, 40, 127
1, 171210, Note_on_c, 0, 64, 0
1, 171234, Note_on_c, 0, 74, 0
1, 171240, Note_on_c, 0, 76, 127
1, 171261, Note_on_c, 0, 76, 0
1, 171300, Note_on_c, 0, 78, 127
1, 171301, Control_c, 0, 64, 127
1, 171326, Note_on_c, 0, 78, 0
1, 171360, Note_on_c, 0, 68, 127
1, 171360, Note_on_c, 0, 80, 127
1, 171360, Note_on_c, 0, 52, 127
1, 171360, Note_on_c, 0, 40, 127
1, 171444, Note_on_c, 0, 68, 0
1, 171480, Note_on_c, 0, 88, 127
1, 171491, Note_on_c, 0, 80, 0
1, 171520, Note_on_c, 0, 90, 127
1, 171530, Note_on_c, 0, 40, 0
1, 171559, Note_on_c, 0, 52, 0
1, 171560, Note_on_c, 0, 92, 127
1, 171600, Note_on_c, 0, 81, 127
1, 171600, Note_on_c, 0, 93, 127
1, 171600, Note_on_c, 0, 45, 127
1, 171600, Note_on_c, 0, 33, 127
1, 171606, Note_on_c, 0, 57, 0
1, 171623, Note_on_c, 0, 88, 0
1, 171623, Note_on_c, 0, 90, 0
1, 171650, Note_on_c, 0, 76, 0
1, 171683, Note_on_c, 0, 92, 0
1, 171710, Note_on_c, 0, 93, 0
1, 171720, Note_on_c, 0, 57, 127
1, 171729, Control_c, 0, 64, 0
1, 171735, Note_on_c, 0, 81, 0
1, 171780, Note_on_c, 0, 59, 127
1, 171826, Note_on_c, 0, 57, 0
1, 171836, Note_on_c, 0, 40, 0
1, 171840, Note_on_c, 0, 61, 127
1, 171840, Note_on_c, 0, 49, 127
1, 171852, Note_on_c, 0, 59, 0
1, 171867, Note_on_c, 0, 52, 0
1, 171947, Note_on_c, 0, 33, 0
1, 171950, Note_on_c, 0, 61, 0
1, 171960, Note_on_c, 0, 61, 127
1, 171997, Note_on_c, 0, 45, 0
1, 172020, Note_on_c, 0, 62, 127
1, 172053, Note_on_c, 0, 62, 0
1, 172080, Note_on_c, 0, 52, 127
1, 172080, Note_on_c, 0, 64, 127
1, 172080, Note_on_c, 0, 88, 127
1, 172080, Note_on_c, 0, 76, 127
1, 172091, Note_on_c, 0, 61, 0
1, 172102, Note_on_c, 0, 49, 0
1, 172200, Note_on_c, 0, 64, 127
1, 172219, Note_on_c, 0, 52, 0
1, 172260, Note_on_c, 0, 66, 127
1, 172269, Note_on_c, 0, 64, 0
1, 172305, Note_on_c, 0, 66, 0
1, 172320, Note_on_c, 0, 88, 127
1, 172320, Note_on_c, 0, 76, 127
1, 172320, Note_on_c, 0, 56, 127
1, 172320, Note_on_c, 0, 68, 127
1, 172343, Note_on_c, 0, 64, 0
1, 172423, Note_on_c, 0, 88, 0
1, 172432, Note_on_c, 0, 56, 0
1, 172440, Note_on_c, 0, 64, 127
1, 172480, Note_on_c, 0, 66, 127
1, 172514, Note_on_c, 0, 88, 0
1, 172514, Note_on_c, 0, 68, 0
1, 172520, Tempo, 750000
1, 172520, Note_on_c, 0, 68, 127
1, 172541, Note_on_c, 0, 76, 0
1, 172560, Note_on_c, 0, 76, 60
1, 172560, Note_on_c, 0, 61, 60
1, 172560, Note_on_c, 0, 64, 60
1, 172561, Note_on_c, 0, 76, 0
1, 172568, Note_on_c, 0, 68, 0
1, 172576, Note_on_c, 0, 64, 0
1, 172582, Note_on_c, 0, 66, 0
1, 172679, Note_on_c, 0, 76, 0
1, 172680, Note_on_c, 0, 73, 60
1, 172799, Note_on_c, 0, 64, 0
1, 172799, Note_on_c, 0, 73, 0
1, 172800, Note_on_c, 0, 69, 60
1, 172910, Note_on_c, 0, 61, 0
1, 172920, Note_on_c, 0, 63, 60
1, 172920, Note_on_c, 0, 71, 60
1, 173039, Note_on_c, 0, 69, 0
1, 173039, Note_on_c, 0, 63, 0
1, 173039, Note_on_c, 0, 71, 0
1, 173040, Note_on_c, 0, 64, 60
1, 173040, Note_on_c, 0, 73, 60
1, 173279, Note_on_c, 0, 73, 0
1, 173280, Note_on_c, 0, 68, 60
1, 173280, Note_on_c, 0, 71, 60
1, 173399, Note_on_c, 0, 68, 0
1, 173400, Note_on_c, 0, 67, 60
1, 173519, Note_on_c, 0, 67, 0
1, 173519, Note_on_c, 0, 71, 0
1, 173520, Note_on_c, 0, 70, 60
1, 173520, Note_on_c, 0, 78, 60
1, 173639, Note_on_c, 0, 70, 0
1, 173639, Note_on_c, 0, 78, 0
1, 173640, Note_on_c, 0, 66, 60
1, 173640, Note_on_c, 0, 74, 60
1, 173750, Note_on_c, 0, 64, 0
1, 173759, Note_on_c, 0, 66, 0
1, 173759, Note_on_c, 0, 74, 0
1, 173760, Note_on_c, 0, 62, 60
1, 173760, Note_on_c, 0, 71, 60
1, 173879, Note_on_c, 0, 62, 0
1, 173880, Note_on_c, 0, 73, 60
1, 173880, Note_on_c, 0, 64, 60
1, 173999, Note_on_c, 0, 73, 0
1, 173999, Note_on_c, 0, 71, 0
1, 173999, Note_on_c, 0, 64, 0
1, 174000, Note_on_c, 0, 74, 60
1, 174000, Note_on_c, 0, 71, 60
1, 174000, Note_on_c, 0, 66, 60
1, 174239, Note_on_c, 0, 74, 0
1, 174239, Note_on_c, 0, 71, 0
1, 174240, Note_on_c, 0, 70, 60
1, 174240, Note_on_c, 0, 73, 60
1, 174240, Note_on_c, 0, 54, 60
1, 174359, Note_on_c, 0, 70, 0
1, 174359, Note_on_c, 0, 73, 0
1, 174360, Note_on_c, 0, 70, 60
1, 174479, Note_on_c, 0, 66, 0
1, 174479, Note_on_c, 0, 54, 0
1, 174480, Tempo, 1000000
1, 174480, Note_on_c, 0, 58, 60
1, 174480, Note_on_c, 0, 54, 60
1, 174480, Note_on_c, 0, 63, 60
1, 174599, Note_on_c, 0, 70, 0
1, 174600, Note_on_c, 0, 66, 60
1, 174719, Note_on_c, 0, 63, 0
1, 174720, Note_on_c, 0, 63, 60
1, 174839, Note_on_c, 0, 58, 0
1, 174839, Note_on_c, 0, 54, 0
1, 174839, Note_on_c, 0, 63, 0
1, 174840, Note_on_c, 0, 65, 60
1, 174840, Note_on_c, 0, 56, 60
1, 174840, Note_on_c, 0, 59, 60
1, 174959, Note_on_c, 0, 65, 0
1, 174959, Note_on_c, 0, 56, 0
1, 174959, Note_on_c, 0, 59, 0
1, 174960, Note_on_c, 0, 66, 60
1, 174960, Note_on_c, 0, 58, 60
1, 174960, Note_on_c, 0, 63, 60
1, 175060, Note_on_c, 0, 66, 0
1, 175199, Note_on_c, 0, 66, 0
1, 175199, Note_on_c, 0, 58, 0
1, 175199, Note_on_c, 0, 63, 0
1, 175200, Note_on_c, 0, 65, 60
1, 175200, Note_on_c, 0, 56, 60
1, 175200, Note_on_c, 0, 62, 60
1, 175200, Note_on_c, 0, 59, 60
1, 175319, Note_on_c, 0, 65, 0
1, 175319, Note_on_c, 0, 56, 0
1, 175319, Note_on_c, 0, 62, 0
1, 175319, Note_on_c, 0, 59, 0
1, 175320, Tempo, 375000
1, 175320, Note_on_c, 0, 56, 100
1, 175320, Note_on_c, 0, 76, 100
1, 175320, Note_on_c, 0, 71, 100
1, 175320, Note_on_c, 0, 44, 100
1, 175320, Note_on_c, 0, 64, 100
1, 175320, Note_on_c, 0, 74, 100
1, 175439, Note_on_c, 0, 56, 0
1, 175439, Note_on_c, 0, 76, 0
1, 175439, Note_on_c, 0, 71, 0
1, 175439, Note_on_c, 0, 44, 0
1, 175439, Note_on_c, 0, 64, 0
1, 175439, Note_on_c, 0, 74, 0
1, 175440, Note_on_c, 0, 73, 100
1, 175440, Note_on_c, 0, 64, 100
1, 175440, Note_on_c, 0, 45, 100
1, 175440, Note_on_c, 0, 76, 100
1, 175440, Note_on_c, 0, 57, 100
1, 175558, Note_on_c, 0, 73, 0
1, 175558, Note_on_c, 0, 64, 0
1, 175558, Note_on_c, 0, 45, 0
1, 175558, Note_on_c, 0, 76, 0
1, 175558, Note_on_c, 0, 57, 0
1, 175560, Note_on_c, 0, 73, 100
1, 175560, Note_on_c, 0, 49, 100
1, 175560, Note_on_c, 0, 64, 100
1, 175560, Note_on_c, 0, 61, 100
1, 175560, Note_on_c, 0, 69, 100
1, 175678, Note_on_c, 0, 73, 0
1, 175678, Note_on_c, 0, 49, 0
1, 175678, Note_on_c, 0, 64, 0
1, 175678, Note_on_c, 0, 61, 0
1, 175678, Note_on_c, 0, 69, 0
1, 175680, Note_on_c, 0, 81, 100
1, 175680, Note_on_c, 0, 54, 100
1, 175680, Note_on_c, 0, 42, 100
1, 175680, Note_on_c, 0, 69, 100
1, 175798, Note_on_c, 0, 81, 0
1, 175798, Note_on_c, 0, 54, 0
1, 175798, Note_on_c, 0, 42, 0
1, 175798, Note_on_c, 0, 69, 0
1, 175800, Note_on_c, 0, 83, 100
1, 175800, Note_on_c, 0, 71, 100
1, 175800, Note_on_c, 0, 39, 100
1, 175800, Note_on_c, 0, 51, 100
1, 175800, Note_on_c, 0, 80, 100
1, 175918, Note_on_c, 0, 83, 0
1, 175918, Note_on_c, 0, 71, 0
1, 175918, Note_on_c, 0, 39, 0
1, 175918, Note_on_c, 0, 51, 0
1, 175918, Note_on_c, 0, 80, 0
1, 175920, Note_on_c, 0, 85, 100
1, 175920, Note_on_c, 0, 81, 100
1, 175920, Note_on_c, 0, 73, 100
1, 175920, Note_on_c, 0, 52, 100
1, 175920, Note_on_c, 0, 40, 100
1, 176038, Note_on_c, 0, 85, 0
1, 176038, Note_on_c, 0, 81, 0
1, 176038, Note_on_c, 0, 73, 0
1, 176038, Note_on_c, 0, 52, 0
1, 176038, Note_on_c, 0, 40, 0
1, 176160, Note_on_c, 0, 80, 100
1, 176160, Note_on_c, 0, 83, 100
1, 176160, Note_on_c, 0, 74, 100
1, 176160, Note_on_c, 0, 71, 100
1, 176160, Note_on_c, 0, 52, 100
1, 176160, Note_on_c, 0, 56, 100
1, 176160, Note_on_c, 0, 64, 100
1, 176160, Note_on_c, 0, 59, 100
1, 176278, Note_on_c, 0, 80, 0
1, 176278, Note_on_c, 0, 83, 0
1, 176278, Note_on_c, 0, 74, 0
1, 176278, Note_on_c, 0, 71, 0
1, 176278, Note_on_c, 0, 52, 0
1, 176278, Note_on_c, 0, 56, 0
1, 176278, Note_on_c, 0, 64, 0
1, 176278, Note_on_c, 0, 59, 0
1, 176510, Control_c, 0, 64, 127
1, 176640, Note_on_c, 0, 80, 100
1, 176640, Note_on_c, 0, 68, 100
1, 176640, Note_on_c, 0, 74, 100
1, 176640, Note_on_c, 0, 56, 100
1, 176640, Note_on_c, 0, 71, 100
1, 176640, Note_on_c, 0, 64, 100
1, 176640, Note_on_c, 0, 52, 100
1, 176640, Note_on_c, 0, 59, 100
1, 176759, Note_on_c, 0, 80, 0
1, 176759, Note_on_c, 0, 68, 0
1, 176759, Note_on_c, 0, 74, 0
1, 176759, Note_on_c, 0, 56, 0
1, 176759, Note_on_c, 0, 71, 0
1, 176759, Note_on_c, 0, 64, 0
1, 176759, Note_on_c, 0, 52, 0
1, 176759, Note_on_c, 0, 59, 0
1, 177120, Note_on_c, 0, 81, 100
1, 177120, Note_on_c, 0, 69, 100
1, 177120, Note_on_c, 0, 33, 100
1, 177120, Note_on_c, 0, 73, 100
1, 177120, Note_on_c, 0, 76, 100
1, 177180, Note_on_c, 0, 45, 100
1, 177239, Note_on_c, 0, 81, 0
1, 177239, Note_on_c, 0, 69, 0
1, 177239, Note_on_c, 0, 33, 0
1, 177239, Note_on_c, 0, 73, 0
1, 177239, Note_on_c, 0, 76, 0
1, 177239, Note_on_c, 0, 45, 0
1, 177240, Note_on_c, 0, 33, 100
1, 177299, Note_on_c, 0, 33, 0
1, 177300, Note_on_c, 0, 45, 100
1, 177302, Control_c, 0, 64, 0
1, 177359, Note_on_c, 0, 45, 0
1, 177360, Time_signature, 3, 2, 24, 8
1, 177360, Tempo, 208333
1, 177360, Note_on_c, 0, 33, 127
1, 177414, Control_c, 0, 64, 127
1, 177419, Note_on_c, 0, 33, 0
1, 177420, Note_on_c, 0, 45, 127
1, 177479, Note_on_c, 0, 45, 0
1, 177480, Note_on_c, 0, 33, 127
1, 177539, Note_on_c, 0, 33, 0
1, 177540, Note_on_c, 0, 45, 127
1, 177599, Note_on_c, 0, 45, 0
1, 177600, Note_on_c, 0, 33, 127
1, 177659, Note_on_c, 0, 33, 0
1, 177660, Note_on_c, 0, 45, 127
1, 177719, Note_on_c, 0, 45, 0
1, 177720, Note_on_c, 0, 33, 127
1, 177779, Note_on_c, 0, 33, 0
1, 177780, Note_on_c, 0, 45, 127
1, 177839, Note_on_c, 0, 45, 0
1, 177840, Note_on_c, 0, 70, 127
1, 177840, Note_on_c, 0, 82, 127
1, 177840, Note_on_c, 0, 73, 127
1, 177840, Note_on_c, 0, 76, 127
1, 177840, Note_on_c, 0, 79, 127
1, 177840, Note_on_c, 0, 57, 127
1, 177840, Note_on_c, 0, 69, 127
1, 177840, Note_on_c, 0, 65, 127
1, 177840, Note_on_c, 0, 62, 127
1, 178079, Note_on_c, 0, 57, 0
1, 178079, Note_on_c, 0, 69, 0
1, 178079, Note_on_c, 0, 65, 0
1, 178079, Note_on_c, 0, 62, 0
1, 178080, Note_on_c, 0, 33, 127
1, 178080, Note_on_c, 0, 29, 127
1, 178139, Note_on_c, 0, 33, 0
1, 178139, Note_on_c, 0, 29, 0
1, 178140, Note_on_c, 0, 41, 127
1, 178199, Note_on_c, 0, 41, 0
1, 178200, Note_on_c, 0, 29, 127
1, 178200, Note_on_c, 0, 33, 127
1, 178259, Note_on_c, 0, 29, 0
1, 178259, Note_on_c, 0, 33, 0
1, 178260, Note_on_c, 0, 41, 127
1, 178319, Note_on_c, 0, 41, 0
1, 178320, Note_on_c, 0, 33, 127
1, 178320, Note_on_c, 0, 29, 127
1, 178379, Note_on_c, 0, 33, 0
1, 178379, Note_on_c, 0, 29, 0
1, 178380, Note_on_c, 0, 41, 127
1, 178439, Note_on_c, 0, 70, 0
1, 178439, Note_on_c, 0, 82, 0
1, 178439, Note_on_c, 0, 73, 0
1, 178439, Note_on_c, 0, 76, 0
1, 178439, Note_on_c, 0, 79, 0
1, 178439, Note_on_c, 0, 41, 0
1, 178440, Note_on_c, 0, 29, 127
1, 178440, Note_on_c, 0, 81, 127
1, 178440, Note_on_c, 0, 33, 127
1, 178440, Note_on_c, 0, 69, 127
1, 178440, Note_on_c, 0, 77, 127
1, 178440, Note_on_c, 0, 74, 127
1, 178499, Note_on_c, 0, 29, 0
1, 178499, Note_on_c, 0, 81, 0
1, 178499, Note_on_c, 0, 33, 0
1, 178499, Note_on_c, 0, 69, 0
1, 178499, Note_on_c, 0, 77, 0
1, 178499, Note_on_c, 0, 74, 0
1, 178500, Note_on_c, 0, 41, 127
1, 178560, Note_on_c, 0, 33, 127
1, 178560, Note_on_c, 0, 81, 127
1, 178560, Note_on_c, 0, 29, 127
1, 178560, Note_on_c, 0, 69, 127
1, 178560, Note_on_c, 0, 77, 127
1, 178560, Note_on_c, 0, 74, 127
1, 178579, Note_on_c, 0, 41, 0
1, 178619, Note_on_c, 0, 33, 0
1, 178619, Note_on_c, 0, 81, 0
1, 178619, Note_on_c, 0, 29, 0
1, 178619, Note_on_c, 0, 69, 0
1, 178619, Note_on_c, 0, 77, 0
1, 178619, Note_on_c, 0, 74, 0
1, 178620, Note_on_c, 0, 41, 127
1, 178679, Note_on_c, 0, 41, 0
1, 178680, Note_on_c, 0, 33, 127
1, 178680, Note_on_c, 0, 74, 127
1, 178680, Note_on_c, 0, 86, 127
1, 178680, Note_on_c, 0, 29, 127
1, 178739, Note_on_c, 0, 33, 0
1, 178739, Note_on_c, 0, 74, 0
1, 178739, Note_on_c, 0, 86, 0
1, 178739, Note_on_c, 0, 29, 0
1, 178740, Note_on_c, 0, 41, 127
1, 178799, Note_on_c, 0, 41, 0
1, 178800, Note_on_c, 0, 29, 127
1, 178800, Note_on_c, 0, 74, 127
1, 178800, Note_on_c, 0, 86, 127
1, 178800, Note_on_c, 0, 33, 127
1, 178859, Note_on_c, 0, 29, 0
1, 178859, Note_on_c, 0, 74, 0
1, 178859, Note_on_c, 0, 86, 0
1, 178859, Note_on_c, 0, 33, 0
1, 178860, Note_on_c, 0, 41, 127
1, 178919, Note_on_c, 0, 41, 0
1, 178920, Note_on_c, 0, 33, 127
1, 178920, Note_on_c, 0, 89, 127
1, 178920, Note_on_c, 0, 77, 127
1, 178920, Note_on_c, 0, 29, 127
1, 178979, Note_on_c, 0, 33, 0
1, 178979, Note_on_c, 0, 89, 0
1, 178979, Note_on_c, 0, 77, 0
1, 178979, Note_on_c, 0, 29, 0
1, 178980, Note_on_c, 0, 41, 127
1, 179039, Note_on_c, 0, 41, 0
1, 179040, Note_on_c, 0, 89, 127
1, 179040, Note_on_c, 0, 33, 127
1, 179040, Note_on_c, 0, 77, 127
1, 179040, Note_on_c, 0, 29, 127
1, 179099, Note_on_c, 0, 89, 0
1, 179099, Note_on_c, 0, 33, 0
1, 179099, Note_on_c, 0, 77, 0
1, 179099, Note_on_c, 0, 29, 0
1, 179100, Note_on_c, 0, 41, 127
1, 179159, Note_on_c, 0, 41, 0
1, 179160, Note_on_c, 0, 33, 127
1, 179160, Note_on_c, 0, 29, 127
1, 179160, Note_on_c, 0, 81, 127
1, 179160, Note_on_c, 0, 93, 127
1, 179219, Note_on_c, 0, 33, 0
1, 179219, Note_on_c, 0, 29, 0
1, 179219, Note_on_c, 0, 81, 0
1, 179219, Note_on_c, 0, 93, 0
1, 179220, Note_on_c, 0, 41, 127
1, 179279, Note_on_c, 0, 41, 0
1, 179280, Note_on_c, 0, 93, 127
1, 179280, Note_on_c, 0, 33, 127
1, 179280, Note_on_c, 0, 29, 127
1, 179280, Note_on_c, 0, 81, 127
1, 179339, Note_on_c, 0, 93, 0
1, 179339, Note_on_c, 0, 33, 0
1, 179339, Note_on_c, 0, 29, 0
1, 179339, Note_on_c, 0, 81, 0
1, 179340, Note_on_c, 0, 41, 127
1, 179399, Note_on_c, 0, 41, 0
1, 179400, Note_on_c, 0, 33, 127
1, 179400, Note_on_c, 0, 74, 127
1, 179400, Note_on_c, 0, 86, 127
1, 179400, Note_on_c, 0, 29, 127
1, 179459, Note_on_c, 0, 33, 0
1, 179459, Note_on_c, 0, 74, 0
1, 179459, Note_on_c, 0, 86, 0
1, 179459, Note_on_c, 0, 29, 0
1, 179460, Note_on_c, 0, 41, 127
1, 179519, Note_on_c, 0, 41, 0
1, 179520, Note_on_c, 0, 74, 127
1, 179520, Note_on_c, 0, 86, 127
1, 179520, Note_on_c, 0, 29, 127
1, 179520, Note_on_c, 0, 33, 127
1, 179579, Note_on_c, 0, 74, 0
1, 179579, Note_on_c, 0, 86, 0
1, 179579, Note_on_c, 0, 29, 0
1, 179579, Note_on_c, 0, 33, 0
1, 179580, Note_on_c, 0, 41, 127
1, 179639, Note_on_c, 0, 41, 0
1, 179640, Note_on_c, 0, 26, 127
1, 179640, Note_on_c, 0, 89, 127
1, 179640, Note_on_c, 0, 77, 127
1, 179699, Note_on_c, 0, 26, 0
1, 179699, Note_on_c, 0, 89, 0
1, 179699, Note_on_c, 0, 77, 0
1, 179700, Note_on_c, 0, 38, 127
1, 179759, Note_on_c, 0, 38, 0
1, 179760, Note_on_c, 0, 26, 127
1, 179760, Note_on_c, 0, 89, 127
1, 179760, Note_on_c, 0, 77, 127
1, 179819, Note_on_c, 0, 26, 0
1, 179819, Note_on_c, 0, 89, 0
1, 179819, Note_on_c, 0, 77, 0
1, 179820, Note_on_c, 0, 38, 127
1, 179879, Note_on_c, 0, 38, 0
1, 179880, Note_on_c, 0, 81, 127
1, 179880, Note_on_c, 0, 69, 127
1, 179880, Note_on_c, 0, 26, 127
1, 179939, Note_on_c, 0, 81, 0
1, 179939, Note_on_c, 0, 69, 0
1, 179939, Note_on_c, 0, 26, 0
1, 179940, Note_on_c, 0, 38, 127
1, 179999, Note_on_c, 0, 38, 0
1, 180000, Note_on_c, 0, 26, 127
1, 180000, Note_on_c, 0, 69, 127
1, 180000, Note_on_c, 0, 81, 127
1, 180059, Note_on_c, 0, 26, 0
1, 180059, Note_on_c, 0, 69, 0
1, 180059, Note_on_c, 0, 81, 0
1, 180060, Note_on_c, 0, 38, 127
1, 180119, Note_on_c, 0, 38, 0
1, 180120, Note_on_c, 0, 26, 127
1, 180120, Note_on_c, 0, 86, 127
1, 180120, Note_on_c, 0, 74, 127
1, 180179, Note_on_c, 0, 26, 0
1, 180179, Note_on_c, 0, 86, 0
1, 180179, Note_on_c, 0, 74, 0
1, 180180, Note_on_c, 0, 38, 127
1, 180239, Note_on_c, 0, 38, 0
1, 180240, Note_on_c, 0, 26, 127
1, 180240, Note_on_c, 0, 86, 127
1, 180240, Note_on_c, 0, 74, 127
1, 180299, Note_on_c, 0, 26, 0
1, 180299, Note_on_c, 0, 86, 0
1, 180299, Note_on_c, 0, 74, 0
1, 180300, Note_on_c, 0, 38, 127
1, 180359, Note_on_c, 0, 38, 0
1, 180360, Note_on_c, 0, 26, 127
1, 180360, Note_on_c, 0, 65, 127
1, 180360, Note_on_c, 0, 77, 127
1, 180419, Note_on_c, 0, 26, 0
1, 180419, Note_on_c, 0, 65, 0
1, 180419, Note_on_c, 0, 77, 0
1, 180420, Note_on_c, 0, 38, 127
1, 180479, Note_on_c, 0, 38, 0
1, 180480, Note_on_c, 0, 77, 127
1, 180480, Note_on_c, 0, 65, 127
1, 180480, Note_on_c, 0, 26, 127
1, 180539, Note_on_c, 0, 77, 0
1, 180539, Note_on_c, 0, 65, 0
1, 180539, Note_on_c, 0, 26, 0
1, 180540, Note_on_c, 0, 38, 127
1, 180599, Note_on_c, 0, 38, 0
1, 180600, Note_on_c, 0, 26, 127
1, 180600, Note_on_c, 0, 81, 127
1, 180600, Note_on_c, 0, 69, 127
1, 180659, Note_on_c, 0, 26, 0
1, 180659, Note_on_c, 0, 81, 0
1, 180659, Note_on_c, 0, 69, 0
1, 180660, Note_on_c, 0, 38, 127
1, 180719, Note_on_c, 0, 38, 0
1, 180720, Note_on_c, 0, 26, 127
1, 180720, Note_on_c, 0, 81, 127
1, 180720, Note_on_c, 0, 69, 127
1, 180779, Note_on_c, 0, 26, 0
1, 180779, Note_on_c, 0, 81, 0
1, 180779, Note_on_c, 0, 69, 0
1, 180780, Note_on_c, 0, 38, 127
1, 180839, Note_on_c, 0, 38, 0
1, 180840, Note_on_c, 0, 74, 127
1, 180840, Note_on_c, 0, 26, 127
1, 180840, Note_on_c, 0, 62, 127
1, 180899, Note_on_c, 0, 74, 0
1, 180899, Note_on_c, 0, 26, 0
1, 180899, Note_on_c, 0, 62, 0
1, 180900, Note_on_c, 0, 38, 127
1, 180959, Note_on_c, 0, 38, 0
1, 180960, Note_on_c, 0, 74, 127
1, 180960, Note_on_c, 0, 62, 127
1, 181019, Note_on_c, 0, 74, 0
1, 181019, Note_on_c, 0, 62, 0
1, 181045, Control_c, 0, 64, 0
1, 181080, Note_on_c, 0, 77, 127
1, 181080, Note_on_c, 0, 74, 127
1, 181080, Note_on_c, 0, 65, 127
1, 181080, Note_on_c, 0, 50, 127
1, 181080, Note_on_c, 0, 62, 127
1, 181139, Note_on_c, 0, 77, 0
1, 181139, Note_on_c, 0, 74, 0
1, 181139, Note_on_c, 0, 65, 0
1, 181139, Note_on_c, 0, 50, 0
1, 181139, Note_on_c, 0, 62, 0
1, 181200, Note_on_c, 0, 74, 127
1, 181200, Note_on_c, 0, 65, 127
1, 181200, Note_on_c, 0, 77, 127
1, 181200, Note_on_c, 0, 50, 127
1, 181200, Note_on_c, 0, 62, 127
1, 181259, Note_on_c, 0, 74, 0
1, 181259, Note_on_c, 0, 65, 0
1, 181259, Note_on_c, 0, 77, 0
1, 181259, Note_on_c, 0, 50, 0
1, 181259, Note_on_c, 0, 62, 0
1, 181320, Note_on_c, 0, 78, 127
1, 181320, Note_on_c, 0, 66, 127
1, 181320, Note_on_c, 0, 74, 127
1, 181320, Note_on_c, 0, 60, 127
1, 181320, Note_on_c, 0, 48, 127
1, 181379, Note_on_c, 0, 78, 0
1, 181379, Note_on_c, 0, 66, 0
1, 181379, Note_on_c, 0, 74, 0
1, 181379, Note_on_c, 0, 60, 0
1, 181379, Note_on_c, 0, 48, 0
1, 181440, Note_on_c, 0, 74, 127
1, 181440, Note_on_c, 0, 78, 127
1, 181440, Note_on_c, 0, 60, 127
1, 181440, Note_on_c, 0, 66, 127
1, 181440, Note_on_c, 0, 48, 127
1, 181499, Note_on_c, 0, 74, 0
1, 181499, Note_on_c, 0, 78, 0
1, 181499, Note_on_c, 0, 60, 0
1, 181499, Note_on_c, 0, 66, 0
1, 181499, Note_on_c, 0, 48, 0
1, 181560, Note_on_c, 0, 74, 127
1, 181560, Note_on_c, 0, 79, 127
1, 181560, Note_on_c, 0, 59, 127
1, 181560, Note_on_c, 0, 67, 127
1, 181560, Note_on_c, 0, 47, 127
1, 181619, Note_on_c, 0, 74, 0
1, 181619, Note_on_c, 0, 79, 0
1, 181619, Note_on_c, 0, 59, 0
1, 181619, Note_on_c, 0, 67, 0
1, 181619, Note_on_c, 0, 47, 0
1, 181680, Note_on_c, 0, 67, 127
1, 181680, Note_on_c, 0, 79, 127
1, 181680, Note_on_c, 0, 74, 127
1, 181680, Note_on_c, 0, 47, 127
1, 181680, Note_on_c, 0, 59, 127
1, 181739, Note_on_c, 0, 67, 0
1, 181739, Note_on_c, 0, 79, 0
1, 181739, Note_on_c, 0, 74, 0
1, 181739, Note_on_c, 0, 47, 0
1, 181739, Note_on_c, 0, 59, 0
1, 181800, Note_on_c, 0, 58, 127
1, 181800, Note_on_c, 0, 80, 127
1, 181800, Note_on_c, 0, 74, 127
1, 181800, Note_on_c, 0, 68, 127
1, 181800, Note_on_c, 0, 46, 127
1, 181859, Note_on_c, 0, 58, 0
1, 181859, Note_on_c, 0, 80, 0
1, 181859, Note_on_c, 0, 74, 0
1, 181859, Note_on_c, 0, 68, 0
1, 181859, Note_on_c, 0, 46, 0
1, 181920, Note_on_c, 0, 58, 127
1, 181920, Note_on_c, 0, 80, 127
1, 181920, Note_on_c, 0, 74, 127
1, 181920, Note_on_c, 0, 68, 127
1, 181920, Note_on_c, 0, 46, 127
1, 181979, Note_on_c, 0, 58, 0
1, 181979, Note_on_c, 0, 80, 0
1, 181979, Note_on_c, 0, 74, 0
1, 181979, Note_on_c, 0, 68, 0
1, 181979, Note_on_c, 0, 46, 0
1, 182040, Note_on_c, 0, 74, 127
1, 182040, Note_on_c, 0, 80, 127
1, 182040, Note_on_c, 0, 86, 127
1, 182040, Note_on_c, 0, 46, 127
1, 182040, Note_on_c, 0, 34, 127
1, 182099, Note_on_c, 0, 74, 0
1, 182099, Note_on_c, 0, 80, 0
1, 182099, Note_on_c, 0, 86, 0
1, 182099, Note_on_c, 0, 46, 0
1, 182099, Note_on_c, 0, 34, 0
1, 182160, Note_on_c, 0, 80, 127
1, 182160, Note_on_c, 0, 74, 127
1, 182160, Note_on_c, 0, 86, 127
1, 182160, Note_on_c, 0, 46, 127
1, 182160, Note_on_c, 0, 34, 127
1, 182219, Note_on_c, 0, 80, 0
1, 182219, Note_on_c, 0, 74, 0
1, 182219, Note_on_c, 0, 86, 0
1, 182219, Note_on_c, 0, 46, 0
1, 182219, Note_on_c, 0, 34, 0
1, 182280, Note_on_c, 0, 80, 127
1, 182280, Note_on_c, 0, 89, 127
1, 182280, Note_on_c, 0, 77, 127
1, 182280, Note_on_c, 0, 86, 127
1, 182280, Note_on_c, 0, 46, 127
1, 182280, Note_on_c, 0, 34, 127
1, 182339, Note_on_c, 0, 80, 0
1, 182339, Note_on_c, 0, 89, 0
1, 182339, Note_on_c, 0, 77, 0
1, 182339, Note_on_c, 0, 86, 0
1, 182339, Note_on_c, 0, 46, 0
1, 182339, Note_on_c, 0, 34, 0
1, 182400, Note_on_c, 0, 80, 127
1, 182400, Note_on_c, 0, 46, 127
1, 182400, Note_on_c, 0, 77, 127
1, 182400, Note_on_c, 0, 89, 127
1, 182400, Note_on_c, 0, 34, 127
1, 182400, Note_on_c, 0, 86, 127
1, 182459, Note_on_c, 0, 80, 0
1, 182459, Note_on_c, 0, 46, 0
1, 182459, Note_on_c, 0, 77, 0
1, 182459, Note_on_c, 0, 89, 0
1, 182459, Note_on_c, 0, 34, 0
1, 182459, Note_on_c, 0, 86, 0
1, 182640, Note_on_c, 0, 93, 127
1, 182640, Note_on_c, 0, 81, 127
1, 182640, Note_on_c, 0, 33, 127
1, 182640, Note_on_c, 0, 45, 127
1, 182699, Note_on_c, 0, 93, 0
1, 182699, Note_on_c, 0, 81, 0
1, 182699, Note_on_c, 0, 33, 0
1, 182699, Note_on_c, 0, 45, 0
1, 183600, Tempo, 985221
1, 183600, Note_on_c, 0, 57, 100
1, 183839, Note_on_c, 0, 57, 0
1, 183840, Note_on_c, 0, 57, 100
1, 183900, Note_on_c, 0, 64, 100
1, 183915, Note_on_c, 0, 57, 0
1, 184800, Note_on_c, 0, 62, 100
1, 184800, Note_on_c, 0, 64, 0
1, 184919, Note_on_c, 0, 62, 0
1, 184920, Note_on_c, 0, 61, 100
1, 185039, Note_on_c, 0, 61, 0
1, 185040, Note_on_c, 0, 62, 100
1, 185159, Note_on_c, 0, 62, 0
1, 185160, Note_on_c, 0, 64, 100
1, 185279, Note_on_c, 0, 64, 0
1, 185280, Note_on_c, 0, 64, 100
1, 185519, Note_on_c, 0, 64, 0
1, 185520, Note_on_c, 0, 55, 100
1, 185759, Note_on_c, 0, 55, 0
1, 185880, Note_on_c, 0, 55, 100
1, 185999, Note_on_c, 0, 55, 0
1, 186000, Note_on_c, 0, 58, 100
1, 186479, Note_on_c, 0, 58, 0
1, 186480, Note_on_c, 0, 57, 100
1, 186599, Note_on_c, 0, 57, 0
1, 186600, Note_on_c, 0, 52, 100
1, 186719, Note_on_c, 0, 52, 0
1, 186720, Note_on_c, 0, 55, 100
1, 186959, Note_on_c, 0, 55, 0
1, 186960, Note_on_c, 0, 57, 60
1, 186960, Note_on_c, 0, 62, 60
1, 186960, Note_on_c, 0, 65, 60
1, 186960, Note_on_c, 0, 50, 60
1, 186960, Note_on_c, 0, 53, 100
1, 187199, Note_on_c, 0, 57, 0
1, 187199, Note_on_c, 0, 62, 0
1, 187199, Note_on_c, 0, 65, 0
1, 187199, Note_on_c, 0, 50, 0
1, 187199, Note_on_c, 0, 53, 0
1, 187200, Note_on_c, 0, 66, 60
1, 187200, Note_on_c, 0, 63, 60
1, 187200, Note_on_c, 0, 57, 60
1, 187200, Note_on_c, 0, 48, 60
1, 187679, Note_on_c, 0, 66, 0
1, 187679, Note_on_c, 0, 63, 0
1, 187679, Note_on_c, 0, 57, 0
1, 187679, Note_on_c, 0, 48, 0
1, 187680, Note_on_c, 0, 62, 60
1, 187680, Note_on_c, 0, 59, 60
1, 187680, Note_on_c, 0, 67, 60
1, 187680, Note_on_c, 0, 47, 60
1, 187919, Note_on_c, 0, 62, 0
1, 187919, Note_on_c, 0, 59, 0
1, 187919, Note_on_c, 0, 47, 0
1, 187920, Note_on_c, 0, 68, 60
1, 187920, Note_on_c, 0, 59, 60
1, 187920, Note_on_c, 0, 62, 60
1, 187920, Note_on_c, 0, 41, 60
1, 187920, Note_on_c, 0, 53, 60
1, 187973, Note_on_c, 0, 67, 0
1, 188394, Note_on_c, 0, 41, 0
1, 188399, Note_on_c, 0, 68, 0
1, 188399, Note_on_c, 0, 59, 0
1, 188399, Note_on_c, 0, 62, 0
1, 188399, Note_on_c, 0, 53, 0
1, 188400, Note_on_c, 0, 74, 60
1, 188400, Note_on_c, 0, 68, 60
1, 188400, Note_on_c, 0, 59, 60
1, 188400, Note_on_c, 0, 52, 60
1, 188400, Note_on_c, 0, 40, 60
1, 188493, Control_c, 0, 64, 127
1, 188879, Note_on_c, 0, 52, 0
1, 188879, Note_on_c, 0, 40, 0
1, 188880, Note_on_c, 0, 56, 60
1, 189359, Note_on_c, 0, 59, 0
1, 189359, Note_on_c, 0, 56, 0
1, 189360, Note_on_c, 0, 56, 60
1, 189599, Note_on_c, 0, 56, 0
1, 189840, Note_on_c, 0, 62, 100
1, 190199, Note_on_c, 0, 62, 0
1, 190200, Note_on_c, 0, 59, 100
1, 190319, Note_on_c, 0, 59, 0
1, 190320, Note_on_c, 0, 59, 100
1, 190559, Note_on_c, 0, 59, 0
1, 190560, Note_on_c, 0, 56, 100
1, 190679, Note_on_c, 0, 56, 0
1, 190680, Note_on_c, 0, 57, 100
1, 190799, Note_on_c, 0, 57, 0
1, 190800, Note_on_c, 0, 59, 100
1, 190919, Note_on_c, 0, 59, 0
1, 190920, Note_on_c, 0, 61, 100
1, 191039, Note_on_c, 0, 61, 0
1, 191040, Note_on_c, 0, 64, 100
1, 191159, Note_on_c, 0, 64, 0
1, 191160, Note_on_c, 0, 62, 100
1, 191279, Note_on_c, 0, 62, 0
1, 191280, Note_on_c, 0, 61, 100
1, 191399, Note_on_c, 0, 61, 0
1, 191400, Note_on_c, 0, 62, 100
1, 191519, Note_on_c, 0, 62, 0
1, 191520, Note_on_c, 0, 59, 100
1, 191639, Note_on_c, 0, 59, 0
1, 191640, Note_on_c, 0, 56, 100
1, 191759, Note_on_c, 0, 56, 0
1, 191760, Note_on_c, 0, 52, 100
1, 191879, Note_on_c, 0, 52, 0
1, 191880, Note_on_c, 0, 50, 100
1, 191880, Note_off_c, 0, 74, 78
1, 191880, Note_off_c, 0, 68, 22
1, 191922, Control_c, 0, 64, 0
1, 191999, Note_on_c, 0, 50, 0
1, 192000, Note_on_c, 0, 50, 100
1, 192239, Note_on_c, 0, 50, 0
1, 192240, Note_on_c, 0, 54, 100
1, 192359, Note_on_c, 0, 54, 0
1, 192360, Note_on_c, 0, 52, 100
1, 192479, Note_on_c, 0, 52, 0
1, 192480, Note_on_c, 0, 50, 100
1, 192719, Note_on_c, 0, 50, 0
1, 192720, Note_on_c, 0, 49, 100
1, 192959, Note_on_c, 0, 49, 0
1, 192960, Note_on_c, 0, 69, 100
1, 192960, Note_on_c, 0, 64, 100
1, 192960, Note_on_c, 0, 73, 100
1, 192960, Note_on_c, 0, 76, 100
1, 192960, Note_on_c, 0, 55, 100
1, 192960, Note_on_c, 0, 43, 100
1, 193199, Note_on_c, 0, 69, 0
1, 193199, Note_on_c, 0, 64, 0
1, 193199, Note_on_c, 0, 73, 0
1, 193199, Note_on_c, 0, 76, 0
1, 193199, Note_on_c, 0, 55, 0
1, 193199, Note_on_c, 0, 43, 0
1, 193200, Note_on_c, 0, 54, 100
1, 193200, Note_on_c, 0, 74, 100
1, 193200, Note_on_c, 0, 81, 100
1, 193200, Note_on_c, 0, 69, 100
1, 193200, Note_on_c, 0, 42, 100
1, 193250, Control_c, 0, 64, 127
1, 193319, Note_on_c, 0, 54, 0
1, 193319, Note_on_c, 0, 74, 0
1, 193319, Note_on_c, 0, 81, 0
1, 193319, Note_on_c, 0, 69, 0
1, 193319, Note_on_c, 0, 42, 0
1, 193320, Note_on_c, 0, 74, 100
1, 193320, Note_on_c, 0, 81, 100
1, 193320, Note_on_c, 0, 69, 100
1, 193320, Note_on_c, 0, 54, 100
1, 193320, Note_on_c, 0, 42, 100
1, 193439, Note_on_c, 0, 74, 0
1, 193439, Note_on_c, 0, 81, 0
1, 193439, Note_on_c, 0, 69, 0
1, 193439, Note_on_c, 0, 54, 0
1, 193439, Note_on_c, 0, 42, 0
1, 193440, Note_on_c, 0, 78, 100
1, 193440, Note_on_c, 0, 74, 100
1, 193440, Note_on_c, 0, 86, 100
1, 193440, Note_on_c, 0, 81, 100
1, 193440, Note_on_c, 0, 62, 100
1, 193440, Note_on_c, 0, 57, 100
1, 193440, Note_on_c, 0, 54, 100
1, 193560, Note_on_c, 0, 78, 0
1, 193560, Note_on_c, 0, 74, 0
1, 193560, Note_on_c, 0, 86, 0
1, 193560, Note_on_c, 0, 81, 0
1, 193560, Note_on_c, 0, 62, 0
1, 193560, Note_on_c, 0, 57, 0
1, 193560, Note_on_c, 0, 54, 0
1, 193680, Note_on_c, 0, 57, 100
1, 193720, Control_c, 0, 64, 0
1, 193800, Note_on_c, 0, 57, 0
1, 193920, Note_on_c, 0, 62, 100
1, 194279, Note_on_c, 0, 62, 0
1, 194280, Note_on_c, 0, 64, 100
1, 194399, Note_on_c, 0, 64, 0
1, 194400, Note_on_c, 0, 66, 100
1, 194519, Note_on_c, 0, 66, 0
1, 194520, Note_on_c, 0, 64, 100
1, 194639, Note_on_c, 0, 64, 0
1, 194640, Note_on_c, 0, 64, 100
1, 194759, Note_on_c, 0, 64, 0
1, 194760, Note_on_c, 0, 62, 100
1, 194830, Note_on_c, 0, 62, 0
1, 194880, Note_on_c, 0, 62, 100
1, 194999, Note_on_c, 0, 62, 0
1, 195000, Note_on_c, 0, 61, 100
1, 195119, Note_on_c, 0, 61, 0
1, 195120, Note_on_c, 0, 62, 100
1, 195239, Note_on_c, 0, 62, 0
1, 195240, Note_on_c, 0, 57, 100
1, 195359, Note_on_c, 0, 57, 0
1, 195360, Note_on_c, 0, 55, 100
1, 195479, Note_on_c, 0, 55, 0
1, 195480, Note_on_c, 0, 54, 100
1, 195599, Note_on_c, 0, 54, 0
1, 195600, Note_on_c, 0, 54, 100
1, 195719, Note_on_c, 0, 54, 0
1, 195720, Note_on_c, 0, 52, 100
1, 195839, Note_on_c, 0, 52, 0
1, 195840, Note_on_c, 0, 50, 100
1, 195959, Note_on_c, 0, 50, 0
1, 195960, Note_on_c, 0, 48, 100
1, 196030, Note_on_c, 0, 48, 0
1, 196080, Note_on_c, 0, 48, 100
1, 196199, Note_on_c, 0, 48, 0
1, 196200, Note_on_c, 0, 47, 100
1, 196319, Note_on_c, 0, 47, 0
1, 196320, Note_on_c, 0, 43, 60
1, 196320, Note_on_c, 0, 62, 60
1, 196320, Note_on_c, 0, 71, 60
1, 196320, Note_on_c, 0, 74, 60
1, 196320, Note_on_c, 0, 55, 100
1, 196440, Note_on_c, 0, 43, 0
1, 196440, Note_on_c, 0, 62, 0
1, 196440, Note_on_c, 0, 71, 0
1, 196440, Note_on_c, 0, 74, 0
1, 196560, Note_on_c, 0, 83, 100
1, 196560, Note_on_c, 0, 71, 100
1, 196560, Note_on_c, 0, 74, 100
1, 196560, Note_on_c, 0, 79, 100
1, 196679, Note_on_c, 0, 83, 0
1, 196679, Note_on_c, 0, 71, 0
1, 196679, Note_on_c, 0, 74, 0
1, 196679, Note_on_c, 0, 79, 0
1, 197159, Note_on_c, 0, 55, 0
1, 197160, Note_on_c, 0, 52, 100
1, 197279, Note_on_c, 0, 52, 0
1, 197280, Note_on_c, 0, 49, 100
1, 197399, Note_on_c, 0, 49, 0
1, 197400, Note_on_c, 0, 50, 100
1, 197519, Note_on_c, 0, 50, 0
1, 197520, Note_on_c, 0, 50, 100
1, 197639, Note_on_c, 0, 50, 0
1, 197640, Note_on_c, 0, 45, 100
1, 197759, Note_on_c, 0, 45, 0
1, 197760, Note_on_c, 0, 45, 100
1, 197999, Note_on_c, 0, 45, 0
1, 198000, Note_on_c, 0, 52, 100
1, 198000, Note_on_c, 0, 57, 100
1, 198000, Note_on_c, 0, 61, 100
1, 198000, Note_on_c, 0, 85, 100
1, 198000, Note_on_c, 0, 73, 100
1, 198000, Note_on_c, 0, 76, 100
1, 198000, Note_on_c, 0, 81, 100
1, 198230, Note_on_c, 0, 52, 0
1, 198230, Note_on_c, 0, 57, 0
1, 198230, Note_on_c, 0, 61, 0
1, 198230, Note_on_c, 0, 85, 0
1, 198230, Note_on_c, 0, 73, 0
1, 198230, Note_on_c, 0, 76, 0
1, 198230, Note_on_c, 0, 81, 0
1, 198240, Tempo, 372902
1, 198240, Time_signature, 4, 2, 24, 8
1, 198240, Note_on_c, 0, 73, 70
1, 198240, Note_on_c, 0, 45, 70
1, 198240, Note_on_c, 0, 64, 70
1, 198240, Note_on_c, 0, 57, 70
1, 198479, Note_on_c, 0, 73, 0
1, 198479, Note_on_c, 0, 64, 0
1, 198480, Note_on_c, 0, 73, 70
1, 198480, Note_on_c, 0, 64, 70
1, 198719, Note_on_c, 0, 73, 0
1, 198719, Note_on_c, 0, 64, 0
1, 198720, Note_on_c, 0, 66, 70
1, 198720, Note_on_c, 0, 74, 70
1, 198959, Note_on_c, 0, 66, 0
1, 198959, Note_on_c, 0, 74, 0
1, 198960, Note_on_c, 0, 67, 70
1, 198960, Note_on_c, 0, 76, 70
1, 199199, Note_on_c, 0, 67, 0
1, 199199, Note_on_c, 0, 45, 0
1, 199199, Note_on_c, 0, 76, 0
1, 199199, Note_on_c, 0, 57, 0
1, 199200, Note_on_c, 0, 64, 100
1, 199200, Note_on_c, 0, 67, 70
1, 199200, Note_on_c, 0, 76, 70
1, 199439, Note_on_c, 0, 64, 0
1, 199439, Note_on_c, 0, 67, 0
1, 199439, Note_on_c, 0, 76, 0
1, 199440, Note_on_c, 0, 66, 70
1, 199440, Note_on_c, 0, 74, 70
1, 199440, Note_on_c, 0, 62, 100
1, 199679, Note_on_c, 0, 66, 0
1, 199679, Note_on_c, 0, 74, 0
1, 199679, Note_on_c, 0, 62, 0
1, 199680, Note_on_c, 0, 73, 70
1, 199680, Note_on_c, 0, 64, 70
1, 199680, Note_on_c, 0, 45, 100
1, 199680, Note_on_c, 0, 57, 70
1, 199919, Note_on_c, 0, 73, 0
1, 199919, Note_on_c, 0, 64, 0
1, 199919, Note_on_c, 0, 45, 0
1, 199919, Note_on_c, 0, 57, 0
1, 199920, Note_on_c, 0, 62, 70
1, 199920, Note_on_c, 0, 71, 70
1, 199920, Note_on_c, 0, 57, 70
1, 199920, Note_on_c, 0, 45, 100
1, 200159, Note_on_c, 0, 62, 0
1, 200159, Note_on_c, 0, 71, 0
1, 200159, Note_on_c, 0, 57, 0
1, 200159, Note_on_c, 0, 45, 0
1, 200160, Note_on_c, 0, 73, 70
1, 200160, Note_on_c, 0, 76, 70
1, 200160, Note_on_c, 0, 64, 70
1, 200160, Note_on_c, 0, 61, 70
1, 200160, Note_on_c, 0, 57, 70
1, 200399, Note_on_c, 0, 73, 0
1, 200399, Note_on_c, 0, 76, 0
1, 200399, Note_on_c, 0, 64, 0
1, 200399, Note_on_c, 0, 61, 0
1, 200400, Note_on_c, 0, 61, 70
1, 200400, Note_on_c, 0, 76, 70
1, 200400, Note_on_c, 0, 73, 70
1, 200400, Note_on_c, 0, 64, 70
1, 200639, Note_on_c, 0, 61, 0
1, 200639, Note_on_c, 0, 76, 0
1, 200639, Note_on_c, 0, 73, 0
1, 200639, Note_on_c, 0, 64, 0
1, 200640, Note_on_c, 0, 66, 70
1, 200640, Note_on_c, 0, 78, 70
1, 200640, Note_on_c, 0, 74, 70
1, 200640, Note_on_c, 0, 62, 70
1, 200879, Note_on_c, 0, 66, 0
1, 200879, Note_on_c, 0, 78, 0
1, 200879, Note_on_c, 0, 74, 0
1, 200879, Note_on_c, 0, 62, 0
1, 200880, Note_on_c, 0, 64, 70
1, 200880, Note_on_c, 0, 67, 70
1, 200880, Note_on_c, 0, 79, 70
1, 200880, Note_on_c, 0, 76, 70
1, 201119, Note_on_c, 0, 64, 0
1, 201119, Note_on_c, 0, 67, 0
1, 201119, Note_on_c, 0, 79, 0
1, 201119, Note_on_c, 0, 76, 0
1, 201119, Note_on_c, 0, 57, 0
1, 201120, Note_on_c, 0, 67, 70
1, 201120, Note_on_c, 0, 76, 70
1, 201120, Note_on_c, 0, 79, 70
1, 201120, Note_on_c, 0, 64, 100
1, 201359, Note_on_c, 0, 67, 0
1, 201359, Note_on_c, 0, 76, 0
1, 201359, Note_on_c, 0, 79, 0
1, 201359, Note_on_c, 0, 64, 0
1, 201360, Note_on_c, 0, 66, 70
1, 201360, Note_on_c, 0, 78, 70
1, 201360, Note_on_c, 0, 74, 70
1, 201360, Note_on_c, 0, 62, 100
1, 201599, Note_on_c, 0, 66, 0
1, 201599, Note_on_c, 0, 78, 0
1, 201599, Note_on_c, 0, 74, 0
1, 201600, Note_on_c, 0, 76, 70
1, 201600, Note_on_c, 0, 45, 100
1, 201600, Note_on_c, 0, 64, 70
1, 201600, Note_on_c, 0, 67, 70
1, 201839, Note_on_c, 0, 76, 0
1, 201839, Note_on_c, 0, 45, 0
1, 201839, Note_on_c, 0, 64, 0
1, 201839, Note_on_c, 0, 62, 0
1, 201839, Note_on_c, 0, 67, 0
1, 201840, Note_on_c, 0, 66, 70
1, 201840, Note_on_c, 0, 62, 70
1, 201840, Note_on_c, 0, 74, 70
1, 201840, Note_on_c, 0, 45, 100
1, 201840, Note_on_c, 0, 57, 70
1, 201959, Note_on_c, 0, 57, 0
1, 201960, Note_on_c, 0, 55, 70
1, 202079, Note_on_c, 0, 66, 0
1, 202079, Note_on_c, 0, 62, 0
1, 202079, Note_on_c, 0, 74, 0
1, 202079, Note_on_c, 0, 45, 0
1, 202080, Note_on_c, 0, 54, 70
1, 202080, Note_on_c, 0, 42, 70
1, 202080, Note_on_c, 0, 69, 70
1, 202080, Note_on_c, 0, 62, 70
1, 202080, Note_on_c, 0, 74, 70
1, 202199, Note_on_c, 0, 55, 0
1, 202319, Note_on_c, 0, 54, 0
1, 202319, Note_on_c, 0, 42, 0
1, 202319, Note_on_c, 0, 69, 0
1, 202319, Note_on_c, 0, 62, 0
1, 202319, Note_on_c, 0, 74, 0
1, 202320, Note_on_c, 0, 54, 70
1, 202320, Note_on_c, 0, 42, 70
1, 202380, Note_on_c, 0, 42, 0
1, 202440, Note_on_c, 0, 74, 70
1, 202559, Note_on_c, 0, 54, 0
1, 202559, Note_on_c, 0, 74, 0
1, 202560, Note_on_c, 0, 69, 70
1, 202560, Note_on_c, 0, 55, 70
1, 202560, Note_on_c, 0, 43, 70
1, 202620, Note_on_c, 0, 43, 0
1, 202799, Note_on_c, 0, 69, 0
1, 202799, Note_on_c, 0, 55, 0
1, 202800, Note_on_c, 0, 57, 70
1, 202800, Note_on_c, 0, 45, 70
1, 202860, Note_on_c, 0, 45, 0
1, 203039, Note_on_c, 0, 57, 0
1, 203040, Tempo, 375000
1, 203040, Time_signature, 4, 2, 24, 8
1, 203040, Note_on_c, 0, 71, 63
1, 203040, Note_on_c, 0, 57, 90
1, 203040, Note_on_c, 0, 45, 63
1, 203090, Note_on_c, 0, 45, 0
1, 203270, Note_on_c, 0, 71, 0
1, 203270, Note_on_c, 0, 57, 0
1, 203280, Note_on_c, 0, 69, 63
1, 203280, Note_on_c, 0, 55, 90
1, 203280, Note_on_c, 0, 43, 63
1, 203330, Note_on_c, 0, 43, 0
1, 203400, Note_on_c, 0, 71, 63
1, 203510, Note_on_c, 0, 55, 0
1, 203510, Note_on_c, 0, 71, 0
1, 203520, Note_on_c, 0, 73, 63
1, 203520, Note_on_c, 0, 54, 90
1, 203520, Note_on_c, 0, 42, 63
1, 203570, Note_on_c, 0, 42, 0
1, 203750, Note_on_c, 0, 69, 0
1, 203750, Note_on_c, 0, 73, 0
1, 203750, Note_on_c, 0, 54, 0
1, 203760, Note_on_c, 0, 69, 63
1, 203760, Note_on_c, 0, 67, 63
1, 203760, Note_on_c, 0, 52, 90
1, 203760, Note_on_c, 0, 40, 63
1, 203810, Note_on_c, 0, 40, 0
1, 203880, Note_on_c, 0, 73, 63
1, 203990, Note_on_c, 0, 69, 0
1, 203990, Note_on_c, 0, 67, 0
1, 203990, Note_on_c, 0, 52, 0
1, 203990, Note_on_c, 0, 73, 0
1, 204000, Note_on_c, 0, 74, 63
1, 204000, Note_on_c, 0, 69, 63
1, 204000, Note_on_c, 0, 66, 63
1, 204000, Note_on_c, 0, 50, 90
1, 204000, Note_on_c, 0, 38, 63
1, 204050, Note_on_c, 0, 38, 0
1, 204230, Note_on_c, 0, 74, 0
1, 204230, Note_on_c, 0, 69, 0
1, 204230, Note_on_c, 0, 66, 0
1, 204230, Note_on_c, 0, 50, 0
1, 204240, Note_on_c, 0, 69, 63
1, 204240, Note_on_c, 0, 66, 63
1, 204240, Note_on_c, 0, 50, 90
1, 204240, Note_on_c, 0, 38, 63
1, 204290, Note_on_c, 0, 38, 0
1, 204360, Note_on_c, 0, 74, 63
1, 204470, Note_on_c, 0, 69, 0
1, 204470, Note_on_c, 0, 66, 0
1, 204470, Note_on_c, 0, 50, 0
1, 204470, Note_on_c, 0, 74, 0
1, 204480, Note_on_c, 0, 74, 63
1, 204480, Note_on_c, 0, 69, 63
1, 204480, Note_on_c, 0, 67, 63
1, 204480, Note_on_c, 0, 52, 90
1, 204480, Note_on_c, 0, 40, 63
1, 204530, Note_on_c, 0, 40, 0
1, 204710, Note_on_c, 0, 74, 0
1, 204710, Note_on_c, 0, 69, 0
1, 204710, Note_on_c, 0, 67, 0
1, 204710, Note_on_c, 0, 52, 0
1, 204720, Note_on_c, 0, 69, 63
1, 204720, Note_on_c, 0, 54, 90
1, 204720, Note_on_c, 0, 40, 63
1, 204770, Note_on_c, 0, 40, 0
1, 204840, Note_on_c, 0, 74, 63
1, 204950, Note_on_c, 0, 69, 0
1, 204950, Note_on_c, 0, 54, 0
1, 204950, Note_on_c, 0, 74, 0
1, 204960, Note_on_c, 0, 74, 63
1, 204960, Note_on_c, 0, 69, 63
1, 204960, Note_on_c, 0, 54, 90
1, 204960, Note_on_c, 0, 42, 63
1, 205010, Note_on_c, 0, 42, 0
1, 205190, Note_on_c, 0, 74, 0
1, 205310, Note_on_c, 0, 69, 0
1, 205310, Note_on_c, 0, 54, 0
1, 205320, Note_on_c, 0, 74, 63
1, 205320, Note_on_c, 0, 67, 63
1, 205320, Note_on_c, 0, 52, 90
1, 205430, Note_on_c, 0, 74, 0
1, 205430, Note_on_c, 0, 67, 0
1, 205430, Note_on_c, 0, 52, 0
1, 205440, Note_on_c, 0, 73, 63
1, 205440, Note_on_c, 0, 69, 63
1, 205440, Note_on_c, 0, 67, 63
1, 205440, Note_on_c, 0, 52, 90
1, 205440, Note_on_c, 0, 40, 63
1, 205490, Note_on_c, 0, 40, 0
1, 205670, Note_on_c, 0, 73, 0
1, 205670, Note_on_c, 0, 69, 0
1, 205670, Note_on_c, 0, 67, 0
1, 205680, Note_on_c, 0, 79, 63
1, 205790, Note_on_c, 0, 79, 0
1, 205800, Note_on_c, 0, 73, 63
1, 205910, Note_on_c, 0, 73, 0
1, 205910, Note_on_c, 0, 52, 0
1, 205920, Note_on_c, 0, 74, 63
1, 205920, Note_on_c, 0, 69, 63
1, 205920, Note_on_c, 0, 62, 63
1, 205920, Note_on_c, 0, 54, 90
1, 205920, Note_on_c, 0, 42, 63
1, 205970, Note_on_c, 0, 42, 0
1, 206150, Note_on_c, 0, 74, 0
1, 206150, Note_on_c, 0, 69, 0
1, 206150, Note_on_c, 0, 62, 0
1, 206150, Note_on_c, 0, 54, 0
1, 206160, Note_on_c, 0, 62, 63
1, 206160, Note_on_c, 0, 54, 90
1, 206160, Note_on_c, 0, 42, 63
1, 206210, Note_on_c, 0, 42, 0
1, 206280, Note_on_c, 0, 74, 63
1, 206390, Note_on_c, 0, 62, 0
1, 206390, Note_on_c, 0, 54, 0
1, 206390, Note_on_c, 0, 74, 0
1, 206400, Note_on_c, 0, 69, 63
1, 206400, Note_on_c, 0, 64, 63
1, 206400, Note_on_c, 0, 55, 90
1, 206400, Note_on_c, 0, 43, 63
1, 206450, Note_on_c, 0, 43, 0
1, 206630, Note_on_c, 0, 69, 0
1, 206630, Note_on_c, 0, 64, 0
1, 206630, Note_on_c, 0, 55, 0
1, 206640, Note_on_c, 0, 66, 63
1, 206640, Note_on_c, 0, 57, 90
1, 206640, Note_on_c, 0, 45, 63
1, 206690, Note_on_c, 0, 45, 0
1, 206760, Note_on_c, 0, 69, 63
1, 206870, Note_on_c, 0, 66, 0
1, 206870, Note_on_c, 0, 57, 0
1, 206870, Note_on_c, 0, 69, 0
1, 206880, Note_on_c, 0, 71, 63
1, 206880, Note_on_c, 0, 66, 63
1, 206880, Note_on_c, 0, 57, 90
1, 206880, Note_on_c, 0, 45, 63
1, 206930, Note_on_c, 0, 45, 0
1, 207110, Note_on_c, 0, 71, 0
1, 207110, Note_on_c, 0, 66, 0
1, 207110, Note_on_c, 0, 57, 0
1, 207120, Note_on_c, 0, 64, 63
1, 207120, Note_on_c, 0, 55, 90
1, 207120, Note_on_c, 0, 43, 63
1, 207170, Note_on_c, 0, 43, 0
1, 207240, Note_on_c, 0, 71, 63
1, 207350, Note_on_c, 0, 64, 0
1, 207350, Note_on_c, 0, 55, 0
1, 207350, Note_on_c, 0, 71, 0
1, 207360, Note_on_c, 0, 71, 63
1, 207360, Note_on_c, 0, 69, 63
1, 207360, Note_on_c, 0, 62, 63
1, 207360, Note_on_c, 0, 54, 90
1, 207360, Note_on_c, 0, 42, 63
1, 207410, Note_on_c, 0, 42, 0
1, 207590, Note_on_c, 0, 71, 0
1, 207590, Note_on_c, 0, 69, 0
1, 207590, Note_on_c, 0, 62, 0
1, 207590, Note_on_c, 0, 54, 0
1, 207600, Note_on_c, 0, 69, 63
1, 207600, Note_on_c, 0, 67, 63
1, 207600, Note_on_c, 0, 52, 90
1, 207600, Note_on_c, 0, 40, 63
1, 207650, Note_on_c, 0, 40, 0
1, 207720, Note_on_c, 0, 73, 63
1, 207830, Note_on_c, 0, 69, 0
1, 207830, Note_on_c, 0, 67, 0
1, 207830, Note_on_c, 0, 52, 0
1, 207830, Note_on_c, 0, 73, 0
1, 207840, Note_on_c, 0, 74, 63
1, 207840, Note_on_c, 0, 69, 63
1, 207840, Note_on_c, 0, 66, 63
1, 207840, Note_on_c, 0, 50, 90
1, 207840, Note_on_c, 0, 38, 63
1, 207890, Note_on_c, 0, 38, 0
1, 208070, Note_on_c, 0, 74, 0
1, 208070, Note_on_c, 0, 69, 0
1, 208070, Note_on_c, 0, 66, 0
1, 208070, Note_on_c, 0, 50, 0
1, 208080, Note_on_c, 0, 78, 63
1, 208080, Note_on_c, 0, 50, 90
1, 208080, Note_on_c, 0, 38, 63
1, 208130, Note_on_c, 0, 38, 0
1, 208200, Note_on_c, 0, 69, 63
1, 208200, Note_on_c, 0, 66, 63
1, 208310, Note_on_c, 0, 78, 0
1, 208310, Note_on_c, 0, 50, 0
1, 208310, Note_on_c, 0, 69, 0
1, 208310, Note_on_c, 0, 66, 0
1, 208320, Note_on_c, 0, 76, 63
1, 208320, Note_on_c, 0, 69, 63
1, 208320, Note_on_c, 0, 67, 63
1, 208320, Note_on_c, 0, 52, 90
1, 208320, Note_on_c, 0, 40, 63
1, 208370, Note_on_c, 0, 40, 0
1, 208550, Note_on_c, 0, 76, 0
1, 208550, Note_on_c, 0, 69, 0
1, 208550, Note_on_c, 0, 67, 0
1, 208550, Note_on_c, 0, 52, 0
1, 208560, Note_on_c, 0, 74, 63
1, 208560, Note_on_c, 0, 54, 90
1, 208560, Note_on_c, 0, 42, 63
1, 208610, Note_on_c, 0, 42, 0
1, 208680, Note_on_c, 0, 69, 63
1, 208790, Note_on_c, 0, 74, 0
1, 208790, Note_on_c, 0, 54, 0
1, 208790, Note_on_c, 0, 69, 0
1, 208800, Note_on_c, 0, 73, 63
1, 208800, Note_on_c, 0, 69, 63
1, 208800, Note_on_c, 0, 67, 63
1, 208800, Note_on_c, 0, 52, 90
1, 208800, Note_on_c, 0, 40, 63
1, 208820, Note_on_c, 0, 40, 0
1, 209030, Note_on_c, 0, 69, 0
1, 209030, Note_on_c, 0, 67, 0
1, 209150, Note_on_c, 0, 73, 0
1, 209150, Note_on_c, 0, 52, 0
1, 209160, Note_on_c, 0, 74, 63
1, 209160, Note_on_c, 0, 66, 63
1, 209160, Note_on_c, 0, 50, 90
1, 209250, Note_on_c, 0, 38, 63
1, 209270, Note_on_c, 0, 74, 0
1, 209270, Note_on_c, 0, 66, 0
1, 209270, Note_on_c, 0, 50, 0
1, 209270, Note_on_c, 0, 38, 0
1, 209280, Note_on_c, 0, 74, 63
1, 209280, Note_on_c, 0, 69, 63
1, 209280, Note_on_c, 0, 66, 63
1, 209280, Note_on_c, 0, 50, 90
1, 209390, Note_on_c, 0, 74, 0
1, 209390, Note_on_c, 0, 50, 0
1, 209400, Note_on_c, 0, 74, 63
1, 209400, Note_on_c, 0, 66, 90
1, 209510, Note_on_c, 0, 74, 0
1, 209510, Note_on_c, 0, 69, 0
1, 209510, Note_on_c, 0, 66, 0
1, 209510, Note_on_c, 0, 66, 0
1, 209520, Note_on_c, 0, 76, 63
1, 209520, Note_on_c, 0, 64, 90
1, 209630, Note_on_c, 0, 76, 0
1, 209630, Note_on_c, 0, 64, 0
1, 209640, Note_on_c, 0, 78, 63
1, 209640, Note_on_c, 0, 62, 90
1, 209750, Note_on_c, 0, 78, 0
1, 209750, Note_on_c, 0, 62, 0
1, 209760, Note_on_c, 0, 79, 63
1, 209760, Note_on_c, 0, 73, 63
1, 209760, Note_on_c, 0, 69, 63
1, 209760, Note_on_c, 0, 52, 90
1, 209760, Note_on_c, 0, 40, 63
1, 209810, Note_on_c, 0, 40, 0
1, 209990, Note_on_c, 0, 79, 0
1, 209990, Note_on_c, 0, 73, 0
1, 209990, Note_on_c, 0, 69, 0
1, 209990, Note_on_c, 0, 52, 0
1, 210000, Note_on_c, 0, 73, 63
1, 210000, Note_on_c, 0, 52, 90
1, 210000, Note_on_c, 0, 40, 63
1, 210050, Note_on_c, 0, 40, 0
1, 210120, Note_on_c, 0, 69, 63
1, 210120, Note_on_c, 0, 61, 63
1, 210230, Note_on_c, 0, 73, 0
1, 210230, Note_on_c, 0, 52, 0
1, 210230, Note_on_c, 0, 69, 0
1, 210230, Note_on_c, 0, 61, 0
1, 210240, Note_on_c, 0, 74, 63
1, 210240, Note_on_c, 0, 69, 63
1, 210240, Note_on_c, 0, 62, 63
1, 210240, Note_on_c, 0, 54, 90
1, 210240, Note_on_c, 0, 42, 63
1, 210290, Note_on_c, 0, 42, 0
1, 210470, Note_on_c, 0, 74, 0
1, 210470, Note_on_c, 0, 69, 0
1, 210470, Note_on_c, 0, 62, 0
1, 210470, Note_on_c, 0, 54, 0
1, 210480, Note_on_c, 0, 78, 63
1, 210480, Note_on_c, 0, 50, 90
1, 210480, Note_on_c, 0, 38, 63
1, 210530, Note_on_c, 0, 38, 0
1, 210600, Note_on_c, 0, 69, 63
1, 210600, Note_on_c, 0, 66, 63
1, 210710, Note_on_c, 0, 78, 0
1, 210710, Note_on_c, 0, 50, 0
1, 210710, Note_on_c, 0, 69, 0
1, 210710, Note_on_c, 0, 66, 0
1, 210720, Note_on_c, 0, 79, 63
1, 210720, Note_on_c, 0, 69, 63
1, 210720, Note_on_c, 0, 67, 63
1, 210720, Note_on_c, 0, 52, 90
1, 210720, Note_on_c, 0, 40, 63
1, 210770, Note_on_c, 0, 40, 0
1, 210830, Note_on_c, 0, 79, 0
1, 210840, Note_on_c, 0, 73, 63
1, 210950, Note_on_c, 0, 73, 0
1, 210950, Note_on_c, 0, 69, 0
1, 210950, Note_on_c, 0, 67, 0
1, 210950, Note_on_c, 0, 52, 0
1, 210960, Note_on_c, 0, 74, 63
1, 210960, Note_on_c, 0, 54, 90
1, 210960, Note_on_c, 0, 42, 63
1, 211070, Note_on_c, 0, 74, 0
1, 211070, Note_on_c, 0, 54, 0
1, 211070, Note_on_c, 0, 42, 0
1, 211080, Note_on_c, 0, 76, 63
1, 211080, Note_on_c, 0, 69, 63
1, 211080, Note_on_c, 0, 64, 63
1, 211080, Note_on_c, 0, 55, 90
1, 211080, Note_on_c, 0, 43, 63
1, 211190, Note_on_c, 0, 76, 0
1, 211190, Note_on_c, 0, 69, 0
1, 211190, Note_on_c, 0, 64, 0
1, 211190, Note_on_c, 0, 55, 0
1, 211190, Note_on_c, 0, 43, 0
1, 211200, Note_on_c, 0, 74, 63
1, 211200, Note_on_c, 0, 69, 63
1, 211200, Note_on_c, 0, 62, 63
1, 211200, Note_on_c, 0, 54, 90
1, 211200, Note_on_c, 0, 42, 63
1, 211250, Note_on_c, 0, 42, 0
1, 211430, Note_on_c, 0, 74, 0
1, 211430, Note_on_c, 0, 69, 0
1, 211430, Note_on_c, 0, 62, 0
1, 211430, Note_on_c, 0, 54, 0
1, 211440, Note_on_c, 0, 76, 63
1, 211440, Note_on_c, 0, 50, 90
1, 211440, Note_on_c, 0, 38, 63
1, 211490, Note_on_c, 0, 38, 0
1, 211550, Note_on_c, 0, 76, 0
1, 211560, Note_on_c, 0, 78, 63
1, 211560, Note_on_c, 0, 69, 63
1, 211560, Note_on_c, 0, 66, 63
1, 211670, Note_on_c, 0, 78, 0
1, 211670, Note_on_c, 0, 50, 0
1, 211670, Note_on_c, 0, 69, 0
1, 211670, Note_on_c, 0, 66, 0
1, 211680, Note_on_c, 0, 79, 63
1, 211680, Note_on_c, 0, 69, 63
1, 211680, Note_on_c, 0, 67, 63
1, 211680, Note_on_c, 0, 52, 90
1, 211680, Note_on_c, 0, 40, 63
1, 211730, Note_on_c, 0, 40, 0
1, 211790, Note_on_c, 0, 79, 0
1, 211800, Note_on_c, 0, 73, 63
1, 211910, Note_on_c, 0, 73, 0
1, 211910, Note_on_c, 0, 69, 0
1, 211910, Note_on_c, 0, 67, 0
1, 211910, Note_on_c, 0, 52, 0
1, 211920, Note_on_c, 0, 74, 63
1, 211920, Note_on_c, 0, 54, 90
1, 211920, Note_on_c, 0, 42, 63
1, 212030, Note_on_c, 0, 74, 0
1, 212030, Note_on_c, 0, 54, 0
1, 212030, Note_on_c, 0, 42, 0
1, 212040, Note_on_c, 0, 76, 63
1, 212040, Note_on_c, 0, 69, 63
1, 212040, Note_on_c, 0, 64, 63
1, 212040, Note_on_c, 0, 55, 90
1, 212040, Note_on_c, 0, 43, 63
1, 212150, Note_on_c, 0, 76, 0
1, 212150, Note_on_c, 0, 69, 0
1, 212150, Note_on_c, 0, 64, 0
1, 212150, Note_on_c, 0, 55, 0
1, 212150, Note_on_c, 0, 43, 0
1, 212160, Note_on_c, 0, 74, 63
1, 212160, Note_on_c, 0, 69, 63
1, 212160, Note_on_c, 0, 62, 63
1, 212160, Note_on_c, 0, 54, 90
1, 212160, Note_on_c, 0, 42, 63
1, 212210, Note_on_c, 0, 42, 0
1, 212390, Note_on_c, 0, 74, 0
1, 212390, Note_on_c, 0, 69, 0
1, 212390, Note_on_c, 0, 62, 0
1, 212390, Note_on_c, 0, 54, 0
1, 212400, Note_on_c, 0, 79, 63
1, 212400, Note_on_c, 0, 52, 90
1, 212400, Note_on_c, 0, 38, 63
1, 212450, Note_on_c, 0, 38, 0
1, 212520, Note_on_c, 0, 69, 63
1, 212520, Note_on_c, 0, 67, 63
1, 212630, Note_on_c, 0, 52, 0
1, 212630, Note_on_c, 0, 69, 0
1, 212630, Note_on_c, 0, 67, 0
1, 212640, Note_on_c, 0, 69, 63
1, 212640, Note_on_c, 0, 67, 63
1, 212640, Note_on_c, 0, 50, 90
1, 212640, Note_on_c, 0, 38, 63
1, 212690, Note_on_c, 0, 38, 0
1, 212750, Note_on_c, 0, 79, 0
1, 212750, Note_on_c, 0, 69, 0
1, 212750, Note_on_c, 0, 67, 0
1, 212760, Note_on_c, 0, 78, 63
1, 212760, Note_on_c, 0, 66, 63
1, 212870, Note_on_c, 0, 78, 0
1, 212870, Note_on_c, 0, 66, 0
1, 212870, Note_on_c, 0, 50, 0
1, 212880, Note_on_c, 0, 79, 63
1, 212880, Note_on_c, 0, 69, 63
1, 212880, Note_on_c, 0, 67, 63
1, 212880, Note_on_c, 0, 52, 90
1, 212880, Note_on_c, 0, 40, 63
1, 212930, Note_on_c, 0, 40, 0
1, 212990, Note_on_c, 0, 79, 0
1, 212990, Note_on_c, 0, 69, 0
1, 212990, Note_on_c, 0, 67, 0
1, 213000, Note_on_c, 0, 76, 63
1, 213000, Note_on_c, 0, 64, 63
1, 213110, Note_on_c, 0, 76, 0
1, 213110, Note_on_c, 0, 64, 0
1, 213110, Note_on_c, 0, 52, 0
1, 213120, Note_on_c, 0, 74, 63
1, 213120, Note_on_c, 0, 69, 63
1, 213120, Note_on_c, 0, 62, 63
1, 213120, Note_on_c, 0, 45, 90
1, 213120, Note_on_c, 0, 33, 63
1, 213170, Note_on_c, 0, 33, 0
1, 213230, Note_on_c, 0, 74, 0
1, 213230, Note_on_c, 0, 69, 0
1, 213230, Note_on_c, 0, 62, 0
1, 213240, Note_on_c, 0, 73, 63
1, 213240, Note_on_c, 0, 61, 63
1, 213350, Note_on_c, 0, 73, 0
1, 213350, Note_on_c, 0, 61, 0
1, 213350, Note_on_c, 0, 45, 0
1, 213360, Note_on_c, 0, 76, 63
1, 213360, Note_on_c, 0, 69, 63
1, 213360, Note_on_c, 0, 64, 63
1, 213360, Note_on_c, 0, 54, 90
1, 213360, Note_on_c, 0, 42, 63
1, 213410, Note_on_c, 0, 42, 0
1, 213470, Note_on_c, 0, 76, 0
1, 213470, Note_on_c, 0, 69, 0
1, 213470, Note_on_c, 0, 64, 0
1, 213480, Note_on_c, 0, 74, 63
1, 213480, Note_on_c, 0, 62, 63
1, 213590, Note_on_c, 0, 74, 0
1, 213590, Note_on_c, 0, 62, 0
1, 213600, Note_on_c, 0, 81, 63
1, 213600, Note_on_c, 0, 69, 63
1, 213600, Note_on_c, 0, 74, 63
1, 213600, Note_on_c, 0, 42, 63
1, 213650, Note_on_c, 0, 42, 0
1, 213830, Note_on_c, 0, 81, 0
1, 213830, Note_on_c, 0, 69, 0
1, 213830, Note_on_c, 0, 74, 0
1, 213839, Note_on_c, 0, 54, 0
1, 213840, Note_on_c, 0, 75, 63
1, 213840, Note_on_c, 0, 63, 63
1, 213840, Note_on_c, 0, 54, 90
1, 213960, Note_on_c, 0, 81, 63
1, 213960, Note_on_c, 0, 69, 63
1, 214070, Note_on_c, 0, 75, 0
1, 214070, Note_on_c, 0, 63, 0
1, 214070, Note_on_c, 0, 54, 0
1, 214070, Note_on_c, 0, 81, 0
1, 214070, Note_on_c, 0, 69, 0
1, 214080, Note_on_c, 0, 81, 63
1, 214080, Note_on_c, 0, 69, 63
1, 214080, Note_on_c, 0, 76, 63
1, 214080, Note_on_c, 0, 64, 63
1, 214080, Note_on_c, 0, 55, 90
1, 214310, Note_on_c, 0, 81, 0
1, 214310, Note_on_c, 0, 69, 0
1, 214310, Note_on_c, 0, 76, 0
1, 214310, Note_on_c, 0, 64, 0
1, 214310, Note_on_c, 0, 55, 0
1, 214320, Note_on_c, 0, 78, 63
1, 214320, Note_on_c, 0, 66, 63
1, 214320, Note_on_c, 0, 57, 90
1, 214440, Note_on_c, 0, 81, 63
1, 214440, Note_on_c, 0, 69, 63
1, 214550, Note_on_c, 0, 78, 0
1, 214550, Note_on_c, 0, 66, 0
1, 214550, Note_on_c, 0, 57, 0
1, 214550, Note_on_c, 0, 81, 0
1, 214550, Note_on_c, 0, 69, 0
1, 214560, Note_on_c, 0, 83, 63
1, 214560, Note_on_c, 0, 71, 63
1, 214560, Note_on_c, 0, 78, 63
1, 214560, Note_on_c, 0, 66, 63
1, 214560, Note_on_c, 0, 57, 90
1, 214790, Note_on_c, 0, 83, 0
1, 214790, Note_on_c, 0, 71, 0
1, 214790, Note_on_c, 0, 78, 0
1, 214790, Note_on_c, 0, 66, 0
1, 214790, Note_on_c, 0, 57, 0
1, 214800, Note_on_c, 0, 76, 63
1, 214800, Note_on_c, 0, 64, 63
1, 214800, Note_on_c, 0, 55, 90
1, 214920, Note_on_c, 0, 83, 63
1, 214920, Note_on_c, 0, 71, 63
1, 215030, Note_on_c, 0, 76, 0
1, 215030, Note_on_c, 0, 64, 0
1, 215030, Note_on_c, 0, 55, 0
1, 215030, Note_on_c, 0, 83, 0
1, 215030, Note_on_c, 0, 71, 0
1, 215040, Note_on_c, 0, 83, 63
1, 215040, Note_on_c, 0, 71, 63
1, 215040, Note_on_c, 0, 57, 63
1, 215040, Note_on_c, 0, 54, 90
1, 215270, Note_on_c, 0, 83, 0
1, 215270, Note_on_c, 0, 71, 0
1, 215270, Note_on_c, 0, 57, 0
1, 215270, Note_on_c, 0, 54, 0
1, 215280, Note_on_c, 0, 59, 63
1, 215280, Note_on_c, 0, 55, 90
1, 215390, Note_on_c, 0, 59, 0
1, 215390, Note_on_c, 0, 55, 0
1, 215400, Note_on_c, 0, 81, 63
1, 215400, Note_on_c, 0, 85, 63
1, 215400, Note_on_c, 0, 73, 63
1, 215400, Note_on_c, 0, 55, 63
1, 215400, Note_on_c, 0, 52, 90
1, 215510, Note_on_c, 0, 81, 0
1, 215510, Note_on_c, 0, 85, 0
1, 215510, Note_on_c, 0, 73, 0
1, 215510, Note_on_c, 0, 55, 0
1, 215510, Note_on_c, 0, 52, 0
1, 215520, Note_on_c, 0, 86, 63
1, 215520, Note_on_c, 0, 74, 63
1, 215520, Note_on_c, 0, 54, 63
1, 215520, Note_on_c, 0, 50, 90
1, 215630, Note_on_c, 0, 86, 0
1, 215630, Note_on_c, 0, 74, 0
1, 215640, Note_on_c, 0, 81, 63
1, 215750, Note_on_c, 0, 81, 0
1, 215750, Note_on_c, 0, 54, 0
1, 215750, Note_on_c, 0, 50, 0
1, 215760, Note_on_c, 0, 83, 63
1, 215760, Note_on_c, 0, 54, 63
1, 215760, Note_on_c, 0, 50, 90
1, 215870, Note_on_c, 0, 83, 0
1, 215880, Note_on_c, 0, 81, 63
1, 215880, Note_on_c, 0, 69, 63
1, 215990, Note_on_c, 0, 81, 0
1, 215990, Note_on_c, 0, 54, 0
1, 215990, Note_on_c, 0, 50, 0
1, 215990, Note_on_c, 0, 69, 0
1, 216000, Note_on_c, 0, 79, 63
1, 216000, Note_on_c, 0, 69, 63
1, 216000, Note_on_c, 0, 55, 63
1, 216000, Note_on_c, 0, 52, 90
1, 216110, Note_on_c, 0, 79, 0
1, 216110, Note_on_c, 0, 69, 0
1, 216120, Note_on_c, 0, 78, 63
1, 216230, Note_on_c, 0, 78, 0
1, 216230, Note_on_c, 0, 55, 0
1, 216230, Note_on_c, 0, 52, 0
1, 216240, Note_on_c, 0, 76, 63
1, 216240, Note_on_c, 0, 69, 63
1, 216240, Note_on_c, 0, 57, 63
1, 216240, Note_on_c, 0, 54, 90
1, 216350, Note_on_c, 0, 76, 0
1, 216350, Note_on_c, 0, 69, 0
1, 216360, Note_on_c, 0, 74, 63
1, 216360, Note_on_c, 0, 62, 63
1, 216470, Note_on_c, 0, 74, 0
1, 216470, Note_on_c, 0, 62, 0
1, 216470, Note_on_c, 0, 57, 0
1, 216470, Note_on_c, 0, 54, 0
1, 216480, Note_on_c, 0, 79, 63
1, 216480, Note_on_c, 0, 69, 63
1, 216480, Note_on_c, 0, 61, 63
1, 216480, Note_on_c, 0, 52, 90
1, 216710, Note_on_c, 0, 69, 0
1, 216710, Note_on_c, 0, 61, 0
1, 216720, Note_on_c, 0, 73, 63
1, 216720, Note_on_c, 0, 57, 63
1, 216830, Note_on_c, 0, 79, 0
1, 216830, Note_on_c, 0, 73, 0
1, 216830, Note_on_c, 0, 52, 0
1, 216840, Note_on_c, 0, 78, 63
1, 216840, Note_on_c, 0, 74, 63
1, 216840, Note_on_c, 0, 50, 90
1, 216950, Note_on_c, 0, 78, 0
1, 216950, Note_on_c, 0, 74, 0
1, 216950, Note_on_c, 0, 57, 0
1, 216950, Note_on_c, 0, 50, 0
1, 216960, Note_on_c, 0, 78, 63
1, 216960, Note_on_c, 0, 74, 63
1, 216960, Note_on_c, 0, 66, 63
1, 216960, Note_on_c, 0, 62, 63
1, 216960, Note_on_c, 0, 57, 90
1, 216960, Note_on_c, 0, 50, 90
1, 217070, Note_on_c, 0, 78, 0
1, 217070, Note_on_c, 0, 74, 0
1, 217070, Note_on_c, 0, 66, 0
1, 217070, Note_on_c, 0, 62, 0
1, 217070, Note_on_c, 0, 57, 0
1, 217070, Note_on_c, 0, 50, 0
1, 217080, Note_on_c, 0, 74, 63
1, 217080, Note_on_c, 0, 66, 63
1, 217080, Note_on_c, 0, 62, 63
1, 217190, Note_on_c, 0, 74, 0
1, 217190, Note_on_c, 0, 66, 0
1, 217190, Note_on_c, 0, 62, 0
1, 217200, Note_on_c, 0, 76, 63
1, 217200, Note_on_c, 0, 67, 63
1, 217200, Note_on_c, 0, 64, 63
1, 217310, Note_on_c, 0, 76, 0
1, 217310, Note_on_c, 0, 67, 0
1, 217310, Note_on_c, 0, 64, 0
1, 217320, Note_on_c, 0, 78, 63
1, 217320, Note_on_c, 0, 69, 63
1, 217320, Note_on_c, 0, 66, 63
1, 217430, Note_on_c, 0, 78, 0
1, 217430, Note_on_c, 0, 69, 0
1, 217430, Note_on_c, 0, 66, 0
1, 217440, Note_on_c, 0, 79, 63
1, 217440, Note_on_c, 0, 67, 63
1, 217440, Note_on_c, 0, 52, 90
1, 217440, Note_on_c, 0, 40, 90
1, 217496, Control_c, 0, 64, 127
1, 217560, Note_on_c, 0, 57, 63
1, 217560, Note_on_c, 0, 45, 63
1, 217670, Note_on_c, 0, 79, 0
1, 217670, Note_on_c, 0, 67, 0
1, 217670, Note_on_c, 0, 52, 0
1, 217670, Note_on_c, 0, 40, 0
1, 217670, Note_on_c, 0, 57, 0
1, 217670, Note_on_c, 0, 45, 0
1, 217680, Note_on_c, 0, 73, 63
1, 217680, Note_on_c, 0, 61, 63
1, 217680, Note_on_c, 0, 52, 90
1, 217680, Note_on_c, 0, 40, 90
1, 217800, Note_on_c, 0, 69, 63
1, 217800, Note_on_c, 0, 57, 63
1, 217800, Note_on_c, 0, 45, 63
1, 217855, Control_c, 0, 64, 0
1, 217910, Note_on_c, 0, 73, 0
1, 217910, Note_on_c, 0, 61, 0
1, 217910, Note_on_c, 0, 52, 0
1, 217910, Note_on_c, 0, 40, 0
1, 217910, Note_on_c, 0, 69, 0
1, 217910, Note_on_c, 0, 57, 0
1, 217910, Note_on_c, 0, 45, 0
1, 217920, Note_on_c, 0, 74, 63
1, 217920, Note_on_c, 0, 62, 63
1, 217920, Note_on_c, 0, 69, 63
1, 217920, Note_on_c, 0, 54, 90
1, 217920, Note_on_c, 0, 42, 90
1, 217938, Control_c, 0, 64, 127
1, 218040, Note_on_c, 0, 57, 63
1, 218040, Note_on_c, 0, 45, 63
1, 218150, Note_on_c, 0, 74, 0
1, 218150, Note_on_c, 0, 62, 0
1, 218150, Note_on_c, 0, 69, 0
1, 218150, Note_on_c, 0, 54, 0
1, 218150, Note_on_c, 0, 42, 0
1, 218150, Note_on_c, 0, 57, 0
1, 218150, Note_on_c, 0, 45, 0
1, 218160, Note_on_c, 0, 76, 63
1, 218160, Note_on_c, 0, 64, 63
1, 218160, Note_on_c, 0, 50, 90
1, 218160, Note_on_c, 0, 38, 90
1, 218270, Note_on_c, 0, 76, 0
1, 218270, Note_on_c, 0, 64, 0
1, 218280, Note_on_c, 0, 78, 63
1, 218280, Note_on_c, 0, 66, 63
1, 218280, Note_on_c, 0, 69, 63
1, 218280, Note_on_c, 0, 57, 63
1, 218280, Note_on_c, 0, 45, 63
1, 218366, Control_c, 0, 64, 0
1, 218390, Note_on_c, 0, 78, 0
1, 218390, Note_on_c, 0, 66, 0
1, 218390, Note_on_c, 0, 50, 0
1, 218390, Note_on_c, 0, 38, 0
1, 218390, Note_on_c, 0, 69, 0
1, 218390, Note_on_c, 0, 57, 0
1, 218390, Note_on_c, 0, 45, 0
1, 218400, Note_on_c, 0, 79, 63
1, 218400, Note_on_c, 0, 67, 63
1, 218400, Note_on_c, 0, 69, 63
1, 218400, Note_on_c, 0, 52, 90
1, 218400, Note_on_c, 0, 40, 90
1, 218469, Control_c, 0, 64, 127
1, 218510, Note_on_c, 0, 79, 0
1, 218510, Note_on_c, 0, 67, 0
1, 218520, Note_on_c, 0, 73, 63
1, 218520, Note_on_c, 0, 61, 63
1, 218520, Note_on_c, 0, 57, 63
1, 218520, Note_on_c, 0, 45, 63
1, 218630, Note_on_c, 0, 73, 0
1, 218630, Note_on_c, 0, 61, 0
1, 218630, Note_on_c, 0, 69, 0
1, 218630, Note_on_c, 0, 52, 0
1, 218630, Note_on_c, 0, 40, 0
1, 218630, Note_on_c, 0, 57, 0
1, 218630, Note_on_c, 0, 45, 0
1, 218640, Note_on_c, 0, 74, 63
1, 218640, Note_on_c, 0, 62, 63
1, 218640, Note_on_c, 0, 54, 90
1, 218640, Note_on_c, 0, 42, 90
1, 218750, Note_on_c, 0, 74, 0
1, 218750, Note_on_c, 0, 62, 0
1, 218760, Note_on_c, 0, 76, 63
1, 218760, Note_on_c, 0, 64, 63
1, 218760, Note_on_c, 0, 69, 63
1, 218760, Note_on_c, 0, 55, 63
1, 218760, Note_on_c, 0, 43, 63
1, 218867, Control_c, 0, 64, 0
1, 218870, Note_on_c, 0, 76, 0
1, 218870, Note_on_c, 0, 64, 0
1, 218870, Note_on_c, 0, 54, 0
1, 218870, Note_on_c, 0, 42, 0
1, 218870, Note_on_c, 0, 69, 0
1, 218870, Note_on_c, 0, 55, 0
1, 218870, Note_on_c, 0, 43, 0
1, 218880, Note_on_c, 0, 74, 63
1, 218880, Note_on_c, 0, 62, 63
1, 218880, Note_on_c, 0, 69, 63
1, 218880, Note_on_c, 0, 54, 90
1, 218880, Note_on_c, 0, 42, 90
1, 218973, Control_c, 0, 64, 127
1, 219000, Note_on_c, 0, 57, 63
1, 219000, Note_on_c, 0, 45, 63
1, 219110, Note_on_c, 0, 74, 0
1, 219110, Note_on_c, 0, 62, 0
1, 219110, Note_on_c, 0, 69, 0
1, 219110, Note_on_c, 0, 54, 0
1, 219110, Note_on_c, 0, 42, 0
1, 219110, Note_on_c, 0, 57, 0
1, 219110, Note_on_c, 0, 45, 0
1, 219120, Note_on_c, 0, 76, 63
1, 219120, Note_on_c, 0, 64, 63
1, 219120, Note_on_c, 0, 50, 90
1, 219120, Note_on_c, 0, 38, 90
1, 219230, Note_on_c, 0, 76, 0
1, 219230, Note_on_c, 0, 64, 0
1, 219240, Note_on_c, 0, 78, 63
1, 219240, Note_on_c, 0, 66, 63
1, 219240, Note_on_c, 0, 69, 63
1, 219240, Note_on_c, 0, 57, 63
1, 219240, Note_on_c, 0, 45, 63
1, 219249, Control_c, 0, 64, 0
1, 219350, Note_on_c, 0, 78, 0
1, 219350, Note_on_c, 0, 66, 0
1, 219350, Note_on_c, 0, 50, 0
1, 219350, Note_on_c, 0, 38, 0
1, 219350, Note_on_c, 0, 69, 0
1, 219350, Note_on_c, 0, 57, 0
1, 219350, Note_on_c, 0, 45, 0
1, 219360, Note_on_c, 0, 79, 63
1, 219360, Note_on_c, 0, 67, 63
1, 219360, Note_on_c, 0, 69, 63
1, 219360, Note_on_c, 0, 52, 90
1, 219360, Note_on_c, 0, 40, 90
1, 219470, Note_on_c, 0, 79, 0
1, 219470, Note_on_c, 0, 67, 0
1, 219480, Note_on_c, 0, 73, 63
1, 219480, Note_on_c, 0, 61, 63
1, 219480, Note_on_c, 0, 57, 63
1, 219480, Note_on_c, 0, 45, 63
1, 219525, Control_c, 0, 64, 127
1, 219590, Note_on_c, 0, 73, 0
1, 219590, Note_on_c, 0, 61, 0
1, 219590, Note_on_c, 0, 69, 0
1, 219590, Note_on_c, 0, 52, 0
1, 219590, Note_on_c, 0, 40, 0
1, 219590, Note_on_c, 0, 57, 0
1, 219590, Note_on_c, 0, 45, 0
1, 219600, Note_on_c, 0, 74, 63
1, 219600, Note_on_c, 0, 62, 63
1, 219600, Note_on_c, 0, 54, 90
1, 219600, Note_on_c, 0, 42, 90
1, 219710, Note_on_c, 0, 74, 0
1, 219710, Note_on_c, 0, 62, 0
1, 219720, Note_on_c, 0, 76, 63
1, 219720, Note_on_c, 0, 64, 63
1, 219720, Note_on_c, 0, 69, 63
1, 219720, Note_on_c, 0, 55, 63
1, 219720, Note_on_c, 0, 43, 63
1, 219830, Note_on_c, 0, 76, 0
1, 219830, Note_on_c, 0, 64, 0
1, 219830, Note_on_c, 0, 54, 0
1, 219830, Note_on_c, 0, 42, 0
1, 219830, Note_on_c, 0, 69, 0
1, 219830, Note_on_c, 0, 55, 0
1, 219830, Note_on_c, 0, 43, 0
1, 219840, Note_on_c, 0, 74, 63
1, 219840, Note_on_c, 0, 62, 63
1, 219840, Note_on_c, 0, 69, 63
1, 219840, Note_on_c, 0, 54, 90
1, 219840, Note_on_c, 0, 42, 90
1, 219950, Note_on_c, 0, 74, 0
1, 219950, Note_on_c, 0, 62, 0
1, 219960, Note_on_c, 0, 76, 63
1, 219960, Note_on_c, 0, 64, 63
1, 219960, Note_on_c, 0, 57, 63
1, 219960, Note_on_c, 0, 45, 63
1, 220070, Note_on_c, 0, 76, 0
1, 220070, Note_on_c, 0, 64, 0
1, 220070, Note_on_c, 0, 69, 0
1, 220070, Note_on_c, 0, 54, 0
1, 220070, Note_on_c, 0, 42, 0
1, 220070, Note_on_c, 0, 57, 0
1, 220070, Note_on_c, 0, 45, 0
1, 220080, Note_on_c, 0, 78, 63
1, 220080, Note_on_c, 0, 66, 63
1, 220080, Note_on_c, 0, 52, 90
1, 220080, Note_on_c, 0, 40, 90
1, 220122, Control_c, 0, 64, 0
1, 220190, Note_on_c, 0, 78, 0
1, 220190, Note_on_c, 0, 66, 0
1, 220200, Note_on_c, 0, 79, 63
1, 220200, Note_on_c, 0, 67, 63
1, 220200, Note_on_c, 0, 57, 63
1, 220200, Note_on_c, 0, 45, 63
1, 220310, Note_on_c, 0, 52, 0
1, 220310, Note_on_c, 0, 40, 0
1, 220310, Note_on_c, 0, 57, 0
1, 220310, Note_on_c, 0, 45, 0
1, 220320, Note_on_c, 0, 50, 90
1, 220320, Note_on_c, 0, 38, 90
1, 220430, Note_on_c, 0, 79, 0
1, 220430, Note_on_c, 0, 67, 0
1, 220440, Note_on_c, 0, 78, 63
1, 220440, Note_on_c, 0, 66, 63
1, 220440, Note_on_c, 0, 57, 63
1, 220440, Note_on_c, 0, 45, 63
1, 220550, Note_on_c, 0, 78, 0
1, 220550, Note_on_c, 0, 66, 0
1, 220550, Note_on_c, 0, 50, 0
1, 220550, Note_on_c, 0, 38, 0
1, 220550, Note_on_c, 0, 57, 0
1, 220550, Note_on_c, 0, 45, 0
1, 220560, Note_on_c, 0, 79, 63
1, 220560, Note_on_c, 0, 67, 63
1, 220560, Note_on_c, 0, 52, 90
1, 220560, Note_on_c, 0, 40, 90
1, 220670, Note_on_c, 0, 79, 0
1, 220670, Note_on_c, 0, 67, 0
1, 220680, Note_on_c, 0, 88, 63
1, 220680, Note_on_c, 0, 76, 63
1, 220680, Note_on_c, 0, 57, 63
1, 220680, Note_on_c, 0, 45, 63
1, 220790, Note_on_c, 0, 88, 0
1, 220790, Note_on_c, 0, 76, 0
1, 220790, Note_on_c, 0, 52, 0
1, 220790, Note_on_c, 0, 40, 0
1, 220790, Note_on_c, 0, 57, 0
1, 220790, Note_on_c, 0, 45, 0
1, 220800, Note_on_c, 0, 86, 63
1, 220800, Note_on_c, 0, 74, 63
1, 220800, Note_on_c, 0, 45, 90
1, 220800, Note_on_c, 0, 33, 90
1, 220910, Note_on_c, 0, 86, 0
1, 220910, Note_on_c, 0, 74, 0
1, 220920, Note_on_c, 0, 85, 63
1, 220920, Note_on_c, 0, 73, 63
1, 221030, Note_on_c, 0, 85, 0
1, 221030, Note_on_c, 0, 73, 0
1, 221030, Note_on_c, 0, 45, 0
1, 221030, Note_on_c, 0, 33, 0
1, 221040, Note_on_c, 0, 88, 63
1, 221040, Note_on_c, 0, 76, 63
1, 221040, Note_on_c, 0, 81, 63
1, 221040, Note_on_c, 0, 54, 90
1, 221040, Note_on_c, 0, 42, 90
1, 221138, Control_c, 0, 64, 127
1, 221150, Note_on_c, 0, 88, 0
1, 221150, Note_on_c, 0, 76, 0
1, 221160, Note_on_c, 0, 86, 63
1, 221160, Note_on_c, 0, 74, 63
1, 221270, Note_on_c, 0, 86, 0
1, 221270, Note_on_c, 0, 74, 0
1, 221270, Note_on_c, 0, 81, 0
1, 221280, Note_on_c, 0, 81, 63
1, 221280, Note_on_c, 0, 69, 63
1, 221280, Note_on_c, 0, 74, 63
1, 221400, Note_on_c, 0, 62, 63
1, 221501, Control_c, 0, 64, 0
1, 221510, Note_on_c, 0, 81, 0
1, 221510, Note_on_c, 0, 69, 0
1, 221510, Note_on_c, 0, 74, 0
1, 221510, Note_on_c, 0, 54, 0
1, 221510, Note_on_c, 0, 42, 0
1, 221510, Note_on_c, 0, 62, 0
1, 221520, Note_on_c, 0, 75, 63
1, 221520, Note_on_c, 0, 54, 90
1, 221520, Note_on_c, 0, 42, 90
1, 221640, Note_on_c, 0, 81, 63
1, 221640, Note_on_c, 0, 69, 63
1, 221640, Note_on_c, 0, 63, 63
1, 221750, Note_on_c, 0, 75, 0
1, 221750, Note_on_c, 0, 54, 0
1, 221750, Note_on_c, 0, 42, 0
1, 221750, Note_on_c, 0, 81, 0
1, 221750, Note_on_c, 0, 69, 0
1, 221750, Note_on_c, 0, 63, 0
1, 221760, Note_on_c, 0, 81, 63
1, 221760, Note_on_c, 0, 69, 63
1, 221760, Note_on_c, 0, 76, 63
1, 221760, Note_on_c, 0, 55, 90
1, 221760, Note_on_c, 0, 43, 90
1, 221880, Note_on_c, 0, 64, 63
1, 221990, Note_on_c, 0, 81, 0
1, 221990, Note_on_c, 0, 69, 0
1, 221990, Note_on_c, 0, 76, 0
1, 221990, Note_on_c, 0, 55, 0
1, 221990, Note_on_c, 0, 43, 0
1, 221990, Note_on_c, 0, 64, 0
1, 222000, Note_on_c, 0, 78, 63
1, 222000, Note_on_c, 0, 57, 90
1, 222000, Note_on_c, 0, 45, 90
1, 222120, Note_on_c, 0, 81, 63
1, 222120, Note_on_c, 0, 69, 63
1, 222120, Note_on_c, 0, 66, 63
1, 222230, Note_on_c, 0, 78, 0
1, 222230, Note_on_c, 0, 57, 0
1, 222230, Note_on_c, 0, 45, 0
1, 222230, Note_on_c, 0, 81, 0
1, 222230, Note_on_c, 0, 69, 0
1, 222230, Note_on_c, 0, 66, 0
1, 222240, Note_on_c, 0, 83, 63
1, 222240, Note_on_c, 0, 71, 63
1, 222240, Note_on_c, 0, 78, 63
1, 222240, Note_on_c, 0, 57, 90
1, 222240, Note_on_c, 0, 45, 90
1, 222360, Note_on_c, 0, 66, 63
1, 222470, Note_on_c, 0, 83, 0
1, 222470, Note_on_c, 0, 71, 0
1, 222470, Note_on_c, 0, 78, 0
1, 222470, Note_on_c, 0, 57, 0
1, 222470, Note_on_c, 0, 45, 0
1, 222470, Note_on_c, 0, 66, 0
1, 222480, Note_on_c, 0, 76, 63
1, 222480, Note_on_c, 0, 55, 90
1, 222480, Note_on_c, 0, 43, 90
1, 222600, Note_on_c, 0, 83, 63
1, 222600, Note_on_c, 0, 71, 63
1, 222600, Note_on_c, 0, 64, 63
1, 222710, Note_on_c, 0, 76, 0
1, 222710, Note_on_c, 0, 55, 0
1, 222710, Note_on_c, 0, 43, 0
1, 222710, Note_on_c, 0, 83, 0
1, 222710, Note_on_c, 0, 71, 0
1, 222710, Note_on_c, 0, 64, 0
1, 222720, Note_on_c, 0, 81, 63
1, 222720, Note_on_c, 0, 83, 63
1, 222720, Note_on_c, 0, 71, 63
1, 222720, Note_on_c, 0, 54, 90
1, 222720, Note_on_c, 0, 42, 90
1, 222840, Note_on_c, 0, 57, 63
1, 222840, Note_on_c, 0, 45, 63
1, 222950, Note_on_c, 0, 81, 0
1, 222950, Note_on_c, 0, 83, 0
1, 222950, Note_on_c, 0, 71, 0
1, 222950, Note_on_c, 0, 54, 0
1, 222950, Note_on_c, 0, 42, 0
1, 222950, Note_on_c, 0, 57, 0
1, 222950, Note_on_c, 0, 45, 0
1, 222960, Note_on_c, 0, 55, 90
1, 222960, Note_on_c, 0, 43, 90
1, 223070, Note_on_c, 0, 55, 0
1, 223070, Note_on_c, 0, 43, 0
1, 223080, Note_on_c, 0, 79, 63
1, 223080, Note_on_c, 0, 85, 63
1, 223080, Note_on_c, 0, 73, 63
1, 223080, Note_on_c, 0, 52, 90
1, 223080, Note_on_c, 0, 40, 90
1, 223190, Note_on_c, 0, 79, 0
1, 223190, Note_on_c, 0, 85, 0
1, 223190, Note_on_c, 0, 73, 0
1, 223190, Note_on_c, 0, 52, 0
1, 223190, Note_on_c, 0, 40, 0
1, 223200, Note_on_c, 0, 78, 63
1, 223200, Note_on_c, 0, 86, 63
1, 223200, Note_on_c, 0, 74, 63
1, 223200, Note_on_c, 0, 50, 90
1, 223200, Note_on_c, 0, 38, 90
1, 223292, Control_c, 0, 64, 127
1, 223310, Note_on_c, 0, 78, 0
1, 223310, Note_on_c, 0, 86, 0
1, 223310, Note_on_c, 0, 74, 0
1, 223320, Note_on_c, 0, 93, 63
1, 223320, Note_on_c, 0, 81, 63
1, 223320, Note_on_c, 0, 62, 63
1, 223320, Note_on_c, 0, 54, 63
1, 223430, Note_on_c, 0, 93, 0
1, 223430, Note_on_c, 0, 81, 0
1, 223430, Note_on_c, 0, 62, 0
1, 223430, Note_on_c, 0, 50, 0
1, 223430, Note_on_c, 0, 38, 0
1, 223430, Note_on_c, 0, 54, 0
1, 223440, Note_on_c, 0, 95, 63
1, 223440, Note_on_c, 0, 83, 63
1, 223440, Note_on_c, 0, 50, 90
1, 223440, Note_on_c, 0, 38, 90
1, 223550, Note_on_c, 0, 95, 0
1, 223550, Note_on_c, 0, 83, 0
1, 223560, Note_on_c, 0, 93, 63
1, 223560, Note_on_c, 0, 81, 63
1, 223560, Note_on_c, 0, 62, 63
1, 223560, Note_on_c, 0, 54, 63
1, 223670, Note_on_c, 0, 93, 0
1, 223670, Note_on_c, 0, 81, 0
1, 223670, Note_on_c, 0, 50, 0
1, 223670, Note_on_c, 0, 38, 0
1, 223670, Note_on_c, 0, 62, 0
1, 223670, Note_on_c, 0, 54, 0
1, 223680, Note_on_c, 0, 91, 63
1, 223680, Note_on_c, 0, 79, 63
1, 223680, Note_on_c, 0, 52, 90
1, 223680, Note_on_c, 0, 40, 90
1, 223757, Control_c, 0, 64, 0
1, 223790, Note_on_c, 0, 91, 0
1, 223790, Note_on_c, 0, 79, 0
1, 223800, Note_on_c, 0, 90, 63
1, 223800, Note_on_c, 0, 78, 63
1, 223800, Note_on_c, 0, 62, 63
1, 223800, Note_on_c, 0, 55, 63
1, 223910, Note_on_c, 0, 90, 0
1, 223910, Note_on_c, 0, 78, 0
1, 223910, Note_on_c, 0, 52, 0
1, 223910, Note_on_c, 0, 40, 0
1, 223910, Note_on_c, 0, 62, 0
1, 223910, Note_on_c, 0, 55, 0
1, 223920, Note_on_c, 0, 88, 63
1, 223920, Note_on_c, 0, 76, 63
1, 223920, Note_on_c, 0, 54, 90
1, 223920, Note_on_c, 0, 42, 90
1, 224030, Note_on_c, 0, 88, 0
1, 224030, Note_on_c, 0, 76, 0
1, 224040, Note_on_c, 0, 86, 63
1, 224040, Note_on_c, 0, 74, 63
1, 224040, Note_on_c, 0, 62, 63
1, 224040, Note_on_c, 0, 57, 63
1, 224150, Note_on_c, 0, 86, 0
1, 224150, Note_on_c, 0, 74, 0
1, 224150, Note_on_c, 0, 54, 0
1, 224150, Note_on_c, 0, 42, 0
1, 224150, Note_on_c, 0, 62, 0
1, 224150, Note_on_c, 0, 57, 0
1, 224160, Note_on_c, 0, 79, 63
1, 224160, Note_on_c, 0, 67, 63
1, 224160, Note_on_c, 0, 52, 90
1, 224160, Note_on_c, 0, 40, 90
1, 224280, Note_on_c, 0, 61, 63
1, 224280, Note_on_c, 0, 57, 63
1, 224280, Control_c, 0, 64, 127
1, 224390, Note_on_c, 0, 52, 0
1, 224390, Note_on_c, 0, 40, 0
1, 224390, Note_on_c, 0, 61, 0
1, 224390, Note_on_c, 0, 57, 0
1, 224400, Note_on_c, 0, 73, 63
1, 224400, Note_on_c, 0, 52, 90
1, 224400, Note_on_c, 0, 40, 90
1, 224415, Control_c, 0, 64, 0
1, 224510, Note_on_c, 0, 79, 0
1, 224510, Note_on_c, 0, 67, 0
1, 224510, Note_on_c, 0, 73, 0
1, 224510, Note_on_c, 0, 52, 0
1, 224510, Note_on_c, 0, 40, 0
1, 224520, Note_on_c, 0, 78, 63
1, 224520, Note_on_c, 0, 66, 63
1, 224520, Note_on_c, 0, 74, 63
1, 224520, Note_on_c, 0, 50, 90
1, 224520, Note_on_c, 0, 38, 90
1, 224630, Note_on_c, 0, 78, 0
1, 224630, Note_on_c, 0, 66, 0
1, 224630, Note_on_c, 0, 74, 0
1, 224630, Note_on_c, 0, 50, 0
1, 224630, Note_on_c, 0, 38, 0
1, 224640, Note_on_c, 0, 74, 63
1, 224640, Note_on_c, 0, 78, 63
1, 224640, Note_on_c, 0, 66, 63
1, 224640, Note_on_c, 0, 50, 90
1, 224640, Note_on_c, 0, 38, 90
1, 224760, Note_on_c, 0, 62, 100
1, 224760, Note_on_c, 0, 54, 100
1, 224870, Note_on_c, 0, 74, 0
1, 224870, Note_on_c, 0, 78, 0
1, 224870, Note_on_c, 0, 66, 0
1, 224870, Note_on_c, 0, 50, 0
1, 224870, Note_on_c, 0, 38, 0
1, 224870, Note_on_c, 0, 62, 0
1, 224870, Note_on_c, 0, 54, 0
1, 224880, Note_on_c, 0, 57, 90
1, 224880, Note_on_c, 0, 45, 90
1, 225000, Note_on_c, 0, 74, 100
1, 225000, Note_on_c, 0, 78, 100
1, 225000, Note_on_c, 0, 66, 100
1, 225110, Note_on_c, 0, 57, 0
1, 225110, Note_on_c, 0, 45, 0
1, 225110, Note_on_c, 0, 74, 0
1, 225110, Note_on_c, 0, 78, 0
1, 225110, Note_on_c, 0, 66, 0
1, 225120, Note_on_c, 0, 73, 100
1, 225120, Note_on_c, 0, 76, 100
1, 225120, Note_on_c, 0, 81, 100
1, 225120, Note_on_c, 0, 69, 100
1, 225120, Note_on_c, 0, 55, 90
1, 225120, Note_on_c, 0, 43, 90
1, 225240, Note_on_c, 0, 64, 100
1, 225240, Note_on_c, 0, 61, 100
1, 225350, Note_on_c, 0, 73, 0
1, 225350, Note_on_c, 0, 76, 0
1, 225350, Note_on_c, 0, 81, 0
1, 225350, Note_on_c, 0, 69, 0
1, 225350, Note_on_c, 0, 64, 0
1, 225350, Note_on_c, 0, 61, 0
1, 225360, Note_on_c, 0, 64, 100
1, 225360, Note_on_c, 0, 69, 100
1, 225360, Note_on_c, 0, 61, 100
1, 225470, Note_on_c, 0, 64, 0
1, 225470, Note_on_c, 0, 69, 0
1, 225470, Note_on_c, 0, 61, 0
1, 225470, Note_on_c, 0, 55, 0
1, 225470, Note_on_c, 0, 43, 0
1, 225480, Note_on_c, 0, 74, 100
1, 225480, Note_on_c, 0, 78, 100
1, 225480, Note_on_c, 0, 81, 100
1, 225480, Note_on_c, 0, 69, 100
1, 225480, Note_on_c, 0, 54, 90
1, 225480, Note_on_c, 0, 42, 90
1, 225590, Note_on_c, 0, 74, 0
1, 225590, Note_on_c, 0, 78, 0
1, 225590, Note_on_c, 0, 81, 0
1, 225590, Note_on_c, 0, 69, 0
1, 225590, Note_on_c, 0, 54, 0
1, 225590, Note_on_c, 0, 42, 0
1, 225600, Note_on_c, 0, 74, 100
1, 225600, Note_on_c, 0, 78, 100
1, 225600, Note_on_c, 0, 81, 100
1, 225600, Note_on_c, 0, 69, 100
1, 225600, Note_on_c, 0, 54, 90
1, 225600, Note_on_c, 0, 42, 90
1, 225710, Note_on_c, 0, 54, 0
1, 225710, Note_on_c, 0, 42, 0
1, 225720, Note_on_c, 0, 66, 100
1, 225720, Note_on_c, 0, 62, 100
1, 225830, Note_on_c, 0, 74, 0
1, 225830, Note_on_c, 0, 78, 0
1, 225830, Note_on_c, 0, 81, 0
1, 225830, Note_on_c, 0, 69, 0
1, 225830, Note_on_c, 0, 66, 0
1, 225830, Note_on_c, 0, 62, 0
1, 225840, Note_on_c, 0, 69, 100
1, 225840, Note_on_c, 0, 66, 100
1, 225840, Note_on_c, 0, 62, 90
1, 225840, Note_on_c, 0, 50, 90
1, 225950, Note_on_c, 0, 69, 0
1, 225950, Note_on_c, 0, 66, 0
1, 225950, Note_on_c, 0, 62, 0
1, 225950, Note_on_c, 0, 50, 0
1, 225960, Note_on_c, 0, 78, 100
1, 225960, Note_on_c, 0, 81, 100
1, 225960, Note_on_c, 0, 86, 100
1, 225960, Note_on_c, 0, 74, 100
1, 226070, Note_on_c, 0, 78, 0
1, 226070, Note_on_c, 0, 81, 0
1, 226070, Note_on_c, 0, 86, 0
1, 226070, Note_on_c, 0, 74, 0
1, 226080, Note_on_c, 0, 78, 100
1, 226080, Note_on_c, 0, 81, 100
1, 226080, Note_on_c, 0, 86, 100
1, 226080, Note_on_c, 0, 74, 100
1, 226080, Note_on_c, 0, 60, 90
1, 226080, Note_on_c, 0, 48, 90
1, 226088, Control_c, 0, 64, 127
1, 226200, Note_on_c, 0, 69, 100
1, 226200, Note_on_c, 0, 66, 100
1, 226310, Note_on_c, 0, 78, 0
1, 226310, Note_on_c, 0, 81, 0
1, 226310, Note_on_c, 0, 86, 0
1, 226310, Note_on_c, 0, 74, 0
1, 226310, Note_on_c, 0, 69, 0
1, 226310, Note_on_c, 0, 66, 0
1, 226320, Note_on_c, 0, 69, 100
1, 226320, Note_on_c, 0, 74, 100
1, 226320, Note_on_c, 0, 66, 100
1, 226430, Note_on_c, 0, 69, 0
1, 226430, Note_on_c, 0, 74, 0
1, 226430, Note_on_c, 0, 66, 0
1, 226430, Note_on_c, 0, 60, 0
1, 226430, Note_on_c, 0, 48, 0
1, 226440, Note_on_c, 0, 79, 100
1, 226440, Note_on_c, 0, 83, 100
1, 226440, Note_on_c, 0, 86, 100
1, 226440, Note_on_c, 0, 74, 100
1, 226440, Note_on_c, 0, 59, 90
1, 226440, Note_on_c, 0, 47, 90
1, 226491, Control_c, 0, 64, 0
1, 226550, Note_on_c, 0, 79, 0
1, 226550, Note_on_c, 0, 83, 0
1, 226550, Note_on_c, 0, 86, 0
1, 226550, Note_on_c, 0, 74, 0
1, 226550, Note_on_c, 0, 59, 0
1, 226550, Note_on_c, 0, 47, 0
1, 226560, Note_on_c, 0, 79, 100
1, 226560, Note_on_c, 0, 83, 100
1, 226560, Note_on_c, 0, 86, 100
1, 226560, Note_on_c, 0, 74, 100
1, 226560, Note_on_c, 0, 59, 90
1, 226560, Note_on_c, 0, 47, 90
1, 226670, Note_on_c, 0, 59, 0
1, 226670, Note_on_c, 0, 47, 0
1, 226680, Note_on_c, 0, 74, 100
1, 226680, Note_on_c, 0, 67, 100
1, 226790, Note_on_c, 0, 79, 0
1, 226790, Note_on_c, 0, 83, 0
1, 226790, Note_on_c, 0, 86, 0
1, 226790, Note_on_c, 0, 74, 0
1, 226790, Note_on_c, 0, 74, 0
1, 226790, Note_on_c, 0, 67, 0
1, 226796, Control_c, 0, 64, 127
1, 226800, Note_on_c, 0, 76, 100
1, 226800, Note_on_c, 0, 71, 100
1, 226800, Note_on_c, 0, 67, 90
1, 226800, Note_on_c, 0, 55, 90
1, 226844, Control_c, 0, 64, 0
1, 226910, Note_on_c, 0, 76, 0
1, 226910, Note_on_c, 0, 71, 0
1, 226910, Note_on_c, 0, 67, 0
1, 226910, Note_on_c, 0, 55, 0
1, 226920, Note_on_c, 0, 88, 100
1, 226920, Note_on_c, 0, 91, 100
1, 226920, Note_on_c, 0, 79, 100
1, 226920, Note_on_c, 0, 64, 90
1, 226920, Note_on_c, 0, 52, 90
1, 227030, Note_on_c, 0, 88, 0
1, 227030, Note_on_c, 0, 91, 0
1, 227030, Note_on_c, 0, 79, 0
1, 227030, Note_on_c, 0, 64, 0
1, 227030, Note_on_c, 0, 52, 0
1, 227040, Note_on_c, 0, 88, 100
1, 227040, Note_on_c, 0, 91, 100
1, 227040, Note_on_c, 0, 79, 100
1, 227040, Note_on_c, 0, 62, 100
1, 227040, Note_on_c, 0, 50, 90
1, 227064, Control_c, 0, 64, 127
1, 227150, Note_on_c, 0, 62, 0
1, 227150, Note_on_c, 0, 50, 0
1, 227160, Note_on_c, 0, 69, 100
1, 227160, Note_on_c, 0, 76, 100
1, 227160, Note_on_c, 0, 67, 100
1, 227160, Note_on_c, 0, 61, 100
1, 227160, Note_on_c, 0, 49, 90
1, 227270, Note_on_c, 0, 88, 0
1, 227270, Note_on_c, 0, 91, 0
1, 227270, Note_on_c, 0, 79, 0
1, 227270, Note_on_c, 0, 69, 0
1, 227270, Note_on_c, 0, 76, 0
1, 227270, Note_on_c, 0, 67, 0
1, 227270, Note_on_c, 0, 61, 0
1, 227270, Note_on_c, 0, 49, 0
1, 227280, Note_on_c, 0, 69, 100
1, 227280, Note_on_c, 0, 76, 100
1, 227280, Note_on_c, 0, 67, 100
1, 227280, Note_on_c, 0, 64, 100
1, 227280, Note_on_c, 0, 52, 90
1, 227390, Note_on_c, 0, 69, 0
1, 227390, Note_on_c, 0, 76, 0
1, 227390, Note_on_c, 0, 67, 0
1, 227390, Note_on_c, 0, 64, 0
1, 227390, Note_on_c, 0, 52, 0
1, 227397, Control_c, 0, 64, 0
1, 227400, Note_on_c, 0, 88, 100
1, 227400, Note_on_c, 0, 91, 100
1, 227400, Note_on_c, 0, 79, 100
1, 227400, Note_on_c, 0, 61, 100
1, 227400, Note_on_c, 0, 49, 90
1, 227502, Control_c, 0, 64, 127
1, 227510, Note_on_c, 0, 88, 0
1, 227510, Note_on_c, 0, 91, 0
1, 227510, Note_on_c, 0, 79, 0
1, 227510, Note_on_c, 0, 61, 0
1, 227510, Note_on_c, 0, 49, 0
1, 227520, Note_on_c, 0, 88, 100
1, 227520, Note_on_c, 0, 91, 100
1, 227520, Note_on_c, 0, 79, 100
1, 227520, Note_on_c, 0, 59, 100
1, 227520, Note_on_c, 0, 47, 90
1, 227630, Note_on_c, 0, 59, 0
1, 227630, Note_on_c, 0, 47, 0
1, 227640, Note_on_c, 0, 69, 100
1, 227640, Note_on_c, 0, 76, 100
1, 227640, Note_on_c, 0, 67, 100
1, 227640, Note_on_c, 0, 57, 100
1, 227640, Note_on_c, 0, 45, 90
1, 227750, Note_on_c, 0, 88, 0
1, 227750, Note_on_c, 0, 91, 0
1, 227750, Note_on_c, 0, 79, 0
1, 227750, Note_on_c, 0, 69, 0
1, 227750, Note_on_c, 0, 76, 0
1, 227750, Note_on_c, 0, 67, 0
1, 227750, Note_on_c, 0, 57, 0
1, 227750, Note_on_c, 0, 45, 0
1, 227760, Note_on_c, 0, 69, 100
1, 227760, Note_on_c, 0, 76, 100
1, 227760, Note_on_c, 0, 67, 100
1, 227760, Note_on_c, 0, 59, 100
1, 227760, Note_on_c, 0, 47, 90
1, 227833, Control_c, 0, 64, 0
1, 227870, Note_on_c, 0, 69, 0
1, 227870, Note_on_c, 0, 76, 0
1, 227870, Note_on_c, 0, 67, 0
1, 227870, Note_on_c, 0, 59, 0
1, 227870, Note_on_c, 0, 47, 0
1, 227880, Note_on_c, 0, 88, 100
1, 227880, Note_on_c, 0, 91, 100
1, 227880, Note_on_c, 0, 79, 100
1, 227880, Note_on_c, 0, 61, 100
1, 227880, Note_on_c, 0, 49, 90
1, 227990, Note_on_c, 0, 88, 0
1, 227990, Note_on_c, 0, 91, 0
1, 227990, Note_on_c, 0, 79, 0
1, 227990, Note_on_c, 0, 61, 0
1, 227990, Note_on_c, 0, 49, 0
1, 228000, Note_on_c, 0, 86, 100
1, 228000, Note_on_c, 0, 90, 100
1, 228000, Note_on_c, 0, 78, 100
1, 228000, Note_on_c, 0, 62, 100
1, 228000, Note_on_c, 0, 50, 90
1, 228110, Note_on_c, 0, 62, 0
1, 228110, Note_on_c, 0, 50, 0
1, 228120, Note_on_c, 0, 78, 100
1, 228120, Note_on_c, 0, 74, 100
1, 228120, Note_on_c, 0, 66, 100
1, 228120, Note_on_c, 0, 54, 90
1, 228230, Note_on_c, 0, 86, 0
1, 228230, Note_on_c, 0, 90, 0
1, 228230, Note_on_c, 0, 78, 0
1, 228230, Note_on_c, 0, 78, 0
1, 228230, Note_on_c, 0, 74, 0
1, 228230, Note_on_c, 0, 66, 0
1, 228230, Note_on_c, 0, 54, 0
1, 228240, Note_on_c, 0, 81, 100
1, 228240, Note_on_c, 0, 69, 100
1, 228240, Note_on_c, 0, 64, 100
1, 228240, Note_on_c, 0, 52, 90
1, 228350, Note_on_c, 0, 81, 0
1, 228350, Note_on_c, 0, 69, 0
1, 228350, Note_on_c, 0, 64, 0
1, 228350, Note_on_c, 0, 52, 0
1, 228360, Note_on_c, 0, 93, 100
1, 228360, Note_on_c, 0, 81, 100
1, 228360, Note_on_c, 0, 61, 100
1, 228360, Note_on_c, 0, 49, 90
1, 228470, Note_on_c, 0, 93, 0
1, 228470, Note_on_c, 0, 81, 0
1, 228470, Note_on_c, 0, 61, 0
1, 228470, Note_on_c, 0, 49, 0
1, 228480, Note_on_c, 0, 86, 100
1, 228480, Note_on_c, 0, 74, 100
1, 228480, Note_on_c, 0, 62, 100
1, 228480, Note_on_c, 0, 50, 90
1, 228590, Note_on_c, 0, 62, 0
1, 228590, Note_on_c, 0, 50, 0
1, 228600, Note_on_c, 0, 69, 63
1, 228600, Note_on_c, 0, 66, 63
1, 228710, Note_on_c, 0, 86, 0
1, 228710, Note_on_c, 0, 74, 0
1, 228710, Note_on_c, 0, 69, 0
1, 228710, Note_on_c, 0, 66, 0
1, 228720, Note_on_c, 0, 67, 63
1, 228720, Note_on_c, 0, 64, 63
1, 228830, Note_on_c, 0, 67, 0
1, 228830, Note_on_c, 0, 64, 0
1, 228840, Note_on_c, 0, 64, 63
1, 228840, Note_on_c, 0, 57, 63
1, 228950, Note_on_c, 0, 64, 0
1, 228950, Note_on_c, 0, 57, 0
1, 228960, Note_on_c, 0, 66, 63
1, 228960, Note_on_c, 0, 62, 63
1, 228960, Note_on_c, 0, 50, 63
1, 229190, Note_on_c, 0, 66, 0
1, 229190, Note_on_c, 0, 62, 0
1, 229200, Note_on_c, 0, 66, 63
1, 229200, Note_on_c, 0, 62, 63
1, 229430, Note_on_c, 0, 66, 0
1, 229430, Note_on_c, 0, 62, 0
1, 229440, Note_on_c, 0, 67, 63
1, 229440, Note_on_c, 0, 64, 63
1, 229670, Note_on_c, 0, 67, 0
1, 229670, Note_on_c, 0, 64, 0
1, 229670, Note_on_c, 0, 50, 0
1, 229680, Note_on_c, 0, 69, 63
1, 229680, Note_on_c, 0, 66, 63
1, 229680, Note_on_c, 0, 49, 63
1, 229790, Note_on_c, 0, 49, 0
1, 229800, Note_on_c, 0, 47, 63
1, 229910, Note_on_c, 0, 69, 0
1, 229910, Note_on_c, 0, 66, 0
1, 229910, Note_on_c, 0, 47, 0
1, 229920, Note_on_c, 0, 69, 63
1, 229920, Note_on_c, 0, 66, 63
1, 229920, Note_on_c, 0, 45, 63
1, 230030, Note_on_c, 0, 45, 0
1, 230040, Note_on_c, 0, 47, 63
1, 230150, Note_on_c, 0, 69, 0
1, 230150, Note_on_c, 0, 66, 0
1, 230150, Note_on_c, 0, 47, 0
1, 230160, Note_on_c, 0, 67, 63
1, 230160, Note_on_c, 0, 64, 63
1, 230160, Note_on_c, 0, 49, 63
1, 230270, Note_on_c, 0, 49, 0
1, 230280, Note_on_c, 0, 50, 63
1, 230390, Note_on_c, 0, 67, 0
1, 230390, Note_on_c, 0, 64, 0
1, 230390, Note_on_c, 0, 50, 0
1, 230400, Note_on_c, 0, 66, 63
1, 230400, Note_on_c, 0, 62, 63
1, 230400, Note_on_c, 0, 52, 63
1, 230510, Note_on_c, 0, 52, 0
1, 230520, Note_on_c, 0, 54, 63
1, 230630, Note_on_c, 0, 66, 0
1, 230630, Note_on_c, 0, 62, 0
1, 230630, Note_on_c, 0, 54, 0
1, 230640, Note_on_c, 0, 64, 63
1, 230640, Note_on_c, 0, 61, 63
1, 230640, Note_on_c, 0, 55, 63
1, 230750, Note_on_c, 0, 55, 0
1, 230760, Note_on_c, 0, 52, 63
1, 230870, Note_on_c, 0, 64, 0
1, 230870, Note_on_c, 0, 61, 0
1, 230870, Note_on_c, 0, 52, 0
1, 230880, Note_on_c, 0, 74, 63
1, 230880, Note_on_c, 0, 66, 63
1, 230880, Note_on_c, 0, 62, 63
1, 230880, Note_on_c, 0, 57, 63
1, 231110, Note_on_c, 0, 66, 0
1, 231110, Note_on_c, 0, 62, 0
1, 231110, Note_on_c, 0, 57, 0
1, 231120, Note_on_c, 0, 66, 63
1, 231120, Note_on_c, 0, 62, 63
1, 231120, Note_on_c, 0, 57, 63
1, 231350, Note_on_c, 0, 66, 0
1, 231350, Note_on_c, 0, 62, 0
1, 231350, Note_on_c, 0, 57, 0
1, 231360, Note_on_c, 0, 67, 63
1, 231360, Note_on_c, 0, 64, 63
1, 231360, Note_on_c, 0, 57, 63
1, 231470, Note_on_c, 0, 67, 0
1, 231480, Note_on_c, 0, 66, 63
1, 231590, Note_on_c, 0, 74, 0
1, 231590, Note_on_c, 0, 66, 0
1, 231590, Note_on_c, 0, 64, 0
1, 231590, Note_on_c, 0, 57, 0
1, 231600, Note_on_c, 0, 73, 63
1, 231600, Note_on_c, 0, 64, 63
1, 231600, Note_on_c, 0, 66, 63
1, 231600, Note_on_c, 0, 57, 63
1, 231710, Note_on_c, 0, 73, 0
1, 231710, Note_on_c, 0, 64, 0
1, 231720, Note_on_c, 0, 71, 63
1, 231720, Note_on_c, 0, 62, 63
1, 231830, Note_on_c, 0, 71, 0
1, 231830, Note_on_c, 0, 62, 0
1, 231830, Note_on_c, 0, 66, 0
1, 231830, Note_on_c, 0, 57, 0
1, 231840, Note_on_c, 0, 69, 63
1, 231840, Note_on_c, 0, 66, 63
1, 231840, Note_on_c, 0, 62, 63
1, 231840, Note_on_c, 0, 57, 90
1, 231950, Note_on_c, 0, 69, 0
1, 231960, Note_on_c, 0, 74, 63
1, 232070, Note_on_c, 0, 74, 0
1, 232080, Note_on_c, 0, 78, 63
1, 232190, Note_on_c, 0, 78, 0
1, 232190, Note_on_c, 0, 66, 0
1, 232190, Note_on_c, 0, 62, 0
1, 232200, Note_on_c, 0, 76, 63
1, 232200, Note_on_c, 0, 64, 63
1, 232200, Note_on_c, 0, 61, 63
1, 232310, Note_on_c, 0, 76, 0
1, 232310, Note_on_c, 0, 64, 0
1, 232310, Note_on_c, 0, 61, 0
1, 232310, Note_on_c, 0, 57, 0
1, 232320, Note_on_c, 0, 76, 63
1, 232320, Note_on_c, 0, 69, 63
1, 232320, Note_on_c, 0, 61, 63
1, 232320, Note_on_c, 0, 45, 90
1, 232430, Note_on_c, 0, 76, 0
1, 232440, Note_on_c, 0, 81, 63
1, 232550, Note_on_c, 0, 81, 0
1, 232550, Note_on_c, 0, 69, 0
1, 232550, Note_on_c, 0, 61, 0
1, 232550, Note_on_c, 0, 45, 0
1, 232560, Note_on_c, 0, 79, 63
1, 232560, Note_on_c, 0, 69, 63
1, 232560, Note_on_c, 0, 47, 90
1, 232670, Note_on_c, 0, 79, 0
1, 232670, Note_on_c, 0, 69, 0
1, 232670, Note_on_c, 0, 47, 0
1, 232680, Note_on_c, 0, 76, 63
1, 232680, Note_on_c, 0, 67, 63
1, 232680, Note_on_c, 0, 49, 90
1, 232790, Note_on_c, 0, 76, 0
1, 232790, Note_on_c, 0, 67, 0
1, 232790, Note_on_c, 0, 49, 0
1, 232800, Note_on_c, 0, 74, 63
1, 232800, Note_on_c, 0, 66, 63
1, 232800, Note_on_c, 0, 57, 63
1, 232800, Note_on_c, 0, 50, 90
1, 233030, Note_on_c, 0, 74, 0
1, 233030, Note_on_c, 0, 66, 0
1, 233030, Note_on_c, 0, 57, 0
1, 233040, Note_on_c, 0, 66, 63
1, 233040, Note_on_c, 0, 74, 63
1, 233040, Note_on_c, 0, 62, 63
1, 233270, Note_on_c, 0, 66, 0
1, 233270, Note_on_c, 0, 74, 0
1, 233270, Note_on_c, 0, 62, 0
1, 233280, Note_on_c, 0, 67, 63
1, 233280, Note_on_c, 0, 76, 63
1, 233280, Note_on_c, 0, 64, 63
1, 233510, Note_on_c, 0, 67, 0
1, 233510, Note_on_c, 0, 76, 0
1, 233510, Note_on_c, 0, 64, 0
1, 233510, Note_on_c, 0, 50, 0
1, 233520, Note_on_c, 0, 78, 63
1, 233520, Note_on_c, 0, 69, 63
1, 233520, Note_on_c, 0, 66, 63
1, 233520, Note_on_c, 0, 49, 90
1, 233630, Note_on_c, 0, 66, 0
1, 233630, Note_on_c, 0, 49, 0
1, 233640, Note_on_c, 0, 62, 63
1, 233640, Note_on_c, 0, 47, 90
1, 233750, Note_on_c, 0, 78, 0
1, 233750, Note_on_c, 0, 69, 0
1, 233750, Note_on_c, 0, 62, 0
1, 233750, Note_on_c, 0, 47, 0
1, 233760, Note_on_c, 0, 78, 63
1, 233760, Note_on_c, 0, 69, 63
1, 233760, Note_on_c, 0, 61, 90
1, 233760, Note_on_c, 0, 45, 90
1, 233870, Note_on_c, 0, 61, 0
1, 233870, Note_on_c, 0, 45, 0
1, 233880, Note_on_c, 0, 62, 90
1, 233880, Note_on_c, 0, 47, 90
1, 233990, Note_on_c, 0, 78, 0
1, 233990, Note_on_c, 0, 69, 0
1, 233990, Note_on_c, 0, 62, 0
1, 233990, Note_on_c, 0, 47, 0
1, 234000, Note_on_c, 0, 76, 63
1, 234000, Note_on_c, 0, 64, 90
1, 234000, Note_on_c, 0, 49, 90
1, 234110, Note_on_c, 0, 64, 0
1, 234110, Note_on_c, 0, 49, 0
1, 234120, Note_on_c, 0, 66, 90
1, 234120, Note_on_c, 0, 50, 90
1, 234230, Note_on_c, 0, 76, 0
1, 234230, Note_on_c, 0, 66, 0
1, 234230, Note_on_c, 0, 50, 0
1, 234240, Note_on_c, 0, 74, 63
1, 234240, Note_on_c, 0, 67, 90
1, 234240, Note_on_c, 0, 52, 90
1, 234350, Note_on_c, 0, 67, 0
1, 234350, Note_on_c, 0, 52, 0
1, 234360, Note_on_c, 0, 57, 90
1, 234360, Note_on_c, 0, 54, 90
1, 234470, Note_on_c, 0, 74, 0
1, 234470, Note_on_c, 0, 57, 0
1, 234470, Note_on_c, 0, 54, 0
1, 234480, Note_on_c, 0, 73, 63
1, 234480, Note_on_c, 0, 64, 63
1, 234480, Note_on_c, 0, 59, 90
1, 234480, Note_on_c, 0, 55, 90
1, 234590, Note_on_c, 0, 59, 0
1, 234590, Note_on_c, 0, 55, 0
1, 234600, Note_on_c, 0, 55, 90
1, 234600, Note_on_c, 0, 52, 90
1, 234710, Note_on_c, 0, 73, 0
1, 234710, Note_on_c, 0, 64, 0
1, 234710, Note_on_c, 0, 55, 0
1, 234710, Note_on_c, 0, 52, 0
1, 234720, Note_on_c, 0, 74, 63
1, 234720, Note_on_c, 0, 62, 63
1, 234720, Note_on_c, 0, 57, 63
1, 234720, Note_on_c, 0, 54, 63
1, 234950, Note_on_c, 0, 74, 0
1, 234950, Note_on_c, 0, 62, 0
1, 234950, Note_on_c, 0, 57, 0
1, 234950, Note_on_c, 0, 54, 0
1, 234960, Note_on_c, 0, 74, 63
1, 234960, Note_on_c, 0, 66, 63
1, 234960, Note_on_c, 0, 62, 63
1, 234960, Note_on_c, 0, 57, 63
1, 235190, Note_on_c, 0, 74, 0
1, 235190, Note_on_c, 0, 66, 0
1, 235200, Note_on_c, 0, 76, 63
1, 235200, Note_on_c, 0, 67, 63
1, 235430, Note_on_c, 0, 76, 0
1, 235430, Note_on_c, 0, 67, 0
1, 235430, Note_on_c, 0, 62, 0
1, 235430, Note_on_c, 0, 57, 0
1, 235440, Note_on_c, 0, 78, 63
1, 235440, Note_on_c, 0, 69, 63
1, 235440, Note_on_c, 0, 61, 63
1, 235550, Note_on_c, 0, 61, 0
1, 235560, Note_on_c, 0, 59, 63
1, 235670, Note_on_c, 0, 78, 0
1, 235670, Note_on_c, 0, 69, 0
1, 235670, Note_on_c, 0, 59, 0
1, 235680, Note_on_c, 0, 76, 63
1, 235680, Note_on_c, 0, 67, 63
1, 235680, Note_on_c, 0, 61, 63
1, 235680, Note_on_c, 0, 57, 90
1, 235790, Note_on_c, 0, 61, 0
1, 235800, Note_on_c, 0, 64, 63
1, 235910, Note_on_c, 0, 64, 0
1, 235910, Note_on_c, 0, 57, 0
1, 235920, Note_on_c, 0, 61, 63
1, 235920, Note_on_c, 0, 57, 90
1, 236030, Note_on_c, 0, 76, 0
1, 236030, Note_on_c, 0, 67, 0
1, 236030, Note_on_c, 0, 61, 0
1, 236040, Note_on_c, 0, 74, 63
1, 236040, Note_on_c, 0, 66, 63
1, 236040, Note_on_c, 0, 62, 63
1, 236150, Note_on_c, 0, 74, 0
1, 236150, Note_on_c, 0, 66, 0
1, 236150, Note_on_c, 0, 62, 0
1, 236150, Note_on_c, 0, 57, 0
1, 236160, Note_on_c, 0, 74, 63
1, 236160, Note_on_c, 0, 66, 63
1, 236160, Note_on_c, 0, 62, 63
1, 236160, Note_on_c, 0, 50, 90
1, 236270, Note_on_c, 0, 66, 0
1, 236270, Note_on_c, 0, 62, 0
1, 236280, Note_on_c, 0, 69, 63
1, 236280, Note_on_c, 0, 66, 63
1, 236390, Note_on_c, 0, 74, 0
1, 236390, Note_on_c, 0, 69, 0
1, 236390, Note_on_c, 0, 66, 0
1, 236390, Note_on_c, 0, 50, 0
1, 236400, Note_on_c, 0, 73, 63
1, 236400, Note_on_c, 0, 67, 63
1, 236400, Note_on_c, 0, 64, 63
1, 236400, Note_on_c, 0, 57, 90
1, 236510, Note_on_c, 0, 73, 0
1, 236510, Note_on_c, 0, 67, 0
1, 236510, Note_on_c, 0, 64, 0
1, 236520, Note_on_c, 0, 74, 63
1, 236520, Note_on_c, 0, 66, 63
1, 236520, Note_on_c, 0, 62, 63
1, 236630, Note_on_c, 0, 74, 0
1, 236630, Note_on_c, 0, 66, 0
1, 236630, Note_on_c, 0, 62, 0
1, 236630, Note_on_c, 0, 57, 0
1, 236640, Note_on_c, 0, 69, 63
1, 236640, Note_on_c, 0, 76, 63
1, 236640, Note_on_c, 0, 64, 63
1, 236640, Note_on_c, 0, 61, 90
1, 236640, Note_on_c, 0, 57, 90
1, 236750, Note_on_c, 0, 61, 0
1, 236750, Note_on_c, 0, 57, 0
1, 236760, Note_on_c, 0, 45, 90
1, 236870, Note_on_c, 0, 69, 0
1, 236870, Note_on_c, 0, 76, 0
1, 236870, Note_on_c, 0, 64, 0
1, 236870, Note_on_c, 0, 45, 0
1, 236880, Note_on_c, 0, 69, 63
1, 236880, Note_on_c, 0, 73, 63
1, 236880, Note_on_c, 0, 76, 63
1, 236880, Note_on_c, 0, 64, 63
1, 236880, Note_on_c, 0, 52, 90
1, 236930, Note_on_c, 0, 52, 0
1, 237000, Note_on_c, 0, 49, 90
1, 237110, Note_on_c, 0, 69, 0
1, 237110, Note_on_c, 0, 73, 0
1, 237110, Note_on_c, 0, 76, 0
1, 237110, Note_on_c, 0, 64, 0
1, 237110, Note_on_c, 0, 49, 0
1, 237120, Note_on_c, 0, 69, 63
1, 237120, Note_on_c, 0, 74, 63
1, 237120, Note_on_c, 0, 78, 63
1, 237120, Note_on_c, 0, 66, 63
1, 237120, Note_on_c, 0, 57, 90
1, 237170, Note_on_c, 0, 57, 0
1, 237240, Note_on_c, 0, 57, 90
1, 237350, Note_on_c, 0, 69, 0
1, 237350, Note_on_c, 0, 74, 0
1, 237350, Note_on_c, 0, 78, 0
1, 237350, Note_on_c, 0, 66, 0
1, 237350, Note_on_c, 0, 57, 0
1, 237360, Note_on_c, 0, 74, 63
1, 237360, Note_on_c, 0, 66, 63
1, 237360, Note_on_c, 0, 62, 90
1, 237410, Note_on_c, 0, 62, 0
1, 237470, Note_on_c, 0, 66, 0
1, 237480, Note_on_c, 0, 69, 63
1, 237480, Note_on_c, 0, 66, 90
1, 237480, Note_on_c, 0, 57, 90
1, 237590, Note_on_c, 0, 74, 0
1, 237590, Note_on_c, 0, 69, 0
1, 237590, Note_on_c, 0, 66, 0
1, 237590, Note_on_c, 0, 57, 0
1, 237600, Note_on_c, 0, 69, 63
1, 237600, Note_on_c, 0, 73, 63
1, 237600, Note_on_c, 0, 76, 63
1, 237600, Note_on_c, 0, 64, 63
1, 237600, Note_on_c, 0, 61, 90
1, 237600, Note_on_c, 0, 57, 90
1, 237650, Note_on_c, 0, 61, 0
1, 237650, Note_on_c, 0, 57, 0
1, 237720, Note_on_c, 0, 45, 90
1, 237830, Note_on_c, 0, 69, 0
1, 237830, Note_on_c, 0, 73, 0
1, 237830, Note_on_c, 0, 76, 0
1, 237830, Note_on_c, 0, 64, 0
1, 237830, Note_on_c, 0, 45, 0
1, 237840, Note_on_c, 0, 74, 63
1, 237840, Note_on_c, 0, 78, 63
1, 237840, Note_on_c, 0, 66, 63
1, 237840, Note_on_c, 0, 57, 90
1, 237890, Note_on_c, 0, 57, 0
1, 237950, Note_on_c, 0, 74, 0
1, 237950, Note_on_c, 0, 78, 0
1, 237950, Note_on_c, 0, 66, 0
1, 237960, Note_on_c, 0, 76, 63
1, 237960, Note_on_c, 0, 79, 63
1, 237960, Note_on_c, 0, 67, 63
1, 237960, Note_on_c, 0, 45, 90
1, 238070, Note_on_c, 0, 76, 0
1, 238070, Note_on_c, 0, 79, 0
1, 238070, Note_on_c, 0, 67, 0
1, 238070, Note_on_c, 0, 45, 0
1, 238080, Note_on_c, 0, 78, 63
1, 238080, Note_on_c, 0, 74, 63
1, 238080, Note_on_c, 0, 66, 63
1, 238080, Note_on_c, 0, 57, 90
1, 238130, Note_on_c, 0, 57, 0
1, 238190, Note_on_c, 0, 66, 0
1, 238200, Note_on_c, 0, 69, 63
1, 238200, Note_on_c, 0, 66, 90
1, 238310, Note_on_c, 0, 78, 0
1, 238310, Note_on_c, 0, 74, 0
1, 238310, Note_on_c, 0, 69, 0
1, 238310, Note_on_c, 0, 66, 0
1, 238320, Note_on_c, 0, 74, 63
1, 238320, Note_on_c, 0, 67, 63
1, 238320, Note_on_c, 0, 64, 90
1, 238370, Note_on_c, 0, 64, 0
1, 238430, Note_on_c, 0, 67, 0
1, 238440, Note_on_c, 0, 66, 63
1, 238440, Note_on_c, 0, 62, 90
1, 238440, Note_on_c, 0, 57, 90
1, 238550, Note_on_c, 0, 74, 0
1, 238550, Note_on_c, 0, 66, 0
1, 238550, Note_on_c, 0, 62, 0
1, 238550, Note_on_c, 0, 57, 0
1, 238560, Note_on_c, 0, 73, 63
1, 238560, Note_on_c, 0, 76, 63
1, 238560, Note_on_c, 0, 64, 63
1, 238560, Note_on_c, 0, 61, 63
1, 238560, Note_on_c, 0, 57, 63
1, 238610, Note_on_c, 0, 61, 0
1, 238610, Note_on_c, 0, 57, 0
1, 238680, Note_on_c, 0, 45, 63
1, 238790, Note_on_c, 0, 73, 0
1, 238790, Note_on_c, 0, 76, 0
1, 238790, Note_on_c, 0, 64, 0
1, 238790, Note_on_c, 0, 45, 0
1, 238800, Note_on_c, 0, 74, 63
1, 238800, Note_on_c, 0, 78, 63
1, 238800, Note_on_c, 0, 66, 63
1, 238800, Note_on_c, 0, 57, 63
1, 238850, Note_on_c, 0, 57, 0
1, 238910, Note_on_c, 0, 74, 0
1, 238910, Note_on_c, 0, 78, 0
1, 238910, Note_on_c, 0, 66, 0
1, 238920, Note_on_c, 0, 76, 63
1, 238920, Note_on_c, 0, 79, 63
1, 238920, Note_on_c, 0, 67, 63
1, 238920, Note_on_c, 0, 61, 63
1, 239030, Note_on_c, 0, 76, 0
1, 239030, Note_on_c, 0, 79, 0
1, 239030, Note_on_c, 0, 67, 0
1, 239030, Note_on_c, 0, 61, 0
1, 239040, Note_on_c, 0, 73, 63
1, 239040, Note_on_c, 0, 78, 63
1, 239040, Note_on_c, 0, 66, 63
1, 239040, Note_on_c, 0, 58, 63
1, 239090, Note_on_c, 0, 58, 0
1, 239160, Note_on_c, 0, 46, 63
1, 239270, Note_on_c, 0, 73, 0
1, 239270, Note_on_c, 0, 78, 0
1, 239270, Note_on_c, 0, 66, 0
1, 239270, Note_on_c, 0, 46, 0
1, 239280, Note_on_c, 0, 73, 63
1, 239280, Note_on_c, 0, 76, 63
1, 239280, Note_on_c, 0, 64, 63
1, 239280, Note_on_c, 0, 42, 63
1, 239330, Note_on_c, 0, 42, 0
1, 239400, Note_on_c, 0, 54, 63
1, 239510, Note_on_c, 0, 73, 0
1, 239510, Note_on_c, 0, 76, 0
1, 239510, Note_on_c, 0, 64, 0
1, 239510, Note_on_c, 0, 54, 0
1, 239520, Note_on_c, 0, 71, 63
1, 239520, Note_on_c, 0, 74, 63
1, 239520, Note_on_c, 0, 62, 63
1, 239520, Note_on_c, 0, 59, 63
1, 239570, Note_on_c, 0, 59, 0
1, 239640, Note_on_c, 0, 47, 63
1, 239750, Note_on_c, 0, 71, 0
1, 239750, Note_on_c, 0, 74, 0
1, 239750, Note_on_c, 0, 62, 0
1, 239750, Note_on_c, 0, 47, 0
1, 239760, Note_on_c, 0, 68, 63
1, 239760, Note_on_c, 0, 76, 63
1, 239760, Note_on_c, 0, 64, 63
1, 239760, Note_on_c, 0, 40, 63
1, 239810, Note_on_c, 0, 40, 0
1, 239880, Note_on_c, 0, 52, 63
1, 239990, Note_on_c, 0, 68, 0
1, 239990, Note_on_c, 0, 76, 0
1, 239990, Note_on_c, 0, 64, 0
1, 239990, Note_on_c, 0, 52, 0
1, 240000, Note_on_c, 0, 69, 63
1, 240000, Note_on_c, 0, 61, 63
1, 240000, Note_on_c, 0, 57, 63
1, 240050, Note_on_c, 0, 57, 0
1, 240120, Note_on_c, 0, 57, 63
1, 240230, Note_on_c, 0, 69, 0
1, 240230, Note_on_c, 0, 61, 0
1, 240230, Note_on_c, 0, 57, 0
1, 240240, Note_on_c, 0, 74, 63
1, 240240, Note_on_c, 0, 78, 63
1, 240240, Note_on_c, 0, 66, 63
1, 240240, Note_on_c, 0, 45, 63
1, 240290, Note_on_c, 0, 45, 0
1, 240360, Note_on_c, 0, 45, 63
1, 240470, Note_on_c, 0, 45, 0
1, 240480, Note_on_c, 0, 50, 90
1, 240710, Note_on_c, 0, 74, 0
1, 240710, Note_on_c, 0, 78, 0
1, 240710, Note_on_c, 0, 66, 0
1, 240720, Note_on_c, 0, 74, 63
1, 240720, Note_on_c, 0, 78, 63
1, 240720, Note_on_c, 0, 66, 63
1, 240950, Note_on_c, 0, 74, 0
1, 240950, Note_on_c, 0, 78, 0
1, 240950, Note_on_c, 0, 66, 0
1, 240960, Note_on_c, 0, 76, 63
1, 240960, Note_on_c, 0, 79, 63
1, 240960, Note_on_c, 0, 67, 63
1, 241190, Note_on_c, 0, 76, 0
1, 241190, Note_on_c, 0, 79, 0
1, 241190, Note_on_c, 0, 67, 0
1, 241190, Note_on_c, 0, 50, 0
1, 241200, Note_on_c, 0, 78, 63
1, 241200, Note_on_c, 0, 81, 63
1, 241200, Note_on_c, 0, 69, 63
1, 241200, Note_on_c, 0, 49, 90
1, 241310, Note_on_c, 0, 49, 0
1, 241320, Note_on_c, 0, 47, 90
1, 241430, Note_on_c, 0, 78, 0
1, 241430, Note_on_c, 0, 81, 0
1, 241430, Note_on_c, 0, 69, 0
1, 241430, Note_on_c, 0, 47, 0
1, 241440, Note_on_c, 0, 78, 63
1, 241440, Note_on_c, 0, 81, 63
1, 241440, Note_on_c, 0, 69, 63
1, 241440, Note_on_c, 0, 45, 90
1, 241550, Note_on_c, 0, 45, 0
1, 241560, Note_on_c, 0, 47, 90
1, 241670, Note_on_c, 0, 78, 0
1, 241670, Note_on_c, 0, 81, 0
1, 241670, Note_on_c, 0, 69, 0
1, 241670, Note_on_c, 0, 47, 0
1, 241680, Note_on_c, 0, 76, 63
1, 241680, Note_on_c, 0, 79, 63
1, 241680, Note_on_c, 0, 67, 63
1, 241680, Note_on_c, 0, 49, 90
1, 241790, Note_on_c, 0, 49, 0
1, 241800, Note_on_c, 0, 50, 90
1, 241910, Note_on_c, 0, 76, 0
1, 241910, Note_on_c, 0, 79, 0
1, 241910, Note_on_c, 0, 67, 0
1, 241910, Note_on_c, 0, 50, 0
1, 241920, Note_on_c, 0, 74, 63
1, 241920, Note_on_c, 0, 78, 63
1, 241920, Note_on_c, 0, 66, 63
1, 241920, Note_on_c, 0, 52, 90
1, 242030, Note_on_c, 0, 52, 0
1, 242040, Note_on_c, 0, 54, 90
1, 242150, Note_on_c, 0, 74, 0
1, 242150, Note_on_c, 0, 78, 0
1, 242150, Note_on_c, 0, 66, 0
1, 242150, Note_on_c, 0, 54, 0
1, 242160, Note_on_c, 0, 73, 63
1, 242160, Note_on_c, 0, 76, 63
1, 242160, Note_on_c, 0, 64, 63
1, 242160, Note_on_c, 0, 55, 90
1, 242270, Note_on_c, 0, 55, 0
1, 242280, Note_on_c, 0, 52, 90
1, 242390, Note_on_c, 0, 73, 0
1, 242390, Note_on_c, 0, 76, 0
1, 242390, Note_on_c, 0, 64, 0
1, 242390, Note_on_c, 0, 52, 0
1, 242400, Note_on_c, 0, 69, 63
1, 242400, Note_on_c, 0, 74, 63
1, 242400, Note_on_c, 0, 62, 63
1, 242400, Note_on_c, 0, 54, 90
1, 242630, Note_on_c, 0, 69, 0
1, 242630, Note_on_c, 0, 74, 0
1, 242630, Note_on_c, 0, 62, 0
1, 242630, Note_on_c, 0, 54, 0
1, 242640, Note_on_c, 0, 86, 63
1, 242640, Note_on_c, 0, 74, 63
1, 242640, Note_on_c, 0, 62, 63
1, 242640, Note_on_c, 0, 54, 63
1, 242640, Note_on_c, 0, 50, 90
1, 242810, Note_on_c, 0, 50, 0
1, 242820, Note_on_c, 0, 45, 90
1, 242870, Note_on_c, 0, 62, 0
1, 242870, Note_on_c, 0, 54, 0
1, 242870, Note_on_c, 0, 45, 0
1, 242880, Note_on_c, 0, 64, 63
1, 242880, Note_on_c, 0, 55, 63
1, 243110, Note_on_c, 0, 86, 0
1, 243110, Note_on_c, 0, 74, 0
1, 243110, Note_on_c, 0, 64, 0
1, 243110, Note_on_c, 0, 55, 0
1, 243120, Note_on_c, 0, 85, 63
1, 243120, Note_on_c, 0, 73, 63
1, 243120, Note_on_c, 0, 66, 63
1, 243120, Note_on_c, 0, 57, 63
1, 243230, Note_on_c, 0, 85, 0
1, 243230, Note_on_c, 0, 73, 0
1, 243240, Note_on_c, 0, 83, 63
1, 243240, Note_on_c, 0, 71, 63
1, 243300, Note_on_c, 0, 45, 90
1, 243350, Note_on_c, 0, 83, 0
1, 243350, Note_on_c, 0, 71, 0
1, 243350, Note_on_c, 0, 66, 0
1, 243350, Note_on_c, 0, 57, 0
1, 243350, Note_on_c, 0, 45, 0
1, 243360, Note_on_c, 0, 85, 63
1, 243360, Note_on_c, 0, 73, 63
1, 243360, Note_on_c, 0, 64, 90
1, 243360, Note_on_c, 0, 55, 90
1, 243470, Note_on_c, 0, 85, 0
1, 243470, Note_on_c, 0, 73, 0
1, 243480, Note_on_c, 0, 88, 63
1, 243480, Note_on_c, 0, 76, 63
1, 243590, Note_on_c, 0, 88, 0
1, 243590, Note_on_c, 0, 76, 0
1, 243600, Note_on_c, 0, 91, 63
1, 243600, Note_on_c, 0, 79, 63
1, 243710, Note_on_c, 0, 91, 0
1, 243710, Note_on_c, 0, 79, 0
1, 243710, Note_on_c, 0, 64, 0
1, 243710, Note_on_c, 0, 55, 0
1, 243720, Note_on_c, 0, 90, 63
1, 243720, Note_on_c, 0, 78, 63
1, 243720, Note_on_c, 0, 57, 90
1, 243720, Note_on_c, 0, 62, 90
1, 243720, Note_on_c, 0, 50, 90
1, 243830, Note_on_c, 0, 90, 0
1, 243830, Note_on_c, 0, 78, 0
1, 243830, Note_on_c, 0, 57, 0
1, 243830, Note_on_c, 0, 62, 0
1, 243830, Note_on_c, 0, 50, 0
1, 243840, Note_on_c, 0, 90, 63
1, 243840, Note_on_c, 0, 78, 63
1, 243840, Note_on_c, 0, 57, 90
1, 243840, Note_on_c, 0, 62, 90
1, 243840, Note_on_c, 0, 50, 90
1, 243950, Note_on_c, 0, 90, 0
1, 243950, Note_on_c, 0, 78, 0
1, 243960, Note_on_c, 0, 86, 75
1, 243960, Note_on_c, 0, 74, 75
1, 244070, Note_on_c, 0, 86, 0
1, 244070, Note_on_c, 0, 74, 0
1, 244070, Note_on_c, 0, 57, 0
1, 244070, Note_on_c, 0, 62, 0
1, 244070, Note_on_c, 0, 50, 0
1, 244080, Note_on_c, 0, 85, 87
1, 244080, Note_on_c, 0, 73, 87
1, 244080, Note_on_c, 0, 57, 90
1, 244080, Note_on_c, 0, 45, 90
1, 244190, Note_on_c, 0, 85, 0
1, 244190, Note_on_c, 0, 73, 0
1, 244200, Note_on_c, 0, 86, 100
1, 244200, Note_on_c, 0, 74, 100
1, 244310, Note_on_c, 0, 86, 0
1, 244310, Note_on_c, 0, 74, 0
1, 244320, Note_on_c, 0, 81, 100
1, 244320, Note_on_c, 0, 85, 100
1, 244320, Note_on_c, 0, 88, 100
1, 244320, Note_on_c, 0, 76, 100
1, 244430, Note_on_c, 0, 57, 0
1, 244430, Note_on_c, 0, 45, 0
1, 244440, Note_on_c, 0, 45, 100
1, 244440, Note_on_c, 0, 33, 100
1, 244550, Note_on_c, 0, 81, 0
1, 244550, Note_on_c, 0, 85, 0
1, 244550, Note_on_c, 0, 45, 0
1, 244550, Note_on_c, 0, 33, 0
1, 244550, Note_on_c, 0, 88, 0
1, 244550, Note_on_c, 0, 76, 0
1, 244560, Note_on_c, 0, 69, 100
1, 244560, Note_on_c, 0, 73, 100
1, 244560, Note_on_c, 0, 76, 100
1, 244560, Note_on_c, 0, 64, 100
1, 244560, Note_on_c, 0, 52, 100
1, 244560, Note_on_c, 0, 40, 100
1, 244610, Note_on_c, 0, 52, 0
1, 244610, Note_on_c, 0, 40, 0
1, 244680, Note_on_c, 0, 49, 100
1, 244680, Note_on_c, 0, 37, 100
1, 244790, Note_on_c, 0, 69, 0
1, 244790, Note_on_c, 0, 73, 0
1, 244790, Note_on_c, 0, 76, 0
1, 244790, Note_on_c, 0, 64, 0
1, 244790, Note_on_c, 0, 49, 0
1, 244790, Note_on_c, 0, 37, 0
1, 244800, Note_on_c, 0, 69, 100
1, 244800, Note_on_c, 0, 74, 100
1, 244800, Note_on_c, 0, 78, 100
1, 244800, Note_on_c, 0, 66, 100
1, 244800, Note_on_c, 0, 57, 100
1, 244800, Note_on_c, 0, 45, 100
1, 244850, Note_on_c, 0, 57, 0
1, 244850, Note_on_c, 0, 45, 0
1, 244920, Note_on_c, 0, 81, 100
1, 244920, Note_on_c, 0, 69, 100
1, 245030, Note_on_c, 0, 69, 0
1, 245030, Note_on_c, 0, 74, 0
1, 245030, Note_on_c, 0, 78, 0
1, 245030, Note_on_c, 0, 66, 0
1, 245030, Note_on_c, 0, 81, 0
1, 245030, Note_on_c, 0, 69, 0
1, 245040, Note_on_c, 0, 57, 100
1, 245040, Note_on_c, 0, 62, 100
1, 245040, Note_on_c, 0, 54, 100
1, 245040, Note_on_c, 0, 90, 100
1, 245040, Note_on_c, 0, 78, 100
1, 245090, Note_on_c, 0, 90, 0
1, 245090, Note_on_c, 0, 78, 0
1, 245160, Note_on_c, 0, 86, 100
1, 245160, Note_on_c, 0, 74, 100
1, 245270, Note_on_c, 0, 57, 0
1, 245270, Note_on_c, 0, 62, 0
1, 245270, Note_on_c, 0, 54, 0
1, 245270, Note_on_c, 0, 86, 0
1, 245270, Note_on_c, 0, 74, 0
1, 245280, Note_on_c, 0, 91, 100
1, 245280, Note_on_c, 0, 79, 100
1, 245280, Note_on_c, 0, 61, 100
1, 245280, Note_on_c, 0, 64, 100
1, 245280, Note_on_c, 0, 57, 100
1, 245308, Control_c, 0, 64, 127
1, 245330, Note_on_c, 0, 91, 0
1, 245330, Note_on_c, 0, 79, 0
1, 245400, Note_on_c, 0, 33, 100
1, 245510, Note_on_c, 0, 33, 0
1, 245510, Note_on_c, 0, 61, 0
1, 245510, Note_on_c, 0, 64, 0
1, 245510, Note_on_c, 0, 57, 0
1, 245520, Note_on_c, 0, 74, 100
1, 245520, Note_on_c, 0, 78, 100
1, 245520, Note_on_c, 0, 66, 100
1, 245520, Note_on_c, 0, 45, 100
1, 245570, Note_on_c, 0, 45, 0
1, 245607, Control_c, 0, 64, 0
1, 245630, Note_on_c, 0, 74, 0
1, 245630, Note_on_c, 0, 78, 0
1, 245630, Note_on_c, 0, 66, 0
1, 245640, Note_on_c, 0, 76, 100
1, 245640, Note_on_c, 0, 79, 100
1, 245640, Note_on_c, 0, 67, 100
1, 245640, Note_on_c, 0, 45, 100
1, 245707, Control_c, 0, 64, 127
1, 245750, Note_on_c, 0, 76, 0
1, 245750, Note_on_c, 0, 79, 0
1, 245750, Note_on_c, 0, 67, 0
1, 245750, Note_on_c, 0, 45, 0
1, 245760, Note_on_c, 0, 74, 100
1, 245760, Note_on_c, 0, 78, 100
1, 245760, Note_on_c, 0, 66, 100
1, 245760, Note_on_c, 0, 57, 100
1, 245810, Note_on_c, 0, 57, 0
1, 245880, Note_on_c, 0, 81, 100
1, 245880, Note_on_c, 0, 69, 100
1, 245990, Note_on_c, 0, 74, 0
1, 245990, Note_on_c, 0, 78, 0
1, 245990, Note_on_c, 0, 66, 0
1, 245990, Note_on_c, 0, 81, 0
1, 245990, Note_on_c, 0, 69, 0
1, 246000, Note_on_c, 0, 86, 100
1, 246000, Note_on_c, 0, 74, 100
1, 246000, Note_on_c, 0, 67, 100
1, 246000, Note_on_c, 0, 64, 100
1, 246000, Note_on_c, 0, 57, 100
1, 246050, Note_on_c, 0, 86, 0
1, 246050, Note_on_c, 0, 74, 0
1, 246074, Control_c, 0, 64, 0
1, 246110, Note_on_c, 0, 67, 0
1, 246110, Note_on_c, 0, 64, 0
1, 246120, Note_on_c, 0, 90, 100
1, 246120, Note_on_c, 0, 78, 100
1, 246120, Note_on_c, 0, 66, 100
1, 246120, Note_on_c, 0, 62, 100
1, 246178, Control_c, 0, 64, 127
1, 246230, Note_on_c, 0, 90, 0
1, 246230, Note_on_c, 0, 78, 0
1, 246230, Note_on_c, 0, 66, 0
1, 246230, Note_on_c, 0, 62, 0
1, 246230, Note_on_c, 0, 57, 0
1, 246240, Note_on_c, 0, 91, 100
1, 246240, Note_on_c, 0, 79, 100
1, 246240, Note_on_c, 0, 61, 100
1, 246240, Note_on_c, 0, 64, 100
1, 246240, Note_on_c, 0, 57, 100
1, 246290, Note_on_c, 0, 91, 0
1, 246290, Note_on_c, 0, 79, 0
1, 246350, Note_on_c, 0, 61, 0
1, 246350, Note_on_c, 0, 64, 0
1, 246350, Note_on_c, 0, 57, 0
1, 246360, Note_on_c, 0, 33, 100
1, 246470, Note_on_c, 0, 33, 0
1, 246480, Note_on_c, 0, 73, 100
1, 246480, Note_on_c, 0, 78, 100
1, 246480, Note_on_c, 0, 66, 100
1, 246480, Note_on_c, 0, 45, 100
1, 246530, Note_on_c, 0, 45, 0
1, 246558, Control_c, 0, 64, 0
1, 246590, Note_on_c, 0, 73, 0
1, 246590, Note_on_c, 0, 78, 0
1, 246590, Note_on_c, 0, 66, 0
1, 246600, Note_on_c, 0, 76, 100
1, 246600, Note_on_c, 0, 79, 100
1, 246600, Note_on_c, 0, 67, 100
1, 246600, Note_on_c, 0, 57, 100
1, 246600, Note_on_c, 0, 45, 100
1, 246638, Control_c, 0, 64, 127
1, 246710, Note_on_c, 0, 76, 0
1, 246710, Note_on_c, 0, 79, 0
1, 246710, Note_on_c, 0, 67, 0
1, 246710, Note_on_c, 0, 57, 0
1, 246710, Note_on_c, 0, 45, 0
1, 246720, Note_on_c, 0, 73, 100
1, 246720, Note_on_c, 0, 78, 100
1, 246720, Note_on_c, 0, 66, 100
1, 246720, Note_on_c, 0, 58, 100
1, 246720, Note_on_c, 0, 46, 100
1, 246770, Note_on_c, 0, 58, 0
1, 246770, Note_on_c, 0, 46, 0
1, 246840, Note_on_c, 0, 61, 100
1, 246840, Note_on_c, 0, 49, 100
1, 246950, Note_on_c, 0, 73, 0
1, 246950, Note_on_c, 0, 78, 0
1, 246950, Note_on_c, 0, 66, 0
1, 246950, Note_on_c, 0, 61, 0
1, 246950, Note_on_c, 0, 49, 0
1, 246960, Note_on_c, 0, 76, 100
1, 246960, Note_on_c, 0, 64, 100
1, 246960, Note_on_c, 0, 70, 100
1, 246960, Note_on_c, 0, 54, 100
1, 246960, Note_on_c, 0, 42, 100
1, 246960, Control_c, 0, 64, 0
1, 247010, Note_on_c, 0, 54, 0
1, 247010, Note_on_c, 0, 42, 0
1, 247070, Note_on_c, 0, 70, 0
1, 247080, Note_on_c, 0, 73, 100
1, 247080, Note_on_c, 0, 58, 100
1, 247080, Note_on_c, 0, 46, 100
1, 247190, Note_on_c, 0, 76, 0
1, 247190, Note_on_c, 0, 64, 0
1, 247190, Note_on_c, 0, 73, 0
1, 247190, Note_on_c, 0, 58, 0
1, 247190, Note_on_c, 0, 46, 0
1, 247200, Note_on_c, 0, 74, 100
1, 247200, Note_on_c, 0, 62, 100
1, 247200, Note_on_c, 0, 66, 100
1, 247200, Note_on_c, 0, 59, 100
1, 247200, Note_on_c, 0, 47, 100
1, 247250, Note_on_c, 0, 59, 0
1, 247250, Note_on_c, 0, 47, 0
1, 247307, Control_c, 0, 64, 127
1, 247310, Note_on_c, 0, 66, 0
1, 247320, Note_on_c, 0, 71, 100
1, 247320, Note_on_c, 0, 62, 100
1, 247320, Note_on_c, 0, 50, 100
1, 247430, Note_on_c, 0, 74, 0
1, 247430, Note_on_c, 0, 62, 0
1, 247430, Note_on_c, 0, 71, 0
1, 247430, Note_on_c, 0, 62, 0
1, 247430, Note_on_c, 0, 50, 0
1, 247440, Note_on_c, 0, 76, 100
1, 247440, Note_on_c, 0, 68, 100
1, 247440, Note_on_c, 0, 62, 100
1, 247440, Note_on_c, 0, 52, 100
1, 247440, Note_on_c, 0, 40, 100
1, 247440, Control_c, 0, 64, 0
1, 247490, Note_on_c, 0, 52, 0
1, 247490, Note_on_c, 0, 40, 0
1, 247550, Note_on_c, 0, 68, 0
1, 247550, Note_on_c, 0, 62, 0
1, 247560, Note_on_c, 0, 71, 100
1, 247560, Note_on_c, 0, 64, 100
1, 247560, Note_on_c, 0, 56, 100
1, 247560, Note_on_c, 0, 44, 100
1, 247603, Control_c, 0, 64, 127
1, 247670, Note_on_c, 0, 76, 0
1, 247670, Note_on_c, 0, 71, 0
1, 247670, Note_on_c, 0, 64, 0
1, 247670, Note_on_c, 0, 56, 0
1, 247670, Note_on_c, 0, 44, 0
1, 247680, Note_on_c, 0, 64, 100
1, 247680, Note_on_c, 0, 69, 100
1, 247680, Note_on_c, 0, 61, 100
1, 247680, Note_on_c, 0, 57, 100
1, 247680, Note_on_c, 0, 45, 100
1, 247692, Control_c, 0, 64, 0
1, 247730, Note_on_c, 0, 57, 0
1, 247730, Note_on_c, 0, 45, 0
1, 247790, Note_on_c, 0, 64, 0
1, 247790, Note_on_c, 0, 69, 0
1, 247790, Note_on_c, 0, 61, 0
1, 247800, Note_on_c, 0, 45, 100
1, 247819, Control_c, 0, 64, 127
1, 247910, Note_on_c, 0, 45, 0
1, 247920, Note_on_c, 0, 74, 100
1, 247920, Note_on_c, 0, 78, 100
1, 247920, Note_on_c, 0, 66, 100
1, 247920, Note_on_c, 0, 33, 100
1, 247944, Control_c, 0, 64, 0
1, 248030, Note_on_c, 0, 33, 0
1, 248040, Note_on_c, 0, 45, 100
1, 248040, Note_on_c, 0, 33, 100
1, 248150, Note_on_c, 0, 45, 0
1, 248150, Note_on_c, 0, 33, 0
1, 248160, Note_on_c, 0, 50, 100
1, 248160, Note_on_c, 0, 38, 100
1, 248365, Control_c, 0, 64, 127
1, 248390, Note_on_c, 0, 74, 0
1, 248390, Note_on_c, 0, 78, 0
1, 248390, Note_on_c, 0, 66, 0
1, 248400, Note_on_c, 0, 74, 100
1, 248400, Note_on_c, 0, 78, 100
1, 248400, Note_on_c, 0, 66, 100
1, 248630, Note_on_c, 0, 74, 0
1, 248630, Note_on_c, 0, 78, 0
1, 248630, Note_on_c, 0, 66, 0
1, 248640, Note_on_c, 0, 76, 100
1, 248640, Note_on_c, 0, 79, 100
1, 248640, Note_on_c, 0, 67, 100
1, 248745, Control_c, 0, 64, 0
1, 248870, Note_on_c, 0, 76, 0
1, 248870, Note_on_c, 0, 79, 0
1, 248870, Note_on_c, 0, 67, 0
1, 248870, Note_on_c, 0, 50, 0
1, 248870, Note_on_c, 0, 38, 0
1, 248880, Note_on_c, 0, 78, 100
1, 248880, Note_on_c, 0, 81, 100
1, 248880, Note_on_c, 0, 69, 100
1, 248880, Note_on_c, 0, 49, 100
1, 248880, Note_on_c, 0, 37, 100
1, 248990, Note_on_c, 0, 49, 0
1, 248990, Note_on_c, 0, 37, 0
1, 249000, Note_on_c, 0, 47, 100
1, 249000, Note_on_c, 0, 35, 100
1, 249110, Note_on_c, 0, 78, 0
1, 249110, Note_on_c, 0, 81, 0
1, 249110, Note_on_c, 0, 69, 0
1, 249110, Note_on_c, 0, 47, 0
1, 249110, Note_on_c, 0, 35, 0
1, 249120, Note_on_c, 0, 78, 100
1, 249120, Note_on_c, 0, 81, 100
1, 249120, Note_on_c, 0, 69, 100
1, 249120, Note_on_c, 0, 45, 100
1, 249120, Note_on_c, 0, 33, 100
1, 249230, Note_on_c, 0, 45, 0
1, 249230, Note_on_c, 0, 33, 0
1, 249240, Note_on_c, 0, 47, 95
1, 249240, Note_on_c, 0, 35, 95
1, 249350, Note_on_c, 0, 78, 0
1, 249350, Note_on_c, 0, 81, 0
1, 249350, Note_on_c, 0, 69, 0
1, 249350, Note_on_c, 0, 47, 0
1, 249350, Note_on_c, 0, 35, 0
1, 249360, Note_on_c, 0, 76, 88
1, 249360, Note_on_c, 0, 79, 88
1, 249360, Note_on_c, 0, 67, 88
1, 249360, Note_on_c, 0, 49, 90
1, 249360, Note_on_c, 0, 37, 90
1, 249470, Note_on_c, 0, 49, 0
1, 249470, Note_on_c, 0, 37, 0
1, 249480, Note_on_c, 0, 50, 85
1, 249480, Note_on_c, 0, 38, 85
1, 249590, Note_on_c, 0, 76, 0
1, 249590, Note_on_c, 0, 79, 0
1, 249590, Note_on_c, 0, 67, 0
1, 249590, Note_on_c, 0, 50, 0
1, 249590, Note_on_c, 0, 38, 0
1, 249600, Note_on_c, 0, 74, 76
1, 249600, Note_on_c, 0, 78, 76
1, 249600, Note_on_c, 0, 66, 76
1, 249600, Note_on_c, 0, 52, 79
1, 249600, Note_on_c, 0, 40, 79
1, 249710, Note_on_c, 0, 52, 0
1, 249710, Note_on_c, 0, 40, 0
1, 249720, Note_on_c, 0, 54, 74
1, 249720, Note_on_c, 0, 42, 74
1, 249830, Note_on_c, 0, 74, 0
1, 249830, Note_on_c, 0, 78, 0
1, 249830, Note_on_c, 0, 66, 0
1, 249830, Note_on_c, 0, 54, 0
1, 249830, Note_on_c, 0, 42, 0
1, 249840, Note_on_c, 0, 69, 63
1, 249840, Note_on_c, 0, 73, 63
1, 249840, Note_on_c, 0, 76, 63
1, 249840, Note_on_c, 0, 64, 63
1, 249840, Note_on_c, 0, 55, 69
1, 249840, Note_on_c, 0, 43, 69
1, 249950, Note_on_c, 0, 55, 0
1, 249950, Note_on_c, 0, 43, 0
1, 249960, Note_on_c, 0, 52, 63
1, 249960, Note_on_c, 0, 40, 63
1, 250070, Note_on_c, 0, 69, 0
1, 250070, Note_on_c, 0, 73, 0
1, 250070, Note_on_c, 0, 76, 0
1, 250070, Note_on_c, 0, 64, 0
1, 250070, Note_on_c, 0, 52, 0
1, 250070, Note_on_c, 0, 40, 0
1, 250080, Note_on_c, 0, 69, 63
1, 250080, Note_on_c, 0, 74, 63
1, 250080, Note_on_c, 0, 62, 63
1, 250080, Note_on_c, 0, 54, 63
1, 250080, Note_on_c, 0, 42, 63
1, 250200, Note_on_c, 0, 54, 63
1, 250310, Note_on_c, 0, 69, 0
1, 250310, Note_on_c, 0, 74, 0
1, 250310, Note_on_c, 0, 62, 0
1, 250310, Note_on_c, 0, 54, 0
1, 250310, Note_on_c, 0, 42, 0
1, 250310, Note_on_c, 0, 54, 0
1, 250320, Note_on_c, 0, 66, 63
1, 250320, Note_on_c, 0, 74, 63
1, 250320, Note_on_c, 0, 62, 63
1, 250320, Note_on_c, 0, 57, 63
1, 250430, Note_on_c, 0, 57, 0
1, 250440, Note_on_c, 0, 42, 63
1, 250550, Note_on_c, 0, 66, 0
1, 250550, Note_on_c, 0, 74, 0
1, 250550, Note_on_c, 0, 62, 0
1, 250550, Note_on_c, 0, 42, 0
1, 250560, Note_on_c, 0, 67, 63
1, 250560, Note_on_c, 0, 76, 63
1, 250560, Note_on_c, 0, 64, 63
1, 250560, Note_on_c, 0, 38, 63
1, 250670, Note_on_c, 0, 38, 0
1, 250680, Note_on_c, 0, 50, 63
1, 250790, Note_on_c, 0, 67, 0
1, 250790, Note_on_c, 0, 76, 0
1, 250790, Note_on_c, 0, 64, 0
1, 250790, Note_on_c, 0, 50, 0
1, 250800, Note_on_c, 0, 69, 63
1, 250800, Note_on_c, 0, 78, 63
1, 250800, Note_on_c, 0, 66, 63
1, 250800, Note_on_c, 0, 57, 63
1, 250910, Note_on_c, 0, 57, 0
1, 250920, Note_on_c, 0, 38, 63
1, 251030, Note_on_c, 0, 69, 0
1, 251030, Note_on_c, 0, 78, 0
1, 251030, Note_on_c, 0, 66, 0
1, 251030, Note_on_c, 0, 38, 0
1, 251040, Note_on_c, 0, 67, 63
1, 251040, Note_on_c, 0, 76, 63
1, 251040, Note_on_c, 0, 64, 63
1, 251040, Note_on_c, 0, 45, 63
1, 251150, Note_on_c, 0, 45, 0
1, 251160, Note_on_c, 0, 57, 63
1, 251270, Note_on_c, 0, 57, 0
1, 251280, Note_on_c, 0, 61, 63
1, 251390, Note_on_c, 0, 67, 0
1, 251390, Note_on_c, 0, 76, 0
1, 251390, Note_on_c, 0, 64, 0
1, 251390, Note_on_c, 0, 61, 0
1, 251400, Note_on_c, 0, 66, 63
1, 251400, Note_on_c, 0, 74, 63
1, 251400, Note_on_c, 0, 62, 63
1, 251400, Note_on_c, 0, 45, 63
1, 251510, Note_on_c, 0, 66, 0
1, 251510, Note_on_c, 0, 74, 0
1, 251510, Note_on_c, 0, 62, 0
1, 251510, Note_on_c, 0, 45, 0
1, 251520, Note_on_c, 0, 66, 63
1, 251520, Note_on_c, 0, 74, 63
1, 251520, Note_on_c, 0, 62, 63
1, 251520, Note_on_c, 0, 38, 63
1, 251630, Note_on_c, 0, 38, 0
1, 251640, Note_on_c, 0, 57, 63
1, 251750, Note_on_c, 0, 66, 0
1, 251750, Note_on_c, 0, 74, 0
1, 251750, Note_on_c, 0, 62, 0
1, 251750, Note_on_c, 0, 57, 0
1, 251760, Note_on_c, 0, 78, 63
1, 251760, Note_on_c, 0, 81, 63
1, 251760, Note_on_c, 0, 69, 63
1, 251760, Note_on_c, 0, 62, 63
1, 251870, Note_on_c, 0, 62, 0
1, 251880, Note_on_c, 0, 57, 63
1, 251990, Note_on_c, 0, 78, 0
1, 251990, Note_on_c, 0, 81, 0
1, 251990, Note_on_c, 0, 69, 0
1, 251990, Note_on_c, 0, 57, 0
1, 252000, Note_on_c, 0, 76, 63
1, 252000, Note_on_c, 0, 79, 63
1, 252000, Note_on_c, 0, 67, 63
1, 252000, Note_on_c, 0, 50, 63
1, 252110, Note_on_c, 0, 50, 0
1, 252120, Note_on_c, 0, 57, 63
1, 252230, Note_on_c, 0, 57, 0
1, 252240, Note_on_c, 0, 62, 63
1, 252350, Note_on_c, 0, 76, 0
1, 252350, Note_on_c, 0, 79, 0
1, 252350, Note_on_c, 0, 67, 0
1, 252350, Note_on_c, 0, 62, 0
1, 252360, Note_on_c, 0, 74, 63
1, 252360, Note_on_c, 0, 78, 63
1, 252360, Note_on_c, 0, 66, 63
1, 252360, Note_on_c, 0, 57, 63
1, 252470, Note_on_c, 0, 74, 0
1, 252470, Note_on_c, 0, 78, 0
1, 252470, Note_on_c, 0, 66, 0
1, 252470, Note_on_c, 0, 57, 0
1, 252480, Note_on_c, 0, 74, 63
1, 252480, Note_on_c, 0, 78, 63
1, 252480, Note_on_c, 0, 66, 63
1, 252480, Note_on_c, 0, 50, 63
1, 252590, Note_on_c, 0, 50, 0
1, 252600, Note_on_c, 0, 57, 63
1, 252710, Note_on_c, 0, 74, 0
1, 252710, Note_on_c, 0, 78, 0
1, 252710, Note_on_c, 0, 66, 0
1, 252710, Note_on_c, 0, 57, 0
1, 252720, Note_on_c, 0, 83, 63
1, 252720, Note_on_c, 0, 86, 63
1, 252720, Note_on_c, 0, 74, 63
1, 252720, Note_on_c, 0, 62, 63
1, 252830, Note_on_c, 0, 62, 0
1, 252840, Note_on_c, 0, 50, 63
1, 252950, Note_on_c, 0, 83, 0
1, 252950, Note_on_c, 0, 86, 0
1, 252950, Note_on_c, 0, 74, 0
1, 252950, Note_on_c, 0, 50, 0
1, 252960, Note_on_c, 0, 78, 63
1, 252960, Note_on_c, 0, 81, 63
1, 252960, Note_on_c, 0, 84, 63
1, 252960, Note_on_c, 0, 72, 63
1, 252960, Note_on_c, 0, 55, 63
1, 253070, Note_on_c, 0, 55, 0
1, 253080, Note_on_c, 0, 62, 63
1, 253190, Note_on_c, 0, 62, 0
1, 253200, Note_on_c, 0, 67, 63
1, 253310, Note_on_c, 0, 78, 0
1, 253310, Note_on_c, 0, 81, 0
1, 253310, Note_on_c, 0, 84, 0
1, 253310, Note_on_c, 0, 72, 0
1, 253310, Note_on_c, 0, 67, 0
1, 253320, Note_on_c, 0, 79, 63
1, 253320, Note_on_c, 0, 83, 63
1, 253320, Note_on_c, 0, 71, 63
1, 253320, Note_on_c, 0, 62, 63
1, 253430, Note_on_c, 0, 79, 0
1, 253430, Note_on_c, 0, 83, 0
1, 253430, Note_on_c, 0, 71, 0
1, 253430, Note_on_c, 0, 62, 0
1, 253440, Note_on_c, 0, 79, 63
1, 253440, Note_on_c, 0, 83, 63
1, 253440, Note_on_c, 0, 71, 63
1, 253440, Note_on_c, 0, 55, 63
1, 253550, Note_on_c, 0, 55, 0
1, 253560, Note_on_c, 0, 67, 63
1, 253670, Note_on_c, 0, 79, 0
1, 253670, Note_on_c, 0, 83, 0
1, 253670, Note_on_c, 0, 71, 0
1, 253670, Note_on_c, 0, 67, 0
1, 253680, Note_on_c, 0, 83, 63
1, 253680, Note_on_c, 0, 91, 63
1, 253680, Note_on_c, 0, 79, 63
1, 253680, Note_on_c, 0, 71, 63
1, 253790, Note_on_c, 0, 83, 0
1, 253790, Note_on_c, 0, 91, 0
1, 253790, Note_on_c, 0, 79, 0
1, 253790, Note_on_c, 0, 71, 0
1, 253800, Note_on_c, 0, 79, 63
1, 253800, Note_on_c, 0, 88, 63
1, 253800, Note_on_c, 0, 76, 63
1, 253800, Note_on_c, 0, 55, 63
1, 253910, Note_on_c, 0, 79, 0
1, 253910, Note_on_c, 0, 88, 0
1, 253910, Note_on_c, 0, 76, 0
1, 253910, Note_on_c, 0, 55, 0
1, 253920, Note_on_c, 0, 78, 63
1, 253920, Note_on_c, 0, 86, 63
1, 253920, Note_on_c, 0, 74, 63
1, 253920, Note_on_c, 0, 57, 63
1, 254030, Note_on_c, 0, 78, 0
1, 254030, Note_on_c, 0, 86, 0
1, 254030, Note_on_c, 0, 74, 0
1, 254030, Note_on_c, 0, 57, 0
1, 254040, Note_on_c, 0, 85, 63
1, 254040, Note_on_c, 0, 73, 63
1, 254040, Note_on_c, 0, 64, 63
1, 254150, Note_on_c, 0, 85, 0
1, 254150, Note_on_c, 0, 73, 0
1, 254150, Note_on_c, 0, 64, 0
1, 254160, Note_on_c, 0, 79, 63
1, 254160, Note_on_c, 0, 88, 63
1, 254160, Note_on_c, 0, 76, 63
1, 254160, Note_on_c, 0, 67, 63
1, 254270, Note_on_c, 0, 79, 0
1, 254270, Note_on_c, 0, 88, 0
1, 254270, Note_on_c, 0, 76, 0
1, 254270, Note_on_c, 0, 67, 0
1, 254280, Note_on_c, 0, 76, 63
1, 254280, Note_on_c, 0, 85, 63
1, 254280, Note_on_c, 0, 73, 63
1, 254280, Note_on_c, 0, 57, 63
1, 254390, Note_on_c, 0, 76, 0
1, 254390, Note_on_c, 0, 85, 0
1, 254390, Note_on_c, 0, 73, 0
1, 254390, Note_on_c, 0, 57, 0
1, 254400, Note_on_c, 0, 74, 63
1, 254400, Note_on_c, 0, 83, 63
1, 254400, Note_on_c, 0, 71, 63
1, 254400, Note_on_c, 0, 45, 63
1, 254510, Note_on_c, 0, 74, 0
1, 254510, Note_on_c, 0, 83, 0
1, 254510, Note_on_c, 0, 71, 0
1, 254510, Note_on_c, 0, 45, 0
1, 254520, Note_on_c, 0, 73, 63
1, 254520, Note_on_c, 0, 81, 63
1, 254520, Note_on_c, 0, 69, 63
1, 254520, Note_on_c, 0, 57, 63
1, 254630, Note_on_c, 0, 73, 0
1, 254630, Note_on_c, 0, 81, 0
1, 254630, Note_on_c, 0, 69, 0
1, 254630, Note_on_c, 0, 57, 0
1, 254640, Note_on_c, 0, 74, 63
1, 254640, Note_on_c, 0, 83, 63
1, 254640, Note_on_c, 0, 71, 63
1, 254640, Note_on_c, 0, 69, 63
1, 254750, Note_on_c, 0, 74, 0
1, 254750, Note_on_c, 0, 83, 0
1, 254750, Note_on_c, 0, 71, 0
1, 254750, Note_on_c, 0, 69, 0
1, 254760, Note_on_c, 0, 76, 63
1, 254760, Note_on_c, 0, 85, 63
1, 254760, Note_on_c, 0, 73, 63
1, 254760, Note_on_c, 0, 57, 63
1, 254870, Note_on_c, 0, 76, 0
1, 254870, Note_on_c, 0, 85, 0
1, 254870, Note_on_c, 0, 73, 0
1, 254870, Note_on_c, 0, 57, 0
1, 254880, Note_on_c, 0, 78, 63
1, 254880, Note_on_c, 0, 86, 63
1, 254880, Note_on_c, 0, 74, 63
1, 254880, Note_on_c, 0, 66, 63
1, 254880, Note_on_c, 0, 69, 63
1, 254880, Note_on_c, 0, 62, 63
1, 254990, Note_on_c, 0, 78, 0
1, 254990, Note_on_c, 0, 86, 0
1, 254990, Note_on_c, 0, 74, 0
1, 254990, Note_on_c, 0, 66, 0
1, 254990, Note_on_c, 0, 69, 0
1, 254990, Note_on_c, 0, 62, 0
1, 255000, Note_on_c, 0, 81, 63
1, 255000, Note_on_c, 0, 90, 63
1, 255000, Note_on_c, 0, 78, 63
1, 255110, Note_on_c, 0, 81, 0
1, 255110, Note_on_c, 0, 90, 0
1, 255110, Note_on_c, 0, 78, 0
1, 255120, Note_on_c, 0, 79, 63
1, 255120, Note_on_c, 0, 88, 63
1, 255120, Note_on_c, 0, 76, 63
1, 255120, Note_on_c, 0, 61, 63
1, 255120, Note_on_c, 0, 64, 63
1, 255120, Note_on_c, 0, 69, 63
1, 255120, Note_on_c, 0, 57, 63
1, 255230, Note_on_c, 0, 79, 0
1, 255230, Note_on_c, 0, 88, 0
1, 255230, Note_on_c, 0, 76, 0
1, 255230, Note_on_c, 0, 61, 0
1, 255230, Note_on_c, 0, 64, 0
1, 255230, Note_on_c, 0, 69, 0
1, 255230, Note_on_c, 0, 57, 0
1, 255240, Note_on_c, 0, 76, 63
1, 255240, Note_on_c, 0, 85, 63
1, 255240, Note_on_c, 0, 73, 63
1, 255350, Note_on_c, 0, 76, 0
1, 255350, Note_on_c, 0, 85, 0
1, 255350, Note_on_c, 0, 73, 0
1, 255360, Note_on_c, 0, 78, 63
1, 255360, Note_on_c, 0, 86, 63
1, 255360, Note_on_c, 0, 74, 63
1, 255360, Note_on_c, 0, 66, 63
1, 255360, Note_on_c, 0, 69, 63
1, 255360, Note_on_c, 0, 62, 63
1, 255470, Note_on_c, 0, 78, 0
1, 255470, Note_on_c, 0, 86, 0
1, 255470, Note_on_c, 0, 74, 0
1, 255470, Note_on_c, 0, 66, 0
1, 255470, Note_on_c, 0, 69, 0
1, 255470, Note_on_c, 0, 62, 0
1, 255480, Note_on_c, 0, 57, 63
1, 255480, Note_on_c, 0, 54, 63
1, 255590, Note_on_c, 0, 57, 0
1, 255590, Note_on_c, 0, 54, 0
1, 255600, Note_on_c, 0, 59, 63
1, 255600, Note_on_c, 0, 55, 63
1, 255600, Note_on_c, 0, 38, 63
1, 255710, Note_on_c, 0, 59, 0
1, 255710, Note_on_c, 0, 55, 0
1, 255720, Note_on_c, 0, 61, 63
1, 255720, Note_on_c, 0, 52, 63
1, 255830, Note_on_c, 0, 61, 0
1, 255830, Note_on_c, 0, 52, 0
1, 255830, Note_on_c, 0, 38, 0
1, 255840, Note_on_c, 0, 62, 63
1, 255840, Note_on_c, 0, 54, 63
1, 255840, Note_on_c, 0, 38, 63
1, 255950, Note_on_c, 0, 62, 0
1, 255950, Note_on_c, 0, 54, 0
1, 255950, Note_on_c, 0, 38, 0
1, 255960, Note_on_c, 0, 64, 63
1, 255960, Note_on_c, 0, 55, 63
1, 256070, Note_on_c, 0, 64, 0
1, 256070, Note_on_c, 0, 55, 0
1, 256080, Note_on_c, 0, 52, 63
1, 256080, Note_on_c, 0, 38, 63
1, 256110, Note_on_c, 0, 52, 0
1, 256120, Note_on_c, 0, 61, 63
1, 256150, Note_on_c, 0, 61, 0
1, 256160, Note_on_c, 0, 52, 63
1, 256190, Note_on_c, 0, 52, 0
1, 256190, Note_on_c, 0, 38, 0
1, 256200, Note_on_c, 0, 62, 63
1, 256200, Note_on_c, 0, 54, 63
1, 256310, Note_on_c, 0, 62, 0
1, 256310, Note_on_c, 0, 54, 0
1, 256320, Note_on_c, 0, 64, 63
1, 256320, Note_on_c, 0, 55, 63
1, 256320, Note_on_c, 0, 38, 63
1, 256430, Note_on_c, 0, 64, 0
1, 256430, Note_on_c, 0, 55, 0
1, 256430, Note_on_c, 0, 38, 0
1, 256440, Note_on_c, 0, 66, 63
1, 256440, Note_on_c, 0, 57, 63
1, 256550, Note_on_c, 0, 66, 0
1, 256550, Note_on_c, 0, 57, 0
1, 256560, Note_on_c, 0, 59, 63
1, 256560, Note_on_c, 0, 38, 63
1, 256590, Note_on_c, 0, 59, 0
1, 256600, Note_on_c, 0, 67, 63
1, 256630, Note_on_c, 0, 67, 0
1, 256640, Note_on_c, 0, 59, 63
1, 256670, Note_on_c, 0, 59, 0
1, 256670, Note_on_c, 0, 38, 0
1, 256680, Note_on_c, 0, 66, 63
1, 256680, Note_on_c, 0, 57, 63
1, 256790, Note_on_c, 0, 66, 0
1, 256790, Note_on_c, 0, 57, 0
1, 256800, Note_on_c, 0, 66, 63
1, 256800, Note_on_c, 0, 57, 63
1, 256800, Note_on_c, 0, 38, 63
1, 256910, Note_on_c, 0, 66, 0
1, 256910, Note_on_c, 0, 57, 0
1, 256910, Note_on_c, 0, 38, 0
1, 256920, Note_on_c, 0, 64, 63
1, 256920, Note_on_c, 0, 55, 63
1, 257030, Note_on_c, 0, 64, 0
1, 257030, Note_on_c, 0, 55, 0
1, 257040, Note_on_c, 0, 59, 63
1, 257040, Note_on_c, 0, 38, 63
1, 257070, Note_on_c, 0, 59, 0
1, 257080, Note_on_c, 0, 67, 63
1, 257110, Note_on_c, 0, 67, 0
1, 257120, Note_on_c, 0, 59, 63
1, 257150, Note_on_c, 0, 59, 0
1, 257150, Note_on_c, 0, 38, 0
1, 257160, Note_on_c, 0, 64, 63
1, 257160, Note_on_c, 0, 55, 63
1, 257270, Note_on_c, 0, 64, 0
1, 257270, Note_on_c, 0, 55, 0
1, 257280, Note_on_c, 0, 62, 63
1, 257280, Note_on_c, 0, 54, 63
1, 257280, Note_on_c, 0, 38, 63
1, 257390, Note_on_c, 0, 62, 0
1, 257390, Note_on_c, 0, 54, 0
1, 257390, Note_on_c, 0, 38, 0
1, 257400, Note_on_c, 0, 61, 63
1, 257400, Note_on_c, 0, 52, 63
1, 257510, Note_on_c, 0, 61, 0
1, 257510, Note_on_c, 0, 52, 0
1, 257520, Note_on_c, 0, 55, 63
1, 257520, Note_on_c, 0, 38, 63
1, 257550, Note_on_c, 0, 55, 0
1, 257560, Note_on_c, 0, 64, 63
1, 257590, Note_on_c, 0, 64, 0
1, 257600, Note_on_c, 0, 57, 63
1, 257630, Note_on_c, 0, 57, 0
1, 257630, Note_on_c, 0, 38, 0
1, 257640, Note_on_c, 0, 55, 63
1, 257640, Note_on_c, 0, 52, 63
1, 257750, Note_on_c, 0, 55, 0
1, 257750, Note_on_c, 0, 52, 0
1, 257760, Note_on_c, 0, 54, 63
1, 257760, Note_on_c, 0, 50, 63
1, 257760, Note_on_c, 0, 38, 63
1, 257870, Note_on_c, 0, 54, 0
1, 257870, Note_on_c, 0, 50, 0
1, 257870, Note_on_c, 0, 38, 0
1, 257880, Note_on_c, 0, 55, 63
1, 257880, Note_on_c, 0, 52, 63
1, 257990, Note_on_c, 0, 55, 0
1, 257990, Note_on_c, 0, 52, 0
1, 258000, Note_on_c, 0, 54, 63
1, 258000, Note_on_c, 0, 38, 63
1, 258030, Note_on_c, 0, 54, 0
1, 258040, Note_on_c, 0, 57, 63
1, 258070, Note_on_c, 0, 57, 0
1, 258080, Note_on_c, 0, 54, 63
1, 258110, Note_on_c, 0, 54, 0
1, 258110, Note_on_c, 0, 38, 0
1, 258120, Note_on_c, 0, 59, 63
1, 258120, Note_on_c, 0, 55, 63
1, 258230, Note_on_c, 0, 59, 0
1, 258230, Note_on_c, 0, 55, 0
1, 258240, Note_on_c, 0, 61, 63
1, 258240, Note_on_c, 0, 57, 63
1, 258240, Note_on_c, 0, 38, 63
1, 258350, Note_on_c, 0, 61, 0
1, 258350, Note_on_c, 0, 57, 0
1, 258350, Note_on_c, 0, 38, 0
1, 258360, Note_on_c, 0, 62, 63
1, 258360, Note_on_c, 0, 59, 63
1, 258470, Note_on_c, 0, 62, 0
1, 258470, Note_on_c, 0, 59, 0
1, 258480, Note_on_c, 0, 61, 63
1, 258480, Note_on_c, 0, 38, 63
1, 258510, Note_on_c, 0, 61, 0
1, 258520, Note_on_c, 0, 64, 63
1, 258550, Note_on_c, 0, 64, 0
1, 258560, Note_on_c, 0, 61, 63
1, 258590, Note_on_c, 0, 61, 0
1, 258590, Note_on_c, 0, 38, 0
1, 258600, Note_on_c, 0, 66, 63
1, 258600, Note_on_c, 0, 62, 63
1, 258710, Note_on_c, 0, 66, 0
1, 258710, Note_on_c, 0, 62, 0
1, 258720, Note_on_c, 0, 66, 63
1, 258720, Note_on_c, 0, 62, 63
1, 258720, Note_on_c, 0, 38, 63
1, 258830, Note_on_c, 0, 66, 0
1, 258830, Note_on_c, 0, 62, 0
1, 258830, Note_on_c, 0, 38, 0
1, 258840, Note_on_c, 0, 64, 63
1, 258840, Note_on_c, 0, 61, 63
1, 258950, Note_on_c, 0, 64, 0
1, 258950, Note_on_c, 0, 61, 0
1, 258960, Note_on_c, 0, 64, 63
1, 258960, Note_on_c, 0, 38, 63
1, 258990, Note_on_c, 0, 64, 0
1, 259000, Note_on_c, 0, 67, 63
1, 259030, Note_on_c, 0, 67, 0
1, 259040, Note_on_c, 0, 64, 63
1, 259070, Note_on_c, 0, 64, 0
1, 259070, Note_on_c, 0, 38, 0
1, 259080, Note_on_c, 0, 66, 63
1, 259080, Note_on_c, 0, 62, 63
1, 259190, Note_on_c, 0, 66, 0
1, 259190, Note_on_c, 0, 62, 0
1, 259200, Note_on_c, 0, 64, 63
1, 259200, Note_on_c, 0, 61, 63
1, 259200, Note_on_c, 0, 67, 63
1, 259200, Note_on_c, 0, 38, 63
1, 259310, Note_on_c, 0, 67, 0
1, 259310, Note_on_c, 0, 38, 0
1, 259320, Note_on_c, 0, 66, 63
1, 259430, Note_on_c, 0, 64, 0
1, 259430, Note_on_c, 0, 61, 0
1, 259430, Note_on_c, 0, 66, 0
1, 259440, Note_on_c, 0, 64, 63
1, 259440, Note_on_c, 0, 61, 63
1, 259440, Note_on_c, 0, 38, 63
1, 259470, Note_on_c, 0, 64, 0
1, 259470, Note_on_c, 0, 61, 0
1, 259480, Note_on_c, 0, 69, 63
1, 259510, Note_on_c, 0, 69, 0
1, 259520, Note_on_c, 0, 64, 63
1, 259520, Note_on_c, 0, 61, 63
1, 259550, Note_on_c, 0, 64, 0
1, 259550, Note_on_c, 0, 61, 0
1, 259550, Note_on_c, 0, 38, 0
1, 259560, Note_on_c, 0, 67, 63
1, 259670, Note_on_c, 0, 67, 0
1, 259680, Note_on_c, 0, 66, 63
1, 259680, Note_on_c, 0, 62, 63
1, 259680, Note_on_c, 0, 38, 63
1, 259790, Note_on_c, 0, 66, 0
1, 259800, Note_on_c, 0, 67, 63
1, 259910, Note_on_c, 0, 67, 0
1, 259910, Note_on_c, 0, 62, 0
1, 259910, Note_on_c, 0, 38, 0
1, 259920, Note_on_c, 0, 68, 63
1, 259920, Note_on_c, 0, 66, 63
1, 259920, Note_on_c, 0, 62, 63
1, 259920, Note_on_c, 0, 54, 63
1, 259950, Note_on_c, 0, 54, 0
1, 259960, Note_on_c, 0, 55, 63
1, 259990, Note_on_c, 0, 55, 0
1, 260000, Note_on_c, 0, 54, 63
1, 260030, Note_on_c, 0, 68, 0
1, 260030, Note_on_c, 0, 54, 0
1, 260040, Note_on_c, 0, 69, 63
1, 260040, Note_on_c, 0, 52, 63
1, 260070, Note_on_c, 0, 52, 0
1, 260080, Note_on_c, 0, 54, 63
1, 260110, Note_on_c, 0, 54, 0
1, 260150, Note_on_c, 0, 69, 0
1, 260150, Note_on_c, 0, 66, 0
1, 260150, Note_on_c, 0, 62, 0
1, 260160, Note_on_c, 0, 68, 63
1, 260160, Note_on_c, 0, 66, 63
1, 260160, Note_on_c, 0, 62, 63
1, 260160, Note_on_c, 0, 38, 63
1, 260270, Note_on_c, 0, 68, 0
1, 260280, Note_on_c, 0, 69, 63
1, 260390, Note_on_c, 0, 69, 0
1, 260390, Note_on_c, 0, 66, 0
1, 260390, Note_on_c, 0, 62, 0
1, 260390, Note_on_c, 0, 38, 0
1, 260400, Note_on_c, 0, 71, 63
1, 260400, Note_on_c, 0, 66, 63
1, 260400, Note_on_c, 0, 62, 63
1, 260430, Note_on_c, 0, 62, 0
1, 260440, Note_on_c, 0, 64, 63
1, 260470, Note_on_c, 0, 64, 0
1, 260480, Note_on_c, 0, 62, 63
1, 260510, Note_on_c, 0, 71, 0
1, 260510, Note_on_c, 0, 62, 0
1, 260520, Note_on_c, 0, 69, 63
1, 260520, Note_on_c, 0, 61, 63
1, 260550, Note_on_c, 0, 61, 0
1, 260560, Note_on_c, 0, 62, 63
1, 260590, Note_on_c, 0, 62, 0
1, 260630, Note_on_c, 0, 69, 0
1, 260630, Note_on_c, 0, 66, 0
1, 260640, Note_on_c, 0, 69, 63
1, 260640, Note_on_c, 0, 62, 63
1, 260640, Note_on_c, 0, 59, 63
1, 260640, Note_on_c, 0, 38, 63
1, 260750, Note_on_c, 0, 69, 0
1, 260760, Note_on_c, 0, 67, 63
1, 260870, Note_on_c, 0, 67, 0
1, 260870, Note_on_c, 0, 62, 0
1, 260870, Note_on_c, 0, 59, 0
1, 260870, Note_on_c, 0, 38, 0
1, 260880, Note_on_c, 0, 71, 63
1, 260880, Note_on_c, 0, 62, 63
1, 260880, Note_on_c, 0, 59, 63
1, 260910, Note_on_c, 0, 59, 0
1, 260920, Note_on_c, 0, 61, 63
1, 260950, Note_on_c, 0, 61, 0
1, 260960, Note_on_c, 0, 59, 63
1, 260990, Note_on_c, 0, 71, 0
1, 260990, Note_on_c, 0, 59, 0
1, 261000, Note_on_c, 0, 67, 63
1, 261000, Note_on_c, 0, 57, 63
1, 261030, Note_on_c, 0, 57, 0
1, 261040, Note_on_c, 0, 59, 63
1, 261070, Note_on_c, 0, 59, 0
1, 261110, Note_on_c, 0, 67, 0
1, 261110, Note_on_c, 0, 62, 0
1, 261120, Note_on_c, 0, 66, 63
1, 261120, Note_on_c, 0, 61, 63
1, 261120, Note_on_c, 0, 38, 63
1, 261230, Note_on_c, 0, 66, 0
1, 261240, Note_on_c, 0, 64, 63
1, 261350, Note_on_c, 0, 64, 0
1, 261350, Note_on_c, 0, 61, 0
1, 261350, Note_on_c, 0, 38, 0
1, 261360, Note_on_c, 0, 67, 63
1, 261360, Note_on_c, 0, 61, 63
1, 261360, Note_on_c, 0, 55, 63
1, 261390, Note_on_c, 0, 55, 0
1, 261400, Note_on_c, 0, 57, 63
1, 261430, Note_on_c, 0, 57, 0
1, 261440, Note_on_c, 0, 55, 63
1, 261470, Note_on_c, 0, 67, 0
1, 261470, Note_on_c, 0, 55, 0
1, 261480, Note_on_c, 0, 64, 63
1, 261480, Note_on_c, 0, 54, 63
1, 261510, Note_on_c, 0, 54, 0
1, 261520, Note_on_c, 0, 55, 63
1, 261550, Note_on_c, 0, 55, 0
1, 261590, Note_on_c, 0, 64, 0
1, 261590, Note_on_c, 0, 61, 0
1, 261600, Note_on_c, 0, 66, 63
1, 261600, Note_on_c, 0, 62, 63
1, 261600, Note_on_c, 0, 38, 63
1, 261710, Note_on_c, 0, 66, 0
1, 261710, Note_on_c, 0, 62, 0
1, 261720, Note_on_c, 0, 64, 63
1, 261720, Note_on_c, 0, 61, 63
1, 261830, Note_on_c, 0, 64, 0
1, 261830, Note_on_c, 0, 61, 0
1, 261830, Note_on_c, 0, 38, 0
1, 261840, Note_on_c, 0, 66, 63
1, 261840, Note_on_c, 0, 62, 63
1, 261840, Note_on_c, 0, 59, 63
1, 261870, Note_on_c, 0, 59, 0
1, 261880, Note_on_c, 0, 61, 63
1, 261910, Note_on_c, 0, 61, 0
1, 261920, Note_on_c, 0, 59, 63
1, 261950, Note_on_c, 0, 66, 0
1, 261950, Note_on_c, 0, 62, 0
1, 261950, Note_on_c, 0, 59, 0
1, 261960, Note_on_c, 0, 67, 63
1, 261960, Note_on_c, 0, 61, 63
1, 261960, Note_on_c, 0, 57, 63
1, 262070, Note_on_c, 0, 67, 0
1, 262070, Note_on_c, 0, 61, 0
1, 262070, Note_on_c, 0, 57, 0
1, 262080, Note_on_c, 0, 69, 63
1, 262080, Note_on_c, 0, 59, 63
1, 262080, Note_on_c, 0, 55, 63
1, 262190, Note_on_c, 0, 69, 0
1, 262190, Note_on_c, 0, 59, 0
1, 262190, Note_on_c, 0, 55, 0
1, 262200, Note_on_c, 0, 71, 63
1, 262200, Note_on_c, 0, 57, 63
1, 262200, Note_on_c, 0, 54, 63
1, 262310, Note_on_c, 0, 71, 0
1, 262310, Note_on_c, 0, 57, 0
1, 262310, Note_on_c, 0, 54, 0
1, 262320, Note_on_c, 0, 73, 63
1, 262320, Note_on_c, 0, 55, 63
1, 262320, Note_on_c, 0, 52, 63
1, 262350, Note_on_c, 0, 55, 0
1, 262350, Note_on_c, 0, 52, 0
1, 262360, Note_on_c, 0, 57, 63
1, 262390, Note_on_c, 0, 57, 0
1, 262400, Note_on_c, 0, 55, 63
1, 262430, Note_on_c, 0, 73, 0
1, 262430, Note_on_c, 0, 55, 0
1, 262440, Note_on_c, 0, 74, 63
1, 262440, Note_on_c, 0, 54, 63
1, 262440, Note_on_c, 0, 50, 63
1, 262550, Note_on_c, 0, 74, 0
1, 262550, Note_on_c, 0, 54, 0
1, 262550, Note_on_c, 0, 50, 0
1, 262560, Note_on_c, 0, 69, 63
1, 262560, Note_on_c, 0, 74, 63
1, 262560, Note_on_c, 0, 66, 63
1, 262560, Note_on_c, 0, 38, 63
1, 262670, Note_on_c, 0, 69, 0
1, 262670, Note_on_c, 0, 74, 0
1, 262670, Note_on_c, 0, 66, 0
1, 262680, Note_on_c, 0, 67, 63
1, 262680, Note_on_c, 0, 73, 63
1, 262680, Note_on_c, 0, 64, 63
1, 262790, Note_on_c, 0, 67, 0
1, 262790, Note_on_c, 0, 73, 0
1, 262790, Note_on_c, 0, 64, 0
1, 262790, Note_on_c, 0, 38, 0
1, 262800, Note_on_c, 0, 66, 63
1, 262800, Note_on_c, 0, 71, 63
1, 262800, Note_on_c, 0, 62, 63
1, 262800, Note_on_c, 0, 57, 63
1, 262830, Note_on_c, 0, 57, 0
1, 262840, Note_on_c, 0, 59, 63
1, 262870, Note_on_c, 0, 59, 0
1, 262880, Note_on_c, 0, 57, 63
1, 262910, Note_on_c, 0, 66, 0
1, 262910, Note_on_c, 0, 71, 0
1, 262910, Note_on_c, 0, 62, 0
1, 262910, Note_on_c, 0, 57, 0
1, 262920, Note_on_c, 0, 67, 63
1, 262920, Note_on_c, 0, 73, 63
1, 262920, Note_on_c, 0, 64, 63
1, 262920, Note_on_c, 0, 56, 63
1, 262950, Note_on_c, 0, 56, 0
1, 262960, Note_on_c, 0, 57, 63
1, 262990, Note_on_c, 0, 57, 0
1, 263030, Note_on_c, 0, 67, 0
1, 263030, Note_on_c, 0, 73, 0
1, 263030, Note_on_c, 0, 64, 0
1, 263040, Note_on_c, 0, 74, 63
1, 263040, Note_on_c, 0, 66, 63
1, 263040, Note_on_c, 0, 38, 63
1, 263150, Note_on_c, 0, 74, 0
1, 263160, Note_on_c, 0, 69, 63
1, 263270, Note_on_c, 0, 69, 0
1, 263270, Note_on_c, 0, 66, 0
1, 263270, Note_on_c, 0, 38, 0
1, 263280, Note_on_c, 0, 73, 63
1, 263280, Note_on_c, 0, 76, 63
1, 263280, Note_on_c, 0, 67, 63
1, 263280, Note_on_c, 0, 62, 63
1, 263310, Note_on_c, 0, 62, 0
1, 263320, Note_on_c, 0, 64, 63
1, 263350, Note_on_c, 0, 64, 0
1, 263360, Note_on_c, 0, 62, 63
1, 263390, Note_on_c, 0, 73, 0
1, 263390, Note_on_c, 0, 76, 0
1, 263390, Note_on_c, 0, 67, 0
1, 263390, Note_on_c, 0, 62, 0
1, 263400, Note_on_c, 0, 74, 63
1, 263400, Note_on_c, 0, 78, 63
1, 263400, Note_on_c, 0, 66, 63
1, 263400, Note_on_c, 0, 61, 63
1, 263430, Note_on_c, 0, 61, 0
1, 263440, Note_on_c, 0, 62, 63
1, 263470, Note_on_c, 0, 62, 0
1, 263510, Note_on_c, 0, 74, 0
1, 263510, Note_on_c, 0, 78, 0
1, 263510, Note_on_c, 0, 66, 0
1, 263520, Note_on_c, 0, 78, 63
1, 263520, Note_on_c, 0, 74, 63
1, 263520, Note_on_c, 0, 69, 63
1, 263520, Note_on_c, 0, 45, 63
1, 263630, Note_on_c, 0, 78, 0
1, 263630, Note_on_c, 0, 74, 0
1, 263640, Note_on_c, 0, 76, 63
1, 263640, Note_on_c, 0, 73, 63
1, 263750, Note_on_c, 0, 76, 0
1, 263750, Note_on_c, 0, 73, 0
1, 263750, Note_on_c, 0, 69, 0
1, 263750, Note_on_c, 0, 45, 0
1, 263760, Note_on_c, 0, 74, 63
1, 263760, Note_on_c, 0, 71, 63
1, 263760, Note_on_c, 0, 69, 63
1, 263760, Note_on_c, 0, 57, 63
1, 263790, Note_on_c, 0, 57, 0
1, 263800, Note_on_c, 0, 59, 63
1, 263830, Note_on_c, 0, 59, 0
1, 263840, Note_on_c, 0, 57, 63
1, 263870, Note_on_c, 0, 74, 0
1, 263870, Note_on_c, 0, 71, 0
1, 263870, Note_on_c, 0, 57, 0
1, 263880, Note_on_c, 0, 76, 63
1, 263880, Note_on_c, 0, 73, 63
1, 263880, Note_on_c, 0, 56, 63
1, 263910, Note_on_c, 0, 56, 0
1, 263920, Note_on_c, 0, 57, 63
1, 263950, Note_on_c, 0, 57, 0
1, 263990, Note_on_c, 0, 76, 0
1, 263990, Note_on_c, 0, 73, 0
1, 263990, Note_on_c, 0, 69, 0
1, 264000, Note_on_c, 0, 79, 63
1, 264000, Note_on_c, 0, 76, 63
1, 264000, Note_on_c, 0, 69, 63
1, 264000, Note_on_c, 0, 45, 63
1, 264110, Note_on_c, 0, 79, 0
1, 264110, Note_on_c, 0, 76, 0
1, 264120, Note_on_c, 0, 78, 63
1, 264120, Note_on_c, 0, 74, 63
1, 264230, Note_on_c, 0, 78, 0
1, 264230, Note_on_c, 0, 74, 0
1, 264230, Note_on_c, 0, 69, 0
1, 264230, Note_on_c, 0, 45, 0
1, 264240, Note_on_c, 0, 76, 63
1, 264240, Note_on_c, 0, 67, 63
1, 264240, Note_on_c, 0, 69, 63
1, 264240, Note_on_c, 0, 61, 63
1, 264270, Note_on_c, 0, 61, 0
1, 264280, Note_on_c, 0, 59, 63
1, 264310, Note_on_c, 0, 59, 0
1, 264320, Note_on_c, 0, 61, 63
1, 264350, Note_on_c, 0, 76, 0
1, 264350, Note_on_c, 0, 67, 0
1, 264350, Note_on_c, 0, 61, 0
1, 264360, Note_on_c, 0, 74, 63
1, 264360, Note_on_c, 0, 66, 63
1, 264360, Note_on_c, 0, 62, 63
1, 264470, Note_on_c, 0, 74, 0
1, 264470, Note_on_c, 0, 66, 0
1, 264470, Note_on_c, 0, 69, 0
1, 264470, Note_on_c, 0, 62, 0
1, 264480, Note_on_c, 0, 78, 63
1, 264480, Note_on_c, 0, 74, 63
1, 264480, Note_on_c, 0, 69, 63
1, 264480, Note_on_c, 0, 45, 63
1, 264590, Note_on_c, 0, 78, 0
1, 264590, Note_on_c, 0, 74, 0
1, 264600, Note_on_c, 0, 76, 63
1, 264600, Note_on_c, 0, 73, 63
1, 264710, Note_on_c, 0, 76, 0
1, 264710, Note_on_c, 0, 73, 0
1, 264710, Note_on_c, 0, 69, 0
1, 264710, Note_on_c, 0, 45, 0
1, 264720, Note_on_c, 0, 74, 63
1, 264720, Note_on_c, 0, 71, 63
1, 264720, Note_on_c, 0, 69, 63
1, 264720, Note_on_c, 0, 57, 63
1, 264750, Note_on_c, 0, 57, 0
1, 264760, Note_on_c, 0, 59, 63
1, 264790, Note_on_c, 0, 59, 0
1, 264800, Note_on_c, 0, 57, 63
1, 264830, Note_on_c, 0, 74, 0
1, 264830, Note_on_c, 0, 71, 0
1, 264830, Note_on_c, 0, 57, 0
1, 264840, Note_on_c, 0, 76, 63
1, 264840, Note_on_c, 0, 73, 63
1, 264840, Note_on_c, 0, 56, 63
1, 264870, Note_on_c, 0, 56, 0
1, 264880, Note_on_c, 0, 57, 63
1, 264910, Note_on_c, 0, 57, 0
1, 264950, Note_on_c, 0, 76, 0
1, 264950, Note_on_c, 0, 73, 0
1, 264950, Note_on_c, 0, 69, 0
1, 264960, Note_on_c, 0, 79, 63
1, 264960, Note_on_c, 0, 76, 63
1, 264960, Note_on_c, 0, 69, 63
1, 264960, Note_on_c, 0, 45, 63
1, 265070, Note_on_c, 0, 79, 0
1, 265070, Note_on_c, 0, 76, 0
1, 265080, Note_on_c, 0, 78, 63
1, 265080, Note_on_c, 0, 74, 63
1, 265190, Note_on_c, 0, 78, 0
1, 265190, Note_on_c, 0, 74, 0
1, 265190, Note_on_c, 0, 69, 0
1, 265190, Note_on_c, 0, 45, 0
1, 265200, Note_on_c, 0, 76, 63
1, 265200, Note_on_c, 0, 67, 63
1, 265200, Note_on_c, 0, 69, 63
1, 265200, Note_on_c, 0, 61, 63
1, 265230, Note_on_c, 0, 61, 0
1, 265240, Note_on_c, 0, 59, 63
1, 265270, Note_on_c, 0, 59, 0
1, 265280, Note_on_c, 0, 61, 63
1, 265310, Note_on_c, 0, 76, 0
1, 265310, Note_on_c, 0, 67, 0
1, 265310, Note_on_c, 0, 61, 0
1, 265320, Note_on_c, 0, 74, 63
1, 265320, Note_on_c, 0, 66, 63
1, 265320, Note_on_c, 0, 62, 63
1, 265430, Note_on_c, 0, 74, 0
1, 265430, Note_on_c, 0, 66, 0
1, 265430, Note_on_c, 0, 69, 0
1, 265430, Note_on_c, 0, 62, 0
1, 265440, Note_on_c, 0, 74, 63
1, 265440, Note_on_c, 0, 78, 63
1, 265440, Note_on_c, 0, 69, 63
1, 265440, Note_on_c, 0, 45, 63
1, 265550, Note_on_c, 0, 74, 0
1, 265550, Note_on_c, 0, 78, 0
1, 265550, Note_on_c, 0, 69, 0
1, 265560, Note_on_c, 0, 73, 63
1, 265560, Note_on_c, 0, 76, 63
1, 265560, Note_on_c, 0, 67, 63
1, 265670, Note_on_c, 0, 73, 0
1, 265670, Note_on_c, 0, 76, 0
1, 265670, Note_on_c, 0, 67, 0
1, 265670, Note_on_c, 0, 45, 0
1, 265680, Note_on_c, 0, 71, 63
1, 265680, Note_on_c, 0, 74, 63
1, 265680, Note_on_c, 0, 66, 63
1, 265680, Note_on_c, 0, 57, 63
1, 265710, Note_on_c, 0, 57, 0
1, 265720, Note_on_c, 0, 59, 63
1, 265750, Note_on_c, 0, 59, 0
1, 265760, Note_on_c, 0, 57, 63
1, 265790, Note_on_c, 0, 71, 0
1, 265790, Note_on_c, 0, 74, 0
1, 265790, Note_on_c, 0, 66, 0
1, 265790, Note_on_c, 0, 57, 0
1, 265800, Note_on_c, 0, 73, 63
1, 265800, Note_on_c, 0, 76, 63
1, 265800, Note_on_c, 0, 67, 63
1, 265800, Note_on_c, 0, 56, 63
1, 265830, Note_on_c, 0, 56, 0
1, 265840, Note_on_c, 0, 57, 63
1, 265870, Note_on_c, 0, 57, 0
1, 265910, Note_on_c, 0, 73, 0
1, 265910, Note_on_c, 0, 76, 0
1, 265910, Note_on_c, 0, 67, 0
1, 265920, Note_on_c, 0, 76, 63
1, 265920, Note_on_c, 0, 79, 63
1, 265920, Note_on_c, 0, 67, 63
1, 265920, Note_on_c, 0, 45, 63
1, 266030, Note_on_c, 0, 76, 0
1, 266030, Note_on_c, 0, 79, 0
1, 266030, Note_on_c, 0, 67, 0
1, 266040, Note_on_c, 0, 74, 63
1, 266040, Note_on_c, 0, 78, 63
1, 266040, Note_on_c, 0, 69, 63
1, 266150, Note_on_c, 0, 74, 0
1, 266150, Note_on_c, 0, 78, 0
1, 266150, Note_on_c, 0, 69, 0
1, 266150, Note_on_c, 0, 45, 0
1, 266160, Note_on_c, 0, 74, 63
1, 266160, Note_on_c, 0, 78, 63
1, 266160, Note_on_c, 0, 69, 63
1, 266160, Note_on_c, 0, 66, 63
1, 266190, Note_on_c, 0, 66, 0
1, 266200, Note_on_c, 0, 64, 63
1, 266230, Note_on_c, 0, 64, 0
1, 266240, Note_on_c, 0, 66, 63
1, 266270, Note_on_c, 0, 74, 0
1, 266270, Note_on_c, 0, 78, 0
1, 266270, Note_on_c, 0, 69, 0
1, 266270, Note_on_c, 0, 66, 0
1, 266280, Note_on_c, 0, 73, 63
1, 266280, Note_on_c, 0, 76, 63
1, 266280, Note_on_c, 0, 70, 63
1, 266280, Note_on_c, 0, 67, 63
1, 266390, Note_on_c, 0, 73, 0
1, 266390, Note_on_c, 0, 76, 0
1, 266390, Note_on_c, 0, 70, 0
1, 266390, Note_on_c, 0, 67, 0
1, 266400, Note_on_c, 0, 70, 63
1, 266400, Note_on_c, 0, 73, 63
1, 266400, Note_on_c, 0, 76, 63
1, 266400, Note_on_c, 0, 67, 63
1, 266400, Note_on_c, 0, 45, 63
1, 266510, Note_on_c, 0, 70, 0
1, 266510, Note_on_c, 0, 73, 0
1, 266510, Note_on_c, 0, 76, 0
1, 266510, Note_on_c, 0, 67, 0
1, 266520, Note_on_c, 0, 71, 64
1, 266520, Note_on_c, 0, 74, 64
1, 266520, Note_on_c, 0, 66, 64
1, 266630, Note_on_c, 0, 71, 0
1, 266630, Note_on_c, 0, 74, 0
1, 266630, Note_on_c, 0, 66, 0
1, 266630, Note_on_c, 0, 45, 0
1, 266640, Note_on_c, 0, 74, 66
1, 266640, Note_on_c, 0, 66, 66
1, 266640, Note_on_c, 0, 59, 63
1, 266670, Note_on_c, 0, 59, 0
1, 266680, Note_on_c, 0, 61, 63
1, 266710, Note_on_c, 0, 61, 0
1, 266720, Note_on_c, 0, 59, 64
1, 266750, Note_on_c, 0, 74, 0
1, 266750, Note_on_c, 0, 66, 0
1, 266750, Note_on_c, 0, 59, 0
1, 266760, Note_on_c, 0, 76, 68
1, 266760, Note_on_c, 0, 64, 68
1, 266760, Note_on_c, 0, 56, 65
1, 266870, Note_on_c, 0, 76, 0
1, 266870, Note_on_c, 0, 64, 0
1, 266870, Note_on_c, 0, 56, 0
1, 266880, Note_on_c, 0, 69, 70
1, 266880, Note_on_c, 0, 57, 67
1, 266880, Note_on_c, 0, 45, 67
1, 267110, Note_on_c, 0, 69, 0
1, 267110, Note_on_c, 0, 57, 0
1, 267110, Note_on_c, 0, 45, 0
1, 267120, Note_on_c, 0, 69, 74
1, 267120, Note_on_c, 0, 74, 74
1, 267120, Note_on_c, 0, 78, 74
1, 267120, Note_on_c, 0, 66, 74
1, 267120, Note_on_c, 0, 54, 71
1, 267120, Note_on_c, 0, 57, 71
1, 267120, Note_on_c, 0, 62, 71
1, 267120, Note_on_c, 0, 50, 71
1, 267264, Control_c, 0, 64, 127
1, 267350, Note_on_c, 0, 54, 0
1, 267350, Note_on_c, 0, 57, 0
1, 267350, Note_on_c, 0, 62, 0
1, 267350, Note_on_c, 0, 50, 0
1, 267360, Note_on_c, 0, 45, 77
1, 267360, Note_on_c, 0, 38, 77
1, 267470, Note_on_c, 0, 69, 0
1, 267470, Note_on_c, 0, 74, 0
1, 267470, Note_on_c, 0, 78, 0
1, 267470, Note_on_c, 0, 66, 0
1, 267480, Note_on_c, 0, 76, 79
1, 267480, Note_on_c, 0, 79, 79
1, 267480, Note_on_c, 0, 67, 79
1, 267590, Note_on_c, 0, 76, 0
1, 267590, Note_on_c, 0, 79, 0
1, 267590, Note_on_c, 0, 67, 0
1, 267590, Note_on_c, 0, 45, 0
1, 267590, Note_on_c, 0, 38, 0
1, 267600, Note_on_c, 0, 73, 81
1, 267600, Note_on_c, 0, 76, 81
1, 267600, Note_on_c, 0, 64, 81
1, 267600, Note_on_c, 0, 59, 79
1, 267600, Note_on_c, 0, 50, 81
1, 267630, Note_on_c, 0, 59, 0
1, 267640, Note_on_c, 0, 57, 80
1, 267670, Note_on_c, 0, 57, 0
1, 267680, Note_on_c, 0, 56, 80
1, 267710, Note_on_c, 0, 73, 0
1, 267710, Note_on_c, 0, 76, 0
1, 267710, Note_on_c, 0, 64, 0
1, 267710, Note_on_c, 0, 56, 0
1, 267720, Note_on_c, 0, 74, 83
1, 267720, Note_on_c, 0, 78, 83
1, 267720, Note_on_c, 0, 66, 83
1, 267720, Note_on_c, 0, 57, 81
1, 267764, Control_c, 0, 64, 0
1, 267830, Note_on_c, 0, 74, 0
1, 267830, Note_on_c, 0, 78, 0
1, 267830, Note_on_c, 0, 66, 0
1, 267830, Note_on_c, 0, 57, 0
1, 267830, Note_on_c, 0, 50, 0
1, 267840, Note_on_c, 0, 76, 85
1, 267840, Note_on_c, 0, 79, 85
1, 267840, Note_on_c, 0, 67, 85
1, 267840, Note_on_c, 0, 59, 83
1, 267840, Note_on_c, 0, 50, 85
1, 267870, Note_on_c, 0, 59, 0
1, 267880, Note_on_c, 0, 57, 84
1, 267910, Note_on_c, 0, 57, 0
1, 267920, Note_on_c, 0, 56, 84
1, 267950, Note_on_c, 0, 76, 0
1, 267950, Note_on_c, 0, 79, 0
1, 267950, Note_on_c, 0, 67, 0
1, 267950, Note_on_c, 0, 56, 0
1, 267960, Note_on_c, 0, 78, 87
1, 267960, Note_on_c, 0, 81, 87
1, 267960, Note_on_c, 0, 69, 87
1, 267960, Note_on_c, 0, 57, 85
1, 268070, Note_on_c, 0, 78, 0
1, 268070, Note_on_c, 0, 81, 0
1, 268070, Note_on_c, 0, 69, 0
1, 268070, Note_on_c, 0, 57, 0
1, 268070, Note_on_c, 0, 50, 0
1, 268080, Note_on_c, 0, 79, 88
1, 268080, Note_on_c, 0, 83, 88
1, 268080, Note_on_c, 0, 71, 88
1, 268080, Note_on_c, 0, 59, 87
1, 268080, Note_on_c, 0, 50, 88
1, 268110, Note_on_c, 0, 59, 0
1, 268120, Note_on_c, 0, 57, 88
1, 268150, Note_on_c, 0, 57, 0
1, 268160, Note_on_c, 0, 56, 89
1, 268190, Note_on_c, 0, 79, 0
1, 268190, Note_on_c, 0, 83, 0
1, 268190, Note_on_c, 0, 71, 0
1, 268190, Note_on_c, 0, 56, 0
1, 268200, Note_on_c, 0, 78, 90
1, 268200, Note_on_c, 0, 81, 90
1, 268200, Note_on_c, 0, 69, 90
1, 268200, Note_on_c, 0, 57, 89
1, 268310, Note_on_c, 0, 78, 0
1, 268310, Note_on_c, 0, 81, 0
1, 268310, Note_on_c, 0, 69, 0
1, 268310, Note_on_c, 0, 57, 0
1, 268310, Note_on_c, 0, 50, 0
1, 268320, Note_on_c, 0, 78, 92
1, 268320, Note_on_c, 0, 81, 92
1, 268320, Note_on_c, 0, 69, 92
1, 268320, Note_on_c, 0, 60, 91
1, 268320, Note_on_c, 0, 50, 92
1, 268350, Note_on_c, 0, 60, 0
1, 268360, Note_on_c, 0, 59, 92
1, 268390, Note_on_c, 0, 59, 0
1, 268400, Note_on_c, 0, 57, 93
1, 268430, Note_on_c, 0, 78, 0
1, 268430, Note_on_c, 0, 81, 0
1, 268430, Note_on_c, 0, 69, 0
1, 268430, Note_on_c, 0, 57, 0
1, 268440, Note_on_c, 0, 76, 94
1, 268440, Note_on_c, 0, 79, 94
1, 268440, Note_on_c, 0, 67, 94
1, 268440, Note_on_c, 0, 59, 93
1, 268550, Note_on_c, 0, 76, 0
1, 268550, Note_on_c, 0, 79, 0
1, 268550, Note_on_c, 0, 67, 0
1, 268550, Note_on_c, 0, 59, 0
1, 268550, Note_on_c, 0, 50, 0
1, 268560, Note_on_c, 0, 79, 96
1, 268560, Note_on_c, 0, 83, 96
1, 268560, Note_on_c, 0, 71, 96
1, 268560, Note_on_c, 0, 60, 95
1, 268560, Note_on_c, 0, 50, 96
1, 268590, Note_on_c, 0, 60, 0
1, 268600, Note_on_c, 0, 59, 96
1, 268630, Note_on_c, 0, 59, 0
1, 268640, Note_on_c, 0, 57, 97
1, 268670, Note_on_c, 0, 79, 0
1, 268670, Note_on_c, 0, 83, 0
1, 268670, Note_on_c, 0, 71, 0
1, 268670, Note_on_c, 0, 57, 0
1, 268680, Note_on_c, 0, 76, 98
1, 268680, Note_on_c, 0, 79, 98
1, 268680, Note_on_c, 0, 67, 98
1, 268680, Note_on_c, 0, 59, 97
1, 268790, Note_on_c, 0, 76, 0
1, 268790, Note_on_c, 0, 79, 0
1, 268790, Note_on_c, 0, 67, 0
1, 268790, Note_on_c, 0, 59, 0
1, 268790, Note_on_c, 0, 50, 0
1, 268800, Note_on_c, 0, 74, 100
1, 268800, Note_on_c, 0, 78, 100
1, 268800, Note_on_c, 0, 66, 100
1, 268800, Note_on_c, 0, 57, 100
1, 268800, Note_on_c, 0, 50, 100
1, 268830, Note_on_c, 0, 57, 0
1, 268840, Note_on_c, 0, 55, 100
1, 268870, Note_on_c, 0, 55, 0
1, 268880, Note_on_c, 0, 54, 100
1, 268910, Note_on_c, 0, 74, 0
1, 268910, Note_on_c, 0, 78, 0
1, 268910, Note_on_c, 0, 66, 0
1, 268910, Note_on_c, 0, 54, 0
1, 268920, Note_on_c, 0, 73, 100
1, 268920, Note_on_c, 0, 76, 100
1, 268920, Note_on_c, 0, 64, 100
1, 268920, Note_on_c, 0, 55, 100
1, 269030, Note_on_c, 0, 73, 0
1, 269030, Note_on_c, 0, 76, 0
1, 269030, Note_on_c, 0, 64, 0
1, 269030, Note_on_c, 0, 55, 0
1, 269030, Note_on_c, 0, 50, 0
1, 269040, Note_on_c, 0, 76, 100
1, 269040, Note_on_c, 0, 79, 100
1, 269040, Note_on_c, 0, 67, 100
1, 269040, Note_on_c, 0, 62, 100
1, 269040, Note_on_c, 0, 50, 100
1, 269070, Note_on_c, 0, 62, 0
1, 269080, Note_on_c, 0, 61, 100
1, 269110, Note_on_c, 0, 61, 0
1, 269120, Note_on_c, 0, 59, 100
1, 269150, Note_on_c, 0, 76, 0
1, 269150, Note_on_c, 0, 79, 0
1, 269150, Note_on_c, 0, 67, 0
1, 269150, Note_on_c, 0, 59, 0
1, 269160, Note_on_c, 0, 73, 100
1, 269160, Note_on_c, 0, 76, 100
1, 269160, Note_on_c, 0, 64, 100
1, 269160, Note_on_c, 0, 61, 100
1, 269270, Note_on_c, 0, 73, 0
1, 269270, Note_on_c, 0, 76, 0
1, 269270, Note_on_c, 0, 64, 0
1, 269270, Note_on_c, 0, 61, 0
1, 269270, Note_on_c, 0, 50, 0
1, 269280, Note_on_c, 0, 73, 100
1, 269280, Note_on_c, 0, 76, 100
1, 269280, Note_on_c, 0, 67, 100
1, 269280, Note_on_c, 0, 64, 100
1, 269280, Note_on_c, 0, 50, 100
1, 269310, Note_on_c, 0, 64, 0
1, 269320, Note_on_c, 0, 62, 100
1, 269350, Note_on_c, 0, 62, 0
1, 269360, Note_on_c, 0, 61, 100
1, 269390, Note_on_c, 0, 73, 0
1, 269390, Note_on_c, 0, 76, 0
1, 269390, Note_on_c, 0, 67, 0
1, 269390, Note_on_c, 0, 61, 0
1, 269400, Note_on_c, 0, 69, 100
1, 269400, Note_on_c, 0, 74, 100
1, 269400, Note_on_c, 0, 66, 100
1, 269400, Note_on_c, 0, 64, 100
1, 269510, Note_on_c, 0, 69, 0
1, 269510, Note_on_c, 0, 74, 0
1, 269510, Note_on_c, 0, 66, 0
1, 269510, Note_on_c, 0, 64, 0
1, 269510, Note_on_c, 0, 50, 0
1, 269520, Note_on_c, 0, 67, 100
1, 269520, Note_on_c, 0, 73, 100
1, 269520, Note_on_c, 0, 64, 100
1, 269520, Note_on_c, 0, 59, 100
1, 269520, Note_on_c, 0, 50, 100
1, 269550, Note_on_c, 0, 59, 0
1, 269560, Note_on_c, 0, 57, 100
1, 269590, Note_on_c, 0, 57, 0
1, 269600, Note_on_c, 0, 56, 100
1, 269630, Note_on_c, 0, 67, 0
1, 269630, Note_on_c, 0, 73, 0
1, 269630, Note_on_c, 0, 64, 0
1, 269630, Note_on_c, 0, 56, 0
1, 269640, Note_on_c, 0, 69, 100
1, 269640, Note_on_c, 0, 74, 100
1, 269640, Note_on_c, 0, 66, 100
1, 269640, Note_on_c, 0, 57, 100
1, 269750, Note_on_c, 0, 69, 0
1, 269750, Note_on_c, 0, 74, 0
1, 269750, Note_on_c, 0, 66, 0
1, 269750, Note_on_c, 0, 57, 0
1, 269750, Note_on_c, 0, 50, 0
1, 269760, Note_on_c, 0, 78, 100
1, 269760, Note_on_c, 0, 66, 100
1, 269760, Note_on_c, 0, 62, 100
1, 269760, Note_on_c, 0, 50, 100
1, 269870, Note_on_c, 0, 78, 0
1, 269870, Note_on_c, 0, 66, 0
1, 269870, Note_on_c, 0, 62, 0
1, 269880, Note_on_c, 0, 76, 100
1, 269880, Note_on_c, 0, 67, 100
1, 269880, Note_on_c, 0, 64, 100
1, 269990, Note_on_c, 0, 76, 0
1, 270000, Note_on_c, 0, 79, 100
1, 270110, Note_on_c, 0, 79, 0
1, 270110, Note_on_c, 0, 67, 0
1, 270110, Note_on_c, 0, 64, 0
1, 270110, Note_on_c, 0, 50, 0
1, 270120, Note_on_c, 0, 78, 100
1, 270120, Note_on_c, 0, 69, 100
1, 270120, Note_on_c, 0, 66, 100
1, 270120, Note_on_c, 0, 62, 100
1, 270230, Note_on_c, 0, 78, 0
1, 270230, Note_on_c, 0, 69, 0
1, 270230, Note_on_c, 0, 66, 0
1, 270230, Note_on_c, 0, 62, 0
1, 270240, Note_on_c, 0, 74, 100
1, 270240, Note_on_c, 0, 78, 100
1, 270240, Note_on_c, 0, 69, 100
1, 270240, Note_on_c, 0, 66, 100
1, 270240, Note_on_c, 0, 62, 100
1, 270350, Note_on_c, 0, 74, 0
1, 270350, Note_on_c, 0, 78, 0
1, 270350, Note_on_c, 0, 69, 0
1, 270350, Note_on_c, 0, 66, 0
1, 270350, Note_on_c, 0, 62, 0
1, 270360, Note_on_c, 0, 69, 100
1, 270360, Note_on_c, 0, 73, 100
1, 270360, Note_on_c, 0, 76, 100
1, 270360, Note_on_c, 0, 67, 100
1, 270360, Note_on_c, 0, 61, 100
1, 270360, Note_on_c, 0, 64, 100
1, 270360, Note_on_c, 0, 57, 100
1, 270590, Note_on_c, 0, 69, 0
1, 270590, Note_on_c, 0, 73, 0
1, 270590, Note_on_c, 0, 76, 0
1, 270590, Note_on_c, 0, 67, 0
1, 270590, Note_on_c, 0, 61, 0
1, 270590, Note_on_c, 0, 64, 0
1, 270590, Note_on_c, 0, 57, 0
1, 270600, Note_on_c, 0, 69, 100
1, 270600, Note_on_c, 0, 74, 100
1, 270600, Note_on_c, 0, 66, 100
1, 270600, Note_on_c, 0, 57, 100
1, 270600, Note_on_c, 0, 62, 100
1, 270600, Note_on_c, 0, 50, 100
1, 270710, Note_on_c, 0, 69, 0
1, 270710, Note_on_c, 0, 74, 0
1, 270710, Note_on_c, 0, 66, 0
1, 270710, Note_on_c, 0, 57, 0
1, 270710, Note_on_c, 0, 62, 0
1, 270710, Note_on_c, 0, 50, 0
1, 270720, Note_on_c, 0, 69, 100
1, 270720, Note_on_c, 0, 74, 100
1, 270720, Note_on_c, 0, 66, 100
1, 270720, Note_on_c, 0, 57, 100
1, 270720, Note_on_c, 0, 62, 100
1, 270720, Note_on_c, 0, 50, 100
1, 270950, Note_on_c, 0, 69, 0
1, 270950, Note_on_c, 0, 74, 0
1, 270950, Note_on_c, 0, 66, 0
1, 270950, Note_on_c, 0, 57, 0
1, 270950, Note_on_c, 0, 62, 0
1, 270950, Note_on_c, 0, 50, 0
1, 270960, Note_on_c, 0, 69, 100
1, 270960, Note_on_c, 0, 79, 100
1, 270960, Note_on_c, 0, 57, 100
1, 270960, Note_on_c, 0, 67, 100
1, 270960, Note_on_c, 0, 64, 100
1, 270990, Note_on_c, 0, 79, 0
1, 271000, Note_on_c, 0, 78, 100
1, 271030, Note_on_c, 0, 78, 0
1, 271040, Note_on_c, 0, 76, 100
1, 271070, Note_on_c, 0, 69, 0
1, 271070, Note_on_c, 0, 76, 0
1, 271070, Note_on_c, 0, 67, 0
1, 271070, Note_on_c, 0, 64, 0
1, 271080, Note_on_c, 0, 78, 100
1, 271080, Note_on_c, 0, 66, 100
1, 271080, Note_on_c, 0, 62, 100
1, 271130, Note_on_c, 0, 57, 0
1, 271140, Note_on_c, 0, 45, 100
1, 271190, Note_on_c, 0, 78, 0
1, 271190, Note_on_c, 0, 66, 0
1, 271190, Note_on_c, 0, 45, 0
1, 271190, Note_on_c, 0, 62, 0
1, 271200, Note_on_c, 0, 78, 100
1, 271200, Note_on_c, 0, 69, 100
1, 271200, Note_on_c, 0, 66, 100
1, 271200, Note_on_c, 0, 62, 100
1, 271200, Note_on_c, 0, 57, 100
1, 271230, Note_on_c, 0, 78, 0
1, 271240, Note_on_c, 0, 76, 100
1, 271270, Note_on_c, 0, 76, 0
1, 271280, Note_on_c, 0, 74, 100
1, 271310, Note_on_c, 0, 74, 0
1, 271310, Note_on_c, 0, 69, 0
1, 271310, Note_on_c, 0, 66, 0
1, 271310, Note_on_c, 0, 62, 0
1, 271320, Note_on_c, 0, 76, 100
1, 271320, Note_on_c, 0, 64, 100
1, 271320, Note_on_c, 0, 61, 100
1, 271430, Note_on_c, 0, 76, 0
1, 271430, Note_on_c, 0, 64, 0
1, 271430, Note_on_c, 0, 61, 0
1, 271430, Note_on_c, 0, 57, 0
1, 271440, Note_on_c, 0, 90, 100
1, 271440, Note_on_c, 0, 81, 100
1, 271440, Note_on_c, 0, 62, 100
1, 271440, Note_on_c, 0, 59, 100
1, 271440, Note_on_c, 0, 57, 100
1, 271470, Note_on_c, 0, 90, 0
1, 271480, Note_on_c, 0, 88, 100
1, 271510, Note_on_c, 0, 88, 0
1, 271520, Note_on_c, 0, 86, 100
1, 271550, Note_on_c, 0, 86, 0
1, 271550, Note_on_c, 0, 81, 0
1, 271550, Note_on_c, 0, 62, 0
1, 271550, Note_on_c, 0, 59, 0
1, 271560, Note_on_c, 0, 88, 100
1, 271560, Note_on_c, 0, 64, 100
1, 271560, Note_on_c, 0, 61, 100
1, 271670, Note_on_c, 0, 88, 0
1, 271670, Note_on_c, 0, 64, 0
1, 271670, Note_on_c, 0, 61, 0
1, 271670, Note_on_c, 0, 57, 0
1, 271680, Note_on_c, 0, 79, 100
1, 271680, Note_on_c, 0, 69, 100
1, 271680, Note_on_c, 0, 67, 100
1, 271680, Note_on_c, 0, 64, 100
1, 271680, Note_on_c, 0, 57, 100
1, 271710, Note_on_c, 0, 79, 0
1, 271720, Note_on_c, 0, 78, 100
1, 271750, Note_on_c, 0, 78, 0
1, 271760, Note_on_c, 0, 76, 100
1, 271790, Note_on_c, 0, 76, 0
1, 271790, Note_on_c, 0, 69, 0
1, 271790, Note_on_c, 0, 67, 0
1, 271790, Note_on_c, 0, 64, 0
1, 271800, Note_on_c, 0, 78, 100
1, 271800, Note_on_c, 0, 66, 100
1, 271800, Note_on_c, 0, 62, 100
1, 271910, Note_on_c, 0, 78, 0
1, 271910, Note_on_c, 0, 66, 0
1, 271910, Note_on_c, 0, 62, 0
1, 271910, Note_on_c, 0, 57, 0
1, 271920, Note_on_c, 0, 91, 100
1, 271920, Note_on_c, 0, 81, 100
1, 271920, Note_on_c, 0, 64, 100
1, 271920, Note_on_c, 0, 57, 100
1, 271950, Note_on_c, 0, 91, 0
1, 271960, Note_on_c, 0, 90, 100
1, 271990, Note_on_c, 0, 90, 0
1, 272000, Note_on_c, 0, 88, 100
1, 272030, Note_on_c, 0, 88, 0
1, 272030, Note_on_c, 0, 81, 0
1, 272030, Note_on_c, 0, 64, 0
1, 272040, Note_on_c, 0, 90, 100
1, 272040, Note_on_c, 0, 62, 100
1, 272090, Note_on_c, 0, 57, 0
1, 272100, Note_on_c, 0, 45, 100
1, 272150, Note_on_c, 0, 90, 0
1, 272150, Note_on_c, 0, 62, 0
1, 272150, Note_on_c, 0, 45, 0
1, 272160, Note_on_c, 0, 78, 100
1, 272160, Note_on_c, 0, 69, 100
1, 272160, Note_on_c, 0, 66, 100
1, 272160, Note_on_c, 0, 62, 100
1, 272160, Note_on_c, 0, 57, 100
1, 272190, Note_on_c, 0, 78, 0
1, 272200, Note_on_c, 0, 76, 100
1, 272230, Note_on_c, 0, 76, 0
1, 272240, Note_on_c, 0, 74, 100
1, 272270, Note_on_c, 0, 74, 0
1, 272270, Note_on_c, 0, 69, 0
1, 272270, Note_on_c, 0, 66, 0
1, 272270, Note_on_c, 0, 62, 0
1, 272280, Note_on_c, 0, 76, 100
1, 272280, Note_on_c, 0, 64, 100
1, 272280, Note_on_c, 0, 61, 100
1, 272390, Note_on_c, 0, 76, 0
1, 272390, Note_on_c, 0, 64, 0
1, 272390, Note_on_c, 0, 61, 0
1, 272390, Note_on_c, 0, 57, 0
1, 272400, Note_on_c, 0, 90, 100
1, 272400, Note_on_c, 0, 81, 100
1, 272400, Note_on_c, 0, 62, 100
1, 272400, Note_on_c, 0, 59, 100
1, 272400, Note_on_c, 0, 57, 100
1, 272430, Note_on_c, 0, 90, 0
1, 272440, Note_on_c, 0, 88, 100
1, 272470, Note_on_c, 0, 88, 0
1, 272480, Note_on_c, 0, 86, 100
1, 272510, Note_on_c, 0, 86, 0
1, 272510, Note_on_c, 0, 81, 0
1, 272510, Note_on_c, 0, 62, 0
1, 272510, Note_on_c, 0, 59, 0
1, 272520, Note_on_c, 0, 88, 100
1, 272520, Note_on_c, 0, 64, 100
1, 272520, Note_on_c, 0, 61, 100
1, 272630, Note_on_c, 0, 88, 0
1, 272630, Note_on_c, 0, 64, 0
1, 272630, Note_on_c, 0, 61, 0
1, 272630, Note_on_c, 0, 57, 0
1, 272640, Note_on_c, 0, 79, 100
1, 272640, Note_on_c, 0, 69, 100
1, 272640, Note_on_c, 0, 67, 100
1, 272640, Note_on_c, 0, 64, 100
1, 272640, Note_on_c, 0, 57, 100
1, 272670, Note_on_c, 0, 79, 0
1, 272680, Note_on_c, 0, 78, 100
1, 272710, Note_on_c, 0, 78, 0
1, 272720, Note_on_c, 0, 76, 100
1, 272750, Note_on_c, 0, 76, 0
1, 272750, Note_on_c, 0, 69, 0
1, 272750, Note_on_c, 0, 67, 0
1, 272750, Note_on_c, 0, 64, 0
1, 272760, Note_on_c, 0, 78, 100
1, 272760, Note_on_c, 0, 66, 100
1, 272760, Note_on_c, 0, 62, 100
1, 272870, Note_on_c, 0, 78, 0
1, 272870, Note_on_c, 0, 66, 0
1, 272870, Note_on_c, 0, 62, 0
1, 272870, Note_on_c, 0, 57, 0
1, 272880, Note_on_c, 0, 91, 100
1, 272880, Note_on_c, 0, 81, 100
1, 272880, Note_on_c, 0, 64, 100
1, 272880, Note_on_c, 0, 57, 100
1, 272910, Note_on_c, 0, 91, 0
1, 272920, Note_on_c, 0, 90, 100
1, 272950, Note_on_c, 0, 90, 0
1, 272960, Note_on_c, 0, 88, 100
1, 272990, Note_on_c, 0, 88, 0
1, 272990, Note_on_c, 0, 81, 0
1, 272990, Note_on_c, 0, 64, 0
1, 273000, Note_on_c, 0, 90, 100
1, 273000, Note_on_c, 0, 62, 100
1, 273110, Note_on_c, 0, 90, 0
1, 273110, Note_on_c, 0, 62, 0
1, 273110, Note_on_c, 0, 57, 0
1, 273120, Note_on_c, 0, 78, 100
1, 273120, Note_on_c, 0, 69, 100
1, 273120, Note_on_c, 0, 66, 100
1, 273120, Note_on_c, 0, 62, 100
1, 273120, Note_on_c, 0, 57, 100
1, 273150, Note_on_c, 0, 78, 0
1, 273160, Note_on_c, 0, 76, 100
1, 273190, Note_on_c, 0, 76, 0
1, 273200, Note_on_c, 0, 74, 100
1, 273230, Note_on_c, 0, 74, 0
1, 273230, Note_on_c, 0, 69, 0
1, 273230, Note_on_c, 0, 66, 0
1, 273230, Note_on_c, 0, 62, 0
1, 273240, Note_on_c, 0, 76, 100
1, 273240, Note_on_c, 0, 64, 100
1, 273240, Note_on_c, 0, 61, 100
1, 273350, Note_on_c, 0, 76, 0
1, 273350, Note_on_c, 0, 64, 0
1, 273350, Note_on_c, 0, 61, 0
1, 273350, Note_on_c, 0, 57, 0
1, 273360, Note_on_c, 0, 90, 100
1, 273360, Note_on_c, 0, 81, 100
1, 273360, Note_on_c, 0, 62, 100
1, 273360, Note_on_c, 0, 59, 100
1, 273360, Note_on_c, 0, 57, 100
1, 273390, Note_on_c, 0, 90, 0
1, 273400, Note_on_c, 0, 88, 100
1, 273430, Note_on_c, 0, 88, 0
1, 273440, Note_on_c, 0, 86, 100
1, 273470, Note_on_c, 0, 86, 0
1, 273470, Note_on_c, 0, 81, 0
1, 273470, Note_on_c, 0, 62, 0
1, 273470, Note_on_c, 0, 59, 0
1, 273480, Note_on_c, 0, 88, 100
1, 273480, Note_on_c, 0, 64, 100
1, 273480, Note_on_c, 0, 61, 100
1, 273590, Note_on_c, 0, 88, 0
1, 273590, Note_on_c, 0, 64, 0
1, 273590, Note_on_c, 0, 61, 0
1, 273590, Note_on_c, 0, 57, 0
1, 273600, Note_on_c, 0, 79, 100
1, 273600, Note_on_c, 0, 69, 100
1, 273600, Note_on_c, 0, 67, 100
1, 273600, Note_on_c, 0, 64, 100
1, 273600, Note_on_c, 0, 57, 100
1, 273630, Note_on_c, 0, 79, 0
1, 273640, Note_on_c, 0, 78, 100
1, 273670, Note_on_c, 0, 78, 0
1, 273680, Note_on_c, 0, 76, 100
1, 273710, Note_on_c, 0, 76, 0
1, 273710, Note_on_c, 0, 69, 0
1, 273710, Note_on_c, 0, 67, 0
1, 273710, Note_on_c, 0, 64, 0
1, 273720, Note_on_c, 0, 78, 100
1, 273720, Note_on_c, 0, 66, 100
1, 273720, Note_on_c, 0, 62, 100
1, 273830, Note_on_c, 0, 78, 0
1, 273830, Note_on_c, 0, 66, 0
1, 273830, Note_on_c, 0, 62, 0
1, 273830, Note_on_c, 0, 57, 0
1, 273840, Note_on_c, 0, 91, 100
1, 273840, Note_on_c, 0, 81, 100
1, 273840, Note_on_c, 0, 66, 100
1, 273840, Note_on_c, 0, 62, 100
1, 273840, Note_on_c, 0, 57, 100
1, 273870, Note_on_c, 0, 91, 0
1, 273880, Note_on_c, 0, 90, 100
1, 273910, Note_on_c, 0, 90, 0
1, 273920, Note_on_c, 0, 88, 100
1, 273950, Note_on_c, 0, 88, 0
1, 273950, Note_on_c, 0, 81, 0
1, 273950, Note_on_c, 0, 66, 0
1, 273950, Note_on_c, 0, 62, 0
1, 273960, Note_on_c, 0, 90, 100
1, 273960, Note_on_c, 0, 64, 100
1, 273960, Note_on_c, 0, 61, 100
1, 274070, Note_on_c, 0, 90, 0
1, 274070, Note_on_c, 0, 64, 0
1, 274070, Note_on_c, 0, 61, 0
1, 274070, Note_on_c, 0, 57, 0
1, 274080, Note_on_c, 0, 76, 100
1, 274080, Note_on_c, 0, 66, 100
1, 274080, Note_on_c, 0, 64, 100
1, 274080, Note_on_c, 0, 61, 100
1, 274080, Note_on_c, 0, 57, 100
1, 274110, Note_on_c, 0, 76, 0
1, 274120, Note_on_c, 0, 74, 100
1, 274150, Note_on_c, 0, 74, 0
1, 274160, Note_on_c, 0, 73, 100
1, 274190, Note_on_c, 0, 73, 0
1, 274190, Note_on_c, 0, 66, 0
1, 274190, Note_on_c, 0, 64, 0
1, 274190, Note_on_c, 0, 61, 0
1, 274200, Note_on_c, 0, 74, 100
1, 274200, Note_on_c, 0, 62, 100
1, 274200, Note_on_c, 0, 59, 100
1, 274310, Note_on_c, 0, 74, 0
1, 274310, Note_on_c, 0, 62, 0
1, 274310, Note_on_c, 0, 59, 0
1, 274310, Note_on_c, 0, 57, 0
1, 274320, Note_on_c, 0, 88, 100
1, 274320, Note_on_c, 0, 76, 100
1, 274320, Note_on_c, 0, 62, 100
1, 274320, Note_on_c, 0, 59, 100
1, 274320, Note_on_c, 0, 68, 100
1, 274320, Note_on_c, 0, 57, 100
1, 274350, Note_on_c, 0, 88, 0
1, 274360, Note_on_c, 0, 86, 100
1, 274390, Note_on_c, 0, 86, 0
1, 274400, Note_on_c, 0, 85, 100
1, 274430, Note_on_c, 0, 85, 0
1, 274430, Note_on_c, 0, 76, 0
1, 274430, Note_on_c, 0, 62, 0
1, 274440, Note_on_c, 0, 86, 100
1, 274440, Note_on_c, 0, 64, 100
1, 274550, Note_on_c, 0, 86, 0
1, 274550, Note_on_c, 0, 64, 0
1, 274550, Note_on_c, 0, 59, 0
1, 274550, Note_on_c, 0, 68, 0
1, 274550, Note_on_c, 0, 57, 0
1, 274560, Note_on_c, 0, 78, 100
1, 274560, Note_on_c, 0, 69, 100
1, 274560, Note_on_c, 0, 61, 100
1, 274560, Note_on_c, 0, 57, 100
1, 274590, Note_on_c, 0, 78, 0
1, 274600, Note_on_c, 0, 76, 100
1, 274630, Note_on_c, 0, 76, 0
1, 274640, Note_on_c, 0, 74, 100
1, 274670, Note_on_c, 0, 74, 0
1, 274670, Note_on_c, 0, 69, 0
1, 274680, Note_on_c, 0, 76, 100
1, 274680, Note_on_c, 0, 67, 100
1, 274790, Note_on_c, 0, 76, 0
1, 274790, Note_on_c, 0, 67, 0
1, 274790, Note_on_c, 0, 61, 0
1, 274790, Note_on_c, 0, 57, 0
1, 274800, Note_on_c, 0, 83, 100
1, 274800, Note_on_c, 0, 78, 100
1, 274800, Note_on_c, 0, 74, 100
1, 274800, Note_on_c, 0, 57, 100
1, 274800, Note_on_c, 0, 62, 100
1, 274800, Note_on_c, 0, 66, 100
1, 274800, Note_on_c, 0, 50, 100
1, 274830, Note_on_c, 0, 83, 0
1, 274840, Note_on_c, 0, 81, 100
1, 274870, Note_on_c, 0, 81, 0
1, 274880, Note_on_c, 0, 80, 100
1, 274901, Control_c, 0, 64, 127
1, 274910, Note_on_c, 0, 80, 0
1, 274910, Note_on_c, 0, 78, 0
1, 274910, Note_on_c, 0, 74, 0
1, 274920, Note_on_c, 0, 81, 100
1, 275030, Note_on_c, 0, 81, 0
1, 275040, Note_on_c, 0, 79, 100
1, 275040, Note_on_c, 0, 69, 100
1, 275070, Note_on_c, 0, 79, 0
1, 275080, Note_on_c, 0, 78, 100
1, 275110, Note_on_c, 0, 78, 0
1, 275120, Note_on_c, 0, 76, 100
1, 275150, Note_on_c, 0, 76, 0
1, 275150, Note_on_c, 0, 69, 0
1, 275160, Note_on_c, 0, 78, 100
1, 275160, Note_on_c, 0, 67, 100
1, 275160, Note_on_c, 0, 64, 100
1, 275270, Note_on_c, 0, 78, 0
1, 275270, Note_on_c, 0, 67, 0
1, 275270, Note_on_c, 0, 64, 0
1, 275270, Note_on_c, 0, 57, 0
1, 275270, Note_on_c, 0, 62, 0
1, 275270, Note_on_c, 0, 66, 0
1, 275270, Note_on_c, 0, 50, 0
1, 275280, Note_on_c, 0, 91, 100
1, 275280, Note_on_c, 0, 81, 100
1, 275280, Note_on_c, 0, 64, 100
1, 275280, Note_on_c, 0, 61, 100
1, 275310, Note_on_c, 0, 91, 0
1, 275316, Control_c, 0, 64, 0
1, 275320, Note_on_c, 0, 90, 100
1, 275350, Note_on_c, 0, 90, 0
1, 275360, Note_on_c, 0, 88, 100
1, 275390, Note_on_c, 0, 88, 0
1, 275390, Note_on_c, 0, 81, 0
1, 275390, Note_on_c, 0, 64, 0
1, 275390, Note_on_c, 0, 61, 0
1, 275400, Note_on_c, 0, 90, 100
1, 275400, Note_on_c, 0, 66, 100
1, 275400, Note_on_c, 0, 62, 100
1, 275510, Note_on_c, 0, 90, 0
1, 275510, Note_on_c, 0, 66, 0
1, 275510, Note_on_c, 0, 62, 0
1, 275520, Note_on_c, 0, 88, 100
1, 275520, Note_on_c, 0, 74, 100
1, 275520, Note_on_c, 0, 67, 100
1, 275520, Note_on_c, 0, 64, 100
1, 275550, Note_on_c, 0, 88, 0
1, 275560, Note_on_c, 0, 86, 100
1, 275590, Note_on_c, 0, 86, 0
1, 275600, Note_on_c, 0, 85, 100
1, 275630, Note_on_c, 0, 85, 0
1, 275630, Note_on_c, 0, 74, 0
1, 275630, Note_on_c, 0, 67, 0
1, 275630, Note_on_c, 0, 64, 0
1, 275640, Note_on_c, 0, 86, 100
1, 275640, Note_on_c, 0, 69, 100
1, 275640, Note_on_c, 0, 66, 100
1, 275750, Note_on_c, 0, 86, 0
1, 275750, Note_on_c, 0, 69, 0
1, 275750, Note_on_c, 0, 66, 0
1, 275760, Note_on_c, 0, 100, 100
1, 275760, Note_on_c, 0, 86, 100
1, 275760, Note_on_c, 0, 71, 100
1, 275760, Note_on_c, 0, 67, 100
1, 275760, Note_on_c, 0, 62, 100
1, 275790, Note_on_c, 0, 100, 0
1, 275800, Note_on_c, 0, 98, 100
1, 275830, Note_on_c, 0, 98, 0
1, 275840, Note_on_c, 0, 97, 100
1, 275870, Note_on_c, 0, 97, 0
1, 275870, Note_on_c, 0, 86, 0
1, 275870, Note_on_c, 0, 71, 0
1, 275870, Note_on_c, 0, 67, 0
1, 275880, Note_on_c, 0, 98, 100
1, 275880, Note_on_c, 0, 69, 100
1, 275880, Note_on_c, 0, 66, 100
1, 275990, Note_on_c, 0, 98, 0
1, 275990, Note_on_c, 0, 69, 0
1, 275990, Note_on_c, 0, 66, 0
1, 275990, Note_on_c, 0, 62, 0
1, 276000, Note_on_c, 0, 84, 100
1, 276000, Note_on_c, 0, 74, 100
1, 276000, Note_on_c, 0, 69, 100
1, 276000, Note_on_c, 0, 57, 100
1, 276030, Note_on_c, 0, 84, 0
1, 276040, Note_on_c, 0, 83, 100
1, 276070, Note_on_c, 0, 83, 0
1, 276080, Note_on_c, 0, 81, 100
1, 276110, Note_on_c, 0, 81, 0
1, 276110, Note_on_c, 0, 74, 0
1, 276110, Note_on_c, 0, 69, 0
1, 276110, Note_on_c, 0, 57, 0
1, 276120, Note_on_c, 0, 83, 100
1, 276120, Note_on_c, 0, 67, 100
1, 276120, Note_on_c, 0, 55, 100
1, 276230, Note_on_c, 0, 83, 0
1, 276230, Note_on_c, 0, 67, 0
1, 276230, Note_on_c, 0, 55, 0
1, 276240, Note_on_c, 0, 96, 100
1, 276240, Note_on_c, 0, 86, 100
1, 276240, Note_on_c, 0, 71, 100
1, 276240, Note_on_c, 0, 59, 100
1, 276270, Note_on_c, 0, 96, 0
1, 276280, Note_on_c, 0, 95, 100
1, 276310, Note_on_c, 0, 95, 0
1, 276320, Note_on_c, 0, 93, 100
1, 276350, Note_on_c, 0, 93, 0
1, 276350, Note_on_c, 0, 86, 0
1, 276350, Note_on_c, 0, 71, 0
1, 276350, Note_on_c, 0, 59, 0
1, 276360, Note_on_c, 0, 95, 100
1, 276360, Note_on_c, 0, 67, 100
1, 276360, Note_on_c, 0, 55, 100
1, 276470, Note_on_c, 0, 95, 0
1, 276470, Note_on_c, 0, 67, 0
1, 276470, Note_on_c, 0, 55, 0
1, 276480, Note_on_c, 0, 81, 100
1, 276480, Note_on_c, 0, 73, 100
1, 276480, Note_on_c, 0, 69, 100
1, 276480, Note_on_c, 0, 66, 100
1, 276480, Note_on_c, 0, 54, 100
1, 276510, Note_on_c, 0, 81, 0
1, 276520, Note_on_c, 0, 79, 100
1, 276550, Note_on_c, 0, 79, 0
1, 276560, Note_on_c, 0, 78, 100
1, 276590, Note_on_c, 0, 78, 0
1, 276590, Note_on_c, 0, 73, 0
1, 276590, Note_on_c, 0, 69, 0
1, 276590, Note_on_c, 0, 66, 0
1, 276590, Note_on_c, 0, 54, 0
1, 276600, Note_on_c, 0, 79, 100
1, 276600, Note_on_c, 0, 64, 100
1, 276600, Note_on_c, 0, 52, 100
1, 276710, Note_on_c, 0, 79, 0
1, 276710, Note_on_c, 0, 64, 0
1, 276710, Note_on_c, 0, 52, 0
1, 276720, Note_on_c, 0, 93, 100
1, 276720, Note_on_c, 0, 85, 100
1, 276720, Note_on_c, 0, 81, 100
1, 276720, Note_on_c, 0, 67, 100
1, 276720, Note_on_c, 0, 55, 100
1, 276750, Note_on_c, 0, 93, 0
1, 276760, Note_on_c, 0, 91, 100
1, 276790, Note_on_c, 0, 91, 0
1, 276800, Note_on_c, 0, 90, 100
1, 276830, Note_on_c, 0, 90, 0
1, 276830, Note_on_c, 0, 85, 0
1, 276830, Note_on_c, 0, 81, 0
1, 276830, Note_on_c, 0, 67, 0
1, 276830, Note_on_c, 0, 55, 0
1, 276840, Note_on_c, 0, 91, 100
1, 276840, Note_on_c, 0, 64, 100
1, 276840, Note_on_c, 0, 52, 100
1, 276950, Note_on_c, 0, 91, 0
1, 276950, Note_on_c, 0, 64, 0
1, 276950, Note_on_c, 0, 52, 0
1, 276960, Note_on_c, 0, 79, 100
1, 276960, Note_on_c, 0, 69, 100
1, 276960, Note_on_c, 0, 64, 100
1, 276960, Note_on_c, 0, 52, 100
1, 276990, Note_on_c, 0, 79, 0
1, 277000, Note_on_c, 0, 78, 100
1, 277030, Note_on_c, 0, 78, 0
1, 277040, Note_on_c, 0, 76, 100
1, 277070, Note_on_c, 0, 76, 0
1, 277070, Note_on_c, 0, 69, 0
1, 277070, Note_on_c, 0, 64, 0
1, 277070, Note_on_c, 0, 52, 0
1, 277080, Note_on_c, 0, 78, 100
1, 277080, Note_on_c, 0, 62, 100
1, 277080, Note_on_c, 0, 50, 100
1, 277190, Note_on_c, 0, 78, 0
1, 277190, Note_on_c, 0, 62, 0
1, 277190, Note_on_c, 0, 50, 0
1, 277200, Note_on_c, 0, 91, 100
1, 277200, Note_on_c, 0, 81, 100
1, 277200, Note_on_c, 0, 61, 100
1, 277200, Note_on_c, 0, 49, 100
1, 277230, Note_on_c, 0, 91, 0
1, 277240, Note_on_c, 0, 90, 100
1, 277270, Note_on_c, 0, 90, 0
1, 277280, Note_on_c, 0, 88, 100
1, 277310, Note_on_c, 0, 88, 0
1, 277310, Note_on_c, 0, 81, 0
1, 277310, Note_on_c, 0, 61, 0
1, 277310, Note_on_c, 0, 49, 0
1, 277320, Note_on_c, 0, 90, 100
1, 277320, Note_on_c, 0, 62, 100
1, 277320, Note_on_c, 0, 50, 100
1, 277430, Note_on_c, 0, 90, 0
1, 277430, Note_on_c, 0, 62, 0
1, 277430, Note_on_c, 0, 50, 0
1, 277440, Note_on_c, 0, 74, 100
1, 277440, Note_on_c, 0, 78, 100
1, 277440, Note_on_c, 0, 66, 100
1, 277440, Note_on_c, 0, 57, 100
1, 277440, Note_on_c, 0, 50, 100
1, 277440, Note_on_c, 0, 62, 100
1, 277550, Note_on_c, 0, 74, 0
1, 277550, Note_on_c, 0, 78, 0
1, 277550, Note_on_c, 0, 66, 0
1, 277550, Note_on_c, 0, 62, 0
1, 277560, Note_on_c, 0, 73, 100
1, 277560, Note_on_c, 0, 76, 100
1, 277560, Note_on_c, 0, 64, 100
1, 277560, Note_on_c, 0, 61, 100
1, 277670, Note_on_c, 0, 73, 0
1, 277670, Note_on_c, 0, 76, 0
1, 277670, Note_on_c, 0, 64, 0
1, 277670, Note_on_c, 0, 57, 0
1, 277670, Note_on_c, 0, 50, 0
1, 277670, Note_on_c, 0, 61, 0
1, 277680, Note_on_c, 0, 76, 127
1, 277680, Note_on_c, 0, 79, 127
1, 277680, Note_on_c, 0, 67, 127
1, 277680, Note_on_c, 0, 64, 127
1, 277790, Note_on_c, 0, 76, 0
1, 277790, Note_on_c, 0, 79, 0
1, 277790, Note_on_c, 0, 67, 0
1, 277790, Note_on_c, 0, 64, 0
1, 277800, Note_on_c, 0, 74, 127
1, 277800, Note_on_c, 0, 78, 127
1, 277800, Note_on_c, 0, 66, 127
1, 277800, Note_on_c, 0, 62, 127
1, 277910, Note_on_c, 0, 74, 0
1, 277910, Note_on_c, 0, 78, 0
1, 277910, Note_on_c, 0, 66, 0
1, 277910, Note_on_c, 0, 62, 0
1, 277920, Note_on_c, 0, 74, 127
1, 277920, Note_on_c, 0, 78, 127
1, 277920, Note_on_c, 0, 69, 127
1, 277920, Note_on_c, 0, 66, 127
1, 277920, Note_on_c, 0, 62, 127
1, 278030, Note_on_c, 0, 74, 0
1, 278030, Note_on_c, 0, 78, 0
1, 278030, Note_on_c, 0, 69, 0
1, 278030, Note_on_c, 0, 66, 0
1, 278030, Note_on_c, 0, 62, 0
1, 278040, Note_on_c, 0, 69, 127
1, 278040, Note_on_c, 0, 73, 127
1, 278040, Note_on_c, 0, 76, 127
1, 278040, Note_on_c, 0, 67, 127
1, 278040, Note_on_c, 0, 61, 127
1, 278040, Note_on_c, 0, 64, 127
1, 278040, Note_on_c, 0, 57, 127
1, 278270, Note_on_c, 0, 69, 0
1, 278270, Note_on_c, 0, 73, 0
1, 278270, Note_on_c, 0, 76, 0
1, 278270, Note_on_c, 0, 67, 0
1, 278270, Note_on_c, 0, 61, 0
1, 278270, Note_on_c, 0, 64, 0
1, 278270, Note_on_c, 0, 57, 0
1, 278280, Note_on_c, 0, 69, 127
1, 278280, Note_on_c, 0, 74, 127
1, 278280, Note_on_c, 0, 66, 127
1, 278280, Note_on_c, 0, 57, 127
1, 278280, Note_on_c, 0, 62, 127
1, 278280, Note_on_c, 0, 50, 127
1, 278390, Note_on_c, 0, 69, 0
1, 278390, Note_on_c, 0, 74, 0
1, 278390, Note_on_c, 0, 66, 0
1, 278390, Note_on_c, 0, 57, 0
1, 278390, Note_on_c, 0, 62, 0
1, 278390, Note_on_c, 0, 50, 0
1, 278400, Note_on_c, 0, 69, 127
1, 278400, Note_on_c, 0, 74, 127
1, 278400, Note_on_c, 0, 66, 127
1, 278400, Note_on_c, 0, 57, 127
1, 278400, Note_on_c, 0, 62, 127
1, 278400, Note_on_c, 0, 50, 127
1, 278510, Note_on_c, 0, 69, 0
1, 278510, Note_on_c, 0, 74, 0
1, 278510, Note_on_c, 0, 66, 0
1, 278510, Note_on_c, 0, 57, 0
1, 278510, Note_on_c, 0, 62, 0
1, 278510, Note_on_c, 0, 50, 0
1, 278520, Note_on_c, 0, 50, 127
1, 278570, Note_on_c, 0, 50, 0
1, 278580, Note_on_c, 0, 49, 127
1, 278630, Note_on_c, 0, 49, 0
1, 278640, Note_on_c, 0, 78, 127
1, 278640, Note_on_c, 0, 81, 127
1, 278640, Note_on_c, 0, 69, 127
1, 278640, Note_on_c, 0, 50, 127
1, 278640, Note_on_c, 0, 38, 127
1, 278690, Note_on_c, 0, 50, 0
1, 278700, Note_on_c, 0, 52, 127
1, 278750, Note_on_c, 0, 52, 0
1, 278760, Note_on_c, 0, 54, 127
1, 278810, Note_on_c, 0, 54, 0
1, 278820, Note_on_c, 0, 55, 127
1, 278858, Control_c, 0, 64, 127
1, 278870, Note_on_c, 0, 78, 0
1, 278870, Note_on_c, 0, 81, 0
1, 278870, Note_on_c, 0, 69, 0
1, 278870, Note_on_c, 0, 55, 0
1, 278870, Note_on_c, 0, 38, 0
1, 278880, Note_on_c, 0, 76, 127
1, 278880, Note_on_c, 0, 79, 127
1, 278880, Note_on_c, 0, 67, 127
1, 278880, Note_on_c, 0, 57, 127
1, 278880, Note_on_c, 0, 50, 127
1, 279230, Note_on_c, 0, 76, 0
1, 279230, Note_on_c, 0, 79, 0
1, 279230, Note_on_c, 0, 67, 0
1, 279240, Note_on_c, 0, 74, 127
1, 279240, Note_on_c, 0, 78, 127
1, 279240, Note_on_c, 0, 66, 127
1, 279265, Control_c, 0, 64, 0
1, 279290, Note_on_c, 0, 57, 0
1, 279290, Note_on_c, 0, 50, 0
1, 279300, Note_on_c, 0, 38, 127
1, 279350, Note_on_c, 0, 74, 0
1, 279350, Note_on_c, 0, 78, 0
1, 279350, Note_on_c, 0, 66, 0
1, 279350, Note_on_c, 0, 38, 0
1, 279360, Note_on_c, 0, 74, 127
1, 279360, Note_on_c, 0, 78, 127
1, 279360, Note_on_c, 0, 66, 127
1, 279360, Note_on_c, 0, 57, 127
1, 279360, Note_on_c, 0, 50, 127
1, 279483, Control_c, 0, 64, 127
1, 279590, Note_on_c, 0, 74, 0
1, 279590, Note_on_c, 0, 78, 0
1, 279590, Note_on_c, 0, 66, 0
1, 279600, Note_on_c, 0, 86, 127
1, 279600, Note_on_c, 0, 74, 127
1, 279788, Control_c, 0, 64, 0
1, 279830, Note_on_c, 0, 86, 0
1, 279830, Note_on_c, 0, 74, 0
1, 279830, Note_on_c, 0, 57, 0
1, 279830, Note_on_c, 0, 50, 0
1, 279840, Note_on_c, 0, 81, 127
1, 279840, Note_on_c, 0, 84, 127
1, 279840, Note_on_c, 0, 72, 127
1, 279840, Note_on_c, 0, 50, 127
1, 279840, Note_on_c, 0, 55, 127
1, 279840, Note_on_c, 0, 62, 127
1, 279840, Note_on_c, 0, 43, 127
1, 279867, Control_c, 0, 64, 127
1, 280190, Note_on_c, 0, 81, 0
1, 280190, Note_on_c, 0, 84, 0
1, 280190, Note_on_c, 0, 72, 0
1, 280200, Note_on_c, 0, 79, 127
1, 280200, Note_on_c, 0, 83, 127
1, 280200, Note_on_c, 0, 71, 127
1, 280260, Control_c, 0, 64, 0
1, 280310, Note_on_c, 0, 79, 0
1, 280310, Note_on_c, 0, 83, 0
1, 280310, Note_on_c, 0, 71, 0
1, 280310, Note_on_c, 0, 50, 0
1, 280310, Note_on_c, 0, 55, 0
1, 280310, Note_on_c, 0, 62, 0
1, 280310, Note_on_c, 0, 43, 0
1, 280320, Note_on_c, 0, 79, 127
1, 280320, Note_on_c, 0, 83, 127
1, 280320, Note_on_c, 0, 71, 127
1, 280320, Note_on_c, 0, 50, 127
1, 280320, Note_on_c, 0, 55, 127
1, 280320, Note_on_c, 0, 62, 127
1, 280320, Note_on_c, 0, 43, 127
1, 280439, Control_c, 0, 64, 127
1, 280550, Note_on_c, 0, 79, 0
1, 280550, Note_on_c, 0, 83, 0
1, 280550, Note_on_c, 0, 71, 0
1, 280560, Note_on_c, 0, 79, 127
1, 280560, Note_on_c, 0, 91, 127
1, 280560, Note_on_c, 0, 67, 127
1, 280670, Note_on_c, 0, 79, 0
1, 280670, Note_on_c, 0, 91, 0
1, 280670, Note_on_c, 0, 67, 0
1, 280680, Note_on_c, 0, 76, 127
1, 280680, Note_on_c, 0, 88, 127
1, 280680, Note_on_c, 0, 64, 127
1, 280770, Control_c, 0, 64, 0
1, 280790, Note_on_c, 0, 76, 0
1, 280790, Note_on_c, 0, 88, 0
1, 280790, Note_on_c, 0, 64, 0
1, 280790, Note_on_c, 0, 50, 0
1, 280790, Note_on_c, 0, 55, 0
1, 280790, Note_on_c, 0, 62, 0
1, 280790, Note_on_c, 0, 43, 0
1, 280800, Note_on_c, 0, 86, 127
1, 280800, Note_on_c, 0, 74, 127
1, 280800, Note_on_c, 0, 62, 127
1, 280800, Note_on_c, 0, 52, 127
1, 280800, Note_on_c, 0, 55, 127
1, 280800, Note_on_c, 0, 45, 127
1, 280910, Note_on_c, 0, 86, 0
1, 280910, Note_on_c, 0, 74, 0
1, 280910, Note_on_c, 0, 62, 0
1, 280920, Note_on_c, 0, 85, 127
1, 280920, Note_on_c, 0, 73, 127
1, 280920, Note_on_c, 0, 61, 127
1, 281030, Note_on_c, 0, 85, 0
1, 281030, Note_on_c, 0, 73, 0
1, 281030, Note_on_c, 0, 61, 0
1, 281040, Note_on_c, 0, 88, 127
1, 281040, Note_on_c, 0, 76, 127
1, 281040, Note_on_c, 0, 64, 127
1, 281150, Note_on_c, 0, 88, 0
1, 281150, Note_on_c, 0, 76, 0
1, 281150, Note_on_c, 0, 64, 0
1, 281160, Note_on_c, 0, 85, 127
1, 281160, Note_on_c, 0, 73, 127
1, 281160, Note_on_c, 0, 61, 127
1, 281270, Note_on_c, 0, 85, 0
1, 281270, Note_on_c, 0, 73, 0
1, 281270, Note_on_c, 0, 61, 0
1, 281270, Note_on_c, 0, 52, 0
1, 281270, Note_on_c, 0, 55, 0
1, 281270, Note_on_c, 0, 45, 0
1, 281280, Note_on_c, 0, 83, 127
1, 281280, Note_on_c, 0, 71, 127
1, 281280, Note_on_c, 0, 59, 127
1, 281280, Note_on_c, 0, 52, 127
1, 281280, Note_on_c, 0, 55, 127
1, 281280, Note_on_c, 0, 45, 127
1, 281390, Note_on_c, 0, 83, 0
1, 281390, Note_on_c, 0, 71, 0
1, 281390, Note_on_c, 0, 59, 0
1, 281400, Note_on_c, 0, 81, 127
1, 281400, Note_on_c, 0, 69, 127
1, 281400, Note_on_c, 0, 57, 127
1, 281510, Note_on_c, 0, 81, 0
1, 281510, Note_on_c, 0, 69, 0
1, 281510, Note_on_c, 0, 57, 0
1, 281520, Note_on_c, 0, 83, 127
1, 281520, Note_on_c, 0, 71, 127
1, 281520, Note_on_c, 0, 59, 127
1, 281630, Note_on_c, 0, 83, 0
1, 281630, Note_on_c, 0, 71, 0
1, 281630, Note_on_c, 0, 59, 0
1, 281640, Note_on_c, 0, 85, 127
1, 281640, Note_on_c, 0, 73, 127
1, 281640, Note_on_c, 0, 61, 127
1, 281750, Note_on_c, 0, 85, 0
1, 281750, Note_on_c, 0, 73, 0
1, 281750, Note_on_c, 0, 61, 0
1, 281750, Note_on_c, 0, 52, 0
1, 281750, Note_on_c, 0, 55, 0
1, 281750, Note_on_c, 0, 45, 0
1, 281760, Note_on_c, 0, 88, 127
1, 281760, Note_on_c, 0, 76, 127
1, 281760, Note_on_c, 0, 64, 127
1, 281760, Note_on_c, 0, 54, 127
1, 281760, Note_on_c, 0, 50, 127
1, 281870, Note_on_c, 0, 88, 0
1, 281870, Note_on_c, 0, 76, 0
1, 281870, Note_on_c, 0, 64, 0
1, 281880, Note_on_c, 0, 86, 127
1, 281880, Note_on_c, 0, 74, 127
1, 281880, Note_on_c, 0, 62, 127
1, 281990, Note_on_c, 0, 86, 0
1, 281990, Note_on_c, 0, 74, 0
1, 281990, Note_on_c, 0, 62, 0
1, 282000, Note_on_c, 0, 90, 127
1, 282000, Note_on_c, 0, 78, 127
1, 282000, Note_on_c, 0, 66, 127
1, 282110, Note_on_c, 0, 90, 0
1, 282110, Note_on_c, 0, 78, 0
1, 282110, Note_on_c, 0, 66, 0
1, 282120, Note_on_c, 0, 86, 127
1, 282120, Note_on_c, 0, 74, 127
1, 282120, Note_on_c, 0, 62, 127
1, 282230, Note_on_c, 0, 86, 0
1, 282230, Note_on_c, 0, 74, 0
1, 282230, Note_on_c, 0, 62, 0
1, 282240, Note_on_c, 0, 85, 127
1, 282240, Note_on_c, 0, 73, 127
1, 282240, Note_on_c, 0, 61, 127
1, 282350, Note_on_c, 0, 85, 0
1, 282350, Note_on_c, 0, 73, 0
1, 282350, Note_on_c, 0, 61, 0
1, 282360, Note_on_c, 0, 83, 127
1, 282360, Note_on_c, 0, 71, 127
1, 282360, Note_on_c, 0, 59, 127
1, 282470, Note_on_c, 0, 83, 0
1, 282470, Note_on_c, 0, 71, 0
1, 282470, Note_on_c, 0, 59, 0
1, 282480, Note_on_c, 0, 86, 127
1, 282480, Note_on_c, 0, 74, 127
1, 282480, Note_on_c, 0, 62, 127
1, 282590, Note_on_c, 0, 86, 0
1, 282590, Note_on_c, 0, 74, 0
1, 282590, Note_on_c, 0, 62, 0
1, 282600, Note_on_c, 0, 83, 127
1, 282600, Note_on_c, 0, 71, 127
1, 282600, Note_on_c, 0, 59, 127
1, 282710, Note_on_c, 0, 83, 0
1, 282710, Note_on_c, 0, 71, 0
1, 282710, Note_on_c, 0, 59, 0
1, 282710, Note_on_c, 0, 54, 0
1, 282710, Note_on_c, 0, 50, 0
1, 282720, Note_on_c, 0, 81, 127
1, 282720, Note_on_c, 0, 69, 127
1, 282720, Note_on_c, 0, 57, 127
1, 282720, Note_on_c, 0, 59, 127
1, 282720, Note_on_c, 0, 64, 127
1, 282720, Note_on_c, 0, 52, 127
1, 282830, Note_on_c, 0, 81, 0
1, 282830, Note_on_c, 0, 69, 0
1, 282830, Note_on_c, 0, 57, 0
1, 282840, Note_on_c, 0, 80, 127
1, 282840, Note_on_c, 0, 68, 127
1, 282840, Note_on_c, 0, 56, 127
1, 282950, Note_on_c, 0, 80, 0
1, 282950, Note_on_c, 0, 68, 0
1, 282950, Note_on_c, 0, 56, 0
1, 282960, Note_on_c, 0, 83, 127
1, 282960, Note_on_c, 0, 71, 127
1, 282960, Note_on_c, 0, 59, 127
1, 283070, Note_on_c, 0, 83, 0
1, 283070, Note_on_c, 0, 71, 0
1, 283070, Note_on_c, 0, 59, 0
1, 283070, Note_on_c, 0, 59, 0
1, 283070, Note_on_c, 0, 64, 0
1, 283070, Note_on_c, 0, 52, 0
1, 283080, Note_on_c, 0, 80, 127
1, 283080, Note_on_c, 0, 68, 127
1, 283080, Note_on_c, 0, 56, 127
1, 283140, Note_on_c, 0, 40, 127
1, 283190, Note_on_c, 0, 80, 0
1, 283190, Note_on_c, 0, 68, 0
1, 283190, Note_on_c, 0, 56, 0
1, 283190, Note_on_c, 0, 40, 0
1, 283200, Note_on_c, 0, 78, 127
1, 283200, Note_on_c, 0, 66, 127
1, 283200, Note_on_c, 0, 54, 127
1, 283200, Note_on_c, 0, 56, 127
1, 283200, Note_on_c, 0, 59, 127
1, 283200, Note_on_c, 0, 52, 127
1, 283310, Note_on_c, 0, 78, 0
1, 283310, Note_on_c, 0, 66, 0
1, 283310, Note_on_c, 0, 54, 0
1, 283320, Note_on_c, 0, 76, 127
1, 283320, Note_on_c, 0, 64, 127
1, 283320, Note_on_c, 0, 52, 127
1, 283430, Note_on_c, 0, 76, 0
1, 283430, Note_on_c, 0, 64, 0
1, 283430, Note_on_c, 0, 52, 0
1, 283440, Note_on_c, 0, 78, 127
1, 283440, Note_on_c, 0, 66, 127
1, 283440, Note_on_c, 0, 54, 127
1, 283550, Note_on_c, 0, 78, 0
1, 283550, Note_on_c, 0, 66, 0
1, 283550, Note_on_c, 0, 54, 0
1, 283560, Note_on_c, 0, 80, 127
1, 283560, Note_on_c, 0, 68, 127
1, 283560, Note_on_c, 0, 56, 127
1, 283670, Note_on_c, 0, 80, 0
1, 283670, Note_on_c, 0, 68, 0
1, 283670, Note_on_c, 0, 56, 0
1, 283670, Note_on_c, 0, 56, 0
1, 283670, Note_on_c, 0, 59, 0
1, 283670, Note_on_c, 0, 52, 0
1, 283680, Note_on_c, 0, 81, 127
1, 283680, Note_on_c, 0, 69, 127
1, 283680, Note_on_c, 0, 57, 127
1, 283680, Note_on_c, 0, 45, 127
1, 283687, Control_c, 0, 64, 127
1, 283730, Note_on_c, 0, 69, 0
1, 283730, Note_on_c, 0, 57, 0
1, 283730, Note_on_c, 0, 45, 0
1, 283740, Note_on_c, 0, 71, 127
1, 283740, Note_on_c, 0, 59, 127
1, 283790, Note_on_c, 0, 71, 0
1, 283790, Note_on_c, 0, 59, 0
1, 283800, Note_on_c, 0, 69, 127
1, 283800, Note_on_c, 0, 57, 127
1, 283850, Note_on_c, 0, 69, 0
1, 283850, Note_on_c, 0, 57, 0
1, 283860, Note_on_c, 0, 68, 127
1, 283860, Note_on_c, 0, 56, 127
1, 283910, Note_on_c, 0, 68, 0
1, 283910, Note_on_c, 0, 56, 0
1, 283920, Note_on_c, 0, 66, 127
1, 283920, Note_on_c, 0, 54, 127
1, 283970, Note_on_c, 0, 66, 0
1, 283970, Note_on_c, 0, 54, 0
1, 283980, Note_on_c, 0, 68, 127
1, 283980, Note_on_c, 0, 56, 127
1, 284030, Note_on_c, 0, 68, 0
1, 284030, Note_on_c, 0, 56, 0
1, 284040, Note_on_c, 0, 66, 127
1, 284040, Note_on_c, 0, 54, 127
1, 284090, Note_on_c, 0, 66, 0
1, 284090, Note_on_c, 0, 54, 0
1, 284100, Note_on_c, 0, 64, 127
1, 284100, Note_on_c, 0, 52, 127
1, 284150, Note_on_c, 0, 64, 0
1, 284150, Note_on_c, 0, 52, 0
1, 284160, Note_on_c, 0, 62, 127
1, 284160, Note_on_c, 0, 50, 127
1, 284210, Note_on_c, 0, 62, 0
1, 284210, Note_on_c, 0, 50, 0
1, 284220, Note_on_c, 0, 64, 127
1, 284220, Note_on_c, 0, 52, 127
1, 284270, Note_on_c, 0, 64, 0
1, 284270, Note_on_c, 0, 52, 0
1, 284280, Note_on_c, 0, 62, 127
1, 284280, Note_on_c, 0, 50, 127
1, 284330, Note_on_c, 0, 62, 0
1, 284330, Note_on_c, 0, 50, 0
1, 284340, Note_on_c, 0, 61, 127
1, 284340, Note_on_c, 0, 49, 127
1, 284390, Note_on_c, 0, 61, 0
1, 284390, Note_on_c, 0, 49, 0
1, 284400, Note_on_c, 0, 59, 127
1, 284400, Note_on_c, 0, 47, 127
1, 284450, Note_on_c, 0, 59, 0
1, 284450, Note_on_c, 0, 47, 0
1, 284460, Note_on_c, 0, 61, 127
1, 284460, Note_on_c, 0, 49, 127
1, 284510, Note_on_c, 0, 61, 0
1, 284510, Note_on_c, 0, 49, 0
1, 284520, Note_on_c, 0, 59, 127
1, 284520, Note_on_c, 0, 47, 127
1, 284570, Note_on_c, 0, 59, 0
1, 284570, Note_on_c, 0, 47, 0
1, 284575, Control_c, 0, 64, 0
1, 284580, Note_on_c, 0, 57, 127
1, 284580, Note_on_c, 0, 45, 127
1, 284630, Note_on_c, 0, 57, 0
1, 284630, Note_on_c, 0, 45, 0
1, 284640, Note_on_c, 0, 52, 127
1, 284640, Note_on_c, 0, 40, 127
1, 284644, Control_c, 0, 64, 127
1, 284750, Note_on_c, 0, 81, 0
1, 284760, Note_on_c, 0, 80, 127
1, 284760, Note_on_c, 0, 68, 127
1, 284870, Note_on_c, 0, 80, 0
1, 284870, Note_on_c, 0, 68, 0
1, 284880, Note_on_c, 0, 83, 127
1, 284880, Note_on_c, 0, 71, 127
1, 284990, Note_on_c, 0, 83, 0
1, 284990, Note_on_c, 0, 71, 0
1, 285000, Note_on_c, 0, 80, 127
1, 285000, Note_on_c, 0, 68, 127
1, 285110, Note_on_c, 0, 52, 0
1, 285110, Note_on_c, 0, 40, 0
1, 285110, Note_on_c, 0, 80, 0
1, 285110, Note_on_c, 0, 68, 0
1, 285120, Note_on_c, 0, 78, 127
1, 285120, Note_on_c, 0, 66, 127
1, 285120, Note_on_c, 0, 56, 127
1, 285120, Note_on_c, 0, 59, 127
1, 285120, Note_on_c, 0, 52, 127
1, 285230, Note_on_c, 0, 78, 0
1, 285230, Note_on_c, 0, 66, 0
1, 285240, Note_on_c, 0, 76, 127
1, 285240, Note_on_c, 0, 64, 127
1, 285350, Note_on_c, 0, 76, 0
1, 285350, Note_on_c, 0, 64, 0
1, 285360, Note_on_c, 0, 78, 127
1, 285360, Note_on_c, 0, 66, 127
1, 285470, Note_on_c, 0, 78, 0
1, 285470, Note_on_c, 0, 66, 0
1, 285472, Control_c, 0, 64, 0
1, 285480, Note_on_c, 0, 80, 127
1, 285480, Note_on_c, 0, 68, 127
1, 285590, Note_on_c, 0, 80, 0
1, 285590, Note_on_c, 0, 68, 0
1, 285590, Note_on_c, 0, 56, 0
1, 285590, Note_on_c, 0, 59, 0
1, 285590, Note_on_c, 0, 52, 0
1, 285600, Note_on_c, 0, 81, 127
1, 285600, Note_on_c, 0, 69, 127
1, 285600, Note_on_c, 0, 57, 127
1, 285600, Note_on_c, 0, 45, 127
1, 285650, Note_on_c, 0, 69, 0
1, 285650, Note_on_c, 0, 57, 0
1, 285650, Note_on_c, 0, 45, 0
1, 285660, Note_on_c, 0, 71, 127
1, 285660, Note_on_c, 0, 59, 127
1, 285700, Control_c, 0, 64, 127
1, 285710, Note_on_c, 0, 71, 0
1, 285710, Note_on_c, 0, 59, 0
1, 285720, Note_on_c, 0, 69, 127
1, 285720, Note_on_c, 0, 57, 127
1, 285770, Note_on_c, 0, 69, 0
1, 285770, Note_on_c, 0, 57, 0
1, 285780, Note_on_c, 0, 68, 127
1, 285780, Note_on_c, 0, 56, 127
1, 285830, Note_on_c, 0, 68, 0
1, 285830, Note_on_c, 0, 56, 0
1, 285840, Note_on_c, 0, 66, 127
1, 285840, Note_on_c, 0, 54, 127
1, 285890, Note_on_c, 0, 66, 0
1, 285890, Note_on_c, 0, 54, 0
1, 285900, Note_on_c, 0, 68, 127
1, 285900, Note_on_c, 0, 56, 127
1, 285950, Note_on_c, 0, 68, 0
1, 285950, Note_on_c, 0, 56, 0
1, 285960, Note_on_c, 0, 66, 127
1, 285960, Note_on_c, 0, 54, 127
1, 286010, Note_on_c, 0, 66, 0
1, 286010, Note_on_c, 0, 54, 0
1, 286020, Note_on_c, 0, 64, 127
1, 286020, Note_on_c, 0, 52, 127
1, 286070, Note_on_c, 0, 64, 0
1, 286070, Note_on_c, 0, 52, 0
1, 286080, Note_on_c, 0, 62, 127
1, 286080, Note_on_c, 0, 50, 127
1, 286130, Note_on_c, 0, 62, 0
1, 286130, Note_on_c, 0, 50, 0
1, 286140, Note_on_c, 0, 64, 127
1, 286140, Note_on_c, 0, 52, 127
1, 286190, Note_on_c, 0, 64, 0
1, 286190, Note_on_c, 0, 52, 0
1, 286200, Note_on_c, 0, 62, 127
1, 286200, Note_on_c, 0, 50, 127
1, 286250, Note_on_c, 0, 62, 0
1, 286250, Note_on_c, 0, 50, 0
1, 286260, Note_on_c, 0, 61, 127
1, 286260, Note_on_c, 0, 49, 127
1, 286310, Note_on_c, 0, 61, 0
1, 286310, Note_on_c, 0, 49, 0
1, 286320, Note_on_c, 0, 59, 127
1, 286320, Note_on_c, 0, 47, 127
1, 286370, Note_on_c, 0, 59, 0
1, 286370, Note_on_c, 0, 47, 0
1, 286380, Note_on_c, 0, 61, 127
1, 286380, Note_on_c, 0, 49, 127
1, 286430, Note_on_c, 0, 61, 0
1, 286430, Note_on_c, 0, 49, 0
1, 286440, Note_on_c, 0, 59, 127
1, 286440, Note_on_c, 0, 47, 127
1, 286473, Control_c, 0, 64, 0
1, 286490, Note_on_c, 0, 59, 0
1, 286490, Note_on_c, 0, 47, 0
1, 286500, Note_on_c, 0, 57, 127
1, 286500, Note_on_c, 0, 45, 127
1, 286550, Note_on_c, 0, 81, 0
1, 286550, Note_on_c, 0, 57, 0
1, 286550, Note_on_c, 0, 45, 0
1, 286554, Control_c, 0, 64, 127
1, 286560, Note_on_c, 0, 69, 127
1, 286560, Note_on_c, 0, 57, 127
1, 286560, Note_on_c, 0, 33, 127
1, 286580, Note_on_c, 0, 33, 0
1, 286590, Note_on_c, 0, 45, 127
1, 286610, Note_on_c, 0, 45, 0
1, 286620, Note_on_c, 0, 33, 127
1, 286640, Note_on_c, 0, 33, 0
1, 286650, Note_on_c, 0, 45, 127
1, 286670, Note_on_c, 0, 45, 0
1, 286680, Note_on_c, 0, 33, 127
1, 286700, Note_on_c, 0, 33, 0
1, 286710, Note_on_c, 0, 45, 127
1, 286730, Note_on_c, 0, 45, 0
1, 286740, Note_on_c, 0, 33, 127
1, 286760, Note_on_c, 0, 33, 0
1, 286770, Note_on_c, 0, 45, 127
1, 286790, Note_on_c, 0, 45, 0
1, 286800, Note_on_c, 0, 33, 127
1, 286820, Note_on_c, 0, 33, 0
1, 286830, Note_on_c, 0, 45, 127
1, 286850, Note_on_c, 0, 45, 0
1, 286860, Note_on_c, 0, 33, 127
1, 286880, Note_on_c, 0, 33, 0
1, 286890, Note_on_c, 0, 45, 127
1, 286910, Note_on_c, 0, 45, 0
1, 286920, Note_on_c, 0, 33, 127
1, 286940, Note_on_c, 0, 33, 0
1, 286950, Note_on_c, 0, 45, 127
1, 286970, Note_on_c, 0, 45, 0
1, 286980, Note_on_c, 0, 33, 127
1, 287000, Note_on_c, 0, 33, 0
1, 287010, Note_on_c, 0, 45, 127
1, 287030, Note_on_c, 0, 69, 0
1, 287030, Note_on_c, 0, 57, 0
1, 287030, Note_on_c, 0, 45, 0
1, 287040, Note_on_c, 0, 69, 127
1, 287040, Note_on_c, 0, 57, 127
1, 287040, Note_on_c, 0, 33, 127
1, 287060, Note_on_c, 0, 33, 0
1, 287070, Note_on_c, 0, 45, 127
1, 287090, Note_on_c, 0, 45, 0
1, 287100, Note_on_c, 0, 33, 127
1, 287120, Note_on_c, 0, 33, 0
1, 287130, Note_on_c, 0, 45, 127
1, 287150, Note_on_c, 0, 45, 0
1, 287160, Note_on_c, 0, 33, 127
1, 287180, Note_on_c, 0, 33, 0
1, 287190, Note_on_c, 0, 45, 127
1, 287210, Note_on_c, 0, 45, 0
1, 287220, Note_on_c, 0, 33, 127
1, 287240, Note_on_c, 0, 33, 0
1, 287250, Note_on_c, 0, 45, 127
1, 287270, Note_on_c, 0, 45, 0
1, 287280, Note_on_c, 0, 33, 127
1, 287300, Note_on_c, 0, 33, 0
1, 287310, Note_on_c, 0, 45, 127
1, 287330, Note_on_c, 0, 45, 0
1, 287340, Note_on_c, 0, 33, 127
1, 287360, Note_on_c, 0, 33, 0
1, 287370, Note_on_c, 0, 45, 127
1, 287390, Note_on_c, 0, 45, 0
1, 287400, Note_on_c, 0, 33, 127
1, 287420, Note_on_c, 0, 33, 0
1, 287430, Note_on_c, 0, 45, 127
1, 287450, Note_on_c, 0, 45, 0
1, 287460, Note_on_c, 0, 33, 127
1, 287480, Note_on_c, 0, 33, 0
1, 287490, Note_on_c, 0, 45, 127
1, 287505, Control_c, 0, 64, 0
1, 287510, Note_on_c, 0, 69, 0
1, 287510, Note_on_c, 0, 57, 0
1, 287510, Note_on_c, 0, 45, 0
1, 287520, Note_on_c, 0, 65, 127
1, 287520, Note_on_c, 0, 69, 127
1, 287520, Note_on_c, 0, 57, 127
1, 287520, Note_on_c, 0, 29, 127
1, 287540, Note_on_c, 0, 29, 0
1, 287550, Note_on_c, 0, 41, 127
1, 287570, Note_on_c, 0, 41, 0
1, 287580, Note_on_c, 0, 29, 127
1, 287583, Control_c, 0, 64, 127
1, 287600, Note_on_c, 0, 29, 0
1, 287610, Note_on_c, 0, 41, 127
1, 287630, Note_on_c, 0, 41, 0
1, 287640, Note_on_c, 0, 29, 127
1, 287660, Note_on_c, 0, 29, 0
1, 287670, Note_on_c, 0, 41, 127
1, 287690, Note_on_c, 0, 41, 0
1, 287700, Note_on_c, 0, 29, 127
1, 287720, Note_on_c, 0, 29, 0
1, 287730, Note_on_c, 0, 41, 127
1, 287750, Note_on_c, 0, 41, 0
1, 287760, Note_on_c, 0, 29, 127
1, 287780, Note_on_c, 0, 29, 0
1, 287790, Note_on_c, 0, 41, 127
1, 287810, Note_on_c, 0, 41, 0
1, 287820, Note_on_c, 0, 29, 127
1, 287840, Note_on_c, 0, 29, 0
1, 287850, Note_on_c, 0, 41, 127
1, 287870, Note_on_c, 0, 41, 0
1, 287880, Note_on_c, 0, 29, 127
1, 287900, Note_on_c, 0, 29, 0
1, 287910, Note_on_c, 0, 41, 127
1, 287930, Note_on_c, 0, 41, 0
1, 287940, Note_on_c, 0, 29, 127
1, 287960, Note_on_c, 0, 29, 0
1, 287970, Note_on_c, 0, 41, 127
1, 287990, Note_on_c, 0, 41, 0
1, 288000, Note_on_c, 0, 29, 127
1, 288020, Note_on_c, 0, 29, 0
1, 288030, Note_on_c, 0, 41, 127
1, 288050, Note_on_c, 0, 41, 0
1, 288060, Note_on_c, 0, 29, 127
1, 288080, Note_on_c, 0, 29, 0
1, 288090, Note_on_c, 0, 41, 127
1, 288110, Note_on_c, 0, 41, 0
1, 288120, Note_on_c, 0, 29, 127
1, 288140, Note_on_c, 0, 29, 0
1, 288150, Note_on_c, 0, 41, 127
1, 288170, Note_on_c, 0, 41, 0
1, 288180, Note_on_c, 0, 29, 127
1, 288200, Note_on_c, 0, 29, 0
1, 288210, Note_on_c, 0, 41, 127
1, 288230, Note_on_c, 0, 41, 0
1, 288240, Note_on_c, 0, 29, 127
1, 288260, Note_on_c, 0, 29, 0
1, 288270, Note_on_c, 0, 41, 127
1, 288290, Note_on_c, 0, 41, 0
1, 288300, Note_on_c, 0, 29, 127
1, 288320, Note_on_c, 0, 29, 0
1, 288330, Note_on_c, 0, 41, 127
1, 288350, Note_on_c, 0, 41, 0
1, 288360, Note_on_c, 0, 29, 127
1, 288380, Note_on_c, 0, 29, 0
1, 288390, Note_on_c, 0, 41, 127
1, 288410, Note_on_c, 0, 41, 0
1, 288420, Note_on_c, 0, 29, 127
1, 288450, Note_on_c, 0, 41, 127
1, 288699, Control_c, 0, 64, 0
1, 289180, Control_c, 0, 64, 127
1, 289440, Note_off_c, 0, 65, 127
1, 289440, Note_off_c, 0, 69, 127
1, 289440, Note_off_c, 0, 57, 127
1, 290370, Note_off_c, 0, 29, 0
1, 290370, Note_off_c, 0, 41, 0
1, 290370, Control_c, 0, 64, 0
1, 290400, Tempo, 476190
1, 290400, Time_signature, 3, 2, 24, 8
1, 290400, Tempo, 476190
1, 290760, Note_on_c, 0, 46, 40
1, 290760, Note_on_c, 0, 34, 40
1, 291110, Note_on_c, 0, 46, 0
1, 291110, Note_on_c, 0, 34, 0
1, 292200, Note_on_c, 0, 46, 40
1, 292200, Note_on_c, 0, 34, 40
1, 292550, Note_on_c, 0, 46, 0
1, 292550, Note_on_c, 0, 34, 0
1, 293640, Note_on_c, 0, 46, 40
1, 293640, Note_on_c, 0, 34, 40
1, 293990, Note_on_c, 0, 46, 0
1, 293990, Note_on_c, 0, 34, 0
1, 294360, Note_on_c, 0, 46, 40
1, 294360, Note_on_c, 0, 34, 40
1, 294710, Note_on_c, 0, 46, 0
1, 294710, Note_on_c, 0, 34, 0
1, 295080, Note_on_c, 0, 46, 40
1, 295080, Note_on_c, 0, 34, 40
1, 295430, Note_on_c, 0, 46, 0
1, 295430, Note_on_c, 0, 34, 0
1, 295800, Note_on_c, 0, 46, 40
1, 295800, Note_on_c, 0, 34, 40
1, 296150, Note_on_c, 0, 46, 0
1, 296150, Note_on_c, 0, 34, 0
1, 296520, Note_on_c, 0, 74, 40
1, 296520, Note_on_c, 0, 62, 40
1, 296520, Note_on_c, 0, 46, 40
1, 296520, Note_on_c, 0, 34, 40
1, 296870, Note_on_c, 0, 74, 0
1, 296870, Note_on_c, 0, 62, 0
1, 296870, Note_on_c, 0, 46, 0
1, 296870, Note_on_c, 0, 34, 0
1, 297240, Note_on_c, 0, 74, 40
1, 297240, Note_on_c, 0, 62, 40
1, 297240, Note_on_c, 0, 46, 40
1, 297240, Note_on_c, 0, 34, 40
1, 297590, Note_on_c, 0, 74, 0
1, 297590, Note_on_c, 0, 62, 0
1, 297590, Note_on_c, 0, 46, 0
1, 297590, Note_on_c, 0, 34, 0
1, 297960, Note_on_c, 0, 74, 40
1, 297960, Note_on_c, 0, 62, 40
1, 297960, Note_on_c, 0, 46, 40
1, 297960, Note_on_c, 0, 34, 40
1, 298310, Note_on_c, 0, 74, 0
1, 298310, Note_on_c, 0, 62, 0
1, 298310, Note_on_c, 0, 46, 0
1, 298310, Note_on_c, 0, 34, 0
1, 298680, Note_on_c, 0, 74, 40
1, 298680, Note_on_c, 0, 62, 40
1, 298680, Note_on_c, 0, 46, 40
1, 298680, Note_on_c, 0, 34, 40
1, 299030, Note_on_c, 0, 74, 0
1, 299030, Note_on_c, 0, 62, 0
1, 299030, Note_on_c, 0, 46, 0
1, 299030, Note_on_c, 0, 34, 0
1, 299040, Note_on_c, 0, 46, 40
1, 299040, Note_on_c, 0, 34, 40
1, 299270, Note_on_c, 0, 46, 0
1, 299270, Note_on_c, 0, 34, 0
1, 299280, Note_on_c, 0, 82, 40
1, 299280, Note_on_c, 0, 86, 40
1, 299280, Note_on_c, 0, 74, 40
1, 299390, Note_on_c, 0, 82, 0
1, 299390, Note_on_c, 0, 86, 0
1, 299390, Note_on_c, 0, 74, 0
1, 299400, Note_on_c, 0, 82, 40
1, 299400, Note_on_c, 0, 86, 40
1, 299400, Note_on_c, 0, 74, 40
1, 299400, Note_on_c, 0, 58, 40
1, 299630, Note_on_c, 0, 58, 0
1, 299760, Note_on_c, 0, 46, 40
1, 299990, Note_on_c, 0, 82, 0
1, 299990, Note_on_c, 0, 86, 0
1, 299990, Note_on_c, 0, 74, 0
1, 299990, Note_on_c, 0, 46, 0
1, 300000, Note_on_c, 0, 84, 40
1, 300000, Note_on_c, 0, 87, 40
1, 300000, Note_on_c, 0, 75, 40
1, 300110, Note_on_c, 0, 84, 0
1, 300110, Note_on_c, 0, 87, 0
1, 300110, Note_on_c, 0, 75, 0
1, 300120, Note_on_c, 0, 86, 40
1, 300120, Note_on_c, 0, 89, 40
1, 300120, Note_on_c, 0, 77, 40
1, 300120, Note_on_c, 0, 58, 40
1, 300350, Note_on_c, 0, 58, 0
1, 300480, Note_on_c, 0, 53, 40
1, 300710, Note_on_c, 0, 86, 0
1, 300710, Note_on_c, 0, 89, 0
1, 300710, Note_on_c, 0, 77, 0
1, 300710, Note_on_c, 0, 53, 0
1, 300720, Note_on_c, 0, 86, 40
1, 300720, Note_on_c, 0, 89, 40
1, 300720, Note_on_c, 0, 77, 40
1, 300830, Note_on_c, 0, 86, 0
1, 300830, Note_on_c, 0, 89, 0
1, 300830, Note_on_c, 0, 77, 0
1, 300840, Note_on_c, 0, 84, 40
1, 300840, Note_on_c, 0, 87, 40
1, 300840, Note_on_c, 0, 75, 40
1, 300840, Note_on_c, 0, 65, 40
1, 301070, Note_on_c, 0, 65, 0
1, 301200, Note_on_c, 0, 53, 40
1, 301430, Note_on_c, 0, 84, 0
1, 301430, Note_on_c, 0, 87, 0
1, 301430, Note_on_c, 0, 75, 0
1, 301430, Note_on_c, 0, 53, 0
1, 301440, Note_on_c, 0, 82, 40
1, 301440, Note_on_c, 0, 86, 40
1, 301440, Note_on_c, 0, 74, 40
1, 301550, Note_on_c, 0, 82, 0
1, 301550, Note_on_c, 0, 86, 0
1, 301550, Note_on_c, 0, 74, 0
1, 301560, Note_on_c, 0, 81, 40
1, 301560, Note_on_c, 0, 84, 40
1, 301560, Note_on_c, 0, 72, 40
1, 301560, Note_on_c, 0, 65, 40
1, 301790, Note_on_c, 0, 65, 0
1, 301920, Note_on_c, 0, 46, 40
1, 302150, Note_on_c, 0, 81, 0
1, 302150, Note_on_c, 0, 84, 0
1, 302150, Note_on_c, 0, 72, 0
1, 302150, Note_on_c, 0, 46, 0
1, 302160, Note_on_c, 0, 74, 40
1, 302160, Note_on_c, 0, 82, 40
1, 302160, Note_on_c, 0, 70, 40
1, 302270, Note_on_c, 0, 74, 0
1, 302270, Note_on_c, 0, 82, 0
1, 302270, Note_on_c, 0, 70, 0
1, 302280, Note_on_c, 0, 74, 40
1, 302280, Note_on_c, 0, 82, 40
1, 302280, Note_on_c, 0, 70, 40
1, 302280, Note_on_c, 0, 58, 40
1, 302510, Note_on_c, 0, 58, 0
1, 302640, Note_on_c, 0, 46, 40
1, 302870, Note_on_c, 0, 74, 0
1, 302870, Note_on_c, 0, 82, 0
1, 302870, Note_on_c, 0, 70, 0
1, 302870, Note_on_c, 0, 46, 0
1, 302880, Note_on_c, 0, 77, 40
1, 302880, Note_on_c, 0, 84, 40
1, 302880, Note_on_c, 0, 72, 40
1, 302990, Note_on_c, 0, 77, 0
1, 302990, Note_on_c, 0, 84, 0
1, 302990, Note_on_c, 0, 72, 0
1, 303000, Note_on_c, 0, 82, 40
1, 303000, Note_on_c, 0, 86, 40
1, 303000, Note_on_c, 0, 74, 40
1, 303000, Note_on_c, 0, 58, 40
1, 303230, Note_on_c, 0, 58, 0
1, 303360, Note_on_c, 0, 41, 40
1, 303590, Note_on_c, 0, 82, 0
1, 303590, Note_on_c, 0, 86, 0
1, 303590, Note_on_c, 0, 74, 0
1, 303590, Note_on_c, 0, 41, 0
1, 303600, Note_on_c, 0, 82, 40
1, 303600, Note_on_c, 0, 86, 40
1, 303600, Note_on_c, 0, 74, 40
1, 303710, Note_on_c, 0, 82, 0
1, 303710, Note_on_c, 0, 86, 0
1, 303710, Note_on_c, 0, 74, 0
1, 303720, Note_on_c, 0, 81, 40
1, 303720, Note_on_c, 0, 84, 40
1, 303720, Note_on_c, 0, 72, 40
1, 303720, Note_on_c, 0, 53, 40
1, 303950, Note_on_c, 0, 53, 0
1, 304080, Note_on_c, 0, 53, 40
1, 304310, Note_on_c, 0, 81, 0
1, 304310, Note_on_c, 0, 84, 0
1, 304310, Note_on_c, 0, 72, 0
1, 304310, Note_on_c, 0, 53, 0
1, 304320, Note_on_c, 0, 77, 40
1, 304320, Note_on_c, 0, 82, 40
1, 304320, Note_on_c, 0, 74, 40
1, 304430, Note_on_c, 0, 77, 0
1, 304430, Note_on_c, 0, 82, 0
1, 304430, Note_on_c, 0, 74, 0
1, 304440, Note_on_c, 0, 81, 40
1, 304440, Note_on_c, 0, 84, 40
1, 304440, Note_on_c, 0, 72, 40
1, 304440, Note_on_c, 0, 65, 40
1, 304670, Note_on_c, 0, 65, 0
1, 304800, Note_on_c, 0, 46, 40
1, 305030, Note_on_c, 0, 81, 0
1, 305030, Note_on_c, 0, 84, 0
1, 305030, Note_on_c, 0, 72, 0
1, 305030, Note_on_c, 0, 46, 0
1, 305040, Note_on_c, 0, 82, 40
1, 305040, Note_on_c, 0, 86, 40
1, 305040, Note_on_c, 0, 74, 40
1, 305150, Note_on_c, 0, 82, 0
1, 305150, Note_on_c, 0, 86, 0
1, 305150, Note_on_c, 0, 74, 0
1, 305160, Note_on_c, 0, 82, 40
1, 305160, Note_on_c, 0, 86, 40
1, 305160, Note_on_c, 0, 74, 40
1, 305160, Note_on_c, 0, 58, 40
1, 305390, Note_on_c, 0, 58, 0
1, 305520, Note_on_c, 0, 46, 40
1, 305750, Note_on_c, 0, 82, 0
1, 305750, Note_on_c, 0, 86, 0
1, 305750, Note_on_c, 0, 74, 0
1, 305750, Note_on_c, 0, 46, 0
1, 305760, Note_on_c, 0, 84, 40
1, 305760, Note_on_c, 0, 87, 40
1, 305760, Note_on_c, 0, 75, 40
1, 305870, Note_on_c, 0, 84, 0
1, 305870, Note_on_c, 0, 87, 0
1, 305870, Note_on_c, 0, 75, 0
1, 305880, Note_on_c, 0, 86, 40
1, 305880, Note_on_c, 0, 89, 40
1, 305880, Note_on_c, 0, 77, 40
1, 305880, Note_on_c, 0, 58, 40
1, 306110, Note_on_c, 0, 58, 0
1, 306240, Note_on_c, 0, 53, 40
1, 306470, Note_on_c, 0, 86, 0
1, 306470, Note_on_c, 0, 89, 0
1, 306470, Note_on_c, 0, 77, 0
1, 306470, Note_on_c, 0, 53, 0
1, 306480, Note_on_c, 0, 86, 40
1, 306480, Note_on_c, 0, 89, 40
1, 306480, Note_on_c, 0, 77, 40
1, 306590, Note_on_c, 0, 86, 0
1, 306590, Note_on_c, 0, 89, 0
1, 306590, Note_on_c, 0, 77, 0
1, 306600, Note_on_c, 0, 84, 40
1, 306600, Note_on_c, 0, 87, 40
1, 306600, Note_on_c, 0, 75, 40
1, 306600, Note_on_c, 0, 57, 40
1, 306830, Note_on_c, 0, 57, 0
1, 306840, Note_on_c, 0, 60, 40
1, 306950, Note_on_c, 0, 60, 0
1, 306960, Note_on_c, 0, 65, 40
1, 307190, Note_on_c, 0, 84, 0
1, 307190, Note_on_c, 0, 87, 0
1, 307190, Note_on_c, 0, 75, 0
1, 307190, Note_on_c, 0, 65, 0
1, 307200, Note_on_c, 0, 82, 40
1, 307200, Note_on_c, 0, 86, 40
1, 307200, Note_on_c, 0, 74, 40
1, 307200, Note_on_c, 0, 53, 40
1, 307310, Note_on_c, 0, 82, 0
1, 307310, Note_on_c, 0, 86, 0
1, 307310, Note_on_c, 0, 74, 0
1, 307310, Note_on_c, 0, 53, 0
1, 307320, Note_on_c, 0, 77, 40
1, 307320, Note_on_c, 0, 84, 40
1, 307320, Note_on_c, 0, 72, 40
1, 307320, Note_on_c, 0, 55, 40
1, 307550, Note_on_c, 0, 55, 0
1, 307560, Note_on_c, 0, 57, 40
1, 307670, Note_on_c, 0, 57, 0
1, 307680, Note_on_c, 0, 46, 40
1, 307910, Note_on_c, 0, 77, 0
1, 307910, Note_on_c, 0, 84, 0
1, 307910, Note_on_c, 0, 72, 0
1, 307910, Note_on_c, 0, 46, 0
1, 307920, Note_on_c, 0, 74, 40
1, 307920, Note_on_c, 0, 82, 40
1, 307920, Note_on_c, 0, 70, 40
1, 308030, Note_on_c, 0, 74, 0
1, 308030, Note_on_c, 0, 82, 0
1, 308030, Note_on_c, 0, 70, 0
1, 308040, Note_on_c, 0, 74, 40
1, 308040, Note_on_c, 0, 82, 40
1, 308040, Note_on_c, 0, 70, 40
1, 308040, Note_on_c, 0, 58, 40
1, 308270, Note_on_c, 0, 58, 0
1, 308400, Note_on_c, 0, 46, 40
1, 308630, Note_on_c, 0, 74, 0
1, 308630, Note_on_c, 0, 82, 0
1, 308630, Note_on_c, 0, 70, 0
1, 308630, Note_on_c, 0, 46, 0
1, 308640, Note_on_c, 0, 77, 40
1, 308640, Note_on_c, 0, 84, 40
1, 308640, Note_on_c, 0, 72, 40
1, 308750, Note_on_c, 0, 77, 0
1, 308750, Note_on_c, 0, 84, 0
1, 308750, Note_on_c, 0, 72, 0
1, 308760, Note_on_c, 0, 82, 40
1, 308760, Note_on_c, 0, 86, 40
1, 308760, Note_on_c, 0, 74, 40
1, 308760, Note_on_c, 0, 58, 40
1, 308990, Note_on_c, 0, 58, 0
1, 309120, Note_on_c, 0, 53, 40
1, 309350, Note_on_c, 0, 82, 0
1, 309350, Note_on_c, 0, 86, 0
1, 309350, Note_on_c, 0, 74, 0
1, 309350, Note_on_c, 0, 53, 0
1, 309360, Note_on_c, 0, 77, 40
1, 309360, Note_on_c, 0, 84, 40
1, 309360, Note_on_c, 0, 72, 40
1, 309470, Note_on_c, 0, 77, 0
1, 309470, Note_on_c, 0, 84, 0
1, 309470, Note_on_c, 0, 72, 0
1, 309480, Note_on_c, 0, 77, 40
1, 309480, Note_on_c, 0, 84, 40
1, 309480, Note_on_c, 0, 72, 40
1, 309480, Note_on_c, 0, 65, 40
1, 309710, Note_on_c, 0, 77, 0
1, 309710, Note_on_c, 0, 84, 0
1, 309710, Note_on_c, 0, 72, 0
1, 309710, Note_on_c, 0, 65, 0
1, 309720, Note_on_c, 0, 74, 40
1, 309720, Note_on_c, 0, 82, 40
1, 309720, Note_on_c, 0, 70, 40
1, 309830, Note_on_c, 0, 74, 0
1, 309830, Note_on_c, 0, 82, 0
1, 309830, Note_on_c, 0, 70, 0
1, 309840, Note_on_c, 0, 74, 40
1, 309840, Note_on_c, 0, 82, 40
1, 309840, Note_on_c, 0, 70, 40
1, 309840, Note_on_c, 0, 58, 40
1, 310070, Note_on_c, 0, 74, 0
1, 310070, Note_on_c, 0, 82, 0
1, 310070, Note_on_c, 0, 70, 0
1, 310070, Note_on_c, 0, 58, 0
1, 310080, Note_on_c, 0, 72, 40
1, 310080, Note_on_c, 0, 65, 40
1, 310190, Note_on_c, 0, 72, 0
1, 310190, Note_on_c, 0, 65, 0
1, 310200, Note_on_c, 0, 72, 40
1, 310200, Note_on_c, 0, 65, 40
1, 310430, Note_on_c, 0, 72, 0
1, 310430, Note_on_c, 0, 65, 0
1, 310440, Note_on_c, 0, 70, 40
1, 310440, Note_on_c, 0, 62, 40
1, 310550, Note_on_c, 0, 70, 0
1, 310550, Note_on_c, 0, 62, 0
1, 310560, Note_on_c, 0, 72, 40
1, 310560, Note_on_c, 0, 65, 40
1, 310790, Note_on_c, 0, 72, 0
1, 310790, Note_on_c, 0, 65, 0
1, 310800, Note_on_c, 0, 81, 40
1, 310800, Note_on_c, 0, 84, 40
1, 310800, Note_on_c, 0, 72, 40
1, 310910, Note_on_c, 0, 81, 0
1, 310910, Note_on_c, 0, 84, 0
1, 310910, Note_on_c, 0, 72, 0
1, 310920, Note_on_c, 0, 81, 40
1, 310920, Note_on_c, 0, 84, 40
1, 310920, Note_on_c, 0, 72, 40
1, 310920, Note_on_c, 0, 65, 40
1, 311150, Note_on_c, 0, 65, 0
1, 311280, Note_on_c, 0, 53, 40
1, 311510, Note_on_c, 0, 53, 0
1, 311630, Note_on_c, 0, 81, 0
1, 311630, Note_on_c, 0, 84, 0
1, 311630, Note_on_c, 0, 72, 0
1, 311640, Note_on_c, 0, 82, 40
1, 311640, Note_on_c, 0, 86, 40
1, 311640, Note_on_c, 0, 74, 40
1, 311640, Note_on_c, 0, 46, 40
1, 311870, Note_on_c, 0, 82, 0
1, 311870, Note_on_c, 0, 86, 0
1, 311870, Note_on_c, 0, 74, 0
1, 311870, Note_on_c, 0, 46, 0
1, 311880, Note_on_c, 0, 77, 40
1, 311880, Note_on_c, 0, 82, 40
1, 311880, Note_on_c, 0, 74, 40
1, 311990, Note_on_c, 0, 77, 0
1, 311990, Note_on_c, 0, 82, 0
1, 311990, Note_on_c, 0, 74, 0
1, 312000, Note_on_c, 0, 81, 40
1, 312000, Note_on_c, 0, 84, 40
1, 312000, Note_on_c, 0, 72, 40
1, 312000, Note_on_c, 0, 53, 40
1, 312000, Note_on_c, 0, 41, 40
1, 312230, Note_on_c, 0, 81, 0
1, 312230, Note_on_c, 0, 84, 0
1, 312230, Note_on_c, 0, 72, 0
1, 312230, Note_on_c, 0, 53, 0
1, 312230, Note_on_c, 0, 41, 0
1, 312240, Note_on_c, 0, 81, 40
1, 312240, Note_on_c, 0, 84, 40
1, 312240, Note_on_c, 0, 72, 40
1, 312350, Note_on_c, 0, 81, 0
1, 312350, Note_on_c, 0, 84, 0
1, 312350, Note_on_c, 0, 72, 0
1, 312360, Note_on_c, 0, 81, 40
1, 312360, Note_on_c, 0, 84, 40
1, 312360, Note_on_c, 0, 72, 40
1, 312360, Note_on_c, 0, 65, 40
1, 312590, Note_on_c, 0, 65, 0
1, 312710, Note_on_c, 0, 72, 0
1, 312720, Note_on_c, 0, 53, 40
1, 312830, Note_on_c, 0, 81, 0
1, 312830, Note_on_c, 0, 84, 0
1, 312840, Note_on_c, 0, 86, 40
1, 312840, Note_on_c, 0, 82, 40
1, 312950, Note_on_c, 0, 86, 0
1, 312950, Note_on_c, 0, 82, 0
1, 312950, Note_on_c, 0, 53, 0
1, 312960, Note_on_c, 0, 84, 40
1, 312960, Note_on_c, 0, 87, 40
1, 312960, Note_on_c, 0, 81, 40
1, 313070, Note_on_c, 0, 84, 0
1, 313070, Note_on_c, 0, 87, 0
1, 313070, Note_on_c, 0, 81, 0
1, 313080, Note_on_c, 0, 86, 40
1, 313080, Note_on_c, 0, 82, 40
1, 313080, Note_on_c, 0, 46, 40
1, 313310, Note_on_c, 0, 86, 0
1, 313310, Note_on_c, 0, 82, 0
1, 313310, Note_on_c, 0, 46, 0
1, 313320, Note_on_c, 0, 82, 40
1, 313320, Note_on_c, 0, 74, 40
1, 313430, Note_on_c, 0, 82, 0
1, 313430, Note_on_c, 0, 74, 0
1, 313440, Note_on_c, 0, 84, 40
1, 313440, Note_on_c, 0, 81, 40
1, 313440, Note_on_c, 0, 41, 40
1, 313550, Note_on_c, 0, 84, 0
1, 313550, Note_on_c, 0, 81, 0
1, 313560, Note_on_c, 0, 86, 40
1, 313560, Note_on_c, 0, 82, 40
1, 313670, Note_on_c, 0, 86, 0
1, 313670, Note_on_c, 0, 82, 0
1, 313670, Note_on_c, 0, 41, 0
1, 313680, Note_on_c, 0, 84, 40
1, 313680, Note_on_c, 0, 87, 40
1, 313680, Note_on_c, 0, 81, 40
1, 313790, Note_on_c, 0, 84, 0
1, 313790, Note_on_c, 0, 87, 0
1, 313790, Note_on_c, 0, 81, 0
1, 313800, Note_on_c, 0, 86, 40
1, 313800, Note_on_c, 0, 82, 40
1, 313800, Note_on_c, 0, 46, 40
1, 314030, Note_on_c, 0, 86, 0
1, 314030, Note_on_c, 0, 82, 0
1, 314030, Note_on_c, 0, 46, 0
1, 314040, Note_on_c, 0, 82, 40
1, 314040, Note_on_c, 0, 74, 40
1, 314150, Note_on_c, 0, 82, 0
1, 314150, Note_on_c, 0, 74, 0
1, 314160, Note_on_c, 0, 84, 40
1, 314160, Note_on_c, 0, 81, 40
1, 314160, Note_on_c, 0, 53, 40
1, 314270, Note_on_c, 0, 84, 0
1, 314270, Note_on_c, 0, 81, 0
1, 314280, Note_on_c, 0, 86, 40
1, 314280, Note_on_c, 0, 82, 40
1, 314390, Note_on_c, 0, 86, 0
1, 314390, Note_on_c, 0, 82, 0
1, 314390, Note_on_c, 0, 53, 0
1, 314400, Note_on_c, 0, 84, 40
1, 314400, Note_on_c, 0, 87, 40
1, 314400, Note_on_c, 0, 81, 40
1, 314510, Note_on_c, 0, 84, 0
1, 314510, Note_on_c, 0, 87, 0
1, 314510, Note_on_c, 0, 81, 0
1, 314520, Note_on_c, 0, 86, 40
1, 314520, Note_on_c, 0, 82, 40
1, 314520, Note_on_c, 0, 65, 40
1, 314750, Note_on_c, 0, 86, 0
1, 314750, Note_on_c, 0, 82, 0
1, 314750, Note_on_c, 0, 65, 0
1, 314760, Note_on_c, 0, 84, 40
1, 314760, Note_on_c, 0, 81, 40
1, 314880, Note_on_c, 0, 48, 40
1, 314990, Note_on_c, 0, 84, 0
1, 314990, Note_on_c, 0, 81, 0
1, 315000, Note_on_c, 0, 82, 40
1, 315000, Note_on_c, 0, 79, 40
1, 315110, Note_on_c, 0, 82, 0
1, 315110, Note_on_c, 0, 79, 0
1, 315110, Note_on_c, 0, 48, 0
1, 315120, Note_on_c, 0, 81, 40
1, 315120, Note_on_c, 0, 77, 40
1, 315230, Note_on_c, 0, 81, 0
1, 315230, Note_on_c, 0, 77, 0
1, 315240, Note_on_c, 0, 82, 40
1, 315240, Note_on_c, 0, 79, 40
1, 315240, Note_on_c, 0, 60, 40
1, 315470, Note_on_c, 0, 82, 0
1, 315470, Note_on_c, 0, 79, 0
1, 315470, Note_on_c, 0, 60, 0
1, 315480, Note_on_c, 0, 84, 40
1, 315480, Note_on_c, 0, 76, 40
1, 315590, Note_on_c, 0, 84, 0
1, 315590, Note_on_c, 0, 76, 0
1, 315600, Note_on_c, 0, 77, 40
1, 315600, Note_on_c, 0, 77, 40
1, 315600, Note_on_c, 0, 65, 40
1, 315600, Note_on_c, 0, 63, 40
1, 315710, Note_on_c, 0, 77, 0
1, 315710, Note_on_c, 0, 65, 0
1, 315720, Note_on_c, 0, 79, 40
1, 315720, Note_on_c, 0, 67, 40
1, 315830, Note_on_c, 0, 79, 0
1, 315830, Note_on_c, 0, 67, 0
1, 315840, Note_on_c, 0, 81, 40
1, 315840, Note_on_c, 0, 69, 40
1, 315950, Note_on_c, 0, 77, 0
1, 315950, Note_on_c, 0, 81, 0
1, 315950, Note_on_c, 0, 69, 0
1, 315950, Note_on_c, 0, 63, 0
1, 315960, Note_on_c, 0, 82, 40
1, 315960, Note_on_c, 0, 77, 40
1, 315960, Note_on_c, 0, 70, 40
1, 315960, Note_on_c, 0, 62, 40
1, 316070, Note_on_c, 0, 82, 0
1, 316080, Note_on_c, 0, 84, 40
1, 316190, Note_on_c, 0, 84, 0
1, 316190, Note_on_c, 0, 62, 0
1, 316200, Note_on_c, 0, 86, 40
1, 316200, Note_on_c, 0, 60, 40
1, 316310, Note_on_c, 0, 86, 0
1, 316310, Note_on_c, 0, 77, 0
1, 316310, Note_on_c, 0, 70, 0
1, 316310, Note_on_c, 0, 60, 0
1, 316320, Note_on_c, 0, 86, 40
1, 316320, Note_on_c, 0, 74, 40
1, 316320, Note_on_c, 0, 58, 40
1, 316550, Note_on_c, 0, 86, 0
1, 316550, Note_on_c, 0, 74, 0
1, 316550, Note_on_c, 0, 58, 0
1, 316560, Note_on_c, 0, 82, 40
1, 316560, Note_on_c, 0, 86, 40
1, 316560, Note_on_c, 0, 74, 40
1, 316670, Note_on_c, 0, 82, 0
1, 316670, Note_on_c, 0, 86, 0
1, 316670, Note_on_c, 0, 74, 0
1, 316680, Note_on_c, 0, 82, 40
1, 316680, Note_on_c, 0, 86, 40
1, 316680, Note_on_c, 0, 74, 40
1, 316680, Note_on_c, 0, 70, 40
1, 316910, Note_on_c, 0, 70, 0
1, 317040, Note_on_c, 0, 56, 40
1, 317270, Note_on_c, 0, 82, 0
1, 317270, Note_on_c, 0, 86, 0
1, 317270, Note_on_c, 0, 74, 0
1, 317280, Note_on_c, 0, 84, 40
1, 317280, Note_on_c, 0, 87, 40
1, 317280, Note_on_c, 0, 75, 40
1, 317390, Note_on_c, 0, 84, 0
1, 317390, Note_on_c, 0, 87, 0
1, 317390, Note_on_c, 0, 75, 0
1, 317390, Note_on_c, 0, 56, 0
1, 317400, Note_on_c, 0, 86, 40
1, 317400, Note_on_c, 0, 89, 40
1, 317400, Note_on_c, 0, 77, 40
1, 317400, Note_on_c, 0, 58, 40
1, 317400, Note_on_c, 0, 56, 40
1, 317750, Note_on_c, 0, 86, 0
1, 317750, Note_on_c, 0, 58, 0
1, 317750, Note_on_c, 0, 56, 0
1, 317760, Note_on_c, 0, 82, 40
1, 317760, Note_on_c, 0, 55, 40
1, 317990, Note_on_c, 0, 82, 0
1, 317990, Note_on_c, 0, 89, 0
1, 317990, Note_on_c, 0, 77, 0
1, 317990, Note_on_c, 0, 55, 0
1, 318000, Note_on_c, 0, 82, 40
1, 318000, Note_on_c, 0, 89, 40
1, 318000, Note_on_c, 0, 77, 40
1, 318110, Note_on_c, 0, 82, 0
1, 318110, Note_on_c, 0, 89, 0
1, 318110, Note_on_c, 0, 77, 0
1, 318120, Note_on_c, 0, 82, 40
1, 318120, Note_on_c, 0, 87, 40
1, 318120, Note_on_c, 0, 75, 40
1, 318120, Note_on_c, 0, 70, 40
1, 318120, Note_on_c, 0, 63, 40
1, 318350, Note_on_c, 0, 70, 0
1, 318350, Note_on_c, 0, 63, 0
1, 318360, Note_on_c, 0, 65, 40
1, 318470, Note_on_c, 0, 65, 0
1, 318480, Note_on_c, 0, 67, 40
1, 318480, Note_on_c, 0, 51, 40
1, 318710, Note_on_c, 0, 82, 0
1, 318710, Note_on_c, 0, 87, 0
1, 318710, Note_on_c, 0, 75, 0
1, 318710, Note_on_c, 0, 67, 0
1, 318710, Note_on_c, 0, 51, 0
1, 318720, Note_on_c, 0, 79, 40
1, 318720, Note_on_c, 0, 86, 40
1, 318720, Note_on_c, 0, 74, 40
1, 318830, Note_on_c, 0, 79, 0
1, 318830, Note_on_c, 0, 86, 0
1, 318830, Note_on_c, 0, 74, 0
1, 318840, Note_on_c, 0, 79, 40
1, 318840, Note_on_c, 0, 84, 40
1, 318840, Note_on_c, 0, 72, 40
1, 318840, Note_on_c, 0, 67, 40
1, 318840, Note_on_c, 0, 52, 40
1, 319070, Note_on_c, 0, 67, 0
1, 319070, Note_on_c, 0, 52, 0
1, 319190, Note_on_c, 0, 79, 0
1, 319200, Note_on_c, 0, 75, 40
1, 319200, Note_on_c, 0, 53, 40
1, 319430, Note_on_c, 0, 75, 0
1, 319430, Note_on_c, 0, 84, 0
1, 319430, Note_on_c, 0, 72, 0
1, 319430, Note_on_c, 0, 53, 0
1, 319440, Note_on_c, 0, 74, 40
1, 319440, Note_on_c, 0, 82, 40
1, 319440, Note_on_c, 0, 70, 40
1, 319550, Note_on_c, 0, 74, 0
1, 319550, Note_on_c, 0, 82, 0
1, 319550, Note_on_c, 0, 70, 0
1, 319560, Note_on_c, 0, 74, 40
1, 319560, Note_on_c, 0, 82, 40
1, 319560, Note_on_c, 0, 70, 40
1, 319560, Note_on_c, 0, 65, 40
1, 319790, Note_on_c, 0, 65, 0
1, 319920, Note_on_c, 0, 41, 40
1, 320150, Note_on_c, 0, 74, 0
1, 320150, Note_on_c, 0, 82, 0
1, 320150, Note_on_c, 0, 70, 0
1, 320150, Note_on_c, 0, 41, 0
1, 320160, Note_on_c, 0, 77, 40
1, 320160, Note_on_c, 0, 84, 40
1, 320160, Note_on_c, 0, 72, 40
1, 320270, Note_on_c, 0, 77, 0
1, 320270, Note_on_c, 0, 84, 0
1, 320270, Note_on_c, 0, 72, 0
1, 320280, Note_on_c, 0, 82, 40
1, 320280, Note_on_c, 0, 86, 40
1, 320280, Note_on_c, 0, 74, 40
1, 320280, Note_on_c, 0, 53, 40
1, 320510, Note_on_c, 0, 53, 0
1, 320640, Note_on_c, 0, 53, 40
1, 320870, Note_on_c, 0, 82, 0
1, 320870, Note_on_c, 0, 86, 0
1, 320870, Note_on_c, 0, 74, 0
1, 320870, Note_on_c, 0, 53, 0
1, 320880, Note_on_c, 0, 77, 40
1, 320880, Note_on_c, 0, 84, 40
1, 320880, Note_on_c, 0, 72, 40
1, 320990, Note_on_c, 0, 77, 0
1, 320990, Note_on_c, 0, 84, 0
1, 320990, Note_on_c, 0, 72, 0
1, 321000, Note_on_c, 0, 77, 40
1, 321000, Note_on_c, 0, 84, 40
1, 321000, Note_on_c, 0, 72, 40
1, 321000, Note_on_c, 0, 65, 40
1, 321230, Note_on_c, 0, 77, 0
1, 321230, Note_on_c, 0, 84, 0
1, 321230, Note_on_c, 0, 72, 0
1, 321230, Note_on_c, 0, 65, 0
1, 321240, Note_on_c, 0, 74, 40
1, 321240, Note_on_c, 0, 82, 40
1, 321240, Note_on_c, 0, 70, 40
1, 321350, Note_on_c, 0, 74, 0
1, 321350, Note_on_c, 0, 82, 0
1, 321350, Note_on_c, 0, 70, 0
1, 321360, Note_on_c, 0, 74, 40
1, 321360, Note_on_c, 0, 82, 40
1, 321360, Note_on_c, 0, 70, 40
1, 321360, Note_on_c, 0, 58, 40
1, 321590, Note_on_c, 0, 74, 0
1, 321590, Note_on_c, 0, 82, 0
1, 321590, Note_on_c, 0, 70, 0
1, 321590, Note_on_c, 0, 58, 0
1, 321600, Note_on_c, 0, 72, 40
1, 321600, Note_on_c, 0, 65, 40
1, 321710, Note_on_c, 0, 72, 0
1, 321710, Note_on_c, 0, 65, 0
1, 321720, Note_on_c, 0, 72, 40
1, 321720, Note_on_c, 0, 65, 40
1, 321950, Note_on_c, 0, 72, 0
1, 321950, Note_on_c, 0, 65, 0
1, 321960, Note_on_c, 0, 70, 40
1, 321960, Note_on_c, 0, 62, 40
1, 322070, Note_on_c, 0, 70, 0
1, 322070, Note_on_c, 0, 62, 0
1, 322080, Note_on_c, 0, 70, 40
1, 322080, Note_on_c, 0, 62, 40
1, 322310, Note_on_c, 0, 70, 0
1, 322310, Note_on_c, 0, 62, 0
1, 322320, Note_on_c, 0, 82, 40
1, 322320, Note_on_c, 0, 86, 40
1, 322320, Note_on_c, 0, 74, 40
1, 322430, Note_on_c, 0, 82, 0
1, 322430, Note_on_c, 0, 86, 0
1, 322430, Note_on_c, 0, 74, 0
1, 322440, Note_on_c, 0, 82, 40
1, 322440, Note_on_c, 0, 86, 40
1, 322440, Note_on_c, 0, 74, 40
1, 322800, Note_on_c, 0, 58, 40
1, 322800, Note_on_c, 0, 62, 40
1, 322800, Note_on_c, 0, 46, 40
1, 323030, Note_on_c, 0, 82, 0
1, 323030, Note_on_c, 0, 86, 0
1, 323030, Note_on_c, 0, 74, 0
1, 323040, Note_on_c, 0, 84, 40
1, 323040, Note_on_c, 0, 87, 40
1, 323040, Note_on_c, 0, 75, 40
1, 323150, Note_on_c, 0, 84, 0
1, 323150, Note_on_c, 0, 87, 0
1, 323150, Note_on_c, 0, 75, 0
1, 323160, Note_on_c, 0, 86, 40
1, 323160, Note_on_c, 0, 89, 40
1, 323160, Note_on_c, 0, 77, 40
1, 323510, Note_on_c, 0, 58, 0
1, 323510, Note_on_c, 0, 62, 0
1, 323510, Note_on_c, 0, 46, 0
1, 323520, Note_on_c, 0, 65, 40
1, 323520, Note_on_c, 0, 53, 40
1, 323750, Note_on_c, 0, 86, 0
1, 323750, Note_on_c, 0, 89, 0
1, 323750, Note_on_c, 0, 77, 0
1, 323760, Note_on_c, 0, 86, 40
1, 323760, Note_on_c, 0, 89, 40
1, 323760, Note_on_c, 0, 77, 40
1, 323870, Note_on_c, 0, 86, 0
1, 323870, Note_on_c, 0, 89, 0
1, 323870, Note_on_c, 0, 77, 0
1, 323880, Note_on_c, 0, 84, 40
1, 323880, Note_on_c, 0, 87, 40
1, 323880, Note_on_c, 0, 75, 40
1, 324230, Note_on_c, 0, 65, 0
1, 324230, Note_on_c, 0, 53, 0
1, 324240, Note_on_c, 0, 53, 40
1, 324240, Note_on_c, 0, 41, 40
1, 324470, Note_on_c, 0, 84, 0
1, 324470, Note_on_c, 0, 87, 0
1, 324470, Note_on_c, 0, 75, 0
1, 324470, Note_on_c, 0, 41, 0
1, 324480, Note_on_c, 0, 82, 40
1, 324480, Note_on_c, 0, 86, 40
1, 324480, Note_on_c, 0, 74, 40
1, 324590, Note_on_c, 0, 82, 0
1, 324590, Note_on_c, 0, 86, 0
1, 324590, Note_on_c, 0, 74, 0
1, 324590, Note_on_c, 0, 53, 0
1, 324600, Note_on_c, 0, 77, 40
1, 324600, Note_on_c, 0, 84, 40
1, 324600, Note_on_c, 0, 72, 40
1, 324600, Note_on_c, 0, 55, 40
1, 324830, Note_on_c, 0, 55, 0
1, 324840, Note_on_c, 0, 57, 40
1, 324950, Note_on_c, 0, 57, 0
1, 324960, Note_on_c, 0, 58, 40
1, 324960, Note_on_c, 0, 46, 40
1, 325190, Note_on_c, 0, 77, 0
1, 325190, Note_on_c, 0, 84, 0
1, 325190, Note_on_c, 0, 72, 0
1, 325190, Note_on_c, 0, 46, 0
1, 325200, Note_on_c, 0, 74, 40
1, 325200, Note_on_c, 0, 82, 40
1, 325200, Note_on_c, 0, 70, 40
1, 325310, Note_on_c, 0, 74, 0
1, 325310, Note_on_c, 0, 82, 0
1, 325310, Note_on_c, 0, 70, 0
1, 325310, Note_on_c, 0, 58, 0
1, 325320, Note_on_c, 0, 74, 40
1, 325320, Note_on_c, 0, 82, 40
1, 325320, Note_on_c, 0, 70, 40
1, 325320, Note_on_c, 0, 58, 40
1, 325670, Note_on_c, 0, 58, 0
1, 325680, Note_on_c, 0, 58, 40
1, 325910, Note_on_c, 0, 74, 0
1, 325910, Note_on_c, 0, 82, 0
1, 325910, Note_on_c, 0, 70, 0
1, 325910, Note_on_c, 0, 58, 0
1, 325920, Note_on_c, 0, 77, 40
1, 325920, Note_on_c, 0, 84, 40
1, 325920, Note_on_c, 0, 72, 40
1, 325920, Note_on_c, 0, 60, 40
1, 326030, Note_on_c, 0, 77, 0
1, 326030, Note_on_c, 0, 84, 0
1, 326030, Note_on_c, 0, 72, 0
1, 326030, Note_on_c, 0, 60, 0
1, 326040, Note_on_c, 0, 82, 40
1, 326040, Note_on_c, 0, 86, 40
1, 326040, Note_on_c, 0, 74, 40
1, 326040, Note_on_c, 0, 62, 40
1, 326040, Note_on_c, 0, 58, 40
1, 326390, Note_on_c, 0, 62, 0
1, 326390, Note_on_c, 0, 58, 0
1, 326400, Note_on_c, 0, 62, 40
1, 326400, Note_on_c, 0, 58, 40
1, 326400, Note_on_c, 0, 41, 40
1, 326630, Note_on_c, 0, 82, 0
1, 326630, Note_on_c, 0, 86, 0
1, 326630, Note_on_c, 0, 74, 0
1, 326630, Note_on_c, 0, 41, 0
1, 326640, Note_on_c, 0, 82, 40
1, 326640, Note_on_c, 0, 86, 40
1, 326640, Note_on_c, 0, 74, 40
1, 326750, Note_on_c, 0, 82, 0
1, 326750, Note_on_c, 0, 86, 0
1, 326750, Note_on_c, 0, 74, 0
1, 326750, Note_on_c, 0, 62, 0
1, 326750, Note_on_c, 0, 58, 0
1, 326760, Note_on_c, 0, 81, 40
1, 326760, Note_on_c, 0, 84, 40
1, 326760, Note_on_c, 0, 72, 40
1, 326760, Note_on_c, 0, 60, 40
1, 326760, Note_on_c, 0, 57, 40
1, 327110, Note_on_c, 0, 60, 0
1, 327110, Note_on_c, 0, 57, 0
1, 327120, Note_on_c, 0, 60, 40
1, 327120, Note_on_c, 0, 41, 40
1, 327350, Note_on_c, 0, 81, 0
1, 327350, Note_on_c, 0, 84, 0
1, 327350, Note_on_c, 0, 72, 0
1, 327350, Note_on_c, 0, 60, 0
1, 327350, Note_on_c, 0, 41, 0
1, 327360, Note_on_c, 0, 77, 40
1, 327360, Note_on_c, 0, 82, 40
1, 327360, Note_on_c, 0, 74, 40
1, 327360, Note_on_c, 0, 58, 40
1, 327470, Note_on_c, 0, 77, 0
1, 327470, Note_on_c, 0, 82, 0
1, 327470, Note_on_c, 0, 74, 0
1, 327470, Note_on_c, 0, 58, 0
1, 327480, Note_on_c, 0, 81, 40
1, 327480, Note_on_c, 0, 84, 40
1, 327480, Note_on_c, 0, 72, 40
1, 327480, Note_on_c, 0, 60, 40
1, 327710, Note_on_c, 0, 60, 0
1, 327720, Note_on_c, 0, 53, 40
1, 327830, Note_on_c, 0, 53, 0
1, 327840, Note_on_c, 0, 62, 40
1, 327840, Note_on_c, 0, 46, 53
1, 328070, Note_on_c, 0, 81, 0
1, 328070, Note_on_c, 0, 84, 0
1, 328070, Note_on_c, 0, 72, 0
1, 328070, Note_on_c, 0, 62, 0
1, 328070, Note_on_c, 0, 46, 0
1, 328080, Note_on_c, 0, 82, 40
1, 328080, Note_on_c, 0, 86, 40
1, 328080, Note_on_c, 0, 74, 40
1, 328190, Note_on_c, 0, 82, 0
1, 328190, Note_on_c, 0, 86, 0
1, 328190, Note_on_c, 0, 74, 0
1, 328200, Note_on_c, 0, 82, 63
1, 328200, Note_on_c, 0, 86, 63
1, 328200, Note_on_c, 0, 74, 63
1, 328200, Note_on_c, 0, 58, 63
1, 328430, Note_on_c, 0, 58, 0
1, 328560, Note_on_c, 0, 62, 63
1, 328560, Note_on_c, 0, 46, 63
1, 328790, Note_on_c, 0, 82, 0
1, 328790, Note_on_c, 0, 86, 0
1, 328790, Note_on_c, 0, 74, 0
1, 328790, Note_on_c, 0, 62, 0
1, 328790, Note_on_c, 0, 46, 0
1, 328800, Note_on_c, 0, 84, 63
1, 328800, Note_on_c, 0, 87, 63
1, 328800, Note_on_c, 0, 75, 63
1, 328910, Note_on_c, 0, 84, 0
1, 328910, Note_on_c, 0, 87, 0
1, 328910, Note_on_c, 0, 75, 0
1, 328920, Note_on_c, 0, 86, 63
1, 328920, Note_on_c, 0, 89, 63
1, 328920, Note_on_c, 0, 77, 63
1, 328920, Note_on_c, 0, 58, 63
1, 329150, Note_on_c, 0, 58, 0
1, 329280, Note_on_c, 0, 65, 63
1, 329280, Note_on_c, 0, 53, 63
1, 329510, Note_on_c, 0, 86, 0
1, 329510, Note_on_c, 0, 89, 0
1, 329510, Note_on_c, 0, 77, 0
1, 329510, Note_on_c, 0, 65, 0
1, 329510, Note_on_c, 0, 53, 0
1, 329520, Note_on_c, 0, 86, 63
1, 329520, Note_on_c, 0, 89, 63
1, 329520, Note_on_c, 0, 77, 63
1, 329520, Note_on_c, 0, 53, 63
1, 329630, Note_on_c, 0, 86, 0
1, 329630, Note_on_c, 0, 89, 0
1, 329630, Note_on_c, 0, 77, 0
1, 329630, Note_on_c, 0, 53, 0
1, 329640, Note_on_c, 0, 84, 63
1, 329640, Note_on_c, 0, 87, 63
1, 329640, Note_on_c, 0, 75, 63
1, 329640, Note_on_c, 0, 57, 63
1, 329870, Note_on_c, 0, 57, 0
1, 329880, Note_on_c, 0, 60, 63
1, 329990, Note_on_c, 0, 60, 0
1, 330000, Note_on_c, 0, 65, 63
1, 330230, Note_on_c, 0, 84, 0
1, 330230, Note_on_c, 0, 87, 0
1, 330230, Note_on_c, 0, 75, 0
1, 330230, Note_on_c, 0, 65, 0
1, 330240, Note_on_c, 0, 82, 63
1, 330240, Note_on_c, 0, 86, 63
1, 330240, Note_on_c, 0, 74, 63
1, 330240, Note_on_c, 0, 53, 63
1, 330350, Note_on_c, 0, 82, 0
1, 330350, Note_on_c, 0, 86, 0
1, 330350, Note_on_c, 0, 74, 0
1, 330350, Note_on_c, 0, 53, 0
1, 330360, Note_on_c, 0, 77, 63
1, 330360, Note_on_c, 0, 84, 63
1, 330360, Note_on_c, 0, 72, 63
1, 330360, Note_on_c, 0, 55, 63
1, 330590, Note_on_c, 0, 55, 0
1, 330600, Note_on_c, 0, 57, 63
1, 330710, Note_on_c, 0, 57, 0
1, 330720, Note_on_c, 0, 58, 63
1, 330720, Note_on_c, 0, 46, 63
1, 330950, Note_on_c, 0, 77, 0
1, 330950, Note_on_c, 0, 84, 0
1, 330950, Note_on_c, 0, 72, 0
1, 330950, Note_on_c, 0, 58, 0
1, 330950, Note_on_c, 0, 46, 0
1, 330960, Note_on_c, 0, 74, 63
1, 330960, Note_on_c, 0, 82, 63
1, 330960, Note_on_c, 0, 70, 63
1, 331070, Note_on_c, 0, 74, 0
1, 331070, Note_on_c, 0, 82, 0
1, 331070, Note_on_c, 0, 70, 0
1, 331080, Note_on_c, 0, 74, 63
1, 331080, Note_on_c, 0, 82, 63
1, 331080, Note_on_c, 0, 70, 63
1, 331080, Note_on_c, 0, 53, 63
1, 331310, Note_on_c, 0, 53, 0
1, 331440, Note_on_c, 0, 62, 63
1, 331440, Note_on_c, 0, 46, 63
1, 331670, Note_on_c, 0, 74, 0
1, 331670, Note_on_c, 0, 82, 0
1, 331670, Note_on_c, 0, 70, 0
1, 331670, Note_on_c, 0, 62, 0
1, 331670, Note_on_c, 0, 46, 0
1, 331680, Note_on_c, 0, 77, 63
1, 331680, Note_on_c, 0, 84, 63
1, 331680, Note_on_c, 0, 72, 63
1, 331790, Note_on_c, 0, 77, 0
1, 331790, Note_on_c, 0, 84, 0
1, 331790, Note_on_c, 0, 72, 0
1, 331800, Note_on_c, 0, 82, 63
1, 331800, Note_on_c, 0, 86, 63
1, 331800, Note_on_c, 0, 74, 63
1, 331800, Note_on_c, 0, 58, 63
1, 332030, Note_on_c, 0, 58, 0
1, 332160, Note_on_c, 0, 65, 63
1, 332160, Note_on_c, 0, 53, 63
1, 332390, Note_on_c, 0, 82, 0
1, 332390, Note_on_c, 0, 86, 0
1, 332390, Note_on_c, 0, 74, 0
1, 332390, Note_on_c, 0, 65, 0
1, 332390, Note_on_c, 0, 53, 0
1, 332400, Note_on_c, 0, 77, 63
1, 332400, Note_on_c, 0, 84, 63
1, 332400, Note_on_c, 0, 72, 63
1, 332510, Note_on_c, 0, 77, 0
1, 332510, Note_on_c, 0, 84, 0
1, 332510, Note_on_c, 0, 72, 0
1, 332520, Note_on_c, 0, 77, 63
1, 332520, Note_on_c, 0, 84, 63
1, 332520, Note_on_c, 0, 72, 63
1, 332520, Note_on_c, 0, 63, 63
1, 332520, Note_on_c, 0, 53, 63
1, 332750, Note_on_c, 0, 77, 0
1, 332750, Note_on_c, 0, 84, 0
1, 332750, Note_on_c, 0, 72, 0
1, 332750, Note_on_c, 0, 63, 0
1, 332750, Note_on_c, 0, 53, 0
1, 332760, Note_on_c, 0, 74, 63
1, 332760, Note_on_c, 0, 82, 63
1, 332760, Note_on_c, 0, 70, 63
1, 332760, Note_on_c, 0, 62, 63
1, 332870, Note_on_c, 0, 74, 0
1, 332870, Note_on_c, 0, 82, 0
1, 332870, Note_on_c, 0, 70, 0
1, 332870, Note_on_c, 0, 62, 0
1, 332880, Note_on_c, 0, 74, 63
1, 332880, Note_on_c, 0, 82, 63
1, 332880, Note_on_c, 0, 70, 63
1, 332880, Note_on_c, 0, 62, 63
1, 332880, Note_on_c, 0, 58, 63
1, 333110, Note_on_c, 0, 74, 0
1, 333110, Note_on_c, 0, 82, 0
1, 333110, Note_on_c, 0, 70, 0
1, 333110, Note_on_c, 0, 62, 0
1, 333110, Note_on_c, 0, 58, 0
1, 333120, Note_on_c, 0, 72, 63
1, 333120, Note_on_c, 0, 65, 63
1, 333230, Note_on_c, 0, 72, 0
1, 333230, Note_on_c, 0, 65, 0
1, 333240, Note_on_c, 0, 72, 63
1, 333240, Note_on_c, 0, 65, 63
1, 333470, Note_on_c, 0, 72, 0
1, 333470, Note_on_c, 0, 65, 0
1, 333480, Note_on_c, 0, 70, 63
1, 333480, Note_on_c, 0, 62, 63
1, 333590, Note_on_c, 0, 70, 0
1, 333590, Note_on_c, 0, 62, 0
1, 333600, Note_on_c, 0, 72, 63
1, 333600, Note_on_c, 0, 65, 63
1, 333600, Note_on_c, 0, 60, 63
1, 333600, Note_on_c, 0, 53, 63
1, 333830, Note_on_c, 0, 72, 0
1, 333830, Note_on_c, 0, 65, 0
1, 333830, Note_on_c, 0, 60, 0
1, 333830, Note_on_c, 0, 53, 0
1, 333840, Note_on_c, 0, 77, 63
1, 333840, Note_on_c, 0, 84, 63
1, 333840, Note_on_c, 0, 72, 63
1, 333950, Note_on_c, 0, 77, 0
1, 333950, Note_on_c, 0, 84, 0
1, 333950, Note_on_c, 0, 72, 0
1, 333960, Note_on_c, 0, 77, 63
1, 333960, Note_on_c, 0, 84, 63
1, 333960, Note_on_c, 0, 72, 63
1, 333960, Note_on_c, 0, 53, 63
1, 333960, Note_on_c, 0, 41, 63
1, 334190, Note_on_c, 0, 53, 0
1, 334190, Note_on_c, 0, 41, 0
1, 334320, Note_on_c, 0, 60, 63
1, 334320, Note_on_c, 0, 53, 63
1, 334550, Note_on_c, 0, 53, 0
1, 334670, Note_on_c, 0, 77, 0
1, 334670, Note_on_c, 0, 84, 0
1, 334670, Note_on_c, 0, 72, 0
1, 334670, Note_on_c, 0, 60, 0
1, 334680, Note_on_c, 0, 82, 63
1, 334680, Note_on_c, 0, 86, 63
1, 334680, Note_on_c, 0, 74, 63
1, 334680, Note_on_c, 0, 62, 63
1, 334680, Note_on_c, 0, 46, 63
1, 334910, Note_on_c, 0, 82, 0
1, 334910, Note_on_c, 0, 86, 0
1, 334910, Note_on_c, 0, 74, 0
1, 334910, Note_on_c, 0, 62, 0
1, 334910, Note_on_c, 0, 46, 0
1, 334920, Note_on_c, 0, 77, 63
1, 334920, Note_on_c, 0, 82, 63
1, 334920, Note_on_c, 0, 74, 63
1, 334920, Note_on_c, 0, 58, 63
1, 335030, Note_on_c, 0, 77, 0
1, 335030, Note_on_c, 0, 82, 0
1, 335030, Note_on_c, 0, 74, 0
1, 335030, Note_on_c, 0, 58, 0
1, 335040, Note_on_c, 0, 81, 63
1, 335040, Note_on_c, 0, 84, 63
1, 335040, Note_on_c, 0, 72, 63
1, 335040, Note_on_c, 0, 60, 63
1, 335040, Note_on_c, 0, 53, 63
1, 335270, Note_on_c, 0, 81, 0
1, 335270, Note_on_c, 0, 84, 0
1, 335270, Note_on_c, 0, 72, 0
1, 335270, Note_on_c, 0, 60, 0
1, 335270, Note_on_c, 0, 53, 0
1, 335280, Note_on_c, 0, 81, 63
1, 335280, Note_on_c, 0, 84, 63
1, 335280, Note_on_c, 0, 72, 63
1, 335390, Note_on_c, 0, 81, 0
1, 335390, Note_on_c, 0, 84, 0
1, 335390, Note_on_c, 0, 72, 0
1, 335400, Note_on_c, 0, 81, 63
1, 335400, Note_on_c, 0, 84, 63
1, 335400, Note_on_c, 0, 72, 63
1, 335400, Note_on_c, 0, 53, 63
1, 335400, Note_on_c, 0, 41, 63
1, 335630, Note_on_c, 0, 53, 0
1, 335630, Note_on_c, 0, 41, 0
1, 335750, Note_on_c, 0, 72, 0
1, 335760, Note_on_c, 0, 65, 63
1, 335760, Note_on_c, 0, 53, 63
1, 335870, Note_on_c, 0, 81, 0
1, 335870, Note_on_c, 0, 84, 0
1, 335880, Note_on_c, 0, 86, 63
1, 335880, Note_on_c, 0, 82, 63
1, 335990, Note_on_c, 0, 86, 0
1, 335990, Note_on_c, 0, 82, 0
1, 335990, Note_on_c, 0, 53, 0
1, 336000, Note_on_c, 0, 84, 63
1, 336000, Note_on_c, 0, 87, 63
1, 336000, Note_on_c, 0, 81, 63
1, 336110, Note_on_c, 0, 84, 0
1, 336110, Note_on_c, 0, 87, 0
1, 336110, Note_on_c, 0, 81, 0
1, 336120, Note_on_c, 0, 86, 63
1, 336120, Note_on_c, 0, 82, 63
1, 336120, Note_on_c, 0, 58, 63
1, 336350, Note_on_c, 0, 86, 0
1, 336350, Note_on_c, 0, 82, 0
1, 336350, Note_on_c, 0, 58, 0
1, 336360, Note_on_c, 0, 82, 63
1, 336360, Note_on_c, 0, 74, 63
1, 336470, Note_on_c, 0, 82, 0
1, 336470, Note_on_c, 0, 74, 0
1, 336470, Note_on_c, 0, 65, 0
1, 336480, Note_on_c, 0, 84, 63
1, 336480, Note_on_c, 0, 81, 63
1, 336480, Note_on_c, 0, 65, 63
1, 336480, Note_on_c, 0, 53, 63
1, 336590, Note_on_c, 0, 84, 0
1, 336590, Note_on_c, 0, 81, 0
1, 336600, Note_on_c, 0, 86, 63
1, 336600, Note_on_c, 0, 82, 63
1, 336710, Note_on_c, 0, 86, 0
1, 336710, Note_on_c, 0, 82, 0
1, 336710, Note_on_c, 0, 65, 0
1, 336710, Note_on_c, 0, 53, 0
1, 336720, Note_on_c, 0, 84, 63
1, 336720, Note_on_c, 0, 87, 63
1, 336720, Note_on_c, 0, 81, 63
1, 336830, Note_on_c, 0, 84, 0
1, 336830, Note_on_c, 0, 87, 0
1, 336830, Note_on_c, 0, 81, 0
1, 336840, Note_on_c, 0, 86, 63
1, 336840, Note_on_c, 0, 82, 63
1, 336840, Note_on_c, 0, 53, 63
1, 336840, Note_on_c, 0, 46, 63
1, 337070, Note_on_c, 0, 86, 0
1, 337070, Note_on_c, 0, 82, 0
1, 337070, Note_on_c, 0, 53, 0
1, 337070, Note_on_c, 0, 46, 0
1, 337080, Note_on_c, 0, 70, 63
1, 337080, Note_on_c, 0, 62, 63
1, 337190, Note_on_c, 0, 70, 0
1, 337190, Note_on_c, 0, 62, 0
1, 337200, Note_on_c, 0, 72, 63
1, 337200, Note_on_c, 0, 69, 63
1, 337200, Note_on_c, 0, 65, 63
1, 337200, Note_on_c, 0, 53, 63
1, 337310, Note_on_c, 0, 72, 0
1, 337310, Note_on_c, 0, 69, 0
1, 337320, Note_on_c, 0, 74, 63
1, 337320, Note_on_c, 0, 70, 63
1, 337430, Note_on_c, 0, 74, 0
1, 337430, Note_on_c, 0, 70, 0
1, 337430, Note_on_c, 0, 53, 0
1, 337440, Note_on_c, 0, 72, 63
1, 337440, Note_on_c, 0, 75, 63
1, 337440, Note_on_c, 0, 69, 63
1, 337550, Note_on_c, 0, 72, 0
1, 337550, Note_on_c, 0, 75, 0
1, 337550, Note_on_c, 0, 65, 0
1, 337550, Note_on_c, 0, 69, 0
1, 337560, Note_on_c, 0, 74, 63
1, 337560, Note_on_c, 0, 70, 63
1, 337560, Note_on_c, 0, 62, 63
1, 337560, Note_on_c, 0, 53, 63
1, 337790, Note_on_c, 0, 74, 0
1, 337790, Note_on_c, 0, 70, 0
1, 337790, Note_on_c, 0, 62, 0
1, 337790, Note_on_c, 0, 53, 0
1, 337800, Note_on_c, 0, 72, 63
1, 337800, Note_on_c, 0, 69, 63
1, 337800, Note_on_c, 0, 60, 63
1, 337910, Note_on_c, 0, 60, 0
1, 337920, Note_on_c, 0, 58, 63
1, 337920, Note_on_c, 0, 48, 63
1, 338030, Note_on_c, 0, 72, 0
1, 338030, Note_on_c, 0, 69, 0
1, 338040, Note_on_c, 0, 70, 63
1, 338040, Note_on_c, 0, 67, 63
1, 338150, Note_on_c, 0, 70, 0
1, 338150, Note_on_c, 0, 67, 0
1, 338150, Note_on_c, 0, 58, 0
1, 338150, Note_on_c, 0, 48, 0
1, 338160, Note_on_c, 0, 69, 63
1, 338160, Note_on_c, 0, 65, 63
1, 338160, Note_on_c, 0, 57, 63
1, 338270, Note_on_c, 0, 69, 0
1, 338270, Note_on_c, 0, 65, 0
1, 338270, Note_on_c, 0, 57, 0
1, 338280, Note_on_c, 0, 70, 63
1, 338280, Note_on_c, 0, 67, 63
1, 338280, Note_on_c, 0, 58, 63
1, 338280, Note_on_c, 0, 48, 63
1, 338510, Note_on_c, 0, 70, 0
1, 338510, Note_on_c, 0, 67, 0
1, 338510, Note_on_c, 0, 58, 0
1, 338510, Note_on_c, 0, 48, 0
1, 338520, Note_on_c, 0, 72, 63
1, 338520, Note_on_c, 0, 64, 63
1, 338520, Note_on_c, 0, 60, 63
1, 338630, Note_on_c, 0, 72, 0
1, 338630, Note_on_c, 0, 64, 0
1, 338630, Note_on_c, 0, 60, 0
1, 338640, Note_on_c, 0, 65, 63
1, 338640, Note_on_c, 0, 63, 63
1, 338640, Note_on_c, 0, 51, 63
1, 338750, Note_on_c, 0, 65, 0
1, 338760, Note_on_c, 0, 67, 63
1, 338870, Note_on_c, 0, 67, 0
1, 338880, Note_on_c, 0, 69, 63
1, 338990, Note_on_c, 0, 69, 0
1, 338990, Note_on_c, 0, 63, 0
1, 338990, Note_on_c, 0, 51, 0
1, 339000, Note_on_c, 0, 70, 63
1, 339000, Note_on_c, 0, 65, 63
1, 339000, Note_on_c, 0, 62, 63
1, 339000, Note_on_c, 0, 50, 63
1, 339110, Note_on_c, 0, 70, 0
1, 339120, Note_on_c, 0, 72, 63
1, 339230, Note_on_c, 0, 72, 0
1, 339230, Note_on_c, 0, 62, 0
1, 339230, Note_on_c, 0, 50, 0
1, 339240, Note_on_c, 0, 74, 63
1, 339240, Note_on_c, 0, 60, 63
1, 339240, Note_on_c, 0, 48, 63
1, 339350, Note_on_c, 0, 74, 0
1, 339350, Note_on_c, 0, 65, 0
1, 339350, Note_on_c, 0, 60, 0
1, 339350, Note_on_c, 0, 48, 0
1, 339360, Note_on_c, 0, 70, 63
1, 339360, Note_on_c, 0, 74, 63
1, 339360, Note_on_c, 0, 65, 63
1, 339360, Note_on_c, 0, 62, 63
1, 339360, Note_on_c, 0, 46, 63
1, 339590, Note_on_c, 0, 70, 0
1, 339590, Note_on_c, 0, 74, 0
1, 339590, Note_on_c, 0, 65, 0
1, 339590, Note_on_c, 0, 46, 0
1, 339600, Note_on_c, 0, 82, 63
1, 339600, Note_on_c, 0, 86, 63
1, 339600, Note_on_c, 0, 74, 63
1, 339710, Note_on_c, 0, 82, 0
1, 339710, Note_on_c, 0, 86, 0
1, 339710, Note_on_c, 0, 74, 0
1, 339710, Note_on_c, 0, 62, 0
1, 339720, Note_on_c, 0, 82, 63
1, 339720, Note_on_c, 0, 86, 63
1, 339720, Note_on_c, 0, 74, 63
1, 339720, Note_on_c, 0, 58, 63
1, 339950, Note_on_c, 0, 58, 0
1, 340080, Note_on_c, 0, 62, 63
1, 340080, Note_on_c, 0, 44, 63
1, 340310, Note_on_c, 0, 82, 0
1, 340310, Note_on_c, 0, 86, 0
1, 340310, Note_on_c, 0, 74, 0
1, 340320, Note_on_c, 0, 84, 63
1, 340320, Note_on_c, 0, 87, 63
1, 340320, Note_on_c, 0, 75, 63
1, 340430, Note_on_c, 0, 84, 0
1, 340430, Note_on_c, 0, 87, 0
1, 340430, Note_on_c, 0, 75, 0
1, 340430, Note_on_c, 0, 62, 0
1, 340430, Note_on_c, 0, 44, 0
1, 340440, Note_on_c, 0, 86, 63
1, 340440, Note_on_c, 0, 89, 63
1, 340440, Note_on_c, 0, 77, 63
1, 340440, Note_on_c, 0, 60, 63
1, 340440, Note_on_c, 0, 56, 63
1, 340670, Note_on_c, 0, 60, 0
1, 340670, Note_on_c, 0, 56, 0
1, 340680, Note_on_c, 0, 58, 63
1, 340790, Note_on_c, 0, 86, 0
1, 340790, Note_on_c, 0, 58, 0
1, 340800, Note_on_c, 0, 82, 75
1, 340800, Note_on_c, 0, 63, 75
1, 340800, Note_on_c, 0, 55, 75
1, 341030, Note_on_c, 0, 82, 0
1, 341030, Note_on_c, 0, 89, 0
1, 341030, Note_on_c, 0, 77, 0
1, 341030, Note_on_c, 0, 55, 0
1, 341040, Note_on_c, 0, 82, 75
1, 341040, Note_on_c, 0, 89, 75
1, 341040, Note_on_c, 0, 77, 75
1, 341150, Note_on_c, 0, 82, 0
1, 341150, Note_on_c, 0, 89, 0
1, 341150, Note_on_c, 0, 77, 0
1, 341150, Note_on_c, 0, 63, 0
1, 341160, Note_on_c, 0, 82, 75
1, 341160, Note_on_c, 0, 87, 75
1, 341160, Note_on_c, 0, 75, 75
1, 341160, Note_on_c, 0, 63, 75
1, 341160, Note_on_c, 0, 55, 75
1, 341390, Note_on_c, 0, 63, 0
1, 341390, Note_on_c, 0, 55, 0
1, 341400, Note_on_c, 0, 65, 75
1, 341510, Note_on_c, 0, 82, 0
1, 341510, Note_on_c, 0, 65, 0
1, 341520, Note_on_c, 0, 79, 75
1, 341520, Note_on_c, 0, 67, 75
1, 341520, Note_on_c, 0, 51, 75
1, 341750, Note_on_c, 0, 79, 0
1, 341750, Note_on_c, 0, 87, 0
1, 341750, Note_on_c, 0, 75, 0
1, 341750, Note_on_c, 0, 51, 0
1, 341760, Note_on_c, 0, 79, 75
1, 341760, Note_on_c, 0, 86, 75
1, 341760, Note_on_c, 0, 74, 75
1, 341870, Note_on_c, 0, 79, 0
1, 341870, Note_on_c, 0, 86, 0
1, 341870, Note_on_c, 0, 74, 0
1, 341870, Note_on_c, 0, 67, 0
1, 341880, Note_on_c, 0, 79, 75
1, 341880, Note_on_c, 0, 84, 75
1, 341880, Note_on_c, 0, 72, 75
1, 341880, Note_on_c, 0, 67, 75
1, 341880, Note_on_c, 0, 52, 75
1, 342110, Note_on_c, 0, 52, 0
1, 342230, Note_on_c, 0, 79, 0
1, 342230, Note_on_c, 0, 67, 0
1, 342240, Note_on_c, 0, 75, 75
1, 342240, Note_on_c, 0, 53, 75
1, 342240, Note_on_c, 0, 53, 75
1, 342470, Note_on_c, 0, 75, 0
1, 342470, Note_on_c, 0, 84, 0
1, 342470, Note_on_c, 0, 72, 0
1, 342470, Note_on_c, 0, 53, 0
1, 342480, Note_on_c, 0, 74, 75
1, 342480, Note_on_c, 0, 82, 75
1, 342480, Note_on_c, 0, 70, 75
1, 342590, Note_on_c, 0, 74, 0
1, 342590, Note_on_c, 0, 82, 0
1, 342590, Note_on_c, 0, 70, 0
1, 342590, Note_on_c, 0, 53, 0
1, 342600, Note_on_c, 0, 74, 75
1, 342600, Note_on_c, 0, 82, 75
1, 342600, Note_on_c, 0, 70, 75
1, 342600, Note_on_c, 0, 53, 75
1, 342600, Note_on_c, 0, 53, 75
1, 342830, Note_on_c, 0, 53, 0
1, 342950, Note_on_c, 0, 53, 0
1, 342960, Note_on_c, 0, 65, 75
1, 342960, Note_on_c, 0, 53, 75
1, 343190, Note_on_c, 0, 74, 0
1, 343190, Note_on_c, 0, 82, 0
1, 343190, Note_on_c, 0, 70, 0
1, 343190, Note_on_c, 0, 53, 0
1, 343200, Note_on_c, 0, 77, 75
1, 343200, Note_on_c, 0, 84, 75
1, 343200, Note_on_c, 0, 72, 75
1, 343310, Note_on_c, 0, 77, 0
1, 343310, Note_on_c, 0, 84, 0
1, 343310, Note_on_c, 0, 72, 0
1, 343320, Note_on_c, 0, 82, 75
1, 343320, Note_on_c, 0, 86, 75
1, 343320, Note_on_c, 0, 74, 75
1, 343320, Note_on_c, 0, 41, 75
1, 343550, Note_on_c, 0, 41, 0
1, 343680, Note_on_c, 0, 53, 75
1, 343910, Note_on_c, 0, 82, 0
1, 343910, Note_on_c, 0, 86, 0
1, 343910, Note_on_c, 0, 74, 0
1, 343910, Note_on_c, 0, 53, 0
1, 343920, Note_on_c, 0, 77, 75
1, 343920, Note_on_c, 0, 84, 75
1, 343920, Note_on_c, 0, 72, 75
1, 344030, Note_on_c, 0, 65, 0
1, 344030, Note_on_c, 0, 77, 0
1, 344030, Note_on_c, 0, 84, 0
1, 344030, Note_on_c, 0, 72, 0
1, 344040, Note_on_c, 0, 77, 75
1, 344040, Note_on_c, 0, 84, 75
1, 344040, Note_on_c, 0, 72, 75
1, 344040, Note_on_c, 0, 63, 75
1, 344040, Note_on_c, 0, 53, 75
1, 344270, Note_on_c, 0, 77, 0
1, 344270, Note_on_c, 0, 84, 0
1, 344270, Note_on_c, 0, 72, 0
1, 344270, Note_on_c, 0, 63, 0
1, 344270, Note_on_c, 0, 53, 0
1, 344280, Note_on_c, 0, 74, 75
1, 344280, Note_on_c, 0, 82, 75
1, 344280, Note_on_c, 0, 70, 75
1, 344280, Note_on_c, 0, 62, 75
1, 344390, Note_on_c, 0, 74, 0
1, 344390, Note_on_c, 0, 82, 0
1, 344390, Note_on_c, 0, 70, 0
1, 344390, Note_on_c, 0, 62, 0
1, 344400, Note_on_c, 0, 74, 75
1, 344400, Note_on_c, 0, 82, 75
1, 344400, Note_on_c, 0, 70, 75
1, 344400, Note_on_c, 0, 62, 75
1, 344400, Note_on_c, 0, 58, 75
1, 344630, Note_on_c, 0, 74, 0
1, 344630, Note_on_c, 0, 82, 0
1, 344630, Note_on_c, 0, 70, 0
1, 344630, Note_on_c, 0, 62, 0
1, 344630, Note_on_c, 0, 58, 0
1, 344640, Note_on_c, 0, 72, 75
1, 344640, Note_on_c, 0, 65, 75
1, 344640, Note_on_c, 0, 60, 75
1, 344640, Note_on_c, 0, 57, 75
1, 344750, Note_on_c, 0, 72, 0
1, 344750, Note_on_c, 0, 65, 0
1, 344750, Note_on_c, 0, 60, 0
1, 344750, Note_on_c, 0, 57, 0
1, 344760, Note_on_c, 0, 72, 75
1, 344760, Note_on_c, 0, 65, 75
1, 344760, Note_on_c, 0, 57, 75
1, 344760, Note_on_c, 0, 60, 75
1, 344760, Note_on_c, 0, 53, 75
1, 344990, Note_on_c, 0, 72, 0
1, 344990, Note_on_c, 0, 65, 0
1, 344990, Note_on_c, 0, 57, 0
1, 344990, Note_on_c, 0, 60, 0
1, 344990, Note_on_c, 0, 53, 0
1, 345000, Note_on_c, 0, 70, 75
1, 345000, Note_on_c, 0, 62, 75
1, 345000, Note_on_c, 0, 58, 75
1, 345110, Note_on_c, 0, 70, 0
1, 345110, Note_on_c, 0, 62, 0
1, 345110, Note_on_c, 0, 58, 0
1, 345120, Note_on_c, 0, 72, 75
1, 345120, Note_on_c, 0, 65, 75
1, 345120, Note_on_c, 0, 57, 75
1, 345120, Note_on_c, 0, 60, 75
1, 345120, Note_on_c, 0, 53, 75
1, 345350, Note_on_c, 0, 72, 0
1, 345350, Note_on_c, 0, 65, 0
1, 345350, Note_on_c, 0, 57, 0
1, 345350, Note_on_c, 0, 60, 0
1, 345350, Note_on_c, 0, 53, 0
1, 345360, Note_on_c, 0, 77, 75
1, 345360, Note_on_c, 0, 84, 75
1, 345360, Note_on_c, 0, 72, 75
1, 345470, Note_on_c, 0, 77, 0
1, 345470, Note_on_c, 0, 84, 0
1, 345470, Note_on_c, 0, 72, 0
1, 345480, Note_on_c, 0, 77, 75
1, 345480, Note_on_c, 0, 84, 75
1, 345480, Note_on_c, 0, 72, 75
1, 345480, Note_on_c, 0, 53, 75
1, 345480, Note_on_c, 0, 41, 75
1, 345710, Note_on_c, 0, 53, 0
1, 345710, Note_on_c, 0, 41, 0
1, 345840, Note_on_c, 0, 60, 75
1, 345840, Note_on_c, 0, 53, 75
1, 346070, Note_on_c, 0, 53, 0
1, 346190, Note_on_c, 0, 77, 0
1, 346190, Note_on_c, 0, 84, 0
1, 346190, Note_on_c, 0, 72, 0
1, 346190, Note_on_c, 0, 60, 0
1, 346200, Note_on_c, 0, 82, 75
1, 346200, Note_on_c, 0, 86, 75
1, 346200, Note_on_c, 0, 74, 75
1, 346200, Note_on_c, 0, 62, 75
1, 346200, Note_on_c, 0, 46, 75
1, 346430, Note_on_c, 0, 82, 0
1, 346430, Note_on_c, 0, 86, 0
1, 346430, Note_on_c, 0, 74, 0
1, 346430, Note_on_c, 0, 62, 0
1, 346430, Note_on_c, 0, 46, 0
1, 346440, Note_on_c, 0, 77, 75
1, 346440, Note_on_c, 0, 82, 75
1, 346440, Note_on_c, 0, 74, 75
1, 346440, Note_on_c, 0, 58, 75
1, 346550, Note_on_c, 0, 77, 0
1, 346550, Note_on_c, 0, 82, 0
1, 346550, Note_on_c, 0, 74, 0
1, 346550, Note_on_c, 0, 58, 0
1, 346560, Note_on_c, 0, 81, 75
1, 346560, Note_on_c, 0, 84, 75
1, 346560, Note_on_c, 0, 72, 75
1, 346560, Note_on_c, 0, 60, 75
1, 346560, Note_on_c, 0, 53, 75
1, 346790, Note_on_c, 0, 81, 0
1, 346790, Note_on_c, 0, 84, 0
1, 346790, Note_on_c, 0, 72, 0
1, 346790, Note_on_c, 0, 60, 0
1, 346790, Note_on_c, 0, 53, 0
1, 346800, Note_on_c, 0, 81, 75
1, 346800, Note_on_c, 0, 84, 75
1, 346800, Note_on_c, 0, 72, 75
1, 346910, Note_on_c, 0, 81, 0
1, 346910, Note_on_c, 0, 84, 0
1, 346910, Note_on_c, 0, 72, 0
1, 346920, Note_on_c, 0, 81, 75
1, 346920, Note_on_c, 0, 84, 75
1, 346920, Note_on_c, 0, 72, 75
1, 346920, Note_on_c, 0, 53, 75
1, 346920, Note_on_c, 0, 41, 75
1, 347150, Note_on_c, 0, 53, 0
1, 347150, Note_on_c, 0, 41, 0
1, 347270, Note_on_c, 0, 72, 0
1, 347280, Note_on_c, 0, 65, 75
1, 347280, Note_on_c, 0, 53, 75
1, 347390, Note_on_c, 0, 81, 0
1, 347390, Note_on_c, 0, 84, 0
1, 347400, Note_on_c, 0, 86, 75
1, 347400, Note_on_c, 0, 82, 75
1, 347510, Note_on_c, 0, 86, 0
1, 347510, Note_on_c, 0, 82, 0
1, 347510, Note_on_c, 0, 53, 0
1, 347520, Note_on_c, 0, 84, 75
1, 347520, Note_on_c, 0, 87, 75
1, 347520, Note_on_c, 0, 81, 75
1, 347630, Note_on_c, 0, 84, 0
1, 347630, Note_on_c, 0, 87, 0
1, 347630, Note_on_c, 0, 81, 0
1, 347640, Note_on_c, 0, 86, 75
1, 347640, Note_on_c, 0, 82, 75
1, 347640, Note_on_c, 0, 58, 75
1, 347870, Note_on_c, 0, 86, 0
1, 347870, Note_on_c, 0, 82, 0
1, 347870, Note_on_c, 0, 58, 0
1, 347880, Note_on_c, 0, 82, 75
1, 347880, Note_on_c, 0, 74, 75
1, 347990, Note_on_c, 0, 82, 0
1, 347990, Note_on_c, 0, 74, 0
1, 347990, Note_on_c, 0, 65, 0
1, 348000, Note_on_c, 0, 84, 90
1, 348000, Note_on_c, 0, 81, 90
1, 348000, Note_on_c, 0, 57, 90
1, 348000, Note_on_c, 0, 60, 90
1, 348000, Note_on_c, 0, 65, 90
1, 348000, Note_on_c, 0, 53, 90
1, 348110, Note_on_c, 0, 84, 0
1, 348110, Note_on_c, 0, 81, 0
1, 348120, Note_on_c, 0, 86, 90
1, 348120, Note_on_c, 0, 82, 90
1, 348230, Note_on_c, 0, 86, 0
1, 348230, Note_on_c, 0, 82, 0
1, 348230, Note_on_c, 0, 57, 0
1, 348230, Note_on_c, 0, 60, 0
1, 348230, Note_on_c, 0, 65, 0
1, 348230, Note_on_c, 0, 53, 0
1, 348240, Note_on_c, 0, 84, 90
1, 348240, Note_on_c, 0, 87, 90
1, 348240, Note_on_c, 0, 81, 90
1, 348350, Note_on_c, 0, 84, 0
1, 348350, Note_on_c, 0, 87, 0
1, 348350, Note_on_c, 0, 81, 0
1, 348360, Note_on_c, 0, 86, 90
1, 348360, Note_on_c, 0, 82, 90
1, 348360, Note_on_c, 0, 62, 90
1, 348360, Note_on_c, 0, 65, 90
1, 348360, Note_on_c, 0, 58, 90
1, 348590, Note_on_c, 0, 86, 0
1, 348590, Note_on_c, 0, 82, 0
1, 348590, Note_on_c, 0, 62, 0
1, 348590, Note_on_c, 0, 65, 0
1, 348590, Note_on_c, 0, 58, 0
1, 348600, Note_on_c, 0, 70, 90
1, 348710, Note_on_c, 0, 70, 0
1, 348720, Note_on_c, 0, 72, 90
1, 348720, Note_on_c, 0, 69, 90
1, 348720, Note_on_c, 0, 57, 90
1, 348720, Note_on_c, 0, 60, 90
1, 348720, Note_on_c, 0, 65, 90
1, 348720, Note_on_c, 0, 53, 90
1, 348830, Note_on_c, 0, 72, 0
1, 348830, Note_on_c, 0, 69, 0
1, 348840, Note_on_c, 0, 74, 90
1, 348840, Note_on_c, 0, 70, 90
1, 348950, Note_on_c, 0, 74, 0
1, 348950, Note_on_c, 0, 70, 0
1, 348950, Note_on_c, 0, 57, 0
1, 348950, Note_on_c, 0, 60, 0
1, 348950, Note_on_c, 0, 65, 0
1, 348950, Note_on_c, 0, 53, 0
1, 348960, Note_on_c, 0, 72, 90
1, 348960, Note_on_c, 0, 75, 90
1, 348960, Note_on_c, 0, 69, 90
1, 349070, Note_on_c, 0, 72, 0
1, 349070, Note_on_c, 0, 75, 0
1, 349070, Note_on_c, 0, 69, 0
1, 349080, Note_on_c, 0, 74, 90
1, 349080, Note_on_c, 0, 70, 90
1, 349080, Note_on_c, 0, 62, 90
1, 349080, Note_on_c, 0, 58, 90
1, 349080, Note_on_c, 0, 53, 90
1, 349310, Note_on_c, 0, 74, 0
1, 349310, Note_on_c, 0, 70, 0
1, 349310, Note_on_c, 0, 62, 0
1, 349310, Note_on_c, 0, 58, 0
1, 349310, Note_on_c, 0, 53, 0
1, 349320, Note_on_c, 0, 72, 90
1, 349320, Note_on_c, 0, 69, 90
1, 349320, Note_on_c, 0, 60, 90
1, 349320, Note_on_c, 0, 57, 90
1, 349430, Note_on_c, 0, 60, 0
1, 349430, Note_on_c, 0, 57, 0
1, 349440, Note_on_c, 0, 58, 90
1, 349440, Note_on_c, 0, 55, 90
1, 349440, Note_on_c, 0, 48, 90
1, 349550, Note_on_c, 0, 72, 0
1, 349550, Note_on_c, 0, 69, 0
1, 349560, Note_on_c, 0, 70, 90
1, 349560, Note_on_c, 0, 67, 90
1, 349670, Note_on_c, 0, 70, 0
1, 349670, Note_on_c, 0, 67, 0
1, 349670, Note_on_c, 0, 58, 0
1, 349670, Note_on_c, 0, 55, 0
1, 349670, Note_on_c, 0, 48, 0
1, 349680, Note_on_c, 0, 69, 90
1, 349680, Note_on_c, 0, 65, 90
1, 349680, Note_on_c, 0, 57, 90
1, 349680, Note_on_c, 0, 53, 90
1, 349790, Note_on_c, 0, 69, 0
1, 349790, Note_on_c, 0, 65, 0
1, 349790, Note_on_c, 0, 57, 0
1, 349790, Note_on_c, 0, 53, 0
1, 349800, Note_on_c, 0, 70, 90
1, 349800, Note_on_c, 0, 67, 90
1, 349800, Note_on_c, 0, 58, 90
1, 349800, Note_on_c, 0, 55, 90
1, 349800, Note_on_c, 0, 48, 90
1, 350030, Note_on_c, 0, 70, 0
1, 350030, Note_on_c, 0, 67, 0
1, 350030, Note_on_c, 0, 58, 0
1, 350030, Note_on_c, 0, 55, 0
1, 350030, Note_on_c, 0, 48, 0
1, 350040, Note_on_c, 0, 72, 90
1, 350040, Note_on_c, 0, 64, 90
1, 350040, Note_on_c, 0, 60, 90
1, 350150, Note_on_c, 0, 72, 0
1, 350150, Note_on_c, 0, 64, 0
1, 350150, Note_on_c, 0, 60, 0
1, 350160, Note_on_c, 0, 77, 90
1, 350160, Note_on_c, 0, 65, 90
1, 350160, Note_on_c, 0, 63, 90
1, 350160, Note_on_c, 0, 51, 90
1, 350270, Note_on_c, 0, 77, 0
1, 350270, Note_on_c, 0, 65, 0
1, 350280, Note_on_c, 0, 79, 90
1, 350280, Note_on_c, 0, 67, 90
1, 350390, Note_on_c, 0, 79, 0
1, 350390, Note_on_c, 0, 67, 0
1, 350400, Note_on_c, 0, 81, 90
1, 350400, Note_on_c, 0, 69, 90
1, 350510, Note_on_c, 0, 81, 0
1, 350510, Note_on_c, 0, 69, 0
1, 350510, Note_on_c, 0, 63, 0
1, 350510, Note_on_c, 0, 51, 0
1, 350520, Note_on_c, 0, 82, 90
1, 350520, Note_on_c, 0, 70, 90
1, 350520, Note_on_c, 0, 62, 90
1, 350520, Note_on_c, 0, 50, 90
1, 350630, Note_on_c, 0, 82, 0
1, 350630, Note_on_c, 0, 70, 0
1, 350640, Note_on_c, 0, 84, 90
1, 350640, Note_on_c, 0, 72, 90
1, 350750, Note_on_c, 0, 84, 0
1, 350750, Note_on_c, 0, 72, 0
1, 350750, Note_on_c, 0, 62, 0
1, 350750, Note_on_c, 0, 50, 0
1, 350760, Note_on_c, 0, 86, 90
1, 350760, Note_on_c, 0, 74, 90
1, 350760, Note_on_c, 0, 60, 90
1, 350760, Note_on_c, 0, 48, 90
1, 350870, Note_on_c, 0, 86, 0
1, 350870, Note_on_c, 0, 74, 0
1, 350870, Note_on_c, 0, 60, 0
1, 350870, Note_on_c, 0, 48, 0
1, 350880, Note_on_c, 0, 86, 90
1, 350880, Note_on_c, 0, 74, 90
1, 350880, Note_on_c, 0, 58, 90
1, 350880, Note_on_c, 0, 46, 90
1, 351110, Note_on_c, 0, 86, 0
1, 351110, Note_on_c, 0, 74, 0
1, 351110, Note_on_c, 0, 58, 0
1, 351110, Note_on_c, 0, 46, 0
1, 351120, Note_on_c, 0, 82, 90
1, 351120, Note_on_c, 0, 86, 90
1, 351120, Note_on_c, 0, 74, 90
1, 351120, Note_on_c, 0, 58, 90
1, 351230, Note_on_c, 0, 82, 0
1, 351230, Note_on_c, 0, 86, 0
1, 351230, Note_on_c, 0, 74, 0
1, 351230, Note_on_c, 0, 58, 0
1, 351240, Note_on_c, 0, 82, 90
1, 351240, Note_on_c, 0, 86, 90
1, 351240, Note_on_c, 0, 74, 90
1, 351240, Note_on_c, 0, 60, 90
1, 351470, Note_on_c, 0, 60, 0
1, 351480, Note_on_c, 0, 58, 90
1, 351590, Note_on_c, 0, 58, 0
1, 351600, Note_on_c, 0, 60, 90
1, 351600, Note_on_c, 0, 44, 90
1, 351830, Note_on_c, 0, 82, 0
1, 351830, Note_on_c, 0, 86, 0
1, 351830, Note_on_c, 0, 74, 0
1, 351830, Note_on_c, 0, 60, 0
1, 351830, Note_on_c, 0, 44, 0
1, 351840, Note_on_c, 0, 84, 90
1, 351840, Note_on_c, 0, 87, 90
1, 351840, Note_on_c, 0, 75, 90
1, 351840, Note_on_c, 0, 58, 90
1, 351950, Note_on_c, 0, 84, 0
1, 351950, Note_on_c, 0, 87, 0
1, 351950, Note_on_c, 0, 75, 0
1, 351950, Note_on_c, 0, 58, 0
1, 351960, Note_on_c, 0, 86, 90
1, 351960, Note_on_c, 0, 89, 90
1, 351960, Note_on_c, 0, 77, 90
1, 351960, Note_on_c, 0, 62, 90
1, 351960, Note_on_c, 0, 56, 90
1, 352190, Note_on_c, 0, 62, 0
1, 352190, Note_on_c, 0, 56, 0
1, 352200, Note_on_c, 0, 58, 90
1, 352310, Note_on_c, 0, 86, 0
1, 352310, Note_on_c, 0, 58, 0
1, 352320, Note_on_c, 0, 82, 90
1, 352320, Note_on_c, 0, 63, 90
1, 352320, Note_on_c, 0, 55, 90
1, 352550, Note_on_c, 0, 82, 0
1, 352550, Note_on_c, 0, 89, 0
1, 352550, Note_on_c, 0, 77, 0
1, 352550, Note_on_c, 0, 63, 0
1, 352550, Note_on_c, 0, 55, 0
1, 352560, Note_on_c, 0, 89, 90
1, 352560, Note_on_c, 0, 77, 90
1, 352560, Note_on_c, 0, 58, 90
1, 352670, Note_on_c, 0, 89, 0
1, 352670, Note_on_c, 0, 77, 0
1, 352670, Note_on_c, 0, 58, 0
1, 352680, Note_on_c, 0, 87, 90
1, 352680, Note_on_c, 0, 75, 90
1, 352680, Note_on_c, 0, 60, 90
1, 352680, Note_on_c, 0, 55, 90
1, 352910, Note_on_c, 0, 60, 0
1, 352910, Note_on_c, 0, 55, 0
1, 352920, Note_on_c, 0, 62, 90
1, 352920, Note_on_c, 0, 53, 90
1, 353030, Note_on_c, 0, 62, 0
1, 353030, Note_on_c, 0, 53, 0
1, 353040, Note_on_c, 0, 79, 90
1, 353040, Note_on_c, 0, 63, 90
1, 353040, Note_on_c, 0, 51, 90
1, 353270, Note_on_c, 0, 87, 0
1, 353270, Note_on_c, 0, 75, 0
1, 353270, Note_on_c, 0, 79, 0
1, 353270, Note_on_c, 0, 63, 0
1, 353270, Note_on_c, 0, 51, 0
1, 353280, Note_on_c, 0, 79, 90
1, 353280, Note_on_c, 0, 86, 90
1, 353280, Note_on_c, 0, 74, 90
1, 353280, Note_on_c, 0, 65, 90
1, 353390, Note_on_c, 0, 79, 0
1, 353390, Note_on_c, 0, 86, 0
1, 353390, Note_on_c, 0, 74, 0
1, 353390, Note_on_c, 0, 65, 0
1, 353400, Note_on_c, 0, 79, 90
1, 353400, Note_on_c, 0, 84, 90
1, 353400, Note_on_c, 0, 72, 90
1, 353400, Note_on_c, 0, 67, 90
1, 353400, Note_on_c, 0, 52, 90
1, 353630, Note_on_c, 0, 67, 0
1, 353630, Note_on_c, 0, 52, 0
1, 353750, Note_on_c, 0, 79, 0
1, 353760, Note_on_c, 0, 75, 90
1, 353760, Note_on_c, 0, 53, 90
1, 353760, Note_on_c, 0, 41, 90
1, 353990, Note_on_c, 0, 75, 0
1, 353990, Note_on_c, 0, 84, 0
1, 353990, Note_on_c, 0, 72, 0
1, 353990, Note_on_c, 0, 41, 0
1, 354000, Note_on_c, 0, 74, 90
1, 354000, Note_on_c, 0, 82, 90
1, 354000, Note_on_c, 0, 70, 90
1, 354110, Note_on_c, 0, 74, 0
1, 354110, Note_on_c, 0, 82, 0
1, 354110, Note_on_c, 0, 70, 0
1, 354110, Note_on_c, 0, 53, 0
1, 354120, Note_on_c, 0, 74, 90
1, 354120, Note_on_c, 0, 82, 90
1, 354120, Note_on_c, 0, 70, 90
1, 354120, Note_on_c, 0, 55, 90
1, 354350, Note_on_c, 0, 55, 0
1, 354360, Note_on_c, 0, 57, 90
1, 354470, Note_on_c, 0, 57, 0
1, 354480, Note_on_c, 0, 58, 90
1, 354480, Note_on_c, 0, 53, 90
1, 354710, Note_on_c, 0, 74, 0
1, 354710, Note_on_c, 0, 82, 0
1, 354710, Note_on_c, 0, 70, 0
1, 354710, Note_on_c, 0, 58, 0
1, 354710, Note_on_c, 0, 53, 0
1, 354720, Note_on_c, 0, 77, 90
1, 354720, Note_on_c, 0, 84, 90
1, 354720, Note_on_c, 0, 72, 90
1, 354720, Note_on_c, 0, 60, 90
1, 354830, Note_on_c, 0, 77, 0
1, 354830, Note_on_c, 0, 84, 0
1, 354830, Note_on_c, 0, 72, 0
1, 354830, Note_on_c, 0, 60, 0
1, 354840, Note_on_c, 0, 82, 90
1, 354840, Note_on_c, 0, 86, 90
1, 354840, Note_on_c, 0, 74, 90
1, 354840, Note_on_c, 0, 62, 90
1, 354840, Note_on_c, 0, 53, 90
1, 355070, Note_on_c, 0, 62, 0
1, 355070, Note_on_c, 0, 53, 0
1, 355080, Note_on_c, 0, 63, 90
1, 355190, Note_on_c, 0, 63, 0
1, 355200, Note_on_c, 0, 53, 90
1, 355200, Note_on_c, 0, 53, 90
1, 355430, Note_on_c, 0, 82, 0
1, 355430, Note_on_c, 0, 86, 0
1, 355430, Note_on_c, 0, 74, 0
1, 355430, Note_on_c, 0, 53, 0
1, 355440, Note_on_c, 0, 77, 90
1, 355440, Note_on_c, 0, 84, 90
1, 355440, Note_on_c, 0, 72, 90
1, 355550, Note_on_c, 0, 77, 0
1, 355550, Note_on_c, 0, 84, 0
1, 355550, Note_on_c, 0, 72, 0
1, 355550, Note_on_c, 0, 53, 0
1, 355560, Note_on_c, 0, 77, 90
1, 355560, Note_on_c, 0, 84, 90
1, 355560, Note_on_c, 0, 72, 90
1, 355560, Note_on_c, 0, 53, 90
1, 355560, Note_on_c, 0, 53, 90
1, 355790, Note_on_c, 0, 77, 0
1, 355790, Note_on_c, 0, 84, 0
1, 355790, Note_on_c, 0, 72, 0
1, 355790, Note_on_c, 0, 53, 0
1, 355800, Note_on_c, 0, 74, 90
1, 355800, Note_on_c, 0, 82, 90
1, 355800, Note_on_c, 0, 70, 90
1, 355910, Note_on_c, 0, 74, 0
1, 355910, Note_on_c, 0, 82, 0
1, 355910, Note_on_c, 0, 70, 0
1, 355910, Note_on_c, 0, 53, 0
1, 355920, Note_on_c, 0, 74, 90
1, 355920, Note_on_c, 0, 82, 90
1, 355920, Note_on_c, 0, 70, 90
1, 355920, Note_on_c, 0, 62, 90
1, 355920, Note_on_c, 0, 65, 90
1, 355920, Note_on_c, 0, 58, 90
1, 356150, Note_on_c, 0, 74, 0
1, 356150, Note_on_c, 0, 82, 0
1, 356150, Note_on_c, 0, 70, 0
1, 356150, Note_on_c, 0, 62, 0
1, 356150, Note_on_c, 0, 65, 0
1, 356150, Note_on_c, 0, 58, 0
1, 356160, Note_on_c, 0, 69, 90
1, 356160, Note_on_c, 0, 72, 90
1, 356160, Note_on_c, 0, 77, 90
1, 356160, Note_on_c, 0, 65, 90
1, 356160, Note_on_c, 0, 60, 90
1, 356160, Note_on_c, 0, 63, 90
1, 356160, Note_on_c, 0, 53, 90
1, 356270, Note_on_c, 0, 69, 0
1, 356270, Note_on_c, 0, 72, 0
1, 356270, Note_on_c, 0, 77, 0
1, 356270, Note_on_c, 0, 65, 0
1, 356270, Note_on_c, 0, 60, 0
1, 356270, Note_on_c, 0, 63, 0
1, 356270, Note_on_c, 0, 53, 0
1, 356280, Note_on_c, 0, 77, 90
1, 356280, Note_on_c, 0, 65, 90
1, 356280, Note_on_c, 0, 72, 90
1, 356280, Note_on_c, 0, 69, 90
1, 356280, Note_on_c, 0, 60, 90
1, 356280, Note_on_c, 0, 63, 90
1, 356280, Note_on_c, 0, 53, 90
1, 356510, Note_on_c, 0, 72, 0
1, 356510, Note_on_c, 0, 69, 0
1, 356510, Note_on_c, 0, 60, 0
1, 356510, Note_on_c, 0, 63, 0
1, 356510, Note_on_c, 0, 53, 0
1, 356520, Note_on_c, 0, 70, 90
1, 356520, Note_on_c, 0, 65, 90
1, 356520, Note_on_c, 0, 62, 90
1, 356520, Note_on_c, 0, 58, 90
1, 356630, Note_on_c, 0, 70, 0
1, 356630, Note_on_c, 0, 65, 0
1, 356630, Note_on_c, 0, 62, 0
1, 356630, Note_on_c, 0, 58, 0
1, 356640, Note_on_c, 0, 70, 110
1, 356640, Note_on_c, 0, 70, 110
1, 356640, Note_on_c, 0, 65, 110
1, 356640, Note_on_c, 0, 62, 110
1, 356640, Note_on_c, 0, 58, 110
1, 356755, Control_c, 0, 64, 127
1, 356870, Note_on_c, 0, 77, 0
1, 356870, Note_on_c, 0, 65, 0
1, 356870, Note_on_c, 0, 70, 0
1, 356870, Note_on_c, 0, 70, 0
1, 356870, Note_on_c, 0, 65, 0
1, 356870, Note_on_c, 0, 62, 0
1, 356870, Note_on_c, 0, 58, 0
1, 356880, Note_on_c, 0, 72, 110
1, 356880, Note_on_c, 0, 75, 110
1, 356880, Note_on_c, 0, 63, 110
1, 356990, Note_on_c, 0, 72, 0
1, 356990, Note_on_c, 0, 75, 0
1, 356990, Note_on_c, 0, 63, 0
1, 357000, Note_on_c, 0, 70, 110
1, 357000, Note_on_c, 0, 74, 110
1, 357000, Note_on_c, 0, 62, 110
1, 357000, Note_on_c, 0, 53, 110
1, 357000, Note_on_c, 0, 58, 110
1, 357000, Note_on_c, 0, 46, 110
1, 357230, Note_on_c, 0, 53, 0
1, 357230, Note_on_c, 0, 58, 0
1, 357230, Note_on_c, 0, 46, 0
1, 357360, Note_on_c, 0, 46, 110
1, 357360, Note_on_c, 0, 34, 110
1, 357517, Control_c, 0, 64, 0
1, 357590, Note_on_c, 0, 70, 0
1, 357590, Note_on_c, 0, 74, 0
1, 357590, Note_on_c, 0, 62, 0
1, 357590, Note_on_c, 0, 46, 0
1, 357590, Note_on_c, 0, 34, 0
1, 357600, Note_on_c, 0, 74, 110
1, 357600, Note_on_c, 0, 82, 110
1, 357600, Note_on_c, 0, 70, 110
1, 357710, Note_on_c, 0, 74, 0
1, 357710, Note_on_c, 0, 82, 0
1, 357710, Note_on_c, 0, 70, 0
1, 357720, Note_on_c, 0, 74, 110
1, 357720, Note_on_c, 0, 82, 110
1, 357720, Note_on_c, 0, 70, 110
1, 357720, Note_on_c, 0, 58, 110
1, 357720, Note_on_c, 0, 62, 110
1, 357720, Note_on_c, 0, 53, 110
1, 357815, Control_c, 0, 64, 127
1, 357950, Note_on_c, 0, 58, 0
1, 357950, Note_on_c, 0, 62, 0
1, 357950, Note_on_c, 0, 53, 0
1, 358070, Note_on_c, 0, 74, 0
1, 358080, Note_on_c, 0, 79, 110
1, 358080, Note_on_c, 0, 51, 110
1, 358080, Note_on_c, 0, 39, 110
1, 358239, Control_c, 0, 64, 0
1, 358310, Note_on_c, 0, 79, 0
1, 358310, Note_on_c, 0, 82, 0
1, 358310, Note_on_c, 0, 70, 0
1, 358310, Note_on_c, 0, 51, 0
1, 358310, Note_on_c, 0, 39, 0
1, 358318, Control_c, 0, 64, 127
1, 358320, Note_on_c, 0, 77, 110
1, 358320, Note_on_c, 0, 80, 110
1, 358320, Note_on_c, 0, 68, 110
1, 358430, Note_on_c, 0, 77, 0
1, 358430, Note_on_c, 0, 80, 0
1, 358430, Note_on_c, 0, 68, 0
1, 358440, Note_on_c, 0, 75, 110
1, 358440, Note_on_c, 0, 79, 110
1, 358440, Note_on_c, 0, 67, 110
1, 358440, Note_on_c, 0, 58, 110
1, 358440, Note_on_c, 0, 63, 110
1, 358440, Note_on_c, 0, 51, 110
1, 358670, Note_on_c, 0, 58, 0
1, 358670, Note_on_c, 0, 63, 0
1, 358670, Note_on_c, 0, 51, 0
1, 358707, Control_c, 0, 64, 0
1, 358744, Control_c, 0, 64, 127
1, 358790, Note_on_c, 0, 67, 0
1, 358800, Note_on_c, 0, 67, 110
1, 358800, Note_on_c, 0, 51, 110
1, 359030, Note_on_c, 0, 75, 0
1, 359030, Note_on_c, 0, 79, 0
1, 359030, Note_on_c, 0, 51, 0
1, 359040, Note_on_c, 0, 87, 110
1, 359040, Note_on_c, 0, 75, 110
1, 359076, Control_c, 0, 64, 0
1, 359141, Control_c, 0, 64, 127
1, 359150, Note_on_c, 0, 87, 0
1, 359150, Note_on_c, 0, 75, 0
1, 359160, Note_on_c, 0, 87, 110
1, 359160, Note_on_c, 0, 75, 110
1, 359160, Control_c, 0, 64, 0
1, 359333, Control_c, 0, 64, 127
1, 359390, Note_on_c, 0, 87, 0
1, 359390, Note_on_c, 0, 75, 0
1, 359390, Note_on_c, 0, 67, 0
1, 359400, Note_on_c, 0, 84, 110
1, 359400, Note_on_c, 0, 72, 110
1, 359400, Note_on_c, 0, 63, 110
1, 359510, Note_on_c, 0, 84, 0
1, 359510, Note_on_c, 0, 72, 0
1, 359510, Note_on_c, 0, 63, 0
1, 359520, Note_on_c, 0, 84, 110
1, 359520, Note_on_c, 0, 72, 110
1, 359520, Note_on_c, 0, 63, 110
1, 359520, Note_on_c, 0, 41, 110
1, 359630, Note_on_c, 0, 84, 0
1, 359630, Note_on_c, 0, 63, 0
1, 359640, Note_on_c, 0, 82, 110
1, 359640, Note_on_c, 0, 62, 110
1, 359740, Control_c, 0, 64, 0
1, 359750, Note_on_c, 0, 82, 0
1, 359750, Note_on_c, 0, 72, 0
1, 359750, Note_on_c, 0, 62, 0
1, 359750, Note_on_c, 0, 41, 0
1, 359760, Note_on_c, 0, 81, 110
1, 359760, Note_on_c, 0, 60, 110
1, 359814, Control_c, 0, 64, 127
1, 359870, Note_on_c, 0, 81, 0
1, 359870, Note_on_c, 0, 60, 0
1, 359880, Note_on_c, 0, 84, 110
1, 359880, Note_on_c, 0, 72, 110
1, 359880, Note_on_c, 0, 63, 110
1, 360110, Note_on_c, 0, 84, 0
1, 360110, Note_on_c, 0, 72, 0
1, 360110, Note_on_c, 0, 63, 0
1, 360120, Note_on_c, 0, 81, 110
1, 360120, Note_on_c, 0, 60, 110
1, 360210, Control_c, 0, 64, 0
1, 360230, Note_on_c, 0, 81, 0
1, 360230, Note_on_c, 0, 60, 0
1, 360240, Note_on_c, 0, 81, 110
1, 360240, Note_on_c, 0, 69, 110
1, 360240, Note_on_c, 0, 60, 110
1, 360240, Note_on_c, 0, 53, 110
1, 360332, Control_c, 0, 64, 127
1, 360350, Note_on_c, 0, 81, 0
1, 360350, Note_on_c, 0, 60, 0
1, 360360, Note_on_c, 0, 79, 110
1, 360360, Note_on_c, 0, 58, 110
1, 360470, Note_on_c, 0, 79, 0
1, 360470, Note_on_c, 0, 69, 0
1, 360470, Note_on_c, 0, 58, 0
1, 360470, Note_on_c, 0, 53, 0
1, 360480, Note_on_c, 0, 77, 110
1, 360480, Note_on_c, 0, 57, 110
1, 360590, Note_on_c, 0, 77, 0
1, 360590, Note_on_c, 0, 57, 0
1, 360600, Note_on_c, 0, 79, 110
1, 360600, Note_on_c, 0, 67, 110
1, 360600, Note_on_c, 0, 58, 110
1, 360830, Note_on_c, 0, 79, 0
1, 360830, Note_on_c, 0, 67, 0
1, 360830, Note_on_c, 0, 58, 0
1, 360840, Note_on_c, 0, 81, 110
1, 360840, Note_on_c, 0, 69, 110
1, 360840, Note_on_c, 0, 60, 110
1, 360854, Control_c, 0, 64, 0
1, 360950, Note_on_c, 0, 81, 0
1, 360950, Note_on_c, 0, 69, 0
1, 360950, Note_on_c, 0, 60, 0
1, 360960, Note_on_c, 0, 82, 110
1, 360960, Note_on_c, 0, 70, 110
1, 360960, Note_on_c, 0, 62, 110
1, 360960, Note_on_c, 0, 58, 110
1, 361070, Note_on_c, 0, 82, 0
1, 361070, Note_on_c, 0, 70, 0
1, 361070, Note_on_c, 0, 62, 0
1, 361080, Note_on_c, 0, 84, 110
1, 361080, Note_on_c, 0, 72, 110
1, 361080, Note_on_c, 0, 63, 110
1, 361190, Note_on_c, 0, 84, 0
1, 361190, Note_on_c, 0, 72, 0
1, 361190, Note_on_c, 0, 63, 0
1, 361190, Note_on_c, 0, 58, 0
1, 361200, Note_on_c, 0, 86, 110
1, 361200, Note_on_c, 0, 74, 110
1, 361200, Note_on_c, 0, 65, 110
1, 361310, Note_on_c, 0, 74, 0
1, 361310, Note_on_c, 0, 65, 0
1, 361320, Note_on_c, 0, 77, 110
1, 361320, Note_on_c, 0, 67, 110
1, 361320, Note_on_c, 0, 53, 110
1, 361430, Note_on_c, 0, 86, 0
1, 361430, Note_on_c, 0, 77, 0
1, 361440, Note_on_c, 0, 84, 110
1, 361440, Note_on_c, 0, 75, 110
1, 361550, Note_on_c, 0, 84, 0
1, 361550, Note_on_c, 0, 75, 0
1, 361550, Note_on_c, 0, 67, 0
1, 361550, Note_on_c, 0, 53, 0
1, 361560, Note_on_c, 0, 81, 110
1, 361560, Note_on_c, 0, 72, 110
1, 361560, Note_on_c, 0, 69, 110
1, 361670, Note_on_c, 0, 81, 0
1, 361670, Note_on_c, 0, 72, 0
1, 361670, Note_on_c, 0, 69, 0
1, 361680, Note_on_c, 0, 82, 110
1, 361680, Note_on_c, 0, 74, 110
1, 361680, Note_on_c, 0, 70, 110
1, 361680, Note_on_c, 0, 58, 110
1, 361790, Note_on_c, 0, 82, 0
1, 361790, Note_on_c, 0, 74, 0
1, 361800, Note_on_c, 0, 84, 110
1, 361800, Note_on_c, 0, 75, 110
1, 361910, Note_on_c, 0, 84, 0
1, 361910, Note_on_c, 0, 75, 0
1, 361910, Note_on_c, 0, 70, 0
1, 361910, Note_on_c, 0, 58, 0
1, 361920, Note_on_c, 0, 86, 110
1, 361920, Note_on_c, 0, 77, 110
1, 361920, Note_on_c, 0, 65, 110
1, 362030, Note_on_c, 0, 65, 0
1, 362040, Note_on_c, 0, 67, 110
1, 362040, Note_on_c, 0, 53, 110
1, 362150, Note_on_c, 0, 86, 0
1, 362150, Note_on_c, 0, 77, 0
1, 362160, Note_on_c, 0, 84, 110
1, 362160, Note_on_c, 0, 75, 110
1, 362270, Note_on_c, 0, 84, 0
1, 362270, Note_on_c, 0, 75, 0
1, 362270, Note_on_c, 0, 67, 0
1, 362270, Note_on_c, 0, 53, 0
1, 362280, Note_on_c, 0, 81, 110
1, 362280, Note_on_c, 0, 72, 110
1, 362280, Note_on_c, 0, 69, 110
1, 362390, Note_on_c, 0, 81, 0
1, 362390, Note_on_c, 0, 72, 0
1, 362390, Note_on_c, 0, 69, 0
1, 362400, Note_on_c, 0, 82, 110
1, 362400, Note_on_c, 0, 70, 110
1, 362400, Note_on_c, 0, 50, 110
1, 362400, Note_on_c, 0, 46, 110
1, 362510, Note_on_c, 0, 50, 0
1, 362514, Control_c, 0, 64, 127
1, 362520, Note_on_c, 0, 50, 110
1, 362630, Note_on_c, 0, 82, 0
1, 362630, Note_on_c, 0, 70, 0
1, 362630, Note_on_c, 0, 50, 0
1, 362630, Note_on_c, 0, 46, 0
1, 362640, Note_on_c, 0, 58, 110
1, 362640, Note_on_c, 0, 50, 110
1, 362750, Note_on_c, 0, 58, 0
1, 362750, Note_on_c, 0, 50, 0
1, 362760, Note_on_c, 0, 58, 110
1, 362760, Note_on_c, 0, 50, 110
1, 362870, Note_on_c, 0, 50, 0
1, 362880, Note_on_c, 0, 51, 110
1, 362990, Note_on_c, 0, 51, 0
1, 363000, Note_on_c, 0, 53, 110
1, 363110, Note_on_c, 0, 53, 0
1, 363120, Note_on_c, 0, 53, 110
1, 363153, Control_c, 0, 64, 0
1, 363230, Note_on_c, 0, 53, 0
1, 363240, Note_on_c, 0, 55, 110
1, 363350, Note_on_c, 0, 58, 0
1, 363350, Note_on_c, 0, 55, 0
1, 363360, Note_on_c, 0, 60, 110
1, 363360, Note_on_c, 0, 53, 110
1, 363470, Note_on_c, 0, 60, 0
1, 363470, Note_on_c, 0, 53, 0
1, 363480, Note_on_c, 0, 60, 110
1, 363480, Note_on_c, 0, 51, 110
1, 363590, Note_on_c, 0, 51, 0
1, 363600, Note_on_c, 0, 50, 110
1, 363710, Note_on_c, 0, 50, 0
1, 363720, Note_on_c, 0, 48, 110
1, 363830, Note_on_c, 0, 48, 0
1, 363840, Note_on_c, 0, 46, 110
1, 363950, Note_on_c, 0, 46, 0
1, 363960, Note_on_c, 0, 45, 110
1, 364070, Note_on_c, 0, 60, 0
1, 364070, Note_on_c, 0, 45, 0
1, 364080, Note_on_c, 0, 62, 110
1, 364080, Note_on_c, 0, 46, 110
1, 364190, Note_on_c, 0, 62, 0
1, 364190, Note_on_c, 0, 46, 0
1, 364200, Note_on_c, 0, 67, 110
1, 364200, Note_on_c, 0, 47, 110
1, 364310, Note_on_c, 0, 47, 0
1, 364320, Note_on_c, 0, 48, 110
1, 364430, Note_on_c, 0, 67, 0
1, 364430, Note_on_c, 0, 48, 0
1, 364440, Note_on_c, 0, 65, 110
1, 364440, Note_on_c, 0, 50, 110
1, 364550, Note_on_c, 0, 65, 0
1, 364550, Note_on_c, 0, 50, 0
1, 364560, Note_on_c, 0, 63, 110
1, 364560, Note_on_c, 0, 48, 110
1, 364670, Note_on_c, 0, 48, 0
1, 364680, Note_on_c, 0, 41, 110
1, 364790, Note_on_c, 0, 63, 0
1, 364790, Note_on_c, 0, 41, 0
1, 364800, Note_on_c, 0, 41, 110
1, 364910, Note_on_c, 0, 41, 0
1, 364920, Note_on_c, 0, 62, 110
1, 364920, Note_on_c, 0, 46, 110
1, 365030, Note_on_c, 0, 46, 0
1, 365040, Note_on_c, 0, 58, 110
1, 365150, Note_on_c, 0, 62, 0
1, 365150, Note_on_c, 0, 58, 0
1, 365160, Note_on_c, 0, 58, 110
1, 365270, Note_on_c, 0, 58, 0
1, 365280, Note_on_c, 0, 81, 110
1, 365280, Note_on_c, 0, 69, 110
1, 365280, Note_on_c, 0, 60, 110
1, 365280, Note_on_c, 0, 53, 110
1, 365381, Control_c, 0, 64, 127
1, 365390, Note_on_c, 0, 81, 0
1, 365390, Note_on_c, 0, 69, 0
1, 365400, Note_on_c, 0, 81, 110
1, 365400, Note_on_c, 0, 69, 110
1, 365510, Note_on_c, 0, 81, 0
1, 365510, Note_on_c, 0, 69, 0
1, 365510, Note_on_c, 0, 60, 0
1, 365510, Note_on_c, 0, 53, 0
1, 365520, Note_on_c, 0, 81, 110
1, 365520, Note_on_c, 0, 69, 110
1, 365520, Note_on_c, 0, 57, 110
1, 365520, Note_on_c, 0, 65, 110
1, 365520, Note_on_c, 0, 53, 110
1, 365630, Note_on_c, 0, 81, 0
1, 365630, Note_on_c, 0, 69, 0
1, 365630, Note_on_c, 0, 57, 0
1, 365630, Note_on_c, 0, 65, 0
1, 365630, Note_on_c, 0, 53, 0
1, 365640, Note_on_c, 0, 81, 110
1, 365640, Note_on_c, 0, 69, 110
1, 365640, Note_on_c, 0, 57, 110
1, 365640, Note_on_c, 0, 65, 110
1, 365640, Note_on_c, 0, 53, 110
1, 365750, Note_on_c, 0, 81, 0
1, 365750, Note_on_c, 0, 69, 0
1, 365760, Note_on_c, 0, 82, 110
1, 365760, Note_on_c, 0, 70, 110
1, 365870, Note_on_c, 0, 82, 0
1, 365870, Note_on_c, 0, 70, 0
1, 365880, Note_on_c, 0, 84, 110
1, 365880, Note_on_c, 0, 72, 110
1, 365972, Control_c, 0, 64, 0
1, 365990, Note_on_c, 0, 84, 0
1, 365990, Note_on_c, 0, 72, 0
1, 365990, Note_on_c, 0, 57, 0
1, 365990, Note_on_c, 0, 65, 0
1, 365990, Note_on_c, 0, 53, 0
1, 366000, Note_on_c, 0, 84, 110
1, 366000, Note_on_c, 0, 72, 110
1, 366110, Note_on_c, 0, 84, 0
1, 366110, Note_on_c, 0, 72, 0
1, 366120, Note_on_c, 0, 86, 110
1, 366120, Note_on_c, 0, 74, 110
1, 366230, Note_on_c, 0, 86, 0
1, 366230, Note_on_c, 0, 74, 0
1, 366240, Note_on_c, 0, 84, 110
1, 366240, Note_on_c, 0, 72, 110
1, 366240, Note_on_c, 0, 58, 110
1, 366240, Note_on_c, 0, 65, 110
1, 366240, Note_on_c, 0, 55, 110
1, 366350, Note_on_c, 0, 84, 0
1, 366350, Note_on_c, 0, 72, 0
1, 366350, Note_on_c, 0, 58, 0
1, 366350, Note_on_c, 0, 65, 0
1, 366350, Note_on_c, 0, 55, 0
1, 366360, Note_on_c, 0, 82, 110
1, 366360, Note_on_c, 0, 70, 110
1, 366360, Note_on_c, 0, 58, 110
1, 366360, Note_on_c, 0, 65, 110
1, 366360, Note_on_c, 0, 55, 110
1, 366470, Note_on_c, 0, 82, 0
1, 366470, Note_on_c, 0, 70, 0
1, 366480, Note_on_c, 0, 81, 110
1, 366590, Note_on_c, 0, 81, 0
1, 366600, Note_on_c, 0, 79, 110
1, 366710, Note_on_c, 0, 79, 0
1, 366720, Note_on_c, 0, 77, 110
1, 366830, Note_on_c, 0, 77, 0
1, 366840, Note_on_c, 0, 76, 110
1, 366950, Note_on_c, 0, 76, 0
1, 366950, Note_on_c, 0, 58, 0
1, 366950, Note_on_c, 0, 65, 0
1, 366950, Note_on_c, 0, 55, 0
1, 366960, Note_on_c, 0, 77, 110
1, 366960, Note_on_c, 0, 69, 110
1, 366960, Note_on_c, 0, 60, 110
1, 366960, Note_on_c, 0, 57, 110
1, 367070, Note_on_c, 0, 77, 0
1, 367070, Note_on_c, 0, 69, 0
1, 367070, Note_on_c, 0, 60, 0
1, 367070, Note_on_c, 0, 57, 0
1, 367080, Note_on_c, 0, 77, 110
1, 367080, Note_on_c, 0, 69, 110
1, 367080, Note_on_c, 0, 65, 110
1, 367080, Note_on_c, 0, 62, 110
1, 367190, Note_on_c, 0, 77, 0
1, 367190, Note_on_c, 0, 69, 0
1, 367200, Note_on_c, 0, 79, 110
1, 367310, Note_on_c, 0, 79, 0
1, 367310, Note_on_c, 0, 65, 0
1, 367310, Note_on_c, 0, 62, 0
1, 367320, Note_on_c, 0, 81, 110
1, 367320, Note_on_c, 0, 69, 110
1, 367320, Note_on_c, 0, 65, 110
1, 367320, Note_on_c, 0, 60, 110
1, 367430, Note_on_c, 0, 81, 0
1, 367430, Note_on_c, 0, 69, 0
1, 367430, Note_on_c, 0, 65, 0
1, 367430, Note_on_c, 0, 60, 0
1, 367440, Note_on_c, 0, 79, 110
1, 367440, Note_on_c, 0, 67, 110
1, 367440, Note_on_c, 0, 64, 110
1, 367440, Note_on_c, 0, 58, 110
1, 367550, Note_on_c, 0, 79, 0
1, 367550, Note_on_c, 0, 67, 0
1, 367560, Note_on_c, 0, 72, 110
1, 367670, Note_on_c, 0, 72, 0
1, 367670, Note_on_c, 0, 64, 0
1, 367670, Note_on_c, 0, 58, 0
1, 367680, Note_on_c, 0, 72, 110
1, 367790, Note_on_c, 0, 72, 0
1, 367800, Note_on_c, 0, 77, 110
1, 367800, Note_on_c, 0, 72, 110
1, 367800, Note_on_c, 0, 60, 110
1, 367800, Note_on_c, 0, 65, 110
1, 367800, Note_on_c, 0, 57, 110
1, 367910, Note_on_c, 0, 77, 0
1, 367910, Note_on_c, 0, 72, 0
1, 367920, Note_on_c, 0, 65, 110
1, 368030, Note_on_c, 0, 65, 0
1, 368030, Note_on_c, 0, 60, 0
1, 368030, Note_on_c, 0, 65, 0
1, 368030, Note_on_c, 0, 57, 0
1, 368040, Note_on_c, 0, 65, 110
1, 368150, Note_on_c, 0, 65, 0
1, 368160, Note_on_c, 0, 77, 110
1, 368160, Note_on_c, 0, 65, 110
1, 368160, Note_on_c, 0, 58, 110
1, 368160, Note_on_c, 0, 57, 110
1, 368270, Note_on_c, 0, 77, 0
1, 368270, Note_on_c, 0, 65, 0
1, 368280, Note_on_c, 0, 70, 110
1, 368390, Note_on_c, 0, 70, 0
1, 368390, Note_on_c, 0, 58, 0
1, 368390, Note_on_c, 0, 57, 0
1, 368400, Note_on_c, 0, 70, 110
1, 368510, Note_on_c, 0, 70, 0
1, 368520, Note_on_c, 0, 75, 110
1, 368520, Note_on_c, 0, 70, 110
1, 368520, Note_on_c, 0, 58, 110
1, 368520, Note_on_c, 0, 63, 110
1, 368520, Note_on_c, 0, 55, 110
1, 368630, Note_on_c, 0, 75, 0
1, 368630, Note_on_c, 0, 70, 0
1, 368640, Note_on_c, 0, 63, 110
1, 368750, Note_on_c, 0, 63, 0
1, 368750, Note_on_c, 0, 58, 0
1, 368750, Note_on_c, 0, 63, 0
1, 368750, Note_on_c, 0, 55, 0
1, 368760, Note_on_c, 0, 63, 110
1, 368870, Note_on_c, 0, 63, 0
1, 368880, Note_on_c, 0, 75, 110
1, 368880, Note_on_c, 0, 63, 110
1, 368880, Note_on_c, 0, 57, 110
1, 368880, Note_on_c, 0, 55, 110
1, 368990, Note_on_c, 0, 75, 0
1, 368990, Note_on_c, 0, 63, 0
1, 369000, Note_on_c, 0, 69, 110
1, 369110, Note_on_c, 0, 69, 0
1, 369110, Note_on_c, 0, 57, 0
1, 369110, Note_on_c, 0, 55, 0
1, 369120, Note_on_c, 0, 69, 110
1, 369230, Note_on_c, 0, 69, 0
1, 369240, Note_on_c, 0, 74, 110
1, 369240, Note_on_c, 0, 69, 110
1, 369240, Note_on_c, 0, 57, 110
1, 369240, Note_on_c, 0, 62, 110
1, 369240, Note_on_c, 0, 54, 110
1, 369350, Note_on_c, 0, 74, 0
1, 369350, Note_on_c, 0, 69, 0
1, 369360, Note_on_c, 0, 62, 110
1, 369470, Note_on_c, 0, 62, 0
1, 369470, Note_on_c, 0, 57, 0
1, 369470, Note_on_c, 0, 62, 0
1, 369470, Note_on_c, 0, 54, 0
1, 369480, Note_on_c, 0, 62, 110
1, 369590, Note_on_c, 0, 62, 0
1, 369600, Note_on_c, 0, 74, 110
1, 369600, Note_on_c, 0, 71, 110
1, 369600, Note_on_c, 0, 62, 110
1, 369600, Note_on_c, 0, 55, 110
1, 369710, Note_on_c, 0, 74, 0
1, 369710, Note_on_c, 0, 71, 0
1, 369710, Note_on_c, 0, 62, 0
1, 369710, Note_on_c, 0, 55, 0
1, 369720, Note_on_c, 0, 71, 110
1, 369726, Control_c, 0, 64, 127
1, 369830, Note_on_c, 0, 71, 0
1, 369840, Note_on_c, 0, 83, 110
1, 369840, Note_on_c, 0, 79, 110
1, 369840, Note_on_c, 0, 71, 110
1, 369950, Note_on_c, 0, 83, 0
1, 369950, Note_on_c, 0, 79, 0
1, 369950, Note_on_c, 0, 71, 0
1, 369960, Note_on_c, 0, 83, 110
1, 369960, Note_on_c, 0, 79, 110
1, 369960, Note_on_c, 0, 71, 110
1, 370070, Note_on_c, 0, 71, 0
1, 370080, Note_on_c, 0, 72, 110
1, 370190, Note_on_c, 0, 72, 0
1, 370200, Note_on_c, 0, 74, 110
1, 370257, Control_c, 0, 64, 0
1, 370310, Note_on_c, 0, 83, 0
1, 370310, Note_on_c, 0, 79, 0
1, 370310, Note_on_c, 0, 74, 0
1, 370320, Note_on_c, 0, 74, 110
1, 370430, Note_on_c, 0, 74, 0
1, 370440, Note_on_c, 0, 76, 110
1, 370550, Note_on_c, 0, 76, 0
1, 370560, Note_on_c, 0, 84, 110
1, 370560, Note_on_c, 0, 81, 110
1, 370560, Note_on_c, 0, 74, 110
1, 370670, Note_on_c, 0, 84, 0
1, 370670, Note_on_c, 0, 81, 0
1, 370670, Note_on_c, 0, 74, 0
1, 370680, Note_on_c, 0, 84, 110
1, 370680, Note_on_c, 0, 81, 110
1, 370680, Note_on_c, 0, 72, 110
1, 370790, Note_on_c, 0, 72, 0
1, 370800, Note_on_c, 0, 71, 110
1, 370910, Note_on_c, 0, 71, 0
1, 370920, Note_on_c, 0, 69, 110
1, 371030, Note_on_c, 0, 84, 0
1, 371030, Note_on_c, 0, 81, 0
1, 371030, Note_on_c, 0, 69, 0
1, 371040, Note_on_c, 0, 67, 110
1, 371150, Note_on_c, 0, 67, 0
1, 371160, Note_on_c, 0, 69, 110
1, 371270, Note_on_c, 0, 69, 0
1, 371280, Note_on_c, 0, 86, 110
1, 371280, Note_on_c, 0, 79, 110
1, 371280, Note_on_c, 0, 71, 110
1, 371390, Note_on_c, 0, 86, 0
1, 371390, Note_on_c, 0, 79, 0
1, 371390, Note_on_c, 0, 71, 0
1, 371400, Note_on_c, 0, 86, 110
1, 371400, Note_on_c, 0, 79, 110
1, 371400, Note_on_c, 0, 76, 110
1, 371510, Note_on_c, 0, 86, 0
1, 371520, Note_on_c, 0, 84, 110
1, 371520, Note_on_c, 0, 67, 110
1, 371630, Note_on_c, 0, 84, 0
1, 371630, Note_on_c, 0, 79, 0
1, 371630, Note_on_c, 0, 76, 0
1, 371630, Note_on_c, 0, 67, 0
1, 371640, Note_on_c, 0, 83, 110
1, 371640, Note_on_c, 0, 74, 110
1, 371750, Note_on_c, 0, 83, 0
1, 371750, Note_on_c, 0, 74, 0
1, 371760, Note_on_c, 0, 86, 110
1, 371760, Note_on_c, 0, 81, 110
1, 371760, Note_on_c, 0, 72, 110
1, 371760, Note_on_c, 0, 72, 110
1, 371870, Note_on_c, 0, 86, 0
1, 371870, Note_on_c, 0, 72, 0
1, 371880, Note_on_c, 0, 88, 110
1, 371880, Note_on_c, 0, 62, 110
1, 371990, Note_on_c, 0, 88, 0
1, 371990, Note_on_c, 0, 81, 0
1, 371990, Note_on_c, 0, 72, 0
1, 371990, Note_on_c, 0, 62, 0
1, 372000, Note_on_c, 0, 90, 110
1, 372000, Note_on_c, 0, 62, 110
1, 372110, Note_on_c, 0, 90, 0
1, 372110, Note_on_c, 0, 62, 0
1, 372120, Note_on_c, 0, 91, 110
1, 372120, Note_on_c, 0, 79, 110
1, 372120, Note_on_c, 0, 71, 110
1, 372120, Note_on_c, 0, 71, 110
1, 372230, Note_on_c, 0, 71, 0
1, 372240, Note_on_c, 0, 67, 110
1, 372350, Note_on_c, 0, 91, 0
1, 372350, Note_on_c, 0, 79, 0
1, 372350, Note_on_c, 0, 71, 0
1, 372350, Note_on_c, 0, 67, 0
1, 372360, Note_on_c, 0, 86, 110
1, 372360, Note_on_c, 0, 67, 110
1, 372470, Note_on_c, 0, 86, 0
1, 372470, Note_on_c, 0, 67, 0
1, 372480, Note_on_c, 0, 91, 110
1, 372480, Note_on_c, 0, 71, 110
1, 372590, Note_on_c, 0, 71, 0
1, 372600, Note_on_c, 0, 67, 110
1, 372710, Note_on_c, 0, 91, 0
1, 372710, Note_on_c, 0, 67, 0
1, 372720, Note_on_c, 0, 86, 110
1, 372720, Note_on_c, 0, 67, 110
1, 372720, Note_on_c, 0, 67, 110
1, 372830, Note_on_c, 0, 86, 0
1, 372830, Note_on_c, 0, 67, 0
1, 372830, Note_on_c, 0, 67, 0
1, 372840, Note_on_c, 0, 91, 110
1, 372840, Note_on_c, 0, 71, 110
1, 372840, Note_on_c, 0, 74, 110
1, 372950, Note_on_c, 0, 74, 0
1, 372960, Note_on_c, 0, 67, 110
1, 373070, Note_on_c, 0, 91, 0
1, 373070, Note_on_c, 0, 71, 0
1, 373070, Note_on_c, 0, 67, 0
1, 373080, Note_on_c, 0, 89, 110
1, 373080, Note_on_c, 0, 67, 110
1, 373080, Note_on_c, 0, 67, 110
1, 373190, Note_on_c, 0, 89, 0
1, 373190, Note_on_c, 0, 67, 0
1, 373190, Note_on_c, 0, 67, 0
1, 373200, Note_on_c, 0, 87, 110
1, 373200, Note_on_c, 0, 84, 110
1, 373200, Note_on_c, 0, 75, 110
1, 373310, Note_on_c, 0, 87, 0
1, 373310, Note_on_c, 0, 84, 0
1, 373320, Note_on_c, 0, 87, 110
1, 373320, Note_on_c, 0, 84, 110
1, 373430, Note_on_c, 0, 87, 0
1, 373430, Note_on_c, 0, 84, 0
1, 373430, Note_on_c, 0, 75, 0
1, 373440, Note_on_c, 0, 87, 110
1, 373440, Note_on_c, 0, 84, 110
1, 373440, Note_on_c, 0, 72, 110
1, 373550, Note_on_c, 0, 87, 0
1, 373550, Note_on_c, 0, 84, 0
1, 373550, Note_on_c, 0, 72, 0
1, 373560, Note_on_c, 0, 86, 110
1, 373560, Note_on_c, 0, 83, 110
1, 373560, Note_on_c, 0, 79, 110
1, 373670, Note_on_c, 0, 86, 0
1, 373670, Note_on_c, 0, 83, 0
1, 373680, Note_on_c, 0, 86, 110
1, 373680, Note_on_c, 0, 83, 110
1, 373790, Note_on_c, 0, 86, 0
1, 373790, Note_on_c, 0, 83, 0
1, 373790, Note_on_c, 0, 79, 0
1, 373800, Note_on_c, 0, 86, 110
1, 373800, Note_on_c, 0, 83, 110
1, 373800, Note_on_c, 0, 77, 110
1, 373910, Note_on_c, 0, 86, 0
1, 373910, Note_on_c, 0, 83, 0
1, 373910, Note_on_c, 0, 77, 0
1, 373920, Note_on_c, 0, 83, 110
1, 373920, Note_on_c, 0, 86, 110
1, 373920, Note_on_c, 0, 77, 110
1, 374030, Note_on_c, 0, 83, 0
1, 374030, Note_on_c, 0, 86, 0
1, 374030, Note_on_c, 0, 77, 0
1, 374040, Note_on_c, 0, 83, 110
1, 374040, Note_on_c, 0, 86, 110
1, 374040, Note_on_c, 0, 77, 110
1, 374150, Note_on_c, 0, 83, 0
1, 374150, Note_on_c, 0, 86, 0
1, 374150, Note_on_c, 0, 77, 0
1, 374160, Note_on_c, 0, 83, 110
1, 374160, Note_on_c, 0, 86, 110
1, 374160, Note_on_c, 0, 77, 110
1, 374160, Note_on_c, 0, 62, 110
1, 374270, Note_on_c, 0, 83, 0
1, 374270, Note_on_c, 0, 86, 0
1, 374270, Note_on_c, 0, 77, 0
1, 374270, Note_on_c, 0, 62, 0
1, 374280, Note_on_c, 0, 84, 110
1, 374280, Note_on_c, 0, 75, 110
1, 374280, Note_on_c, 0, 68, 110
1, 374390, Note_on_c, 0, 84, 0
1, 374390, Note_on_c, 0, 75, 0
1, 374400, Note_on_c, 0, 84, 110
1, 374400, Note_on_c, 0, 75, 110
1, 374510, Note_on_c, 0, 84, 0
1, 374510, Note_on_c, 0, 75, 0
1, 374510, Note_on_c, 0, 68, 0
1, 374520, Note_on_c, 0, 84, 110
1, 374520, Note_on_c, 0, 75, 110
1, 374520, Note_on_c, 0, 67, 110
1, 374630, Note_on_c, 0, 84, 0
1, 374630, Note_on_c, 0, 75, 0
1, 374630, Note_on_c, 0, 67, 0
1, 374640, Note_on_c, 0, 84, 110
1, 374640, Note_on_c, 0, 74, 110
1, 374640, Note_on_c, 0, 65, 110
1, 374750, Note_on_c, 0, 84, 0
1, 374750, Note_on_c, 0, 74, 0
1, 374760, Note_on_c, 0, 84, 110
1, 374760, Note_on_c, 0, 74, 110
1, 374870, Note_on_c, 0, 84, 0
1, 374870, Note_on_c, 0, 74, 0
1, 374870, Note_on_c, 0, 65, 0
1, 374880, Note_on_c, 0, 84, 110
1, 374880, Note_on_c, 0, 74, 110
1, 374880, Note_on_c, 0, 65, 110
1, 374990, Note_on_c, 0, 84, 0
1, 374990, Note_on_c, 0, 74, 0
1, 374990, Note_on_c, 0, 65, 0
1, 375000, Note_on_c, 0, 83, 110
1, 375000, Note_on_c, 0, 74, 110
1, 375000, Note_on_c, 0, 67, 110
1, 375110, Note_on_c, 0, 83, 0
1, 375110, Note_on_c, 0, 74, 0
1, 375120, Note_on_c, 0, 83, 110
1, 375120, Note_on_c, 0, 74, 110
1, 375230, Note_on_c, 0, 83, 0
1, 375230, Note_on_c, 0, 74, 0
1, 375230, Note_on_c, 0, 67, 0
1, 375240, Note_on_c, 0, 83, 110
1, 375240, Note_on_c, 0, 74, 110
1, 375240, Note_on_c, 0, 55, 110
1, 375350, Note_on_c, 0, 83, 0
1, 375350, Note_on_c, 0, 74, 0
1, 375350, Note_on_c, 0, 55, 0
1, 375360, Note_on_c, 0, 63, 110
1, 375360, Note_on_c, 0, 60, 110
1, 375470, Note_on_c, 0, 63, 0
1, 375470, Note_on_c, 0, 60, 0
1, 375480, Note_on_c, 0, 63, 110
1, 375480, Note_on_c, 0, 60, 110
1, 375480, Control_c, 0, 64, 127
1, 375590, Note_on_c, 0, 63, 0
1, 375590, Note_on_c, 0, 60, 0
1, 375600, Note_on_c, 0, 84, 110
1, 375600, Note_on_c, 0, 72, 110
1, 375600, Note_on_c, 0, 63, 110
1, 375600, Note_on_c, 0, 60, 110
1, 375710, Note_on_c, 0, 84, 0
1, 375710, Note_on_c, 0, 72, 0
1, 375710, Note_on_c, 0, 63, 0
1, 375710, Note_on_c, 0, 60, 0
1, 375720, Note_on_c, 0, 84, 110
1, 375720, Note_on_c, 0, 72, 110
1, 375720, Note_on_c, 0, 63, 110
1, 375720, Note_on_c, 0, 60, 110
1, 375830, Note_on_c, 0, 63, 0
1, 375830, Note_on_c, 0, 60, 0
1, 375840, Note_on_c, 0, 65, 110
1, 375840, Note_on_c, 0, 62, 110
1, 375950, Note_on_c, 0, 65, 0
1, 375950, Note_on_c, 0, 62, 0
1, 375960, Note_on_c, 0, 67, 110
1, 375960, Note_on_c, 0, 63, 110
1, 375970, Control_c, 0, 64, 0
1, 376070, Note_on_c, 0, 67, 0
1, 376070, Note_on_c, 0, 63, 0
1, 376080, Note_on_c, 0, 67, 110
1, 376080, Note_on_c, 0, 63, 110
1, 376190, Note_on_c, 0, 67, 0
1, 376190, Note_on_c, 0, 63, 0
1, 376200, Note_on_c, 0, 68, 110
1, 376200, Note_on_c, 0, 65, 110
1, 376310, Note_on_c, 0, 84, 0
1, 376310, Note_on_c, 0, 72, 0
1, 376310, Note_on_c, 0, 68, 0
1, 376310, Note_on_c, 0, 65, 0
1, 376320, Note_on_c, 0, 86, 110
1, 376320, Note_on_c, 0, 74, 110
1, 376320, Note_on_c, 0, 67, 110
1, 376320, Note_on_c, 0, 63, 110
1, 376430, Note_on_c, 0, 86, 0
1, 376430, Note_on_c, 0, 74, 0
1, 376430, Note_on_c, 0, 67, 0
1, 376430, Note_on_c, 0, 63, 0
1, 376440, Note_on_c, 0, 86, 110
1, 376440, Note_on_c, 0, 74, 110
1, 376440, Note_on_c, 0, 65, 110
1, 376440, Note_on_c, 0, 62, 110
1, 376550, Note_on_c, 0, 65, 0
1, 376550, Note_on_c, 0, 62, 0
1, 376560, Note_on_c, 0, 63, 110
1, 376560, Note_on_c, 0, 60, 110
1, 376670, Note_on_c, 0, 63, 0
1, 376670, Note_on_c, 0, 60, 0
1, 376680, Note_on_c, 0, 62, 110
1, 376680, Note_on_c, 0, 59, 110
1, 376790, Note_on_c, 0, 62, 0
1, 376790, Note_on_c, 0, 59, 0
1, 376800, Note_on_c, 0, 63, 110
1, 376800, Note_on_c, 0, 60, 110
1, 376910, Note_on_c, 0, 63, 0
1, 376910, Note_on_c, 0, 60, 0
1, 376920, Note_on_c, 0, 65, 110
1, 376920, Note_on_c, 0, 59, 110
1, 377030, Note_on_c, 0, 86, 0
1, 377030, Note_on_c, 0, 74, 0
1, 377030, Note_on_c, 0, 65, 0
1, 377030, Note_on_c, 0, 59, 0
1, 377040, Note_on_c, 0, 87, 110
1, 377040, Note_on_c, 0, 75, 110
1, 377040, Note_on_c, 0, 63, 110
1, 377040, Note_on_c, 0, 60, 110
1, 377150, Note_on_c, 0, 87, 0
1, 377150, Note_on_c, 0, 75, 0
1, 377150, Note_on_c, 0, 63, 0
1, 377150, Note_on_c, 0, 60, 0
1, 377160, Note_on_c, 0, 92, 110
1, 377160, Note_on_c, 0, 80, 110
1, 377160, Note_on_c, 0, 63, 110
1, 377160, Note_on_c, 0, 60, 110
1, 377270, Note_on_c, 0, 63, 0
1, 377270, Note_on_c, 0, 60, 0
1, 377280, Note_on_c, 0, 65, 110
1, 377280, Note_on_c, 0, 62, 110
1, 377390, Note_on_c, 0, 92, 0
1, 377390, Note_on_c, 0, 80, 0
1, 377390, Note_on_c, 0, 65, 0
1, 377390, Note_on_c, 0, 62, 0
1, 377400, Note_on_c, 0, 91, 110
1, 377400, Note_on_c, 0, 79, 110
1, 377400, Note_on_c, 0, 67, 110
1, 377400, Note_on_c, 0, 63, 110
1, 377510, Note_on_c, 0, 91, 0
1, 377510, Note_on_c, 0, 79, 0
1, 377510, Note_on_c, 0, 67, 0
1, 377510, Note_on_c, 0, 63, 0
1, 377520, Note_on_c, 0, 89, 110
1, 377520, Note_on_c, 0, 77, 110
1, 377520, Note_on_c, 0, 67, 110
1, 377520, Note_on_c, 0, 62, 110
1, 377640, Note_on_c, 0, 86, 110
1, 377640, Note_on_c, 0, 83, 110
1, 377750, Note_on_c, 0, 89, 0
1, 377750, Note_on_c, 0, 77, 0
1, 377750, Note_on_c, 0, 67, 0
1, 377750, Note_on_c, 0, 62, 0
1, 377750, Note_on_c, 0, 86, 0
1, 377750, Note_on_c, 0, 83, 0
1, 377760, Note_on_c, 0, 86, 110
1, 377760, Note_on_c, 0, 83, 110
1, 377760, Note_on_c, 0, 55, 110
1, 377870, Note_on_c, 0, 86, 0
1, 377870, Note_on_c, 0, 83, 0
1, 377870, Note_on_c, 0, 55, 0
1, 377880, Note_on_c, 0, 87, 110
1, 377880, Note_on_c, 0, 75, 110
1, 377880, Note_on_c, 0, 60, 110
1, 377880, Note_on_c, 0, 48, 110
1, 378000, Note_on_c, 0, 84, 110
1, 378000, Note_on_c, 0, 79, 110
1, 378110, Note_on_c, 0, 87, 0
1, 378110, Note_on_c, 0, 75, 0
1, 378110, Note_on_c, 0, 60, 0
1, 378110, Note_on_c, 0, 48, 0
1, 378110, Note_on_c, 0, 84, 0
1, 378110, Note_on_c, 0, 79, 0
1, 378120, Note_on_c, 0, 84, 110
1, 378120, Note_on_c, 0, 79, 110
1, 378120, Note_on_c, 0, 63, 110
1, 378120, Note_on_c, 0, 60, 110
1, 378230, Note_on_c, 0, 84, 0
1, 378230, Note_on_c, 0, 79, 0
1, 378230, Note_on_c, 0, 63, 0
1, 378230, Note_on_c, 0, 60, 0
1, 378240, Note_on_c, 0, 82, 110
1, 378240, Note_on_c, 0, 77, 110
1, 378240, Note_on_c, 0, 65, 110
1, 378240, Note_on_c, 0, 62, 110
1, 378339, Control_c, 0, 64, 127
1, 378350, Note_on_c, 0, 65, 0
1, 378350, Note_on_c, 0, 62, 0
1, 378360, Note_on_c, 0, 70, 110
1, 378470, Note_on_c, 0, 82, 0
1, 378470, Note_on_c, 0, 77, 0
1, 378470, Note_on_c, 0, 70, 0
1, 378480, Note_on_c, 0, 89, 110
1, 378480, Note_on_c, 0, 77, 110
1, 378480, Note_on_c, 0, 70, 110
1, 378590, Note_on_c, 0, 89, 0
1, 378590, Note_on_c, 0, 77, 0
1, 378590, Note_on_c, 0, 70, 0
1, 378600, Note_on_c, 0, 94, 110
1, 378600, Note_on_c, 0, 82, 110
1, 378600, Note_on_c, 0, 62, 110
1, 378600, Note_on_c, 0, 58, 110
1, 378710, Note_on_c, 0, 62, 0
1, 378710, Note_on_c, 0, 58, 0
1, 378720, Note_on_c, 0, 70, 110
1, 378830, Note_on_c, 0, 94, 0
1, 378830, Note_on_c, 0, 82, 0
1, 378830, Note_on_c, 0, 70, 0
1, 378840, Note_on_c, 0, 92, 110
1, 378840, Note_on_c, 0, 80, 110
1, 378840, Note_on_c, 0, 70, 110
1, 378950, Note_on_c, 0, 92, 0
1, 378950, Note_on_c, 0, 80, 0
1, 378950, Note_on_c, 0, 70, 0
1, 378954, Control_c, 0, 64, 0
1, 378960, Note_on_c, 0, 91, 110
1, 378960, Note_on_c, 0, 79, 110
1, 378960, Note_on_c, 0, 63, 110
1, 378960, Note_on_c, 0, 58, 110
1, 379080, Note_on_c, 0, 82, 110
1, 379190, Note_on_c, 0, 91, 0
1, 379190, Note_on_c, 0, 79, 0
1, 379190, Note_on_c, 0, 63, 0
1, 379190, Note_on_c, 0, 58, 0
1, 379190, Note_on_c, 0, 82, 0
1, 379200, Note_on_c, 0, 86, 110
1, 379200, Note_on_c, 0, 74, 110
1, 379200, Note_on_c, 0, 53, 110
1, 379200, Note_on_c, 0, 41, 110
1, 379310, Note_on_c, 0, 86, 0
1, 379310, Note_on_c, 0, 74, 0
1, 379310, Note_on_c, 0, 53, 0
1, 379310, Note_on_c, 0, 41, 0
1, 379320, Note_on_c, 0, 91, 110
1, 379320, Note_on_c, 0, 79, 110
1, 379320, Note_on_c, 0, 58, 110
1, 379320, Note_on_c, 0, 46, 110
1, 379440, Note_on_c, 0, 86, 110
1, 379440, Note_on_c, 0, 82, 110
1, 379550, Note_on_c, 0, 91, 0
1, 379550, Note_on_c, 0, 79, 0
1, 379550, Note_on_c, 0, 58, 0
1, 379550, Note_on_c, 0, 46, 0
1, 379550, Note_on_c, 0, 86, 0
1, 379550, Note_on_c, 0, 82, 0
1, 379560, Note_on_c, 0, 89, 110
1, 379560, Note_on_c, 0, 77, 110
1, 379560, Note_on_c, 0, 56, 110
1, 379560, Note_on_c, 0, 44, 110
1, 379670, Note_on_c, 0, 89, 0
1, 379670, Note_on_c, 0, 77, 0
1, 379670, Note_on_c, 0, 56, 0
1, 379670, Note_on_c, 0, 44, 0
1, 379680, Note_on_c, 0, 87, 110
1, 379680, Note_on_c, 0, 75, 110
1, 379680, Note_on_c, 0, 55, 110
1, 379680, Note_on_c, 0, 43, 110
1, 379771, Control_c, 0, 64, 127
1, 379790, Note_on_c, 0, 55, 0
1, 379790, Note_on_c, 0, 43, 0
1, 379800, Note_on_c, 0, 56, 110
1, 379800, Note_on_c, 0, 44, 110
1, 379910, Note_on_c, 0, 87, 0
1, 379910, Note_on_c, 0, 75, 0
1, 379910, Note_on_c, 0, 56, 0
1, 379910, Note_on_c, 0, 44, 0
1, 379920, Note_on_c, 0, 67, 110
1, 379920, Note_on_c, 0, 70, 110
1, 379920, Note_on_c, 0, 75, 110
1, 379920, Note_on_c, 0, 63, 110
1, 379920, Note_on_c, 0, 58, 110
1, 379920, Note_on_c, 0, 46, 110
1, 380030, Note_on_c, 0, 67, 0
1, 380030, Note_on_c, 0, 70, 0
1, 380030, Note_on_c, 0, 75, 0
1, 380030, Note_on_c, 0, 63, 0
1, 380030, Note_on_c, 0, 58, 0
1, 380030, Note_on_c, 0, 46, 0
1, 380040, Note_on_c, 0, 67, 110
1, 380040, Note_on_c, 0, 70, 110
1, 380040, Note_on_c, 0, 75, 110
1, 380040, Note_on_c, 0, 63, 110
1, 380040, Note_on_c, 0, 58, 110
1, 380040, Note_on_c, 0, 46, 110
1, 380150, Note_on_c, 0, 58, 0
1, 380150, Note_on_c, 0, 46, 0
1, 380160, Note_on_c, 0, 58, 110
1, 380160, Note_on_c, 0, 46, 110
1, 380270, Note_on_c, 0, 58, 0
1, 380270, Note_on_c, 0, 46, 0
1, 380280, Note_on_c, 0, 58, 110
1, 380280, Note_on_c, 0, 46, 110
1, 380369, Control_c, 0, 64, 0
1, 380390, Note_on_c, 0, 58, 0
1, 380390, Note_on_c, 0, 46, 0
1, 380400, Note_on_c, 0, 58, 110
1, 380400, Note_on_c, 0, 46, 110
1, 380510, Note_on_c, 0, 58, 0
1, 380510, Note_on_c, 0, 46, 0
1, 380520, Note_on_c, 0, 60, 110
1, 380520, Note_on_c, 0, 48, 110
1, 380630, Note_on_c, 0, 67, 0
1, 380630, Note_on_c, 0, 70, 0
1, 380630, Note_on_c, 0, 75, 0
1, 380630, Note_on_c, 0, 63, 0
1, 380630, Note_on_c, 0, 60, 0
1, 380630, Note_on_c, 0, 48, 0
1, 380640, Note_on_c, 0, 68, 110
1, 380640, Note_on_c, 0, 74, 110
1, 380640, Note_on_c, 0, 77, 110
1, 380640, Note_on_c, 0, 65, 110
1, 380640, Note_on_c, 0, 58, 110
1, 380640, Note_on_c, 0, 46, 110
1, 380750, Note_on_c, 0, 68, 0
1, 380750, Note_on_c, 0, 74, 0
1, 380750, Note_on_c, 0, 77, 0
1, 380750, Note_on_c, 0, 65, 0
1, 380750, Note_on_c, 0, 58, 0
1, 380750, Note_on_c, 0, 46, 0
1, 380760, Note_on_c, 0, 74, 110
1, 380760, Note_on_c, 0, 77, 110
1, 380760, Note_on_c, 0, 65, 110
1, 380760, Note_on_c, 0, 68, 110
1, 380760, Note_on_c, 0, 56, 110
1, 380760, Note_on_c, 0, 44, 110
1, 380870, Note_on_c, 0, 56, 0
1, 380870, Note_on_c, 0, 44, 0
1, 380880, Note_on_c, 0, 55, 110
1, 380880, Note_on_c, 0, 43, 110
1, 380990, Note_on_c, 0, 68, 0
1, 380990, Note_on_c, 0, 55, 0
1, 380990, Note_on_c, 0, 43, 0
1, 381000, Note_on_c, 0, 70, 110
1, 381000, Note_on_c, 0, 53, 110
1, 381000, Note_on_c, 0, 41, 110
1, 381110, Note_on_c, 0, 74, 0
1, 381110, Note_on_c, 0, 65, 0
1, 381110, Note_on_c, 0, 70, 0
1, 381110, Note_on_c, 0, 53, 0
1, 381110, Note_on_c, 0, 41, 0
1, 381120, Note_on_c, 0, 70, 110
1, 381120, Note_on_c, 0, 67, 110
1, 381120, Note_on_c, 0, 70, 110
1, 381120, Note_on_c, 0, 67, 110
1, 381120, Note_on_c, 0, 51, 110
1, 381120, Note_on_c, 0, 39, 110
1, 381230, Note_on_c, 0, 51, 0
1, 381240, Note_on_c, 0, 53, 110
1, 381350, Note_on_c, 0, 70, 0
1, 381350, Note_on_c, 0, 77, 0
1, 381350, Note_on_c, 0, 67, 0
1, 381350, Note_on_c, 0, 70, 0
1, 381350, Note_on_c, 0, 67, 0
1, 381350, Note_on_c, 0, 53, 0
1, 381350, Note_on_c, 0, 39, 0
1, 381360, Note_on_c, 0, 79, 110
1, 381360, Note_on_c, 0, 51, 110
1, 381470, Note_on_c, 0, 79, 0
1, 381470, Note_on_c, 0, 51, 0
1, 381480, Note_on_c, 0, 84, 110
1, 381480, Note_on_c, 0, 72, 110
1, 381480, Note_on_c, 0, 52, 110
1, 381480, Note_on_c, 0, 40, 110
1, 381590, Note_on_c, 0, 52, 0
1, 381600, Note_on_c, 0, 53, 110
1, 381710, Note_on_c, 0, 84, 0
1, 381710, Note_on_c, 0, 72, 0
1, 381710, Note_on_c, 0, 53, 0
1, 381710, Note_on_c, 0, 40, 0
1, 381720, Note_on_c, 0, 82, 110
1, 381720, Note_on_c, 0, 70, 110
1, 381720, Note_on_c, 0, 55, 110
1, 381830, Note_on_c, 0, 82, 0
1, 381830, Note_on_c, 0, 70, 0
1, 381830, Note_on_c, 0, 55, 0
1, 381840, Note_on_c, 0, 80, 110
1, 381840, Note_on_c, 0, 68, 110
1, 381840, Note_on_c, 0, 53, 110
1, 381840, Note_on_c, 0, 41, 110
1, 381950, Note_on_c, 0, 53, 0
1, 381960, Note_on_c, 0, 60, 110
1, 382070, Note_on_c, 0, 80, 0
1, 382070, Note_on_c, 0, 68, 0
1, 382070, Note_on_c, 0, 60, 0
1, 382070, Note_on_c, 0, 41, 0
1, 382080, Note_on_c, 0, 72, 110
1, 382080, Note_on_c, 0, 60, 110
1, 382190, Note_on_c, 0, 72, 0
1, 382190, Note_on_c, 0, 60, 0
1, 382200, Note_on_c, 0, 79, 110
1, 382200, Note_on_c, 0, 67, 110
1, 382200, Note_on_c, 0, 77, 110
1, 382200, Note_on_c, 0, 65, 110
1, 382320, Note_on_c, 0, 60, 110
1, 382430, Note_on_c, 0, 79, 0
1, 382430, Note_on_c, 0, 67, 0
1, 382430, Note_on_c, 0, 77, 0
1, 382430, Note_on_c, 0, 65, 0
1, 382430, Note_on_c, 0, 60, 0
1, 382440, Note_on_c, 0, 76, 110
1, 382440, Note_on_c, 0, 64, 110
1, 382550, Note_on_c, 0, 76, 0
1, 382550, Note_on_c, 0, 64, 0
1, 382560, Note_on_c, 0, 77, 110
1, 382560, Note_on_c, 0, 68, 110
1, 382560, Note_on_c, 0, 65, 110
1, 382560, Note_on_c, 0, 60, 110
1, 382680, Note_on_c, 0, 53, 110
1, 382790, Note_on_c, 0, 77, 0
1, 382790, Note_on_c, 0, 68, 0
1, 382790, Note_on_c, 0, 65, 0
1, 382790, Note_on_c, 0, 60, 0
1, 382790, Note_on_c, 0, 53, 0
1, 382800, Note_on_c, 0, 80, 110
1, 382800, Note_on_c, 0, 73, 110
1, 382800, Note_on_c, 0, 61, 110
1, 382800, Note_on_c, 0, 65, 110
1, 382910, Note_on_c, 0, 80, 0
1, 382910, Note_on_c, 0, 73, 0
1, 382910, Note_on_c, 0, 61, 0
1, 382910, Note_on_c, 0, 65, 0
1, 382920, Note_on_c, 0, 85, 110
1, 382920, Note_on_c, 0, 73, 110
1, 382920, Note_on_c, 0, 61, 110
1, 382920, Note_on_c, 0, 65, 110
1, 383030, Note_on_c, 0, 65, 0
1, 383040, Note_on_c, 0, 53, 110
1, 383150, Note_on_c, 0, 85, 0
1, 383150, Note_on_c, 0, 73, 0
1, 383150, Note_on_c, 0, 61, 0
1, 383150, Note_on_c, 0, 53, 0
1, 383160, Note_on_c, 0, 84, 110
1, 383160, Note_on_c, 0, 72, 110
1, 383160, Note_on_c, 0, 53, 110
1, 383270, Note_on_c, 0, 84, 0
1, 383270, Note_on_c, 0, 72, 0
1, 383270, Note_on_c, 0, 53, 0
1, 383280, Note_on_c, 0, 82, 110
1, 383280, Note_on_c, 0, 70, 110
1, 383400, Note_on_c, 0, 77, 110
1, 383400, Note_on_c, 0, 73, 110
1, 383510, Note_on_c, 0, 82, 0
1, 383510, Note_on_c, 0, 70, 0
1, 383510, Note_on_c, 0, 77, 0
1, 383510, Note_on_c, 0, 73, 0
1, 383520, Note_on_c, 0, 77, 110
1, 383520, Note_on_c, 0, 73, 110
1, 383520, Note_on_c, 0, 56, 110
1, 383520, Note_on_c, 0, 53, 110
1, 383630, Note_on_c, 0, 77, 0
1, 383630, Note_on_c, 0, 73, 0
1, 383630, Note_on_c, 0, 56, 0
1, 383630, Note_on_c, 0, 53, 0
1, 383640, Note_on_c, 0, 80, 110
1, 383640, Note_on_c, 0, 68, 110
1, 383640, Note_on_c, 0, 61, 110
1, 383640, Note_on_c, 0, 56, 110
1, 383640, Note_on_c, 0, 53, 110
1, 383760, Note_on_c, 0, 77, 110
1, 383760, Note_on_c, 0, 73, 110
1, 383870, Note_on_c, 0, 80, 0
1, 383870, Note_on_c, 0, 68, 0
1, 383870, Note_on_c, 0, 61, 0
1, 383870, Note_on_c, 0, 56, 0
1, 383870, Note_on_c, 0, 53, 0
1, 383870, Note_on_c, 0, 77, 0
1, 383870, Note_on_c, 0, 73, 0
1, 383880, Note_on_c, 0, 77, 110
1, 383880, Note_on_c, 0, 73, 110
1, 383880, Note_on_c, 0, 60, 110
1, 383990, Note_on_c, 0, 77, 0
1, 383990, Note_on_c, 0, 73, 0
1, 383990, Note_on_c, 0, 60, 0
1, 384000, Note_on_c, 0, 58, 110
1, 384000, Note_on_c, 0, 55, 110
1, 384110, Note_on_c, 0, 58, 0
1, 384120, Note_on_c, 0, 63, 110
1, 384230, Note_on_c, 0, 63, 0
1, 384230, Note_on_c, 0, 55, 0
1, 384240, Note_on_c, 0, 82, 110
1, 384240, Note_on_c, 0, 70, 110
1, 384240, Note_on_c, 0, 63, 110
1, 384350, Note_on_c, 0, 82, 0
1, 384350, Note_on_c, 0, 70, 0
1, 384350, Note_on_c, 0, 63, 0
1, 384360, Note_on_c, 0, 87, 110
1, 384360, Note_on_c, 0, 75, 110
1, 384360, Note_on_c, 0, 67, 110
1, 384360, Note_on_c, 0, 63, 110
1, 384470, Note_on_c, 0, 67, 0
1, 384480, Note_on_c, 0, 55, 110
1, 384590, Note_on_c, 0, 87, 0
1, 384590, Note_on_c, 0, 75, 0
1, 384590, Note_on_c, 0, 55, 0
1, 384590, Note_on_c, 0, 63, 0
1, 384600, Note_on_c, 0, 85, 110
1, 384600, Note_on_c, 0, 73, 110
1, 384600, Note_on_c, 0, 55, 110
1, 384710, Note_on_c, 0, 85, 0
1, 384710, Note_on_c, 0, 73, 0
1, 384710, Note_on_c, 0, 55, 0
1, 384720, Note_on_c, 0, 84, 110
1, 384720, Note_on_c, 0, 72, 110
1, 384720, Note_on_c, 0, 63, 110
1, 384720, Note_on_c, 0, 68, 110
1, 384720, Note_on_c, 0, 56, 110
1, 384840, Note_on_c, 0, 80, 110
1, 384840, Note_on_c, 0, 75, 110
1, 384950, Note_on_c, 0, 84, 0
1, 384950, Note_on_c, 0, 72, 0
1, 384950, Note_on_c, 0, 63, 0
1, 384950, Note_on_c, 0, 68, 0
1, 384950, Note_on_c, 0, 56, 0
1, 384950, Note_on_c, 0, 80, 0
1, 384950, Note_on_c, 0, 75, 0
1, 384960, Note_on_c, 0, 80, 110
1, 384960, Note_on_c, 0, 75, 110
1, 385070, Note_on_c, 0, 80, 0
1, 385070, Note_on_c, 0, 75, 0
1, 385080, Note_on_c, 0, 82, 110
1, 385080, Note_on_c, 0, 70, 110
1, 385080, Note_on_c, 0, 63, 110
1, 385080, Note_on_c, 0, 68, 110
1, 385200, Note_on_c, 0, 80, 110
1, 385200, Note_on_c, 0, 75, 110
1, 385310, Note_on_c, 0, 82, 0
1, 385310, Note_on_c, 0, 70, 0
1, 385310, Note_on_c, 0, 63, 0
1, 385310, Note_on_c, 0, 68, 0
1, 385310, Note_on_c, 0, 80, 0
1, 385310, Note_on_c, 0, 75, 0
1, 385320, Note_on_c, 0, 79, 110
1, 385320, Note_on_c, 0, 75, 110
1, 385320, Note_on_c, 0, 67, 110
1, 385430, Note_on_c, 0, 79, 0
1, 385430, Note_on_c, 0, 75, 0
1, 385430, Note_on_c, 0, 67, 0
1, 385440, Note_on_c, 0, 78, 110
1, 385440, Note_on_c, 0, 81, 110
1, 385440, Note_on_c, 0, 72, 110
1, 385440, Note_on_c, 0, 66, 110
1, 385440, Note_on_c, 0, 69, 110
1, 385440, Note_on_c, 0, 63, 110
1, 385550, Note_on_c, 0, 66, 0
1, 385550, Note_on_c, 0, 69, 0
1, 385550, Note_on_c, 0, 63, 0
1, 385560, Note_on_c, 0, 63, 110
1, 385560, Note_on_c, 0, 51, 110
1, 385670, Note_on_c, 0, 78, 0
1, 385670, Note_on_c, 0, 81, 0
1, 385670, Note_on_c, 0, 72, 0
1, 385670, Note_on_c, 0, 63, 0
1, 385670, Note_on_c, 0, 51, 0
1, 385680, Note_on_c, 0, 72, 110
1, 385680, Note_on_c, 0, 78, 110
1, 385680, Note_on_c, 0, 81, 110
1, 385680, Note_on_c, 0, 69, 110
1, 385680, Note_on_c, 0, 63, 110
1, 385680, Note_on_c, 0, 51, 110
1, 385790, Note_on_c, 0, 72, 0
1, 385790, Note_on_c, 0, 78, 0
1, 385790, Note_on_c, 0, 81, 0
1, 385790, Note_on_c, 0, 69, 0
1, 385790, Note_on_c, 0, 63, 0
1, 385790, Note_on_c, 0, 51, 0
1, 385800, Note_on_c, 0, 72, 110
1, 385800, Note_on_c, 0, 78, 110
1, 385800, Note_on_c, 0, 81, 110
1, 385800, Note_on_c, 0, 69, 110
1, 385800, Note_on_c, 0, 63, 110
1, 385800, Note_on_c, 0, 51, 110
1, 385910, Note_on_c, 0, 63, 0
1, 385910, Note_on_c, 0, 51, 0
1, 385920, Note_on_c, 0, 65, 110
1, 385920, Note_on_c, 0, 53, 110
1, 386030, Note_on_c, 0, 65, 0
1, 386030, Note_on_c, 0, 53, 0
1, 386040, Note_on_c, 0, 66, 110
1, 386040, Note_on_c, 0, 54, 110
1, 386150, Note_on_c, 0, 72, 0
1, 386150, Note_on_c, 0, 78, 0
1, 386150, Note_on_c, 0, 81, 0
1, 386150, Note_on_c, 0, 69, 0
1, 386150, Note_on_c, 0, 66, 0
1, 386150, Note_on_c, 0, 54, 0
1, 386160, Note_on_c, 0, 54, 110
1, 386160, Note_on_c, 0, 42, 110
1, 386267, Control_c, 0, 64, 127
1, 386270, Note_on_c, 0, 54, 0
1, 386270, Note_on_c, 0, 42, 0
1, 386280, Note_on_c, 0, 54, 110
1, 386280, Note_on_c, 0, 42, 110
1, 386390, Note_on_c, 0, 54, 0
1, 386390, Note_on_c, 0, 42, 0
1, 386400, Note_on_c, 0, 63, 110
1, 386400, Note_on_c, 0, 66, 110
1, 386400, Note_on_c, 0, 69, 110
1, 386400, Note_on_c, 0, 60, 110
1, 386400, Note_on_c, 0, 54, 110
1, 386400, Note_on_c, 0, 42, 110
1, 386510, Note_on_c, 0, 63, 0
1, 386510, Note_on_c, 0, 66, 0
1, 386510, Note_on_c, 0, 69, 0
1, 386510, Note_on_c, 0, 60, 0
1, 386510, Note_on_c, 0, 54, 0
1, 386510, Note_on_c, 0, 42, 0
1, 386520, Note_on_c, 0, 63, 110
1, 386520, Note_on_c, 0, 66, 110
1, 386520, Note_on_c, 0, 69, 110
1, 386520, Note_on_c, 0, 60, 110
1, 386520, Note_on_c, 0, 54, 110
1, 386520, Note_on_c, 0, 42, 110
1, 386630, Note_on_c, 0, 54, 0
1, 386630, Note_on_c, 0, 42, 0
1, 386640, Note_on_c, 0, 53, 110
1, 386640, Note_on_c, 0, 41, 110
1, 386750, Note_on_c, 0, 53, 0
1, 386750, Note_on_c, 0, 41, 0
1, 386760, Note_on_c, 0, 51, 110
1, 386760, Note_on_c, 0, 39, 110
1, 386870, Note_on_c, 0, 63, 0
1, 386870, Note_on_c, 0, 66, 0
1, 386870, Note_on_c, 0, 69, 0
1, 386870, Note_on_c, 0, 60, 0
1, 386870, Note_on_c, 0, 51, 0
1, 386870, Note_on_c, 0, 39, 0
1, 386880, Note_on_c, 0, 61, 110
1, 386880, Note_on_c, 0, 49, 110
1, 386909, Control_c, 0, 64, 0
1, 386990, Note_on_c, 0, 61, 0
1, 386990, Note_on_c, 0, 49, 0
1, 387000, Note_on_c, 0, 61, 110
1, 387000, Note_on_c, 0, 49, 110
1, 387015, Control_c, 0, 64, 127
1, 387110, Note_on_c, 0, 61, 0
1, 387110, Note_on_c, 0, 49, 0
1, 387120, Note_on_c, 0, 73, 110
1, 387120, Note_on_c, 0, 77, 110
1, 387120, Note_on_c, 0, 82, 110
1, 387120, Note_on_c, 0, 70, 110
1, 387120, Note_on_c, 0, 61, 110
1, 387120, Note_on_c, 0, 49, 110
1, 387230, Note_on_c, 0, 73, 0
1, 387230, Note_on_c, 0, 77, 0
1, 387230, Note_on_c, 0, 82, 0
1, 387230, Note_on_c, 0, 70, 0
1, 387230, Note_on_c, 0, 61, 0
1, 387230, Note_on_c, 0, 49, 0
1, 387240, Note_on_c, 0, 73, 110
1, 387240, Note_on_c, 0, 77, 110
1, 387240, Note_on_c, 0, 82, 110
1, 387240, Note_on_c, 0, 70, 110
1, 387240, Note_on_c, 0, 61, 110
1, 387240, Note_on_c, 0, 49, 110
1, 387350, Note_on_c, 0, 61, 0
1, 387350, Note_on_c, 0, 49, 0
1, 387360, Note_on_c, 0, 63, 110
1, 387360, Note_on_c, 0, 51, 110
1, 387470, Note_on_c, 0, 63, 0
1, 387470, Note_on_c, 0, 51, 0
1, 387480, Note_on_c, 0, 65, 110
1, 387480, Note_on_c, 0, 53, 110
1, 387561, Control_c, 0, 64, 0
1, 387590, Note_on_c, 0, 73, 0
1, 387590, Note_on_c, 0, 77, 0
1, 387590, Note_on_c, 0, 82, 0
1, 387590, Note_on_c, 0, 70, 0
1, 387590, Note_on_c, 0, 65, 0
1, 387590, Note_on_c, 0, 53, 0
1, 387600, Note_on_c, 0, 53, 110
1, 387600, Note_on_c, 0, 41, 110
1, 387710, Note_on_c, 0, 53, 0
1, 387710, Note_on_c, 0, 41, 0
1, 387720, Note_on_c, 0, 53, 110
1, 387720, Note_on_c, 0, 41, 110
1, 387723, Control_c, 0, 64, 127
1, 387830, Note_on_c, 0, 53, 0
1, 387830, Note_on_c, 0, 41, 0
1, 387840, Note_on_c, 0, 65, 110
1, 387840, Note_on_c, 0, 70, 110
1, 387840, Note_on_c, 0, 61, 110
1, 387840, Note_on_c, 0, 53, 110
1, 387840, Note_on_c, 0, 41, 110
1, 387950, Note_on_c, 0, 65, 0
1, 387950, Note_on_c, 0, 70, 0
1, 387950, Note_on_c, 0, 61, 0
1, 387950, Note_on_c, 0, 53, 0
1, 387950, Note_on_c, 0, 41, 0
1, 387960, Note_on_c, 0, 65, 110
1, 387960, Note_on_c, 0, 70, 110
1, 387960, Note_on_c, 0, 61, 110
1, 387960, Note_on_c, 0, 53, 110
1, 387960, Note_on_c, 0, 41, 110
1, 388070, Note_on_c, 0, 53, 0
1, 388070, Note_on_c, 0, 41, 0
1, 388080, Note_on_c, 0, 51, 110
1, 388080, Note_on_c, 0, 39, 110
1, 388190, Note_on_c, 0, 51, 0
1, 388190, Note_on_c, 0, 39, 0
1, 388200, Note_on_c, 0, 49, 110
1, 388200, Note_on_c, 0, 37, 110
1, 388303, Control_c, 0, 64, 0
1, 388310, Note_on_c, 0, 65, 0
1, 388310, Note_on_c, 0, 70, 0
1, 388310, Note_on_c, 0, 61, 0
1, 388310, Note_on_c, 0, 49, 0
1, 388310, Note_on_c, 0, 37, 0
1, 388320, Note_on_c, 0, 87, 110
1, 388320, Note_on_c, 0, 75, 110
1, 388320, Note_on_c, 0, 48, 110
1, 388320, Note_on_c, 0, 36, 110
1, 388430, Note_on_c, 0, 87, 0
1, 388430, Note_on_c, 0, 75, 0
1, 388440, Note_on_c, 0, 87, 110
1, 388440, Note_on_c, 0, 75, 110
1, 388486, Control_c, 0, 64, 127
1, 388550, Note_on_c, 0, 87, 0
1, 388550, Note_on_c, 0, 75, 0
1, 388550, Note_on_c, 0, 48, 0
1, 388550, Note_on_c, 0, 36, 0
1, 388560, Note_on_c, 0, 87, 110
1, 388560, Note_on_c, 0, 75, 110
1, 388560, Note_on_c, 0, 63, 110
1, 388560, Note_on_c, 0, 66, 110
1, 388560, Note_on_c, 0, 58, 110
1, 388670, Note_on_c, 0, 87, 0
1, 388670, Note_on_c, 0, 75, 0
1, 388670, Note_on_c, 0, 63, 0
1, 388670, Note_on_c, 0, 66, 0
1, 388670, Note_on_c, 0, 58, 0
1, 388680, Note_on_c, 0, 87, 110
1, 388680, Note_on_c, 0, 75, 110
1, 388680, Note_on_c, 0, 63, 110
1, 388680, Note_on_c, 0, 66, 110
1, 388680, Note_on_c, 0, 58, 110
1, 388790, Note_on_c, 0, 87, 0
1, 388790, Note_on_c, 0, 75, 0
1, 388800, Note_on_c, 0, 89, 110
1, 388800, Note_on_c, 0, 77, 110
1, 388910, Note_on_c, 0, 89, 0
1, 388910, Note_on_c, 0, 77, 0
1, 388920, Note_on_c, 0, 90, 110
1, 388920, Note_on_c, 0, 78, 110
1, 389030, Note_on_c, 0, 90, 0
1, 389030, Note_on_c, 0, 78, 0
1, 389030, Note_on_c, 0, 63, 0
1, 389030, Note_on_c, 0, 66, 0
1, 389030, Note_on_c, 0, 58, 0
1, 389036, Control_c, 0, 64, 0
1, 389040, Note_on_c, 0, 90, 110
1, 389040, Note_on_c, 0, 78, 110
1, 389040, Note_on_c, 0, 51, 110
1, 389040, Note_on_c, 0, 39, 110
1, 389150, Note_on_c, 0, 90, 0
1, 389150, Note_on_c, 0, 78, 0
1, 389160, Note_on_c, 0, 90, 110
1, 389160, Note_on_c, 0, 78, 110
1, 389270, Note_on_c, 0, 90, 0
1, 389270, Note_on_c, 0, 78, 0
1, 389270, Note_on_c, 0, 51, 0
1, 389270, Note_on_c, 0, 39, 0
1, 389280, Note_on_c, 0, 90, 110
1, 389280, Note_on_c, 0, 78, 110
1, 389280, Note_on_c, 0, 60, 110
1, 389280, Note_on_c, 0, 58, 110
1, 389390, Note_on_c, 0, 90, 0
1, 389390, Note_on_c, 0, 78, 0
1, 389390, Note_on_c, 0, 60, 0
1, 389390, Note_on_c, 0, 58, 0
1, 389400, Note_on_c, 0, 90, 110
1, 389400, Note_on_c, 0, 78, 110
1, 389400, Note_on_c, 0, 53, 110
1, 389400, Note_on_c, 0, 41, 110
1, 389510, Note_on_c, 0, 90, 0
1, 389510, Note_on_c, 0, 78, 0
1, 389520, Note_on_c, 0, 89, 110
1, 389520, Note_on_c, 0, 77, 110
1, 389630, Note_on_c, 0, 89, 0
1, 389630, Note_on_c, 0, 77, 0
1, 389630, Note_on_c, 0, 53, 0
1, 389630, Note_on_c, 0, 41, 0
1, 389640, Note_on_c, 0, 87, 110
1, 389640, Note_on_c, 0, 75, 110
1, 389640, Note_on_c, 0, 60, 110
1, 389640, Note_on_c, 0, 65, 110
1, 389640, Note_on_c, 0, 57, 110
1, 389750, Note_on_c, 0, 87, 0
1, 389750, Note_on_c, 0, 75, 0
1, 389750, Note_on_c, 0, 60, 0
1, 389750, Note_on_c, 0, 65, 0
1, 389750, Note_on_c, 0, 57, 0
1, 389760, Note_on_c, 0, 85, 110
1, 389760, Note_on_c, 0, 73, 110
1, 389760, Note_on_c, 0, 58, 110
1, 389760, Note_on_c, 0, 61, 110
1, 389760, Note_on_c, 0, 65, 110
1, 389760, Note_on_c, 0, 53, 110
1, 389870, Note_on_c, 0, 85, 0
1, 389870, Note_on_c, 0, 73, 0
1, 389880, Note_on_c, 0, 70, 110
1, 389880, Note_on_c, 0, 61, 110
1, 389908, Control_c, 0, 64, 127
1, 389990, Note_on_c, 0, 70, 0
1, 389990, Note_on_c, 0, 61, 0
1, 389990, Note_on_c, 0, 58, 0
1, 389990, Note_on_c, 0, 61, 0
1, 389990, Note_on_c, 0, 65, 0
1, 389990, Note_on_c, 0, 53, 0
1, 390000, Note_on_c, 0, 70, 110
1, 390000, Note_on_c, 0, 61, 110
1, 390000, Note_on_c, 0, 46, 110
1, 390000, Note_on_c, 0, 34, 110
1, 390110, Note_on_c, 0, 70, 0
1, 390110, Note_on_c, 0, 61, 0
1, 390110, Note_on_c, 0, 46, 0
1, 390110, Note_on_c, 0, 34, 0
1, 390120, Note_on_c, 0, 70, 110
1, 390120, Note_on_c, 0, 61, 110
1, 390120, Note_on_c, 0, 46, 110
1, 390120, Note_on_c, 0, 34, 110
1, 390230, Note_on_c, 0, 70, 0
1, 390230, Note_on_c, 0, 61, 0
1, 390240, Note_on_c, 0, 72, 110
1, 390240, Note_on_c, 0, 63, 110
1, 390350, Note_on_c, 0, 72, 0
1, 390350, Note_on_c, 0, 63, 0
1, 390360, Note_on_c, 0, 73, 110
1, 390360, Note_on_c, 0, 65, 110
1, 390470, Note_on_c, 0, 73, 0
1, 390470, Note_on_c, 0, 65, 0
1, 390480, Note_on_c, 0, 73, 110
1, 390480, Note_on_c, 0, 65, 110
1, 390590, Note_on_c, 0, 73, 0
1, 390590, Note_on_c, 0, 65, 0
1, 390600, Note_on_c, 0, 75, 110
1, 390600, Note_on_c, 0, 66, 110
1, 390617, Control_c, 0, 64, 0
1, 390710, Note_on_c, 0, 75, 0
1, 390710, Note_on_c, 0, 66, 0
1, 390710, Note_on_c, 0, 46, 0
1, 390710, Note_on_c, 0, 34, 0
1, 390720, Note_on_c, 0, 73, 110
1, 390720, Note_on_c, 0, 65, 110
1, 390720, Note_on_c, 0, 48, 110
1, 390720, Note_on_c, 0, 36, 110
1, 390830, Note_on_c, 0, 73, 0
1, 390830, Note_on_c, 0, 65, 0
1, 390830, Note_on_c, 0, 48, 0
1, 390830, Note_on_c, 0, 36, 0
1, 390840, Note_on_c, 0, 72, 110
1, 390840, Note_on_c, 0, 63, 110
1, 390840, Note_on_c, 0, 48, 110
1, 390840, Note_on_c, 0, 36, 110
1, 390950, Note_on_c, 0, 72, 0
1, 390950, Note_on_c, 0, 63, 0
1, 390960, Note_on_c, 0, 70, 110
1, 390960, Note_on_c, 0, 61, 110
1, 391070, Note_on_c, 0, 70, 0
1, 391070, Note_on_c, 0, 61, 0
1, 391080, Note_on_c, 0, 68, 110
1, 391080, Note_on_c, 0, 60, 110
1, 391190, Note_on_c, 0, 68, 0
1, 391190, Note_on_c, 0, 60, 0
1, 391200, Note_on_c, 0, 70, 110
1, 391200, Note_on_c, 0, 61, 110
1, 391310, Note_on_c, 0, 70, 0
1, 391310, Note_on_c, 0, 61, 0
1, 391320, Note_on_c, 0, 72, 110
1, 391320, Note_on_c, 0, 63, 110
1, 391430, Note_on_c, 0, 72, 0
1, 391430, Note_on_c, 0, 63, 0
1, 391430, Note_on_c, 0, 48, 0
1, 391430, Note_on_c, 0, 36, 0
1, 391440, Note_on_c, 0, 70, 110
1, 391440, Note_on_c, 0, 65, 110
1, 391440, Note_on_c, 0, 49, 110
1, 391440, Note_on_c, 0, 37, 110
1, 391550, Note_on_c, 0, 70, 0
1, 391550, Note_on_c, 0, 65, 0
1, 391550, Note_on_c, 0, 49, 0
1, 391550, Note_on_c, 0, 37, 0
1, 391560, Note_on_c, 0, 70, 110
1, 391560, Note_on_c, 0, 54, 110
1, 391560, Note_on_c, 0, 42, 110
1, 391680, Note_on_c, 0, 72, 110
1, 391790, Note_on_c, 0, 70, 0
1, 391790, Note_on_c, 0, 54, 0
1, 391790, Note_on_c, 0, 42, 0
1, 391790, Note_on_c, 0, 72, 0
1, 391800, Note_on_c, 0, 68, 110
1, 391800, Note_on_c, 0, 53, 110
1, 391800, Note_on_c, 0, 41, 110
1, 391910, Note_on_c, 0, 68, 0
1, 391910, Note_on_c, 0, 53, 0
1, 391910, Note_on_c, 0, 41, 0
1, 391920, Note_on_c, 0, 75, 110
1, 391920, Note_on_c, 0, 71, 110
1, 391920, Note_on_c, 0, 66, 110
1, 391920, Note_on_c, 0, 51, 110
1, 391920, Note_on_c, 0, 39, 110
1, 392030, Note_on_c, 0, 75, 0
1, 392040, Note_on_c, 0, 73, 110
1, 392150, Note_on_c, 0, 73, 0
1, 392150, Note_on_c, 0, 71, 0
1, 392150, Note_on_c, 0, 66, 0
1, 392150, Note_on_c, 0, 51, 0
1, 392150, Note_on_c, 0, 39, 0
1, 392160, Note_on_c, 0, 71, 110
1, 392160, Note_on_c, 0, 63, 110
1, 392160, Note_on_c, 0, 51, 110
1, 392270, Note_on_c, 0, 71, 0
1, 392270, Note_on_c, 0, 63, 0
1, 392270, Note_on_c, 0, 51, 0
1, 392280, Note_on_c, 0, 75, 110
1, 392280, Note_on_c, 0, 71, 110
1, 392280, Note_on_c, 0, 68, 110
1, 392280, Note_on_c, 0, 56, 110
1, 392390, Note_on_c, 0, 75, 0
1, 392400, Note_on_c, 0, 77, 110
1, 392400, Note_on_c, 0, 73, 110
1, 392510, Note_on_c, 0, 77, 0
1, 392510, Note_on_c, 0, 71, 0
1, 392510, Note_on_c, 0, 68, 0
1, 392510, Note_on_c, 0, 56, 0
1, 392510, Note_on_c, 0, 73, 0
1, 392520, Note_on_c, 0, 78, 110
1, 392520, Note_on_c, 0, 75, 110
1, 392520, Note_on_c, 0, 70, 110
1, 392520, Note_on_c, 0, 66, 110
1, 392520, Note_on_c, 0, 54, 110
1, 392630, Note_on_c, 0, 78, 0
1, 392630, Note_on_c, 0, 75, 0
1, 392630, Note_on_c, 0, 70, 0
1, 392630, Note_on_c, 0, 66, 0
1, 392630, Note_on_c, 0, 54, 0
1, 392640, Note_on_c, 0, 77, 110
1, 392640, Note_on_c, 0, 80, 110
1, 392640, Note_on_c, 0, 68, 110
1, 392640, Note_on_c, 0, 65, 110
1, 392640, Note_on_c, 0, 53, 110
1, 392750, Note_on_c, 0, 77, 0
1, 392760, Note_on_c, 0, 75, 110
1, 392870, Note_on_c, 0, 75, 0
1, 392870, Note_on_c, 0, 80, 0
1, 392870, Note_on_c, 0, 68, 0
1, 392870, Note_on_c, 0, 65, 0
1, 392870, Note_on_c, 0, 53, 0
1, 392880, Note_on_c, 0, 72, 110
1, 392880, Note_on_c, 0, 53, 110
1, 392880, Note_on_c, 0, 41, 110
1, 392990, Note_on_c, 0, 72, 0
1, 392990, Note_on_c, 0, 53, 0
1, 392990, Note_on_c, 0, 41, 0
1, 393000, Note_on_c, 0, 77, 110
1, 393000, Note_on_c, 0, 73, 110
1, 393000, Note_on_c, 0, 58, 110
1, 393000, Note_on_c, 0, 46, 110
1, 393110, Note_on_c, 0, 77, 0
1, 393120, Note_on_c, 0, 78, 110
1, 393120, Note_on_c, 0, 75, 110
1, 393230, Note_on_c, 0, 78, 0
1, 393230, Note_on_c, 0, 73, 0
1, 393230, Note_on_c, 0, 58, 0
1, 393230, Note_on_c, 0, 46, 0
1, 393230, Note_on_c, 0, 75, 0
1, 393240, Note_on_c, 0, 80, 110
1, 393240, Note_on_c, 0, 77, 110
1, 393240, Note_on_c, 0, 71, 110
1, 393240, Note_on_c, 0, 56, 110
1, 393240, Note_on_c, 0, 44, 110
1, 393350, Note_on_c, 0, 80, 0
1, 393350, Note_on_c, 0, 77, 0
1, 393350, Note_on_c, 0, 71, 0
1, 393350, Note_on_c, 0, 56, 0
1, 393350, Note_on_c, 0, 44, 0
1, 393360, Note_on_c, 0, 75, 110
1, 393360, Note_on_c, 0, 82, 110
1, 393360, Note_on_c, 0, 70, 110
1, 393360, Note_on_c, 0, 54, 110
1, 393360, Note_on_c, 0, 42, 110
1, 393470, Note_on_c, 0, 75, 0
1, 393480, Note_on_c, 0, 77, 110
1, 393590, Note_on_c, 0, 77, 0
1, 393590, Note_on_c, 0, 82, 0
1, 393590, Note_on_c, 0, 70, 0
1, 393590, Note_on_c, 0, 54, 0
1, 393590, Note_on_c, 0, 42, 0
1, 393600, Note_on_c, 0, 74, 110
1, 393600, Note_on_c, 0, 66, 110
1, 393600, Note_on_c, 0, 54, 110
1, 393710, Note_on_c, 0, 74, 0
1, 393710, Note_on_c, 0, 66, 0
1, 393710, Note_on_c, 0, 54, 0
1, 393720, Note_on_c, 0, 78, 110
1, 393720, Note_on_c, 0, 75, 110
1, 393720, Note_on_c, 0, 71, 110
1, 393720, Note_on_c, 0, 59, 110
1, 393830, Note_on_c, 0, 78, 0
1, 393840, Note_on_c, 0, 80, 110
1, 393840, Note_on_c, 0, 77, 110
1, 393950, Note_on_c, 0, 80, 0
1, 393950, Note_on_c, 0, 75, 0
1, 393950, Note_on_c, 0, 71, 0
1, 393950, Note_on_c, 0, 59, 0
1, 393950, Note_on_c, 0, 77, 0
1, 393960, Note_on_c, 0, 82, 110
1, 393960, Note_on_c, 0, 78, 110
1, 393960, Note_on_c, 0, 73, 110
1, 393960, Note_on_c, 0, 70, 110
1, 393960, Note_on_c, 0, 58, 110
1, 394070, Note_on_c, 0, 82, 0
1, 394070, Note_on_c, 0, 78, 0
1, 394070, Note_on_c, 0, 73, 0
1, 394070, Note_on_c, 0, 70, 0
1, 394070, Note_on_c, 0, 58, 0
1, 394080, Note_on_c, 0, 83, 110
1, 394080, Note_on_c, 0, 77, 110
1, 394080, Note_on_c, 0, 71, 110
1, 394080, Note_on_c, 0, 68, 110
1, 394080, Note_on_c, 0, 56, 110
1, 394190, Note_on_c, 0, 83, 0
1, 394190, Note_on_c, 0, 77, 0
1, 394200, Note_on_c, 0, 82, 110
1, 394310, Note_on_c, 0, 82, 0
1, 394310, Note_on_c, 0, 71, 0
1, 394310, Note_on_c, 0, 68, 0
1, 394310, Note_on_c, 0, 56, 0
1, 394320, Note_on_c, 0, 78, 110
1, 394320, Note_on_c, 0, 75, 110
1, 394320, Note_on_c, 0, 56, 110
1, 394320, Note_on_c, 0, 44, 110
1, 394430, Note_on_c, 0, 78, 0
1, 394430, Note_on_c, 0, 75, 0
1, 394430, Note_on_c, 0, 56, 0
1, 394430, Note_on_c, 0, 44, 0
1, 394440, Note_on_c, 0, 80, 110
1, 394440, Note_on_c, 0, 77, 110
1, 394440, Note_on_c, 0, 61, 110
1, 394440, Note_on_c, 0, 49, 110
1, 394550, Note_on_c, 0, 80, 0
1, 394550, Note_on_c, 0, 77, 0
1, 394560, Note_on_c, 0, 82, 110
1, 394560, Note_on_c, 0, 78, 110
1, 394670, Note_on_c, 0, 82, 0
1, 394670, Note_on_c, 0, 78, 0
1, 394670, Note_on_c, 0, 61, 0
1, 394670, Note_on_c, 0, 49, 0
1, 394680, Note_on_c, 0, 83, 110
1, 394680, Note_on_c, 0, 80, 110
1, 394680, Note_on_c, 0, 59, 110
1, 394680, Note_on_c, 0, 47, 110
1, 394790, Note_on_c, 0, 83, 0
1, 394790, Note_on_c, 0, 80, 0
1, 394790, Note_on_c, 0, 59, 0
1, 394790, Note_on_c, 0, 47, 0
1, 394800, Note_on_c, 0, 85, 110
1, 394800, Note_on_c, 0, 78, 110
1, 394800, Note_on_c, 0, 58, 110
1, 394800, Note_on_c, 0, 46, 110
1, 394910, Note_on_c, 0, 85, 0
1, 394910, Note_on_c, 0, 78, 0
1, 394910, Note_on_c, 0, 58, 0
1, 394910, Note_on_c, 0, 46, 0
1, 394920, Note_on_c, 0, 83, 110
1, 394920, Note_on_c, 0, 77, 110
1, 394920, Note_on_c, 0, 56, 110
1, 394920, Note_on_c, 0, 44, 110
1, 395030, Note_on_c, 0, 83, 0
1, 395030, Note_on_c, 0, 77, 0
1, 395030, Note_on_c, 0, 56, 0
1, 395030, Note_on_c, 0, 44, 0
1, 395040, Note_on_c, 0, 82, 110
1, 395040, Note_on_c, 0, 78, 110
1, 395040, Note_on_c, 0, 54, 110
1, 395040, Note_on_c, 0, 42, 110
1, 395150, Note_on_c, 0, 82, 0
1, 395150, Note_on_c, 0, 78, 0
1, 395150, Note_on_c, 0, 54, 0
1, 395150, Note_on_c, 0, 42, 0
1, 395160, Note_on_c, 0, 82, 110
1, 395160, Note_on_c, 0, 70, 110
1, 395160, Note_on_c, 0, 61, 110
1, 395160, Note_on_c, 0, 49, 110
1, 395270, Note_on_c, 0, 82, 0
1, 395270, Note_on_c, 0, 70, 0
1, 395270, Note_on_c, 0, 61, 0
1, 395270, Note_on_c, 0, 49, 0
1, 395280, Note_on_c, 0, 80, 110
1, 395280, Note_on_c, 0, 70, 110
1, 395280, Note_on_c, 0, 61, 110
1, 395280, Note_on_c, 0, 49, 110
1, 395390, Note_on_c, 0, 80, 0
1, 395390, Note_on_c, 0, 70, 0
1, 395390, Note_on_c, 0, 61, 0
1, 395390, Note_on_c, 0, 49, 0
1, 395400, Note_on_c, 0, 78, 110
1, 395400, Note_on_c, 0, 70, 110
1, 395400, Note_on_c, 0, 61, 110
1, 395400, Note_on_c, 0, 49, 110
1, 395510, Note_on_c, 0, 78, 0
1, 395510, Note_on_c, 0, 70, 0
1, 395510, Note_on_c, 0, 61, 0
1, 395510, Note_on_c, 0, 49, 0
1, 395520, Note_on_c, 0, 78, 110
1, 395520, Note_on_c, 0, 70, 110
1, 395520, Note_on_c, 0, 66, 110
1, 395520, Note_on_c, 0, 54, 110
1, 395630, Note_on_c, 0, 78, 0
1, 395630, Note_on_c, 0, 70, 0
1, 395640, Note_on_c, 0, 80, 110
1, 395640, Note_on_c, 0, 71, 110
1, 395750, Note_on_c, 0, 80, 0
1, 395750, Note_on_c, 0, 71, 0
1, 395750, Note_on_c, 0, 66, 0
1, 395750, Note_on_c, 0, 54, 0
1, 395760, Note_on_c, 0, 82, 110
1, 395760, Note_on_c, 0, 73, 110
1, 395870, Note_on_c, 0, 82, 0
1, 395870, Note_on_c, 0, 73, 0
1, 395880, Note_on_c, 0, 78, 110
1, 395880, Note_on_c, 0, 73, 110
1, 395880, Note_on_c, 0, 58, 110
1, 395990, Note_on_c, 0, 78, 0
1, 395990, Note_on_c, 0, 73, 0
1, 395990, Note_on_c, 0, 58, 0
1, 396000, Note_on_c, 0, 75, 110
1, 396000, Note_on_c, 0, 58, 110
1, 396110, Note_on_c, 0, 75, 0
1, 396110, Note_on_c, 0, 58, 0
1, 396120, Note_on_c, 0, 73, 110
1, 396120, Note_on_c, 0, 58, 110
1, 396230, Note_on_c, 0, 73, 0
1, 396230, Note_on_c, 0, 58, 0
1, 396240, Note_on_c, 0, 71, 110
1, 396240, Note_on_c, 0, 58, 110
1, 396350, Note_on_c, 0, 71, 0
1, 396350, Note_on_c, 0, 58, 0
1, 396360, Note_on_c, 0, 70, 110
1, 396360, Note_on_c, 0, 59, 110
1, 396470, Note_on_c, 0, 70, 0
1, 396470, Note_on_c, 0, 59, 0
1, 396480, Note_on_c, 0, 77, 110
1, 396480, Note_on_c, 0, 68, 110
1, 396480, Note_on_c, 0, 61, 110
1, 396590, Note_on_c, 0, 77, 0
1, 396590, Note_on_c, 0, 68, 0
1, 396590, Note_on_c, 0, 61, 0
1, 396600, Note_on_c, 0, 78, 110
1, 396600, Note_on_c, 0, 70, 110
1, 396600, Note_on_c, 0, 61, 110
1, 396710, Note_on_c, 0, 78, 0
1, 396710, Note_on_c, 0, 70, 0
1, 396710, Note_on_c, 0, 61, 0
1, 396720, Note_on_c, 0, 78, 110
1, 396720, Note_on_c, 0, 70, 110
1, 396720, Note_on_c, 0, 63, 110
1, 396830, Note_on_c, 0, 78, 0
1, 396830, Note_on_c, 0, 70, 0
1, 396830, Note_on_c, 0, 63, 0
1, 396840, Note_on_c, 0, 78, 110
1, 396840, Note_on_c, 0, 70, 110
1, 396840, Note_on_c, 0, 61, 110
1, 396950, Note_on_c, 0, 78, 0
1, 396950, Note_on_c, 0, 70, 0
1, 396950, Note_on_c, 0, 61, 0
1, 396960, Note_on_c, 0, 78, 110
1, 396960, Note_on_c, 0, 70, 110
1, 396960, Note_on_c, 0, 59, 110
1, 397070, Note_on_c, 0, 78, 0
1, 397070, Note_on_c, 0, 70, 0
1, 397070, Note_on_c, 0, 59, 0
1, 397080, Note_on_c, 0, 80, 110
1, 397080, Note_on_c, 0, 71, 110
1, 397080, Note_on_c, 0, 58, 110
1, 397190, Note_on_c, 0, 80, 0
1, 397190, Note_on_c, 0, 71, 0
1, 397190, Note_on_c, 0, 58, 0
1, 397200, Note_on_c, 0, 82, 110
1, 397200, Note_on_c, 0, 73, 110
1, 397200, Note_on_c, 0, 56, 110
1, 397310, Note_on_c, 0, 82, 0
1, 397310, Note_on_c, 0, 73, 0
1, 397310, Note_on_c, 0, 56, 0
1, 397320, Note_on_c, 0, 82, 110
1, 397320, Note_on_c, 0, 73, 110
1, 397320, Note_on_c, 0, 54, 110
1, 397430, Note_on_c, 0, 82, 0
1, 397430, Note_on_c, 0, 73, 0
1, 397430, Note_on_c, 0, 54, 0
1, 397440, Note_on_c, 0, 83, 110
1, 397440, Note_on_c, 0, 75, 110
1, 397440, Note_on_c, 0, 54, 110
1, 397550, Note_on_c, 0, 83, 0
1, 397550, Note_on_c, 0, 75, 0
1, 397550, Note_on_c, 0, 54, 0
1, 397560, Note_on_c, 0, 82, 110
1, 397560, Note_on_c, 0, 73, 110
1, 397560, Note_on_c, 0, 54, 110
1, 397670, Note_on_c, 0, 82, 0
1, 397670, Note_on_c, 0, 73, 0
1, 397670, Note_on_c, 0, 54, 0
1, 397680, Note_on_c, 0, 80, 110
1, 397680, Note_on_c, 0, 71, 110
1, 397680, Note_on_c, 0, 54, 110
1, 397790, Note_on_c, 0, 80, 0
1, 397790, Note_on_c, 0, 71, 0
1, 397790, Note_on_c, 0, 54, 0
1, 397800, Note_on_c, 0, 78, 110
1, 397800, Note_on_c, 0, 70, 110
1, 397800, Note_on_c, 0, 56, 110
1, 397910, Note_on_c, 0, 78, 0
1, 397910, Note_on_c, 0, 70, 0
1, 397910, Note_on_c, 0, 56, 0
1, 397920, Note_on_c, 0, 77, 110
1, 397920, Note_on_c, 0, 68, 110
1, 397920, Note_on_c, 0, 58, 110
1, 398030, Note_on_c, 0, 77, 0
1, 398030, Note_on_c, 0, 68, 0
1, 398030, Note_on_c, 0, 58, 0
1, 398040, Note_on_c, 0, 87, 110
1, 398040, Note_on_c, 0, 75, 110
1, 398040, Note_on_c, 0, 66, 110
1, 398040, Note_on_c, 0, 58, 110
1, 398150, Note_on_c, 0, 87, 0
1, 398150, Note_on_c, 0, 75, 0
1, 398150, Note_on_c, 0, 66, 0
1, 398150, Note_on_c, 0, 58, 0
1, 398160, Note_on_c, 0, 87, 110
1, 398160, Note_on_c, 0, 78, 110
1, 398160, Note_on_c, 0, 59, 110
1, 398270, Note_on_c, 0, 87, 0
1, 398270, Note_on_c, 0, 78, 0
1, 398270, Note_on_c, 0, 59, 0
1, 398280, Note_on_c, 0, 87, 110
1, 398280, Note_on_c, 0, 78, 110
1, 398280, Note_on_c, 0, 58, 110
1, 398390, Note_on_c, 0, 87, 0
1, 398390, Note_on_c, 0, 78, 0
1, 398390, Note_on_c, 0, 58, 0
1, 398400, Note_on_c, 0, 87, 110
1, 398400, Note_on_c, 0, 66, 110
1, 398400, Note_on_c, 0, 56, 110
1, 398510, Note_on_c, 0, 87, 0
1, 398510, Note_on_c, 0, 66, 0
1, 398510, Note_on_c, 0, 56, 0
1, 398520, Note_on_c, 0, 89, 110
1, 398520, Note_on_c, 0, 68, 110
1, 398520, Note_on_c, 0, 54, 110
1, 398630, Note_on_c, 0, 89, 0
1, 398630, Note_on_c, 0, 68, 0
1, 398630, Note_on_c, 0, 54, 0
1, 398640, Note_on_c, 0, 90, 110
1, 398640, Note_on_c, 0, 70, 110
1, 398640, Note_on_c, 0, 53, 110
1, 398750, Note_on_c, 0, 90, 0
1, 398750, Note_on_c, 0, 70, 0
1, 398750, Note_on_c, 0, 53, 0
1, 398760, Note_on_c, 0, 90, 110
1, 398760, Note_on_c, 0, 70, 110
1, 398760, Note_on_c, 0, 63, 110
1, 398760, Note_on_c, 0, 51, 110
1, 398870, Note_on_c, 0, 90, 0
1, 398870, Note_on_c, 0, 70, 0
1, 398870, Note_on_c, 0, 63, 0
1, 398880, Note_on_c, 0, 92, 110
1, 398880, Note_on_c, 0, 71, 110
1, 398880, Note_on_c, 0, 63, 110
1, 398990, Note_on_c, 0, 92, 0
1, 398990, Note_on_c, 0, 71, 0
1, 398990, Note_on_c, 0, 63, 0
1, 398990, Note_on_c, 0, 51, 0
1, 399000, Note_on_c, 0, 90, 110
1, 399000, Note_on_c, 0, 70, 110
1, 399000, Note_on_c, 0, 63, 110
1, 399110, Note_on_c, 0, 90, 0
1, 399110, Note_on_c, 0, 70, 0
1, 399110, Note_on_c, 0, 63, 0
1, 399120, Note_on_c, 0, 89, 110
1, 399120, Note_on_c, 0, 80, 110
1, 399120, Note_on_c, 0, 63, 110
1, 399230, Note_on_c, 0, 89, 0
1, 399230, Note_on_c, 0, 80, 0
1, 399230, Note_on_c, 0, 63, 0
1, 399240, Note_on_c, 0, 87, 110
1, 399240, Note_on_c, 0, 78, 110
1, 399240, Note_on_c, 0, 65, 110
1, 399350, Note_on_c, 0, 87, 0
1, 399350, Note_on_c, 0, 78, 0
1, 399350, Note_on_c, 0, 65, 0
1, 399360, Note_on_c, 0, 85, 110
1, 399360, Note_on_c, 0, 77, 110
1, 399360, Note_on_c, 0, 66, 110
1, 399470, Note_on_c, 0, 85, 0
1, 399470, Note_on_c, 0, 77, 0
1, 399470, Note_on_c, 0, 66, 0
1, 399480, Note_on_c, 0, 84, 110
1, 399480, Note_on_c, 0, 75, 110
1, 399480, Note_on_c, 0, 68, 110
1, 399590, Note_on_c, 0, 84, 0
1, 399590, Note_on_c, 0, 75, 0
1, 399590, Note_on_c, 0, 68, 0
1, 399600, Note_on_c, 0, 90, 110
1, 399600, Note_on_c, 0, 82, 110
1, 399600, Note_on_c, 0, 60, 110
1, 399710, Note_on_c, 0, 90, 0
1, 399710, Note_on_c, 0, 82, 0
1, 399710, Note_on_c, 0, 60, 0
1, 399720, Note_on_c, 0, 89, 110
1, 399720, Note_on_c, 0, 80, 110
1, 399720, Note_on_c, 0, 61, 110
1, 399830, Note_on_c, 0, 89, 0
1, 399830, Note_on_c, 0, 80, 0
1, 399830, Note_on_c, 0, 61, 0
1, 399840, Note_on_c, 0, 87, 110
1, 399840, Note_on_c, 0, 78, 110
1, 399840, Note_on_c, 0, 61, 110
1, 399950, Note_on_c, 0, 87, 0
1, 399950, Note_on_c, 0, 78, 0
1, 399950, Note_on_c, 0, 61, 0
1, 399960, Note_on_c, 0, 85, 110
1, 399960, Note_on_c, 0, 77, 110
1, 399960, Note_on_c, 0, 63, 110
1, 400070, Note_on_c, 0, 85, 0
1, 400070, Note_on_c, 0, 77, 0
1, 400070, Note_on_c, 0, 63, 0
1, 400080, Note_on_c, 0, 84, 110
1, 400080, Note_on_c, 0, 75, 110
1, 400080, Note_on_c, 0, 65, 110
1, 400190, Note_on_c, 0, 84, 0
1, 400190, Note_on_c, 0, 75, 0
1, 400190, Note_on_c, 0, 65, 0
1, 400200, Note_on_c, 0, 82, 110
1, 400200, Note_on_c, 0, 73, 110
1, 400200, Note_on_c, 0, 66, 110
1, 400310, Note_on_c, 0, 82, 0
1, 400310, Note_on_c, 0, 73, 0
1, 400310, Note_on_c, 0, 66, 0
1, 400320, Note_on_c, 0, 89, 110
1, 400320, Note_on_c, 0, 80, 110
1, 400320, Note_on_c, 0, 58, 110
1, 400430, Note_on_c, 0, 89, 0
1, 400430, Note_on_c, 0, 80, 0
1, 400430, Note_on_c, 0, 58, 0
1, 400440, Note_on_c, 0, 87, 110
1, 400440, Note_on_c, 0, 78, 110
1, 400440, Note_on_c, 0, 60, 110
1, 400550, Note_on_c, 0, 87, 0
1, 400550, Note_on_c, 0, 78, 0
1, 400550, Note_on_c, 0, 60, 0
1, 400560, Note_on_c, 0, 85, 110
1, 400560, Note_on_c, 0, 77, 110
1, 400560, Note_on_c, 0, 60, 110
1, 400670, Note_on_c, 0, 85, 0
1, 400670, Note_on_c, 0, 77, 0
1, 400670, Note_on_c, 0, 60, 0
1, 400680, Note_on_c, 0, 84, 110
1, 400680, Note_on_c, 0, 75, 110
1, 400680, Note_on_c, 0, 61, 110
1, 400790, Note_on_c, 0, 84, 0
1, 400790, Note_on_c, 0, 75, 0
1, 400790, Note_on_c, 0, 61, 0
1, 400800, Note_on_c, 0, 82, 110
1, 400800, Note_on_c, 0, 73, 110
1, 400800, Note_on_c, 0, 63, 110
1, 400910, Note_on_c, 0, 82, 0
1, 400910, Note_on_c, 0, 73, 0
1, 400910, Note_on_c, 0, 63, 0
1, 400920, Note_on_c, 0, 81, 110
1, 400920, Note_on_c, 0, 72, 110
1, 400920, Note_on_c, 0, 65, 110
1, 401030, Note_on_c, 0, 81, 0
1, 401030, Note_on_c, 0, 72, 0
1, 401030, Note_on_c, 0, 65, 0
1, 401040, Note_on_c, 0, 85, 110
1, 401040, Note_on_c, 0, 77, 110
1, 401040, Note_on_c, 0, 55, 110
1, 401150, Note_on_c, 0, 85, 0
1, 401150, Note_on_c, 0, 77, 0
1, 401150, Note_on_c, 0, 55, 0
1, 401160, Note_on_c, 0, 84, 110
1, 401160, Note_on_c, 0, 75, 110
1, 401160, Note_on_c, 0, 57, 110
1, 401270, Note_on_c, 0, 84, 0
1, 401270, Note_on_c, 0, 75, 0
1, 401270, Note_on_c, 0, 57, 0
1, 401280, Note_on_c, 0, 82, 110
1, 401280, Note_on_c, 0, 73, 110
1, 401280, Note_on_c, 0, 61, 110
1, 401280, Note_on_c, 0, 58, 110
1, 401390, Note_on_c, 0, 61, 0
1, 401390, Note_on_c, 0, 58, 0
1, 401400, Note_on_c, 0, 61, 110
1, 401400, Note_on_c, 0, 58, 110
1, 401510, Note_on_c, 0, 82, 0
1, 401510, Note_on_c, 0, 73, 0
1, 401510, Note_on_c, 0, 61, 0
1, 401510, Note_on_c, 0, 58, 0
1, 401520, Note_on_c, 0, 61, 110
1, 401520, Note_on_c, 0, 58, 110
1, 401630, Note_on_c, 0, 61, 0
1, 401630, Note_on_c, 0, 58, 0
1, 401640, Note_on_c, 0, 82, 110
1, 401640, Note_on_c, 0, 70, 110
1, 401640, Note_on_c, 0, 61, 110
1, 401640, Note_on_c, 0, 58, 110
1, 401650, Control_c, 0, 64, 127
1, 401683, Control_c, 0, 64, 0
1, 401750, Note_on_c, 0, 82, 0
1, 401750, Note_on_c, 0, 70, 0
1, 401750, Note_on_c, 0, 61, 0
1, 401750, Note_on_c, 0, 58, 0
1, 401760, Note_on_c, 0, 82, 110
1, 401760, Note_on_c, 0, 70, 110
1, 401760, Note_on_c, 0, 63, 110
1, 401760, Note_on_c, 0, 60, 110
1, 401870, Note_on_c, 0, 82, 0
1, 401870, Note_on_c, 0, 70, 0
1, 401870, Note_on_c, 0, 63, 0
1, 401870, Note_on_c, 0, 60, 0
1, 401880, Note_on_c, 0, 82, 110
1, 401880, Note_on_c, 0, 70, 110
1, 401880, Note_on_c, 0, 65, 110
1, 401880, Note_on_c, 0, 61, 110
1, 401990, Note_on_c, 0, 82, 0
1, 401990, Note_on_c, 0, 70, 0
1, 401990, Note_on_c, 0, 65, 0
1, 401990, Note_on_c, 0, 61, 0
1, 402000, Note_on_c, 0, 82, 110
1, 402000, Note_on_c, 0, 70, 110
1, 402000, Note_on_c, 0, 65, 110
1, 402000, Note_on_c, 0, 61, 110
1, 402110, Note_on_c, 0, 82, 0
1, 402110, Note_on_c, 0, 70, 0
1, 402110, Note_on_c, 0, 65, 0
1, 402110, Note_on_c, 0, 61, 0
1, 402120, Note_on_c, 0, 84, 110
1, 402120, Note_on_c, 0, 72, 110
1, 402120, Note_on_c, 0, 63, 110
1, 402120, Note_on_c, 0, 60, 110
1, 402230, Note_on_c, 0, 84, 0
1, 402230, Note_on_c, 0, 72, 0
1, 402230, Note_on_c, 0, 63, 0
1, 402230, Note_on_c, 0, 60, 0
1, 402240, Note_on_c, 0, 85, 110
1, 402240, Note_on_c, 0, 73, 110
1, 402240, Note_on_c, 0, 61, 110
1, 402240, Note_on_c, 0, 58, 110
1, 402350, Note_on_c, 0, 85, 0
1, 402350, Note_on_c, 0, 73, 0
1, 402350, Note_on_c, 0, 61, 0
1, 402350, Note_on_c, 0, 58, 0
1, 402360, Note_on_c, 0, 85, 110
1, 402360, Note_on_c, 0, 73, 110
1, 402360, Note_on_c, 0, 58, 110
1, 402360, Note_on_c, 0, 46, 110
1, 402470, Note_on_c, 0, 85, 0
1, 402470, Note_on_c, 0, 73, 0
1, 402470, Note_on_c, 0, 58, 0
1, 402470, Note_on_c, 0, 46, 0
1, 402480, Note_on_c, 0, 84, 110
1, 402480, Note_on_c, 0, 72, 110
1, 402480, Note_on_c, 0, 60, 110
1, 402480, Note_on_c, 0, 48, 110
1, 402590, Note_on_c, 0, 84, 0
1, 402590, Note_on_c, 0, 72, 0
1, 402590, Note_on_c, 0, 60, 0
1, 402590, Note_on_c, 0, 48, 0
1, 402600, Note_on_c, 0, 82, 110
1, 402600, Note_on_c, 0, 70, 110
1, 402600, Note_on_c, 0, 61, 110
1, 402600, Note_on_c, 0, 49, 110
1, 402710, Note_on_c, 0, 82, 0
1, 402710, Note_on_c, 0, 70, 0
1, 402710, Note_on_c, 0, 61, 0
1, 402710, Note_on_c, 0, 49, 0
1, 402720, Note_on_c, 0, 73, 110
1, 402720, Note_on_c, 0, 82, 110
1, 402720, Note_on_c, 0, 70, 110
1, 402720, Note_on_c, 0, 58, 110
1, 402720, Note_on_c, 0, 46, 110
1, 402830, Note_on_c, 0, 73, 0
1, 402830, Note_on_c, 0, 82, 0
1, 402830, Note_on_c, 0, 70, 0
1, 402830, Note_on_c, 0, 58, 0
1, 402830, Note_on_c, 0, 46, 0
1, 402840, Note_on_c, 0, 73, 110
1, 402840, Note_on_c, 0, 82, 110
1, 402840, Note_on_c, 0, 70, 110
1, 402840, Note_on_c, 0, 56, 110
1, 402840, Note_on_c, 0, 44, 110
1, 402950, Note_on_c, 0, 73, 0
1, 402950, Note_on_c, 0, 82, 0
1, 402950, Note_on_c, 0, 70, 0
1, 402950, Note_on_c, 0, 56, 0
1, 402950, Note_on_c, 0, 44, 0
1, 402960, Note_on_c, 0, 73, 110
1, 402960, Note_on_c, 0, 82, 110
1, 402960, Note_on_c, 0, 70, 110
1, 402960, Note_on_c, 0, 54, 110
1, 402960, Note_on_c, 0, 42, 110
1, 403070, Note_on_c, 0, 73, 0
1, 403070, Note_on_c, 0, 82, 0
1, 403070, Note_on_c, 0, 70, 0
1, 403070, Note_on_c, 0, 54, 0
1, 403070, Note_on_c, 0, 42, 0
1, 403080, Note_on_c, 0, 82, 110
1, 403080, Note_on_c, 0, 70, 110
1, 403080, Note_on_c, 0, 61, 110
1, 403080, Note_on_c, 0, 58, 110
1, 403190, Note_on_c, 0, 82, 0
1, 403190, Note_on_c, 0, 70, 0
1, 403190, Note_on_c, 0, 61, 0
1, 403190, Note_on_c, 0, 58, 0
1, 403200, Note_on_c, 0, 82, 110
1, 403200, Note_on_c, 0, 70, 110
1, 403200, Note_on_c, 0, 63, 110
1, 403200, Note_on_c, 0, 59, 110
1, 403310, Note_on_c, 0, 82, 0
1, 403310, Note_on_c, 0, 70, 0
1, 403310, Note_on_c, 0, 63, 0
1, 403310, Note_on_c, 0, 59, 0
1, 403320, Note_on_c, 0, 82, 110
1, 403320, Note_on_c, 0, 70, 110
1, 403320, Note_on_c, 0, 64, 110
1, 403320, Note_on_c, 0, 61, 110
1, 403430, Note_on_c, 0, 82, 0
1, 403430, Note_on_c, 0, 70, 0
1, 403430, Note_on_c, 0, 64, 0
1, 403430, Note_on_c, 0, 61, 0
1, 403440, Note_on_c, 0, 82, 110
1, 403440, Note_on_c, 0, 70, 110
1, 403440, Note_on_c, 0, 64, 110
1, 403440, Note_on_c, 0, 61, 110
1, 403550, Note_on_c, 0, 82, 0
1, 403550, Note_on_c, 0, 70, 0
1, 403550, Note_on_c, 0, 64, 0
1, 403550, Note_on_c, 0, 61, 0
1, 403560, Note_on_c, 0, 84, 110
1, 403560, Note_on_c, 0, 72, 110
1, 403560, Note_on_c, 0, 63, 110
1, 403560, Note_on_c, 0, 60, 110
1, 403670, Note_on_c, 0, 84, 0
1, 403670, Note_on_c, 0, 72, 0
1, 403670, Note_on_c, 0, 63, 0
1, 403670, Note_on_c, 0, 60, 0
1, 403680, Note_on_c, 0, 85, 110
1, 403680, Note_on_c, 0, 73, 110
1, 403680, Note_on_c, 0, 61, 110
1, 403680, Note_on_c, 0, 58, 110
1, 403790, Note_on_c, 0, 85, 0
1, 403790, Note_on_c, 0, 73, 0
1, 403790, Note_on_c, 0, 61, 0
1, 403790, Note_on_c, 0, 58, 0
1, 403800, Note_on_c, 0, 76, 110
1, 403800, Note_on_c, 0, 85, 110
1, 403800, Note_on_c, 0, 73, 110
1, 403800, Note_on_c, 0, 54, 110
1, 403800, Note_on_c, 0, 42, 110
1, 403910, Note_on_c, 0, 76, 0
1, 403910, Note_on_c, 0, 85, 0
1, 403910, Note_on_c, 0, 73, 0
1, 403910, Note_on_c, 0, 54, 0
1, 403910, Note_on_c, 0, 42, 0
1, 403920, Note_on_c, 0, 84, 110
1, 403920, Note_on_c, 0, 72, 110
1, 403920, Note_on_c, 0, 54, 110
1, 403920, Note_on_c, 0, 42, 110
1, 404030, Note_on_c, 0, 84, 0
1, 404030, Note_on_c, 0, 72, 0
1, 404030, Note_on_c, 0, 54, 0
1, 404030, Note_on_c, 0, 42, 0
1, 404040, Note_on_c, 0, 82, 110
1, 404040, Note_on_c, 0, 70, 110
1, 404040, Note_on_c, 0, 54, 110
1, 404040, Note_on_c, 0, 42, 110
1, 404150, Note_on_c, 0, 82, 0
1, 404150, Note_on_c, 0, 70, 0
1, 404150, Note_on_c, 0, 54, 0
1, 404150, Note_on_c, 0, 42, 0
1, 404160, Note_on_c, 0, 73, 110
1, 404160, Note_on_c, 0, 82, 110
1, 404160, Note_on_c, 0, 70, 110
1, 404160, Note_on_c, 0, 55, 110
1, 404160, Note_on_c, 0, 43, 110
1, 404270, Note_on_c, 0, 73, 0
1, 404270, Note_on_c, 0, 82, 0
1, 404270, Note_on_c, 0, 70, 0
1, 404270, Note_on_c, 0, 55, 0
1, 404270, Note_on_c, 0, 43, 0
1, 404280, Note_on_c, 0, 73, 110
1, 404280, Note_on_c, 0, 64, 110
1, 404280, Note_on_c, 0, 58, 110
1, 404280, Note_on_c, 0, 55, 110
1, 404286, Control_c, 0, 64, 127
1, 404390, Note_on_c, 0, 73, 0
1, 404390, Note_on_c, 0, 64, 0
1, 404390, Note_on_c, 0, 58, 0
1, 404390, Note_on_c, 0, 55, 0
1, 404400, Note_on_c, 0, 73, 110
1, 404400, Note_on_c, 0, 64, 110
1, 404400, Note_on_c, 0, 58, 110
1, 404400, Note_on_c, 0, 55, 110
1, 404510, Note_on_c, 0, 73, 0
1, 404510, Note_on_c, 0, 64, 0
1, 404510, Note_on_c, 0, 58, 0
1, 404510, Note_on_c, 0, 55, 0
1, 404520, Note_on_c, 0, 73, 110
1, 404520, Note_on_c, 0, 64, 110
1, 404520, Note_on_c, 0, 58, 110
1, 404520, Note_on_c, 0, 55, 110
1, 404630, Note_on_c, 0, 73, 0
1, 404630, Note_on_c, 0, 64, 0
1, 404630, Note_on_c, 0, 58, 0
1, 404630, Note_on_c, 0, 55, 0
1, 404640, Note_on_c, 0, 74, 110
1, 404640, Note_on_c, 0, 66, 110
1, 404640, Note_on_c, 0, 54, 110
1, 404750, Note_on_c, 0, 74, 0
1, 404750, Note_on_c, 0, 66, 0
1, 404750, Note_on_c, 0, 54, 0
1, 404760, Note_on_c, 0, 76, 110
1, 404760, Note_on_c, 0, 67, 110
1, 404760, Note_on_c, 0, 52, 110
1, 404841, Control_c, 0, 64, 0
1, 404870, Note_on_c, 0, 76, 0
1, 404870, Note_on_c, 0, 67, 0
1, 404870, Note_on_c, 0, 52, 0
1, 404880, Note_on_c, 0, 76, 110
1, 404880, Note_on_c, 0, 73, 110
1, 404880, Note_on_c, 0, 52, 110
1, 404990, Note_on_c, 0, 76, 0
1, 404990, Note_on_c, 0, 73, 0
1, 404990, Note_on_c, 0, 52, 0
1, 405000, Note_on_c, 0, 78, 110
1, 405000, Note_on_c, 0, 74, 110
1, 405000, Note_on_c, 0, 50, 110
1, 405110, Note_on_c, 0, 78, 0
1, 405110, Note_on_c, 0, 74, 0
1, 405110, Note_on_c, 0, 50, 0
1, 405120, Note_on_c, 0, 79, 110
1, 405120, Note_on_c, 0, 76, 110
1, 405120, Note_on_c, 0, 49, 110
1, 405230, Note_on_c, 0, 79, 0
1, 405230, Note_on_c, 0, 76, 0
1, 405230, Note_on_c, 0, 49, 0
1, 405240, Note_on_c, 0, 73, 110
1, 405240, Note_on_c, 0, 76, 110
1, 405240, Note_on_c, 0, 67, 110
1, 405240, Note_on_c, 0, 54, 110
1, 405350, Note_on_c, 0, 73, 0
1, 405350, Note_on_c, 0, 76, 0
1, 405350, Note_on_c, 0, 67, 0
1, 405350, Note_on_c, 0, 54, 0
1, 405360, Note_on_c, 0, 71, 110
1, 405360, Note_on_c, 0, 74, 110
1, 405360, Note_on_c, 0, 66, 110
1, 405360, Note_on_c, 0, 42, 110
1, 405470, Note_on_c, 0, 71, 0
1, 405470, Note_on_c, 0, 74, 0
1, 405470, Note_on_c, 0, 66, 0
1, 405470, Note_on_c, 0, 42, 0
1, 405480, Note_on_c, 0, 70, 110
1, 405480, Note_on_c, 0, 73, 110
1, 405480, Note_on_c, 0, 64, 110
1, 405480, Note_on_c, 0, 54, 110
1, 405590, Note_on_c, 0, 70, 0
1, 405590, Note_on_c, 0, 73, 0
1, 405590, Note_on_c, 0, 64, 0
1, 405590, Note_on_c, 0, 54, 0
1, 405600, Note_on_c, 0, 66, 110
1, 405600, Note_on_c, 0, 71, 110
1, 405600, Note_on_c, 0, 62, 110
1, 405600, Note_on_c, 0, 59, 110
1, 405600, Note_on_c, 0, 50, 110
1, 405710, Note_on_c, 0, 59, 0
1, 405710, Note_on_c, 0, 50, 0
1, 405720, Note_on_c, 0, 59, 110
1, 405720, Note_on_c, 0, 50, 110
1, 405739, Control_c, 0, 64, 127
1, 405830, Note_on_c, 0, 66, 0
1, 405830, Note_on_c, 0, 71, 0
1, 405830, Note_on_c, 0, 62, 0
1, 405830, Note_on_c, 0, 59, 0
1, 405830, Note_on_c, 0, 50, 0
1, 405840, Note_on_c, 0, 83, 110
1, 405840, Note_on_c, 0, 71, 110
1, 405840, Note_on_c, 0, 59, 110
1, 405840, Note_on_c, 0, 50, 110
1, 405950, Note_on_c, 0, 83, 0
1, 405950, Note_on_c, 0, 71, 0
1, 405950, Note_on_c, 0, 59, 0
1, 405950, Note_on_c, 0, 50, 0
1, 405960, Note_on_c, 0, 83, 110
1, 405960, Note_on_c, 0, 71, 110
1, 405960, Note_on_c, 0, 59, 110
1, 405960, Note_on_c, 0, 50, 110
1, 406070, Note_on_c, 0, 59, 0
1, 406070, Note_on_c, 0, 50, 0
1, 406080, Note_on_c, 0, 61, 110
1, 406080, Note_on_c, 0, 52, 110
1, 406190, Note_on_c, 0, 61, 0
1, 406190, Note_on_c, 0, 52, 0
1, 406200, Note_on_c, 0, 62, 110
1, 406200, Note_on_c, 0, 54, 110
1, 406257, Control_c, 0, 64, 0
1, 406310, Note_on_c, 0, 83, 0
1, 406310, Note_on_c, 0, 71, 0
1, 406310, Note_on_c, 0, 62, 0
1, 406310, Note_on_c, 0, 54, 0
1, 406320, Note_on_c, 0, 62, 110
1, 406320, Note_on_c, 0, 54, 110
1, 406430, Note_on_c, 0, 62, 0
1, 406430, Note_on_c, 0, 54, 0
1, 406440, Note_on_c, 0, 64, 110
1, 406440, Note_on_c, 0, 55, 110
1, 406550, Note_on_c, 0, 64, 0
1, 406550, Note_on_c, 0, 55, 0
1, 406560, Note_on_c, 0, 85, 110
1, 406560, Note_on_c, 0, 73, 110
1, 406560, Note_on_c, 0, 62, 110
1, 406560, Note_on_c, 0, 54, 110
1, 406670, Note_on_c, 0, 85, 0
1, 406670, Note_on_c, 0, 73, 0
1, 406670, Note_on_c, 0, 62, 0
1, 406670, Note_on_c, 0, 54, 0
1, 406680, Note_on_c, 0, 85, 110
1, 406680, Note_on_c, 0, 73, 110
1, 406680, Note_on_c, 0, 61, 110
1, 406680, Note_on_c, 0, 52, 110
1, 406790, Note_on_c, 0, 61, 0
1, 406790, Note_on_c, 0, 52, 0
1, 406800, Note_on_c, 0, 59, 110
1, 406800, Note_on_c, 0, 50, 110
1, 406910, Note_on_c, 0, 59, 0
1, 406910, Note_on_c, 0, 50, 0
1, 406920, Note_on_c, 0, 58, 110
1, 406920, Note_on_c, 0, 49, 110
1, 407030, Note_on_c, 0, 85, 0
1, 407030, Note_on_c, 0, 73, 0
1, 407030, Note_on_c, 0, 58, 0
1, 407030, Note_on_c, 0, 49, 0
1, 407040, Note_on_c, 0, 87, 110
1, 407040, Note_on_c, 0, 75, 110
1, 407040, Note_on_c, 0, 57, 110
1, 407040, Note_on_c, 0, 49, 110
1, 407150, Note_on_c, 0, 87, 0
1, 407150, Note_on_c, 0, 75, 0
1, 407150, Note_on_c, 0, 57, 0
1, 407150, Note_on_c, 0, 49, 0
1, 407160, Note_on_c, 0, 88, 110
1, 407160, Note_on_c, 0, 76, 110
1, 407160, Note_on_c, 0, 47, 110
1, 407270, Note_on_c, 0, 88, 0
1, 407270, Note_on_c, 0, 76, 0
1, 407270, Note_on_c, 0, 47, 0
1, 407280, Note_on_c, 0, 90, 110
1, 407280, Note_on_c, 0, 78, 110
1, 407280, Note_on_c, 0, 64, 110
1, 407280, Note_on_c, 0, 52, 110
1, 407390, Note_on_c, 0, 90, 0
1, 407390, Note_on_c, 0, 78, 0
1, 407390, Note_on_c, 0, 64, 0
1, 407390, Note_on_c, 0, 52, 0
1, 407400, Note_on_c, 0, 91, 110
1, 407400, Note_on_c, 0, 83, 110
1, 407400, Note_on_c, 0, 79, 110
1, 407400, Note_on_c, 0, 64, 110
1, 407400, Note_on_c, 0, 52, 110
1, 407510, Note_on_c, 0, 91, 0
1, 407510, Note_on_c, 0, 83, 0
1, 407510, Note_on_c, 0, 79, 0
1, 407520, Note_on_c, 0, 91, 110
1, 407520, Note_on_c, 0, 83, 110
1, 407520, Note_on_c, 0, 79, 110
1, 407592, Control_c, 0, 64, 127
1, 407630, Note_on_c, 0, 91, 0
1, 407630, Note_on_c, 0, 83, 0
1, 407630, Note_on_c, 0, 79, 0
1, 407640, Note_on_c, 0, 91, 110
1, 407640, Note_on_c, 0, 83, 110
1, 407640, Note_on_c, 0, 79, 110
1, 407750, Note_on_c, 0, 91, 0
1, 407750, Note_on_c, 0, 83, 0
1, 407750, Note_on_c, 0, 79, 0
1, 407760, Note_on_c, 0, 91, 110
1, 407760, Note_on_c, 0, 83, 110
1, 407760, Note_on_c, 0, 79, 110
1, 407870, Note_on_c, 0, 91, 0
1, 407870, Note_on_c, 0, 83, 0
1, 407870, Note_on_c, 0, 79, 0
1, 407880, Note_on_c, 0, 93, 110
1, 407880, Note_on_c, 0, 84, 110
1, 407880, Note_on_c, 0, 81, 110
1, 407990, Note_on_c, 0, 93, 0
1, 407990, Note_on_c, 0, 84, 0
1, 407990, Note_on_c, 0, 81, 0
1, 407990, Note_on_c, 0, 64, 0
1, 407990, Note_on_c, 0, 52, 0
1, 408000, Note_on_c, 0, 91, 110
1, 408000, Note_on_c, 0, 83, 110
1, 408000, Note_on_c, 0, 79, 110
1, 408000, Note_on_c, 0, 66, 110
1, 408000, Note_on_c, 0, 54, 110
1, 408062, Control_c, 0, 64, 0
1, 408110, Note_on_c, 0, 91, 0
1, 408110, Note_on_c, 0, 83, 0
1, 408110, Note_on_c, 0, 79, 0
1, 408110, Note_on_c, 0, 66, 0
1, 408110, Note_on_c, 0, 54, 0
1, 408120, Note_on_c, 0, 90, 110
1, 408120, Note_on_c, 0, 81, 110
1, 408120, Note_on_c, 0, 78, 110
1, 408120, Note_on_c, 0, 66, 110
1, 408120, Note_on_c, 0, 54, 110
1, 408230, Note_on_c, 0, 90, 0
1, 408230, Note_on_c, 0, 81, 0
1, 408230, Note_on_c, 0, 78, 0
1, 408240, Note_on_c, 0, 88, 110
1, 408240, Note_on_c, 0, 76, 110
1, 408350, Note_on_c, 0, 88, 0
1, 408350, Note_on_c, 0, 76, 0
1, 408360, Note_on_c, 0, 87, 110
1, 408360, Note_on_c, 0, 75, 110
1, 408470, Note_on_c, 0, 87, 0
1, 408470, Note_on_c, 0, 75, 0
1, 408470, Note_on_c, 0, 66, 0
1, 408470, Note_on_c, 0, 54, 0
1, 408480, Note_on_c, 0, 84, 110
1, 408480, Note_on_c, 0, 93, 110
1, 408480, Note_on_c, 0, 81, 110
1, 408480, Note_on_c, 0, 51, 110
1, 408480, Note_on_c, 0, 54, 110
1, 408480, Note_on_c, 0, 42, 110
1, 408590, Note_on_c, 0, 84, 0
1, 408590, Note_on_c, 0, 93, 0
1, 408590, Note_on_c, 0, 81, 0
1, 408590, Note_on_c, 0, 51, 0
1, 408590, Note_on_c, 0, 54, 0
1, 408590, Note_on_c, 0, 42, 0
1, 408600, Note_on_c, 0, 84, 110
1, 408600, Note_on_c, 0, 93, 110
1, 408600, Note_on_c, 0, 81, 110
1, 408600, Note_on_c, 0, 51, 110
1, 408600, Note_on_c, 0, 54, 110
1, 408600, Note_on_c, 0, 42, 110
1, 408684, Control_c, 0, 64, 127
1, 408710, Note_on_c, 0, 84, 0
1, 408710, Note_on_c, 0, 93, 0
1, 408710, Note_on_c, 0, 81, 0
1, 408710, Note_on_c, 0, 51, 0
1, 408710, Note_on_c, 0, 54, 0
1, 408710, Note_on_c, 0, 42, 0
1, 408720, Note_on_c, 0, 84, 110
1, 408720, Note_on_c, 0, 93, 110
1, 408720, Note_on_c, 0, 81, 110
1, 408720, Note_on_c, 0, 51, 110
1, 408720, Note_on_c, 0, 54, 110
1, 408720, Note_on_c, 0, 42, 110
1, 408830, Note_on_c, 0, 84, 0
1, 408830, Note_on_c, 0, 93, 0
1, 408830, Note_on_c, 0, 81, 0
1, 408830, Note_on_c, 0, 51, 0
1, 408830, Note_on_c, 0, 54, 0
1, 408830, Note_on_c, 0, 42, 0
1, 408840, Note_on_c, 0, 84, 110
1, 408840, Note_on_c, 0, 93, 110
1, 408840, Note_on_c, 0, 81, 110
1, 408840, Note_on_c, 0, 51, 110
1, 408840, Note_on_c, 0, 54, 110
1, 408840, Note_on_c, 0, 42, 110
1, 408950, Note_on_c, 0, 84, 0
1, 408950, Note_on_c, 0, 93, 0
1, 408950, Note_on_c, 0, 81, 0
1, 408950, Note_on_c, 0, 51, 0
1, 408950, Note_on_c, 0, 54, 0
1, 408950, Note_on_c, 0, 42, 0
1, 408960, Note_on_c, 0, 83, 110
1, 408960, Note_on_c, 0, 91, 110
1, 408960, Note_on_c, 0, 79, 110
1, 408960, Note_on_c, 0, 55, 110
1, 408960, Note_on_c, 0, 43, 110
1, 409070, Note_on_c, 0, 83, 0
1, 409070, Note_on_c, 0, 91, 0
1, 409070, Note_on_c, 0, 79, 0
1, 409070, Note_on_c, 0, 55, 0
1, 409070, Note_on_c, 0, 43, 0
1, 409080, Note_on_c, 0, 81, 110
1, 409080, Note_on_c, 0, 90, 110
1, 409080, Note_on_c, 0, 78, 110
1, 409080, Note_on_c, 0, 57, 110
1, 409080, Note_on_c, 0, 45, 110
1, 409104, Control_c, 0, 64, 0
1, 409190, Note_on_c, 0, 81, 0
1, 409190, Note_on_c, 0, 90, 0
1, 409190, Note_on_c, 0, 78, 0
1, 409190, Note_on_c, 0, 57, 0
1, 409190, Note_on_c, 0, 45, 0
1, 409200, Note_on_c, 0, 78, 110
1, 409200, Note_on_c, 0, 87, 110
1, 409200, Note_on_c, 0, 75, 110
1, 409200, Note_on_c, 0, 57, 110
1, 409200, Note_on_c, 0, 45, 110
1, 409310, Note_on_c, 0, 78, 0
1, 409310, Note_on_c, 0, 87, 0
1, 409310, Note_on_c, 0, 75, 0
1, 409310, Note_on_c, 0, 57, 0
1, 409310, Note_on_c, 0, 45, 0
1, 409320, Note_on_c, 0, 59, 110
1, 409320, Note_on_c, 0, 47, 110
1, 409430, Note_on_c, 0, 59, 0
1, 409430, Note_on_c, 0, 47, 0
1, 409440, Note_on_c, 0, 79, 110
1, 409440, Note_on_c, 0, 88, 110
1, 409440, Note_on_c, 0, 76, 110
1, 409440, Note_on_c, 0, 57, 110
1, 409440, Note_on_c, 0, 45, 110
1, 409550, Note_on_c, 0, 79, 0
1, 409550, Note_on_c, 0, 88, 0
1, 409550, Note_on_c, 0, 76, 0
1, 409550, Note_on_c, 0, 57, 0
1, 409550, Note_on_c, 0, 45, 0
1, 409560, Note_on_c, 0, 79, 110
1, 409560, Note_on_c, 0, 88, 110
1, 409560, Note_on_c, 0, 76, 110
1, 409560, Note_on_c, 0, 55, 110
1, 409560, Note_on_c, 0, 43, 110
1, 409670, Note_on_c, 0, 55, 0
1, 409670, Note_on_c, 0, 43, 0
1, 409680, Note_on_c, 0, 54, 110
1, 409680, Note_on_c, 0, 42, 110
1, 409790, Note_on_c, 0, 54, 0
1, 409790, Note_on_c, 0, 42, 0
1, 409800, Note_on_c, 0, 52, 110
1, 409800, Note_on_c, 0, 40, 110
1, 409910, Note_on_c, 0, 52, 0
1, 409910, Note_on_c, 0, 40, 0
1, 409920, Note_on_c, 0, 52, 110
1, 409920, Note_on_c, 0, 40, 110
1, 410030, Note_on_c, 0, 52, 0
1, 410030, Note_on_c, 0, 40, 0
1, 410150, Note_on_c, 0, 79, 0
1, 410150, Note_on_c, 0, 88, 0
1, 410150, Note_on_c, 0, 76, 0
1, 410160, Note_on_c, 0, 83, 110
1, 410160, Note_on_c, 0, 90, 110
1, 410160, Note_on_c, 0, 78, 110
1, 410160, Note_on_c, 0, 51, 110
1, 410160, Note_on_c, 0, 39, 110
1, 410270, Note_on_c, 0, 83, 0
1, 410270, Note_on_c, 0, 90, 0
1, 410270, Note_on_c, 0, 78, 0
1, 410270, Note_on_c, 0, 51, 0
1, 410270, Note_on_c, 0, 39, 0
1, 410280, Note_on_c, 0, 83, 110
1, 410280, Note_on_c, 0, 90, 110
1, 410280, Note_on_c, 0, 78, 110
1, 410280, Note_on_c, 0, 51, 110
1, 410280, Note_on_c, 0, 39, 110
1, 410390, Note_on_c, 0, 83, 0
1, 410390, Note_on_c, 0, 90, 0
1, 410390, Note_on_c, 0, 78, 0
1, 410400, Note_on_c, 0, 91, 110
1, 410400, Note_on_c, 0, 79, 110
1, 410403, Control_c, 0, 64, 127
1, 410510, Note_on_c, 0, 91, 0
1, 410510, Note_on_c, 0, 79, 0
1, 410520, Note_on_c, 0, 93, 110
1, 410520, Note_on_c, 0, 81, 110
1, 410630, Note_on_c, 0, 93, 0
1, 410630, Note_on_c, 0, 81, 0
1, 410640, Note_on_c, 0, 93, 110
1, 410640, Note_on_c, 0, 81, 110
1, 410750, Note_on_c, 0, 93, 0
1, 410750, Note_on_c, 0, 81, 0
1, 410760, Note_on_c, 0, 95, 110
1, 410760, Note_on_c, 0, 83, 110
1, 410838, Control_c, 0, 64, 0
1, 410870, Note_on_c, 0, 95, 0
1, 410870, Note_on_c, 0, 83, 0
1, 410870, Note_on_c, 0, 51, 0
1, 410870, Note_on_c, 0, 39, 0
1, 410880, Note_on_c, 0, 93, 110
1, 410880, Note_on_c, 0, 81, 110
1, 410880, Note_on_c, 0, 66, 110
1, 410880, Note_on_c, 0, 71, 110
1, 410880, Note_on_c, 0, 63, 110
1, 410990, Note_on_c, 0, 93, 0
1, 410990, Note_on_c, 0, 81, 0
1, 410990, Note_on_c, 0, 66, 0
1, 410990, Note_on_c, 0, 71, 0
1, 410990, Note_on_c, 0, 63, 0
1, 411000, Note_on_c, 0, 91, 110
1, 411000, Note_on_c, 0, 79, 110
1, 411000, Note_on_c, 0, 67, 110
1, 411000, Note_on_c, 0, 71, 110
1, 411000, Note_on_c, 0, 64, 110
1, 411110, Control_c, 0, 64, 127
1, 411110, Note_on_c, 0, 91, 0
1, 411110, Note_on_c, 0, 79, 0
1, 411120, Note_on_c, 0, 90, 110
1, 411120, Note_on_c, 0, 78, 110
1, 411230, Note_on_c, 0, 90, 0
1, 411230, Note_on_c, 0, 78, 0
1, 411230, Note_on_c, 0, 67, 0
1, 411230, Note_on_c, 0, 71, 0
1, 411230, Note_on_c, 0, 64, 0
1, 411240, Note_on_c, 0, 88, 110
1, 411240, Note_on_c, 0, 76, 110
1, 411240, Note_on_c, 0, 64, 110
1, 411240, Note_on_c, 0, 52, 110
1, 411350, Note_on_c, 0, 88, 0
1, 411350, Note_on_c, 0, 76, 0
1, 411350, Note_on_c, 0, 64, 0
1, 411350, Note_on_c, 0, 52, 0
1, 411360, Note_on_c, 0, 91, 110
1, 411360, Note_on_c, 0, 79, 110
1, 411360, Note_on_c, 0, 61, 110
1, 411360, Note_on_c, 0, 49, 110
1, 411433, Control_c, 0, 64, 0
1, 411470, Note_on_c, 0, 91, 0
1, 411470, Note_on_c, 0, 79, 0
1, 411480, Note_on_c, 0, 93, 110
1, 411480, Note_on_c, 0, 81, 110
1, 411544, Control_c, 0, 64, 127
1, 411590, Note_on_c, 0, 93, 0
1, 411590, Note_on_c, 0, 81, 0
1, 411590, Note_on_c, 0, 61, 0
1, 411590, Note_on_c, 0, 49, 0
1, 411600, Note_on_c, 0, 91, 110
1, 411600, Note_on_c, 0, 79, 110
1, 411600, Note_on_c, 0, 64, 110
1, 411600, Note_on_c, 0, 69, 110
1, 411600, Note_on_c, 0, 61, 110
1, 411710, Note_on_c, 0, 91, 0
1, 411710, Note_on_c, 0, 79, 0
1, 411710, Note_on_c, 0, 64, 0
1, 411710, Note_on_c, 0, 69, 0
1, 411710, Note_on_c, 0, 61, 0
1, 411720, Note_on_c, 0, 90, 110
1, 411720, Note_on_c, 0, 78, 110
1, 411720, Note_on_c, 0, 66, 110
1, 411720, Note_on_c, 0, 69, 110
1, 411720, Note_on_c, 0, 62, 110
1, 411736, Control_c, 0, 64, 0
1, 411830, Note_on_c, 0, 90, 0
1, 411830, Note_on_c, 0, 78, 0
1, 411840, Note_on_c, 0, 88, 110
1, 411840, Note_on_c, 0, 76, 110
1, 411864, Control_c, 0, 64, 127
1, 411950, Note_on_c, 0, 88, 0
1, 411950, Note_on_c, 0, 76, 0
1, 411950, Note_on_c, 0, 66, 0
1, 411950, Note_on_c, 0, 69, 0
1, 411950, Note_on_c, 0, 62, 0
1, 411960, Note_on_c, 0, 86, 110
1, 411960, Note_on_c, 0, 74, 110
1, 411960, Note_on_c, 0, 62, 110
1, 411960, Note_on_c, 0, 50, 110
1, 412044, Control_c, 0, 64, 0
1, 412070, Note_on_c, 0, 86, 0
1, 412070, Note_on_c, 0, 74, 0
1, 412070, Note_on_c, 0, 62, 0
1, 412070, Note_on_c, 0, 50, 0
1, 412080, Note_on_c, 0, 90, 110
1, 412080, Note_on_c, 0, 78, 110
1, 412080, Note_on_c, 0, 59, 110
1, 412080, Note_on_c, 0, 47, 110
1, 412170, Control_c, 0, 64, 127
1, 412190, Note_on_c, 0, 90, 0
1, 412190, Note_on_c, 0, 78, 0
1, 412200, Note_on_c, 0, 91, 110
1, 412200, Note_on_c, 0, 79, 110
1, 412310, Note_on_c, 0, 91, 0
1, 412310, Note_on_c, 0, 79, 0
1, 412310, Note_on_c, 0, 59, 0
1, 412310, Note_on_c, 0, 47, 0
1, 412320, Note_on_c, 0, 90, 110
1, 412320, Note_on_c, 0, 78, 110
1, 412320, Note_on_c, 0, 62, 110
1, 412320, Note_on_c, 0, 67, 110
1, 412320, Note_on_c, 0, 59, 110
1, 412409, Control_c, 0, 64, 0
1, 412430, Note_on_c, 0, 90, 0
1, 412430, Note_on_c, 0, 78, 0
1, 412430, Note_on_c, 0, 62, 0
1, 412430, Note_on_c, 0, 67, 0
1, 412430, Note_on_c, 0, 59, 0
1, 412440, Note_on_c, 0, 88, 110
1, 412440, Note_on_c, 0, 76, 110
1, 412440, Note_on_c, 0, 64, 110
1, 412440, Note_on_c, 0, 67, 110
1, 412440, Note_on_c, 0, 61, 110
1, 412536, Control_c, 0, 64, 127
1, 412550, Note_on_c, 0, 88, 0
1, 412550, Note_on_c, 0, 76, 0
1, 412560, Note_on_c, 0, 86, 110
1, 412560, Note_on_c, 0, 74, 110
1, 412670, Note_on_c, 0, 86, 0
1, 412670, Note_on_c, 0, 74, 0
1, 412670, Note_on_c, 0, 64, 0
1, 412670, Note_on_c, 0, 67, 0
1, 412670, Note_on_c, 0, 61, 0
1, 412680, Note_on_c, 0, 85, 110
1, 412680, Note_on_c, 0, 73, 110
1, 412680, Note_on_c, 0, 61, 110
1, 412680, Note_on_c, 0, 49, 110
1, 412786, Control_c, 0, 64, 0
1, 412790, Note_on_c, 0, 85, 0
1, 412790, Note_on_c, 0, 73, 0
1, 412790, Note_on_c, 0, 61, 0
1, 412790, Note_on_c, 0, 49, 0
1, 412800, Note_on_c, 0, 88, 110
1, 412800, Note_on_c, 0, 76, 110
1, 412800, Note_on_c, 0, 58, 110
1, 412800, Note_on_c, 0, 46, 110
1, 412910, Note_on_c, 0, 88, 0
1, 412910, Note_on_c, 0, 76, 0
1, 412920, Note_on_c, 0, 90, 110
1, 412920, Note_on_c, 0, 78, 110
1, 412964, Control_c, 0, 64, 127
1, 413030, Note_on_c, 0, 90, 0
1, 413030, Note_on_c, 0, 78, 0
1, 413030, Note_on_c, 0, 58, 0
1, 413030, Note_on_c, 0, 46, 0
1, 413040, Note_on_c, 0, 88, 110
1, 413040, Note_on_c, 0, 76, 110
1, 413040, Note_on_c, 0, 61, 110
1, 413040, Note_on_c, 0, 66, 110
1, 413040, Note_on_c, 0, 58, 110
1, 413150, Note_on_c, 0, 88, 0
1, 413150, Note_on_c, 0, 76, 0
1, 413150, Note_on_c, 0, 61, 0
1, 413150, Note_on_c, 0, 66, 0
1, 413150, Note_on_c, 0, 58, 0
1, 413153, Control_c, 0, 64, 0
1, 413160, Note_on_c, 0, 86, 110
1, 413160, Note_on_c, 0, 74, 110
1, 413160, Note_on_c, 0, 62, 110
1, 413160, Note_on_c, 0, 66, 110
1, 413160, Note_on_c, 0, 59, 110
1, 413270, Note_on_c, 0, 86, 0
1, 413270, Note_on_c, 0, 74, 0
1, 413274, Control_c, 0, 64, 127
1, 413280, Note_on_c, 0, 85, 110
1, 413280, Note_on_c, 0, 73, 110
1, 413390, Note_on_c, 0, 85, 0
1, 413390, Note_on_c, 0, 73, 0
1, 413390, Note_on_c, 0, 62, 0
1, 413390, Note_on_c, 0, 66, 0
1, 413390, Note_on_c, 0, 59, 0
1, 413400, Note_on_c, 0, 83, 110
1, 413400, Note_on_c, 0, 71, 110
1, 413400, Note_on_c, 0, 59, 110
1, 413400, Note_on_c, 0, 47, 110
1, 413493, Control_c, 0, 64, 0
1, 413510, Note_on_c, 0, 83, 0
1, 413510, Note_on_c, 0, 71, 0
1, 413510, Note_on_c, 0, 59, 0
1, 413510, Note_on_c, 0, 47, 0
1, 413520, Note_on_c, 0, 85, 127
1, 413520, Note_on_c, 0, 79, 127
1, 413520, Note_on_c, 0, 73, 127
1, 413520, Note_on_c, 0, 64, 127
1, 413520, Note_on_c, 0, 58, 127
1, 413520, Note_on_c, 0, 52, 127
1, 413630, Note_on_c, 0, 85, 0
1, 413630, Note_on_c, 0, 79, 0
1, 413630, Note_on_c, 0, 73, 0
1, 413630, Note_on_c, 0, 64, 0
1, 413630, Note_on_c, 0, 58, 0
1, 413630, Note_on_c, 0, 52, 0
1, 413640, Note_on_c, 0, 86, 127
1, 413640, Note_on_c, 0, 74, 127
1, 413640, Note_on_c, 0, 66, 127
1, 413640, Note_on_c, 0, 54, 127
1, 413750, Note_on_c, 0, 86, 0
1, 413750, Note_on_c, 0, 74, 0
1, 413750, Note_on_c, 0, 66, 0
1, 413750, Note_on_c, 0, 54, 0
1, 413760, Note_on_c, 0, 85, 127
1, 413760, Note_on_c, 0, 73, 127
1, 413760, Note_on_c, 0, 64, 127
1, 413760, Note_on_c, 0, 52, 127
1, 413870, Note_on_c, 0, 85, 0
1, 413870, Note_on_c, 0, 73, 0
1, 413870, Note_on_c, 0, 64, 0
1, 413870, Note_on_c, 0, 52, 0
1, 413880, Note_on_c, 0, 83, 127
1, 413880, Note_on_c, 0, 78, 127
1, 413880, Note_on_c, 0, 71, 127
1, 413880, Note_on_c, 0, 62, 127
1, 413880, Note_on_c, 0, 50, 127
1, 413990, Note_on_c, 0, 83, 0
1, 413990, Note_on_c, 0, 78, 0
1, 413990, Note_on_c, 0, 71, 0
1, 413990, Note_on_c, 0, 62, 0
1, 413990, Note_on_c, 0, 50, 0
1, 414000, Note_on_c, 0, 82, 127
1, 414000, Note_on_c, 0, 70, 127
1, 414000, Note_on_c, 0, 61, 127
1, 414000, Note_on_c, 0, 49, 127
1, 414110, Note_on_c, 0, 82, 0
1, 414110, Note_on_c, 0, 70, 0
1, 414110, Note_on_c, 0, 61, 0
1, 414110, Note_on_c, 0, 49, 0
1, 414120, Note_on_c, 0, 80, 127
1, 414120, Note_on_c, 0, 68, 127
1, 414120, Note_on_c, 0, 59, 127
1, 414120, Note_on_c, 0, 47, 127
1, 414230, Note_on_c, 0, 80, 0
1, 414230, Note_on_c, 0, 68, 0
1, 414230, Note_on_c, 0, 59, 0
1, 414230, Note_on_c, 0, 47, 0
1, 414240, Note_on_c, 0, 78, 127
1, 414240, Note_on_c, 0, 66, 127
1, 414240, Note_on_c, 0, 58, 127
1, 414240, Note_on_c, 0, 46, 127
1, 414332, Control_c, 0, 64, 127
1, 414350, Note_on_c, 0, 58, 0
1, 414350, Note_on_c, 0, 46, 0
1, 414360, Note_on_c, 0, 59, 127
1, 414360, Note_on_c, 0, 47, 127
1, 414470, Note_on_c, 0, 78, 0
1, 414470, Note_on_c, 0, 66, 0
1, 414470, Note_on_c, 0, 59, 0
1, 414470, Note_on_c, 0, 47, 0
1, 414480, Note_on_c, 0, 82, 127
1, 414480, Note_on_c, 0, 90, 127
1, 414480, Note_on_c, 0, 78, 127
1, 414480, Note_on_c, 0, 61, 127
1, 414480, Note_on_c, 0, 49, 127
1, 414590, Note_on_c, 0, 82, 0
1, 414590, Note_on_c, 0, 90, 0
1, 414590, Note_on_c, 0, 78, 0
1, 414590, Note_on_c, 0, 61, 0
1, 414590, Note_on_c, 0, 49, 0
1, 414600, Note_on_c, 0, 82, 127
1, 414600, Note_on_c, 0, 90, 127
1, 414600, Note_on_c, 0, 78, 127
1, 414600, Note_on_c, 0, 61, 127
1, 414600, Note_on_c, 0, 49, 127
1, 414710, Note_on_c, 0, 61, 0
1, 414710, Note_on_c, 0, 49, 0
1, 414720, Note_on_c, 0, 61, 127
1, 414720, Note_on_c, 0, 49, 127
1, 414820, Control_c, 0, 64, 0
1, 414830, Note_on_c, 0, 61, 0
1, 414830, Note_on_c, 0, 49, 0
1, 414840, Note_on_c, 0, 61, 127
1, 414840, Note_on_c, 0, 49, 127
1, 414950, Note_on_c, 0, 82, 0
1, 414950, Note_on_c, 0, 90, 0
1, 414950, Note_on_c, 0, 78, 0
1, 414950, Note_on_c, 0, 61, 0
1, 414950, Note_on_c, 0, 49, 0
1, 414960, Note_on_c, 0, 61, 127
1, 414960, Note_on_c, 0, 49, 127
1, 415070, Note_on_c, 0, 61, 0
1, 415070, Note_on_c, 0, 49, 0
1, 415080, Note_on_c, 0, 62, 127
1, 415080, Note_on_c, 0, 50, 127
1, 415190, Note_on_c, 0, 62, 0
1, 415190, Note_on_c, 0, 50, 0
1, 415200, Note_on_c, 0, 82, 127
1, 415200, Note_on_c, 0, 90, 127
1, 415200, Note_on_c, 0, 78, 127
1, 415200, Note_on_c, 0, 61, 127
1, 415200, Note_on_c, 0, 49, 127
1, 415310, Note_on_c, 0, 82, 0
1, 415310, Note_on_c, 0, 90, 0
1, 415310, Note_on_c, 0, 78, 0
1, 415310, Note_on_c, 0, 61, 0
1, 415310, Note_on_c, 0, 49, 0
1, 415320, Note_on_c, 0, 83, 127
1, 415320, Note_on_c, 0, 92, 127
1, 415320, Note_on_c, 0, 80, 127
1, 415320, Note_on_c, 0, 59, 127
1, 415320, Note_on_c, 0, 47, 127
1, 415430, Note_on_c, 0, 59, 0
1, 415430, Note_on_c, 0, 47, 0
1, 415440, Note_on_c, 0, 58, 127
1, 415440, Note_on_c, 0, 46, 127
1, 415550, Note_on_c, 0, 58, 0
1, 415550, Note_on_c, 0, 46, 0
1, 415560, Note_on_c, 0, 56, 127
1, 415560, Note_on_c, 0, 44, 127
1, 415670, Note_on_c, 0, 83, 0
1, 415670, Note_on_c, 0, 92, 0
1, 415670, Note_on_c, 0, 80, 0
1, 415670, Note_on_c, 0, 56, 0
1, 415670, Note_on_c, 0, 44, 0
1, 415680, Note_on_c, 0, 71, 127
1, 415680, Note_on_c, 0, 59, 127
1, 415756, Control_c, 0, 64, 127
1, 415790, Note_on_c, 0, 71, 0
1, 415790, Note_on_c, 0, 59, 0
1, 415800, Note_on_c, 0, 73, 127
1, 415800, Note_on_c, 0, 61, 127
1, 415910, Note_on_c, 0, 73, 0
1, 415910, Note_on_c, 0, 61, 0
1, 415920, Note_on_c, 0, 74, 127
1, 415920, Note_on_c, 0, 62, 127
1, 415920, Note_on_c, 0, 47, 127
1, 415920, Note_on_c, 0, 53, 127
1, 415920, Note_on_c, 0, 44, 127
1, 416030, Note_on_c, 0, 74, 0
1, 416030, Note_on_c, 0, 62, 0
1, 416030, Note_on_c, 0, 47, 0
1, 416030, Note_on_c, 0, 53, 0
1, 416030, Note_on_c, 0, 44, 0
1, 416040, Note_on_c, 0, 74, 127
1, 416040, Note_on_c, 0, 62, 127
1, 416040, Note_on_c, 0, 47, 127
1, 416040, Note_on_c, 0, 53, 127
1, 416040, Note_on_c, 0, 44, 127
1, 416150, Note_on_c, 0, 74, 0
1, 416150, Note_on_c, 0, 62, 0
1, 416160, Note_on_c, 0, 74, 127
1, 416160, Note_on_c, 0, 62, 127
1, 416270, Note_on_c, 0, 74, 0
1, 416270, Note_on_c, 0, 62, 0
1, 416280, Note_on_c, 0, 74, 127
1, 416280, Note_on_c, 0, 62, 127
1, 416390, Control_c, 0, 64, 0
1, 416390, Note_on_c, 0, 74, 0
1, 416390, Note_on_c, 0, 62, 0
1, 416400, Note_on_c, 0, 74, 127
1, 416400, Note_on_c, 0, 62, 127
1, 416510, Note_on_c, 0, 74, 0
1, 416510, Note_on_c, 0, 62, 0
1, 416520, Note_on_c, 0, 76, 127
1, 416520, Note_on_c, 0, 64, 127
1, 416630, Note_on_c, 0, 76, 0
1, 416630, Note_on_c, 0, 64, 0
1, 416630, Note_on_c, 0, 47, 0
1, 416630, Note_on_c, 0, 53, 0
1, 416630, Note_on_c, 0, 44, 0
1, 416640, Note_on_c, 0, 74, 127
1, 416640, Note_on_c, 0, 62, 127
1, 416640, Note_on_c, 0, 47, 127
1, 416640, Note_on_c, 0, 53, 127
1, 416640, Note_on_c, 0, 44, 127
1, 416750, Note_on_c, 0, 74, 0
1, 416750, Note_on_c, 0, 62, 0
1, 416750, Note_on_c, 0, 47, 0
1, 416750, Note_on_c, 0, 53, 0
1, 416750, Note_on_c, 0, 44, 0
1, 416760, Note_on_c, 0, 73, 127
1, 416760, Note_on_c, 0, 61, 127
1, 416760, Note_on_c, 0, 49, 127
1, 416760, Note_on_c, 0, 54, 127
1, 416760, Note_on_c, 0, 46, 127
1, 416870, Note_on_c, 0, 73, 0
1, 416870, Note_on_c, 0, 61, 0
1, 416880, Note_on_c, 0, 71, 127
1, 416880, Note_on_c, 0, 59, 127
1, 416990, Note_on_c, 0, 71, 0
1, 416990, Note_on_c, 0, 59, 0
1, 416990, Note_on_c, 0, 49, 0
1, 416990, Note_on_c, 0, 54, 0
1, 416990, Note_on_c, 0, 46, 0
1, 417000, Note_on_c, 0, 70, 127
1, 417000, Note_on_c, 0, 58, 127
1, 417110, Note_on_c, 0, 70, 0
1, 417110, Note_on_c, 0, 58, 0
1, 417120, Note_on_c, 0, 73, 127
1, 417120, Note_on_c, 0, 61, 127
1, 417120, Note_on_c, 0, 42, 127
1, 417120, Note_on_c, 0, 30, 127
1, 417224, Control_c, 0, 64, 127
1, 417230, Note_on_c, 0, 73, 0
1, 417230, Note_on_c, 0, 61, 0
1, 417240, Note_on_c, 0, 74, 127
1, 417240, Note_on_c, 0, 62, 127
1, 417350, Note_on_c, 0, 74, 0
1, 417350, Note_on_c, 0, 62, 0
1, 417350, Note_on_c, 0, 42, 0
1, 417350, Note_on_c, 0, 30, 0
1, 417360, Note_on_c, 0, 76, 127
1, 417360, Note_on_c, 0, 64, 127
1, 417360, Note_on_c, 0, 61, 127
1, 417360, Note_on_c, 0, 54, 127
1, 417470, Note_on_c, 0, 76, 0
1, 417470, Note_on_c, 0, 64, 0
1, 417470, Note_on_c, 0, 61, 0
1, 417470, Note_on_c, 0, 54, 0
1, 417480, Note_on_c, 0, 76, 127
1, 417480, Note_on_c, 0, 64, 127
1, 417480, Note_on_c, 0, 61, 127
1, 417480, Note_on_c, 0, 54, 127
1, 417590, Note_on_c, 0, 76, 0
1, 417590, Note_on_c, 0, 64, 0
1, 417600, Note_on_c, 0, 76, 127
1, 417600, Note_on_c, 0, 64, 127
1, 417710, Note_on_c, 0, 76, 0
1, 417710, Note_on_c, 0, 64, 0
1, 417720, Note_on_c, 0, 76, 127
1, 417720, Note_on_c, 0, 64, 127
1, 417830, Note_on_c, 0, 76, 0
1, 417830, Note_on_c, 0, 64, 0
1, 417840, Note_on_c, 0, 76, 127
1, 417840, Note_on_c, 0, 64, 127
1, 417904, Control_c, 0, 64, 0
1, 417950, Note_on_c, 0, 76, 0
1, 417950, Note_on_c, 0, 64, 0
1, 417950, Note_on_c, 0, 61, 0
1, 417950, Note_on_c, 0, 54, 0
1, 417960, Note_on_c, 0, 66, 127
1, 417960, Note_on_c, 0, 62, 127
1, 418070, Note_on_c, 0, 66, 0
1, 418070, Note_on_c, 0, 62, 0
1, 418080, Note_on_c, 0, 76, 127
1, 418080, Note_on_c, 0, 64, 127
1, 418080, Note_on_c, 0, 61, 127
1, 418080, Note_on_c, 0, 54, 127
1, 418190, Note_on_c, 0, 76, 0
1, 418190, Note_on_c, 0, 64, 0
1, 418190, Note_on_c, 0, 61, 0
1, 418190, Note_on_c, 0, 54, 0
1, 418200, Note_on_c, 0, 77, 127
1, 418200, Note_on_c, 0, 65, 127
1, 418200, Note_on_c, 0, 74, 127
1, 418200, Note_on_c, 0, 56, 127
1, 418200, Note_on_c, 0, 59, 127
1, 418310, Note_on_c, 0, 74, 0
1, 418310, Note_on_c, 0, 59, 0
1, 418320, Note_on_c, 0, 73, 127
1, 418320, Note_on_c, 0, 58, 127
1, 418430, Note_on_c, 0, 77, 0
1, 418430, Note_on_c, 0, 65, 0
1, 418430, Note_on_c, 0, 73, 0
1, 418430, Note_on_c, 0, 56, 0
1, 418430, Note_on_c, 0, 58, 0
1, 418440, Note_on_c, 0, 71, 127
1, 418440, Note_on_c, 0, 56, 127
1, 418550, Note_on_c, 0, 71, 0
1, 418550, Note_on_c, 0, 56, 0
1, 418560, Note_on_c, 0, 59, 127
1, 418560, Note_on_c, 0, 47, 127
1, 418670, Note_on_c, 0, 59, 0
1, 418670, Note_on_c, 0, 47, 0
1, 418673, Control_c, 0, 64, 127
1, 418680, Note_on_c, 0, 61, 127
1, 418680, Note_on_c, 0, 49, 127
1, 418790, Note_on_c, 0, 61, 0
1, 418790, Note_on_c, 0, 49, 0
1, 418800, Note_on_c, 0, 71, 127
1, 418800, Note_on_c, 0, 77, 127
1, 418800, Note_on_c, 0, 80, 127
1, 418800, Note_on_c, 0, 68, 127
1, 418800, Note_on_c, 0, 62, 127
1, 418800, Note_on_c, 0, 50, 127
1, 418910, Note_on_c, 0, 71, 0
1, 418910, Note_on_c, 0, 77, 0
1, 418910, Note_on_c, 0, 80, 0
1, 418910, Note_on_c, 0, 68, 0
1, 418910, Note_on_c, 0, 62, 0
1, 418910, Note_on_c, 0, 50, 0
1, 418920, Note_on_c, 0, 71, 127
1, 418920, Note_on_c, 0, 77, 127
1, 418920, Note_on_c, 0, 80, 127
1, 418920, Note_on_c, 0, 68, 127
1, 418920, Note_on_c, 0, 62, 127
1, 418920, Note_on_c, 0, 50, 127
1, 419030, Note_on_c, 0, 62, 0
1, 419030, Note_on_c, 0, 50, 0
1, 419040, Note_on_c, 0, 62, 127
1, 419040, Note_on_c, 0, 50, 127
1, 419150, Note_on_c, 0, 62, 0
1, 419150, Note_on_c, 0, 50, 0
1, 419160, Note_on_c, 0, 62, 127
1, 419160, Note_on_c, 0, 50, 127
1, 419270, Note_on_c, 0, 71, 0
1, 419270, Note_on_c, 0, 77, 0
1, 419270, Note_on_c, 0, 80, 0
1, 419270, Note_on_c, 0, 68, 0
1, 419270, Note_on_c, 0, 62, 0
1, 419270, Note_on_c, 0, 50, 0
1, 419280, Note_on_c, 0, 62, 127
1, 419280, Note_on_c, 0, 50, 127
1, 419304, Control_c, 0, 64, 0
1, 419390, Note_on_c, 0, 62, 0
1, 419390, Note_on_c, 0, 50, 0
1, 419400, Note_on_c, 0, 64, 127
1, 419400, Note_on_c, 0, 52, 127
1, 419510, Note_on_c, 0, 64, 0
1, 419510, Note_on_c, 0, 52, 0
1, 419520, Note_on_c, 0, 71, 127
1, 419520, Note_on_c, 0, 80, 127
1, 419520, Note_on_c, 0, 68, 127
1, 419520, Note_on_c, 0, 62, 127
1, 419520, Note_on_c, 0, 50, 127
1, 419630, Note_on_c, 0, 71, 0
1, 419630, Note_on_c, 0, 80, 0
1, 419630, Note_on_c, 0, 68, 0
1, 419630, Note_on_c, 0, 62, 0
1, 419630, Note_on_c, 0, 50, 0
1, 419640, Note_on_c, 0, 73, 127
1, 419640, Note_on_c, 0, 82, 127
1, 419640, Note_on_c, 0, 70, 127
1, 419640, Note_on_c, 0, 61, 127
1, 419640, Note_on_c, 0, 49, 127
1, 419750, Note_on_c, 0, 61, 0
1, 419750, Note_on_c, 0, 49, 0
1, 419760, Note_on_c, 0, 62, 127
1, 419760, Note_on_c, 0, 50, 127
1, 419870, Note_on_c, 0, 73, 0
1, 419870, Note_on_c, 0, 82, 0
1, 419870, Note_on_c, 0, 70, 0
1, 419870, Note_on_c, 0, 62, 0
1, 419870, Note_on_c, 0, 50, 0
1, 419880, Note_on_c, 0, 70, 127
1, 419880, Note_on_c, 0, 64, 127
1, 419880, Note_on_c, 0, 61, 127
1, 419880, Note_on_c, 0, 49, 127
1, 419990, Note_on_c, 0, 70, 0
1, 419990, Note_on_c, 0, 64, 0
1, 419990, Note_on_c, 0, 61, 0
1, 419990, Note_on_c, 0, 49, 0
1, 420000, Note_on_c, 0, 70, 127
1, 420000, Note_on_c, 0, 67, 127
1, 420000, Note_on_c, 0, 64, 127
1, 420000, Note_on_c, 0, 52, 127
1, 420110, Note_on_c, 0, 64, 0
1, 420110, Note_on_c, 0, 52, 0
1, 420120, Note_on_c, 0, 66, 127
1, 420120, Note_on_c, 0, 54, 127
1, 420230, Note_on_c, 0, 70, 0
1, 420230, Note_on_c, 0, 67, 0
1, 420230, Note_on_c, 0, 66, 0
1, 420230, Note_on_c, 0, 54, 0
1, 420240, Note_on_c, 0, 73, 127
1, 420240, Note_on_c, 0, 82, 127
1, 420240, Note_on_c, 0, 70, 127
1, 420240, Note_on_c, 0, 64, 127
1, 420240, Note_on_c, 0, 52, 127
1, 420350, Note_on_c, 0, 73, 0
1, 420350, Note_on_c, 0, 82, 0
1, 420350, Note_on_c, 0, 70, 0
1, 420350, Note_on_c, 0, 64, 0
1, 420350, Note_on_c, 0, 52, 0
1, 420360, Note_on_c, 0, 74, 127
1, 420360, Note_on_c, 0, 83, 127
1, 420360, Note_on_c, 0, 71, 127
1, 420360, Note_on_c, 0, 62, 127
1, 420360, Note_on_c, 0, 50, 127
1, 420470, Note_on_c, 0, 62, 0
1, 420470, Note_on_c, 0, 50, 0
1, 420480, Note_on_c, 0, 64, 127
1, 420480, Note_on_c, 0, 52, 127
1, 420590, Note_on_c, 0, 74, 0
1, 420590, Note_on_c, 0, 83, 0
1, 420590, Note_on_c, 0, 71, 0
1, 420590, Note_on_c, 0, 64, 0
1, 420590, Note_on_c, 0, 52, 0
1, 420600, Note_on_c, 0, 71, 127
1, 420600, Note_on_c, 0, 66, 127
1, 420600, Note_on_c, 0, 62, 127
1, 420600, Note_on_c, 0, 50, 127
1, 420710, Note_on_c, 0, 71, 0
1, 420710, Note_on_c, 0, 66, 0
1, 420710, Note_on_c, 0, 62, 0
1, 420710, Note_on_c, 0, 50, 0
1, 420720, Note_on_c, 0, 71, 127
1, 420720, Note_on_c, 0, 69, 127
1, 420720, Note_on_c, 0, 66, 127
1, 420720, Note_on_c, 0, 54, 127
1, 420830, Note_on_c, 0, 66, 0
1, 420830, Note_on_c, 0, 54, 0
1, 420840, Note_on_c, 0, 67, 127
1, 420840, Note_on_c, 0, 55, 127
1, 420950, Note_on_c, 0, 71, 0
1, 420950, Note_on_c, 0, 69, 0
1, 420950, Note_on_c, 0, 67, 0
1, 420950, Note_on_c, 0, 55, 0
1, 420960, Note_on_c, 0, 74, 127
1, 420960, Note_on_c, 0, 83, 127
1, 420960, Note_on_c, 0, 71, 127
1, 420960, Note_on_c, 0, 66, 127
1, 420960, Note_on_c, 0, 54, 127
1, 421070, Note_on_c, 0, 74, 0
1, 421070, Note_on_c, 0, 83, 0
1, 421070, Note_on_c, 0, 71, 0
1, 421070, Note_on_c, 0, 66, 0
1, 421070, Note_on_c, 0, 54, 0
1, 421080, Note_on_c, 0, 76, 127
1, 421080, Note_on_c, 0, 85, 127
1, 421080, Note_on_c, 0, 73, 127
1, 421080, Note_on_c, 0, 64, 127
1, 421080, Note_on_c, 0, 52, 127
1, 421190, Note_on_c, 0, 64, 0
1, 421190, Note_on_c, 0, 52, 0
1, 421200, Note_on_c, 0, 66, 127
1, 421200, Note_on_c, 0, 54, 127
1, 421310, Note_on_c, 0, 76, 0
1, 421310, Note_on_c, 0, 85, 0
1, 421310, Note_on_c, 0, 73, 0
1, 421310, Note_on_c, 0, 66, 0
1, 421310, Note_on_c, 0, 54, 0
1, 421320, Note_on_c, 0, 73, 127
1, 421320, Note_on_c, 0, 67, 127
1, 421320, Note_on_c, 0, 64, 127
1, 421320, Note_on_c, 0, 52, 127
1, 421430, Note_on_c, 0, 73, 0
1, 421430, Note_on_c, 0, 67, 0
1, 421430, Note_on_c, 0, 64, 0
1, 421430, Note_on_c, 0, 52, 0
1, 421440, Note_on_c, 0, 69, 127
1, 421440, Note_on_c, 0, 73, 127
1, 421440, Note_on_c, 0, 64, 127
1, 421440, Note_on_c, 0, 55, 127
1, 421440, Note_on_c, 0, 43, 127
1, 421550, Note_on_c, 0, 55, 0
1, 421550, Note_on_c, 0, 43, 0
1, 421560, Note_on_c, 0, 57, 127
1, 421560, Note_on_c, 0, 45, 127
1, 421670, Note_on_c, 0, 69, 0
1, 421670, Note_on_c, 0, 73, 0
1, 421670, Note_on_c, 0, 64, 0
1, 421670, Note_on_c, 0, 57, 0
1, 421670, Note_on_c, 0, 45, 0
1, 421680, Note_on_c, 0, 76, 127
1, 421680, Note_on_c, 0, 85, 127
1, 421680, Note_on_c, 0, 73, 127
1, 421680, Note_on_c, 0, 55, 127
1, 421680, Note_on_c, 0, 43, 127
1, 421790, Note_on_c, 0, 76, 0
1, 421790, Note_on_c, 0, 85, 0
1, 421790, Note_on_c, 0, 73, 0
1, 421790, Note_on_c, 0, 55, 0
1, 421790, Note_on_c, 0, 43, 0
1, 421800, Note_on_c, 0, 78, 127
1, 421800, Note_on_c, 0, 86, 127
1, 421800, Note_on_c, 0, 74, 127
1, 421800, Note_on_c, 0, 54, 127
1, 421800, Note_on_c, 0, 42, 127
1, 421910, Note_on_c, 0, 54, 0
1, 421910, Note_on_c, 0, 42, 0
1, 421920, Note_on_c, 0, 55, 127
1, 421920, Note_on_c, 0, 43, 127
1, 422030, Note_on_c, 0, 78, 0
1, 422030, Note_on_c, 0, 86, 0
1, 422030, Note_on_c, 0, 74, 0
1, 422030, Note_on_c, 0, 55, 0
1, 422030, Note_on_c, 0, 43, 0
1, 422040, Note_on_c, 0, 69, 127
1, 422040, Note_on_c, 0, 74, 127
1, 422040, Note_on_c, 0, 66, 127
1, 422040, Note_on_c, 0, 54, 127
1, 422040, Note_on_c, 0, 42, 127
1, 422150, Note_on_c, 0, 69, 0
1, 422150, Note_on_c, 0, 74, 0
1, 422150, Note_on_c, 0, 66, 0
1, 422150, Note_on_c, 0, 54, 0
1, 422150, Note_on_c, 0, 42, 0
1, 422160, Note_on_c, 0, 71, 127
1, 422160, Note_on_c, 0, 75, 127
1, 422160, Note_on_c, 0, 66, 127
1, 422160, Note_on_c, 0, 57, 127
1, 422160, Note_on_c, 0, 45, 127
1, 422270, Note_on_c, 0, 57, 0
1, 422270, Note_on_c, 0, 45, 0
1, 422280, Note_on_c, 0, 59, 127
1, 422280, Note_on_c, 0, 47, 127
1, 422390, Note_on_c, 0, 71, 0
1, 422390, Note_on_c, 0, 75, 0
1, 422390, Note_on_c, 0, 66, 0
1, 422390, Note_on_c, 0, 59, 0
1, 422390, Note_on_c, 0, 47, 0
1, 422400, Note_on_c, 0, 78, 127
1, 422400, Note_on_c, 0, 87, 127
1, 422400, Note_on_c, 0, 75, 127
1, 422400, Note_on_c, 0, 57, 127
1, 422400, Note_on_c, 0, 45, 127
1, 422510, Note_on_c, 0, 78, 0
1, 422510, Note_on_c, 0, 87, 0
1, 422510, Note_on_c, 0, 75, 0
1, 422510, Note_on_c, 0, 57, 0
1, 422510, Note_on_c, 0, 45, 0
1, 422520, Note_on_c, 0, 79, 127
1, 422520, Note_on_c, 0, 88, 127
1, 422520, Note_on_c, 0, 76, 127
1, 422520, Note_on_c, 0, 55, 127
1, 422520, Note_on_c, 0, 43, 127
1, 422630, Note_on_c, 0, 55, 0
1, 422630, Note_on_c, 0, 43, 0
1, 422640, Note_on_c, 0, 57, 127
1, 422640, Note_on_c, 0, 45, 127
1, 422750, Note_on_c, 0, 79, 0
1, 422750, Note_on_c, 0, 88, 0
1, 422750, Note_on_c, 0, 76, 0
1, 422750, Note_on_c, 0, 57, 0
1, 422750, Note_on_c, 0, 45, 0
1, 422760, Note_on_c, 0, 71, 127
1, 422760, Note_on_c, 0, 76, 127
1, 422760, Note_on_c, 0, 64, 127
1, 422760, Note_on_c, 0, 55, 127
1, 422760, Note_on_c, 0, 43, 127
1, 422870, Note_on_c, 0, 71, 0
1, 422870, Note_on_c, 0, 76, 0
1, 422870, Note_on_c, 0, 64, 0
1, 422870, Note_on_c, 0, 55, 0
1, 422870, Note_on_c, 0, 43, 0
1, 422880, Note_on_c, 0, 71, 127
1, 422880, Note_on_c, 0, 76, 127
1, 422880, Note_on_c, 0, 64, 127
1, 422880, Note_on_c, 0, 59, 127
1, 422880, Note_on_c, 0, 55, 127
1, 422990, Note_on_c, 0, 59, 0
1, 422990, Note_on_c, 0, 55, 0
1, 423000, Note_on_c, 0, 61, 127
1, 423000, Note_on_c, 0, 57, 127
1, 423110, Note_on_c, 0, 71, 0
1, 423110, Note_on_c, 0, 76, 0
1, 423110, Note_on_c, 0, 64, 0
1, 423110, Note_on_c, 0, 61, 0
1, 423110, Note_on_c, 0, 57, 0
1, 423120, Note_on_c, 0, 88, 127
1, 423120, Note_on_c, 0, 76, 127
1, 423120, Note_on_c, 0, 59, 127
1, 423120, Note_on_c, 0, 55, 127
1, 423230, Note_on_c, 0, 88, 0
1, 423230, Note_on_c, 0, 76, 0
1, 423230, Note_on_c, 0, 59, 0
1, 423230, Note_on_c, 0, 55, 0
1, 423240, Note_on_c, 0, 89, 127
1, 423240, Note_on_c, 0, 77, 127
1, 423240, Note_on_c, 0, 59, 127
1, 423240, Note_on_c, 0, 55, 127
1, 423350, Note_on_c, 0, 59, 0
1, 423350, Note_on_c, 0, 55, 0
1, 423360, Note_on_c, 0, 61, 127
1, 423360, Note_on_c, 0, 57, 127
1, 423470, Note_on_c, 0, 89, 0
1, 423470, Note_on_c, 0, 77, 0
1, 423470, Note_on_c, 0, 61, 0
1, 423470, Note_on_c, 0, 57, 0
1, 423480, Note_on_c, 0, 71, 127
1, 423480, Note_on_c, 0, 77, 127
1, 423480, Note_on_c, 0, 65, 127
1, 423480, Note_on_c, 0, 59, 127
1, 423480, Note_on_c, 0, 55, 127
1, 423590, Note_on_c, 0, 71, 0
1, 423590, Note_on_c, 0, 77, 0
1, 423590, Note_on_c, 0, 65, 0
1, 423590, Note_on_c, 0, 59, 0
1, 423590, Note_on_c, 0, 55, 0
1, 423600, Note_on_c, 0, 71, 127
1, 423600, Note_on_c, 0, 77, 127
1, 423600, Note_on_c, 0, 65, 127
1, 423600, Note_on_c, 0, 47, 127
1, 423600, Note_on_c, 0, 43, 127
1, 423710, Note_on_c, 0, 47, 0
1, 423710, Note_on_c, 0, 43, 0
1, 423720, Note_on_c, 0, 49, 127
1, 423720, Note_on_c, 0, 45, 127
1, 423830, Note_on_c, 0, 71, 0
1, 423830, Note_on_c, 0, 77, 0
1, 423830, Note_on_c, 0, 65, 0
1, 423830, Note_on_c, 0, 49, 0
1, 423830, Note_on_c, 0, 45, 0
1, 423840, Note_on_c, 0, 89, 127
1, 423840, Note_on_c, 0, 77, 127
1, 423840, Note_on_c, 0, 47, 127
1, 423840, Note_on_c, 0, 43, 127
1, 423950, Note_on_c, 0, 89, 0
1, 423950, Note_on_c, 0, 77, 0
1, 423950, Note_on_c, 0, 47, 0
1, 423950, Note_on_c, 0, 43, 0
1, 423960, Note_on_c, 0, 90, 127
1, 423960, Note_on_c, 0, 78, 127
1, 423960, Note_on_c, 0, 46, 127
1, 423960, Note_on_c, 0, 42, 127
1, 424070, Note_on_c, 0, 46, 0
1, 424070, Note_on_c, 0, 42, 0
1, 424080, Note_on_c, 0, 47, 127
1, 424080, Note_on_c, 0, 44, 127
1, 424190, Note_on_c, 0, 90, 0
1, 424190, Note_on_c, 0, 78, 0
1, 424190, Note_on_c, 0, 47, 0
1, 424190, Note_on_c, 0, 44, 0
1, 424200, Note_on_c, 0, 78, 127
1, 424200, Note_on_c, 0, 66, 127
1, 424200, Note_on_c, 0, 46, 127
1, 424200, Note_on_c, 0, 42, 127
1, 424310, Note_on_c, 0, 78, 0
1, 424310, Note_on_c, 0, 66, 0
1, 424310, Note_on_c, 0, 46, 0
1, 424310, Note_on_c, 0, 42, 0
1, 424320, Note_on_c, 0, 78, 127
1, 424320, Note_on_c, 0, 66, 127
1, 424320, Note_on_c, 0, 42, 127
1, 424320, Note_on_c, 0, 30, 127
1, 424430, Control_c, 0, 64, 127
1, 424550, Note_on_c, 0, 78, 0
1, 424550, Note_on_c, 0, 66, 0
1, 424550, Note_on_c, 0, 42, 0
1, 424550, Note_on_c, 0, 30, 0
1, 424560, Note_on_c, 0, 90, 127
1, 424560, Note_on_c, 0, 78, 127
1, 424560, Note_on_c, 0, 54, 127
1, 424560, Note_on_c, 0, 42, 127
1, 424670, Note_on_c, 0, 90, 0
1, 424670, Note_on_c, 0, 78, 0
1, 424670, Note_on_c, 0, 54, 0
1, 424670, Note_on_c, 0, 42, 0
1, 424680, Note_on_c, 0, 90, 127
1, 424680, Note_on_c, 0, 78, 127
1, 424680, Note_on_c, 0, 66, 127
1, 424680, Note_on_c, 0, 54, 127
1, 425270, Note_on_c, 0, 90, 0
1, 425270, Note_on_c, 0, 78, 0
1, 425270, Note_on_c, 0, 66, 0
1, 425270, Note_on_c, 0, 54, 0
1, 425280, Note_on_c, 0, 90, 127
1, 425280, Note_on_c, 0, 78, 127
1, 425280, Note_on_c, 0, 66, 127
1, 425280, Note_on_c, 0, 54, 127
1, 425390, Note_on_c, 0, 90, 0
1, 425390, Note_on_c, 0, 78, 0
1, 425390, Note_on_c, 0, 66, 0
1, 425390, Note_on_c, 0, 54, 0
1, 425400, Note_on_c, 0, 90, 127
1, 425400, Note_on_c, 0, 78, 127
1, 425400, Note_on_c, 0, 54, 127
1, 425400, Note_on_c, 0, 42, 127
1, 425990, Note_on_c, 0, 90, 0
1, 425990, Note_on_c, 0, 78, 0
1, 425990, Note_on_c, 0, 54, 0
1, 425990, Note_on_c, 0, 42, 0
1, 426000, Note_on_c, 0, 90, 127
1, 426000, Note_on_c, 0, 78, 127
1, 426000, Note_on_c, 0, 42, 127
1, 426000, Note_on_c, 0, 30, 127
1, 426110, Note_on_c, 0, 90, 0
1, 426110, Note_on_c, 0, 78, 0
1, 426110, Note_on_c, 0, 42, 0
1, 426110, Note_on_c, 0, 30, 0
1, 426120, Note_on_c, 0, 90, 127
1, 426120, Note_on_c, 0, 78, 127
1, 426120, Note_on_c, 0, 42, 127
1, 426120, Note_on_c, 0, 30, 127
1, 426710, Note_on_c, 0, 90, 0
1, 426710, Note_on_c, 0, 78, 0
1, 426710, Note_on_c, 0, 42, 0
1, 426710, Note_on_c, 0, 30, 0
1, 426720, Note_on_c, 0, 90, 127
1, 426720, Note_on_c, 0, 78, 127
1, 426720, Note_on_c, 0, 42, 127
1, 426720, Note_on_c, 0, 30, 127
1, 426830, Note_on_c, 0, 90, 0
1, 426830, Note_on_c, 0, 78, 0
1, 426830, Note_on_c, 0, 42, 0
1, 426830, Note_on_c, 0, 30, 0
1, 426840, Note_on_c, 0, 90, 127
1, 426840, Note_on_c, 0, 78, 127
1, 426840, Note_on_c, 0, 54, 127
1, 426840, Note_on_c, 0, 42, 127
1, 427430, Note_on_c, 0, 90, 0
1, 427430, Note_on_c, 0, 78, 0
1, 427430, Note_on_c, 0, 54, 0
1, 427430, Note_on_c, 0, 42, 0
1, 427440, Note_on_c, 0, 90, 127
1, 427440, Note_on_c, 0, 78, 127
1, 427440, Note_on_c, 0, 54, 127
1, 427440, Note_on_c, 0, 42, 127
1, 427550, Note_on_c, 0, 90, 0
1, 427550, Note_on_c, 0, 78, 0
1, 427550, Note_on_c, 0, 54, 0
1, 427550, Note_on_c, 0, 42, 0
1, 427560, Note_on_c, 0, 90, 127
1, 427560, Note_on_c, 0, 78, 127
1, 427560, Note_on_c, 0, 66, 127
1, 427560, Note_on_c, 0, 54, 127
1, 428150, Note_on_c, 0, 90, 0
1, 428150, Note_on_c, 0, 78, 0
1, 428150, Note_on_c, 0, 66, 0
1, 428150, Note_on_c, 0, 54, 0
1, 428160, Note_on_c, 0, 90, 127
1, 428160, Note_on_c, 0, 78, 127
1, 428160, Note_on_c, 0, 66, 127
1, 428160, Note_on_c, 0, 54, 127
1, 428270, Note_on_c, 0, 90, 0
1, 428270, Note_on_c, 0, 78, 0
1, 428270, Note_on_c, 0, 66, 0
1, 428270, Note_on_c, 0, 54, 0
1, 428280, Note_on_c, 0, 90, 127
1, 428280, Note_on_c, 0, 78, 127
1, 428280, Note_on_c, 0, 54, 127
1, 428280, Note_on_c, 0, 42, 127
1, 428870, Note_on_c, 0, 90, 0
1, 428870, Note_on_c, 0, 78, 0
1, 428870, Note_on_c, 0, 54, 0
1, 428870, Note_on_c, 0, 42, 0
1, 428880, Note_on_c, 0, 90, 127
1, 428880, Note_on_c, 0, 78, 127
1, 428880, Note_on_c, 0, 54, 127
1, 428880, Note_on_c, 0, 42, 127
1, 428990, Note_on_c, 0, 90, 0
1, 428990, Note_on_c, 0, 78, 0
1, 428990, Note_on_c, 0, 54, 0
1, 428990, Note_on_c, 0, 42, 0
1, 429000, Note_on_c, 0, 90, 127
1, 429000, Note_on_c, 0, 78, 127
1, 429000, Note_on_c, 0, 42, 127
1, 429000, Note_on_c, 0, 30, 127
1, 429590, Note_on_c, 0, 90, 0
1, 429590, Note_on_c, 0, 78, 0
1, 429590, Note_on_c, 0, 42, 0
1, 429590, Note_on_c, 0, 30, 0
1, 429600, Note_on_c, 0, 90, 63
1, 429600, Note_on_c, 0, 78, 127
1, 429600, Note_on_c, 0, 42, 127
1, 429600, Note_on_c, 0, 30, 63
1, 429710, Note_on_c, 0, 90, 0
1, 429710, Note_on_c, 0, 78, 0
1, 429710, Note_on_c, 0, 42, 0
1, 429710, Note_on_c, 0, 30, 0
1, 429720, Note_on_c, 0, 90, 63
1, 429720, Note_on_c, 0, 78, 127
1, 429720, Note_on_c, 0, 54, 127
1, 429720, Note_on_c, 0, 42, 63
1, 430310, Note_on_c, 0, 90, 0
1, 430310, Note_on_c, 0, 78, 0
1, 430310, Note_on_c, 0, 54, 0
1, 430310, Note_on_c, 0, 42, 0
1, 430320, Note_on_c, 0, 66, 127
1, 430320, Note_on_c, 0, 54, 127
1, 430343, Control_c, 0, 64, 0
1, 430430, Note_on_c, 0, 66, 0
1, 430430, Note_on_c, 0, 54, 0
1, 430440, Note_on_c, 0, 66, 123
1, 430440, Note_on_c, 0, 54, 123
1, 430464, Control_c, 0, 64, 127
1, 431030, Note_on_c, 0, 66, 0
1, 431030, Note_on_c, 0, 54, 0
1, 431040, Note_on_c, 0, 66, 100
1, 431040, Note_on_c, 0, 54, 100
1, 431150, Note_on_c, 0, 66, 0
1, 431150, Note_on_c, 0, 54, 0
1, 431160, Note_on_c, 0, 66, 95
1, 431160, Note_on_c, 0, 54, 95
1, 431750, Note_on_c, 0, 66, 0
1, 431750, Note_on_c, 0, 54, 0
1, 431760, Note_on_c, 0, 66, 73
1, 431760, Note_on_c, 0, 54, 73
1, 431870, Note_on_c, 0, 66, 0
1, 431870, Note_on_c, 0, 54, 0
1, 431880, Note_on_c, 0, 66, 68
1, 431880, Note_on_c, 0, 54, 68
1, 432470, Note_on_c, 0, 66, 0
1, 432470, Note_on_c, 0, 54, 0
1, 432480, Note_on_c, 0, 66, 45
1, 432480, Note_on_c, 0, 54, 45
1, 432590, Note_on_c, 0, 66, 0
1, 432590, Note_on_c, 0, 54, 0
1, 432600, Note_on_c, 0, 66, 40
1, 432600, Note_on_c, 0, 54, 40
1, 432950, Note_on_c, 0, 66, 0
1, 432950, Note_on_c, 0, 54, 0
1, 432960, Note_on_c, 0, 66, 45
1, 432960, Note_on_c, 0, 71, 45
1, 432960, Note_on_c, 0, 75, 45
1, 432960, Note_on_c, 0, 63, 45
1, 432960, Note_on_c, 0, 59, 45
1, 432960, Note_on_c, 0, 54, 45
1, 432960, Note_on_c, 0, 47, 45
1, 433079, Control_c, 0, 64, 0
1, 433670, Note_on_c, 0, 66, 0
1, 433670, Note_on_c, 0, 71, 0
1, 433670, Note_on_c, 0, 75, 0
1, 433670, Note_on_c, 0, 63, 0
1, 433670, Note_on_c, 0, 59, 0
1, 433680, Note_on_c, 0, 73, 45
1, 433680, Note_on_c, 0, 76, 45
1, 433680, Note_on_c, 0, 64, 45
1, 433680, Note_on_c, 0, 61, 45
1, 434030, Note_on_c, 0, 73, 0
1, 434030, Note_on_c, 0, 76, 0
1, 434030, Note_on_c, 0, 64, 0
1, 434030, Note_on_c, 0, 61, 0
1, 434040, Note_on_c, 0, 75, 45
1, 434040, Note_on_c, 0, 78, 45
1, 434040, Note_on_c, 0, 66, 45
1, 434040, Note_on_c, 0, 63, 45
1, 434381, Control_c, 0, 64, 127
1, 434390, Note_on_c, 0, 47, 0
1, 434390, Note_on_c, 0, 75, 0
1, 434390, Note_on_c, 0, 78, 0
1, 434390, Note_on_c, 0, 63, 0
1, 434630, Note_on_c, 0, 54, 0
1, 434630, Note_on_c, 0, 66, 0
1, 434640, Note_on_c, 0, 66, 63
1, 434640, Note_on_c, 0, 54, 63
1, 434750, Note_on_c, 0, 66, 0
1, 434750, Note_on_c, 0, 54, 0
1, 434760, Note_on_c, 0, 66, 63
1, 434760, Note_on_c, 0, 54, 63
1, 435350, Note_on_c, 0, 66, 0
1, 435350, Note_on_c, 0, 54, 0
1, 435360, Note_on_c, 0, 66, 63
1, 435360, Note_on_c, 0, 54, 63
1, 435470, Note_on_c, 0, 66, 0
1, 435470, Note_on_c, 0, 54, 0
1, 435480, Note_on_c, 0, 66, 63
1, 435480, Note_on_c, 0, 54, 63
1, 436070, Note_on_c, 0, 66, 0
1, 436070, Note_on_c, 0, 54, 0
1, 436080, Note_on_c, 0, 66, 63
1, 436080, Note_on_c, 0, 54, 63
1, 436190, Note_on_c, 0, 66, 0
1, 436190, Note_on_c, 0, 54, 0
1, 436200, Note_on_c, 0, 66, 63
1, 436200, Note_on_c, 0, 54, 63
1, 436790, Note_on_c, 0, 66, 0
1, 436790, Note_on_c, 0, 54, 0
1, 436800, Note_on_c, 0, 66, 63
1, 436800, Note_on_c, 0, 54, 63
1, 436910, Note_on_c, 0, 66, 0
1, 436910, Note_on_c, 0, 54, 0
1, 436920, Note_on_c, 0, 66, 63
1, 436920, Note_on_c, 0, 54, 63
1, 437270, Note_on_c, 0, 66, 0
1, 437270, Note_on_c, 0, 54, 0
1, 437280, Note_on_c, 0, 66, 45
1, 437280, Note_on_c, 0, 71, 45
1, 437280, Note_on_c, 0, 74, 45
1, 437280, Note_on_c, 0, 62, 45
1, 437280, Note_on_c, 0, 59, 45
1, 437280, Note_on_c, 0, 54, 45
1, 437280, Note_on_c, 0, 47, 45
1, 437923, Control_c, 0, 64, 0
1, 437990, Note_on_c, 0, 66, 0
1, 437990, Note_on_c, 0, 71, 0
1, 437990, Note_on_c, 0, 74, 0
1, 437990, Note_on_c, 0, 62, 0
1, 437990, Note_on_c, 0, 59, 0
1, 438000, Note_on_c, 0, 73, 45
1, 438000, Note_on_c, 0, 76, 45
1, 438000, Note_on_c, 0, 64, 45
1, 438000, Note_on_c, 0, 61, 45
1, 438350, Note_on_c, 0, 73, 0
1, 438350, Note_on_c, 0, 76, 0
1, 438350, Note_on_c, 0, 64, 0
1, 438350, Note_on_c, 0, 61, 0
1, 438360, Note_on_c, 0, 74, 45
1, 438360, Note_on_c, 0, 78, 45
1, 438360, Note_on_c, 0, 66, 45
1, 438360, Note_on_c, 0, 62, 45
1, 438710, Note_on_c, 0, 47, 0
1, 438710, Note_on_c, 0, 74, 0
1, 438710, Note_on_c, 0, 78, 0
1, 438710, Note_on_c, 0, 62, 0
1, 438748, Control_c, 0, 64, 127
1, 438950, Note_on_c, 0, 54, 0
1, 438950, Note_on_c, 0, 66, 0
1, 438960, Note_on_c, 0, 66, 63
1, 438960, Note_on_c, 0, 54, 63
1, 439070, Note_on_c, 0, 66, 0
1, 439070, Note_on_c, 0, 54, 0
1, 439080, Note_on_c, 0, 66, 63
1, 439080, Note_on_c, 0, 54, 63
1, 439670, Note_on_c, 0, 66, 0
1, 439670, Note_on_c, 0, 54, 0
1, 439680, Note_on_c, 0, 66, 63
1, 439680, Note_on_c, 0, 54, 63
1, 439790, Note_on_c, 0, 66, 0
1, 439790, Note_on_c, 0, 54, 0
1, 439800, Note_on_c, 0, 66, 63
1, 439800, Note_on_c, 0, 54, 63
1, 440390, Note_on_c, 0, 66, 0
1, 440390, Note_on_c, 0, 54, 0
1, 440400, Note_on_c, 0, 66, 63
1, 440400, Note_on_c, 0, 54, 63
1, 440510, Note_on_c, 0, 66, 0
1, 440510, Note_on_c, 0, 54, 0
1, 440520, Note_on_c, 0, 66, 63
1, 440520, Note_on_c, 0, 54, 63
1, 441110, Note_on_c, 0, 66, 0
1, 441110, Note_on_c, 0, 54, 0
1, 441120, Note_on_c, 0, 66, 63
1, 441120, Note_on_c, 0, 54, 63
1, 441230, Note_on_c, 0, 66, 0
1, 441230, Note_on_c, 0, 54, 0
1, 441240, Note_on_c, 0, 66, 63
1, 441240, Note_on_c, 0, 54, 63
1, 441414, Control_c, 0, 64, 0
1, 441590, Note_on_c, 0, 66, 0
1, 441590, Note_on_c, 0, 54, 0
1, 441600, Note_on_c, 0, 74, 63
1, 441600, Note_on_c, 0, 78, 63
1, 441600, Note_on_c, 0, 66, 63
1, 441600, Note_on_c, 0, 57, 63
1, 441600, Note_on_c, 0, 45, 63
1, 441760, Control_c, 0, 64, 127
1, 442310, Note_on_c, 0, 74, 0
1, 442310, Note_on_c, 0, 78, 0
1, 442310, Note_on_c, 0, 66, 0
1, 442320, Note_on_c, 0, 76, 101
1, 442320, Note_on_c, 0, 79, 101
1, 442320, Note_on_c, 0, 67, 101
1, 442465, Control_c, 0, 64, 0
1, 442670, Note_on_c, 0, 45, 0
1, 442670, Note_on_c, 0, 57, 0
1, 442670, Note_on_c, 0, 76, 0
1, 442670, Note_on_c, 0, 79, 0
1, 442670, Note_on_c, 0, 67, 0
1, 442680, Note_on_c, 0, 78, 120
1, 442680, Note_on_c, 0, 81, 120
1, 442680, Note_on_c, 0, 69, 120
1, 442680, Note_on_c, 0, 45, 109
1, 442680, Note_on_c, 0, 33, 109
1, 442790, Note_on_c, 0, 45, 0
1, 442790, Note_on_c, 0, 33, 0
1, 442800, Note_on_c, 0, 47, 114
1, 442800, Note_on_c, 0, 35, 114
1, 442910, Note_on_c, 0, 47, 0
1, 442910, Note_on_c, 0, 35, 0
1, 442920, Note_on_c, 0, 49, 120
1, 442920, Note_on_c, 0, 37, 120
1, 443030, Note_on_c, 0, 78, 0
1, 443030, Note_on_c, 0, 81, 0
1, 443030, Note_on_c, 0, 69, 0
1, 443030, Note_on_c, 0, 49, 0
1, 443030, Note_on_c, 0, 37, 0
1, 443040, Note_on_c, 0, 86, 120
1, 443040, Note_on_c, 0, 90, 120
1, 443040, Note_on_c, 0, 78, 120
1, 443040, Note_on_c, 0, 50, 120
1, 443040, Note_on_c, 0, 38, 120
1, 443150, Note_on_c, 0, 50, 0
1, 443150, Note_on_c, 0, 38, 0
1, 443160, Note_on_c, 0, 62, 120
1, 443160, Note_on_c, 0, 50, 120
1, 443213, Control_c, 0, 64, 127
1, 443270, Note_on_c, 0, 62, 0
1, 443270, Note_on_c, 0, 50, 0
1, 443280, Note_on_c, 0, 61, 120
1, 443280, Note_on_c, 0, 49, 120
1, 443390, Note_on_c, 0, 86, 0
1, 443390, Note_on_c, 0, 90, 0
1, 443390, Note_on_c, 0, 78, 0
1, 443390, Note_on_c, 0, 61, 0
1, 443390, Note_on_c, 0, 49, 0
1, 443400, Note_on_c, 0, 86, 120
1, 443400, Note_on_c, 0, 90, 120
1, 443400, Note_on_c, 0, 78, 120
1, 443400, Note_on_c, 0, 59, 120
1, 443400, Note_on_c, 0, 47, 120
1, 443510, Note_on_c, 0, 59, 0
1, 443510, Note_on_c, 0, 47, 0
1, 443520, Note_on_c, 0, 57, 120
1, 443520, Note_on_c, 0, 45, 120
1, 443630, Note_on_c, 0, 57, 0
1, 443630, Note_on_c, 0, 45, 0
1, 443640, Note_on_c, 0, 55, 120
1, 443640, Note_on_c, 0, 43, 120
1, 443750, Note_on_c, 0, 86, 0
1, 443750, Note_on_c, 0, 90, 0
1, 443750, Note_on_c, 0, 78, 0
1, 443750, Note_on_c, 0, 55, 0
1, 443750, Note_on_c, 0, 43, 0
1, 443760, Note_on_c, 0, 88, 120
1, 443760, Note_on_c, 0, 91, 120
1, 443760, Note_on_c, 0, 79, 120
1, 443760, Note_on_c, 0, 54, 120
1, 443760, Note_on_c, 0, 42, 120
1, 443870, Note_on_c, 0, 54, 0
1, 443870, Note_on_c, 0, 42, 0
1, 443880, Note_on_c, 0, 52, 120
1, 443880, Note_on_c, 0, 40, 120
1, 443990, Note_on_c, 0, 52, 0
1, 443990, Note_on_c, 0, 40, 0
1, 444000, Note_on_c, 0, 50, 120
1, 444000, Note_on_c, 0, 38, 120
1, 444092, Control_c, 0, 64, 0
1, 444110, Note_on_c, 0, 88, 0
1, 444110, Note_on_c, 0, 91, 0
1, 444110, Note_on_c, 0, 79, 0
1, 444110, Note_on_c, 0, 50, 0
1, 444110, Note_on_c, 0, 38, 0
1, 444120, Note_on_c, 0, 90, 120
1, 444120, Note_on_c, 0, 93, 120
1, 444120, Note_on_c, 0, 81, 120
1, 444120, Note_on_c, 0, 49, 120
1, 444120, Note_on_c, 0, 37, 120
1, 444230, Note_on_c, 0, 49, 0
1, 444230, Note_on_c, 0, 37, 0
1, 444240, Note_on_c, 0, 47, 120
1, 444240, Note_on_c, 0, 35, 120
1, 444350, Note_on_c, 0, 47, 0
1, 444350, Note_on_c, 0, 35, 0
1, 444360, Note_on_c, 0, 45, 120
1, 444360, Note_on_c, 0, 33, 120
1, 444470, Note_on_c, 0, 90, 0
1, 444470, Note_on_c, 0, 93, 0
1, 444470, Note_on_c, 0, 81, 0
1, 444470, Note_on_c, 0, 45, 0
1, 444470, Note_on_c, 0, 33, 0
1, 444480, Note_on_c, 0, 90, 120
1, 444480, Note_on_c, 0, 93, 120
1, 444480, Note_on_c, 0, 81, 120
1, 444599, Control_c, 0, 64, 127
1, 444600, Note_on_c, 0, 45, 120
1, 444600, Note_on_c, 0, 33, 120
1, 444710, Note_on_c, 0, 45, 0
1, 444710, Note_on_c, 0, 33, 0
1, 444720, Note_on_c, 0, 47, 120
1, 444720, Note_on_c, 0, 35, 120
1, 444830, Note_on_c, 0, 90, 0
1, 444830, Note_on_c, 0, 93, 0
1, 444830, Note_on_c, 0, 81, 0
1, 444830, Note_on_c, 0, 47, 0
1, 444830, Note_on_c, 0, 35, 0
1, 444840, Note_on_c, 0, 81, 120
1, 444840, Note_on_c, 0, 88, 120
1, 444840, Note_on_c, 0, 91, 120
1, 444840, Note_on_c, 0, 79, 120
1, 444840, Note_on_c, 0, 49, 120
1, 444840, Note_on_c, 0, 37, 120
1, 444950, Note_on_c, 0, 49, 0
1, 444950, Note_on_c, 0, 37, 0
1, 444960, Note_on_c, 0, 50, 120
1, 444960, Note_on_c, 0, 38, 120
1, 445070, Note_on_c, 0, 50, 0
1, 445070, Note_on_c, 0, 38, 0
1, 445080, Note_on_c, 0, 52, 120
1, 445080, Note_on_c, 0, 40, 120
1, 445190, Note_on_c, 0, 81, 0
1, 445190, Note_on_c, 0, 88, 0
1, 445190, Note_on_c, 0, 91, 0
1, 445190, Note_on_c, 0, 79, 0
1, 445190, Note_on_c, 0, 52, 0
1, 445190, Note_on_c, 0, 40, 0
1, 445200, Note_on_c, 0, 81, 120
1, 445200, Note_on_c, 0, 86, 120
1, 445200, Note_on_c, 0, 90, 120
1, 445200, Note_on_c, 0, 78, 120
1, 445200, Note_on_c, 0, 54, 120
1, 445200, Note_on_c, 0, 42, 120
1, 445223, Control_c, 0, 64, 0
1, 445310, Note_on_c, 0, 54, 0
1, 445310, Note_on_c, 0, 42, 0
1, 445320, Note_on_c, 0, 55, 120
1, 445320, Note_on_c, 0, 43, 120
1, 445430, Note_on_c, 0, 55, 0
1, 445430, Note_on_c, 0, 43, 0
1, 445440, Note_on_c, 0, 57, 120
1, 445440, Note_on_c, 0, 45, 120
1, 445550, Note_on_c, 0, 81, 0
1, 445550, Note_on_c, 0, 86, 0
1, 445550, Note_on_c, 0, 90, 0
1, 445550, Note_on_c, 0, 78, 0
1, 445550, Note_on_c, 0, 57, 0
1, 445550, Note_on_c, 0, 45, 0
1, 445560, Note_on_c, 0, 79, 120
1, 445560, Note_on_c, 0, 81, 120
1, 445560, Note_on_c, 0, 88, 120
1, 445560, Note_on_c, 0, 76, 120
1, 445560, Note_on_c, 0, 59, 120
1, 445560, Note_on_c, 0, 47, 120
1, 445670, Note_on_c, 0, 59, 0
1, 445670, Note_on_c, 0, 47, 0
1, 445680, Note_on_c, 0, 57, 120
1, 445680, Note_on_c, 0, 45, 120
1, 445790, Note_on_c, 0, 57, 0
1, 445790, Note_on_c, 0, 45, 0
1, 445800, Note_on_c, 0, 61, 120
1, 445800, Note_on_c, 0, 49, 120
1, 445910, Note_on_c, 0, 79, 0
1, 445910, Note_on_c, 0, 81, 0
1, 445910, Note_on_c, 0, 88, 0
1, 445910, Note_on_c, 0, 76, 0
1, 445910, Note_on_c, 0, 61, 0
1, 445910, Note_on_c, 0, 49, 0
1, 445920, Note_on_c, 0, 78, 120
1, 445920, Note_on_c, 0, 81, 120
1, 445920, Note_on_c, 0, 86, 120
1, 445920, Note_on_c, 0, 74, 120
1, 445920, Note_on_c, 0, 62, 120
1, 445920, Note_on_c, 0, 62, 120
1, 446018, Control_c, 0, 64, 127
1, 446030, Note_on_c, 0, 62, 0
1, 446030, Note_on_c, 0, 62, 0
1, 446040, Note_on_c, 0, 57, 120
1, 446040, Note_on_c, 0, 57, 120
1, 446150, Note_on_c, 0, 57, 0
1, 446150, Note_on_c, 0, 57, 0
1, 446160, Note_on_c, 0, 55, 120
1, 446160, Note_on_c, 0, 55, 120
1, 446270, Note_on_c, 0, 78, 0
1, 446270, Note_on_c, 0, 81, 0
1, 446270, Note_on_c, 0, 86, 0
1, 446270, Note_on_c, 0, 74, 0
1, 446270, Note_on_c, 0, 55, 0
1, 446270, Note_on_c, 0, 55, 0
1, 446280, Note_on_c, 0, 78, 120
1, 446280, Note_on_c, 0, 81, 120
1, 446280, Note_on_c, 0, 86, 120
1, 446280, Note_on_c, 0, 74, 120
1, 446280, Note_on_c, 0, 54, 120
1, 446280, Note_on_c, 0, 54, 120
1, 446390, Note_on_c, 0, 54, 0
1, 446390, Note_on_c, 0, 54, 0
1, 446400, Note_on_c, 0, 52, 120
1, 446400, Note_on_c, 0, 52, 120
1, 446510, Note_on_c, 0, 52, 0
1, 446510, Note_on_c, 0, 52, 0
1, 446520, Note_on_c, 0, 50, 120
1, 446520, Note_on_c, 0, 50, 120
1, 446581, Control_c, 0, 64, 0
1, 446630, Note_on_c, 0, 78, 0
1, 446630, Note_on_c, 0, 81, 0
1, 446630, Note_on_c, 0, 86, 0
1, 446630, Note_on_c, 0, 74, 0
1, 446630, Note_on_c, 0, 50, 0
1, 446630, Note_on_c, 0, 50, 0
1, 446640, Note_on_c, 0, 81, 120
1, 446640, Note_on_c, 0, 88, 120
1, 446640, Note_on_c, 0, 76, 120
1, 446640, Note_on_c, 0, 49, 120
1, 446640, Note_on_c, 0, 49, 120
1, 446750, Note_on_c, 0, 49, 0
1, 446750, Note_on_c, 0, 49, 0
1, 446760, Note_on_c, 0, 50, 120
1, 446760, Note_on_c, 0, 50, 120
1, 446870, Note_on_c, 0, 50, 0
1, 446870, Note_on_c, 0, 50, 0
1, 446880, Note_on_c, 0, 47, 120
1, 446880, Note_on_c, 0, 47, 120
1, 446990, Note_on_c, 0, 81, 0
1, 446990, Note_on_c, 0, 88, 0
1, 446990, Note_on_c, 0, 76, 0
1, 446990, Note_on_c, 0, 47, 0
1, 446990, Note_on_c, 0, 47, 0
1, 447000, Note_on_c, 0, 86, 120
1, 447000, Note_on_c, 0, 90, 120
1, 447000, Note_on_c, 0, 78, 120
1, 447000, Note_on_c, 0, 45, 120
1, 447000, Note_on_c, 0, 45, 120
1, 447110, Note_on_c, 0, 45, 0
1, 447110, Note_on_c, 0, 45, 0
1, 447120, Note_on_c, 0, 47, 120
1, 447120, Note_on_c, 0, 47, 120
1, 447230, Note_on_c, 0, 47, 0
1, 447230, Note_on_c, 0, 47, 0
1, 447240, Note_on_c, 0, 44, 120
1, 447240, Note_on_c, 0, 44, 120
1, 447350, Note_on_c, 0, 86, 0
1, 447350, Note_on_c, 0, 90, 0
1, 447350, Note_on_c, 0, 78, 0
1, 447350, Note_on_c, 0, 44, 0
1, 447350, Note_on_c, 0, 44, 0
1, 447360, Note_on_c, 0, 86, 120
1, 447360, Note_on_c, 0, 90, 120
1, 447360, Note_on_c, 0, 78, 120
1, 447463, Control_c, 0, 64, 127
1, 447480, Note_on_c, 0, 45, 120
1, 447480, Note_on_c, 0, 45, 120
1, 447590, Note_on_c, 0, 45, 0
1, 447590, Note_on_c, 0, 45, 0
1, 447600, Note_on_c, 0, 47, 120
1, 447600, Note_on_c, 0, 47, 120
1, 447710, Note_on_c, 0, 47, 0
1, 447710, Note_on_c, 0, 47, 0
1, 447720, Note_on_c, 0, 49, 120
1, 447720, Note_on_c, 0, 49, 120
1, 447830, Note_on_c, 0, 49, 0
1, 447830, Note_on_c, 0, 49, 0
1, 447840, Note_on_c, 0, 50, 120
1, 447840, Note_on_c, 0, 50, 120
1, 447950, Note_on_c, 0, 86, 0
1, 447950, Note_on_c, 0, 90, 0
1, 447950, Note_on_c, 0, 78, 0
1, 447950, Note_on_c, 0, 50, 0
1, 447950, Note_on_c, 0, 50, 0
1, 447960, Note_on_c, 0, 85, 120
1, 447960, Note_on_c, 0, 88, 120
1, 447960, Note_on_c, 0, 76, 120
1, 447960, Note_on_c, 0, 52, 120
1, 447960, Note_on_c, 0, 52, 120
1, 448015, Control_c, 0, 64, 0
1, 448070, Note_on_c, 0, 85, 0
1, 448070, Note_on_c, 0, 88, 0
1, 448070, Note_on_c, 0, 76, 0
1, 448070, Note_on_c, 0, 52, 0
1, 448070, Note_on_c, 0, 52, 0
1, 448080, Note_on_c, 0, 85, 120
1, 448080, Note_on_c, 0, 88, 120
1, 448080, Note_on_c, 0, 76, 120
1, 448080, Note_on_c, 0, 54, 120
1, 448080, Note_on_c, 0, 42, 120
1, 448190, Note_on_c, 0, 54, 0
1, 448190, Note_on_c, 0, 42, 0
1, 448200, Note_on_c, 0, 55, 120
1, 448200, Note_on_c, 0, 43, 120
1, 448310, Note_on_c, 0, 85, 0
1, 448310, Note_on_c, 0, 88, 0
1, 448310, Note_on_c, 0, 76, 0
1, 448310, Note_on_c, 0, 55, 0
1, 448310, Note_on_c, 0, 43, 0
1, 448320, Note_on_c, 0, 57, 120
1, 448320, Note_on_c, 0, 45, 120
1, 448430, Note_on_c, 0, 57, 0
1, 448430, Note_on_c, 0, 45, 0
1, 448440, Note_on_c, 0, 59, 120
1, 448440, Note_on_c, 0, 47, 120
1, 448550, Note_on_c, 0, 59, 0
1, 448550, Note_on_c, 0, 47, 0
1, 448560, Note_on_c, 0, 57, 120
1, 448560, Note_on_c, 0, 45, 120
1, 448670, Note_on_c, 0, 57, 0
1, 448670, Note_on_c, 0, 45, 0
1, 448680, Note_on_c, 0, 61, 120
1, 448680, Note_on_c, 0, 49, 120
1, 448790, Note_on_c, 0, 61, 0
1, 448790, Note_on_c, 0, 49, 0
1, 448800, Note_on_c, 0, 81, 120
1, 448800, Note_on_c, 0, 86, 120
1, 448800, Note_on_c, 0, 90, 120
1, 448800, Note_on_c, 0, 78, 120
1, 448800, Note_on_c, 0, 62, 120
1, 448800, Note_on_c, 0, 50, 120
1, 448888, Control_c, 0, 64, 127
1, 448910, Note_on_c, 0, 62, 0
1, 448910, Note_on_c, 0, 50, 0
1, 448920, Note_on_c, 0, 59, 120
1, 448920, Note_on_c, 0, 47, 120
1, 449030, Note_on_c, 0, 59, 0
1, 449030, Note_on_c, 0, 47, 0
1, 449040, Note_on_c, 0, 57, 120
1, 449040, Note_on_c, 0, 45, 120
1, 449150, Note_on_c, 0, 81, 0
1, 449150, Note_on_c, 0, 86, 0
1, 449150, Note_on_c, 0, 90, 0
1, 449150, Note_on_c, 0, 78, 0
1, 449150, Note_on_c, 0, 57, 0
1, 449150, Note_on_c, 0, 45, 0
1, 449160, Note_on_c, 0, 81, 120
1, 449160, Note_on_c, 0, 86, 120
1, 449160, Note_on_c, 0, 90, 120
1, 449160, Note_on_c, 0, 78, 120
1, 449160, Note_on_c, 0, 55, 120
1, 449160, Note_on_c, 0, 43, 120
1, 449270, Note_on_c, 0, 55, 0
1, 449270, Note_on_c, 0, 43, 0
1, 449280, Note_on_c, 0, 54, 120
1, 449280, Note_on_c, 0, 42, 120
1, 449390, Note_on_c, 0, 54, 0
1, 449390, Note_on_c, 0, 42, 0
1, 449400, Note_on_c, 0, 52, 120
1, 449400, Note_on_c, 0, 40, 120
1, 449510, Note_on_c, 0, 81, 0
1, 449510, Note_on_c, 0, 86, 0
1, 449510, Note_on_c, 0, 90, 0
1, 449510, Note_on_c, 0, 78, 0
1, 449510, Note_on_c, 0, 52, 0
1, 449510, Note_on_c, 0, 40, 0
1, 449520, Note_on_c, 0, 83, 120
1, 449520, Note_on_c, 0, 86, 120
1, 449520, Note_on_c, 0, 91, 120
1, 449520, Note_on_c, 0, 79, 120
1, 449520, Note_on_c, 0, 50, 120
1, 449520, Note_on_c, 0, 38, 120
1, 449630, Note_on_c, 0, 50, 0
1, 449630, Note_on_c, 0, 38, 0
1, 449640, Note_on_c, 0, 52, 120
1, 449640, Note_on_c, 0, 40, 120
1, 449750, Note_on_c, 0, 52, 0
1, 449750, Note_on_c, 0, 40, 0
1, 449760, Note_on_c, 0, 50, 120
1, 449760, Note_on_c, 0, 38, 120
1, 449787, Control_c, 0, 64, 0
1, 449870, Note_on_c, 0, 83, 0
1, 449870, Note_on_c, 0, 86, 0
1, 449870, Note_on_c, 0, 91, 0
1, 449870, Note_on_c, 0, 79, 0
1, 449870, Note_on_c, 0, 50, 0
1, 449870, Note_on_c, 0, 38, 0
1, 449880, Note_on_c, 0, 84, 120
1, 449880, Note_on_c, 0, 86, 120
1, 449880, Note_on_c, 0, 93, 120
1, 449880, Note_on_c, 0, 81, 120
1, 449880, Note_on_c, 0, 48, 120
1, 449880, Note_on_c, 0, 36, 120
1, 449990, Note_on_c, 0, 48, 0
1, 449990, Note_on_c, 0, 36, 0
1, 450000, Note_on_c, 0, 47, 120
1, 450000, Note_on_c, 0, 35, 120
1, 450110, Note_on_c, 0, 47, 0
1, 450110, Note_on_c, 0, 35, 0
1, 450120, Note_on_c, 0, 45, 120
1, 450120, Note_on_c, 0, 33, 120
1, 450230, Note_on_c, 0, 84, 0
1, 450230, Note_on_c, 0, 86, 0
1, 450230, Note_on_c, 0, 93, 0
1, 450230, Note_on_c, 0, 81, 0
1, 450230, Note_on_c, 0, 45, 0
1, 450230, Note_on_c, 0, 33, 0
1, 450240, Note_on_c, 0, 84, 120
1, 450240, Note_on_c, 0, 86, 120
1, 450240, Note_on_c, 0, 93, 120
1, 450240, Note_on_c, 0, 81, 120
1, 450240, Note_on_c, 0, 43, 120
1, 450240, Note_on_c, 0, 31, 120
1, 450330, Control_c, 0, 64, 127
1, 450350, Note_on_c, 0, 43, 0
1, 450350, Note_on_c, 0, 31, 0
1, 450360, Note_on_c, 0, 45, 120
1, 450360, Note_on_c, 0, 33, 120
1, 450470, Note_on_c, 0, 45, 0
1, 450470, Note_on_c, 0, 33, 0
1, 450480, Note_on_c, 0, 47, 120
1, 450480, Note_on_c, 0, 35, 120
1, 450590, Note_on_c, 0, 84, 0
1, 450590, Note_on_c, 0, 86, 0
1, 450590, Note_on_c, 0, 93, 0
1, 450590, Note_on_c, 0, 81, 0
1, 450590, Note_on_c, 0, 47, 0
1, 450590, Note_on_c, 0, 35, 0
1, 450600, Note_on_c, 0, 83, 120
1, 450600, Note_on_c, 0, 86, 120
1, 450600, Note_on_c, 0, 91, 120
1, 450600, Note_on_c, 0, 79, 120
1, 450600, Note_on_c, 0, 48, 120
1, 450600, Note_on_c, 0, 36, 120
1, 450710, Note_on_c, 0, 48, 0
1, 450710, Note_on_c, 0, 36, 0
1, 450720, Note_on_c, 0, 50, 120
1, 450720, Note_on_c, 0, 38, 120
1, 450830, Note_on_c, 0, 50, 0
1, 450830, Note_on_c, 0, 38, 0
1, 450840, Note_on_c, 0, 52, 120
1, 450840, Note_on_c, 0, 40, 120
1, 450911, Control_c, 0, 64, 0
1, 450950, Note_on_c, 0, 83, 0
1, 450950, Note_on_c, 0, 86, 0
1, 450950, Note_on_c, 0, 91, 0
1, 450950, Note_on_c, 0, 79, 0
1, 450950, Note_on_c, 0, 52, 0
1, 450950, Note_on_c, 0, 40, 0
1, 450960, Note_on_c, 0, 81, 120
1, 450960, Note_on_c, 0, 86, 120
1, 450960, Note_on_c, 0, 90, 120
1, 450960, Note_on_c, 0, 78, 120
1, 450960, Note_on_c, 0, 54, 120
1, 450960, Note_on_c, 0, 42, 120
1, 451070, Note_on_c, 0, 54, 0
1, 451070, Note_on_c, 0, 42, 0
1, 451080, Note_on_c, 0, 55, 120
1, 451080, Note_on_c, 0, 43, 120
1, 451190, Note_on_c, 0, 55, 0
1, 451190, Note_on_c, 0, 43, 0
1, 451200, Note_on_c, 0, 57, 120
1, 451200, Note_on_c, 0, 45, 120
1, 451310, Note_on_c, 0, 81, 0
1, 451310, Note_on_c, 0, 86, 0
1, 451310, Note_on_c, 0, 90, 0
1, 451310, Note_on_c, 0, 78, 0
1, 451310, Note_on_c, 0, 57, 0
1, 451310, Note_on_c, 0, 45, 0
1, 451320, Note_on_c, 0, 79, 120
1, 451320, Note_on_c, 0, 88, 120
1, 451320, Note_on_c, 0, 76, 120
1, 451320, Note_on_c, 0, 59, 120
1, 451320, Note_on_c, 0, 47, 120
1, 451430, Note_on_c, 0, 59, 0
1, 451430, Note_on_c, 0, 47, 0
1, 451560, Note_on_c, 0, 55, 120
1, 451560, Note_on_c, 0, 43, 120
1, 451670, Note_on_c, 0, 79, 0
1, 451670, Note_on_c, 0, 88, 0
1, 451670, Note_on_c, 0, 76, 0
1, 451670, Note_on_c, 0, 55, 0
1, 451670, Note_on_c, 0, 43, 0
1, 451680, Note_on_c, 0, 78, 120
1, 451680, Note_on_c, 0, 86, 120
1, 451680, Note_on_c, 0, 74, 120
1, 451680, Note_on_c, 0, 57, 120
1, 451680, Note_on_c, 0, 45, 120
1, 451790, Note_on_c, 0, 57, 0
1, 451790, Note_on_c, 0, 45, 0
1, 451795, Control_c, 0, 64, 127
1, 451800, Note_on_c, 0, 67, 120
1, 451800, Note_on_c, 0, 55, 120
1, 451910, Note_on_c, 0, 67, 0
1, 451910, Note_on_c, 0, 55, 0
1, 451920, Note_on_c, 0, 66, 120
1, 451920, Note_on_c, 0, 54, 120
1, 452030, Note_on_c, 0, 78, 0
1, 452030, Note_on_c, 0, 86, 0
1, 452030, Note_on_c, 0, 74, 0
1, 452030, Note_on_c, 0, 66, 0
1, 452030, Note_on_c, 0, 54, 0
1, 452040, Note_on_c, 0, 78, 120
1, 452040, Note_on_c, 0, 81, 120
1, 452040, Note_on_c, 0, 86, 120
1, 452040, Note_on_c, 0, 74, 120
1, 452040, Note_on_c, 0, 64, 120
1, 452040, Note_on_c, 0, 52, 120
1, 452150, Note_on_c, 0, 64, 0
1, 452150, Note_on_c, 0, 52, 0
1, 452160, Note_on_c, 0, 62, 120
1, 452160, Note_on_c, 0, 50, 120
1, 452270, Note_on_c, 0, 62, 0
1, 452270, Note_on_c, 0, 50, 0
1, 452280, Note_on_c, 0, 61, 120
1, 452280, Note_on_c, 0, 49, 120
1, 452355, Control_c, 0, 64, 0
1, 452390, Note_on_c, 0, 78, 0
1, 452390, Note_on_c, 0, 81, 0
1, 452390, Note_on_c, 0, 86, 0
1, 452390, Note_on_c, 0, 74, 0
1, 452390, Note_on_c, 0, 61, 0
1, 452390, Note_on_c, 0, 49, 0
1, 452400, Note_on_c, 0, 79, 120
1, 452400, Note_on_c, 0, 85, 120
1, 452400, Note_on_c, 0, 88, 120
1, 452400, Note_on_c, 0, 76, 120
1, 452400, Note_on_c, 0, 59, 120
1, 452400, Note_on_c, 0, 47, 120
1, 452482, Control_c, 0, 64, 127
1, 452510, Note_on_c, 0, 59, 0
1, 452510, Note_on_c, 0, 47, 0
1, 452520, Note_on_c, 0, 57, 120
1, 452520, Note_on_c, 0, 45, 120
1, 452630, Note_on_c, 0, 57, 0
1, 452630, Note_on_c, 0, 45, 0
1, 452640, Note_on_c, 0, 62, 120
1, 452640, Note_on_c, 0, 50, 120
1, 452750, Note_on_c, 0, 79, 0
1, 452750, Note_on_c, 0, 85, 0
1, 452750, Note_on_c, 0, 88, 0
1, 452750, Note_on_c, 0, 76, 0
1, 452750, Note_on_c, 0, 62, 0
1, 452750, Note_on_c, 0, 50, 0
1, 452760, Note_on_c, 0, 81, 120
1, 452760, Note_on_c, 0, 86, 120
1, 452760, Note_on_c, 0, 90, 120
1, 452760, Note_on_c, 0, 78, 120
1, 452760, Note_on_c, 0, 57, 120
1, 452760, Note_on_c, 0, 45, 120
1, 452870, Note_on_c, 0, 57, 0
1, 452870, Note_on_c, 0, 45, 0
1, 452880, Note_on_c, 0, 54, 120
1, 452880, Note_on_c, 0, 42, 120
1, 452990, Note_on_c, 0, 54, 0
1, 452990, Note_on_c, 0, 42, 0
1, 453000, Note_on_c, 0, 50, 120
1, 453000, Note_on_c, 0, 38, 120
1, 453109, Control_c, 0, 64, 0
1, 453110, Note_on_c, 0, 81, 0
1, 453110, Note_on_c, 0, 86, 0
1, 453110, Note_on_c, 0, 90, 0
1, 453110, Note_on_c, 0, 78, 0
1, 453110, Note_on_c, 0, 50, 0
1, 453110, Note_on_c, 0, 38, 0
1, 453120, Note_on_c, 0, 79, 120
1, 453120, Note_on_c, 0, 85, 120
1, 453120, Note_on_c, 0, 88, 120
1, 453120, Note_on_c, 0, 76, 120
1, 453120, Note_on_c, 0, 47, 120
1, 453120, Note_on_c, 0, 35, 120
1, 453230, Note_on_c, 0, 47, 0
1, 453230, Note_on_c, 0, 35, 0
1, 453240, Note_on_c, 0, 45, 120
1, 453240, Note_on_c, 0, 33, 120
1, 453350, Note_on_c, 0, 45, 0
1, 453350, Note_on_c, 0, 33, 0
1, 453360, Note_on_c, 0, 44, 120
1, 453360, Note_on_c, 0, 32, 120
1, 453470, Note_on_c, 0, 44, 0
1, 453470, Note_on_c, 0, 32, 0
1, 453480, Note_on_c, 0, 45, 120
1, 453480, Note_on_c, 0, 33, 120
1, 453590, Note_on_c, 0, 45, 0
1, 453590, Note_on_c, 0, 33, 0
1, 453710, Note_on_c, 0, 79, 0
1, 453710, Note_on_c, 0, 85, 0
1, 453710, Note_on_c, 0, 88, 0
1, 453710, Note_on_c, 0, 76, 0
1, 453720, Note_on_c, 0, 78, 120
1, 453720, Note_on_c, 0, 81, 120
1, 453720, Note_on_c, 0, 86, 120
1, 453720, Note_on_c, 0, 74, 120
1, 453720, Note_on_c, 0, 45, 120
1, 453720, Note_on_c, 0, 33, 120
1, 453830, Note_on_c, 0, 78, 0
1, 453830, Note_on_c, 0, 81, 0
1, 453830, Note_on_c, 0, 86, 0
1, 453830, Note_on_c, 0, 74, 0
1, 453830, Note_on_c, 0, 45, 0
1, 453830, Note_on_c, 0, 33, 0
1, 453840, Note_on_c, 0, 78, 120
1, 453840, Note_on_c, 0, 81, 120
1, 453840, Note_on_c, 0, 86, 120
1, 453840, Note_on_c, 0, 74, 120
1, 453840, Note_on_c, 0, 50, 120
1, 453840, Note_on_c, 0, 38, 120
1, 453940, Control_c, 0, 64, 127
1, 453950, Note_on_c, 0, 50, 0
1, 453950, Note_on_c, 0, 38, 0
1, 453960, Note_on_c, 0, 57, 120
1, 453960, Note_on_c, 0, 45, 120
1, 454070, Note_on_c, 0, 78, 0
1, 454070, Note_on_c, 0, 81, 0
1, 454070, Note_on_c, 0, 86, 0
1, 454070, Note_on_c, 0, 74, 0
1, 454070, Note_on_c, 0, 57, 0
1, 454070, Note_on_c, 0, 45, 0
1, 454080, Note_on_c, 0, 56, 120
1, 454080, Note_on_c, 0, 44, 120
1, 454190, Note_on_c, 0, 56, 0
1, 454190, Note_on_c, 0, 44, 0
1, 454200, Note_on_c, 0, 57, 120
1, 454200, Note_on_c, 0, 45, 120
1, 454310, Note_on_c, 0, 57, 0
1, 454310, Note_on_c, 0, 45, 0
1, 454320, Note_on_c, 0, 54, 120
1, 454320, Note_on_c, 0, 42, 120
1, 454430, Note_on_c, 0, 54, 0
1, 454430, Note_on_c, 0, 42, 0
1, 454440, Note_on_c, 0, 50, 120
1, 454440, Note_on_c, 0, 38, 120
1, 454502, Control_c, 0, 64, 0
1, 454550, Note_on_c, 0, 50, 0
1, 454550, Note_on_c, 0, 38, 0
1, 454560, Note_on_c, 0, 69, 120
1, 454560, Note_on_c, 0, 73, 120
1, 454560, Note_on_c, 0, 76, 120
1, 454560, Note_on_c, 0, 64, 120
1, 454560, Note_on_c, 0, 45, 120
1, 454560, Note_on_c, 0, 33, 120
1, 454670, Note_on_c, 0, 45, 0
1, 454670, Note_on_c, 0, 33, 0
1, 454680, Note_on_c, 0, 57, 120
1, 454680, Note_on_c, 0, 45, 120
1, 454680, Control_c, 0, 64, 127
1, 454790, Note_on_c, 0, 57, 0
1, 454790, Note_on_c, 0, 45, 0
1, 454800, Note_on_c, 0, 56, 120
1, 454800, Note_on_c, 0, 44, 120
1, 454910, Note_on_c, 0, 69, 0
1, 454910, Note_on_c, 0, 73, 0
1, 454910, Note_on_c, 0, 76, 0
1, 454910, Note_on_c, 0, 64, 0
1, 454910, Note_on_c, 0, 56, 0
1, 454910, Note_on_c, 0, 44, 0
1, 454920, Note_on_c, 0, 69, 120
1, 454920, Note_on_c, 0, 73, 120
1, 454920, Note_on_c, 0, 76, 120
1, 454920, Note_on_c, 0, 64, 120
1, 454920, Note_on_c, 0, 57, 120
1, 454920, Note_on_c, 0, 45, 120
1, 455030, Note_on_c, 0, 57, 0
1, 455030, Note_on_c, 0, 45, 0
1, 455040, Note_on_c, 0, 52, 120
1, 455040, Note_on_c, 0, 40, 120
1, 455150, Note_on_c, 0, 52, 0
1, 455150, Note_on_c, 0, 40, 0
1, 455160, Note_on_c, 0, 49, 120
1, 455160, Note_on_c, 0, 37, 120
1, 455230, Control_c, 0, 64, 0
1, 455270, Note_on_c, 0, 69, 0
1, 455270, Note_on_c, 0, 73, 0
1, 455270, Note_on_c, 0, 76, 0
1, 455270, Note_on_c, 0, 64, 0
1, 455270, Note_on_c, 0, 49, 0
1, 455270, Note_on_c, 0, 37, 0
1, 455280, Note_on_c, 0, 69, 120
1, 455280, Note_on_c, 0, 74, 120
1, 455280, Note_on_c, 0, 78, 120
1, 455280, Note_on_c, 0, 66, 120
1, 455280, Note_on_c, 0, 45, 120
1, 455280, Note_on_c, 0, 33, 120
1, 455370, Control_c, 0, 64, 127
1, 455390, Note_on_c, 0, 45, 0
1, 455390, Note_on_c, 0, 33, 0
1, 455400, Note_on_c, 0, 57, 120
1, 455400, Note_on_c, 0, 45, 120
1, 455510, Note_on_c, 0, 57, 0
1, 455510, Note_on_c, 0, 45, 0
1, 455520, Note_on_c, 0, 56, 120
1, 455520, Note_on_c, 0, 44, 120
1, 455630, Note_on_c, 0, 69, 0
1, 455630, Note_on_c, 0, 74, 0
1, 455630, Note_on_c, 0, 78, 0
1, 455630, Note_on_c, 0, 66, 0
1, 455630, Note_on_c, 0, 56, 0
1, 455630, Note_on_c, 0, 44, 0
1, 455640, Note_on_c, 0, 66, 120
1, 455640, Note_on_c, 0, 69, 120
1, 455640, Note_on_c, 0, 74, 120
1, 455640, Note_on_c, 0, 62, 120
1, 455640, Note_on_c, 0, 57, 120
1, 455640, Note_on_c, 0, 45, 120
1, 455750, Note_on_c, 0, 57, 0
1, 455750, Note_on_c, 0, 45, 0
1, 455760, Note_on_c, 0, 54, 120
1, 455760, Note_on_c, 0, 42, 120
1, 455870, Note_on_c, 0, 54, 0
1, 455870, Note_on_c, 0, 42, 0
1, 455880, Note_on_c, 0, 50, 120
1, 455880, Note_on_c, 0, 38, 120
1, 455953, Control_c, 0, 64, 0
1, 455990, Note_on_c, 0, 66, 0
1, 455990, Note_on_c, 0, 69, 0
1, 455990, Note_on_c, 0, 74, 0
1, 455990, Note_on_c, 0, 62, 0
1, 455990, Note_on_c, 0, 50, 0
1, 455990, Note_on_c, 0, 38, 0
1, 456000, Note_on_c, 0, 69, 120
1, 456000, Note_on_c, 0, 73, 120
1, 456000, Note_on_c, 0, 76, 120
1, 456000, Note_on_c, 0, 64, 120
1, 456000, Note_on_c, 0, 45, 120
1, 456000, Note_on_c, 0, 33, 120
1, 456039, Control_c, 0, 64, 127
1, 456110, Note_on_c, 0, 45, 0
1, 456110, Note_on_c, 0, 33, 0
1, 456120, Note_on_c, 0, 57, 120
1, 456120, Note_on_c, 0, 45, 120
1, 456230, Note_on_c, 0, 57, 0
1, 456230, Note_on_c, 0, 45, 0
1, 456240, Note_on_c, 0, 59, 120
1, 456240, Note_on_c, 0, 47, 120
1, 456350, Note_on_c, 0, 69, 0
1, 456350, Note_on_c, 0, 73, 0
1, 456350, Note_on_c, 0, 76, 0
1, 456350, Note_on_c, 0, 64, 0
1, 456350, Note_on_c, 0, 59, 0
1, 456350, Note_on_c, 0, 47, 0
1, 456360, Note_on_c, 0, 74, 120
1, 456360, Note_on_c, 0, 78, 120
1, 456360, Note_on_c, 0, 66, 120
1, 456360, Note_on_c, 0, 57, 120
1, 456360, Note_on_c, 0, 45, 120
1, 456470, Note_on_c, 0, 57, 0
1, 456470, Note_on_c, 0, 45, 0
1, 456480, Note_on_c, 0, 57, 120
1, 456480, Note_on_c, 0, 45, 120
1, 456590, Note_on_c, 0, 74, 0
1, 456590, Note_on_c, 0, 78, 0
1, 456590, Note_on_c, 0, 66, 0
1, 456590, Note_on_c, 0, 57, 0
1, 456590, Note_on_c, 0, 45, 0
1, 456600, Note_on_c, 0, 76, 120
1, 456600, Note_on_c, 0, 79, 120
1, 456600, Note_on_c, 0, 67, 120
1, 456600, Note_on_c, 0, 57, 120
1, 456600, Note_on_c, 0, 45, 120
1, 456627, Control_c, 0, 64, 0
1, 456710, Note_on_c, 0, 76, 0
1, 456710, Note_on_c, 0, 79, 0
1, 456710, Note_on_c, 0, 67, 0
1, 456710, Note_on_c, 0, 57, 0
1, 456710, Note_on_c, 0, 45, 0
1, 456714, Control_c, 0, 64, 127
1, 456720, Note_on_c, 0, 74, 120
1, 456720, Note_on_c, 0, 78, 120
1, 456720, Note_on_c, 0, 66, 120
1, 456720, Note_on_c, 0, 45, 120
1, 456720, Note_on_c, 0, 33, 120
1, 456830, Note_on_c, 0, 45, 0
1, 456830, Note_on_c, 0, 33, 0
1, 456840, Note_on_c, 0, 57, 120
1, 456840, Note_on_c, 0, 45, 120
1, 456950, Note_on_c, 0, 57, 0
1, 456950, Note_on_c, 0, 45, 0
1, 456960, Note_on_c, 0, 56, 120
1, 456960, Note_on_c, 0, 44, 120
1, 457070, Note_on_c, 0, 74, 0
1, 457070, Note_on_c, 0, 78, 0
1, 457070, Note_on_c, 0, 66, 0
1, 457070, Note_on_c, 0, 56, 0
1, 457070, Note_on_c, 0, 44, 0
1, 457080, Note_on_c, 0, 78, 120
1, 457080, Note_on_c, 0, 81, 120
1, 457080, Note_on_c, 0, 86, 120
1, 457080, Note_on_c, 0, 74, 120
1, 457080, Note_on_c, 0, 57, 120
1, 457080, Note_on_c, 0, 45, 120
1, 457190, Note_on_c, 0, 57, 0
1, 457190, Note_on_c, 0, 45, 0
1, 457200, Note_on_c, 0, 54, 120
1, 457200, Note_on_c, 0, 42, 120
1, 457310, Note_on_c, 0, 54, 0
1, 457310, Note_on_c, 0, 42, 0
1, 457320, Note_on_c, 0, 50, 120
1, 457320, Note_on_c, 0, 38, 120
1, 457398, Control_c, 0, 64, 0
1, 457430, Note_on_c, 0, 78, 0
1, 457430, Note_on_c, 0, 81, 0
1, 457430, Note_on_c, 0, 86, 0
1, 457430, Note_on_c, 0, 74, 0
1, 457430, Note_on_c, 0, 50, 0
1, 457430, Note_on_c, 0, 38, 0
1, 457440, Note_on_c, 0, 81, 120
1, 457440, Note_on_c, 0, 85, 120
1, 457440, Note_on_c, 0, 88, 120
1, 457440, Note_on_c, 0, 76, 120
1, 457440, Note_on_c, 0, 45, 120
1, 457440, Note_on_c, 0, 33, 120
1, 457461, Control_c, 0, 64, 127
1, 457550, Note_on_c, 0, 45, 0
1, 457550, Note_on_c, 0, 33, 0
1, 457560, Note_on_c, 0, 57, 120
1, 457560, Note_on_c, 0, 45, 120
1, 457670, Note_on_c, 0, 57, 0
1, 457670, Note_on_c, 0, 45, 0
1, 457680, Note_on_c, 0, 59, 120
1, 457680, Note_on_c, 0, 47, 120
1, 457790, Note_on_c, 0, 81, 0
1, 457790, Note_on_c, 0, 85, 0
1, 457790, Note_on_c, 0, 88, 0
1, 457790, Note_on_c, 0, 76, 0
1, 457790, Note_on_c, 0, 59, 0
1, 457790, Note_on_c, 0, 47, 0
1, 457800, Note_on_c, 0, 86, 120
1, 457800, Note_on_c, 0, 90, 120
1, 457800, Note_on_c, 0, 78, 120
1, 457800, Note_on_c, 0, 57, 120
1, 457800, Note_on_c, 0, 45, 120
1, 457910, Note_on_c, 0, 57, 0
1, 457910, Note_on_c, 0, 45, 0
1, 457920, Note_on_c, 0, 57, 120
1, 457920, Note_on_c, 0, 45, 120
1, 458030, Note_on_c, 0, 86, 0
1, 458030, Note_on_c, 0, 90, 0
1, 458030, Note_on_c, 0, 78, 0
1, 458030, Note_on_c, 0, 57, 0
1, 458030, Note_on_c, 0, 45, 0
1, 458040, Note_on_c, 0, 88, 120
1, 458040, Note_on_c, 0, 91, 120
1, 458040, Note_on_c, 0, 79, 120
1, 458040, Note_on_c, 0, 57, 120
1, 458040, Note_on_c, 0, 45, 120
1, 458141, Control_c, 0, 64, 0
1, 458150, Note_on_c, 0, 88, 0
1, 458150, Note_on_c, 0, 91, 0
1, 458150, Note_on_c, 0, 79, 0
1, 458150, Note_on_c, 0, 57, 0
1, 458150, Note_on_c, 0, 45, 0
1, 458160, Note_on_c, 0, 85, 120
1, 458160, Note_on_c, 0, 90, 120
1, 458160, Note_on_c, 0, 78, 120
1, 458160, Note_on_c, 0, 58, 120
1, 458160, Note_on_c, 0, 46, 120
1, 458211, Control_c, 0, 64, 127
1, 458270, Note_on_c, 0, 58, 0
1, 458270, Note_on_c, 0, 46, 0
1, 458280, Note_on_c, 0, 61, 120
1, 458280, Note_on_c, 0, 66, 120
1, 458280, Note_on_c, 0, 58, 120
1, 458390, Note_on_c, 0, 61, 0
1, 458390, Note_on_c, 0, 66, 0
1, 458390, Note_on_c, 0, 58, 0
1, 458400, Note_on_c, 0, 61, 120
1, 458400, Note_on_c, 0, 66, 120
1, 458400, Note_on_c, 0, 58, 120
1, 458510, Note_on_c, 0, 85, 0
1, 458510, Note_on_c, 0, 90, 0
1, 458510, Note_on_c, 0, 78, 0
1, 458510, Note_on_c, 0, 61, 0
1, 458510, Note_on_c, 0, 66, 0
1, 458510, Note_on_c, 0, 58, 0
1, 458520, Note_on_c, 0, 82, 120
1, 458520, Note_on_c, 0, 85, 120
1, 458520, Note_on_c, 0, 88, 120
1, 458520, Note_on_c, 0, 76, 120
1, 458520, Note_on_c, 0, 54, 120
1, 458520, Note_on_c, 0, 42, 120
1, 458630, Note_on_c, 0, 54, 0
1, 458630, Note_on_c, 0, 42, 0
1, 458640, Note_on_c, 0, 61, 120
1, 458640, Note_on_c, 0, 64, 120
1, 458640, Note_on_c, 0, 54, 120
1, 458750, Note_on_c, 0, 61, 0
1, 458750, Note_on_c, 0, 64, 0
1, 458750, Note_on_c, 0, 54, 0
1, 458760, Note_on_c, 0, 61, 120
1, 458760, Note_on_c, 0, 64, 120
1, 458760, Note_on_c, 0, 54, 120
1, 458858, Control_c, 0, 64, 0
1, 458870, Note_on_c, 0, 82, 0
1, 458870, Note_on_c, 0, 85, 0
1, 458870, Note_on_c, 0, 88, 0
1, 458870, Note_on_c, 0, 76, 0
1, 458870, Note_on_c, 0, 61, 0
1, 458870, Note_on_c, 0, 64, 0
1, 458870, Note_on_c, 0, 54, 0
1, 458880, Note_on_c, 0, 78, 120
1, 458880, Note_on_c, 0, 83, 120
1, 458880, Note_on_c, 0, 86, 120
1, 458880, Note_on_c, 0, 74, 120
1, 458880, Note_on_c, 0, 47, 120
1, 458880, Note_on_c, 0, 35, 120
1, 458924, Control_c, 0, 64, 127
1, 458990, Note_on_c, 0, 47, 0
1, 458990, Note_on_c, 0, 35, 0
1, 459000, Note_on_c, 0, 59, 120
1, 459000, Note_on_c, 0, 62, 120
1, 459000, Note_on_c, 0, 54, 120
1, 459110, Note_on_c, 0, 59, 0
1, 459110, Note_on_c, 0, 62, 0
1, 459110, Note_on_c, 0, 54, 0
1, 459120, Note_on_c, 0, 59, 120
1, 459120, Note_on_c, 0, 62, 120
1, 459120, Note_on_c, 0, 54, 120
1, 459194, Control_c, 0, 64, 0
1, 459230, Note_on_c, 0, 78, 0
1, 459230, Note_on_c, 0, 83, 0
1, 459230, Note_on_c, 0, 86, 0
1, 459230, Note_on_c, 0, 74, 0
1, 459230, Note_on_c, 0, 59, 0
1, 459230, Note_on_c, 0, 62, 0
1, 459230, Note_on_c, 0, 54, 0
1, 459240, Note_on_c, 0, 80, 120
1, 459240, Note_on_c, 0, 83, 120
1, 459240, Note_on_c, 0, 88, 120
1, 459240, Note_on_c, 0, 76, 120
1, 459240, Note_on_c, 0, 52, 120
1, 459240, Note_on_c, 0, 40, 120
1, 459294, Control_c, 0, 64, 127
1, 459350, Note_on_c, 0, 52, 0
1, 459350, Note_on_c, 0, 40, 0
1, 459360, Note_on_c, 0, 59, 120
1, 459360, Note_on_c, 0, 64, 120
1, 459360, Note_on_c, 0, 56, 120
1, 459470, Note_on_c, 0, 59, 0
1, 459470, Note_on_c, 0, 64, 0
1, 459470, Note_on_c, 0, 56, 0
1, 459480, Note_on_c, 0, 59, 120
1, 459480, Note_on_c, 0, 64, 120
1, 459480, Note_on_c, 0, 56, 120
1, 459590, Note_on_c, 0, 80, 0
1, 459590, Note_on_c, 0, 83, 0
1, 459590, Note_on_c, 0, 88, 0
1, 459590, Note_on_c, 0, 76, 0
1, 459590, Note_on_c, 0, 59, 0
1, 459590, Note_on_c, 0, 64, 0
1, 459590, Note_on_c, 0, 56, 0
1, 459600, Note_on_c, 0, 73, 120
1, 459600, Note_on_c, 0, 76, 120
1, 459600, Note_on_c, 0, 81, 120
1, 459600, Note_on_c, 0, 69, 120
1, 459600, Note_on_c, 0, 57, 120
1, 459600, Note_on_c, 0, 45, 120
1, 459605, Control_c, 0, 64, 0
1, 459654, Control_c, 0, 64, 127
1, 459710, Note_on_c, 0, 57, 0
1, 459710, Note_on_c, 0, 45, 0
1, 459720, Note_on_c, 0, 61, 120
1, 459720, Note_on_c, 0, 64, 120
1, 459720, Note_on_c, 0, 57, 120
1, 459830, Note_on_c, 0, 61, 0
1, 459830, Note_on_c, 0, 64, 0
1, 459830, Note_on_c, 0, 57, 0
1, 459840, Note_on_c, 0, 61, 120
1, 459840, Note_on_c, 0, 64, 120
1, 459840, Note_on_c, 0, 57, 120
1, 459950, Note_on_c, 0, 73, 0
1, 459950, Note_on_c, 0, 76, 0
1, 459950, Note_on_c, 0, 81, 0
1, 459950, Note_on_c, 0, 69, 0
1, 459950, Note_on_c, 0, 61, 0
1, 459950, Note_on_c, 0, 64, 0
1, 459950, Note_on_c, 0, 57, 0
1, 459960, Note_on_c, 0, 81, 120
1, 459960, Note_on_c, 0, 86, 120
1, 459960, Note_on_c, 0, 90, 120
1, 459960, Note_on_c, 0, 78, 120
1, 459960, Note_on_c, 0, 45, 120
1, 459960, Note_on_c, 0, 33, 120
1, 459969, Control_c, 0, 64, 0
1, 460046, Control_c, 0, 64, 127
1, 460070, Note_on_c, 0, 45, 0
1, 460070, Note_on_c, 0, 33, 0
1, 460080, Note_on_c, 0, 62, 120
1, 460080, Note_on_c, 0, 66, 120
1, 460080, Note_on_c, 0, 54, 120
1, 460190, Note_on_c, 0, 62, 0
1, 460190, Note_on_c, 0, 66, 0
1, 460190, Note_on_c, 0, 54, 0
1, 460200, Note_on_c, 0, 62, 120
1, 460200, Note_on_c, 0, 66, 120
1, 460200, Note_on_c, 0, 54, 120
1, 460308, Control_c, 0, 64, 0
1, 460310, Note_on_c, 0, 62, 0
1, 460310, Note_on_c, 0, 66, 0
1, 460310, Note_on_c, 0, 54, 0
1, 460320, Note_on_c, 0, 50, 120
1, 460320, Note_on_c, 0, 38, 120
1, 460370, Control_c, 0, 64, 127
1, 460430, Note_on_c, 0, 50, 0
1, 460430, Note_on_c, 0, 38, 0
1, 460440, Note_on_c, 0, 62, 120
1, 460440, Note_on_c, 0, 50, 120
1, 460550, Note_on_c, 0, 62, 0
1, 460550, Note_on_c, 0, 50, 0
1, 460560, Note_on_c, 0, 60, 120
1, 460560, Note_on_c, 0, 48, 120
1, 460670, Note_on_c, 0, 81, 0
1, 460670, Note_on_c, 0, 86, 0
1, 460670, Note_on_c, 0, 90, 0
1, 460670, Note_on_c, 0, 78, 0
1, 460670, Note_on_c, 0, 60, 0
1, 460670, Note_on_c, 0, 48, 0
1, 460680, Note_on_c, 0, 81, 120
1, 460680, Note_on_c, 0, 86, 120
1, 460680, Note_on_c, 0, 90, 120
1, 460680, Note_on_c, 0, 78, 120
1, 460680, Note_on_c, 0, 59, 120
1, 460680, Note_on_c, 0, 47, 120
1, 460790, Note_on_c, 0, 59, 0
1, 460790, Note_on_c, 0, 47, 0
1, 460800, Note_on_c, 0, 57, 120
1, 460800, Note_on_c, 0, 45, 120
1, 460910, Note_on_c, 0, 57, 0
1, 460910, Note_on_c, 0, 45, 0
1, 460920, Note_on_c, 0, 55, 120
1, 460920, Note_on_c, 0, 43, 120
1, 461030, Note_on_c, 0, 81, 0
1, 461030, Note_on_c, 0, 86, 0
1, 461030, Note_on_c, 0, 90, 0
1, 461030, Note_on_c, 0, 78, 0
1, 461030, Note_on_c, 0, 55, 0
1, 461030, Note_on_c, 0, 43, 0
1, 461040, Note_on_c, 0, 83, 120
1, 461040, Note_on_c, 0, 86, 120
1, 461040, Note_on_c, 0, 91, 120
1, 461040, Note_on_c, 0, 79, 120
1, 461040, Note_on_c, 0, 54, 120
1, 461040, Note_on_c, 0, 42, 120
1, 461150, Note_on_c, 0, 54, 0
1, 461150, Note_on_c, 0, 42, 0
1, 461160, Note_on_c, 0, 52, 120
1, 461160, Note_on_c, 0, 40, 120
1, 461270, Note_on_c, 0, 52, 0
1, 461270, Note_on_c, 0, 40, 0
1, 461280, Note_on_c, 0, 50, 120
1, 461280, Note_on_c, 0, 38, 120
1, 461390, Note_on_c, 0, 83, 0
1, 461390, Note_on_c, 0, 86, 0
1, 461390, Note_on_c, 0, 91, 0
1, 461390, Note_on_c, 0, 79, 0
1, 461390, Note_on_c, 0, 50, 0
1, 461390, Note_on_c, 0, 38, 0
1, 461396, Control_c, 0, 64, 0
1, 461400, Note_on_c, 0, 84, 120
1, 461400, Note_on_c, 0, 86, 120
1, 461400, Note_on_c, 0, 93, 120
1, 461400, Note_on_c, 0, 81, 120
1, 461400, Note_on_c, 0, 48, 120
1, 461400, Note_on_c, 0, 36, 120
1, 461510, Note_on_c, 0, 48, 0
1, 461510, Note_on_c, 0, 36, 0
1, 461520, Note_on_c, 0, 47, 120
1, 461520, Note_on_c, 0, 35, 120
1, 461630, Note_on_c, 0, 47, 0
1, 461630, Note_on_c, 0, 35, 0
1, 461640, Note_on_c, 0, 45, 120
1, 461640, Note_on_c, 0, 33, 120
1, 461750, Note_on_c, 0, 84, 0
1, 461750, Note_on_c, 0, 86, 0
1, 461750, Note_on_c, 0, 93, 0
1, 461750, Note_on_c, 0, 81, 0
1, 461750, Note_on_c, 0, 45, 0
1, 461750, Note_on_c, 0, 33, 0
1, 461760, Note_on_c, 0, 84, 120
1, 461760, Note_on_c, 0, 86, 120
1, 461760, Note_on_c, 0, 93, 120
1, 461760, Note_on_c, 0, 81, 120
1, 461760, Note_on_c, 0, 43, 120
1, 461760, Note_on_c, 0, 31, 120
1, 461788, Control_c, 0, 64, 127
1, 461870, Note_on_c, 0, 43, 0
1, 461870, Note_on_c, 0, 31, 0
1, 461880, Note_on_c, 0, 45, 120
1, 461880, Note_on_c, 0, 33, 120
1, 461990, Note_on_c, 0, 45, 0
1, 461990, Note_on_c, 0, 33, 0
1, 462000, Note_on_c, 0, 47, 120
1, 462000, Note_on_c, 0, 35, 120
1, 462110, Note_on_c, 0, 84, 0
1, 462110, Note_on_c, 0, 86, 0
1, 462110, Note_on_c, 0, 93, 0
1, 462110, Note_on_c, 0, 81, 0
1, 462110, Note_on_c, 0, 47, 0
1, 462110, Note_on_c, 0, 35, 0
1, 462120, Note_on_c, 0, 83, 120
1, 462120, Note_on_c, 0, 86, 120
1, 462120, Note_on_c, 0, 91, 120
1, 462120, Note_on_c, 0, 79, 120
1, 462120, Note_on_c, 0, 48, 120
1, 462120, Note_on_c, 0, 36, 120
1, 462230, Note_on_c, 0, 48, 0
1, 462230, Note_on_c, 0, 36, 0
1, 462240, Note_on_c, 0, 50, 120
1, 462240, Note_on_c, 0, 38, 120
1, 462350, Note_on_c, 0, 50, 0
1, 462350, Note_on_c, 0, 38, 0
1, 462360, Note_on_c, 0, 52, 120
1, 462360, Note_on_c, 0, 40, 120
1, 462470, Note_on_c, 0, 83, 0
1, 462470, Note_on_c, 0, 86, 0
1, 462470, Note_on_c, 0, 91, 0
1, 462470, Note_on_c, 0, 79, 0
1, 462470, Note_on_c, 0, 52, 0
1, 462470, Note_on_c, 0, 40, 0
1, 462480, Note_on_c, 0, 81, 120
1, 462480, Note_on_c, 0, 86, 120
1, 462480, Note_on_c, 0, 90, 120
1, 462480, Note_on_c, 0, 78, 120
1, 462480, Note_on_c, 0, 54, 120
1, 462480, Note_on_c, 0, 42, 120
1, 462543, Control_c, 0, 64, 0
1, 462590, Note_on_c, 0, 54, 0
1, 462590, Note_on_c, 0, 42, 0
1, 462600, Note_on_c, 0, 55, 120
1, 462600, Note_on_c, 0, 43, 120
1, 462710, Note_on_c, 0, 55, 0
1, 462710, Note_on_c, 0, 43, 0
1, 462720, Note_on_c, 0, 57, 120
1, 462720, Note_on_c, 0, 45, 120
1, 462830, Note_on_c, 0, 81, 0
1, 462830, Note_on_c, 0, 86, 0
1, 462830, Note_on_c, 0, 90, 0
1, 462830, Note_on_c, 0, 78, 0
1, 462830, Note_on_c, 0, 57, 0
1, 462830, Note_on_c, 0, 45, 0
1, 462840, Note_on_c, 0, 83, 120
1, 462840, Note_on_c, 0, 86, 120
1, 462840, Note_on_c, 0, 91, 120
1, 462840, Note_on_c, 0, 79, 120
1, 462840, Note_on_c, 0, 59, 120
1, 462840, Note_on_c, 0, 47, 120
1, 462950, Note_on_c, 0, 59, 0
1, 462950, Note_on_c, 0, 47, 0
1, 463070, Note_on_c, 0, 83, 0
1, 463070, Note_on_c, 0, 86, 0
1, 463070, Note_on_c, 0, 91, 0
1, 463070, Note_on_c, 0, 79, 0
1, 463080, Note_on_c, 0, 79, 120
1, 463080, Note_on_c, 0, 88, 120
1, 463080, Note_on_c, 0, 76, 120
1, 463080, Note_on_c, 0, 55, 120
1, 463080, Note_on_c, 0, 43, 120
1, 463190, Note_on_c, 0, 79, 0
1, 463190, Note_on_c, 0, 88, 0
1, 463190, Note_on_c, 0, 76, 0
1, 463190, Note_on_c, 0, 55, 0
1, 463190, Note_on_c, 0, 43, 0
1, 463200, Note_on_c, 0, 78, 120
1, 463200, Note_on_c, 0, 86, 120
1, 463200, Note_on_c, 0, 74, 120
1, 463200, Note_on_c, 0, 57, 120
1, 463200, Note_on_c, 0, 45, 120
1, 463309, Control_c, 0, 64, 127
1, 463310, Note_on_c, 0, 57, 0
1, 463310, Note_on_c, 0, 45, 0
1, 463320, Note_on_c, 0, 67, 120
1, 463320, Note_on_c, 0, 55, 120
1, 463430, Note_on_c, 0, 67, 0
1, 463430, Note_on_c, 0, 55, 0
1, 463440, Note_on_c, 0, 66, 120
1, 463440, Note_on_c, 0, 54, 120
1, 463550, Note_on_c, 0, 78, 0
1, 463550, Note_on_c, 0, 86, 0
1, 463550, Note_on_c, 0, 74, 0
1, 463550, Note_on_c, 0, 66, 0
1, 463550, Note_on_c, 0, 54, 0
1, 463560, Note_on_c, 0, 78, 120
1, 463560, Note_on_c, 0, 86, 120
1, 463560, Note_on_c, 0, 74, 120
1, 463560, Note_on_c, 0, 64, 120
1, 463560, Note_on_c, 0, 52, 120
1, 463670, Note_on_c, 0, 64, 0
1, 463670, Note_on_c, 0, 52, 0
1, 463680, Note_on_c, 0, 62, 120
1, 463680, Note_on_c, 0, 50, 120
1, 463790, Note_on_c, 0, 62, 0
1, 463790, Note_on_c, 0, 50, 0
1, 463800, Note_on_c, 0, 61, 120
1, 463800, Note_on_c, 0, 49, 120
1, 463910, Note_on_c, 0, 78, 0
1, 463910, Note_on_c, 0, 86, 0
1, 463910, Note_on_c, 0, 74, 0
1, 463910, Note_on_c, 0, 61, 0
1, 463910, Note_on_c, 0, 49, 0
1, 463920, Note_on_c, 0, 79, 120
1, 463920, Note_on_c, 0, 86, 120
1, 463920, Note_on_c, 0, 88, 120
1, 463920, Note_on_c, 0, 76, 120
1, 463920, Note_on_c, 0, 59, 120
1, 463920, Note_on_c, 0, 47, 120
1, 463940, Control_c, 0, 64, 0
1, 464006, Control_c, 0, 64, 127
1, 464030, Note_on_c, 0, 59, 0
1, 464030, Note_on_c, 0, 47, 0
1, 464040, Note_on_c, 0, 57, 120
1, 464040, Note_on_c, 0, 45, 120
1, 464150, Note_on_c, 0, 57, 0
1, 464150, Note_on_c, 0, 45, 0
1, 464160, Note_on_c, 0, 62, 120
1, 464160, Note_on_c, 0, 50, 120
1, 464270, Note_on_c, 0, 79, 0
1, 464270, Note_on_c, 0, 86, 0
1, 464270, Note_on_c, 0, 88, 0
1, 464270, Note_on_c, 0, 76, 0
1, 464270, Note_on_c, 0, 62, 0
1, 464270, Note_on_c, 0, 50, 0
1, 464280, Note_on_c, 0, 81, 120
1, 464280, Note_on_c, 0, 86, 120
1, 464280, Note_on_c, 0, 90, 120
1, 464280, Note_on_c, 0, 78, 120
1, 464280, Note_on_c, 0, 57, 120
1, 464280, Note_on_c, 0, 45, 120
1, 464390, Note_on_c, 0, 57, 0
1, 464390, Note_on_c, 0, 45, 0
1, 464400, Note_on_c, 0, 54, 120
1, 464400, Note_on_c, 0, 42, 120
1, 464510, Note_on_c, 0, 54, 0
1, 464510, Note_on_c, 0, 42, 0
1, 464520, Note_on_c, 0, 50, 120
1, 464520, Note_on_c, 0, 38, 120
1, 464592, Control_c, 0, 64, 0
1, 464630, Note_on_c, 0, 81, 0
1, 464630, Note_on_c, 0, 86, 0
1, 464630, Note_on_c, 0, 90, 0
1, 464630, Note_on_c, 0, 78, 0
1, 464630, Note_on_c, 0, 50, 0
1, 464630, Note_on_c, 0, 38, 0
1, 464640, Note_on_c, 0, 79, 120
1, 464640, Note_on_c, 0, 85, 120
1, 464640, Note_on_c, 0, 88, 120
1, 464640, Note_on_c, 0, 76, 120
1, 464640, Note_on_c, 0, 47, 120
1, 464640, Note_on_c, 0, 35, 120
1, 464750, Note_on_c, 0, 47, 0
1, 464750, Note_on_c, 0, 35, 0
1, 464760, Note_on_c, 0, 45, 120
1, 464760, Note_on_c, 0, 33, 120
1, 464870, Note_on_c, 0, 45, 0
1, 464870, Note_on_c, 0, 33, 0
1, 464880, Note_on_c, 0, 44, 120
1, 464880, Note_on_c, 0, 32, 120
1, 464990, Note_on_c, 0, 44, 0
1, 464990, Note_on_c, 0, 32, 0
1, 465000, Note_on_c, 0, 45, 120
1, 465000, Note_on_c, 0, 33, 120
1, 465110, Note_on_c, 0, 45, 0
1, 465110, Note_on_c, 0, 33, 0
1, 465230, Note_on_c, 0, 79, 0
1, 465230, Note_on_c, 0, 85, 0
1, 465230, Note_on_c, 0, 88, 0
1, 465230, Note_on_c, 0, 76, 0
1, 465240, Note_on_c, 0, 45, 120
1, 465240, Note_on_c, 0, 33, 120
1, 465350, Note_on_c, 0, 45, 0
1, 465350, Note_on_c, 0, 33, 0
1, 465360, Note_on_c, 0, 78, 120
1, 465360, Note_on_c, 0, 81, 120
1, 465360, Note_on_c, 0, 86, 120
1, 465360, Note_on_c, 0, 74, 120
1, 465360, Note_on_c, 0, 50, 120
1, 465360, Note_on_c, 0, 38, 120
1, 465470, Note_on_c, 0, 50, 0
1, 465470, Note_on_c, 0, 38, 0
1, 465480, Note_on_c, 0, 57, 120
1, 465480, Note_on_c, 0, 45, 120
1, 465486, Control_c, 0, 64, 127
1, 465536, Control_c, 0, 64, 0
1, 465590, Note_on_c, 0, 57, 0
1, 465590, Note_on_c, 0, 45, 0
1, 465600, Note_on_c, 0, 56, 120
1, 465600, Note_on_c, 0, 44, 120
1, 465687, Control_c, 0, 64, 127
1, 465710, Note_on_c, 0, 78, 0
1, 465710, Note_on_c, 0, 81, 0
1, 465710, Note_on_c, 0, 86, 0
1, 465710, Note_on_c, 0, 74, 0
1, 465710, Note_on_c, 0, 56, 0
1, 465710, Note_on_c, 0, 44, 0
1, 465720, Note_on_c, 0, 57, 120
1, 465720, Note_on_c, 0, 45, 120
1, 465830, Note_on_c, 0, 57, 0
1, 465830, Note_on_c, 0, 45, 0
1, 465840, Note_on_c, 0, 54, 120
1, 465840, Note_on_c, 0, 42, 120
1, 465950, Note_on_c, 0, 54, 0
1, 465950, Note_on_c, 0, 42, 0
1, 465960, Note_on_c, 0, 50, 120
1, 465960, Note_on_c, 0, 38, 120
1, 466050, Control_c, 0, 64, 0
1, 466070, Note_on_c, 0, 50, 0
1, 466070, Note_on_c, 0, 38, 0
1, 466080, Note_on_c, 0, 69, 120
1, 466080, Note_on_c, 0, 73, 120
1, 466080, Note_on_c, 0, 76, 120
1, 466080, Note_on_c, 0, 64, 120
1, 466080, Note_on_c, 0, 45, 120
1, 466080, Note_on_c, 0, 33, 120
1, 466172, Control_c, 0, 64, 127
1, 466190, Note_on_c, 0, 45, 0
1, 466190, Note_on_c, 0, 33, 0
1, 466200, Note_on_c, 0, 57, 120
1, 466200, Note_on_c, 0, 45, 120
1, 466310, Note_on_c, 0, 57, 0
1, 466310, Note_on_c, 0, 45, 0
1, 466320, Note_on_c, 0, 56, 120
1, 466320, Note_on_c, 0, 44, 120
1, 466430, Note_on_c, 0, 69, 0
1, 466430, Note_on_c, 0, 73, 0
1, 466430, Note_on_c, 0, 76, 0
1, 466430, Note_on_c, 0, 64, 0
1, 466430, Note_on_c, 0, 56, 0
1, 466430, Note_on_c, 0, 44, 0
1, 466440, Note_on_c, 0, 69, 120
1, 466440, Note_on_c, 0, 73, 120
1, 466440, Note_on_c, 0, 76, 120
1, 466440, Note_on_c, 0, 64, 120
1, 466440, Note_on_c, 0, 57, 120
1, 466440, Note_on_c, 0, 45, 120
1, 466550, Note_on_c, 0, 57, 0
1, 466550, Note_on_c, 0, 45, 0
1, 466560, Note_on_c, 0, 52, 120
1, 466560, Note_on_c, 0, 40, 120
1, 466670, Note_on_c, 0, 52, 0
1, 466670, Note_on_c, 0, 40, 0
1, 466680, Note_on_c, 0, 49, 120
1, 466680, Note_on_c, 0, 37, 120
1, 466790, Note_on_c, 0, 69, 0
1, 466790, Note_on_c, 0, 73, 0
1, 466790, Note_on_c, 0, 76, 0
1, 466790, Note_on_c, 0, 64, 0
1, 466790, Note_on_c, 0, 49, 0
1, 466790, Note_on_c, 0, 37, 0
1, 466800, Note_on_c, 0, 69, 120
1, 466800, Note_on_c, 0, 74, 120
1, 466800, Note_on_c, 0, 78, 120
1, 466800, Note_on_c, 0, 66, 120
1, 466800, Note_on_c, 0, 45, 120
1, 466800, Note_on_c, 0, 33, 120
1, 466804, Control_c, 0, 64, 0
1, 466868, Control_c, 0, 64, 127
1, 466910, Note_on_c, 0, 45, 0
1, 466910, Note_on_c, 0, 33, 0
1, 466920, Note_on_c, 0, 57, 120
1, 466920, Note_on_c, 0, 45, 120
1, 467030, Note_on_c, 0, 57, 0
1, 467030, Note_on_c, 0, 45, 0
1, 467040, Note_on_c, 0, 56, 120
1, 467040, Note_on_c, 0, 44, 120
1, 467150, Note_on_c, 0, 69, 0
1, 467150, Note_on_c, 0, 74, 0
1, 467150, Note_on_c, 0, 78, 0
1, 467150, Note_on_c, 0, 66, 0
1, 467150, Note_on_c, 0, 56, 0
1, 467150, Note_on_c, 0, 44, 0
1, 467160, Note_on_c, 0, 66, 120
1, 467160, Note_on_c, 0, 69, 120
1, 467160, Note_on_c, 0, 74, 120
1, 467160, Note_on_c, 0, 62, 120
1, 467160, Note_on_c, 0, 57, 120
1, 467160, Note_on_c, 0, 45, 120
1, 467270, Note_on_c, 0, 57, 0
1, 467270, Note_on_c, 0, 45, 0
1, 467280, Note_on_c, 0, 54, 120
1, 467280, Note_on_c, 0, 42, 120
1, 467390, Note_on_c, 0, 54, 0
1, 467390, Note_on_c, 0, 42, 0
1, 467400, Note_on_c, 0, 50, 120
1, 467400, Note_on_c, 0, 38, 120
1, 467447, Control_c, 0, 64, 0
1, 467510, Note_on_c, 0, 66, 0
1, 467510, Note_on_c, 0, 69, 0
1, 467510, Note_on_c, 0, 74, 0
1, 467510, Note_on_c, 0, 62, 0
1, 467510, Note_on_c, 0, 50, 0
1, 467510, Note_on_c, 0, 38, 0
1, 467520, Note_on_c, 0, 69, 120
1, 467520, Note_on_c, 0, 73, 120
1, 467520, Note_on_c, 0, 76, 120
1, 467520, Note_on_c, 0, 64, 120
1, 467520, Note_on_c, 0, 45, 120
1, 467520, Note_on_c, 0, 33, 120
1, 467535, Control_c, 0, 64, 127
1, 467630, Note_on_c, 0, 45, 0
1, 467630, Note_on_c, 0, 33, 0
1, 467640, Note_on_c, 0, 57, 120
1, 467640, Note_on_c, 0, 45, 120
1, 467750, Note_on_c, 0, 57, 0
1, 467750, Note_on_c, 0, 45, 0
1, 467760, Note_on_c, 0, 59, 120
1, 467760, Note_on_c, 0, 47, 120
1, 467870, Note_on_c, 0, 69, 0
1, 467870, Note_on_c, 0, 73, 0
1, 467870, Note_on_c, 0, 76, 0
1, 467870, Note_on_c, 0, 64, 0
1, 467870, Note_on_c, 0, 59, 0
1, 467870, Note_on_c, 0, 47, 0
1, 467880, Note_on_c, 0, 74, 120
1, 467880, Note_on_c, 0, 78, 120
1, 467880, Note_on_c, 0, 66, 120
1, 467880, Note_on_c, 0, 57, 120
1, 467880, Note_on_c, 0, 45, 120
1, 467990, Note_on_c, 0, 57, 0
1, 467990, Note_on_c, 0, 45, 0
1, 468000, Note_on_c, 0, 57, 120
1, 468000, Note_on_c, 0, 45, 120
1, 468110, Note_on_c, 0, 74, 0
1, 468110, Note_on_c, 0, 78, 0
1, 468110, Note_on_c, 0, 66, 0
1, 468110, Note_on_c, 0, 57, 0
1, 468110, Note_on_c, 0, 45, 0
1, 468120, Note_on_c, 0, 76, 120
1, 468120, Note_on_c, 0, 79, 120
1, 468120, Note_on_c, 0, 67, 120
1, 468120, Note_on_c, 0, 57, 120
1, 468120, Note_on_c, 0, 45, 120
1, 468184, Control_c, 0, 64, 0
1, 468230, Note_on_c, 0, 76, 0
1, 468230, Note_on_c, 0, 79, 0
1, 468230, Note_on_c, 0, 67, 0
1, 468230, Note_on_c, 0, 57, 0
1, 468230, Note_on_c, 0, 45, 0
1, 468240, Note_on_c, 0, 74, 120
1, 468240, Note_on_c, 0, 78, 120
1, 468240, Note_on_c, 0, 66, 120
1, 468240, Note_on_c, 0, 45, 120
1, 468240, Note_on_c, 0, 33, 120
1, 468311, Control_c, 0, 64, 127
1, 468350, Note_on_c, 0, 45, 0
1, 468350, Note_on_c, 0, 33, 0
1, 468360, Note_on_c, 0, 57, 120
1, 468360, Note_on_c, 0, 45, 120
1, 468470, Note_on_c, 0, 57, 0
1, 468470, Note_on_c, 0, 45, 0
1, 468480, Note_on_c, 0, 56, 120
1, 468480, Note_on_c, 0, 44, 120
1, 468590, Note_on_c, 0, 74, 0
1, 468590, Note_on_c, 0, 78, 0
1, 468590, Note_on_c, 0, 66, 0
1, 468590, Note_on_c, 0, 56, 0
1, 468590, Note_on_c, 0, 44, 0
1, 468600, Note_on_c, 0, 78, 120
1, 468600, Note_on_c, 0, 81, 120
1, 468600, Note_on_c, 0, 86, 120
1, 468600, Note_on_c, 0, 74, 120
1, 468600, Note_on_c, 0, 57, 120
1, 468600, Note_on_c, 0, 45, 120
1, 468710, Note_on_c, 0, 57, 0
1, 468710, Note_on_c, 0, 45, 0
1, 468720, Note_on_c, 0, 54, 120
1, 468720, Note_on_c, 0, 42, 120
1, 468830, Note_on_c, 0, 54, 0
1, 468830, Note_on_c, 0, 42, 0
1, 468840, Note_on_c, 0, 50, 120
1, 468840, Note_on_c, 0, 38, 120
1, 468934, Control_c, 0, 64, 0
1, 468950, Note_on_c, 0, 78, 0
1, 468950, Note_on_c, 0, 81, 0
1, 468950, Note_on_c, 0, 86, 0
1, 468950, Note_on_c, 0, 74, 0
1, 468950, Note_on_c, 0, 50, 0
1, 468950, Note_on_c, 0, 38, 0
1, 468960, Note_on_c, 0, 81, 120
1, 468960, Note_on_c, 0, 85, 120
1, 468960, Note_on_c, 0, 88, 120
1, 468960, Note_on_c, 0, 76, 120
1, 468960, Note_on_c, 0, 45, 120
1, 468960, Note_on_c, 0, 33, 120
1, 468999, Control_c, 0, 64, 127
1, 469070, Note_on_c, 0, 45, 0
1, 469070, Note_on_c, 0, 33, 0
1, 469080, Note_on_c, 0, 57, 120
1, 469080, Note_on_c, 0, 45, 120
1, 469190, Note_on_c, 0, 57, 0
1, 469190, Note_on_c, 0, 45, 0
1, 469200, Note_on_c, 0, 59, 120
1, 469200, Note_on_c, 0, 47, 120
1, 469310, Note_on_c, 0, 81, 0
1, 469310, Note_on_c, 0, 85, 0
1, 469310, Note_on_c, 0, 88, 0
1, 469310, Note_on_c, 0, 76, 0
1, 469310, Note_on_c, 0, 59, 0
1, 469310, Note_on_c, 0, 47, 0
1, 469320, Note_on_c, 0, 86, 120
1, 469320, Note_on_c, 0, 90, 120
1, 469320, Note_on_c, 0, 78, 120
1, 469320, Note_on_c, 0, 57, 120
1, 469320, Note_on_c, 0, 45, 120
1, 469430, Note_on_c, 0, 57, 0
1, 469430, Note_on_c, 0, 45, 0
1, 469440, Note_on_c, 0, 57, 120
1, 469440, Note_on_c, 0, 45, 120
1, 469550, Note_on_c, 0, 86, 0
1, 469550, Note_on_c, 0, 90, 0
1, 469550, Note_on_c, 0, 78, 0
1, 469550, Note_on_c, 0, 57, 0
1, 469550, Note_on_c, 0, 45, 0
1, 469560, Note_on_c, 0, 88, 120
1, 469560, Note_on_c, 0, 91, 120
1, 469560, Note_on_c, 0, 79, 120
1, 469560, Note_on_c, 0, 57, 120
1, 469560, Note_on_c, 0, 45, 120
1, 469670, Note_on_c, 0, 88, 0
1, 469670, Note_on_c, 0, 91, 0
1, 469670, Note_on_c, 0, 79, 0
1, 469670, Note_on_c, 0, 57, 0
1, 469670, Note_on_c, 0, 45, 0
1, 469680, Note_on_c, 0, 85, 120
1, 469680, Note_on_c, 0, 90, 120
1, 469680, Note_on_c, 0, 78, 120
1, 469680, Note_on_c, 0, 58, 120
1, 469680, Note_on_c, 0, 46, 120
1, 469700, Control_c, 0, 64, 0
1, 469768, Control_c, 0, 64, 127
1, 469790, Note_on_c, 0, 58, 0
1, 469790, Note_on_c, 0, 46, 0
1, 469800, Note_on_c, 0, 61, 120
1, 469800, Note_on_c, 0, 66, 120
1, 469800, Note_on_c, 0, 58, 120
1, 469910, Note_on_c, 0, 61, 0
1, 469910, Note_on_c, 0, 66, 0
1, 469910, Note_on_c, 0, 58, 0
1, 469920, Note_on_c, 0, 61, 120
1, 469920, Note_on_c, 0, 66, 120
1, 469920, Note_on_c, 0, 58, 120
1, 470030, Note_on_c, 0, 85, 0
1, 470030, Note_on_c, 0, 90, 0
1, 470030, Note_on_c, 0, 78, 0
1, 470030, Note_on_c, 0, 61, 0
1, 470030, Note_on_c, 0, 66, 0
1, 470030, Note_on_c, 0, 58, 0
1, 470040, Note_on_c, 0, 82, 120
1, 470040, Note_on_c, 0, 85, 120
1, 470040, Note_on_c, 0, 88, 120
1, 470040, Note_on_c, 0, 76, 120
1, 470040, Note_on_c, 0, 54, 120
1, 470040, Note_on_c, 0, 42, 120
1, 470150, Note_on_c, 0, 54, 0
1, 470150, Note_on_c, 0, 42, 0
1, 470160, Note_on_c, 0, 61, 120
1, 470160, Note_on_c, 0, 64, 120
1, 470160, Note_on_c, 0, 54, 120
1, 470270, Note_on_c, 0, 61, 0
1, 470270, Note_on_c, 0, 64, 0
1, 470270, Note_on_c, 0, 54, 0
1, 470280, Note_on_c, 0, 61, 120
1, 470280, Note_on_c, 0, 64, 120
1, 470280, Note_on_c, 0, 54, 120
1, 470390, Note_on_c, 0, 82, 0
1, 470390, Note_on_c, 0, 85, 0
1, 470390, Note_on_c, 0, 88, 0
1, 470390, Note_on_c, 0, 76, 0
1, 470390, Note_on_c, 0, 61, 0
1, 470390, Note_on_c, 0, 64, 0
1, 470390, Note_on_c, 0, 54, 0
1, 470400, Note_on_c, 0, 78, 120
1, 470400, Note_on_c, 0, 83, 120
1, 470400, Note_on_c, 0, 86, 120
1, 470400, Note_on_c, 0, 74, 120
1, 470400, Note_on_c, 0, 47, 120
1, 470400, Note_on_c, 0, 35, 120
1, 470415, Control_c, 0, 64, 0
1, 470482, Control_c, 0, 64, 127
1, 470510, Note_on_c, 0, 47, 0
1, 470510, Note_on_c, 0, 35, 0
1, 470520, Note_on_c, 0, 59, 120
1, 470520, Note_on_c, 0, 62, 120
1, 470520, Note_on_c, 0, 54, 120
1, 470630, Note_on_c, 0, 59, 0
1, 470630, Note_on_c, 0, 62, 0
1, 470630, Note_on_c, 0, 54, 0
1, 470640, Note_on_c, 0, 59, 120
1, 470640, Note_on_c, 0, 62, 120
1, 470640, Note_on_c, 0, 54, 120
1, 470750, Note_on_c, 0, 78, 0
1, 470750, Note_on_c, 0, 83, 0
1, 470750, Note_on_c, 0, 86, 0
1, 470750, Note_on_c, 0, 74, 0
1, 470750, Note_on_c, 0, 59, 0
1, 470750, Note_on_c, 0, 62, 0
1, 470750, Note_on_c, 0, 54, 0
1, 470760, Note_on_c, 0, 80, 120
1, 470760, Note_on_c, 0, 83, 120
1, 470760, Note_on_c, 0, 88, 120
1, 470760, Note_on_c, 0, 76, 120
1, 470760, Note_on_c, 0, 52, 120
1, 470760, Note_on_c, 0, 40, 120
1, 470777, Control_c, 0, 64, 0
1, 470832, Control_c, 0, 64, 127
1, 470870, Note_on_c, 0, 52, 0
1, 470870, Note_on_c, 0, 40, 0
1, 470880, Note_on_c, 0, 59, 120
1, 470880, Note_on_c, 0, 64, 120
1, 470880, Note_on_c, 0, 56, 120
1, 470990, Note_on_c, 0, 59, 0
1, 470990, Note_on_c, 0, 64, 0
1, 470990, Note_on_c, 0, 56, 0
1, 471000, Note_on_c, 0, 59, 120
1, 471000, Note_on_c, 0, 64, 120
1, 471000, Note_on_c, 0, 56, 120
1, 471110, Note_on_c, 0, 80, 0
1, 471110, Note_on_c, 0, 83, 0
1, 471110, Note_on_c, 0, 88, 0
1, 471110, Note_on_c, 0, 76, 0
1, 471110, Note_on_c, 0, 59, 0
1, 471110, Note_on_c, 0, 64, 0
1, 471110, Note_on_c, 0, 56, 0
1, 471120, Note_on_c, 0, 73, 120
1, 471120, Note_on_c, 0, 76, 120
1, 471120, Note_on_c, 0, 81, 120
1, 471120, Note_on_c, 0, 69, 120
1, 471120, Note_on_c, 0, 57, 120
1, 471120, Note_on_c, 0, 45, 120
1, 471127, Control_c, 0, 64, 0
1, 471173, Control_c, 0, 64, 127
1, 471230, Note_on_c, 0, 57, 0
1, 471230, Note_on_c, 0, 45, 0
1, 471240, Note_on_c, 0, 61, 120
1, 471240, Note_on_c, 0, 64, 120
1, 471240, Note_on_c, 0, 57, 120
1, 471350, Note_on_c, 0, 61, 0
1, 471350, Note_on_c, 0, 64, 0
1, 471350, Note_on_c, 0, 57, 0
1, 471360, Note_on_c, 0, 61, 120
1, 471360, Note_on_c, 0, 64, 120
1, 471360, Note_on_c, 0, 57, 120
1, 471470, Note_on_c, 0, 73, 0
1, 471470, Note_on_c, 0, 76, 0
1, 471470, Note_on_c, 0, 81, 0
1, 471470, Note_on_c, 0, 69, 0
1, 471470, Note_on_c, 0, 61, 0
1, 471470, Note_on_c, 0, 64, 0
1, 471470, Note_on_c, 0, 57, 0
1, 471480, Note_on_c, 0, 81, 120
1, 471480, Note_on_c, 0, 86, 120
1, 471480, Note_on_c, 0, 90, 120
1, 471480, Note_on_c, 0, 78, 120
1, 471480, Note_on_c, 0, 45, 120
1, 471480, Note_on_c, 0, 33, 120
1, 471501, Control_c, 0, 64, 0
1, 471555, Control_c, 0, 64, 127
1, 471590, Note_on_c, 0, 45, 0
1, 471590, Note_on_c, 0, 33, 0
1, 471600, Note_on_c, 0, 62, 120
1, 471600, Note_on_c, 0, 66, 120
1, 471600, Note_on_c, 0, 54, 120
1, 471710, Note_on_c, 0, 62, 0
1, 471710, Note_on_c, 0, 66, 0
1, 471710, Note_on_c, 0, 54, 0
1, 471720, Note_on_c, 0, 62, 120
1, 471720, Note_on_c, 0, 66, 120
1, 471720, Note_on_c, 0, 54, 120
1, 471830, Note_on_c, 0, 62, 0
1, 471830, Note_on_c, 0, 66, 0
1, 471830, Note_on_c, 0, 54, 0
1, 471840, Note_on_c, 0, 50, 120
1, 471840, Note_on_c, 0, 38, 120
1, 471864, Control_c, 0, 64, 0
1, 471918, Control_c, 0, 64, 127
1, 471950, Note_on_c, 0, 50, 0
1, 471950, Note_on_c, 0, 38, 0
1, 471960, Note_on_c, 0, 62, 120
1, 471960, Note_on_c, 0, 50, 120
1, 472070, Note_on_c, 0, 62, 0
1, 472070, Note_on_c, 0, 50, 0
1, 472080, Note_on_c, 0, 60, 120
1, 472080, Note_on_c, 0, 48, 120
1, 472190, Note_on_c, 0, 81, 0
1, 472190, Note_on_c, 0, 86, 0
1, 472190, Note_on_c, 0, 90, 0
1, 472190, Note_on_c, 0, 78, 0
1, 472190, Note_on_c, 0, 60, 0
1, 472190, Note_on_c, 0, 48, 0
1, 472200, Note_on_c, 0, 81, 120
1, 472200, Note_on_c, 0, 86, 120
1, 472200, Note_on_c, 0, 90, 120
1, 472200, Note_on_c, 0, 78, 120
1, 472200, Note_on_c, 0, 59, 120
1, 472200, Note_on_c, 0, 47, 120
1, 472310, Note_on_c, 0, 59, 0
1, 472310, Note_on_c, 0, 47, 0
1, 472320, Note_on_c, 0, 57, 120
1, 472320, Note_on_c, 0, 45, 120
1, 472430, Note_on_c, 0, 57, 0
1, 472430, Note_on_c, 0, 45, 0
1, 472440, Note_on_c, 0, 55, 120
1, 472440, Note_on_c, 0, 43, 120
1, 472550, Note_on_c, 0, 81, 0
1, 472550, Note_on_c, 0, 86, 0
1, 472550, Note_on_c, 0, 90, 0
1, 472550, Note_on_c, 0, 78, 0
1, 472550, Note_on_c, 0, 55, 0
1, 472550, Note_on_c, 0, 43, 0
1, 472560, Note_on_c, 0, 83, 120
1, 472560, Note_on_c, 0, 86, 120
1, 472560, Note_on_c, 0, 91, 120
1, 472560, Note_on_c, 0, 79, 120
1, 472560, Note_on_c, 0, 54, 120
1, 472560, Note_on_c, 0, 42, 120
1, 472670, Note_on_c, 0, 54, 0
1, 472670, Note_on_c, 0, 42, 0
1, 472680, Note_on_c, 0, 52, 120
1, 472680, Note_on_c, 0, 40, 120
1, 472790, Note_on_c, 0, 52, 0
1, 472790, Note_on_c, 0, 40, 0
1, 472800, Note_on_c, 0, 50, 120
1, 472800, Note_on_c, 0, 38, 120
1, 472864, Control_c, 0, 64, 0
1, 472910, Note_on_c, 0, 83, 0
1, 472910, Note_on_c, 0, 86, 0
1, 472910, Note_on_c, 0, 91, 0
1, 472910, Note_on_c, 0, 79, 0
1, 472910, Note_on_c, 0, 50, 0
1, 472910, Note_on_c, 0, 38, 0
1, 472920, Note_on_c, 0, 84, 120
1, 472920, Note_on_c, 0, 86, 120
1, 472920, Note_on_c, 0, 93, 120
1, 472920, Note_on_c, 0, 81, 120
1, 472920, Note_on_c, 0, 48, 120
1, 472920, Note_on_c, 0, 36, 120
1, 473030, Note_on_c, 0, 48, 0
1, 473030, Note_on_c, 0, 36, 0
1, 473040, Note_on_c, 0, 47, 120
1, 473040, Note_on_c, 0, 35, 120
1, 473150, Note_on_c, 0, 47, 0
1, 473150, Note_on_c, 0, 35, 0
1, 473160, Note_on_c, 0, 45, 120
1, 473160, Note_on_c, 0, 33, 120
1, 473270, Note_on_c, 0, 84, 0
1, 473270, Note_on_c, 0, 86, 0
1, 473270, Note_on_c, 0, 93, 0
1, 473270, Note_on_c, 0, 81, 0
1, 473270, Note_on_c, 0, 45, 0
1, 473270, Note_on_c, 0, 33, 0
1, 473280, Note_on_c, 0, 84, 120
1, 473280, Note_on_c, 0, 86, 120
1, 473280, Note_on_c, 0, 93, 120
1, 473280, Note_on_c, 0, 81, 120
1, 473280, Note_on_c, 0, 43, 120
1, 473280, Note_on_c, 0, 31, 120
1, 473360, Control_c, 0, 64, 127
1, 473390, Note_on_c, 0, 43, 0
1, 473390, Note_on_c, 0, 31, 0
1, 473400, Note_on_c, 0, 45, 120
1, 473400, Note_on_c, 0, 33, 120
1, 473510, Note_on_c, 0, 45, 0
1, 473510, Note_on_c, 0, 33, 0
1, 473520, Note_on_c, 0, 47, 120
1, 473520, Note_on_c, 0, 35, 120
1, 473630, Note_on_c, 0, 84, 0
1, 473630, Note_on_c, 0, 86, 0
1, 473630, Note_on_c, 0, 93, 0
1, 473630, Note_on_c, 0, 81, 0
1, 473630, Note_on_c, 0, 47, 0
1, 473630, Note_on_c, 0, 35, 0
1, 473640, Note_on_c, 0, 83, 120
1, 473640, Note_on_c, 0, 86, 120
1, 473640, Note_on_c, 0, 91, 120
1, 473640, Note_on_c, 0, 79, 120
1, 473640, Note_on_c, 0, 48, 120
1, 473640, Note_on_c, 0, 36, 120
1, 473750, Note_on_c, 0, 48, 0
1, 473750, Note_on_c, 0, 36, 0
1, 473760, Note_on_c, 0, 50, 120
1, 473760, Note_on_c, 0, 38, 120
1, 473870, Note_on_c, 0, 50, 0
1, 473870, Note_on_c, 0, 38, 0
1, 473880, Note_on_c, 0, 52, 120
1, 473880, Note_on_c, 0, 40, 120
1, 473990, Note_on_c, 0, 83, 0
1, 473990, Note_on_c, 0, 86, 0
1, 473990, Note_on_c, 0, 91, 0
1, 473990, Note_on_c, 0, 79, 0
1, 473990, Note_on_c, 0, 52, 0
1, 473990, Note_on_c, 0, 40, 0
1, 474000, Note_on_c, 0, 81, 120
1, 474000, Note_on_c, 0, 86, 120
1, 474000, Note_on_c, 0, 90, 120
1, 474000, Note_on_c, 0, 78, 120
1, 474000, Note_on_c, 0, 54, 120
1, 474000, Note_on_c, 0, 42, 120
1, 474019, Control_c, 0, 64, 0
1, 474110, Note_on_c, 0, 54, 0
1, 474110, Note_on_c, 0, 42, 0
1, 474120, Note_on_c, 0, 55, 120
1, 474120, Note_on_c, 0, 43, 120
1, 474230, Note_on_c, 0, 55, 0
1, 474230, Note_on_c, 0, 43, 0
1, 474240, Note_on_c, 0, 57, 120
1, 474240, Note_on_c, 0, 45, 120
1, 474350, Note_on_c, 0, 81, 0
1, 474350, Note_on_c, 0, 86, 0
1, 474350, Note_on_c, 0, 90, 0
1, 474350, Note_on_c, 0, 78, 0
1, 474350, Note_on_c, 0, 57, 0
1, 474350, Note_on_c, 0, 45, 0
1, 474360, Note_on_c, 0, 83, 120
1, 474360, Note_on_c, 0, 86, 120
1, 474360, Note_on_c, 0, 91, 120
1, 474360, Note_on_c, 0, 79, 120
1, 474360, Note_on_c, 0, 59, 120
1, 474360, Note_on_c, 0, 47, 120
1, 474470, Note_on_c, 0, 59, 0
1, 474470, Note_on_c, 0, 47, 0
1, 474590, Note_on_c, 0, 83, 0
1, 474590, Note_on_c, 0, 86, 0
1, 474590, Note_on_c, 0, 91, 0
1, 474590, Note_on_c, 0, 79, 0
1, 474600, Note_on_c, 0, 79, 120
1, 474600, Note_on_c, 0, 88, 120
1, 474600, Note_on_c, 0, 76, 120
1, 474600, Note_on_c, 0, 55, 120
1, 474600, Note_on_c, 0, 43, 120
1, 474710, Note_on_c, 0, 79, 0
1, 474710, Note_on_c, 0, 88, 0
1, 474710, Note_on_c, 0, 76, 0
1, 474710, Note_on_c, 0, 55, 0
1, 474710, Note_on_c, 0, 43, 0
1, 474720, Note_on_c, 0, 78, 120
1, 474720, Note_on_c, 0, 86, 120
1, 474720, Note_on_c, 0, 74, 120
1, 474720, Note_on_c, 0, 57, 120
1, 474720, Note_on_c, 0, 45, 120
1, 474817, Control_c, 0, 64, 127
1, 474830, Note_on_c, 0, 57, 0
1, 474830, Note_on_c, 0, 45, 0
1, 474840, Note_on_c, 0, 67, 120
1, 474840, Note_on_c, 0, 55, 120
1, 474950, Note_on_c, 0, 67, 0
1, 474950, Note_on_c, 0, 55, 0
1, 474960, Note_on_c, 0, 66, 120
1, 474960, Note_on_c, 0, 54, 120
1, 475070, Note_on_c, 0, 78, 0
1, 475070, Note_on_c, 0, 86, 0
1, 475070, Note_on_c, 0, 74, 0
1, 475070, Note_on_c, 0, 66, 0
1, 475070, Note_on_c, 0, 54, 0
1, 475080, Note_on_c, 0, 78, 120
1, 475080, Note_on_c, 0, 86, 120
1, 475080, Note_on_c, 0, 74, 120
1, 475080, Note_on_c, 0, 64, 120
1, 475080, Note_on_c, 0, 52, 120
1, 475190, Note_on_c, 0, 64, 0
1, 475190, Note_on_c, 0, 52, 0
1, 475200, Note_on_c, 0, 62, 120
1, 475200, Note_on_c, 0, 50, 120
1, 475310, Note_on_c, 0, 62, 0
1, 475310, Note_on_c, 0, 50, 0
1, 475320, Note_on_c, 0, 61, 120
1, 475320, Note_on_c, 0, 49, 120
1, 475423, Control_c, 0, 64, 0
1, 475430, Note_on_c, 0, 78, 0
1, 475430, Note_on_c, 0, 86, 0
1, 475430, Note_on_c, 0, 74, 0
1, 475430, Note_on_c, 0, 61, 0
1, 475430, Note_on_c, 0, 49, 0
1, 475440, Note_on_c, 0, 79, 120
1, 475440, Note_on_c, 0, 86, 120
1, 475440, Note_on_c, 0, 88, 120
1, 475440, Note_on_c, 0, 76, 120
1, 475440, Note_on_c, 0, 59, 120
1, 475440, Note_on_c, 0, 47, 120
1, 475478, Control_c, 0, 64, 127
1, 475550, Note_on_c, 0, 59, 0
1, 475550, Note_on_c, 0, 47, 0
1, 475560, Note_on_c, 0, 57, 120
1, 475560, Note_on_c, 0, 45, 120
1, 475670, Note_on_c, 0, 57, 0
1, 475670, Note_on_c, 0, 45, 0
1, 475680, Note_on_c, 0, 62, 120
1, 475680, Note_on_c, 0, 50, 120
1, 475790, Note_on_c, 0, 79, 0
1, 475790, Note_on_c, 0, 86, 0
1, 475790, Note_on_c, 0, 88, 0
1, 475790, Note_on_c, 0, 76, 0
1, 475790, Note_on_c, 0, 62, 0
1, 475790, Note_on_c, 0, 50, 0
1, 475800, Note_on_c, 0, 81, 120
1, 475800, Note_on_c, 0, 86, 120
1, 475800, Note_on_c, 0, 90, 120
1, 475800, Note_on_c, 0, 78, 120
1, 475800, Note_on_c, 0, 57, 120
1, 475800, Note_on_c, 0, 45, 120
1, 475910, Note_on_c, 0, 57, 0
1, 475910, Note_on_c, 0, 45, 0
1, 475920, Note_on_c, 0, 54, 120
1, 475920, Note_on_c, 0, 42, 120
1, 476030, Note_on_c, 0, 54, 0
1, 476030, Note_on_c, 0, 42, 0
1, 476040, Note_on_c, 0, 50, 120
1, 476040, Note_on_c, 0, 38, 120
1, 476076, Control_c, 0, 64, 0
1, 476150, Note_on_c, 0, 81, 0
1, 476150, Note_on_c, 0, 86, 0
1, 476150, Note_on_c, 0, 90, 0
1, 476150, Note_on_c, 0, 78, 0
1, 476150, Note_on_c, 0, 50, 0
1, 476150, Note_on_c, 0, 38, 0
1, 476160, Note_on_c, 0, 79, 120
1, 476160, Note_on_c, 0, 85, 120
1, 476160, Note_on_c, 0, 88, 120
1, 476160, Note_on_c, 0, 76, 120
1, 476160, Note_on_c, 0, 47, 120
1, 476160, Note_on_c, 0, 35, 120
1, 476270, Note_on_c, 0, 47, 0
1, 476270, Note_on_c, 0, 35, 0
1, 476280, Note_on_c, 0, 45, 120
1, 476280, Note_on_c, 0, 33, 120
1, 476390, Note_on_c, 0, 45, 0
1, 476390, Note_on_c, 0, 33, 0
1, 476400, Note_on_c, 0, 44, 120
1, 476400, Note_on_c, 0, 32, 120
1, 476510, Note_on_c, 0, 44, 0
1, 476510, Note_on_c, 0, 32, 0
1, 476520, Note_on_c, 0, 45, 120
1, 476520, Note_on_c, 0, 33, 120
1, 476630, Note_on_c, 0, 45, 0
1, 476630, Note_on_c, 0, 33, 0
1, 476750, Note_on_c, 0, 79, 0
1, 476750, Note_on_c, 0, 85, 0
1, 476750, Note_on_c, 0, 88, 0
1, 476750, Note_on_c, 0, 76, 0
1, 476760, Note_on_c, 0, 45, 120
1, 476760, Note_on_c, 0, 33, 120
1, 476870, Note_on_c, 0, 45, 0
1, 476870, Note_on_c, 0, 33, 0
1, 476880, Note_on_c, 0, 78, 120
1, 476880, Note_on_c, 0, 81, 120
1, 476880, Note_on_c, 0, 86, 120
1, 476880, Note_on_c, 0, 74, 120
1, 476880, Note_on_c, 0, 50, 120
1, 476880, Note_on_c, 0, 38, 120
1, 476976, Control_c, 0, 64, 127
1, 476990, Note_on_c, 0, 50, 0
1, 476990, Note_on_c, 0, 38, 0
1, 477000, Note_on_c, 0, 50, 120
1, 477000, Note_on_c, 0, 38, 120
1, 477110, Note_on_c, 0, 78, 0
1, 477110, Note_on_c, 0, 81, 0
1, 477110, Note_on_c, 0, 86, 0
1, 477110, Note_on_c, 0, 74, 0
1, 477110, Note_on_c, 0, 50, 0
1, 477110, Note_on_c, 0, 38, 0
1, 477120, Note_on_c, 0, 49, 120
1, 477120, Note_on_c, 0, 37, 120
1, 477230, Note_on_c, 0, 49, 0
1, 477230, Note_on_c, 0, 37, 0
1, 477240, Note_on_c, 0, 78, 120
1, 477240, Note_on_c, 0, 81, 120
1, 477240, Note_on_c, 0, 69, 120
1, 477240, Note_on_c, 0, 50, 120
1, 477240, Note_on_c, 0, 38, 120
1, 477350, Note_on_c, 0, 50, 0
1, 477350, Note_on_c, 0, 38, 0
1, 477360, Note_on_c, 0, 54, 120
1, 477360, Note_on_c, 0, 42, 120
1, 477470, Note_on_c, 0, 78, 0
1, 477470, Note_on_c, 0, 81, 0
1, 477470, Note_on_c, 0, 69, 0
1, 477470, Note_on_c, 0, 54, 0
1, 477470, Note_on_c, 0, 42, 0
1, 477480, Note_on_c, 0, 57, 120
1, 477480, Note_on_c, 0, 45, 120
1, 477530, Control_c, 0, 64, 0
1, 477590, Note_on_c, 0, 57, 0
1, 477590, Note_on_c, 0, 45, 0
1, 477600, Note_on_c, 0, 76, 120
1, 477600, Note_on_c, 0, 79, 120
1, 477600, Note_on_c, 0, 67, 120
1, 477600, Note_on_c, 0, 62, 120
1, 477600, Note_on_c, 0, 50, 120
1, 477644, Control_c, 0, 64, 127
1, 477710, Note_on_c, 0, 62, 0
1, 477710, Note_on_c, 0, 50, 0
1, 477720, Note_on_c, 0, 50, 120
1, 477720, Note_on_c, 0, 38, 120
1, 477830, Note_on_c, 0, 76, 0
1, 477830, Note_on_c, 0, 79, 0
1, 477830, Note_on_c, 0, 67, 0
1, 477830, Note_on_c, 0, 50, 0
1, 477830, Note_on_c, 0, 38, 0
1, 477840, Note_on_c, 0, 49, 120
1, 477840, Note_on_c, 0, 37, 120
1, 477950, Note_on_c, 0, 49, 0
1, 477950, Note_on_c, 0, 37, 0
1, 477960, Note_on_c, 0, 50, 120
1, 477960, Note_on_c, 0, 38, 120
1, 478070, Note_on_c, 0, 50, 0
1, 478070, Note_on_c, 0, 38, 0
1, 478080, Note_on_c, 0, 54, 120
1, 478080, Note_on_c, 0, 42, 120
1, 478190, Note_on_c, 0, 54, 0
1, 478190, Note_on_c, 0, 42, 0
1, 478200, Note_on_c, 0, 74, 120
1, 478200, Note_on_c, 0, 78, 120
1, 478200, Note_on_c, 0, 66, 120
1, 478200, Note_on_c, 0, 57, 120
1, 478200, Note_on_c, 0, 45, 120
1, 478288, Control_c, 0, 64, 0
1, 478310, Note_on_c, 0, 74, 0
1, 478310, Note_on_c, 0, 78, 0
1, 478310, Note_on_c, 0, 66, 0
1, 478310, Note_on_c, 0, 57, 0
1, 478310, Note_on_c, 0, 45, 0
1, 478320, Note_on_c, 0, 74, 120
1, 478320, Note_on_c, 0, 78, 120
1, 478320, Note_on_c, 0, 66, 120
1, 478320, Note_on_c, 0, 60, 120
1, 478320, Note_on_c, 0, 48, 120
1, 478430, Note_on_c, 0, 60, 0
1, 478430, Note_on_c, 0, 48, 0
1, 478440, Note_on_c, 0, 52, 120
1, 478440, Note_on_c, 0, 40, 120
1, 478550, Note_on_c, 0, 74, 0
1, 478550, Note_on_c, 0, 78, 0
1, 478550, Note_on_c, 0, 66, 0
1, 478550, Note_on_c, 0, 52, 0
1, 478550, Note_on_c, 0, 40, 0
1, 478560, Note_on_c, 0, 50, 120
1, 478560, Note_on_c, 0, 38, 120
1, 478670, Note_on_c, 0, 50, 0
1, 478670, Note_on_c, 0, 38, 0
1, 478680, Note_on_c, 0, 74, 120
1, 478680, Note_on_c, 0, 62, 120
1, 478680, Note_on_c, 0, 48, 120
1, 478680, Note_on_c, 0, 36, 120
1, 478790, Note_on_c, 0, 48, 0
1, 478790, Note_on_c, 0, 36, 0
1, 478800, Note_on_c, 0, 47, 120
1, 478800, Note_on_c, 0, 35, 120
1, 478910, Note_on_c, 0, 74, 0
1, 478910, Note_on_c, 0, 62, 0
1, 478910, Note_on_c, 0, 47, 0
1, 478910, Note_on_c, 0, 35, 0
1, 478920, Note_on_c, 0, 45, 120
1, 478920, Note_on_c, 0, 33, 120
1, 479030, Note_on_c, 0, 45, 0
1, 479030, Note_on_c, 0, 33, 0
1, 479040, Note_on_c, 0, 69, 120
1, 479040, Note_on_c, 0, 72, 120
1, 479040, Note_on_c, 0, 74, 120
1, 479040, Note_on_c, 0, 78, 120
1, 479040, Note_on_c, 0, 66, 120
1, 479040, Note_on_c, 0, 43, 120
1, 479040, Note_on_c, 0, 31, 120
1, 479119, Control_c, 0, 64, 127
1, 479150, Note_on_c, 0, 43, 0
1, 479150, Note_on_c, 0, 31, 0
1, 479160, Note_on_c, 0, 47, 120
1, 479160, Note_on_c, 0, 35, 120
1, 479270, Note_on_c, 0, 69, 0
1, 479270, Note_on_c, 0, 72, 0
1, 479270, Note_on_c, 0, 74, 0
1, 479270, Note_on_c, 0, 78, 0
1, 479270, Note_on_c, 0, 66, 0
1, 479270, Note_on_c, 0, 47, 0
1, 479270, Note_on_c, 0, 35, 0
1, 479280, Note_on_c, 0, 50, 120
1, 479280, Note_on_c, 0, 38, 120
1, 479390, Note_on_c, 0, 50, 0
1, 479390, Note_on_c, 0, 38, 0
1, 479400, Note_on_c, 0, 55, 120
1, 479400, Note_on_c, 0, 43, 120
1, 479510, Note_on_c, 0, 55, 0
1, 479510, Note_on_c, 0, 43, 0
1, 479520, Note_on_c, 0, 59, 120
1, 479520, Note_on_c, 0, 47, 120
1, 479630, Note_on_c, 0, 59, 0
1, 479630, Note_on_c, 0, 47, 0
1, 479640, Note_on_c, 0, 71, 120
1, 479640, Note_on_c, 0, 74, 120
1, 479640, Note_on_c, 0, 79, 120
1, 479640, Note_on_c, 0, 67, 120
1, 479640, Note_on_c, 0, 62, 120
1, 479640, Note_on_c, 0, 50, 120
1, 479750, Note_on_c, 0, 71, 0
1, 479750, Note_on_c, 0, 74, 0
1, 479750, Note_on_c, 0, 79, 0
1, 479750, Note_on_c, 0, 67, 0
1, 479750, Note_on_c, 0, 62, 0
1, 479750, Note_on_c, 0, 50, 0
1, 479760, Note_on_c, 0, 71, 120
1, 479760, Note_on_c, 0, 74, 120
1, 479760, Note_on_c, 0, 79, 120
1, 479760, Note_on_c, 0, 67, 120
1, 479760, Note_on_c, 0, 59, 120
1, 479760, Note_on_c, 0, 62, 120
1, 479760, Note_on_c, 0, 55, 120
1, 479971, Control_c, 0, 64, 0
1, 479990, Note_on_c, 0, 71, 0
1, 479990, Note_on_c, 0, 74, 0
1, 479990, Note_on_c, 0, 79, 0
1, 479990, Note_on_c, 0, 67, 0
1, 479990, Note_on_c, 0, 59, 0
1, 479990, Note_on_c, 0, 62, 0
1, 479990, Note_on_c, 0, 55, 0
1, 480480, Tempo, 416666
1, 480480, Time_signature, 2, 2, 24, 8
1, 480480, Note_on_c, 0, 55, 127
1, 480480, Note_on_c, 0, 43, 127
1, 480960, Time_signature, 6, 2, 24, 8
1, 480960, Note_on_c, 0, 31, 127
1, 481910, Note_on_c, 0, 55, 0
1, 481910, Note_on_c, 0, 43, 0
1, 481910, Note_on_c, 0, 31, 0
1, 481920, Note_on_c, 0, 55, 127
1, 481920, Note_on_c, 0, 43, 127
1, 481920, Note_on_c, 0, 31, 127
1, 482320, Note_on_c, 0, 55, 0
1, 482320, Note_on_c, 0, 43, 0
1, 482320, Note_on_c, 0, 31, 0
1, 482400, Note_on_c, 0, 54, 127
1, 482400, Note_on_c, 0, 42, 127
1, 482400, Note_on_c, 0, 30, 127
1, 482800, Note_on_c, 0, 54, 0
1, 482800, Note_on_c, 0, 42, 0
1, 482800, Note_on_c, 0, 30, 0
1, 482880, Note_on_c, 0, 50, 127
1, 482880, Note_on_c, 0, 38, 127
1, 482880, Note_on_c, 0, 26, 127
1, 483280, Note_on_c, 0, 50, 0
1, 483280, Note_on_c, 0, 38, 0
1, 483280, Note_on_c, 0, 26, 0
1, 483360, Note_on_c, 0, 64, 127
1, 483360, Note_on_c, 0, 52, 127
1, 483360, Note_on_c, 0, 40, 127
1, 483664, Control_c, 0, 64, 127
1, 484790, Note_on_c, 0, 64, 0
1, 484790, Note_on_c, 0, 52, 0
1, 484790, Note_on_c, 0, 40, 0
1, 484800, Note_on_c, 0, 64, 127
1, 484800, Note_on_c, 0, 52, 127
1, 484800, Note_on_c, 0, 40, 127
1, 485099, Control_c, 0, 64, 0
1, 485150, Note_on_c, 0, 64, 0
1, 485150, Note_on_c, 0, 52, 0
1, 485150, Note_on_c, 0, 40, 0
1, 485280, Note_on_c, 0, 62, 127
1, 485280, Note_on_c, 0, 50, 127
1, 485280, Note_on_c, 0, 38, 127
1, 485630, Note_on_c, 0, 62, 0
1, 485630, Note_on_c, 0, 50, 0
1, 485630, Note_on_c, 0, 38, 0
1, 485760, Note_on_c, 0, 59, 127
1, 485760, Note_on_c, 0, 47, 127
1, 485760, Note_on_c, 0, 35, 127
1, 486110, Note_on_c, 0, 59, 0
1, 486110, Note_on_c, 0, 47, 0
1, 486110, Note_on_c, 0, 35, 0
1, 486240, Note_on_c, 0, 60, 127
1, 486240, Note_on_c, 0, 48, 127
1, 486240, Note_on_c, 0, 36, 127
1, 486481, Control_c, 0, 64, 127
1, 486720, Note_on_c, 0, 24, 127
1, 487670, Note_on_c, 0, 60, 0
1, 487670, Note_on_c, 0, 48, 0
1, 487670, Note_on_c, 0, 36, 0
1, 487670, Note_on_c, 0, 24, 0
1, 487680, Note_on_c, 0, 60, 127
1, 487680, Note_on_c, 0, 48, 127
1, 487680, Note_on_c, 0, 36, 127
1, 487864, Control_c, 0, 64, 0
1, 488030, Note_on_c, 0, 60, 0
1, 488030, Note_on_c, 0, 48, 0
1, 488030, Note_on_c, 0, 36, 0
1, 488160, Note_on_c, 0, 59, 127
1, 488160, Note_on_c, 0, 47, 127
1, 488160, Note_on_c, 0, 35, 127
1, 488510, Note_on_c, 0, 59, 0
1, 488510, Note_on_c, 0, 47, 0
1, 488510, Note_on_c, 0, 35, 0
1, 488640, Note_on_c, 0, 55, 127
1, 488640, Note_on_c, 0, 43, 127
1, 488640, Note_on_c, 0, 31, 127
1, 489590, Note_on_c, 0, 55, 0
1, 489590, Note_on_c, 0, 43, 0
1, 489590, Note_on_c, 0, 31, 0
1, 489600, Note_on_c, 0, 64, 127
1, 489600, Note_on_c, 0, 52, 127
1, 489600, Note_on_c, 0, 40, 127
1, 489790, Control_c, 0, 64, 127
1, 490550, Note_on_c, 0, 64, 0
1, 490550, Note_on_c, 0, 52, 0
1, 490550, Note_on_c, 0, 40, 0
1, 490560, Note_on_c, 0, 64, 127
1, 490560, Note_on_c, 0, 52, 127
1, 490560, Note_on_c, 0, 40, 127
1, 490991, Control_c, 0, 64, 0
1, 491030, Note_on_c, 0, 64, 0
1, 491030, Note_on_c, 0, 52, 0
1, 491030, Note_on_c, 0, 40, 0
1, 491040, Note_on_c, 0, 62, 127
1, 491040, Note_on_c, 0, 50, 127
1, 491040, Note_on_c, 0, 38, 127
1, 491162, Control_c, 0, 64, 127
1, 491990, Note_on_c, 0, 62, 0
1, 491990, Note_on_c, 0, 50, 0
1, 491990, Note_on_c, 0, 38, 0
1, 492000, Note_on_c, 0, 79, 127
1, 492000, Note_on_c, 0, 71, 127
1, 492000, Note_on_c, 0, 67, 127
1, 492000, Note_on_c, 0, 59, 127
1, 492230, Note_on_c, 0, 79, 0
1, 492240, Note_on_c, 0, 74, 127
1, 492240, Note_on_c, 0, 83, 127
1, 492350, Note_on_c, 0, 74, 0
1, 492350, Note_on_c, 0, 71, 0
1, 492350, Note_on_c, 0, 83, 0
1, 492360, Note_on_c, 0, 72, 127
1, 492360, Note_on_c, 0, 81, 127
1, 492360, Note_on_c, 0, 69, 127
1, 492398, Control_c, 0, 64, 0
1, 492470, Note_on_c, 0, 67, 0
1, 492470, Note_on_c, 0, 59, 0
1, 492480, Note_on_c, 0, 47, 127
1, 492480, Note_on_c, 0, 55, 127
1, 492480, Note_on_c, 0, 43, 127
1, 492483, Control_c, 0, 64, 127
1, 492710, Note_on_c, 0, 72, 0
1, 492710, Note_on_c, 0, 81, 0
1, 492710, Note_on_c, 0, 69, 0
1, 492720, Note_on_c, 0, 71, 127
1, 492720, Note_on_c, 0, 79, 127
1, 492720, Note_on_c, 0, 67, 127
1, 492830, Note_on_c, 0, 71, 0
1, 492830, Note_on_c, 0, 79, 0
1, 492830, Note_on_c, 0, 67, 0
1, 492840, Note_on_c, 0, 69, 127
1, 492840, Note_on_c, 0, 78, 127
1, 492840, Note_on_c, 0, 66, 127
1, 492950, Control_c, 0, 64, 0
1, 492950, Note_on_c, 0, 69, 0
1, 492950, Note_on_c, 0, 78, 0
1, 492950, Note_on_c, 0, 47, 0
1, 492950, Note_on_c, 0, 55, 0
1, 492950, Note_on_c, 0, 66, 0
1, 492950, Note_on_c, 0, 43, 0
1, 492960, Note_on_c, 0, 71, 127
1, 492960, Note_on_c, 0, 79, 127
1, 492960, Note_on_c, 0, 67, 127
1, 492960, Note_on_c, 0, 43, 127
1, 492960, Note_on_c, 0, 31, 127
1, 493190, Note_on_c, 0, 71, 0
1, 493190, Note_on_c, 0, 79, 0
1, 493190, Note_on_c, 0, 67, 0
1, 493190, Note_on_c, 0, 43, 0
1, 493190, Note_on_c, 0, 31, 0
1, 493200, Note_on_c, 0, 69, 127
1, 493200, Note_on_c, 0, 60, 127
1, 493200, Note_on_c, 0, 62, 127
1, 493200, Note_on_c, 0, 43, 127
1, 493200, Note_on_c, 0, 31, 127
1, 493310, Note_on_c, 0, 69, 0
1, 493310, Note_on_c, 0, 60, 0
1, 493310, Note_on_c, 0, 43, 0
1, 493310, Note_on_c, 0, 31, 0
1, 493320, Note_on_c, 0, 67, 127
1, 493320, Note_on_c, 0, 59, 127
1, 493320, Note_on_c, 0, 45, 127
1, 493320, Note_on_c, 0, 33, 127
1, 493430, Note_on_c, 0, 45, 0
1, 493430, Note_on_c, 0, 33, 0
1, 493440, Note_on_c, 0, 47, 127
1, 493440, Note_on_c, 0, 35, 127
1, 493575, Control_c, 0, 64, 127
1, 493670, Note_on_c, 0, 67, 0
1, 493670, Note_on_c, 0, 59, 0
1, 493670, Note_on_c, 0, 62, 0
1, 493670, Note_on_c, 0, 47, 0
1, 493670, Note_on_c, 0, 35, 0
1, 493680, Note_on_c, 0, 72, 127
1, 493680, Note_on_c, 0, 81, 127
1, 493680, Note_on_c, 0, 69, 127
1, 493680, Note_on_c, 0, 47, 127
1, 493680, Note_on_c, 0, 35, 127
1, 493790, Note_on_c, 0, 72, 0
1, 493790, Note_on_c, 0, 81, 0
1, 493790, Note_on_c, 0, 69, 0
1, 493790, Note_on_c, 0, 47, 0
1, 493790, Note_on_c, 0, 35, 0
1, 493800, Note_on_c, 0, 71, 127
1, 493800, Note_on_c, 0, 79, 127
1, 493800, Note_on_c, 0, 67, 127
1, 493800, Note_on_c, 0, 48, 127
1, 493800, Note_on_c, 0, 36, 127
1, 493847, Control_c, 0, 64, 0
1, 493910, Note_on_c, 0, 48, 0
1, 493910, Note_on_c, 0, 36, 0
1, 493920, Note_on_c, 0, 50, 127
1, 493920, Note_on_c, 0, 38, 127
1, 494007, Control_c, 0, 64, 127
1, 494030, Note_on_c, 0, 71, 0
1, 494030, Note_on_c, 0, 79, 0
1, 494030, Note_on_c, 0, 67, 0
1, 494040, Note_on_c, 0, 69, 127
1, 494040, Note_on_c, 0, 78, 127
1, 494040, Note_on_c, 0, 66, 127
1, 494150, Note_on_c, 0, 69, 0
1, 494150, Note_on_c, 0, 78, 0
1, 494150, Note_on_c, 0, 66, 0
1, 494150, Note_on_c, 0, 50, 0
1, 494150, Note_on_c, 0, 38, 0
1, 494160, Note_on_c, 0, 69, 127
1, 494160, Note_on_c, 0, 78, 127
1, 494160, Note_on_c, 0, 66, 127
1, 494160, Note_on_c, 0, 62, 127
1, 494160, Note_on_c, 0, 50, 127
1, 494270, Note_on_c, 0, 69, 0
1, 494270, Note_on_c, 0, 78, 0
1, 494270, Note_on_c, 0, 66, 0
1, 494270, Note_on_c, 0, 62, 0
1, 494270, Note_on_c, 0, 50, 0
1, 494280, Note_on_c, 0, 76, 127
1, 494280, Note_on_c, 0, 67, 127
1, 494280, Note_on_c, 0, 64, 127
1, 494280, Note_on_c, 0, 52, 127
1, 494385, Control_c, 0, 64, 0
1, 494390, Note_on_c, 0, 76, 0
1, 494390, Note_on_c, 0, 67, 0
1, 494390, Note_on_c, 0, 64, 0
1, 494390, Note_on_c, 0, 52, 0
1, 494400, Note_on_c, 0, 76, 127
1, 494400, Note_on_c, 0, 67, 127
1, 494400, Note_on_c, 0, 62, 127
1, 494400, Note_on_c, 0, 50, 127
1, 494471, Control_c, 0, 64, 127
1, 494510, Note_on_c, 0, 76, 0
1, 494510, Note_on_c, 0, 67, 0
1, 494520, Note_on_c, 0, 74, 127
1, 494520, Note_on_c, 0, 66, 127
1, 494630, Note_on_c, 0, 74, 0
1, 494630, Note_on_c, 0, 66, 0
1, 494630, Note_on_c, 0, 62, 0
1, 494630, Note_on_c, 0, 50, 0
1, 494640, Note_on_c, 0, 74, 127
1, 494640, Note_on_c, 0, 66, 127
1, 494640, Note_on_c, 0, 62, 127
1, 494640, Note_on_c, 0, 50, 127
1, 494750, Note_on_c, 0, 74, 0
1, 494750, Note_on_c, 0, 66, 0
1, 494750, Note_on_c, 0, 62, 0
1, 494750, Note_on_c, 0, 50, 0
1, 494760, Note_on_c, 0, 78, 127
1, 494760, Note_on_c, 0, 86, 127
1, 494760, Note_on_c, 0, 74, 127
1, 494760, Note_on_c, 0, 50, 127
1, 494760, Note_on_c, 0, 38, 127
1, 494856, Control_c, 0, 64, 0
1, 494870, Note_on_c, 0, 78, 0
1, 494870, Note_on_c, 0, 86, 0
1, 494870, Note_on_c, 0, 74, 0
1, 494880, Note_on_c, 0, 76, 127
1, 494880, Note_on_c, 0, 67, 127
1, 494922, Control_c, 0, 64, 127
1, 494990, Note_on_c, 0, 76, 0
1, 494990, Note_on_c, 0, 67, 0
1, 495000, Note_on_c, 0, 79, 127
1, 495000, Note_on_c, 0, 88, 127
1, 495000, Note_on_c, 0, 76, 127
1, 495110, Note_on_c, 0, 79, 0
1, 495110, Note_on_c, 0, 88, 0
1, 495110, Note_on_c, 0, 76, 0
1, 495110, Note_on_c, 0, 50, 0
1, 495110, Note_on_c, 0, 38, 0
1, 495120, Note_on_c, 0, 79, 127
1, 495120, Note_on_c, 0, 88, 127
1, 495120, Note_on_c, 0, 76, 127
1, 495120, Note_on_c, 0, 50, 127
1, 495120, Note_on_c, 0, 38, 127
1, 495230, Note_on_c, 0, 50, 0
1, 495230, Note_on_c, 0, 38, 0
1, 495240, Note_on_c, 0, 52, 127
1, 495240, Note_on_c, 0, 40, 127
1, 495350, Note_on_c, 0, 52, 0
1, 495350, Note_on_c, 0, 40, 0
1, 495360, Note_on_c, 0, 50, 127
1, 495360, Note_on_c, 0, 38, 127
1, 495381, Control_c, 0, 64, 0
1, 495590, Note_on_c, 0, 79, 0
1, 495590, Note_on_c, 0, 88, 0
1, 495590, Note_on_c, 0, 76, 0
1, 495590, Note_on_c, 0, 50, 0
1, 495590, Note_on_c, 0, 38, 0
1, 495600, Note_on_c, 0, 79, 127
1, 495600, Note_on_c, 0, 67, 127
1, 495600, Note_on_c, 0, 76, 127
1, 495600, Note_on_c, 0, 50, 127
1, 495600, Note_on_c, 0, 38, 127
1, 495710, Note_on_c, 0, 76, 0
1, 495710, Note_on_c, 0, 50, 0
1, 495710, Note_on_c, 0, 38, 0
1, 495720, Note_on_c, 0, 74, 127
1, 495720, Note_on_c, 0, 52, 127
1, 495720, Note_on_c, 0, 40, 127
1, 495830, Note_on_c, 0, 74, 0
1, 495830, Note_on_c, 0, 52, 0
1, 495830, Note_on_c, 0, 40, 0
1, 495840, Note_on_c, 0, 76, 127
1, 495840, Note_on_c, 0, 48, 127
1, 495840, Note_on_c, 0, 36, 127
1, 495910, Control_c, 0, 64, 127
1, 496070, Note_on_c, 0, 79, 0
1, 496070, Note_on_c, 0, 67, 0
1, 496070, Note_on_c, 0, 76, 0
1, 496070, Note_on_c, 0, 48, 0
1, 496070, Note_on_c, 0, 36, 0
1, 496080, Note_on_c, 0, 79, 127
1, 496080, Note_on_c, 0, 88, 127
1, 496080, Note_on_c, 0, 76, 127
1, 496080, Note_on_c, 0, 60, 127
1, 496080, Note_on_c, 0, 48, 127
1, 496190, Note_on_c, 0, 88, 0
1, 496190, Note_on_c, 0, 76, 0
1, 496190, Note_on_c, 0, 60, 0
1, 496190, Note_on_c, 0, 48, 0
1, 496200, Note_on_c, 0, 86, 127
1, 496200, Note_on_c, 0, 74, 127
1, 496200, Note_on_c, 0, 59, 127
1, 496200, Note_on_c, 0, 47, 127
1, 496310, Note_on_c, 0, 86, 0
1, 496310, Note_on_c, 0, 74, 0
1, 496310, Note_on_c, 0, 59, 0
1, 496310, Note_on_c, 0, 47, 0
1, 496320, Note_on_c, 0, 88, 127
1, 496320, Note_on_c, 0, 76, 127
1, 496320, Note_on_c, 0, 60, 127
1, 496320, Note_on_c, 0, 48, 127
1, 496550, Note_on_c, 0, 79, 0
1, 496550, Note_on_c, 0, 88, 0
1, 496550, Note_on_c, 0, 76, 0
1, 496550, Note_on_c, 0, 60, 0
1, 496550, Note_on_c, 0, 48, 0
1, 496560, Note_on_c, 0, 76, 127
1, 496560, Note_on_c, 0, 79, 127
1, 496560, Note_on_c, 0, 67, 127
1, 496560, Note_on_c, 0, 62, 127
1, 496560, Note_on_c, 0, 50, 127
1, 496670, Note_on_c, 0, 62, 0
1, 496670, Note_on_c, 0, 50, 0
1, 496680, Note_on_c, 0, 60, 127
1, 496680, Note_on_c, 0, 48, 127
1, 496728, Control_c, 0, 64, 0
1, 497030, Note_on_c, 0, 76, 0
1, 497030, Note_on_c, 0, 79, 0
1, 497030, Note_on_c, 0, 67, 0
1, 497030, Note_on_c, 0, 60, 0
1, 497030, Note_on_c, 0, 48, 0
1, 497040, Note_on_c, 0, 74, 127
1, 497040, Note_on_c, 0, 79, 127
1, 497040, Note_on_c, 0, 67, 127
1, 497040, Note_on_c, 0, 59, 127
1, 497040, Note_on_c, 0, 47, 127
1, 497150, Note_on_c, 0, 74, 0
1, 497150, Note_on_c, 0, 79, 0
1, 497150, Note_on_c, 0, 67, 0
1, 497150, Note_on_c, 0, 59, 0
1, 497150, Note_on_c, 0, 47, 0
1, 497160, Note_on_c, 0, 72, 127
1, 497160, Note_on_c, 0, 81, 127
1, 497160, Note_on_c, 0, 69, 127
1, 497160, Note_on_c, 0, 57, 127
1, 497160, Note_on_c, 0, 45, 127
1, 497270, Note_on_c, 0, 72, 0
1, 497270, Note_on_c, 0, 81, 0
1, 497270, Note_on_c, 0, 69, 0
1, 497270, Note_on_c, 0, 57, 0
1, 497270, Note_on_c, 0, 45, 0
1, 497280, Note_on_c, 0, 83, 127
1, 497280, Note_on_c, 0, 71, 127
1, 497280, Note_on_c, 0, 55, 127
1, 497280, Note_on_c, 0, 43, 127
1, 497510, Note_on_c, 0, 83, 0
1, 497510, Note_on_c, 0, 71, 0
1, 497510, Note_on_c, 0, 55, 0
1, 497510, Note_on_c, 0, 43, 0
1, 497520, Note_on_c, 0, 74, 127
1, 497520, Note_on_c, 0, 83, 127
1, 497520, Note_on_c, 0, 71, 127
1, 497520, Note_on_c, 0, 55, 127
1, 497520, Note_on_c, 0, 43, 127
1, 497630, Note_on_c, 0, 74, 0
1, 497630, Note_on_c, 0, 83, 0
1, 497630, Note_on_c, 0, 71, 0
1, 497630, Note_on_c, 0, 55, 0
1, 497630, Note_on_c, 0, 43, 0
1, 497640, Note_on_c, 0, 72, 127
1, 497640, Note_on_c, 0, 81, 127
1, 497640, Note_on_c, 0, 69, 127
1, 497640, Note_on_c, 0, 57, 127
1, 497640, Note_on_c, 0, 45, 127
1, 497750, Note_on_c, 0, 72, 0
1, 497750, Note_on_c, 0, 81, 0
1, 497750, Note_on_c, 0, 69, 0
1, 497750, Note_on_c, 0, 57, 0
1, 497750, Note_on_c, 0, 45, 0
1, 497760, Note_on_c, 0, 74, 127
1, 497760, Note_on_c, 0, 83, 127
1, 497760, Note_on_c, 0, 71, 127
1, 497760, Note_on_c, 0, 55, 127
1, 497760, Note_on_c, 0, 43, 127
1, 497990, Note_on_c, 0, 74, 0
1, 497990, Note_on_c, 0, 83, 0
1, 497990, Note_on_c, 0, 71, 0
1, 497990, Note_on_c, 0, 55, 0
1, 497990, Note_on_c, 0, 43, 0
1, 498000, Note_on_c, 0, 72, 127
1, 498000, Note_on_c, 0, 64, 127
1, 498000, Note_on_c, 0, 43, 127
1, 498000, Note_on_c, 0, 31, 127
1, 498110, Note_on_c, 0, 72, 0
1, 498110, Note_on_c, 0, 64, 0
1, 498110, Note_on_c, 0, 43, 0
1, 498110, Note_on_c, 0, 31, 0
1, 498120, Note_on_c, 0, 71, 127
1, 498120, Note_on_c, 0, 62, 127
1, 498120, Note_on_c, 0, 55, 127
1, 498120, Note_on_c, 0, 43, 127
1, 498230, Note_on_c, 0, 62, 0
1, 498230, Note_on_c, 0, 55, 0
1, 498230, Note_on_c, 0, 43, 0
1, 498240, Note_on_c, 0, 64, 127
1, 498240, Note_on_c, 0, 72, 127
1, 498240, Note_on_c, 0, 60, 127
1, 498240, Note_on_c, 0, 57, 127
1, 498240, Note_on_c, 0, 45, 127
1, 498470, Note_on_c, 0, 71, 0
1, 498470, Note_on_c, 0, 64, 0
1, 498470, Note_on_c, 0, 72, 0
1, 498470, Note_on_c, 0, 60, 0
1, 498470, Note_on_c, 0, 57, 0
1, 498470, Note_on_c, 0, 45, 0
1, 498480, Note_on_c, 0, 76, 127
1, 498480, Note_on_c, 0, 84, 127
1, 498480, Note_on_c, 0, 72, 127
1, 498480, Note_on_c, 0, 57, 127
1, 498480, Note_on_c, 0, 45, 127
1, 498552, Control_c, 0, 64, 127
1, 498590, Note_on_c, 0, 76, 0
1, 498590, Note_on_c, 0, 84, 0
1, 498590, Note_on_c, 0, 72, 0
1, 498590, Note_on_c, 0, 57, 0
1, 498590, Note_on_c, 0, 45, 0
1, 498600, Note_on_c, 0, 74, 127
1, 498600, Note_on_c, 0, 83, 127
1, 498600, Note_on_c, 0, 71, 127
1, 498600, Note_on_c, 0, 59, 127
1, 498600, Note_on_c, 0, 47, 127
1, 498690, Control_c, 0, 64, 0
1, 498710, Note_on_c, 0, 74, 0
1, 498710, Note_on_c, 0, 83, 0
1, 498710, Note_on_c, 0, 71, 0
1, 498710, Note_on_c, 0, 59, 0
1, 498710, Note_on_c, 0, 47, 0
1, 498720, Note_on_c, 0, 76, 127
1, 498720, Note_on_c, 0, 84, 127
1, 498720, Note_on_c, 0, 72, 127
1, 498720, Note_on_c, 0, 57, 127
1, 498720, Note_on_c, 0, 45, 127
1, 498950, Note_on_c, 0, 76, 0
1, 498950, Note_on_c, 0, 84, 0
1, 498950, Note_on_c, 0, 72, 0
1, 498950, Note_on_c, 0, 57, 0
1, 498950, Note_on_c, 0, 45, 0
1, 498960, Note_on_c, 0, 72, 127
1, 498960, Note_on_c, 0, 64, 127
1, 498960, Note_on_c, 0, 45, 127
1, 498960, Note_on_c, 0, 33, 127
1, 499070, Note_on_c, 0, 72, 0
1, 499070, Note_on_c, 0, 64, 0
1, 499070, Note_on_c, 0, 45, 0
1, 499070, Note_on_c, 0, 33, 0
1, 499080, Note_on_c, 0, 71, 127
1, 499080, Note_on_c, 0, 62, 127
1, 499080, Note_on_c, 0, 47, 127
1, 499080, Note_on_c, 0, 35, 127
1, 499190, Note_on_c, 0, 71, 0
1, 499190, Note_on_c, 0, 62, 0
1, 499190, Note_on_c, 0, 47, 0
1, 499190, Note_on_c, 0, 35, 0
1, 499200, Note_on_c, 0, 72, 127
1, 499200, Note_on_c, 0, 60, 127
1, 499200, Note_on_c, 0, 45, 127
1, 499200, Note_on_c, 0, 33, 127
1, 499430, Note_on_c, 0, 72, 0
1, 499430, Note_on_c, 0, 60, 0
1, 499430, Note_on_c, 0, 45, 0
1, 499430, Note_on_c, 0, 33, 0
1, 499440, Note_on_c, 0, 74, 127
1, 499440, Note_on_c, 0, 69, 127
1, 499440, Note_on_c, 0, 64, 127
1, 499440, Note_on_c, 0, 59, 127
1, 499440, Note_on_c, 0, 47, 127
1, 499550, Note_on_c, 0, 74, 0
1, 499550, Note_on_c, 0, 59, 0
1, 499550, Note_on_c, 0, 47, 0
1, 499560, Note_on_c, 0, 72, 127
1, 499560, Note_on_c, 0, 57, 127
1, 499560, Note_on_c, 0, 45, 127
1, 499670, Note_on_c, 0, 69, 0
1, 499670, Note_on_c, 0, 64, 0
1, 499670, Note_on_c, 0, 57, 0
1, 499670, Note_on_c, 0, 45, 0
1, 499680, Note_on_c, 0, 66, 127
1, 499680, Note_on_c, 0, 63, 127
1, 499680, Note_on_c, 0, 59, 127
1, 499680, Note_on_c, 0, 47, 127
1, 499791, Control_c, 0, 64, 127
1, 499910, Note_on_c, 0, 72, 0
1, 499910, Note_on_c, 0, 66, 0
1, 499910, Note_on_c, 0, 63, 0
1, 499910, Note_on_c, 0, 59, 0
1, 499910, Note_on_c, 0, 47, 0
1, 499920, Note_on_c, 0, 71, 127
1, 499920, Note_on_c, 0, 63, 127
1, 499920, Note_on_c, 0, 60, 127
1, 499920, Note_on_c, 0, 48, 127
1, 500030, Note_on_c, 0, 71, 0
1, 500030, Note_on_c, 0, 63, 0
1, 500030, Note_on_c, 0, 60, 0
1, 500030, Note_on_c, 0, 48, 0
1, 500040, Note_on_c, 0, 75, 127
1, 500040, Note_on_c, 0, 83, 127
1, 500040, Note_on_c, 0, 71, 127
1, 500040, Note_on_c, 0, 59, 127
1, 500040, Note_on_c, 0, 47, 127
1, 500134, Control_c, 0, 64, 0
1, 500150, Note_on_c, 0, 75, 0
1, 500150, Note_on_c, 0, 83, 0
1, 500150, Note_on_c, 0, 71, 0
1, 500150, Note_on_c, 0, 59, 0
1, 500150, Note_on_c, 0, 47, 0
1, 500160, Note_on_c, 0, 76, 127
1, 500160, Note_on_c, 0, 79, 127
1, 500160, Note_on_c, 0, 67, 127
1, 500160, Note_on_c, 0, 60, 127
1, 500160, Note_on_c, 0, 48, 127
1, 500230, Control_c, 0, 64, 127
1, 500390, Note_on_c, 0, 76, 0
1, 500390, Note_on_c, 0, 79, 0
1, 500390, Note_on_c, 0, 67, 0
1, 500390, Note_on_c, 0, 60, 0
1, 500390, Note_on_c, 0, 48, 0
1, 500400, Note_on_c, 0, 76, 127
1, 500400, Note_on_c, 0, 67, 127
1, 500400, Note_on_c, 0, 48, 127
1, 500400, Note_on_c, 0, 36, 127
1, 500510, Note_on_c, 0, 76, 0
1, 500510, Note_on_c, 0, 48, 0
1, 500510, Note_on_c, 0, 36, 0
1, 500520, Note_on_c, 0, 79, 127
1, 500520, Note_on_c, 0, 76, 127
1, 500520, Note_on_c, 0, 47, 127
1, 500520, Note_on_c, 0, 35, 127
1, 500630, Note_on_c, 0, 47, 0
1, 500630, Note_on_c, 0, 35, 0
1, 500640, Note_on_c, 0, 48, 127
1, 500640, Note_on_c, 0, 36, 127
1, 500870, Note_on_c, 0, 79, 0
1, 500870, Note_on_c, 0, 67, 0
1, 500870, Note_on_c, 0, 76, 0
1, 500870, Note_on_c, 0, 48, 0
1, 500870, Note_on_c, 0, 36, 0
1, 500880, Note_on_c, 0, 76, 127
1, 500880, Note_on_c, 0, 67, 127
1, 500880, Note_on_c, 0, 60, 127
1, 500880, Note_on_c, 0, 48, 127
1, 500990, Note_on_c, 0, 76, 0
1, 500990, Note_on_c, 0, 67, 0
1, 500990, Note_on_c, 0, 60, 0
1, 500990, Note_on_c, 0, 48, 0
1, 501000, Note_on_c, 0, 79, 127
1, 501000, Note_on_c, 0, 88, 127
1, 501000, Note_on_c, 0, 76, 127
1, 501000, Note_on_c, 0, 59, 127
1, 501000, Note_on_c, 0, 47, 127
1, 501110, Note_on_c, 0, 59, 0
1, 501110, Note_on_c, 0, 47, 0
1, 501120, Note_on_c, 0, 60, 127
1, 501120, Note_on_c, 0, 48, 127
1, 501249, Control_c, 0, 64, 0
1, 501350, Note_on_c, 0, 79, 0
1, 501350, Note_on_c, 0, 88, 0
1, 501350, Note_on_c, 0, 76, 0
1, 501350, Note_on_c, 0, 60, 0
1, 501350, Note_on_c, 0, 48, 0
1, 501360, Note_on_c, 0, 76, 127
1, 501360, Note_on_c, 0, 67, 127
1, 501360, Note_on_c, 0, 48, 127
1, 501360, Note_on_c, 0, 36, 127
1, 501470, Note_on_c, 0, 76, 0
1, 501470, Note_on_c, 0, 67, 0
1, 501470, Note_on_c, 0, 48, 0
1, 501470, Note_on_c, 0, 36, 0
1, 501480, Note_on_c, 0, 79, 127
1, 501480, Note_on_c, 0, 88, 127
1, 501480, Note_on_c, 0, 76, 127
1, 501480, Note_on_c, 0, 47, 127
1, 501480, Note_on_c, 0, 35, 127
1, 501590, Note_on_c, 0, 47, 0
1, 501590, Note_on_c, 0, 35, 0
1, 501600, Note_on_c, 0, 48, 127
1, 501600, Note_on_c, 0, 36, 127
1, 501830, Note_on_c, 0, 79, 0
1, 501830, Note_on_c, 0, 88, 0
1, 501830, Note_on_c, 0, 76, 0
1, 501830, Note_on_c, 0, 48, 0
1, 501830, Note_on_c, 0, 36, 0
1, 501840, Note_on_c, 0, 76, 127
1, 501840, Note_on_c, 0, 64, 127
1, 501840, Note_on_c, 0, 67, 127
1, 501840, Note_on_c, 0, 60, 127
1, 501840, Note_on_c, 0, 48, 127
1, 501950, Note_on_c, 0, 76, 0
1, 501950, Note_on_c, 0, 64, 0
1, 501950, Note_on_c, 0, 60, 0
1, 501950, Note_on_c, 0, 48, 0
1, 501960, Note_on_c, 0, 74, 127
1, 501960, Note_on_c, 0, 62, 127
1, 501960, Note_on_c, 0, 59, 127
1, 501960, Note_on_c, 0, 47, 127
1, 502070, Note_on_c, 0, 74, 0
1, 502070, Note_on_c, 0, 62, 0
1, 502070, Note_on_c, 0, 67, 0
1, 502070, Note_on_c, 0, 59, 0
1, 502070, Note_on_c, 0, 47, 0
1, 502080, Note_on_c, 0, 67, 127
1, 502080, Note_on_c, 0, 76, 127
1, 502080, Note_on_c, 0, 64, 127
1, 502080, Note_on_c, 0, 60, 127
1, 502080, Note_on_c, 0, 48, 127
1, 502310, Note_on_c, 0, 67, 0
1, 502310, Note_on_c, 0, 76, 0
1, 502310, Note_on_c, 0, 64, 0
1, 502310, Note_on_c, 0, 60, 0
1, 502310, Note_on_c, 0, 48, 0
1, 502320, Note_on_c, 0, 78, 127
1, 502320, Note_on_c, 0, 69, 127
1, 502320, Note_on_c, 0, 48, 127
1, 502320, Note_on_c, 0, 36, 127
1, 502430, Note_on_c, 0, 78, 0
1, 502430, Note_on_c, 0, 69, 0
1, 502430, Note_on_c, 0, 48, 0
1, 502430, Note_on_c, 0, 36, 0
1, 502440, Note_on_c, 0, 76, 127
1, 502440, Note_on_c, 0, 67, 127
1, 502440, Note_on_c, 0, 60, 127
1, 502440, Note_on_c, 0, 48, 127
1, 502550, Note_on_c, 0, 76, 0
1, 502550, Note_on_c, 0, 67, 0
1, 502550, Note_on_c, 0, 60, 0
1, 502550, Note_on_c, 0, 48, 0
1, 502560, Note_on_c, 0, 69, 127
1, 502560, Note_on_c, 0, 74, 127
1, 502560, Note_on_c, 0, 66, 127
1, 502560, Note_on_c, 0, 54, 127
1, 502560, Note_on_c, 0, 57, 127
1, 502560, Note_on_c, 0, 62, 127
1, 502560, Note_on_c, 0, 50, 127
1, 502663, Control_c, 0, 64, 127
1, 503608, Control_c, 0, 64, 0
1, 503990, Note_on_c, 0, 66, 0
1, 503990, Note_on_c, 0, 69, 0
1, 503990, Note_on_c, 0, 74, 0
1, 503990, Note_on_c, 0, 50, 0
1, 503990, Note_on_c, 0, 54, 0
1, 503990, Note_on_c, 0, 57, 0
1, 503990, Note_on_c, 0, 62, 0
1, 504000, Note_on_c, 0, 60, 127
1, 504000, Note_on_c, 0, 48, 127
1, 504470, Note_on_c, 0, 60, 0
1, 504470, Note_on_c, 0, 48, 0
1, 504480, Note_on_c, 0, 62, 127
1, 504480, Note_on_c, 0, 50, 127
1, 505190, Note_on_c, 0, 62, 0
1, 505190, Note_on_c, 0, 50, 0
1, 505200, Note_on_c, 0, 60, 127
1, 505200, Note_on_c, 0, 48, 127
1, 505430, Note_on_c, 0, 60, 0
1, 505430, Note_on_c, 0, 48, 0
1, 505920, Note_on_c, 0, 65, 127
1, 505920, Note_on_c, 0, 53, 127
1, 506074, Control_c, 0, 64, 127
1, 506630, Note_on_c, 0, 65, 0
1, 506630, Note_on_c, 0, 53, 0
1, 506640, Note_on_c, 0, 65, 127
1, 506640, Note_on_c, 0, 53, 127
1, 506870, Note_on_c, 0, 65, 0
1, 506870, Note_on_c, 0, 53, 0
1, 506880, Note_on_c, 0, 65, 127
1, 506880, Note_on_c, 0, 53, 127
1, 507830, Note_on_c, 0, 65, 0
1, 507830, Note_on_c, 0, 53, 0
1, 507840, Note_on_c, 0, 65, 127
1, 507840, Note_on_c, 0, 53, 127
1, 508310, Note_on_c, 0, 65, 0
1, 508310, Note_on_c, 0, 53, 0
1, 508320, Note_on_c, 0, 65, 127
1, 508320, Note_on_c, 0, 53, 127
1, 509173, Control_c, 0, 64, 0
1, 509270, Note_on_c, 0, 65, 0
1, 509270, Note_on_c, 0, 53, 0
1, 509280, Note_on_c, 0, 62, 127
1, 509280, Note_on_c, 0, 50, 127
1, 509760, Note_on_c, 0, 62, 127
1, 510710, Note_on_c, 0, 50, 0
1, 510710, Note_on_c, 0, 62, 0
1, 510720, Note_on_c, 0, 60, 127
1, 510720, Note_on_c, 0, 48, 127
1, 511190, Note_on_c, 0, 60, 0
1, 511190, Note_on_c, 0, 48, 0
1, 511200, Note_on_c, 0, 60, 127
1, 511200, Note_on_c, 0, 48, 127
1, 511670, Note_on_c, 0, 60, 0
1, 511670, Note_on_c, 0, 48, 0
1, 511680, Note_on_c, 0, 57, 127
1, 511680, Note_on_c, 0, 45, 127
1, 512150, Note_on_c, 0, 57, 0
1, 512150, Note_on_c, 0, 45, 0
1, 512160, Note_on_c, 0, 55, 127
1, 512160, Note_on_c, 0, 43, 127
1, 512630, Note_on_c, 0, 55, 0
1, 512630, Note_on_c, 0, 43, 0
1, 512640, Note_on_c, 0, 65, 127
1, 512640, Note_on_c, 0, 53, 127
1, 513590, Note_on_c, 0, 65, 0
1, 513590, Note_on_c, 0, 53, 0
1, 513600, Note_on_c, 0, 64, 127
1, 513600, Note_on_c, 0, 52, 127
1, 514070, Note_on_c, 0, 64, 0
1, 514070, Note_on_c, 0, 52, 0
1, 514080, Note_on_c, 0, 64, 127
1, 514080, Note_on_c, 0, 52, 127
1, 514430, Note_on_c, 0, 64, 0
1, 514430, Note_on_c, 0, 52, 0
1, 514560, Note_on_c, 0, 62, 127
1, 514560, Note_on_c, 0, 50, 127
1, 514910, Note_on_c, 0, 62, 0
1, 514910, Note_on_c, 0, 50, 0
1, 515040, Note_on_c, 0, 69, 127
1, 515040, Note_on_c, 0, 72, 127
1, 515040, Note_on_c, 0, 60, 127
1, 515040, Note_on_c, 0, 53, 127
1, 515040, Note_on_c, 0, 41, 127
1, 515208, Control_c, 0, 64, 127
1, 515270, Note_on_c, 0, 69, 0
1, 515270, Note_on_c, 0, 72, 0
1, 515270, Note_on_c, 0, 60, 0
1, 515280, Note_on_c, 0, 65, 127
1, 515390, Note_on_c, 0, 65, 0
1, 515400, Note_on_c, 0, 69, 127
1, 515400, Note_on_c, 0, 72, 127
1, 515400, Note_on_c, 0, 60, 127
1, 515510, Note_on_c, 0, 53, 0
1, 515510, Note_on_c, 0, 41, 0
1, 515520, Note_on_c, 0, 53, 127
1, 515520, Note_on_c, 0, 41, 127
1, 515750, Note_on_c, 0, 69, 0
1, 515750, Note_on_c, 0, 72, 0
1, 515750, Note_on_c, 0, 60, 0
1, 515750, Note_on_c, 0, 53, 0
1, 515750, Note_on_c, 0, 41, 0
1, 515760, Note_on_c, 0, 65, 127
1, 515760, Note_on_c, 0, 55, 127
1, 515760, Note_on_c, 0, 43, 127
1, 515870, Note_on_c, 0, 65, 0
1, 515870, Note_on_c, 0, 55, 0
1, 515870, Note_on_c, 0, 43, 0
1, 515880, Note_on_c, 0, 69, 127
1, 515880, Note_on_c, 0, 72, 127
1, 515880, Note_on_c, 0, 60, 127
1, 515880, Note_on_c, 0, 53, 127
1, 515880, Note_on_c, 0, 41, 127
1, 515990, Note_on_c, 0, 69, 0
1, 515990, Note_on_c, 0, 72, 0
1, 515990, Note_on_c, 0, 60, 0
1, 516000, Note_on_c, 0, 70, 127
1, 516000, Note_on_c, 0, 74, 127
1, 516000, Note_on_c, 0, 62, 127
1, 516105, Control_c, 0, 64, 0
1, 516224, Control_c, 0, 64, 127
1, 516230, Note_on_c, 0, 70, 0
1, 516230, Note_on_c, 0, 74, 0
1, 516230, Note_on_c, 0, 62, 0
1, 516230, Note_on_c, 0, 53, 0
1, 516230, Note_on_c, 0, 41, 0
1, 516240, Note_on_c, 0, 65, 127
1, 516240, Note_on_c, 0, 55, 127
1, 516240, Note_on_c, 0, 43, 127
1, 516350, Note_on_c, 0, 65, 0
1, 516350, Note_on_c, 0, 55, 0
1, 516350, Note_on_c, 0, 43, 0
1, 516360, Note_on_c, 0, 70, 127
1, 516360, Note_on_c, 0, 74, 127
1, 516360, Note_on_c, 0, 62, 127
1, 516360, Note_on_c, 0, 53, 127
1, 516360, Note_on_c, 0, 41, 127
1, 516710, Note_on_c, 0, 70, 0
1, 516710, Note_on_c, 0, 74, 0
1, 516710, Note_on_c, 0, 62, 0
1, 516710, Note_on_c, 0, 53, 0
1, 516710, Note_on_c, 0, 41, 0
1, 516720, Note_on_c, 0, 65, 127
1, 516720, Note_on_c, 0, 55, 127
1, 516720, Note_on_c, 0, 43, 127
1, 516830, Note_on_c, 0, 65, 0
1, 516830, Note_on_c, 0, 55, 0
1, 516830, Note_on_c, 0, 43, 0
1, 516840, Note_on_c, 0, 69, 127
1, 516840, Note_on_c, 0, 72, 127
1, 516840, Note_on_c, 0, 60, 127
1, 516840, Note_on_c, 0, 53, 127
1, 516840, Note_on_c, 0, 41, 127
1, 516950, Note_on_c, 0, 69, 0
1, 516950, Note_on_c, 0, 60, 0
1, 516950, Note_on_c, 0, 53, 0
1, 516950, Note_on_c, 0, 41, 0
1, 516960, Note_on_c, 0, 65, 127
1, 516960, Note_on_c, 0, 57, 127
1, 516960, Note_on_c, 0, 45, 127
1, 516960, Control_c, 0, 64, 0
1, 517145, Control_c, 0, 64, 127
1, 517190, Note_on_c, 0, 65, 0
1, 517190, Note_on_c, 0, 72, 0
1, 517190, Note_on_c, 0, 57, 0
1, 517190, Note_on_c, 0, 45, 0
1, 517200, Note_on_c, 0, 65, 127
1, 517200, Note_on_c, 0, 60, 127
1, 517200, Note_on_c, 0, 58, 127
1, 517200, Note_on_c, 0, 46, 127
1, 517310, Note_on_c, 0, 65, 0
1, 517310, Note_on_c, 0, 60, 0
1, 517310, Note_on_c, 0, 58, 0
1, 517310, Note_on_c, 0, 46, 0
1, 517320, Note_on_c, 0, 72, 127
1, 517320, Note_on_c, 0, 65, 127
1, 517320, Note_on_c, 0, 57, 127
1, 517320, Note_on_c, 0, 45, 127
1, 517430, Note_on_c, 0, 72, 0
1, 517430, Note_on_c, 0, 57, 0
1, 517430, Note_on_c, 0, 45, 0
1, 517440, Note_on_c, 0, 74, 127
1, 517440, Note_on_c, 0, 58, 127
1, 517440, Note_on_c, 0, 46, 127
1, 517481, Control_c, 0, 64, 0
1, 517588, Control_c, 0, 64, 127
1, 517670, Note_on_c, 0, 74, 0
1, 517670, Note_on_c, 0, 65, 0
1, 517670, Note_on_c, 0, 58, 0
1, 517670, Note_on_c, 0, 46, 0
1, 517680, Note_on_c, 0, 74, 127
1, 517680, Note_on_c, 0, 65, 127
1, 517680, Note_on_c, 0, 60, 127
1, 517680, Note_on_c, 0, 48, 127
1, 517790, Note_on_c, 0, 74, 0
1, 517790, Note_on_c, 0, 65, 0
1, 517790, Note_on_c, 0, 60, 0
1, 517790, Note_on_c, 0, 48, 0
1, 517800, Note_on_c, 0, 77, 127
1, 517800, Note_on_c, 0, 74, 127
1, 517800, Note_on_c, 0, 58, 127
1, 517800, Note_on_c, 0, 46, 127
1, 518150, Note_on_c, 0, 77, 0
1, 518150, Note_on_c, 0, 74, 0
1, 518150, Note_on_c, 0, 58, 0
1, 518150, Note_on_c, 0, 46, 0
1, 518160, Note_on_c, 0, 77, 127
1, 518160, Note_on_c, 0, 74, 127
1, 518160, Note_on_c, 0, 60, 127
1, 518160, Note_on_c, 0, 48, 127
1, 518270, Note_on_c, 0, 77, 0
1, 518270, Note_on_c, 0, 60, 0
1, 518270, Note_on_c, 0, 48, 0
1, 518280, Note_on_c, 0, 82, 127
1, 518280, Note_on_c, 0, 58, 127
1, 518280, Note_on_c, 0, 46, 127
1, 518630, Note_on_c, 0, 82, 0
1, 518630, Note_on_c, 0, 74, 0
1, 518630, Note_on_c, 0, 58, 0
1, 518630, Note_on_c, 0, 46, 0
1, 518640, Note_on_c, 0, 74, 127
1, 518640, Note_on_c, 0, 82, 127
1, 518640, Note_on_c, 0, 70, 127
1, 518640, Note_on_c, 0, 76, 127
1, 518640, Note_on_c, 0, 60, 127
1, 518640, Note_on_c, 0, 48, 127
1, 518750, Note_on_c, 0, 74, 0
1, 518750, Note_on_c, 0, 82, 0
1, 518750, Note_on_c, 0, 70, 0
1, 518750, Note_on_c, 0, 60, 0
1, 518750, Note_on_c, 0, 48, 0
1, 518760, Note_on_c, 0, 77, 127
1, 518760, Note_on_c, 0, 86, 127
1, 518760, Note_on_c, 0, 74, 127
1, 518760, Note_on_c, 0, 58, 127
1, 518760, Note_on_c, 0, 46, 127
1, 518870, Note_on_c, 0, 76, 0
1, 519007, Control_c, 0, 64, 0
1, 519072, Control_c, 0, 64, 127
1, 519110, Note_on_c, 0, 77, 0
1, 519110, Note_on_c, 0, 86, 0
1, 519110, Note_on_c, 0, 74, 0
1, 519110, Note_on_c, 0, 58, 0
1, 519110, Note_on_c, 0, 46, 0
1, 519120, Note_on_c, 0, 77, 127
1, 519120, Note_on_c, 0, 86, 127
1, 519120, Note_on_c, 0, 74, 127
1, 519120, Note_on_c, 0, 60, 127
1, 519120, Note_on_c, 0, 48, 127
1, 519230, Note_on_c, 0, 77, 0
1, 519230, Note_on_c, 0, 86, 0
1, 519230, Note_on_c, 0, 74, 0
1, 519230, Note_on_c, 0, 60, 0
1, 519230, Note_on_c, 0, 48, 0
1, 519240, Note_on_c, 0, 86, 127
1, 519240, Note_on_c, 0, 89, 127
1, 519240, Note_on_c, 0, 77, 127
1, 519240, Note_on_c, 0, 58, 127
1, 519240, Note_on_c, 0, 46, 127
1, 519590, Note_on_c, 0, 86, 0
1, 519590, Note_on_c, 0, 89, 0
1, 519590, Note_on_c, 0, 77, 0
1, 519590, Note_on_c, 0, 58, 0
1, 519590, Note_on_c, 0, 46, 0
1, 519600, Note_on_c, 0, 74, 127
1, 519600, Note_on_c, 0, 77, 127
1, 519600, Note_on_c, 0, 65, 127
1, 519600, Note_on_c, 0, 60, 127
1, 519600, Note_on_c, 0, 48, 127
1, 519710, Note_on_c, 0, 74, 0
1, 519710, Note_on_c, 0, 77, 0
1, 519710, Note_on_c, 0, 65, 0
1, 519710, Note_on_c, 0, 60, 0
1, 519710, Note_on_c, 0, 48, 0
1, 519720, Note_on_c, 0, 86, 127
1, 519720, Note_on_c, 0, 89, 127
1, 519720, Note_on_c, 0, 77, 127
1, 519720, Note_on_c, 0, 58, 127
1, 519720, Note_on_c, 0, 46, 127
1, 520070, Note_on_c, 0, 86, 0
1, 520070, Note_on_c, 0, 89, 0
1, 520070, Note_on_c, 0, 77, 0
1, 520070, Note_on_c, 0, 58, 0
1, 520070, Note_on_c, 0, 46, 0
1, 520080, Note_on_c, 0, 74, 127
1, 520080, Note_on_c, 0, 77, 127
1, 520080, Note_on_c, 0, 65, 127
1, 520080, Note_on_c, 0, 60, 127
1, 520080, Note_on_c, 0, 48, 127
1, 520190, Note_on_c, 0, 74, 0
1, 520190, Note_on_c, 0, 77, 0
1, 520190, Note_on_c, 0, 65, 0
1, 520190, Note_on_c, 0, 60, 0
1, 520190, Note_on_c, 0, 48, 0
1, 520200, Note_on_c, 0, 86, 127
1, 520200, Note_on_c, 0, 89, 127
1, 520200, Note_on_c, 0, 77, 127
1, 520200, Note_on_c, 0, 58, 127
1, 520200, Note_on_c, 0, 46, 127
1, 520550, Note_on_c, 0, 86, 0
1, 520550, Note_on_c, 0, 89, 0
1, 520550, Note_on_c, 0, 77, 0
1, 520550, Note_on_c, 0, 58, 0
1, 520550, Note_on_c, 0, 46, 0
1, 520560, Note_on_c, 0, 74, 127
1, 520560, Note_on_c, 0, 77, 127
1, 520560, Note_on_c, 0, 65, 127
1, 520560, Note_on_c, 0, 60, 127
1, 520560, Note_on_c, 0, 48, 127
1, 520670, Note_on_c, 0, 74, 0
1, 520670, Note_on_c, 0, 77, 0
1, 520670, Note_on_c, 0, 65, 0
1, 520670, Note_on_c, 0, 60, 0
1, 520670, Note_on_c, 0, 48, 0
1, 520680, Note_on_c, 0, 86, 127
1, 520680, Note_on_c, 0, 89, 127
1, 520680, Note_on_c, 0, 77, 127
1, 520680, Note_on_c, 0, 58, 127
1, 520680, Note_on_c, 0, 46, 127
1, 521030, Note_on_c, 0, 86, 0
1, 521030, Note_on_c, 0, 89, 0
1, 521030, Note_on_c, 0, 77, 0
1, 521030, Note_on_c, 0, 58, 0
1, 521030, Note_on_c, 0, 46, 0
1, 521040, Note_on_c, 0, 74, 127
1, 521040, Note_on_c, 0, 77, 127
1, 521040, Note_on_c, 0, 65, 127
1, 521040, Note_on_c, 0, 60, 127
1, 521040, Note_on_c, 0, 48, 127
1, 521150, Note_on_c, 0, 74, 0
1, 521150, Note_on_c, 0, 77, 0
1, 521150, Note_on_c, 0, 65, 0
1, 521150, Note_on_c, 0, 60, 0
1, 521150, Note_on_c, 0, 48, 0
1, 521160, Note_on_c, 0, 86, 127
1, 521160, Note_on_c, 0, 89, 127
1, 521160, Note_on_c, 0, 77, 127
1, 521160, Note_on_c, 0, 58, 127
1, 521160, Note_on_c, 0, 46, 127
1, 521510, Note_on_c, 0, 86, 0
1, 521510, Note_on_c, 0, 89, 0
1, 521510, Note_on_c, 0, 77, 0
1, 521510, Note_on_c, 0, 58, 0
1, 521510, Note_on_c, 0, 46, 0
1, 521520, Note_on_c, 0, 74, 127
1, 521520, Note_on_c, 0, 77, 127
1, 521520, Note_on_c, 0, 65, 127
1, 521520, Note_on_c, 0, 60, 127
1, 521520, Note_on_c, 0, 48, 127
1, 521630, Note_on_c, 0, 74, 0
1, 521630, Note_on_c, 0, 77, 0
1, 521630, Note_on_c, 0, 65, 0
1, 521630, Note_on_c, 0, 60, 0
1, 521630, Note_on_c, 0, 48, 0
1, 521640, Note_on_c, 0, 86, 127
1, 521640, Note_on_c, 0, 89, 127
1, 521640, Note_on_c, 0, 77, 127
1, 521640, Note_on_c, 0, 58, 127
1, 521640, Note_on_c, 0, 46, 127
1, 521670, Control_c, 0, 64, 0
1, 521750, Note_on_c, 0, 86, 0
1, 521750, Note_on_c, 0, 89, 0
1, 521750, Note_on_c, 0, 77, 0
1, 521750, Note_on_c, 0, 58, 0
1, 521750, Note_on_c, 0, 46, 0
1, 521760, Note_on_c, 0, 77, 127
1, 521760, Note_on_c, 0, 86, 127
1, 521760, Note_on_c, 0, 74, 127
1, 521760, Note_on_c, 0, 58, 127
1, 521760, Note_on_c, 0, 46, 127
1, 521906, Control_c, 0, 64, 127
1, 521990, Note_on_c, 0, 77, 0
1, 521990, Note_on_c, 0, 86, 0
1, 521990, Note_on_c, 0, 74, 0
1, 521990, Note_on_c, 0, 58, 0
1, 521990, Note_on_c, 0, 46, 0
1, 522000, Note_on_c, 0, 79, 127
1, 522000, Note_on_c, 0, 88, 127
1, 522000, Note_on_c, 0, 76, 127
1, 522000, Note_on_c, 0, 46, 127
1, 522000, Note_on_c, 0, 34, 127
1, 522110, Note_on_c, 0, 79, 0
1, 522110, Note_on_c, 0, 88, 0
1, 522110, Note_on_c, 0, 76, 0
1, 522110, Note_on_c, 0, 46, 0
1, 522110, Note_on_c, 0, 34, 0
1, 522120, Note_on_c, 0, 77, 127
1, 522120, Note_on_c, 0, 86, 127
1, 522120, Note_on_c, 0, 74, 127
1, 522120, Note_on_c, 0, 58, 127
1, 522120, Note_on_c, 0, 46, 127
1, 522230, Note_on_c, 0, 77, 0
1, 522230, Note_on_c, 0, 86, 0
1, 522230, Note_on_c, 0, 74, 0
1, 522230, Note_on_c, 0, 58, 0
1, 522230, Note_on_c, 0, 46, 0
1, 522240, Note_on_c, 0, 76, 127
1, 522240, Note_on_c, 0, 84, 127
1, 522240, Note_on_c, 0, 72, 127
1, 522240, Note_on_c, 0, 60, 127
1, 522240, Note_on_c, 0, 48, 127
1, 522403, Control_c, 0, 64, 0
1, 522470, Note_on_c, 0, 76, 0
1, 522470, Note_on_c, 0, 84, 0
1, 522470, Note_on_c, 0, 72, 0
1, 522470, Note_on_c, 0, 60, 0
1, 522470, Note_on_c, 0, 48, 0
1, 522480, Note_on_c, 0, 77, 127
1, 522480, Note_on_c, 0, 86, 127
1, 522480, Note_on_c, 0, 74, 127
1, 522480, Note_on_c, 0, 48, 127
1, 522480, Note_on_c, 0, 36, 127
1, 522590, Note_on_c, 0, 77, 0
1, 522590, Note_on_c, 0, 86, 0
1, 522590, Note_on_c, 0, 74, 0
1, 522590, Note_on_c, 0, 48, 0
1, 522590, Note_on_c, 0, 36, 0
1, 522600, Note_on_c, 0, 76, 127
1, 522600, Note_on_c, 0, 84, 127
1, 522600, Note_on_c, 0, 72, 127
1, 522600, Note_on_c, 0, 60, 127
1, 522600, Note_on_c, 0, 48, 127
1, 522666, Control_c, 0, 64, 127
1, 522950, Note_on_c, 0, 76, 0
1, 522950, Note_on_c, 0, 84, 0
1, 522950, Note_on_c, 0, 72, 0
1, 522950, Note_on_c, 0, 60, 0
1, 522950, Note_on_c, 0, 48, 0
1, 522960, Note_on_c, 0, 77, 127
1, 522960, Note_on_c, 0, 86, 127
1, 522960, Note_on_c, 0, 74, 127
1, 522960, Note_on_c, 0, 48, 127
1, 522960, Note_on_c, 0, 36, 127
1, 523070, Note_on_c, 0, 77, 0
1, 523070, Note_on_c, 0, 86, 0
1, 523070, Note_on_c, 0, 74, 0
1, 523070, Note_on_c, 0, 48, 0
1, 523070, Note_on_c, 0, 36, 0
1, 523080, Note_on_c, 0, 76, 127
1, 523080, Note_on_c, 0, 84, 127
1, 523080, Note_on_c, 0, 72, 127
1, 523080, Note_on_c, 0, 60, 127
1, 523080, Note_on_c, 0, 48, 127
1, 523190, Note_on_c, 0, 76, 0
1, 523190, Note_on_c, 0, 60, 0
1, 523190, Note_on_c, 0, 48, 0
1, 523200, Note_on_c, 0, 81, 127
1, 523200, Note_on_c, 0, 77, 127
1, 523200, Note_on_c, 0, 60, 127
1, 523200, Note_on_c, 0, 65, 127
1, 523200, Note_on_c, 0, 69, 127
1, 523200, Note_on_c, 0, 57, 127
1, 523339, Control_c, 0, 64, 0
1, 523430, Note_on_c, 0, 84, 0
1, 523430, Note_on_c, 0, 72, 0
1, 523434, Control_c, 0, 64, 127
1, 523440, Note_on_c, 0, 86, 127
1, 523440, Note_on_c, 0, 74, 127
1, 523550, Note_on_c, 0, 86, 0
1, 523550, Note_on_c, 0, 74, 0
1, 523560, Note_on_c, 0, 84, 127
1, 523560, Note_on_c, 0, 72, 127
1, 523670, Note_on_c, 0, 81, 0
1, 523670, Note_on_c, 0, 77, 0
1, 523670, Note_on_c, 0, 60, 0
1, 523670, Note_on_c, 0, 65, 0
1, 523670, Note_on_c, 0, 69, 0
1, 523670, Note_on_c, 0, 57, 0
1, 523680, Note_on_c, 0, 79, 127
1, 523680, Note_on_c, 0, 76, 127
1, 523680, Note_on_c, 0, 60, 127
1, 523680, Note_on_c, 0, 64, 127
1, 523680, Note_on_c, 0, 67, 127
1, 523680, Note_on_c, 0, 55, 127
1, 523772, Control_c, 0, 64, 0
1, 523835, Control_c, 0, 64, 127
1, 523910, Note_on_c, 0, 84, 0
1, 523910, Note_on_c, 0, 72, 0
1, 523920, Note_on_c, 0, 86, 127
1, 523920, Note_on_c, 0, 74, 127
1, 524030, Note_on_c, 0, 86, 0
1, 524030, Note_on_c, 0, 74, 0
1, 524040, Note_on_c, 0, 88, 127
1, 524040, Note_on_c, 0, 76, 127
1, 524128, Control_c, 0, 64, 0
1, 524150, Note_on_c, 0, 79, 0
1, 524150, Note_on_c, 0, 88, 0
1, 524150, Note_on_c, 0, 76, 0
1, 524150, Note_on_c, 0, 76, 0
1, 524150, Note_on_c, 0, 60, 0
1, 524150, Note_on_c, 0, 64, 0
1, 524150, Note_on_c, 0, 67, 0
1, 524150, Note_on_c, 0, 55, 0
1, 524160, Note_on_c, 0, 81, 127
1, 524160, Note_on_c, 0, 89, 127
1, 524160, Note_on_c, 0, 77, 127
1, 524160, Note_on_c, 0, 60, 127
1, 524160, Note_on_c, 0, 48, 127
1, 524208, Control_c, 0, 64, 127
1, 524390, Note_on_c, 0, 81, 0
1, 524390, Note_on_c, 0, 89, 0
1, 524390, Note_on_c, 0, 77, 0
1, 524390, Note_on_c, 0, 60, 0
1, 524390, Note_on_c, 0, 48, 0
1, 524400, Note_on_c, 0, 72, 127
1, 524400, Note_on_c, 0, 77, 127
1, 524400, Note_on_c, 0, 69, 127
1, 524400, Note_on_c, 0, 62, 127
1, 524400, Note_on_c, 0, 50, 127
1, 524510, Note_on_c, 0, 72, 0
1, 524510, Note_on_c, 0, 77, 0
1, 524510, Note_on_c, 0, 69, 0
1, 524510, Note_on_c, 0, 62, 0
1, 524510, Note_on_c, 0, 50, 0
1, 524520, Note_on_c, 0, 81, 127
1, 524520, Note_on_c, 0, 89, 127
1, 524520, Note_on_c, 0, 77, 127
1, 524520, Note_on_c, 0, 60, 127
1, 524520, Note_on_c, 0, 48, 127
1, 524623, Control_c, 0, 64, 0
1, 524679, Control_c, 0, 64, 127
1, 524870, Note_on_c, 0, 81, 0
1, 524870, Note_on_c, 0, 89, 0
1, 524870, Note_on_c, 0, 77, 0
1, 524870, Note_on_c, 0, 60, 0
1, 524870, Note_on_c, 0, 48, 0
1, 524880, Note_on_c, 0, 77, 127
1, 524880, Note_on_c, 0, 71, 127
1, 524880, Note_on_c, 0, 62, 127
1, 524880, Note_on_c, 0, 50, 127
1, 524990, Note_on_c, 0, 77, 0
1, 524990, Note_on_c, 0, 71, 0
1, 524990, Note_on_c, 0, 62, 0
1, 524990, Note_on_c, 0, 50, 0
1, 525000, Note_on_c, 0, 86, 127
1, 525000, Note_on_c, 0, 89, 127
1, 525000, Note_on_c, 0, 77, 127
1, 525000, Note_on_c, 0, 60, 127
1, 525000, Note_on_c, 0, 48, 127
1, 525110, Note_on_c, 0, 86, 0
1, 525110, Note_on_c, 0, 89, 0
1, 525110, Note_on_c, 0, 77, 0
1, 525110, Note_on_c, 0, 60, 0
1, 525110, Note_on_c, 0, 48, 0
1, 525120, Note_on_c, 0, 84, 127
1, 525120, Note_on_c, 0, 88, 127
1, 525120, Note_on_c, 0, 76, 127
1, 525120, Note_on_c, 0, 64, 127
1, 525120, Note_on_c, 0, 52, 127
1, 525143, Control_c, 0, 64, 0
1, 525196, Control_c, 0, 64, 127
1, 525350, Note_on_c, 0, 84, 0
1, 525350, Note_on_c, 0, 88, 0
1, 525350, Note_on_c, 0, 76, 0
1, 525350, Note_on_c, 0, 64, 0
1, 525350, Note_on_c, 0, 52, 0
1, 525360, Note_on_c, 0, 76, 127
1, 525360, Note_on_c, 0, 72, 127
1, 525360, Note_on_c, 0, 65, 127
1, 525360, Note_on_c, 0, 53, 127
1, 525470, Note_on_c, 0, 76, 0
1, 525470, Note_on_c, 0, 72, 0
1, 525470, Note_on_c, 0, 65, 0
1, 525470, Note_on_c, 0, 53, 0
1, 525480, Note_on_c, 0, 84, 127
1, 525480, Note_on_c, 0, 88, 127
1, 525480, Note_on_c, 0, 76, 127
1, 525480, Note_on_c, 0, 64, 127
1, 525480, Note_on_c, 0, 52, 127
1, 525548, Control_c, 0, 64, 0
1, 525590, Note_on_c, 0, 64, 0
1, 525590, Note_on_c, 0, 52, 0
1, 525600, Note_on_c, 0, 67, 127
1, 525600, Note_on_c, 0, 55, 127
1, 525830, Note_on_c, 0, 84, 0
1, 525830, Note_on_c, 0, 88, 0
1, 525830, Note_on_c, 0, 76, 0
1, 525830, Note_on_c, 0, 67, 0
1, 525830, Note_on_c, 0, 55, 0
1, 525840, Note_on_c, 0, 76, 127
1, 525840, Note_on_c, 0, 72, 127
1, 525840, Note_on_c, 0, 69, 127
1, 525840, Note_on_c, 0, 57, 127
1, 525950, Note_on_c, 0, 76, 0
1, 525950, Note_on_c, 0, 72, 0
1, 525950, Note_on_c, 0, 69, 0
1, 525950, Note_on_c, 0, 57, 0
1, 525960, Note_on_c, 0, 84, 127
1, 525960, Note_on_c, 0, 88, 127
1, 525960, Note_on_c, 0, 76, 127
1, 525960, Note_on_c, 0, 67, 127
1, 525960, Note_on_c, 0, 55, 127
1, 526070, Note_on_c, 0, 84, 0
1, 526070, Note_on_c, 0, 88, 0
1, 526070, Note_on_c, 0, 76, 0
1, 526070, Note_on_c, 0, 67, 0
1, 526070, Note_on_c, 0, 55, 0
1, 526080, Note_on_c, 0, 83, 127
1, 526080, Note_on_c, 0, 86, 127
1, 526080, Note_on_c, 0, 74, 127
1, 526080, Note_on_c, 0, 67, 127
1, 526080, Note_on_c, 0, 55, 127
1, 526310, Note_on_c, 0, 83, 0
1, 526310, Note_on_c, 0, 86, 0
1, 526310, Note_on_c, 0, 74, 0
1, 526310, Note_on_c, 0, 67, 0
1, 526310, Note_on_c, 0, 55, 0
1, 526555, Control_c, 0, 64, 127
1, 526560, Note_on_c, 0, 74, 45
1, 526560, Note_on_c, 0, 70, 45
1, 526560, Note_on_c, 0, 62, 45
1, 526560, Note_on_c, 0, 55, 45
1, 526560, Note_on_c, 0, 43, 45
1, 527030, Note_on_c, 0, 55, 0
1, 527030, Note_on_c, 0, 43, 0
1, 527040, Note_on_c, 0, 58, 45
1, 527040, Note_on_c, 0, 43, 45
1, 527520, Tempo, 500000
1, 527750, Note_on_c, 0, 62, 0
1, 527750, Note_on_c, 0, 70, 0
1, 527750, Note_on_c, 0, 58, 0
1, 527760, Note_on_c, 0, 62, 45
1, 527760, Note_on_c, 0, 58, 45
1, 527990, Note_on_c, 0, 74, 0
1, 527990, Note_on_c, 0, 62, 0
1, 527990, Note_on_c, 0, 43, 0
1, 527990, Note_on_c, 0, 58, 0
1, 528000, Note_on_c, 0, 74, 45
1, 528000, Note_on_c, 0, 62, 45
1, 528000, Note_on_c, 0, 59, 45
1, 528000, Note_on_c, 0, 43, 45
1, 528055, Control_c, 0, 64, 0
1, 528228, Control_c, 0, 64, 127
1, 528230, Note_on_c, 0, 74, 0
1, 528240, Note_on_c, 0, 67, 45
1, 528470, Note_on_c, 0, 67, 0
1, 528470, Note_on_c, 0, 62, 0
1, 528470, Note_on_c, 0, 59, 0
1, 528470, Note_on_c, 0, 43, 0
1, 528480, Note_on_c, 0, 62, 45
1, 528480, Note_on_c, 0, 64, 45
1, 528480, Note_on_c, 0, 55, 45
1, 528480, Note_on_c, 0, 48, 45
1, 528480, Note_on_c, 0, 36, 45
1, 528786, Control_c, 0, 64, 0
1, 528838, Control_c, 0, 64, 127
1, 528950, Note_on_c, 0, 62, 0
1, 528960, Note_on_c, 0, 60, 45
1, 529430, Note_on_c, 0, 60, 0
1, 529430, Note_on_c, 0, 64, 0
1, 529430, Note_on_c, 0, 55, 0
1, 529430, Note_on_c, 0, 48, 0
1, 529430, Note_on_c, 0, 36, 0
1, 529440, Note_on_c, 0, 64, 45
1, 529440, Note_on_c, 0, 55, 45
1, 529440, Note_on_c, 0, 60, 45
1, 529440, Note_on_c, 0, 48, 45
1, 529440, Note_on_c, 0, 36, 45
1, 529551, Control_c, 0, 64, 0
1, 529910, Note_on_c, 0, 55, 0
1, 529910, Note_on_c, 0, 60, 0
1, 529910, Note_on_c, 0, 48, 0
1, 529910, Note_on_c, 0, 36, 0
1, 529920, Note_on_c, 0, 60, 45
1, 529920, Note_on_c, 0, 57, 45
1, 529920, Note_on_c, 0, 45, 45
1, 530390, Note_on_c, 0, 64, 0
1, 530390, Note_on_c, 0, 60, 0
1, 530390, Note_on_c, 0, 57, 0
1, 530390, Note_on_c, 0, 45, 0
1, 530400, Note_on_c, 0, 62, 45
1, 530400, Note_on_c, 0, 66, 45
1, 530400, Note_on_c, 0, 60, 45
1, 530400, Note_on_c, 0, 57, 45
1, 530400, Note_on_c, 0, 45, 45
1, 531110, Note_on_c, 0, 62, 0
1, 531110, Note_on_c, 0, 66, 0
1, 531110, Note_on_c, 0, 60, 0
1, 531110, Note_on_c, 0, 57, 0
1, 531110, Note_on_c, 0, 45, 0
1, 531120, Note_on_c, 0, 62, 45
1, 531120, Note_on_c, 0, 67, 45
1, 531120, Note_on_c, 0, 58, 45
1, 531120, Note_on_c, 0, 55, 45
1, 531120, Note_on_c, 0, 43, 45
1, 531350, Note_on_c, 0, 62, 0
1, 531350, Note_on_c, 0, 67, 0
1, 531350, Note_on_c, 0, 58, 0
1, 531350, Note_on_c, 0, 55, 0
1, 531350, Note_on_c, 0, 43, 0
1, 531360, Note_on_c, 0, 62, 45
1, 531360, Note_on_c, 0, 67, 45
1, 531360, Note_on_c, 0, 58, 45
1, 531360, Note_on_c, 0, 55, 45
1, 531360, Note_on_c, 0, 43, 45
1, 531710, Note_on_c, 0, 62, 0
1, 531710, Note_on_c, 0, 67, 0
1, 531710, Note_on_c, 0, 58, 0
1, 531710, Note_on_c, 0, 55, 0
1, 531710, Note_on_c, 0, 43, 0
1, 531840, Note_on_c, 0, 62, 45
1, 531840, Note_on_c, 0, 66, 45
1, 531840, Note_on_c, 0, 69, 45
1, 531840, Note_on_c, 0, 57, 45
1, 531840, Note_on_c, 0, 50, 45
1, 531840, Note_on_c, 0, 38, 45
1, 531993, Control_c, 0, 64, 127
1, 532190, Note_on_c, 0, 62, 0
1, 532190, Note_on_c, 0, 66, 0
1, 532190, Note_on_c, 0, 69, 0
1, 532190, Note_on_c, 0, 57, 0
1, 532190, Note_on_c, 0, 50, 0
1, 532190, Note_on_c, 0, 38, 0
1, 532320, Note_on_c, 0, 70, 45
1, 532320, Note_on_c, 0, 74, 45
1, 532320, Note_on_c, 0, 62, 45
1, 532320, Note_on_c, 0, 58, 45
1, 532320, Note_on_c, 0, 43, 45
1, 532670, Note_on_c, 0, 62, 0
1, 532790, Note_on_c, 0, 58, 0
1, 532790, Note_on_c, 0, 43, 0
1, 532800, Note_on_c, 0, 58, 45
1, 532800, Note_on_c, 0, 62, 45
1, 532800, Note_on_c, 0, 55, 45
1, 533208, Control_c, 0, 64, 0
1, 533990, Note_on_c, 0, 70, 0
1, 533990, Note_on_c, 0, 74, 0
1, 533990, Note_on_c, 0, 55, 0
1, 533990, Note_on_c, 0, 58, 0
1, 533990, Note_on_c, 0, 62, 0
1, 534000, Note_on_c, 0, 62, 45
1, 534000, Note_on_c, 0, 67, 45
1, 534000, Note_on_c, 0, 59, 45
1, 534000, Note_on_c, 0, 55, 45
1, 534000, Note_on_c, 0, 43, 45
1, 534230, Note_on_c, 0, 62, 0
1, 534230, Note_on_c, 0, 67, 0
1, 534230, Note_on_c, 0, 59, 0
1, 534230, Note_on_c, 0, 55, 0
1, 534230, Note_on_c, 0, 43, 0
1, 534240, Note_on_c, 0, 64, 45
1, 534240, Note_on_c, 0, 55, 45
1, 534240, Note_on_c, 0, 48, 45
1, 534240, Note_on_c, 0, 36, 45
1, 534590, Note_on_c, 0, 64, 0
1, 534590, Note_on_c, 0, 55, 0
1, 534590, Note_on_c, 0, 48, 0
1, 534590, Note_on_c, 0, 36, 0
1, 534720, Note_on_c, 0, 64, 45
1, 534720, Note_on_c, 0, 55, 45
1, 534720, Note_on_c, 0, 48, 45
1, 534720, Note_on_c, 0, 36, 45
1, 535070, Note_on_c, 0, 64, 0
1, 535070, Note_on_c, 0, 55, 0
1, 535070, Note_on_c, 0, 48, 0
1, 535070, Note_on_c, 0, 36, 0
1, 535200, Note_on_c, 0, 64, 45
1, 535200, Note_on_c, 0, 60, 45
1, 535680, Note_on_c, 0, 48, 45
1, 535680, Note_on_c, 0, 52, 45
1, 535680, Note_on_c, 0, 45, 45
1, 536150, Note_on_c, 0, 64, 0
1, 536150, Note_on_c, 0, 60, 0
1, 536150, Note_on_c, 0, 48, 0
1, 536150, Note_on_c, 0, 52, 0
1, 536150, Note_on_c, 0, 45, 0
1, 536160, Note_on_c, 0, 60, 45
1, 536160, Note_on_c, 0, 62, 45
1, 536160, Note_on_c, 0, 66, 45
1, 536160, Note_on_c, 0, 57, 45
1, 536160, Note_on_c, 0, 50, 45
1, 536160, Note_on_c, 0, 54, 45
1, 536160, Note_on_c, 0, 45, 45
1, 536870, Note_on_c, 0, 60, 0
1, 536870, Note_on_c, 0, 62, 0
1, 536870, Note_on_c, 0, 66, 0
1, 536870, Note_on_c, 0, 57, 0
1, 536870, Note_on_c, 0, 50, 0
1, 536870, Note_on_c, 0, 54, 0
1, 536870, Note_on_c, 0, 45, 0
1, 536880, Note_on_c, 0, 62, 45
1, 536880, Note_on_c, 0, 67, 45
1, 536880, Note_on_c, 0, 58, 45
1, 536880, Note_on_c, 0, 50, 45
1, 536880, Note_on_c, 0, 55, 45
1, 536880, Note_on_c, 0, 43, 45
1, 537110, Note_on_c, 0, 62, 0
1, 537110, Note_on_c, 0, 67, 0
1, 537110, Note_on_c, 0, 58, 0
1, 537110, Note_on_c, 0, 50, 0
1, 537110, Note_on_c, 0, 55, 0
1, 537110, Note_on_c, 0, 43, 0
1, 537120, Note_on_c, 0, 62, 45
1, 537120, Note_on_c, 0, 67, 45
1, 537120, Note_on_c, 0, 58, 45
1, 537120, Note_on_c, 0, 50, 45
1, 537120, Note_on_c, 0, 38, 45
1, 537470, Note_on_c, 0, 62, 0
1, 537470, Note_on_c, 0, 67, 0
1, 537470, Note_on_c, 0, 58, 0
1, 537470, Note_on_c, 0, 50, 0
1, 537470, Note_on_c, 0, 38, 0
1, 537600, Note_on_c, 0, 66, 45
1, 537600, Note_on_c, 0, 69, 45
1, 537600, Note_on_c, 0, 62, 45
1, 537600, Note_on_c, 0, 54, 45
1, 537600, Note_on_c, 0, 57, 45
1, 537600, Note_on_c, 0, 50, 45
1, 537950, Note_on_c, 0, 66, 0
1, 537950, Note_on_c, 0, 69, 0
1, 537950, Note_on_c, 0, 62, 0
1, 537950, Note_on_c, 0, 54, 0
1, 537950, Note_on_c, 0, 57, 0
1, 537950, Note_on_c, 0, 50, 0
1, 538080, Note_on_c, 0, 62, 45
1, 538080, Note_on_c, 0, 67, 45
1, 538080, Note_on_c, 0, 70, 45
1, 538080, Note_on_c, 0, 58, 45
1, 538080, Note_on_c, 0, 50, 45
1, 538080, Note_on_c, 0, 55, 45
1, 538080, Note_on_c, 0, 43, 45
1, 538299, Control_c, 0, 64, 127
1, 539030, Note_on_c, 0, 62, 0
1, 539030, Note_on_c, 0, 67, 0
1, 539030, Note_on_c, 0, 70, 0
1, 539030, Note_on_c, 0, 58, 0
1, 539030, Note_on_c, 0, 50, 0
1, 539030, Note_on_c, 0, 55, 0
1, 539030, Note_on_c, 0, 43, 0
1, 539040, Note_on_c, 0, 62, 45
1, 539040, Note_on_c, 0, 67, 45
1, 539040, Note_on_c, 0, 70, 45
1, 539040, Note_on_c, 0, 58, 45
1, 539040, Note_on_c, 0, 50, 45
1, 539040, Note_on_c, 0, 55, 45
1, 539040, Note_on_c, 0, 43, 45
1, 539750, Note_on_c, 0, 62, 0
1, 539750, Note_on_c, 0, 67, 0
1, 539750, Note_on_c, 0, 70, 0
1, 539750, Note_on_c, 0, 58, 0
1, 539750, Note_on_c, 0, 50, 0
1, 539750, Note_on_c, 0, 55, 0
1, 539750, Note_on_c, 0, 43, 0
1, 539760, Note_on_c, 0, 62, 61
1, 539760, Note_on_c, 0, 67, 61
1, 539760, Note_on_c, 0, 70, 61
1, 539760, Note_on_c, 0, 58, 61
1, 539760, Note_on_c, 0, 50, 65
1, 539760, Note_on_c, 0, 55, 65
1, 539760, Note_on_c, 0, 43, 65
1, 539989, Control_c, 0, 64, 0
1, 539990, Note_on_c, 0, 62, 0
1, 539990, Note_on_c, 0, 67, 0
1, 539990, Note_on_c, 0, 70, 0
1, 539990, Note_on_c, 0, 58, 0
1, 539990, Note_on_c, 0, 50, 0
1, 539990, Note_on_c, 0, 55, 0
1, 539990, Note_on_c, 0, 43, 0
1, 540000, Note_on_c, 0, 69, 63
1, 540000, Note_on_c, 0, 72, 63
1, 540000, Note_on_c, 0, 65, 63
1, 540000, Note_on_c, 0, 60, 66
1, 540000, Note_on_c, 0, 57, 72
1, 540000, Note_on_c, 0, 41, 72
1, 540162, Control_c, 0, 64, 127
1, 540470, Note_on_c, 0, 60, 0
1, 540470, Note_on_c, 0, 57, 0
1, 540470, Note_on_c, 0, 41, 0
1, 540480, Note_on_c, 0, 57, 86
1, 540480, Note_on_c, 0, 60, 86
1, 540480, Note_on_c, 0, 53, 86
1, 540950, Note_on_c, 0, 69, 0
1, 540950, Note_on_c, 0, 72, 0
1, 540950, Note_on_c, 0, 65, 0
1, 540950, Note_on_c, 0, 57, 0
1, 540950, Note_on_c, 0, 60, 0
1, 540950, Note_on_c, 0, 53, 0
1, 540960, Note_on_c, 0, 65, 93
1, 540960, Note_on_c, 0, 69, 93
1, 540960, Note_on_c, 0, 72, 93
1, 540960, Note_on_c, 0, 60, 93
1, 540960, Note_on_c, 0, 53, 100
1, 540960, Note_on_c, 0, 41, 100
1, 541407, Control_c, 0, 64, 0
1, 541430, Note_on_c, 0, 65, 0
1, 541430, Note_on_c, 0, 69, 0
1, 541430, Note_on_c, 0, 72, 0
1, 541430, Note_on_c, 0, 60, 0
1, 541430, Note_on_c, 0, 53, 0
1, 541430, Note_on_c, 0, 41, 0
1, 541440, Note_on_c, 0, 65, 98
1, 541440, Note_on_c, 0, 70, 98
1, 541440, Note_on_c, 0, 74, 98
1, 541440, Note_on_c, 0, 62, 98
1, 541440, Note_on_c, 0, 46, 90
1, 541440, Note_on_c, 0, 34, 90
1, 541531, Control_c, 0, 64, 127
1, 541910, Note_on_c, 0, 65, 0
1, 541910, Note_on_c, 0, 70, 0
1, 541910, Note_on_c, 0, 74, 0
1, 541910, Note_on_c, 0, 62, 0
1, 541910, Note_on_c, 0, 46, 0
1, 541910, Note_on_c, 0, 34, 0
1, 541920, Note_on_c, 0, 65, 109
1, 541920, Note_on_c, 0, 70, 109
1, 541920, Note_on_c, 0, 74, 109
1, 541920, Note_on_c, 0, 62, 109
1, 541920, Note_on_c, 0, 58, 105
1, 542272, Control_c, 0, 64, 0
1, 542369, Control_c, 0, 64, 127
1, 542390, Note_on_c, 0, 65, 0
1, 542390, Note_on_c, 0, 70, 0
1, 542390, Note_on_c, 0, 74, 0
1, 542390, Note_on_c, 0, 62, 0
1, 542390, Note_on_c, 0, 58, 0
1, 542400, Note_on_c, 0, 67, 120
1, 542400, Note_on_c, 0, 72, 120
1, 542400, Note_on_c, 0, 76, 120
1, 542400, Note_on_c, 0, 64, 120
1, 542400, Note_on_c, 0, 48, 120
1, 542400, Note_on_c, 0, 36, 120
1, 542591, Control_c, 0, 64, 0
1, 542684, Control_c, 0, 64, 127
1, 542870, Note_on_c, 0, 48, 0
1, 542870, Note_on_c, 0, 36, 0
1, 542880, Note_on_c, 0, 52, 127
1, 542880, Note_on_c, 0, 55, 127
1, 542880, Note_on_c, 0, 60, 127
1, 542880, Note_on_c, 0, 48, 127
1, 542968, Control_c, 0, 64, 0
1, 543227, Control_c, 0, 64, 127
1, 543489, Control_c, 0, 64, 0
1, 543830, Note_on_c, 0, 64, 0
1, 543830, Note_on_c, 0, 67, 0
1, 543830, Note_on_c, 0, 72, 0
1, 543830, Note_on_c, 0, 76, 0
1, 543830, Note_on_c, 0, 52, 0
1, 543830, Note_on_c, 0, 55, 0
1, 543830, Note_on_c, 0, 60, 0
1, 543830, Note_on_c, 0, 48, 0
1, 543840, Note_on_c, 0, 48, 63
1, 543840, Note_on_c, 0, 36, 63
1, 544057, Control_c, 0, 64, 127
1, 544320, Note_on_c, 0, 60, 63
1, 544320, Note_on_c, 0, 64, 63
1, 544320, Note_on_c, 0, 67, 63
1, 544320, Note_on_c, 0, 55, 63
1, 545270, Note_on_c, 0, 36, 0
1, 545270, Note_on_c, 0, 48, 0
1, 545270, Note_on_c, 0, 60, 0
1, 545270, Note_on_c, 0, 64, 0
1, 545270, Note_on_c, 0, 67, 0
1, 545270, Note_on_c, 0, 55, 0
1, 545280, Note_on_c, 0, 60, 72
1, 545280, Note_on_c, 0, 64, 72
1, 545280, Note_on_c, 0, 67, 72
1, 545280, Note_on_c, 0, 55, 72
1, 545280, Note_on_c, 0, 48, 63
1, 545280, Note_on_c, 0, 36, 63
1, 545750, Note_on_c, 0, 60, 0
1, 545750, Note_on_c, 0, 64, 0
1, 545750, Note_on_c, 0, 67, 0
1, 545750, Note_on_c, 0, 55, 0
1, 545750, Note_on_c, 0, 48, 0
1, 545750, Note_on_c, 0, 36, 0
1, 545760, Note_on_c, 0, 67, 77
1, 545760, Note_on_c, 0, 72, 77
1, 545760, Note_on_c, 0, 76, 77
1, 545760, Note_on_c, 0, 64, 77
1, 545760, Note_on_c, 0, 52, 68
1, 545760, Note_on_c, 0, 55, 68
1, 545760, Note_on_c, 0, 60, 68
1, 545760, Note_on_c, 0, 48, 68
1, 546710, Note_on_c, 0, 67, 0
1, 546710, Note_on_c, 0, 72, 0
1, 546710, Note_on_c, 0, 76, 0
1, 546710, Note_on_c, 0, 64, 0
1, 546710, Note_on_c, 0, 52, 0
1, 546710, Note_on_c, 0, 55, 0
1, 546710, Note_on_c, 0, 60, 0
1, 546710, Note_on_c, 0, 48, 0
1, 546720, Note_on_c, 0, 67, 86
1, 546720, Note_on_c, 0, 72, 86
1, 546720, Note_on_c, 0, 76, 86
1, 546720, Note_on_c, 0, 64, 86
1, 546720, Note_on_c, 0, 52, 80
1, 546720, Note_on_c, 0, 55, 80
1, 546720, Note_on_c, 0, 60, 80
1, 546720, Note_on_c, 0, 48, 80
1, 547001, Control_c, 0, 64, 0
1, 547190, Note_on_c, 0, 67, 0
1, 547190, Note_on_c, 0, 72, 0
1, 547190, Note_on_c, 0, 76, 0
1, 547190, Note_on_c, 0, 64, 0
1, 547190, Note_on_c, 0, 52, 0
1, 547190, Note_on_c, 0, 55, 0
1, 547190, Note_on_c, 0, 60, 0
1, 547190, Note_on_c, 0, 48, 0
1, 547200, Note_on_c, 0, 69, 91
1, 547200, Note_on_c, 0, 77, 91
1, 547200, Note_on_c, 0, 65, 91
1, 547200, Note_on_c, 0, 53, 85
1, 547200, Note_on_c, 0, 57, 85
1, 547200, Note_on_c, 0, 60, 85
1, 547200, Note_on_c, 0, 48, 85
1, 547310, Control_c, 0, 64, 127
1, 547670, Note_on_c, 0, 53, 0
1, 547670, Note_on_c, 0, 57, 0
1, 547670, Note_on_c, 0, 60, 0
1, 547670, Note_on_c, 0, 48, 0
1, 547680, Note_on_c, 0, 53, 91
1, 547680, Note_on_c, 0, 41, 91
1, 548150, Note_on_c, 0, 69, 0
1, 548150, Note_on_c, 0, 77, 0
1, 548150, Note_on_c, 0, 65, 0
1, 548150, Note_on_c, 0, 53, 0
1, 548150, Note_on_c, 0, 41, 0
1, 548160, Note_on_c, 0, 77, 101
1, 548160, Note_on_c, 0, 69, 101
1, 548160, Note_on_c, 0, 65, 97
1, 548160, Note_on_c, 0, 53, 97
1, 548493, Control_c, 0, 64, 0
1, 548630, Note_on_c, 0, 77, 0
1, 548630, Note_on_c, 0, 69, 0
1, 548630, Note_on_c, 0, 65, 0
1, 548630, Note_on_c, 0, 53, 0
1, 548640, Note_on_c, 0, 69, 105
1, 548640, Note_on_c, 0, 74, 105
1, 548640, Note_on_c, 0, 78, 105
1, 548640, Note_on_c, 0, 66, 105
1, 548640, Note_on_c, 0, 54, 103
1, 548640, Note_on_c, 0, 57, 103
1, 548640, Note_on_c, 0, 62, 103
1, 548640, Note_on_c, 0, 50, 103
1, 548758, Control_c, 0, 64, 127
1, 549994, Control_c, 0, 64, 0
1, 550070, Note_on_c, 0, 66, 0
1, 550070, Note_on_c, 0, 69, 0
1, 550070, Note_on_c, 0, 74, 0
1, 550070, Note_on_c, 0, 78, 0
1, 550070, Note_on_c, 0, 50, 0
1, 550070, Note_on_c, 0, 54, 0
1, 550070, Note_on_c, 0, 57, 0
1, 550070, Note_on_c, 0, 62, 0
1, 550560, Note_on_c, 0, 87, 127
1, 550560, Note_on_c, 0, 91, 127
1, 550560, Note_on_c, 0, 79, 127
1, 550560, Note_on_c, 0, 67, 127
1, 550560, Note_on_c, 0, 75, 127
1, 550560, Note_on_c, 0, 63, 127
1, 551270, Note_on_c, 0, 87, 0
1, 551270, Note_on_c, 0, 91, 0
1, 551270, Note_on_c, 0, 79, 0
1, 551270, Note_on_c, 0, 67, 0
1, 551270, Note_on_c, 0, 75, 0
1, 551270, Note_on_c, 0, 63, 0
1, 551280, Note_on_c, 0, 82, 127
1, 551280, Note_on_c, 0, 87, 127
1, 551280, Note_on_c, 0, 91, 127
1, 551280, Note_on_c, 0, 79, 127
1, 551280, Note_on_c, 0, 67, 127
1, 551280, Note_on_c, 0, 70, 127
1, 551280, Note_on_c, 0, 75, 127
1, 551280, Note_on_c, 0, 63, 127
1, 551510, Note_on_c, 0, 82, 0
1, 551510, Note_on_c, 0, 87, 0
1, 551510, Note_on_c, 0, 91, 0
1, 551510, Note_on_c, 0, 79, 0
1, 551510, Note_on_c, 0, 67, 0
1, 551510, Note_on_c, 0, 70, 0
1, 551510, Note_on_c, 0, 75, 0
1, 551510, Note_on_c, 0, 63, 0
1, 551520, Note_on_c, 0, 82, 127
1, 551520, Note_on_c, 0, 87, 127
1, 551520, Note_on_c, 0, 91, 127
1, 551520, Note_on_c, 0, 79, 127
1, 551520, Note_on_c, 0, 67, 127
1, 551520, Note_on_c, 0, 70, 127
1, 551520, Note_on_c, 0, 75, 127
1, 551520, Note_on_c, 0, 63, 127
1, 551562, Control_c, 0, 64, 127
1, 552470, Note_on_c, 0, 82, 0
1, 552470, Note_on_c, 0, 87, 0
1, 552470, Note_on_c, 0, 91, 0
1, 552470, Note_on_c, 0, 79, 0
1, 552470, Note_on_c, 0, 67, 0
1, 552470, Note_on_c, 0, 70, 0
1, 552470, Note_on_c, 0, 75, 0
1, 552470, Note_on_c, 0, 63, 0
1, 552480, Note_on_c, 0, 82, 127
1, 552480, Note_on_c, 0, 87, 127
1, 552480, Note_on_c, 0, 91, 127
1, 552480, Note_on_c, 0, 79, 127
1, 552480, Note_on_c, 0, 67, 127
1, 552480, Note_on_c, 0, 70, 127
1, 552480, Note_on_c, 0, 75, 127
1, 552480, Note_on_c, 0, 63, 127
1, 552950, Note_on_c, 0, 82, 0
1, 552950, Note_on_c, 0, 87, 0
1, 552950, Note_on_c, 0, 91, 0
1, 552950, Note_on_c, 0, 79, 0
1, 552950, Note_on_c, 0, 67, 0
1, 552950, Note_on_c, 0, 70, 0
1, 552950, Note_on_c, 0, 75, 0
1, 552950, Note_on_c, 0, 63, 0
1, 552960, Note_on_c, 0, 82, 127
1, 552960, Note_on_c, 0, 87, 127
1, 552960, Note_on_c, 0, 91, 127
1, 552960, Note_on_c, 0, 79, 127
1, 552960, Note_on_c, 0, 67, 127
1, 552960, Note_on_c, 0, 70, 127
1, 552960, Note_on_c, 0, 75, 127
1, 552960, Note_on_c, 0, 63, 127
1, 553430, Note_on_c, 0, 82, 0
1, 553430, Note_on_c, 0, 87, 0
1, 553430, Note_on_c, 0, 91, 0
1, 553430, Note_on_c, 0, 79, 0
1, 553430, Note_on_c, 0, 67, 0
1, 553430, Note_on_c, 0, 70, 0
1, 553430, Note_on_c, 0, 75, 0
1, 553430, Note_on_c, 0, 63, 0
1, 553440, Note_on_c, 0, 82, 127
1, 553440, Note_on_c, 0, 87, 127
1, 553440, Note_on_c, 0, 91, 127
1, 553440, Note_on_c, 0, 79, 127
1, 553440, Note_on_c, 0, 67, 127
1, 553440, Note_on_c, 0, 70, 127
1, 553440, Note_on_c, 0, 75, 127
1, 553440, Note_on_c, 0, 63, 127
1, 554390, Note_on_c, 0, 82, 0
1, 554390, Note_on_c, 0, 87, 0
1, 554390, Note_on_c, 0, 91, 0
1, 554390, Note_on_c, 0, 79, 0
1, 554390, Note_on_c, 0, 67, 0
1, 554390, Note_on_c, 0, 70, 0
1, 554390, Note_on_c, 0, 75, 0
1, 554390, Note_on_c, 0, 63, 0
1, 554400, Note_on_c, 0, 82, 127
1, 554400, Note_on_c, 0, 87, 127
1, 554400, Note_on_c, 0, 91, 127
1, 554400, Note_on_c, 0, 79, 127
1, 554400, Note_on_c, 0, 67, 127
1, 554400, Note_on_c, 0, 70, 127
1, 554400, Note_on_c, 0, 75, 127
1, 554400, Note_on_c, 0, 63, 127
1, 555350, Note_on_c, 0, 82, 0
1, 555350, Note_on_c, 0, 87, 0
1, 555350, Note_on_c, 0, 91, 0
1, 555350, Note_on_c, 0, 79, 0
1, 555350, Note_on_c, 0, 67, 0
1, 555350, Note_on_c, 0, 70, 0
1, 555350, Note_on_c, 0, 75, 0
1, 555350, Note_on_c, 0, 63, 0
1, 555360, Note_on_c, 0, 82, 127
1, 555360, Note_on_c, 0, 87, 127
1, 555360, Note_on_c, 0, 91, 127
1, 555360, Note_on_c, 0, 79, 127
1, 555360, Note_on_c, 0, 67, 127
1, 555360, Note_on_c, 0, 70, 127
1, 555360, Note_on_c, 0, 75, 127
1, 555360, Note_on_c, 0, 63, 127
1, 555830, Note_on_c, 0, 82, 0
1, 555830, Note_on_c, 0, 87, 0
1, 555830, Note_on_c, 0, 91, 0
1, 555830, Note_on_c, 0, 79, 0
1, 555830, Note_on_c, 0, 67, 0
1, 555830, Note_on_c, 0, 70, 0
1, 555830, Note_on_c, 0, 75, 0
1, 555830, Note_on_c, 0, 63, 0
1, 555854, Control_c, 0, 64, 0
1, 556320, Note_on_c, 0, 79, 45
1, 556320, Note_on_c, 0, 67, 45
1, 556320, Note_on_c, 0, 70, 45
1, 556320, Note_on_c, 0, 73, 45
1, 556320, Note_on_c, 0, 64, 45
1, 556576, Control_c, 0, 64, 127
1, 557760, Note_on_c, 0, 82, 45
1, 558230, Note_on_c, 0, 64, 0
1, 558230, Note_on_c, 0, 67, 0
1, 558230, Note_on_c, 0, 70, 0
1, 558230, Note_on_c, 0, 73, 0
1, 558240, Note_on_c, 0, 85, 45
1, 558240, Note_on_c, 0, 67, 45
1, 558240, Note_on_c, 0, 70, 45
1, 558240, Note_on_c, 0, 73, 45
1, 558240, Note_on_c, 0, 64, 45
1, 558710, Note_on_c, 0, 79, 0
1, 558710, Note_on_c, 0, 82, 0
1, 558710, Note_on_c, 0, 85, 0
1, 558720, Note_on_c, 0, 82, 45
1, 558720, Note_on_c, 0, 85, 45
1, 558720, Note_on_c, 0, 88, 45
1, 558720, Note_on_c, 0, 79, 45
1, 559190, Note_on_c, 0, 85, 0
1, 559190, Note_on_c, 0, 67, 0
1, 559190, Note_on_c, 0, 70, 0
1, 559190, Note_on_c, 0, 73, 0
1, 559190, Note_on_c, 0, 64, 0
1, 559190, Note_on_c, 0, 88, 0
1, 559200, Note_on_c, 0, 91, 45
1, 559200, Note_on_c, 0, 67, 45
1, 559200, Note_on_c, 0, 70, 45
1, 559200, Note_on_c, 0, 73, 45
1, 559200, Note_on_c, 0, 64, 45
1, 559670, Note_on_c, 0, 82, 0
1, 559670, Note_on_c, 0, 91, 0
1, 559670, Note_on_c, 0, 79, 0
1, 559680, Note_on_c, 0, 82, 45
1, 559680, Note_on_c, 0, 85, 45
1, 559680, Note_on_c, 0, 91, 45
1, 559680, Note_on_c, 0, 79, 45
1, 560630, Note_on_c, 0, 64, 0
1, 560630, Note_on_c, 0, 67, 0
1, 560630, Note_on_c, 0, 70, 0
1, 560630, Note_on_c, 0, 73, 0
1, 560630, Note_on_c, 0, 82, 0
1, 560630, Note_on_c, 0, 85, 0
1, 560630, Note_on_c, 0, 91, 0
1, 560630, Note_on_c, 0, 79, 0
1, 560640, Note_on_c, 0, 82, 45
1, 560640, Note_on_c, 0, 85, 45
1, 560640, Note_on_c, 0, 88, 45
1, 560640, Note_on_c, 0, 91, 45
1, 560640, Note_on_c, 0, 79, 45
1, 560640, Note_on_c, 0, 45, 45
1, 560690, Note_on_c, 0, 45, 0
1, 560700, Note_on_c, 0, 57, 45
1, 560750, Note_on_c, 0, 57, 0
1, 560760, Note_on_c, 0, 45, 45
1, 560790, Note_on_c, 0, 82, 0
1, 560790, Note_on_c, 0, 85, 0
1, 560790, Note_on_c, 0, 88, 0
1, 560790, Note_on_c, 0, 91, 0
1, 560790, Note_on_c, 0, 79, 0
1, 560800, Note_on_c, 0, 82, 45
1, 560800, Note_on_c, 0, 85, 45
1, 560800, Note_on_c, 0, 88, 45
1, 560800, Note_on_c, 0, 91, 45
1, 560800, Note_on_c, 0, 79, 45
1, 560810, Note_on_c, 0, 45, 0
1, 560820, Note_on_c, 0, 57, 45
1, 560870, Note_on_c, 0, 57, 0
1, 560880, Note_on_c, 0, 45, 45
1, 560930, Note_on_c, 0, 45, 0
1, 560940, Note_on_c, 0, 57, 45
1, 560950, Note_on_c, 0, 82, 0
1, 560950, Note_on_c, 0, 85, 0
1, 560950, Note_on_c, 0, 88, 0
1, 560950, Note_on_c, 0, 91, 0
1, 560950, Note_on_c, 0, 79, 0
1, 560960, Note_on_c, 0, 82, 45
1, 560960, Note_on_c, 0, 85, 45
1, 560960, Note_on_c, 0, 88, 45
1, 560960, Note_on_c, 0, 91, 45
1, 560960, Note_on_c, 0, 79, 45
1, 560990, Note_on_c, 0, 57, 0
1, 561000, Note_on_c, 0, 45, 45
1, 561050, Note_on_c, 0, 45, 0
1, 561060, Note_on_c, 0, 57, 45
1, 561110, Note_on_c, 0, 82, 0
1, 561110, Note_on_c, 0, 85, 0
1, 561110, Note_on_c, 0, 88, 0
1, 561110, Note_on_c, 0, 91, 0
1, 561110, Note_on_c, 0, 79, 0
1, 561110, Note_on_c, 0, 57, 0
1, 561120, Note_on_c, 0, 82, 45
1, 561120, Note_on_c, 0, 85, 45
1, 561120, Note_on_c, 0, 88, 45
1, 561120, Note_on_c, 0, 91, 45
1, 561120, Note_on_c, 0, 79, 45
1, 561120, Note_on_c, 0, 45, 45
1, 561170, Note_on_c, 0, 45, 0
1, 561180, Note_on_c, 0, 57, 45
1, 561230, Note_on_c, 0, 57, 0
1, 561240, Note_on_c, 0, 45, 45
1, 561270, Note_on_c, 0, 82, 0
1, 561270, Note_on_c, 0, 85, 0
1, 561270, Note_on_c, 0, 88, 0
1, 561270, Note_on_c, 0, 91, 0
1, 561270, Note_on_c, 0, 79, 0
1, 561280, Note_on_c, 0, 82, 45
1, 561280, Note_on_c, 0, 85, 45
1, 561280, Note_on_c, 0, 88, 45
1, 561280, Note_on_c, 0, 91, 45
1, 561280, Note_on_c, 0, 79, 45
1, 561290, Note_on_c, 0, 45, 0
1, 561300, Note_on_c, 0, 57, 45
1, 561350, Note_on_c, 0, 57, 0
1, 561360, Note_on_c, 0, 45, 45
1, 561410, Note_on_c, 0, 45, 0
1, 561420, Note_on_c, 0, 57, 45
1, 561430, Note_on_c, 0, 82, 0
1, 561430, Note_on_c, 0, 85, 0
1, 561430, Note_on_c, 0, 88, 0
1, 561430, Note_on_c, 0, 91, 0
1, 561430, Note_on_c, 0, 79, 0
1, 561440, Note_on_c, 0, 82, 45
1, 561440, Note_on_c, 0, 85, 45
1, 561440, Note_on_c, 0, 88, 45
1, 561440, Note_on_c, 0, 91, 45
1, 561440, Note_on_c, 0, 79, 45
1, 561470, Note_on_c, 0, 57, 0
1, 561480, Note_on_c, 0, 45, 45
1, 561530, Note_on_c, 0, 45, 0
1, 561540, Note_on_c, 0, 57, 45
1, 561590, Note_on_c, 0, 82, 0
1, 561590, Note_on_c, 0, 85, 0
1, 561590, Note_on_c, 0, 88, 0
1, 561590, Note_on_c, 0, 91, 0
1, 561590, Note_on_c, 0, 79, 0
1, 561590, Note_on_c, 0, 57, 0
1, 561600, Note_on_c, 0, 82, 45
1, 561600, Note_on_c, 0, 85, 45
1, 561600, Note_on_c, 0, 88, 45
1, 561600, Note_on_c, 0, 91, 45
1, 561600, Note_on_c, 0, 79, 45
1, 561600, Note_on_c, 0, 45, 45
1, 561650, Note_on_c, 0, 45, 0
1, 561660, Note_on_c, 0, 57, 45
1, 561710, Note_on_c, 0, 57, 0
1, 561720, Note_on_c, 0, 45, 45
1, 561750, Note_on_c, 0, 82, 0
1, 561750, Note_on_c, 0, 85, 0
1, 561750, Note_on_c, 0, 88, 0
1, 561750, Note_on_c, 0, 91, 0
1, 561750, Note_on_c, 0, 79, 0
1, 561760, Note_on_c, 0, 82, 45
1, 561760, Note_on_c, 0, 85, 45
1, 561760, Note_on_c, 0, 88, 45
1, 561760, Note_on_c, 0, 91, 45
1, 561760, Note_on_c, 0, 79, 45
1, 561770, Note_on_c, 0, 45, 0
1, 561780, Note_on_c, 0, 57, 45
1, 561830, Note_on_c, 0, 57, 0
1, 561840, Note_on_c, 0, 45, 45
1, 561890, Note_on_c, 0, 45, 0
1, 561900, Note_on_c, 0, 57, 45
1, 561910, Note_on_c, 0, 82, 0
1, 561910, Note_on_c, 0, 85, 0
1, 561910, Note_on_c, 0, 88, 0
1, 561910, Note_on_c, 0, 91, 0
1, 561910, Note_on_c, 0, 79, 0
1, 561920, Note_on_c, 0, 82, 45
1, 561920, Note_on_c, 0, 85, 45
1, 561920, Note_on_c, 0, 88, 45
1, 561920, Note_on_c, 0, 91, 45
1, 561920, Note_on_c, 0, 79, 45
1, 561950, Note_on_c, 0, 57, 0
1, 561960, Note_on_c, 0, 45, 45
1, 562010, Note_on_c, 0, 45, 0
1, 562020, Note_on_c, 0, 57, 45
1, 562070, Note_on_c, 0, 82, 0
1, 562070, Note_on_c, 0, 85, 0
1, 562070, Note_on_c, 0, 88, 0
1, 562070, Note_on_c, 0, 91, 0
1, 562070, Note_on_c, 0, 79, 0
1, 562070, Note_on_c, 0, 57, 0
1, 562080, Note_on_c, 0, 82, 45
1, 562080, Note_on_c, 0, 85, 45
1, 562080, Note_on_c, 0, 88, 45
1, 562080, Note_on_c, 0, 91, 45
1, 562080, Note_on_c, 0, 79, 45
1, 562080, Note_on_c, 0, 45, 45
1, 562080, Note_on_c, 0, 57, 45
1, 562080, Note_on_c, 0, 61, 45
1, 562130, Note_on_c, 0, 45, 0
1, 562140, Note_on_c, 0, 57, 45
1, 562190, Note_on_c, 0, 57, 0
1, 562200, Note_on_c, 0, 45, 45
1, 562230, Note_on_c, 0, 82, 0
1, 562230, Note_on_c, 0, 85, 0
1, 562230, Note_on_c, 0, 88, 0
1, 562230, Note_on_c, 0, 91, 0
1, 562230, Note_on_c, 0, 79, 0
1, 562240, Note_on_c, 0, 82, 45
1, 562240, Note_on_c, 0, 85, 45
1, 562240, Note_on_c, 0, 88, 45
1, 562240, Note_on_c, 0, 91, 45
1, 562240, Note_on_c, 0, 79, 45
1, 562250, Note_on_c, 0, 45, 0
1, 562260, Note_on_c, 0, 57, 45
1, 562310, Note_on_c, 0, 57, 0
1, 562320, Note_on_c, 0, 45, 45
1, 562370, Note_on_c, 0, 45, 0
1, 562380, Note_on_c, 0, 57, 45
1, 562390, Note_on_c, 0, 82, 0
1, 562390, Note_on_c, 0, 85, 0
1, 562390, Note_on_c, 0, 88, 0
1, 562390, Note_on_c, 0, 91, 0
1, 562390, Note_on_c, 0, 79, 0
1, 562400, Note_on_c, 0, 82, 45
1, 562400, Note_on_c, 0, 85, 45
1, 562400, Note_on_c, 0, 88, 45
1, 562400, Note_on_c, 0, 91, 45
1, 562400, Note_on_c, 0, 79, 45
1, 562430, Note_on_c, 0, 57, 0
1, 562440, Note_on_c, 0, 45, 45
1, 562490, Note_on_c, 0, 45, 0
1, 562500, Note_on_c, 0, 57, 45
1, 562550, Note_on_c, 0, 82, 0
1, 562550, Note_on_c, 0, 85, 0
1, 562550, Note_on_c, 0, 88, 0
1, 562550, Note_on_c, 0, 91, 0
1, 562550, Note_on_c, 0, 79, 0
1, 562550, Note_on_c, 0, 57, 0
1, 562560, Note_on_c, 0, 82, 45
1, 562560, Note_on_c, 0, 85, 45
1, 562560, Note_on_c, 0, 88, 45
1, 562560, Note_on_c, 0, 91, 45
1, 562560, Note_on_c, 0, 79, 45
1, 562560, Note_on_c, 0, 45, 45
1, 562610, Note_on_c, 0, 45, 0
1, 562620, Note_on_c, 0, 57, 45
1, 562670, Note_on_c, 0, 57, 0
1, 562680, Note_on_c, 0, 45, 45
1, 562710, Note_on_c, 0, 82, 0
1, 562710, Note_on_c, 0, 85, 0
1, 562710, Note_on_c, 0, 88, 0
1, 562710, Note_on_c, 0, 91, 0
1, 562710, Note_on_c, 0, 79, 0
1, 562720, Note_on_c, 0, 82, 45
1, 562720, Note_on_c, 0, 85, 45
1, 562720, Note_on_c, 0, 88, 45
1, 562720, Note_on_c, 0, 91, 45
1, 562720, Note_on_c, 0, 79, 45
1, 562730, Note_on_c, 0, 45, 0
1, 562740, Note_on_c, 0, 57, 45
1, 562780, Note_on_c, 0, 57, 0
1, 562780, Note_on_c, 0, 61, 0
1, 562790, Note_on_c, 0, 57, 0
1, 562800, Note_on_c, 0, 45, 45
1, 562800, Note_on_c, 0, 61, 45
1, 562800, Note_on_c, 0, 57, 45
1, 562850, Note_on_c, 0, 45, 0
1, 562860, Note_on_c, 0, 57, 45
1, 562870, Note_on_c, 0, 82, 0
1, 562870, Note_on_c, 0, 85, 0
1, 562870, Note_on_c, 0, 88, 0
1, 562870, Note_on_c, 0, 91, 0
1, 562870, Note_on_c, 0, 79, 0
1, 562880, Note_on_c, 0, 82, 45
1, 562880, Note_on_c, 0, 85, 45
1, 562880, Note_on_c, 0, 88, 45
1, 562880, Note_on_c, 0, 91, 45
1, 562880, Note_on_c, 0, 79, 45
1, 562910, Note_on_c, 0, 57, 0
1, 562920, Note_on_c, 0, 45, 45
1, 562970, Note_on_c, 0, 45, 0
1, 562980, Note_on_c, 0, 57, 45
1, 563030, Note_on_c, 0, 82, 0
1, 563030, Note_on_c, 0, 85, 0
1, 563030, Note_on_c, 0, 88, 0
1, 563030, Note_on_c, 0, 91, 0
1, 563030, Note_on_c, 0, 79, 0
1, 563030, Note_on_c, 0, 57, 0
1, 563030, Note_on_c, 0, 61, 0
1, 563030, Note_on_c, 0, 57, 0
1, 563040, Note_on_c, 0, 82, 45
1, 563040, Note_on_c, 0, 85, 45
1, 563040, Note_on_c, 0, 88, 45
1, 563040, Note_on_c, 0, 91, 45
1, 563040, Note_on_c, 0, 79, 45
1, 563040, Note_on_c, 0, 45, 45
1, 563040, Note_on_c, 0, 57, 45
1, 563040, Note_on_c, 0, 61, 45
1, 563090, Note_on_c, 0, 45, 0
1, 563100, Note_on_c, 0, 57, 45
1, 563150, Note_on_c, 0, 57, 0
1, 563160, Note_on_c, 0, 45, 45
1, 563190, Note_on_c, 0, 82, 0
1, 563190, Note_on_c, 0, 85, 0
1, 563190, Note_on_c, 0, 88, 0
1, 563190, Note_on_c, 0, 91, 0
1, 563190, Note_on_c, 0, 79, 0
1, 563200, Note_on_c, 0, 82, 45
1, 563200, Note_on_c, 0, 85, 45
1, 563200, Note_on_c, 0, 88, 45
1, 563200, Note_on_c, 0, 91, 45
1, 563200, Note_on_c, 0, 79, 45
1, 563210, Note_on_c, 0, 45, 0
1, 563220, Note_on_c, 0, 57, 45
1, 563270, Note_on_c, 0, 57, 0
1, 563280, Note_on_c, 0, 45, 45
1, 563330, Note_on_c, 0, 45, 0
1, 563340, Note_on_c, 0, 57, 45
1, 563350, Note_on_c, 0, 82, 0
1, 563350, Note_on_c, 0, 85, 0
1, 563350, Note_on_c, 0, 88, 0
1, 563350, Note_on_c, 0, 91, 0
1, 563350, Note_on_c, 0, 79, 0
1, 563360, Note_on_c, 0, 82, 45
1, 563360, Note_on_c, 0, 85, 45
1, 563360, Note_on_c, 0, 88, 45
1, 563360, Note_on_c, 0, 91, 45
1, 563360, Note_on_c, 0, 79, 45
1, 563390, Note_on_c, 0, 57, 0
1, 563400, Note_on_c, 0, 45, 45
1, 563450, Note_on_c, 0, 45, 0
1, 563460, Note_on_c, 0, 57, 45
1, 563510, Note_on_c, 0, 82, 0
1, 563510, Note_on_c, 0, 85, 0
1, 563510, Note_on_c, 0, 88, 0
1, 563510, Note_on_c, 0, 91, 0
1, 563510, Note_on_c, 0, 79, 0
1, 563510, Note_on_c, 0, 57, 0
1, 563520, Note_on_c, 0, 82, 45
1, 563520, Note_on_c, 0, 85, 45
1, 563520, Note_on_c, 0, 88, 45
1, 563520, Note_on_c, 0, 91, 45
1, 563520, Note_on_c, 0, 79, 45
1, 563520, Note_on_c, 0, 45, 45
1, 563570, Note_on_c, 0, 45, 0
1, 563580, Note_on_c, 0, 57, 45
1, 563630, Note_on_c, 0, 57, 0
1, 563640, Note_on_c, 0, 45, 45
1, 563670, Note_on_c, 0, 82, 0
1, 563670, Note_on_c, 0, 85, 0
1, 563670, Note_on_c, 0, 88, 0
1, 563670, Note_on_c, 0, 91, 0
1, 563670, Note_on_c, 0, 79, 0
1, 563680, Note_on_c, 0, 82, 45
1, 563680, Note_on_c, 0, 85, 45
1, 563680, Note_on_c, 0, 88, 45
1, 563680, Note_on_c, 0, 91, 45
1, 563680, Note_on_c, 0, 79, 45
1, 563690, Note_on_c, 0, 45, 0
1, 563700, Note_on_c, 0, 57, 45
1, 563750, Note_on_c, 0, 57, 0
1, 563760, Note_on_c, 0, 45, 45
1, 563810, Note_on_c, 0, 45, 0
1, 563820, Note_on_c, 0, 57, 45
1, 563830, Note_on_c, 0, 82, 0
1, 563830, Note_on_c, 0, 85, 0
1, 563830, Note_on_c, 0, 88, 0
1, 563830, Note_on_c, 0, 91, 0
1, 563830, Note_on_c, 0, 79, 0
1, 563840, Note_on_c, 0, 82, 45
1, 563840, Note_on_c, 0, 85, 45
1, 563840, Note_on_c, 0, 88, 45
1, 563840, Note_on_c, 0, 91, 45
1, 563840, Note_on_c, 0, 79, 45
1, 563870, Note_on_c, 0, 57, 0
1, 563880, Note_on_c, 0, 45, 45
1, 563930, Note_on_c, 0, 45, 0
1, 563940, Note_on_c, 0, 57, 45
1, 563990, Note_on_c, 0, 82, 0
1, 563990, Note_on_c, 0, 85, 0
1, 563990, Note_on_c, 0, 88, 0
1, 563990, Note_on_c, 0, 91, 0
1, 563990, Note_on_c, 0, 79, 0
1, 563990, Note_on_c, 0, 57, 0
1, 563990, Note_on_c, 0, 57, 0
1, 563990, Note_on_c, 0, 61, 0
1, 564000, Note_on_c, 0, 82, 45
1, 564000, Note_on_c, 0, 85, 45
1, 564000, Note_on_c, 0, 88, 45
1, 564000, Note_on_c, 0, 91, 45
1, 564000, Note_on_c, 0, 79, 45
1, 564000, Note_on_c, 0, 45, 45
1, 564000, Note_on_c, 0, 61, 45
1, 564000, Note_on_c, 0, 57, 45
1, 564050, Note_on_c, 0, 45, 0
1, 564060, Note_on_c, 0, 57, 45
1, 564110, Note_on_c, 0, 57, 0
1, 564120, Note_on_c, 0, 45, 45
1, 564150, Note_on_c, 0, 82, 0
1, 564150, Note_on_c, 0, 85, 0
1, 564150, Note_on_c, 0, 88, 0
1, 564150, Note_on_c, 0, 91, 0
1, 564150, Note_on_c, 0, 79, 0
1, 564160, Note_on_c, 0, 82, 45
1, 564160, Note_on_c, 0, 85, 45
1, 564160, Note_on_c, 0, 88, 45
1, 564160, Note_on_c, 0, 91, 45
1, 564160, Note_on_c, 0, 79, 45
1, 564170, Note_on_c, 0, 45, 0
1, 564180, Note_on_c, 0, 57, 45
1, 564230, Note_on_c, 0, 57, 0
1, 564240, Note_on_c, 0, 45, 45
1, 564290, Note_on_c, 0, 45, 0
1, 564300, Note_on_c, 0, 57, 45
1, 564310, Note_on_c, 0, 82, 0
1, 564310, Note_on_c, 0, 85, 0
1, 564310, Note_on_c, 0, 88, 0
1, 564310, Note_on_c, 0, 91, 0
1, 564310, Note_on_c, 0, 79, 0
1, 564320, Note_on_c, 0, 82, 45
1, 564320, Note_on_c, 0, 85, 45
1, 564320, Note_on_c, 0, 88, 45
1, 564320, Note_on_c, 0, 91, 45
1, 564320, Note_on_c, 0, 79, 45
1, 564350, Note_on_c, 0, 57, 0
1, 564360, Note_on_c, 0, 45, 45
1, 564410, Note_on_c, 0, 45, 0
1, 564420, Note_on_c, 0, 57, 45
1, 564470, Note_on_c, 0, 82, 0
1, 564470, Note_on_c, 0, 85, 0
1, 564470, Note_on_c, 0, 88, 0
1, 564470, Note_on_c, 0, 91, 0
1, 564470, Note_on_c, 0, 79, 0
1, 564470, Note_on_c, 0, 57, 0
1, 564470, Note_on_c, 0, 61, 0
1, 564470, Note_on_c, 0, 57, 0
1, 564480, Note_on_c, 0, 82, 45
1, 564480, Note_on_c, 0, 85, 45
1, 564480, Note_on_c, 0, 88, 45
1, 564480, Note_on_c, 0, 91, 45
1, 564480, Note_on_c, 0, 79, 45
1, 564480, Note_on_c, 0, 45, 45
1, 564480, Note_on_c, 0, 57, 45
1, 564480, Note_on_c, 0, 61, 45
1, 564530, Note_on_c, 0, 45, 0
1, 564540, Note_on_c, 0, 57, 45
1, 564590, Note_on_c, 0, 57, 0
1, 564600, Note_on_c, 0, 45, 45
1, 564630, Note_on_c, 0, 82, 0
1, 564630, Note_on_c, 0, 85, 0
1, 564630, Note_on_c, 0, 88, 0
1, 564630, Note_on_c, 0, 91, 0
1, 564630, Note_on_c, 0, 79, 0
1, 564640, Note_on_c, 0, 82, 45
1, 564640, Note_on_c, 0, 85, 45
1, 564640, Note_on_c, 0, 88, 45
1, 564640, Note_on_c, 0, 91, 45
1, 564640, Note_on_c, 0, 79, 45
1, 564650, Note_on_c, 0, 45, 0
1, 564660, Note_on_c, 0, 57, 45
1, 564710, Note_on_c, 0, 57, 0
1, 564720, Note_on_c, 0, 45, 45
1, 564770, Note_on_c, 0, 45, 0
1, 564780, Note_on_c, 0, 57, 45
1, 564790, Note_on_c, 0, 82, 0
1, 564790, Note_on_c, 0, 85, 0
1, 564790, Note_on_c, 0, 88, 0
1, 564790, Note_on_c, 0, 91, 0
1, 564790, Note_on_c, 0, 79, 0
1, 564800, Note_on_c, 0, 82, 45
1, 564800, Note_on_c, 0, 85, 45
1, 564800, Note_on_c, 0, 88, 45
1, 564800, Note_on_c, 0, 91, 45
1, 564800, Note_on_c, 0, 79, 45
1, 564830, Note_on_c, 0, 57, 0
1, 564840, Note_on_c, 0, 45, 45
1, 564890, Note_on_c, 0, 45, 0
1, 564900, Note_on_c, 0, 57, 45
1, 564950, Note_on_c, 0, 82, 0
1, 564950, Note_on_c, 0, 85, 0
1, 564950, Note_on_c, 0, 88, 0
1, 564950, Note_on_c, 0, 91, 0
1, 564950, Note_on_c, 0, 79, 0
1, 564950, Note_on_c, 0, 57, 0
1, 564950, Note_on_c, 0, 57, 0
1, 564950, Note_on_c, 0, 61, 0
1, 564960, Note_on_c, 0, 82, 45
1, 564960, Note_on_c, 0, 85, 45
1, 564960, Note_on_c, 0, 88, 45
1, 564960, Note_on_c, 0, 91, 45
1, 564960, Note_on_c, 0, 79, 45
1, 564960, Note_on_c, 0, 45, 45
1, 564960, Note_on_c, 0, 61, 45
1, 564960, Note_on_c, 0, 57, 45
1, 565010, Note_on_c, 0, 45, 0
1, 565020, Note_on_c, 0, 57, 45
1, 565070, Note_on_c, 0, 57, 0
1, 565080, Note_on_c, 0, 45, 45
1, 565110, Note_on_c, 0, 82, 0
1, 565110, Note_on_c, 0, 85, 0
1, 565110, Note_on_c, 0, 88, 0
1, 565110, Note_on_c, 0, 91, 0
1, 565110, Note_on_c, 0, 79, 0
1, 565120, Note_on_c, 0, 82, 45
1, 565120, Note_on_c, 0, 85, 45
1, 565120, Note_on_c, 0, 88, 45
1, 565120, Note_on_c, 0, 91, 45
1, 565120, Note_on_c, 0, 79, 45
1, 565130, Note_on_c, 0, 45, 0
1, 565140, Note_on_c, 0, 57, 45
1, 565190, Note_on_c, 0, 57, 0
1, 565200, Note_on_c, 0, 45, 45
1, 565250, Note_on_c, 0, 45, 0
1, 565260, Note_on_c, 0, 57, 45
1, 565270, Note_on_c, 0, 82, 0
1, 565270, Note_on_c, 0, 85, 0
1, 565270, Note_on_c, 0, 88, 0
1, 565270, Note_on_c, 0, 91, 0
1, 565270, Note_on_c, 0, 79, 0
1, 565280, Note_on_c, 0, 82, 45
1, 565280, Note_on_c, 0, 85, 45
1, 565280, Note_on_c, 0, 88, 45
1, 565280, Note_on_c, 0, 91, 45
1, 565280, Note_on_c, 0, 79, 45
1, 565310, Note_on_c, 0, 57, 0
1, 565320, Note_on_c, 0, 45, 45
1, 565370, Note_on_c, 0, 45, 0
1, 565380, Note_on_c, 0, 57, 45
1, 565430, Note_on_c, 0, 82, 0
1, 565430, Note_on_c, 0, 85, 0
1, 565430, Note_on_c, 0, 88, 0
1, 565430, Note_on_c, 0, 91, 0
1, 565430, Note_on_c, 0, 79, 0
1, 565430, Note_on_c, 0, 57, 0
1, 565440, Note_on_c, 0, 82, 45
1, 565440, Note_on_c, 0, 85, 45
1, 565440, Note_on_c, 0, 88, 45
1, 565440, Note_on_c, 0, 91, 45
1, 565440, Note_on_c, 0, 79, 45
1, 565440, Note_on_c, 0, 45, 45
1, 565490, Note_on_c, 0, 45, 0
1, 565500, Note_on_c, 0, 57, 45
1, 565550, Note_on_c, 0, 57, 0
1, 565560, Note_on_c, 0, 45, 45
1, 565590, Note_on_c, 0, 82, 0
1, 565590, Note_on_c, 0, 85, 0
1, 565590, Note_on_c, 0, 88, 0
1, 565590, Note_on_c, 0, 91, 0
1, 565590, Note_on_c, 0, 79, 0
1, 565600, Note_on_c, 0, 82, 45
1, 565600, Note_on_c, 0, 85, 45
1, 565600, Note_on_c, 0, 88, 45
1, 565600, Note_on_c, 0, 91, 45
1, 565600, Note_on_c, 0, 79, 45
1, 565610, Note_on_c, 0, 45, 0
1, 565620, Note_on_c, 0, 57, 45
1, 565670, Note_on_c, 0, 57, 0
1, 565680, Note_on_c, 0, 45, 45
1, 565730, Note_on_c, 0, 45, 0
1, 565740, Note_on_c, 0, 57, 45
1, 565750, Note_on_c, 0, 82, 0
1, 565750, Note_on_c, 0, 85, 0
1, 565750, Note_on_c, 0, 88, 0
1, 565750, Note_on_c, 0, 91, 0
1, 565750, Note_on_c, 0, 79, 0
1, 565760, Note_on_c, 0, 82, 45
1, 565760, Note_on_c, 0, 85, 45
1, 565760, Note_on_c, 0, 88, 45
1, 565760, Note_on_c, 0, 91, 45
1, 565760, Note_on_c, 0, 79, 45
1, 565790, Note_on_c, 0, 57, 0
1, 565800, Note_on_c, 0, 45, 45
1, 565850, Note_on_c, 0, 45, 0
1, 565860, Note_on_c, 0, 57, 45
1, 565910, Note_on_c, 0, 82, 0
1, 565910, Note_on_c, 0, 85, 0
1, 565910, Note_on_c, 0, 88, 0
1, 565910, Note_on_c, 0, 91, 0
1, 565910, Note_on_c, 0, 79, 0
1, 565910, Note_on_c, 0, 57, 0
1, 565910, Note_on_c, 0, 61, 0
1, 565910, Note_on_c, 0, 57, 0
1, 565920, Note_on_c, 0, 82, 45
1, 565920, Note_on_c, 0, 85, 45
1, 565920, Note_on_c, 0, 88, 45
1, 565920, Note_on_c, 0, 91, 45
1, 565920, Note_on_c, 0, 79, 45
1, 565920, Note_on_c, 0, 45, 45
1, 565920, Note_on_c, 0, 57, 45
1, 565920, Note_on_c, 0, 61, 45
1, 565970, Note_on_c, 0, 45, 0
1, 565980, Note_on_c, 0, 57, 45
1, 566030, Note_on_c, 0, 57, 0
1, 566040, Note_on_c, 0, 45, 45
1, 566070, Note_on_c, 0, 82, 0
1, 566070, Note_on_c, 0, 85, 0
1, 566070, Note_on_c, 0, 88, 0
1, 566070, Note_on_c, 0, 91, 0
1, 566070, Note_on_c, 0, 79, 0
1, 566080, Note_on_c, 0, 82, 45
1, 566080, Note_on_c, 0, 85, 45
1, 566080, Note_on_c, 0, 88, 45
1, 566080, Note_on_c, 0, 91, 45
1, 566080, Note_on_c, 0, 79, 45
1, 566090, Note_on_c, 0, 45, 0
1, 566100, Note_on_c, 0, 57, 45
1, 566150, Note_on_c, 0, 57, 0
1, 566160, Note_on_c, 0, 45, 45
1, 566210, Note_on_c, 0, 45, 0
1, 566220, Note_on_c, 0, 57, 45
1, 566230, Note_on_c, 0, 82, 0
1, 566230, Note_on_c, 0, 85, 0
1, 566230, Note_on_c, 0, 88, 0
1, 566230, Note_on_c, 0, 91, 0
1, 566230, Note_on_c, 0, 79, 0
1, 566240, Note_on_c, 0, 82, 45
1, 566240, Note_on_c, 0, 85, 45
1, 566240, Note_on_c, 0, 88, 45
1, 566240, Note_on_c, 0, 91, 45
1, 566240, Note_on_c, 0, 79, 45
1, 566270, Note_on_c, 0, 57, 0
1, 566280, Note_on_c, 0, 45, 45
1, 566330, Note_on_c, 0, 45, 0
1, 566340, Note_on_c, 0, 57, 45
1, 566390, Note_on_c, 0, 82, 0
1, 566390, Note_on_c, 0, 85, 0
1, 566390, Note_on_c, 0, 88, 0
1, 566390, Note_on_c, 0, 91, 0
1, 566390, Note_on_c, 0, 79, 0
1, 566390, Note_on_c, 0, 57, 0
1, 566400, Note_on_c, 0, 82, 45
1, 566400, Note_on_c, 0, 85, 45
1, 566400, Note_on_c, 0, 88, 45
1, 566400, Note_on_c, 0, 91, 45
1, 566400, Note_on_c, 0, 79, 45
1, 566400, Note_on_c, 0, 45, 45
1, 566450, Note_on_c, 0, 45, 0
1, 566460, Note_on_c, 0, 57, 45
1, 566510, Note_on_c, 0, 57, 0
1, 566520, Note_on_c, 0, 45, 45
1, 566550, Note_on_c, 0, 82, 0
1, 566550, Note_on_c, 0, 85, 0
1, 566550, Note_on_c, 0, 88, 0
1, 566550, Note_on_c, 0, 91, 0
1, 566550, Note_on_c, 0, 79, 0
1, 566560, Note_on_c, 0, 82, 45
1, 566560, Note_on_c, 0, 85, 45
1, 566560, Note_on_c, 0, 88, 45
1, 566560, Note_on_c, 0, 91, 45
1, 566560, Note_on_c, 0, 79, 45
1, 566570, Note_on_c, 0, 45, 0
1, 566580, Note_on_c, 0, 57, 45
1, 566630, Note_on_c, 0, 57, 0
1, 566640, Note_on_c, 0, 45, 45
1, 566690, Note_on_c, 0, 45, 0
1, 566700, Note_on_c, 0, 57, 45
1, 566710, Note_on_c, 0, 82, 0
1, 566710, Note_on_c, 0, 85, 0
1, 566710, Note_on_c, 0, 88, 0
1, 566710, Note_on_c, 0, 91, 0
1, 566710, Note_on_c, 0, 79, 0
1, 566720, Note_on_c, 0, 82, 45
1, 566720, Note_on_c, 0, 85, 45
1, 566720, Note_on_c, 0, 88, 45
1, 566720, Note_on_c, 0, 91, 45
1, 566720, Note_on_c, 0, 79, 45
1, 566750, Note_on_c, 0, 57, 0
1, 566760, Note_on_c, 0, 45, 45
1, 566810, Note_on_c, 0, 45, 0
1, 566820, Note_on_c, 0, 57, 45
1, 566870, Note_on_c, 0, 82, 0
1, 566870, Note_on_c, 0, 85, 0
1, 566870, Note_on_c, 0, 88, 0
1, 566870, Note_on_c, 0, 91, 0
1, 566870, Note_on_c, 0, 79, 0
1, 566870, Note_on_c, 0, 57, 0
1, 566870, Note_on_c, 0, 57, 0
1, 566870, Note_on_c, 0, 61, 0
1, 566880, Note_on_c, 0, 82, 45
1, 566880, Note_on_c, 0, 85, 45
1, 566880, Note_on_c, 0, 88, 45
1, 566880, Note_on_c, 0, 91, 45
1, 566880, Note_on_c, 0, 79, 45
1, 566880, Note_on_c, 0, 45, 45
1, 566880, Note_on_c, 0, 61, 45
1, 566880, Note_on_c, 0, 57, 45
1, 566930, Note_on_c, 0, 45, 0
1, 566940, Note_on_c, 0, 57, 45
1, 566990, Note_on_c, 0, 57, 0
1, 567000, Note_on_c, 0, 45, 45
1, 567030, Note_on_c, 0, 82, 0
1, 567030, Note_on_c, 0, 85, 0
1, 567030, Note_on_c, 0, 88, 0
1, 567030, Note_on_c, 0, 91, 0
1, 567030, Note_on_c, 0, 79, 0
1, 567040, Note_on_c, 0, 82, 45
1, 567040, Note_on_c, 0, 85, 45
1, 567040, Note_on_c, 0, 88, 45
1, 567040, Note_on_c, 0, 91, 45
1, 567040, Note_on_c, 0, 79, 45
1, 567050, Note_on_c, 0, 45, 0
1, 567060, Note_on_c, 0, 57, 45
1, 567110, Note_on_c, 0, 57, 0
1, 567120, Note_on_c, 0, 45, 45
1, 567170, Note_on_c, 0, 45, 0
1, 567180, Note_on_c, 0, 57, 45
1, 567190, Note_on_c, 0, 82, 0
1, 567190, Note_on_c, 0, 85, 0
1, 567190, Note_on_c, 0, 88, 0
1, 567190, Note_on_c, 0, 91, 0
1, 567190, Note_on_c, 0, 79, 0
1, 567200, Note_on_c, 0, 82, 45
1, 567200, Note_on_c, 0, 85, 45
1, 567200, Note_on_c, 0, 88, 45
1, 567200, Note_on_c, 0, 91, 45
1, 567200, Note_on_c, 0, 79, 45
1, 567230, Note_on_c, 0, 57, 0
1, 567240, Note_on_c, 0, 45, 45
1, 567290, Note_on_c, 0, 45, 0
1, 567300, Note_on_c, 0, 57, 45
1, 567350, Note_on_c, 0, 82, 0
1, 567350, Note_on_c, 0, 85, 0
1, 567350, Note_on_c, 0, 88, 0
1, 567350, Note_on_c, 0, 91, 0
1, 567350, Note_on_c, 0, 79, 0
1, 567350, Note_on_c, 0, 57, 0
1, 567350, Note_on_c, 0, 61, 0
1, 567350, Note_on_c, 0, 57, 0
1, 568800, Control_c, 0, 64, 0
1, 568800, Tempo, 238095
1, 568800, Time_signature, 3, 2, 24, 8
1, 568800, Note_on_c, 0, 74, 120
1, 569520, Time_signature, 6, 2, 24, 8
1, 569520, Note_on_c, 0, 90, 120
1, 569520, Note_on_c, 0, 78, 120
1, 569630, Note_on_c, 0, 90, 0
1, 569640, Note_on_c, 0, 81, 120
1, 569750, Note_on_c, 0, 81, 0
1, 569760, Note_on_c, 0, 83, 120
1, 569870, Note_on_c, 0, 83, 0
1, 569880, Note_on_c, 0, 85, 120
1, 569990, Note_on_c, 0, 85, 0
1, 569990, Note_on_c, 0, 78, 0
1, 570000, Note_on_c, 0, 86, 120
1, 570000, Note_on_c, 0, 78, 120
1, 570110, Note_on_c, 0, 86, 0
1, 570120, Note_on_c, 0, 88, 120
1, 570230, Note_on_c, 0, 74, 0
1, 570230, Note_on_c, 0, 88, 0
1, 570230, Note_on_c, 0, 78, 0
1, 570240, Note_on_c, 0, 90, 120
1, 570240, Note_on_c, 0, 79, 120
1, 570240, Note_on_c, 0, 74, 120
1, 570350, Note_on_c, 0, 90, 0
1, 570360, Note_on_c, 0, 88, 120
1, 570470, Note_on_c, 0, 88, 0
1, 570480, Note_on_c, 0, 86, 120
1, 570590, Note_on_c, 0, 86, 0
1, 570600, Note_on_c, 0, 88, 120
1, 570710, Note_on_c, 0, 88, 0
1, 570710, Note_on_c, 0, 79, 0
1, 570720, Note_on_c, 0, 90, 120
1, 570720, Note_on_c, 0, 81, 120
1, 570830, Note_on_c, 0, 90, 0
1, 570840, Note_on_c, 0, 91, 120
1, 570950, Note_on_c, 0, 91, 0
1, 570950, Note_on_c, 0, 81, 0
1, 570950, Note_on_c, 0, 74, 0
1, 570960, Note_on_c, 0, 93, 120
1, 570960, Note_on_c, 0, 81, 120
1, 570960, Note_on_c, 0, 73, 120
1, 571070, Note_on_c, 0, 93, 0
1, 571080, Note_on_c, 0, 95, 120
1, 571190, Note_on_c, 0, 95, 0
1, 571200, Note_on_c, 0, 93, 120
1, 571310, Note_on_c, 0, 93, 0
1, 571320, Note_on_c, 0, 91, 120
1, 571430, Note_on_c, 0, 91, 0
1, 571430, Note_on_c, 0, 81, 0
1, 571440, Note_on_c, 0, 93, 120
1, 571440, Note_on_c, 0, 79, 120
1, 571550, Note_on_c, 0, 93, 0
1, 571560, Note_on_c, 0, 91, 120
1, 571670, Note_on_c, 0, 91, 0
1, 571670, Note_on_c, 0, 79, 0
1, 571670, Note_on_c, 0, 73, 0
1, 571680, Note_on_c, 0, 90, 120
1, 571680, Note_on_c, 0, 78, 120
1, 571680, Note_on_c, 0, 69, 120
1, 571790, Note_on_c, 0, 90, 0
1, 571800, Note_on_c, 0, 91, 120
1, 571910, Note_on_c, 0, 91, 0
1, 571920, Note_on_c, 0, 90, 120
1, 572030, Note_on_c, 0, 90, 0
1, 572040, Note_on_c, 0, 88, 120
1, 572150, Note_on_c, 0, 88, 0
1, 572150, Note_on_c, 0, 78, 0
1, 572160, Note_on_c, 0, 90, 120
1, 572160, Note_on_c, 0, 76, 120
1, 572270, Note_on_c, 0, 90, 0
1, 572280, Note_on_c, 0, 88, 120
1, 572390, Note_on_c, 0, 88, 0
1, 572390, Note_on_c, 0, 76, 0
1, 572390, Note_on_c, 0, 69, 0
1, 572400, Note_on_c, 0, 86, 120
1, 572400, Note_on_c, 0, 74, 120
1, 572400, Note_on_c, 0, 71, 120
1, 572510, Note_on_c, 0, 86, 0
1, 572520, Note_on_c, 0, 78, 120
1, 572539, Control_c, 0, 64, 127
1, 572630, Note_on_c, 0, 78, 0
1, 572640, Note_on_c, 0, 79, 120
1, 572750, Note_on_c, 0, 79, 0
1, 572760, Note_on_c, 0, 81, 120
1, 572870, Note_on_c, 0, 81, 0
1, 572870, Note_on_c, 0, 74, 0
1, 572880, Note_on_c, 0, 83, 120
1, 572880, Note_on_c, 0, 74, 120
1, 572990, Note_on_c, 0, 83, 0
1, 573000, Note_on_c, 0, 85, 120
1, 573110, Note_on_c, 0, 85, 0
1, 573110, Note_on_c, 0, 74, 0
1, 573110, Note_on_c, 0, 71, 0
1, 573120, Note_on_c, 0, 86, 120
1, 573120, Note_on_c, 0, 76, 120
1, 573120, Note_on_c, 0, 71, 120
1, 573230, Note_on_c, 0, 86, 0
1, 573240, Note_on_c, 0, 85, 120
1, 573350, Note_on_c, 0, 85, 0
1, 573360, Note_on_c, 0, 83, 120
1, 573470, Note_on_c, 0, 83, 0
1, 573480, Note_on_c, 0, 85, 120
1, 573590, Note_on_c, 0, 85, 0
1, 573590, Note_on_c, 0, 76, 0
1, 573600, Note_on_c, 0, 86, 120
1, 573600, Note_on_c, 0, 78, 120
1, 573710, Note_on_c, 0, 86, 0
1, 573720, Note_on_c, 0, 88, 120
1, 573802, Control_c, 0, 64, 0
1, 573830, Note_on_c, 0, 88, 0
1, 573830, Note_on_c, 0, 78, 0
1, 573830, Note_on_c, 0, 71, 0
1, 573840, Note_on_c, 0, 90, 120
1, 573840, Note_on_c, 0, 78, 120
1, 573840, Note_on_c, 0, 69, 120
1, 573950, Note_on_c, 0, 90, 0
1, 573960, Note_on_c, 0, 91, 120
1, 573977, Control_c, 0, 64, 127
1, 574070, Note_on_c, 0, 91, 0
1, 574080, Note_on_c, 0, 90, 120
1, 574190, Note_on_c, 0, 90, 0
1, 574200, Note_on_c, 0, 88, 120
1, 574310, Note_on_c, 0, 88, 0
1, 574310, Note_on_c, 0, 78, 0
1, 574320, Note_on_c, 0, 90, 120
1, 574320, Note_on_c, 0, 76, 120
1, 574430, Note_on_c, 0, 90, 0
1, 574440, Note_on_c, 0, 88, 120
1, 574550, Note_on_c, 0, 88, 0
1, 574550, Note_on_c, 0, 76, 0
1, 574550, Note_on_c, 0, 69, 0
1, 574560, Note_on_c, 0, 86, 120
1, 574560, Note_on_c, 0, 74, 120
1, 574560, Note_on_c, 0, 66, 120
1, 574670, Note_on_c, 0, 86, 0
1, 574680, Note_on_c, 0, 88, 120
1, 574790, Note_on_c, 0, 88, 0
1, 574800, Note_on_c, 0, 86, 120
1, 574910, Note_on_c, 0, 86, 0
1, 574920, Note_on_c, 0, 85, 120
1, 575030, Note_on_c, 0, 85, 0
1, 575030, Note_on_c, 0, 74, 0
1, 575040, Note_on_c, 0, 86, 120
1, 575040, Note_on_c, 0, 73, 120
1, 575150, Note_on_c, 0, 86, 0
1, 575160, Note_on_c, 0, 85, 120
1, 575270, Note_on_c, 0, 85, 0
1, 575270, Note_on_c, 0, 73, 0
1, 575270, Note_on_c, 0, 66, 0
1, 575280, Note_on_c, 0, 83, 120
1, 575280, Note_on_c, 0, 71, 120
1, 575280, Note_on_c, 0, 67, 120
1, 575306, Control_c, 0, 64, 0
1, 575390, Note_on_c, 0, 83, 0
1, 575400, Note_on_c, 0, 74, 120
1, 575443, Control_c, 0, 64, 127
1, 575510, Note_on_c, 0, 74, 0
1, 575520, Note_on_c, 0, 76, 120
1, 575630, Note_on_c, 0, 76, 0
1, 575640, Note_on_c, 0, 78, 120
1, 575750, Note_on_c, 0, 78, 0
1, 575750, Note_on_c, 0, 71, 0
1, 575760, Note_on_c, 0, 79, 120
1, 575760, Note_on_c, 0, 71, 120
1, 575870, Note_on_c, 0, 79, 0
1, 575880, Note_on_c, 0, 81, 120
1, 575990, Note_on_c, 0, 81, 0
1, 575990, Note_on_c, 0, 71, 0
1, 575990, Note_on_c, 0, 67, 0
1, 576000, Note_on_c, 0, 83, 120
1, 576000, Note_on_c, 0, 73, 120
1, 576000, Note_on_c, 0, 67, 120
1, 576110, Note_on_c, 0, 83, 0
1, 576120, Note_on_c, 0, 81, 120
1, 576230, Note_on_c, 0, 81, 0
1, 576240, Note_on_c, 0, 79, 120
1, 576350, Note_on_c, 0, 79, 0
1, 576360, Note_on_c, 0, 81, 120
1, 576470, Note_on_c, 0, 81, 0
1, 576470, Note_on_c, 0, 73, 0
1, 576480, Note_on_c, 0, 83, 120
1, 576480, Note_on_c, 0, 74, 120
1, 576590, Note_on_c, 0, 83, 0
1, 576600, Note_on_c, 0, 85, 120
1, 576638, Control_c, 0, 64, 0
1, 576710, Note_on_c, 0, 85, 0
1, 576710, Note_on_c, 0, 74, 0
1, 576710, Note_on_c, 0, 67, 0
1, 576720, Note_on_c, 0, 86, 120
1, 576720, Note_on_c, 0, 74, 120
1, 576720, Note_on_c, 0, 66, 120
1, 576756, Control_c, 0, 64, 127
1, 576830, Note_on_c, 0, 86, 0
1, 576840, Note_on_c, 0, 88, 120
1, 576950, Note_on_c, 0, 88, 0
1, 576960, Note_on_c, 0, 86, 120
1, 577070, Note_on_c, 0, 86, 0
1, 577080, Note_on_c, 0, 85, 120
1, 577190, Note_on_c, 0, 85, 0
1, 577190, Note_on_c, 0, 74, 0
1, 577200, Note_on_c, 0, 86, 120
1, 577200, Note_on_c, 0, 73, 120
1, 577310, Note_on_c, 0, 86, 0
1, 577320, Note_on_c, 0, 85, 120
1, 577430, Note_on_c, 0, 85, 0
1, 577430, Note_on_c, 0, 73, 0
1, 577430, Note_on_c, 0, 66, 0
1, 577440, Note_on_c, 0, 83, 120
1, 577440, Note_on_c, 0, 71, 120
1, 577440, Note_on_c, 0, 62, 120
1, 577550, Note_on_c, 0, 83, 0
1, 577560, Note_on_c, 0, 85, 120
1, 577670, Note_on_c, 0, 85, 0
1, 577680, Note_on_c, 0, 83, 120
1, 577790, Note_on_c, 0, 83, 0
1, 577800, Note_on_c, 0, 81, 120
1, 577910, Note_on_c, 0, 81, 0
1, 577910, Note_on_c, 0, 71, 0
1, 577920, Note_on_c, 0, 83, 120
1, 577920, Note_on_c, 0, 69, 120
1, 578030, Note_on_c, 0, 83, 0
1, 578040, Note_on_c, 0, 81, 120
1, 578097, Control_c, 0, 64, 0
1, 578150, Note_on_c, 0, 81, 0
1, 578150, Note_on_c, 0, 69, 0
1, 578150, Note_on_c, 0, 62, 0
1, 578160, Note_on_c, 0, 79, 120
1, 578160, Note_on_c, 0, 71, 120
1, 578160, Note_on_c, 0, 67, 120
1, 578160, Note_on_c, 0, 59, 120
1, 578270, Note_on_c, 0, 79, 0
1, 578280, Note_on_c, 0, 81, 120
1, 578354, Control_c, 0, 64, 127
1, 578390, Note_on_c, 0, 81, 0
1, 578400, Note_on_c, 0, 79, 120
1, 578510, Note_on_c, 0, 79, 0
1, 578520, Note_on_c, 0, 78, 120
1, 578630, Note_on_c, 0, 78, 0
1, 578630, Note_on_c, 0, 67, 0
1, 578640, Note_on_c, 0, 79, 120
1, 578640, Note_on_c, 0, 66, 120
1, 578750, Note_on_c, 0, 79, 0
1, 578760, Note_on_c, 0, 78, 120
1, 578870, Note_on_c, 0, 78, 0
1, 578870, Note_on_c, 0, 71, 0
1, 578870, Note_on_c, 0, 66, 0
1, 578870, Note_on_c, 0, 59, 0
1, 578880, Note_on_c, 0, 76, 120
1, 578880, Note_on_c, 0, 71, 120
1, 578880, Note_on_c, 0, 64, 120
1, 578880, Note_on_c, 0, 59, 120
1, 578990, Note_on_c, 0, 76, 0
1, 579000, Note_on_c, 0, 78, 120
1, 579110, Note_on_c, 0, 78, 0
1, 579120, Note_on_c, 0, 76, 120
1, 579230, Note_on_c, 0, 76, 0
1, 579240, Note_on_c, 0, 74, 120
1, 579350, Note_on_c, 0, 74, 0
1, 579350, Note_on_c, 0, 64, 0
1, 579360, Note_on_c, 0, 76, 120
1, 579360, Note_on_c, 0, 62, 120
1, 579470, Note_on_c, 0, 76, 0
1, 579480, Note_on_c, 0, 74, 120
1, 579501, Control_c, 0, 64, 0
1, 579590, Note_on_c, 0, 74, 0
1, 579590, Note_on_c, 0, 71, 0
1, 579590, Note_on_c, 0, 62, 0
1, 579590, Note_on_c, 0, 59, 0
1, 579600, Note_on_c, 0, 81, 120
1, 579600, Note_on_c, 0, 69, 120
1, 579600, Note_on_c, 0, 57, 120
1, 579683, Control_c, 0, 64, 127
1, 579710, Note_on_c, 0, 69, 0
1, 579720, Note_on_c, 0, 68, 120
1, 579830, Note_on_c, 0, 81, 0
1, 579830, Note_on_c, 0, 68, 0
1, 579840, Note_on_c, 0, 69, 120
1, 579950, Note_on_c, 0, 69, 0
1, 579960, Note_on_c, 0, 71, 120
1, 580070, Note_on_c, 0, 71, 0
1, 580080, Note_on_c, 0, 73, 120
1, 580190, Note_on_c, 0, 73, 0
1, 580200, Note_on_c, 0, 71, 120
1, 580310, Note_on_c, 0, 71, 0
1, 580310, Note_on_c, 0, 57, 0
1, 580320, Note_on_c, 0, 69, 120
1, 580320, Note_on_c, 0, 57, 120
1, 580430, Note_on_c, 0, 69, 0
1, 580440, Note_on_c, 0, 73, 120
1, 580550, Note_on_c, 0, 73, 0
1, 580560, Note_on_c, 0, 76, 120
1, 580670, Note_on_c, 0, 76, 0
1, 580680, Note_on_c, 0, 68, 120
1, 580790, Note_on_c, 0, 68, 0
1, 580800, Note_on_c, 0, 69, 120
1, 580891, Control_c, 0, 64, 0
1, 581030, Note_on_c, 0, 69, 0
1, 581030, Note_on_c, 0, 57, 0
1, 581040, Note_on_c, 0, 69, 120
1, 581040, Note_on_c, 0, 61, 120
1, 581040, Note_on_c, 0, 49, 120
1, 581150, Note_on_c, 0, 49, 0
1, 581160, Note_on_c, 0, 40, 120
1, 581255, Control_c, 0, 64, 127
1, 581270, Note_on_c, 0, 40, 0
1, 581280, Note_on_c, 0, 42, 120
1, 581390, Note_on_c, 0, 42, 0
1, 581400, Note_on_c, 0, 44, 120
1, 581510, Note_on_c, 0, 61, 0
1, 581510, Note_on_c, 0, 44, 0
1, 581520, Note_on_c, 0, 61, 120
1, 581520, Note_on_c, 0, 45, 120
1, 581630, Note_on_c, 0, 45, 0
1, 581640, Note_on_c, 0, 47, 120
1, 581750, Note_on_c, 0, 69, 0
1, 581750, Note_on_c, 0, 61, 0
1, 581750, Note_on_c, 0, 47, 0
1, 581760, Note_on_c, 0, 69, 120
1, 581760, Note_on_c, 0, 62, 120
1, 581760, Note_on_c, 0, 49, 120
1, 581870, Note_on_c, 0, 49, 0
1, 581880, Note_on_c, 0, 47, 120
1, 581990, Note_on_c, 0, 47, 0
1, 582000, Note_on_c, 0, 45, 120
1, 582110, Note_on_c, 0, 45, 0
1, 582120, Note_on_c, 0, 47, 120
1, 582230, Note_on_c, 0, 62, 0
1, 582230, Note_on_c, 0, 47, 0
1, 582240, Note_on_c, 0, 64, 120
1, 582240, Note_on_c, 0, 49, 120
1, 582350, Note_on_c, 0, 49, 0
1, 582360, Note_on_c, 0, 50, 120
1, 582426, Control_c, 0, 64, 0
1, 582470, Note_on_c, 0, 69, 0
1, 582470, Note_on_c, 0, 64, 0
1, 582470, Note_on_c, 0, 50, 0
1, 582480, Note_on_c, 0, 68, 120
1, 582480, Note_on_c, 0, 59, 120
1, 582480, Note_on_c, 0, 64, 120
1, 582480, Note_on_c, 0, 52, 120
1, 582590, Note_on_c, 0, 52, 0
1, 582600, Note_on_c, 0, 54, 120
1, 582651, Control_c, 0, 64, 127
1, 582710, Note_on_c, 0, 54, 0
1, 582720, Note_on_c, 0, 52, 120
1, 582830, Note_on_c, 0, 52, 0
1, 582840, Note_on_c, 0, 50, 120
1, 582950, Note_on_c, 0, 64, 0
1, 582950, Note_on_c, 0, 50, 0
1, 582960, Note_on_c, 0, 62, 120
1, 582960, Note_on_c, 0, 52, 120
1, 583070, Note_on_c, 0, 52, 0
1, 583080, Note_on_c, 0, 50, 120
1, 583190, Note_on_c, 0, 68, 0
1, 583190, Note_on_c, 0, 59, 0
1, 583190, Note_on_c, 0, 62, 0
1, 583190, Note_on_c, 0, 50, 0
1, 583200, Note_on_c, 0, 64, 120
1, 583200, Note_on_c, 0, 61, 120
1, 583200, Note_on_c, 0, 57, 120
1, 583200, Note_on_c, 0, 49, 120
1, 583310, Note_on_c, 0, 49, 0
1, 583320, Note_on_c, 0, 50, 120
1, 583430, Note_on_c, 0, 50, 0
1, 583440, Note_on_c, 0, 49, 120
1, 583550, Note_on_c, 0, 49, 0
1, 583560, Note_on_c, 0, 47, 120
1, 583670, Note_on_c, 0, 61, 0
1, 583670, Note_on_c, 0, 57, 0
1, 583670, Note_on_c, 0, 47, 0
1, 583680, Note_on_c, 0, 59, 120
1, 583680, Note_on_c, 0, 56, 120
1, 583680, Note_on_c, 0, 49, 120
1, 583790, Note_on_c, 0, 49, 0
1, 583800, Note_on_c, 0, 47, 120
1, 583910, Note_on_c, 0, 64, 0
1, 583910, Note_on_c, 0, 59, 0
1, 583910, Note_on_c, 0, 56, 0
1, 583910, Note_on_c, 0, 47, 0
1, 583920, Note_on_c, 0, 66, 120
1, 583920, Note_on_c, 0, 62, 120
1, 583920, Note_on_c, 0, 57, 120
1, 583920, Note_on_c, 0, 45, 120
1, 584030, Note_on_c, 0, 45, 0
1, 584040, Note_on_c, 0, 37, 120
1, 584150, Note_on_c, 0, 37, 0
1, 584160, Note_on_c, 0, 38, 120
1, 584270, Note_on_c, 0, 38, 0
1, 584280, Note_on_c, 0, 40, 120
1, 584390, Note_on_c, 0, 57, 0
1, 584390, Note_on_c, 0, 40, 0
1, 584400, Note_on_c, 0, 57, 120
1, 584400, Note_on_c, 0, 42, 120
1, 584510, Note_on_c, 0, 42, 0
1, 584520, Note_on_c, 0, 44, 120
1, 584630, Note_on_c, 0, 66, 0
1, 584630, Note_on_c, 0, 62, 0
1, 584630, Note_on_c, 0, 57, 0
1, 584630, Note_on_c, 0, 44, 0
1, 584640, Note_on_c, 0, 74, 120
1, 584640, Note_on_c, 0, 66, 120
1, 584640, Note_on_c, 0, 59, 120
1, 584640, Note_on_c, 0, 45, 120
1, 584750, Note_on_c, 0, 45, 0
1, 584760, Note_on_c, 0, 44, 120
1, 584870, Note_on_c, 0, 44, 0
1, 584872, Control_c, 0, 64, 0
1, 584880, Note_on_c, 0, 42, 120
1, 584990, Note_on_c, 0, 42, 0
1, 585000, Note_on_c, 0, 44, 120
1, 585110, Note_on_c, 0, 59, 0
1, 585110, Note_on_c, 0, 44, 0
1, 585120, Note_on_c, 0, 61, 120
1, 585120, Note_on_c, 0, 45, 120
1, 585230, Note_on_c, 0, 45, 0
1, 585240, Note_on_c, 0, 47, 120
1, 585350, Note_on_c, 0, 74, 0
1, 585350, Note_on_c, 0, 66, 0
1, 585350, Note_on_c, 0, 61, 0
1, 585350, Note_on_c, 0, 47, 0
1, 585360, Note_on_c, 0, 76, 120
1, 585360, Note_on_c, 0, 69, 120
1, 585360, Note_on_c, 0, 61, 120
1, 585360, Note_on_c, 0, 49, 120
1, 585470, Note_on_c, 0, 49, 0
1, 585480, Note_on_c, 0, 50, 120
1, 585507, Control_c, 0, 64, 127
1, 585590, Note_on_c, 0, 50, 0
1, 585600, Note_on_c, 0, 49, 120
1, 585710, Note_on_c, 0, 49, 0
1, 585720, Note_on_c, 0, 47, 120
1, 585830, Note_on_c, 0, 61, 0
1, 585830, Note_on_c, 0, 47, 0
1, 585840, Note_on_c, 0, 59, 120
1, 585840, Note_on_c, 0, 49, 120
1, 585950, Note_on_c, 0, 49, 0
1, 585960, Note_on_c, 0, 47, 120
1, 586070, Note_on_c, 0, 76, 0
1, 586070, Note_on_c, 0, 69, 0
1, 586070, Note_on_c, 0, 59, 0
1, 586070, Note_on_c, 0, 47, 0
1, 586080, Note_on_c, 0, 61, 120
1, 586080, Note_on_c, 0, 64, 120
1, 586080, Note_on_c, 0, 57, 120
1, 586080, Note_on_c, 0, 45, 120
1, 586190, Note_on_c, 0, 45, 0
1, 586200, Note_on_c, 0, 47, 120
1, 586310, Note_on_c, 0, 47, 0
1, 586320, Note_on_c, 0, 45, 120
1, 586430, Note_on_c, 0, 45, 0
1, 586440, Note_on_c, 0, 43, 120
1, 586550, Note_on_c, 0, 61, 0
1, 586550, Note_on_c, 0, 64, 0
1, 586550, Note_on_c, 0, 57, 0
1, 586550, Note_on_c, 0, 43, 0
1, 586560, Note_on_c, 0, 55, 120
1, 586560, Note_on_c, 0, 45, 120
1, 586670, Note_on_c, 0, 45, 0
1, 586680, Note_on_c, 0, 43, 120
1, 586790, Note_on_c, 0, 55, 0
1, 586790, Note_on_c, 0, 43, 0
1, 586800, Note_on_c, 0, 66, 120
1, 586800, Note_on_c, 0, 62, 120
1, 586800, Note_on_c, 0, 54, 120
1, 586800, Note_on_c, 0, 42, 120
1, 586810, Control_c, 0, 64, 0
1, 586910, Note_on_c, 0, 42, 0
1, 586920, Note_on_c, 0, 33, 120
1, 587024, Control_c, 0, 64, 127
1, 587030, Note_on_c, 0, 33, 0
1, 587040, Note_on_c, 0, 35, 120
1, 587150, Note_on_c, 0, 35, 0
1, 587160, Note_on_c, 0, 37, 120
1, 587270, Note_on_c, 0, 54, 0
1, 587270, Note_on_c, 0, 37, 0
1, 587280, Note_on_c, 0, 54, 120
1, 587280, Note_on_c, 0, 38, 120
1, 587390, Note_on_c, 0, 38, 0
1, 587400, Note_on_c, 0, 40, 120
1, 587510, Note_on_c, 0, 66, 0
1, 587510, Note_on_c, 0, 62, 0
1, 587510, Note_on_c, 0, 54, 0
1, 587510, Note_on_c, 0, 40, 0
1, 587520, Note_on_c, 0, 66, 120
1, 587520, Note_on_c, 0, 62, 120
1, 587520, Note_on_c, 0, 56, 120
1, 587520, Note_on_c, 0, 42, 120
1, 587630, Note_on_c, 0, 42, 0
1, 587640, Note_on_c, 0, 40, 120
1, 587750, Note_on_c, 0, 40, 0
1, 587760, Note_on_c, 0, 38, 120
1, 587870, Note_on_c, 0, 38, 0
1, 587880, Note_on_c, 0, 40, 120
1, 587990, Note_on_c, 0, 66, 0
1, 587990, Note_on_c, 0, 62, 0
1, 587990, Note_on_c, 0, 56, 0
1, 587990, Note_on_c, 0, 40, 0
1, 588000, Note_on_c, 0, 66, 120
1, 588000, Note_on_c, 0, 62, 120
1, 588000, Note_on_c, 0, 57, 120
1, 588000, Note_on_c, 0, 42, 120
1, 588110, Note_on_c, 0, 42, 0
1, 588120, Note_on_c, 0, 44, 120
1, 588230, Note_on_c, 0, 66, 0
1, 588230, Note_on_c, 0, 62, 0
1, 588230, Note_on_c, 0, 57, 0
1, 588230, Note_on_c, 0, 44, 0
1, 588240, Note_on_c, 0, 66, 120
1, 588240, Note_on_c, 0, 61, 120
1, 588240, Note_on_c, 0, 57, 120
1, 588240, Note_on_c, 0, 45, 120
1, 588300, Control_c, 0, 64, 0
1, 588350, Note_on_c, 0, 45, 0
1, 588360, Note_on_c, 0, 47, 120
1, 588470, Note_on_c, 0, 47, 0
1, 588480, Note_on_c, 0, 45, 120
1, 588486, Control_c, 0, 64, 127
1, 588590, Note_on_c, 0, 45, 0
1, 588600, Note_on_c, 0, 43, 120
1, 588710, Note_on_c, 0, 66, 0
1, 588710, Note_on_c, 0, 43, 0
1, 588720, Note_on_c, 0, 64, 120
1, 588720, Note_on_c, 0, 45, 120
1, 588830, Note_on_c, 0, 45, 0
1, 588840, Note_on_c, 0, 43, 120
1, 588950, Note_on_c, 0, 64, 0
1, 588950, Note_on_c, 0, 61, 0
1, 588950, Note_on_c, 0, 57, 0
1, 588950, Note_on_c, 0, 43, 0
1, 588960, Note_on_c, 0, 69, 120
1, 588960, Note_on_c, 0, 62, 120
1, 588960, Note_on_c, 0, 57, 120
1, 588960, Note_on_c, 0, 42, 120
1, 589070, Note_on_c, 0, 42, 0
1, 589080, Note_on_c, 0, 43, 120
1, 589190, Note_on_c, 0, 43, 0
1, 589200, Note_on_c, 0, 42, 120
1, 589310, Note_on_c, 0, 42, 0
1, 589320, Note_on_c, 0, 40, 120
1, 589430, Control_c, 0, 64, 0
1, 589430, Note_on_c, 0, 69, 0
1, 589430, Note_on_c, 0, 62, 0
1, 589430, Note_on_c, 0, 40, 0
1, 589440, Note_on_c, 0, 67, 120
1, 589440, Note_on_c, 0, 42, 120
1, 589550, Note_on_c, 0, 42, 0
1, 589560, Note_on_c, 0, 40, 120
1, 589670, Note_on_c, 0, 67, 0
1, 589670, Note_on_c, 0, 40, 0
1, 589670, Note_on_c, 0, 57, 0
1, 589680, Note_on_c, 0, 66, 120
1, 589680, Note_on_c, 0, 55, 120
1, 589680, Note_on_c, 0, 38, 120
1, 589790, Note_on_c, 0, 38, 0
1, 589800, Note_on_c, 0, 40, 120
1, 589910, Note_on_c, 0, 40, 0
1, 589920, Note_on_c, 0, 38, 120
1, 590030, Note_on_c, 0, 38, 0
1, 590040, Note_on_c, 0, 37, 120
1, 590150, Note_on_c, 0, 66, 0
1, 590150, Note_on_c, 0, 37, 0
1, 590160, Note_on_c, 0, 64, 120
1, 590160, Note_on_c, 0, 38, 120
1, 590270, Note_on_c, 0, 38, 0
1, 590280, Note_on_c, 0, 37, 120
1, 590390, Note_on_c, 0, 64, 0
1, 590390, Note_on_c, 0, 55, 0
1, 590390, Note_on_c, 0, 37, 0
1, 590400, Note_on_c, 0, 62, 120
1, 590400, Note_on_c, 0, 55, 120
1, 590400, Note_on_c, 0, 52, 120
1, 590400, Note_on_c, 0, 35, 120
1, 590510, Note_on_c, 0, 35, 0
1, 590520, Note_on_c, 0, 37, 120
1, 590630, Note_on_c, 0, 37, 0
1, 590640, Note_on_c, 0, 35, 120
1, 590750, Note_on_c, 0, 35, 0
1, 590760, Note_on_c, 0, 33, 120
1, 590870, Note_on_c, 0, 62, 0
1, 590870, Note_on_c, 0, 33, 0
1, 590880, Note_on_c, 0, 61, 120
1, 590880, Note_on_c, 0, 35, 120
1, 590990, Note_on_c, 0, 35, 0
1, 591000, Note_on_c, 0, 33, 120
1, 591110, Note_on_c, 0, 61, 0
1, 591110, Note_on_c, 0, 55, 0
1, 591110, Note_on_c, 0, 52, 0
1, 591110, Note_on_c, 0, 33, 0
1, 591120, Note_on_c, 0, 64, 120
1, 591120, Note_on_c, 0, 54, 120
1, 591120, Note_on_c, 0, 38, 120
1, 591230, Note_on_c, 0, 38, 0
1, 591240, Note_on_c, 0, 33, 120
1, 591350, Note_on_c, 0, 33, 0
1, 591360, Note_on_c, 0, 35, 120
1, 591470, Note_on_c, 0, 35, 0
1, 591480, Note_on_c, 0, 37, 120
1, 591590, Note_on_c, 0, 64, 0
1, 591590, Note_on_c, 0, 54, 0
1, 591590, Note_on_c, 0, 37, 0
1, 591600, Note_on_c, 0, 62, 120
1, 591600, Note_on_c, 0, 38, 120
1, 591710, Note_on_c, 0, 38, 0
1, 591720, Note_on_c, 0, 37, 120
1, 591830, Note_on_c, 0, 62, 0
1, 591830, Note_on_c, 0, 37, 0
1, 591840, Note_on_c, 0, 64, 120
1, 591840, Note_on_c, 0, 38, 120
1, 591950, Note_on_c, 0, 38, 0
1, 591960, Note_on_c, 0, 42, 120
1, 592070, Note_on_c, 0, 42, 0
1, 592080, Note_on_c, 0, 45, 120
1, 592190, Note_on_c, 0, 45, 0
1, 592200, Note_on_c, 0, 49, 120
1, 592310, Note_on_c, 0, 64, 0
1, 592310, Note_on_c, 0, 49, 0
1, 592320, Note_on_c, 0, 66, 120
1, 592320, Note_on_c, 0, 50, 120
1, 592550, Note_on_c, 0, 66, 0
1, 592550, Note_on_c, 0, 50, 0
1, 592560, Note_on_c, 0, 78, 120
1, 592560, Note_on_c, 0, 66, 120
1, 592560, Note_on_c, 0, 62, 120
1, 592560, Note_on_c, 0, 50, 120
1, 592670, Note_on_c, 0, 78, 0
1, 592680, Note_on_c, 0, 69, 120
1, 592790, Note_on_c, 0, 69, 0
1, 592800, Note_on_c, 0, 71, 120
1, 592808, Control_c, 0, 64, 127
1, 592910, Note_on_c, 0, 71, 0
1, 592920, Note_on_c, 0, 73, 120
1, 593030, Note_on_c, 0, 73, 0
1, 593030, Note_on_c, 0, 66, 0
1, 593040, Note_on_c, 0, 74, 120
1, 593040, Note_on_c, 0, 66, 120
1, 593150, Note_on_c, 0, 74, 0
1, 593160, Note_on_c, 0, 76, 120
1, 593270, Note_on_c, 0, 76, 0
1, 593270, Note_on_c, 0, 66, 0
1, 593270, Note_on_c, 0, 62, 0
1, 593270, Note_on_c, 0, 50, 0
1, 593280, Note_on_c, 0, 78, 120
1, 593280, Note_on_c, 0, 67, 120
1, 593280, Note_on_c, 0, 62, 120
1, 593280, Note_on_c, 0, 50, 120
1, 593390, Note_on_c, 0, 78, 0
1, 593400, Note_on_c, 0, 76, 120
1, 593510, Note_on_c, 0, 76, 0
1, 593520, Note_on_c, 0, 74, 120
1, 593630, Note_on_c, 0, 74, 0
1, 593640, Note_on_c, 0, 76, 120
1, 593750, Note_on_c, 0, 76, 0
1, 593750, Note_on_c, 0, 67, 0
1, 593760, Note_on_c, 0, 78, 120
1, 593760, Note_on_c, 0, 69, 120
1, 593870, Note_on_c, 0, 78, 0
1, 593880, Note_on_c, 0, 79, 120
1, 593990, Note_on_c, 0, 79, 0
1, 593990, Note_on_c, 0, 69, 0
1, 593990, Note_on_c, 0, 62, 0
1, 593990, Note_on_c, 0, 50, 0
1, 594000, Note_on_c, 0, 78, 120
1, 594000, Note_on_c, 0, 69, 120
1, 594000, Note_on_c, 0, 61, 120
1, 594000, Note_on_c, 0, 49, 120
1, 594077, Control_c, 0, 64, 0
1, 594110, Note_on_c, 0, 78, 0
1, 594120, Note_on_c, 0, 79, 120
1, 594230, Note_on_c, 0, 79, 0
1, 594240, Note_on_c, 0, 78, 120
1, 594297, Control_c, 0, 64, 127
1, 594350, Note_on_c, 0, 78, 0
1, 594360, Note_on_c, 0, 76, 120
1, 594470, Note_on_c, 0, 76, 0
1, 594470, Note_on_c, 0, 69, 0
1, 594480, Note_on_c, 0, 78, 120
1, 594480, Note_on_c, 0, 67, 120
1, 594590, Note_on_c, 0, 78, 0
1, 594600, Note_on_c, 0, 76, 120
1, 594710, Note_on_c, 0, 76, 0
1, 594710, Note_on_c, 0, 67, 0
1, 594710, Note_on_c, 0, 61, 0
1, 594710, Note_on_c, 0, 49, 0
1, 594720, Note_on_c, 0, 74, 120
1, 594720, Note_on_c, 0, 66, 120
1, 594720, Note_on_c, 0, 57, 120
1, 594720, Note_on_c, 0, 45, 120
1, 594830, Note_on_c, 0, 74, 0
1, 594840, Note_on_c, 0, 76, 120
1, 594950, Note_on_c, 0, 76, 0
1, 594960, Note_on_c, 0, 74, 120
1, 595070, Note_on_c, 0, 74, 0
1, 595080, Note_on_c, 0, 73, 120
1, 595190, Note_on_c, 0, 73, 0
1, 595190, Note_on_c, 0, 66, 0
1, 595200, Note_on_c, 0, 74, 120
1, 595200, Note_on_c, 0, 64, 120
1, 595310, Note_on_c, 0, 74, 0
1, 595320, Note_on_c, 0, 73, 120
1, 595430, Note_on_c, 0, 73, 0
1, 595430, Note_on_c, 0, 64, 0
1, 595430, Note_on_c, 0, 57, 0
1, 595430, Note_on_c, 0, 45, 0
1, 595438, Control_c, 0, 64, 0
1, 595440, Note_on_c, 0, 74, 120
1, 595440, Note_on_c, 0, 62, 120
1, 595440, Note_on_c, 0, 59, 120
1, 595440, Note_on_c, 0, 47, 120
1, 595550, Note_on_c, 0, 74, 0
1, 595560, Note_on_c, 0, 66, 120
1, 595564, Control_c, 0, 64, 127
1, 595670, Note_on_c, 0, 66, 0
1, 595680, Note_on_c, 0, 67, 120
1, 595790, Note_on_c, 0, 67, 0
1, 595800, Note_on_c, 0, 69, 120
1, 595910, Note_on_c, 0, 69, 0
1, 595910, Note_on_c, 0, 62, 0
1, 595920, Note_on_c, 0, 71, 120
1, 595920, Note_on_c, 0, 62, 120
1, 596030, Note_on_c, 0, 71, 0
1, 596040, Note_on_c, 0, 73, 120
1, 596150, Note_on_c, 0, 73, 0
1, 596150, Note_on_c, 0, 62, 0
1, 596150, Note_on_c, 0, 59, 0
1, 596150, Note_on_c, 0, 47, 0
1, 596160, Note_on_c, 0, 74, 120
1, 596160, Note_on_c, 0, 64, 120
1, 596160, Note_on_c, 0, 59, 120
1, 596160, Note_on_c, 0, 47, 120
1, 596270, Note_on_c, 0, 74, 0
1, 596280, Note_on_c, 0, 73, 120
1, 596390, Note_on_c, 0, 73, 0
1, 596400, Note_on_c, 0, 71, 120
1, 596510, Note_on_c, 0, 71, 0
1, 596520, Note_on_c, 0, 73, 120
1, 596630, Note_on_c, 0, 73, 0
1, 596630, Note_on_c, 0, 64, 0
1, 596640, Note_on_c, 0, 74, 120
1, 596640, Note_on_c, 0, 66, 120
1, 596750, Note_on_c, 0, 74, 0
1, 596760, Note_on_c, 0, 76, 120
1, 596870, Note_on_c, 0, 76, 0
1, 596870, Note_on_c, 0, 66, 0
1, 596870, Note_on_c, 0, 59, 0
1, 596870, Note_on_c, 0, 47, 0
1, 596880, Note_on_c, 0, 74, 120
1, 596880, Note_on_c, 0, 66, 120
1, 596880, Note_on_c, 0, 57, 120
1, 596880, Note_on_c, 0, 45, 120
1, 596935, Control_c, 0, 64, 0
1, 596990, Note_on_c, 0, 74, 0
1, 597000, Note_on_c, 0, 76, 120
1, 597060, Control_c, 0, 64, 127
1, 597110, Note_on_c, 0, 76, 0
1, 597120, Note_on_c, 0, 74, 120
1, 597230, Note_on_c, 0, 74, 0
1, 597240, Note_on_c, 0, 73, 120
1, 597350, Note_on_c, 0, 73, 0
1, 597350, Note_on_c, 0, 66, 0
1, 597360, Note_on_c, 0, 74, 120
1, 597360, Note_on_c, 0, 64, 120
1, 597470, Note_on_c, 0, 74, 0
1, 597480, Note_on_c, 0, 73, 120
1, 597590, Note_on_c, 0, 73, 0
1, 597590, Note_on_c, 0, 64, 0
1, 597590, Note_on_c, 0, 57, 0
1, 597590, Note_on_c, 0, 45, 0
1, 597600, Note_on_c, 0, 71, 120
1, 597600, Note_on_c, 0, 62, 120
1, 597600, Note_on_c, 0, 54, 120
1, 597600, Note_on_c, 0, 42, 120
1, 597710, Note_on_c, 0, 71, 0
1, 597720, Note_on_c, 0, 73, 120
1, 597830, Note_on_c, 0, 73, 0
1, 597840, Note_on_c, 0, 71, 120
1, 597950, Note_on_c, 0, 71, 0
1, 597960, Note_on_c, 0, 69, 120
1, 598070, Note_on_c, 0, 69, 0
1, 598070, Note_on_c, 0, 62, 0
1, 598080, Note_on_c, 0, 71, 120
1, 598080, Note_on_c, 0, 60, 120
1, 598190, Note_on_c, 0, 71, 0
1, 598200, Note_on_c, 0, 69, 120
1, 598310, Note_on_c, 0, 69, 0
1, 598310, Note_on_c, 0, 60, 0
1, 598310, Note_on_c, 0, 54, 0
1, 598310, Note_on_c, 0, 42, 0
1, 598320, Note_on_c, 0, 71, 120
1, 598320, Note_on_c, 0, 59, 120
1, 598320, Note_on_c, 0, 55, 120
1, 598320, Note_on_c, 0, 43, 120
1, 598334, Control_c, 0, 64, 0
1, 598430, Note_on_c, 0, 71, 0
1, 598440, Note_on_c, 0, 62, 120
1, 598453, Control_c, 0, 64, 127
1, 598550, Note_on_c, 0, 62, 0
1, 598560, Note_on_c, 0, 64, 120
1, 598670, Note_on_c, 0, 64, 0
1, 598680, Note_on_c, 0, 66, 120
1, 598790, Note_on_c, 0, 66, 0
1, 598790, Note_on_c, 0, 59, 0
1, 598800, Note_on_c, 0, 67, 120
1, 598800, Note_on_c, 0, 59, 120
1, 598910, Note_on_c, 0, 67, 0
1, 598920, Note_on_c, 0, 69, 120
1, 599030, Note_on_c, 0, 69, 0
1, 599030, Note_on_c, 0, 59, 0
1, 599030, Note_on_c, 0, 55, 0
1, 599030, Note_on_c, 0, 43, 0
1, 599040, Note_on_c, 0, 71, 120
1, 599040, Note_on_c, 0, 61, 120
1, 599040, Note_on_c, 0, 55, 120
1, 599040, Note_on_c, 0, 43, 120
1, 599150, Note_on_c, 0, 71, 0
1, 599160, Note_on_c, 0, 69, 120
1, 599270, Note_on_c, 0, 69, 0
1, 599280, Note_on_c, 0, 67, 120
1, 599390, Note_on_c, 0, 67, 0
1, 599400, Note_on_c, 0, 69, 120
1, 599510, Note_on_c, 0, 69, 0
1, 599510, Note_on_c, 0, 61, 0
1, 599520, Note_on_c, 0, 71, 120
1, 599520, Note_on_c, 0, 62, 120
1, 599630, Note_on_c, 0, 71, 0
1, 599640, Note_on_c, 0, 73, 120
1, 599750, Note_on_c, 0, 73, 0
1, 599750, Note_on_c, 0, 62, 0
1, 599750, Note_on_c, 0, 55, 0
1, 599750, Note_on_c, 0, 43, 0
1, 599760, Note_on_c, 0, 71, 120
1, 599760, Note_on_c, 0, 62, 120
1, 599760, Note_on_c, 0, 54, 120
1, 599760, Note_on_c, 0, 42, 120
1, 599773, Control_c, 0, 64, 0
1, 599870, Note_on_c, 0, 71, 0
1, 599880, Note_on_c, 0, 73, 120
1, 599881, Control_c, 0, 64, 127
1, 599990, Note_on_c, 0, 73, 0
1, 600000, Note_on_c, 0, 71, 120
1, 600110, Note_on_c, 0, 71, 0
1, 600120, Note_on_c, 0, 69, 120
1, 600230, Note_on_c, 0, 69, 0
1, 600230, Note_on_c, 0, 62, 0
1, 600240, Note_on_c, 0, 71, 120
1, 600240, Note_on_c, 0, 61, 120
1, 600350, Note_on_c, 0, 71, 0
1, 600360, Note_on_c, 0, 69, 120
1, 600470, Note_on_c, 0, 69, 0
1, 600470, Note_on_c, 0, 61, 0
1, 600470, Note_on_c, 0, 54, 0
1, 600470, Note_on_c, 0, 42, 0
1, 600480, Note_on_c, 0, 67, 120
1, 600480, Note_on_c, 0, 59, 120
1, 600480, Note_on_c, 0, 50, 120
1, 600480, Note_on_c, 0, 38, 120
1, 600590, Note_on_c, 0, 67, 0
1, 600600, Note_on_c, 0, 69, 120
1, 600710, Note_on_c, 0, 69, 0
1, 600720, Note_on_c, 0, 67, 120
1, 600830, Note_on_c, 0, 67, 0
1, 600840, Note_on_c, 0, 66, 120
1, 600950, Note_on_c, 0, 66, 0
1, 600950, Note_on_c, 0, 59, 0
1, 600960, Note_on_c, 0, 67, 120
1, 600960, Note_on_c, 0, 57, 120
1, 601070, Note_on_c, 0, 67, 0
1, 601080, Note_on_c, 0, 66, 120
1, 601107, Control_c, 0, 64, 0
1, 601190, Note_on_c, 0, 66, 0
1, 601190, Note_on_c, 0, 57, 0
1, 601190, Note_on_c, 0, 50, 0
1, 601190, Note_on_c, 0, 38, 0
1, 601200, Note_on_c, 0, 64, 120
1, 601200, Note_on_c, 0, 55, 120
1, 601200, Note_on_c, 0, 59, 120
1, 601200, Note_on_c, 0, 47, 120
1, 601240, Control_c, 0, 64, 127
1, 601310, Note_on_c, 0, 64, 0
1, 601320, Note_on_c, 0, 66, 120
1, 601430, Note_on_c, 0, 66, 0
1, 601440, Note_on_c, 0, 64, 120
1, 601550, Note_on_c, 0, 64, 0
1, 601560, Note_on_c, 0, 62, 120
1, 601670, Note_on_c, 0, 62, 0
1, 601670, Note_on_c, 0, 55, 0
1, 601680, Note_on_c, 0, 64, 120
1, 601680, Note_on_c, 0, 54, 120
1, 601790, Note_on_c, 0, 64, 0
1, 601800, Note_on_c, 0, 62, 120
1, 601910, Note_on_c, 0, 62, 0
1, 601910, Note_on_c, 0, 54, 0
1, 601910, Note_on_c, 0, 59, 0
1, 601910, Note_on_c, 0, 47, 0
1, 601920, Note_on_c, 0, 61, 120
1, 601920, Note_on_c, 0, 52, 120
1, 601920, Note_on_c, 0, 59, 120
1, 601920, Note_on_c, 0, 47, 120
1, 602030, Note_on_c, 0, 61, 0
1, 602040, Note_on_c, 0, 62, 120
1, 602150, Note_on_c, 0, 62, 0
1, 602160, Note_on_c, 0, 61, 120
1, 602270, Note_on_c, 0, 61, 0
1, 602280, Note_on_c, 0, 59, 120
1, 602390, Note_on_c, 0, 59, 0
1, 602390, Note_on_c, 0, 52, 0
1, 602400, Note_on_c, 0, 61, 120
1, 602400, Note_on_c, 0, 50, 120
1, 602501, Control_c, 0, 64, 0
1, 602510, Note_on_c, 0, 61, 0
1, 602520, Note_on_c, 0, 59, 120
1, 602630, Note_on_c, 0, 59, 0
1, 602630, Note_on_c, 0, 50, 0
1, 602630, Note_on_c, 0, 59, 0
1, 602630, Note_on_c, 0, 47, 0
1, 602640, Note_on_c, 0, 66, 120
1, 602640, Note_on_c, 0, 57, 120
1, 602640, Note_on_c, 0, 45, 120
1, 602750, Note_on_c, 0, 66, 0
1, 602760, Note_on_c, 0, 64, 120
1, 602870, Note_on_c, 0, 64, 0
1, 602880, Note_on_c, 0, 66, 120
1, 602990, Note_on_c, 0, 66, 0
1, 603000, Note_on_c, 0, 68, 120
1, 603110, Note_on_c, 0, 68, 0
1, 603110, Note_on_c, 0, 57, 0
1, 603110, Note_on_c, 0, 45, 0
1, 603120, Note_on_c, 0, 69, 120
1, 603120, Note_on_c, 0, 61, 120
1, 603120, Note_on_c, 0, 49, 120
1, 603230, Note_on_c, 0, 69, 0
1, 603240, Note_on_c, 0, 68, 120
1, 603350, Note_on_c, 0, 68, 0
1, 603360, Note_on_c, 0, 69, 120
1, 603470, Note_on_c, 0, 69, 0
1, 603480, Note_on_c, 0, 73, 120
1, 603590, Note_on_c, 0, 73, 0
1, 603600, Note_on_c, 0, 76, 120
1, 603710, Note_on_c, 0, 76, 0
1, 603720, Note_on_c, 0, 80, 120
1, 603830, Note_on_c, 0, 80, 0
1, 603830, Note_on_c, 0, 61, 0
1, 603830, Note_on_c, 0, 49, 0
1, 603840, Note_on_c, 0, 81, 120
1, 603840, Note_on_c, 0, 59, 120
1, 603840, Note_on_c, 0, 47, 120
1, 604070, Note_on_c, 0, 81, 0
1, 604070, Note_on_c, 0, 59, 0
1, 604070, Note_on_c, 0, 47, 0
1, 604080, Note_on_c, 0, 81, 120
1, 604080, Note_on_c, 0, 69, 120
1, 604080, Note_on_c, 0, 73, 120
1, 604080, Note_on_c, 0, 57, 120
1, 604080, Note_on_c, 0, 45, 120
1, 604190, Note_on_c, 0, 57, 0
1, 604200, Note_on_c, 0, 52, 120
1, 604310, Note_on_c, 0, 52, 0
1, 604320, Note_on_c, 0, 54, 120
1, 604430, Note_on_c, 0, 54, 0
1, 604440, Note_on_c, 0, 56, 120
1, 604550, Note_on_c, 0, 73, 0
1, 604550, Note_on_c, 0, 56, 0
1, 604560, Note_on_c, 0, 73, 120
1, 604560, Note_on_c, 0, 57, 120
1, 604670, Note_on_c, 0, 57, 0
1, 604680, Note_on_c, 0, 52, 120
1, 604790, Note_on_c, 0, 81, 0
1, 604790, Note_on_c, 0, 69, 0
1, 604790, Note_on_c, 0, 73, 0
1, 604790, Note_on_c, 0, 52, 0
1, 604790, Note_on_c, 0, 45, 0
1, 604800, Note_on_c, 0, 81, 120
1, 604800, Note_on_c, 0, 69, 120
1, 604800, Note_on_c, 0, 74, 120
1, 604800, Note_on_c, 0, 59, 120
1, 604800, Note_on_c, 0, 47, 120
1, 604910, Note_on_c, 0, 59, 0
1, 604920, Note_on_c, 0, 57, 120
1, 605030, Note_on_c, 0, 57, 0
1, 605040, Note_on_c, 0, 59, 120
1, 605150, Note_on_c, 0, 59, 0
1, 605160, Note_on_c, 0, 57, 120
1, 605270, Note_on_c, 0, 74, 0
1, 605270, Note_on_c, 0, 57, 0
1, 605270, Note_on_c, 0, 47, 0
1, 605280, Note_on_c, 0, 76, 120
1, 605280, Note_on_c, 0, 61, 120
1, 605280, Note_on_c, 0, 49, 120
1, 605390, Note_on_c, 0, 61, 0
1, 605400, Note_on_c, 0, 57, 120
1, 605510, Note_on_c, 0, 81, 0
1, 605510, Note_on_c, 0, 69, 0
1, 605510, Note_on_c, 0, 76, 0
1, 605510, Note_on_c, 0, 57, 0
1, 605510, Note_on_c, 0, 49, 0
1, 605520, Note_on_c, 0, 80, 120
1, 605520, Note_on_c, 0, 68, 120
1, 605520, Note_on_c, 0, 76, 120
1, 605520, Note_on_c, 0, 64, 120
1, 605520, Note_on_c, 0, 52, 120
1, 605630, Note_on_c, 0, 64, 0
1, 605640, Note_on_c, 0, 66, 120
1, 605750, Note_on_c, 0, 66, 0
1, 605760, Note_on_c, 0, 64, 120
1, 605774, Control_c, 0, 64, 127
1, 605870, Note_on_c, 0, 64, 0
1, 605880, Note_on_c, 0, 62, 120
1, 605990, Note_on_c, 0, 76, 0
1, 605990, Note_on_c, 0, 62, 0
1, 606000, Note_on_c, 0, 74, 120
1, 606000, Note_on_c, 0, 64, 120
1, 606110, Note_on_c, 0, 64, 0
1, 606120, Note_on_c, 0, 62, 120
1, 606230, Note_on_c, 0, 80, 0
1, 606230, Note_on_c, 0, 68, 0
1, 606230, Note_on_c, 0, 74, 0
1, 606230, Note_on_c, 0, 62, 0
1, 606230, Note_on_c, 0, 52, 0
1, 606240, Note_on_c, 0, 76, 120
1, 606240, Note_on_c, 0, 64, 120
1, 606240, Note_on_c, 0, 73, 120
1, 606240, Note_on_c, 0, 61, 120
1, 606240, Note_on_c, 0, 52, 120
1, 606350, Note_on_c, 0, 61, 0
1, 606360, Note_on_c, 0, 62, 120
1, 606470, Note_on_c, 0, 62, 0
1, 606480, Note_on_c, 0, 61, 120
1, 606590, Note_on_c, 0, 61, 0
1, 606600, Note_on_c, 0, 59, 120
1, 606669, Control_c, 0, 64, 0
1, 606710, Note_on_c, 0, 73, 0
1, 606710, Note_on_c, 0, 59, 0
1, 606720, Note_on_c, 0, 71, 120
1, 606720, Note_on_c, 0, 61, 120
1, 606830, Note_on_c, 0, 61, 0
1, 606840, Note_on_c, 0, 59, 120
1, 606950, Note_on_c, 0, 76, 0
1, 606950, Note_on_c, 0, 64, 0
1, 606950, Note_on_c, 0, 71, 0
1, 606950, Note_on_c, 0, 59, 0
1, 606950, Note_on_c, 0, 52, 0
1, 606960, Note_on_c, 0, 78, 120
1, 606960, Note_on_c, 0, 66, 120
1, 606960, Note_on_c, 0, 69, 120
1, 606960, Note_on_c, 0, 57, 120
1, 606960, Note_on_c, 0, 52, 120
1, 607070, Note_on_c, 0, 57, 0
1, 607080, Note_on_c, 0, 56, 120
1, 607190, Note_on_c, 0, 56, 0
1, 607200, Note_on_c, 0, 54, 120
1, 607310, Note_on_c, 0, 54, 0
1, 607320, Note_on_c, 0, 56, 120
1, 607430, Note_on_c, 0, 69, 0
1, 607430, Note_on_c, 0, 56, 0
1, 607430, Note_on_c, 0, 52, 0
1, 607440, Note_on_c, 0, 69, 120
1, 607440, Note_on_c, 0, 57, 120
1, 607550, Note_on_c, 0, 57, 0
1, 607560, Note_on_c, 0, 54, 120
1, 607670, Note_on_c, 0, 78, 0
1, 607670, Note_on_c, 0, 66, 0
1, 607670, Note_on_c, 0, 69, 0
1, 607670, Note_on_c, 0, 54, 0
1, 607680, Note_on_c, 0, 78, 120
1, 607680, Note_on_c, 0, 66, 120
1, 607680, Note_on_c, 0, 71, 120
1, 607680, Note_on_c, 0, 59, 120
1, 607680, Note_on_c, 0, 50, 120
1, 607790, Note_on_c, 0, 59, 0
1, 607800, Note_on_c, 0, 57, 120
1, 607910, Note_on_c, 0, 57, 0
1, 607920, Note_on_c, 0, 56, 120
1, 608030, Note_on_c, 0, 56, 0
1, 608040, Note_on_c, 0, 57, 120
1, 608150, Note_on_c, 0, 71, 0
1, 608150, Note_on_c, 0, 57, 0
1, 608150, Note_on_c, 0, 50, 0
1, 608160, Note_on_c, 0, 73, 120
1, 608160, Note_on_c, 0, 59, 120
1, 608270, Note_on_c, 0, 59, 0
1, 608280, Note_on_c, 0, 61, 120
1, 608390, Note_on_c, 0, 78, 0
1, 608390, Note_on_c, 0, 66, 0
1, 608390, Note_on_c, 0, 73, 0
1, 608390, Note_on_c, 0, 61, 0
1, 608400, Note_on_c, 0, 76, 120
1, 608400, Note_on_c, 0, 64, 120
1, 608400, Note_on_c, 0, 73, 120
1, 608400, Note_on_c, 0, 61, 120
1, 608400, Note_on_c, 0, 45, 120
1, 608510, Note_on_c, 0, 61, 0
1, 608520, Note_on_c, 0, 62, 120
1, 608572, Control_c, 0, 64, 127
1, 608630, Note_on_c, 0, 62, 0
1, 608640, Note_on_c, 0, 61, 120
1, 608750, Note_on_c, 0, 61, 0
1, 608760, Note_on_c, 0, 59, 120
1, 608870, Note_on_c, 0, 73, 0
1, 608870, Note_on_c, 0, 59, 0
1, 608870, Note_on_c, 0, 45, 0
1, 608880, Note_on_c, 0, 71, 120
1, 608880, Note_on_c, 0, 61, 120
1, 608990, Note_on_c, 0, 61, 0
1, 609000, Note_on_c, 0, 59, 120
1, 609110, Note_on_c, 0, 76, 0
1, 609110, Note_on_c, 0, 64, 0
1, 609110, Note_on_c, 0, 71, 0
1, 609110, Note_on_c, 0, 59, 0
1, 609120, Note_on_c, 0, 73, 120
1, 609120, Note_on_c, 0, 61, 120
1, 609120, Note_on_c, 0, 69, 120
1, 609120, Note_on_c, 0, 57, 120
1, 609230, Note_on_c, 0, 57, 0
1, 609240, Note_on_c, 0, 59, 120
1, 609350, Note_on_c, 0, 59, 0
1, 609360, Note_on_c, 0, 57, 120
1, 609470, Note_on_c, 0, 57, 0
1, 609480, Note_on_c, 0, 55, 120
1, 609590, Note_on_c, 0, 69, 0
1, 609590, Note_on_c, 0, 55, 0
1, 609600, Note_on_c, 0, 67, 120
1, 609600, Note_on_c, 0, 57, 120
1, 609710, Note_on_c, 0, 57, 0
1, 609720, Note_on_c, 0, 55, 120
1, 609764, Control_c, 0, 64, 0
1, 609830, Note_on_c, 0, 73, 0
1, 609830, Note_on_c, 0, 61, 0
1, 609830, Note_on_c, 0, 67, 0
1, 609830, Note_on_c, 0, 55, 0
1, 609840, Note_on_c, 0, 74, 120
1, 609840, Note_on_c, 0, 62, 120
1, 609840, Note_on_c, 0, 66, 120
1, 609840, Note_on_c, 0, 54, 120
1, 609840, Note_on_c, 0, 47, 120
1, 609950, Note_on_c, 0, 54, 0
1, 609960, Note_on_c, 0, 52, 120
1, 610070, Note_on_c, 0, 52, 0
1, 610080, Note_on_c, 0, 50, 120
1, 610190, Note_on_c, 0, 50, 0
1, 610200, Note_on_c, 0, 52, 120
1, 610310, Note_on_c, 0, 66, 0
1, 610310, Note_on_c, 0, 52, 0
1, 610320, Note_on_c, 0, 66, 120
1, 610320, Note_on_c, 0, 54, 120
1, 610430, Note_on_c, 0, 54, 0
1, 610440, Note_on_c, 0, 50, 120
1, 610550, Note_on_c, 0, 74, 0
1, 610550, Note_on_c, 0, 62, 0
1, 610550, Note_on_c, 0, 66, 0
1, 610550, Note_on_c, 0, 50, 0
1, 610550, Note_on_c, 0, 47, 0
1, 610560, Note_on_c, 0, 74, 120
1, 610560, Note_on_c, 0, 62, 120
1, 610560, Note_on_c, 0, 68, 120
1, 610560, Note_on_c, 0, 52, 120
1, 610560, Note_on_c, 0, 40, 120
1, 610670, Note_on_c, 0, 52, 0
1, 610680, Note_on_c, 0, 54, 120
1, 610790, Note_on_c, 0, 54, 0
1, 610800, Note_on_c, 0, 56, 120
1, 610910, Note_on_c, 0, 56, 0
1, 610920, Note_on_c, 0, 57, 120
1, 611030, Note_on_c, 0, 68, 0
1, 611030, Note_on_c, 0, 57, 0
1, 611040, Note_on_c, 0, 69, 120
1, 611040, Note_on_c, 0, 56, 120
1, 611150, Note_on_c, 0, 56, 0
1, 611160, Note_on_c, 0, 54, 120
1, 611270, Note_on_c, 0, 74, 0
1, 611270, Note_on_c, 0, 62, 0
1, 611270, Note_on_c, 0, 69, 0
1, 611270, Note_on_c, 0, 54, 0
1, 611270, Note_on_c, 0, 40, 0
1, 611280, Note_on_c, 0, 73, 120
1, 611280, Note_on_c, 0, 61, 120
1, 611280, Note_on_c, 0, 69, 120
1, 611280, Note_on_c, 0, 54, 120
1, 611390, Note_on_c, 0, 69, 0
1, 611400, Note_on_c, 0, 71, 120
1, 611510, Note_on_c, 0, 71, 0
1, 611520, Note_on_c, 0, 69, 120
1, 611630, Note_on_c, 0, 69, 0
1, 611640, Note_on_c, 0, 67, 120
1, 611750, Note_on_c, 0, 67, 0
1, 611750, Note_on_c, 0, 54, 0
1, 611760, Note_on_c, 0, 69, 120
1, 611760, Note_on_c, 0, 64, 120
1, 611760, Note_on_c, 0, 52, 120
1, 611870, Note_on_c, 0, 69, 0
1, 611880, Note_on_c, 0, 67, 120
1, 611990, Note_on_c, 0, 73, 0
1, 611990, Note_on_c, 0, 61, 0
1, 611990, Note_on_c, 0, 67, 0
1, 611990, Note_on_c, 0, 64, 0
1, 611990, Note_on_c, 0, 52, 0
1, 612000, Note_on_c, 0, 69, 120
1, 612000, Note_on_c, 0, 66, 120
1, 612000, Note_on_c, 0, 62, 120
1, 612000, Note_on_c, 0, 50, 120
1, 612110, Note_on_c, 0, 66, 0
1, 612120, Note_on_c, 0, 67, 120
1, 612230, Note_on_c, 0, 67, 0
1, 612240, Note_on_c, 0, 66, 120
1, 612350, Note_on_c, 0, 66, 0
1, 612360, Note_on_c, 0, 64, 120
1, 612470, Note_on_c, 0, 64, 0
1, 612470, Note_on_c, 0, 62, 0
1, 612470, Note_on_c, 0, 50, 0
1, 612480, Note_on_c, 0, 66, 120
1, 612480, Note_on_c, 0, 61, 120
1, 612480, Note_on_c, 0, 49, 120
1, 612590, Note_on_c, 0, 66, 0
1, 612600, Note_on_c, 0, 64, 120
1, 612710, Note_on_c, 0, 69, 0
1, 612710, Note_on_c, 0, 64, 0
1, 612710, Note_on_c, 0, 61, 0
1, 612710, Note_on_c, 0, 49, 0
1, 612720, Note_on_c, 0, 79, 120
1, 612720, Note_on_c, 0, 67, 120
1, 612720, Note_on_c, 0, 74, 120
1, 612720, Note_on_c, 0, 59, 120
1, 612720, Note_on_c, 0, 47, 120
1, 612830, Note_on_c, 0, 74, 0
1, 612840, Note_on_c, 0, 76, 120
1, 612950, Note_on_c, 0, 76, 0
1, 612950, Note_on_c, 0, 59, 0
1, 612950, Note_on_c, 0, 47, 0
1, 612960, Note_on_c, 0, 74, 120
1, 612960, Note_on_c, 0, 57, 120
1, 612960, Note_on_c, 0, 45, 120
1, 613070, Note_on_c, 0, 74, 0
1, 613080, Note_on_c, 0, 73, 120
1, 613190, Note_on_c, 0, 73, 0
1, 613200, Note_on_c, 0, 74, 120
1, 613310, Note_on_c, 0, 74, 0
1, 613320, Note_on_c, 0, 73, 120
1, 613430, Note_on_c, 0, 79, 0
1, 613430, Note_on_c, 0, 67, 0
1, 613430, Note_on_c, 0, 73, 0
1, 613430, Note_on_c, 0, 57, 0
1, 613430, Note_on_c, 0, 45, 0
1, 613440, Note_on_c, 0, 79, 120
1, 613440, Note_on_c, 0, 67, 120
1, 613440, Note_on_c, 0, 71, 120
1, 613440, Note_on_c, 0, 62, 120
1, 613440, Note_on_c, 0, 57, 120
1, 613550, Note_on_c, 0, 71, 0
1, 613560, Note_on_c, 0, 73, 120
1, 613670, Note_on_c, 0, 73, 0
1, 613680, Note_on_c, 0, 71, 120
1, 613790, Note_on_c, 0, 71, 0
1, 613800, Note_on_c, 0, 69, 120
1, 613910, Note_on_c, 0, 69, 0
1, 613910, Note_on_c, 0, 62, 0
1, 613920, Note_on_c, 0, 76, 120
1, 613920, Note_on_c, 0, 71, 120
1, 613920, Note_on_c, 0, 61, 120
1, 614030, Note_on_c, 0, 76, 0
1, 614030, Note_on_c, 0, 71, 0
1, 614040, Note_on_c, 0, 69, 120
1, 614150, Note_on_c, 0, 79, 0
1, 614150, Note_on_c, 0, 67, 0
1, 614150, Note_on_c, 0, 69, 0
1, 614150, Note_on_c, 0, 57, 0
1, 614150, Note_on_c, 0, 61, 0
1, 614160, Note_on_c, 0, 78, 120
1, 614160, Note_on_c, 0, 66, 120
1, 614160, Note_on_c, 0, 73, 120
1, 614160, Note_on_c, 0, 58, 120
1, 614160, Note_on_c, 0, 46, 120
1, 614270, Note_on_c, 0, 73, 0
1, 614280, Note_on_c, 0, 74, 120
1, 614390, Note_on_c, 0, 74, 0
1, 614400, Note_on_c, 0, 73, 120
1, 614510, Note_on_c, 0, 73, 0
1, 614520, Note_on_c, 0, 71, 120
1, 614630, Note_on_c, 0, 71, 0
1, 614640, Note_on_c, 0, 73, 120
1, 614750, Note_on_c, 0, 73, 0
1, 614760, Note_on_c, 0, 71, 120
1, 614870, Note_on_c, 0, 78, 0
1, 614870, Note_on_c, 0, 66, 0
1, 614870, Note_on_c, 0, 71, 0
1, 614870, Note_on_c, 0, 58, 0
1, 614870, Note_on_c, 0, 46, 0
1, 614880, Note_on_c, 0, 73, 120
1, 614880, Note_on_c, 0, 54, 120
1, 614880, Note_on_c, 0, 42, 120
1, 614990, Note_on_c, 0, 73, 0
1, 615000, Note_on_c, 0, 66, 120
1, 615090, Control_c, 0, 64, 127
1, 615110, Note_on_c, 0, 66, 0
1, 615120, Note_on_c, 0, 70, 120
1, 615230, Note_on_c, 0, 70, 0
1, 615240, Note_on_c, 0, 71, 120
1, 615350, Note_on_c, 0, 71, 0
1, 615360, Note_on_c, 0, 73, 120
1, 615470, Note_on_c, 0, 73, 0
1, 615480, Note_on_c, 0, 66, 120
1, 615590, Note_on_c, 0, 66, 0
1, 615590, Note_on_c, 0, 54, 0
1, 615590, Note_on_c, 0, 42, 0
1, 615600, Note_on_c, 0, 61, 120
1, 615600, Note_on_c, 0, 64, 120
1, 615600, Note_on_c, 0, 52, 120
1, 615703, Control_c, 0, 64, 0
1, 615710, Note_on_c, 0, 61, 0
1, 615720, Note_on_c, 0, 62, 120
1, 615828, Control_c, 0, 64, 127
1, 615830, Note_on_c, 0, 62, 0
1, 615840, Note_on_c, 0, 61, 120
1, 615950, Note_on_c, 0, 61, 0
1, 615960, Note_on_c, 0, 59, 120
1, 616070, Note_on_c, 0, 59, 0
1, 616080, Note_on_c, 0, 61, 120
1, 616190, Note_on_c, 0, 61, 0
1, 616200, Note_on_c, 0, 59, 120
1, 616310, Note_on_c, 0, 59, 0
1, 616310, Note_on_c, 0, 64, 0
1, 616310, Note_on_c, 0, 52, 0
1, 616320, Note_on_c, 0, 66, 120
1, 616320, Note_on_c, 0, 58, 120
1, 616320, Note_on_c, 0, 64, 120
1, 616320, Note_on_c, 0, 52, 120
1, 616430, Note_on_c, 0, 58, 0
1, 616440, Note_on_c, 0, 59, 120
1, 616550, Note_on_c, 0, 59, 0
1, 616552, Control_c, 0, 64, 0
1, 616560, Note_on_c, 0, 58, 120
1, 616670, Note_on_c, 0, 58, 0
1, 616680, Note_on_c, 0, 56, 120
1, 616790, Note_on_c, 0, 56, 0
1, 616800, Note_on_c, 0, 58, 120
1, 616910, Note_on_c, 0, 58, 0
1, 616920, Note_on_c, 0, 61, 120
1, 617030, Note_on_c, 0, 66, 0
1, 617030, Note_on_c, 0, 61, 0
1, 617030, Note_on_c, 0, 64, 0
1, 617030, Note_on_c, 0, 52, 0
1, 617040, Note_on_c, 0, 66, 120
1, 617040, Note_on_c, 0, 59, 120
1, 617040, Note_on_c, 0, 63, 120
1, 617040, Note_on_c, 0, 51, 120
1, 617150, Note_on_c, 0, 59, 0
1, 617160, Note_on_c, 0, 61, 120
1, 617270, Note_on_c, 0, 61, 0
1, 617273, Control_c, 0, 64, 127
1, 617280, Note_on_c, 0, 59, 120
1, 617390, Note_on_c, 0, 59, 0
1, 617400, Note_on_c, 0, 58, 120
1, 617510, Note_on_c, 0, 58, 0
1, 617510, Note_on_c, 0, 63, 0
1, 617510, Note_on_c, 0, 51, 0
1, 617520, Note_on_c, 0, 59, 120
1, 617630, Note_on_c, 0, 59, 0
1, 617640, Note_on_c, 0, 61, 120
1, 617750, Note_on_c, 0, 66, 0
1, 617750, Note_on_c, 0, 61, 0
1, 617760, Note_on_c, 0, 83, 120
1, 617760, Note_on_c, 0, 71, 120
1, 617760, Note_on_c, 0, 62, 120
1, 617870, Note_on_c, 0, 62, 0
1, 617880, Note_on_c, 0, 64, 120
1, 617990, Note_on_c, 0, 64, 0
1, 618000, Note_on_c, 0, 62, 120
1, 618110, Note_on_c, 0, 62, 0
1, 618120, Note_on_c, 0, 61, 120
1, 618230, Note_on_c, 0, 61, 0
1, 618240, Note_on_c, 0, 62, 120
1, 618350, Note_on_c, 0, 62, 0
1, 618360, Note_on_c, 0, 66, 120
1, 618362, Control_c, 0, 64, 0
1, 618470, Note_on_c, 0, 83, 0
1, 618470, Note_on_c, 0, 71, 0
1, 618470, Note_on_c, 0, 66, 0
1, 618480, Note_on_c, 0, 93, 120
1, 618480, Note_on_c, 0, 81, 120
1, 618480, Note_on_c, 0, 66, 120
1, 618590, Note_on_c, 0, 66, 0
1, 618598, Control_c, 0, 64, 127
1, 618600, Note_on_c, 0, 67, 120
1, 618710, Note_on_c, 0, 67, 0
1, 618720, Note_on_c, 0, 66, 120
1, 618830, Note_on_c, 0, 66, 0
1, 618840, Note_on_c, 0, 64, 120
1, 618950, Note_on_c, 0, 64, 0
1, 618960, Note_on_c, 0, 66, 120
1, 619070, Note_on_c, 0, 66, 0
1, 619080, Note_on_c, 0, 63, 120
1, 619190, Note_on_c, 0, 93, 0
1, 619190, Note_on_c, 0, 81, 0
1, 619190, Note_on_c, 0, 63, 0
1, 619200, Note_on_c, 0, 93, 120
1, 619200, Note_on_c, 0, 81, 120
1, 619200, Note_on_c, 0, 63, 120
1, 619200, Note_on_c, 0, 59, 120
1, 619310, Note_on_c, 0, 63, 0
1, 619320, Note_on_c, 0, 64, 120
1, 619430, Note_on_c, 0, 64, 0
1, 619440, Note_on_c, 0, 63, 120
1, 619550, Note_on_c, 0, 63, 0
1, 619560, Note_on_c, 0, 61, 120
1, 619670, Note_on_c, 0, 61, 0
1, 619680, Note_on_c, 0, 63, 120
1, 619790, Note_on_c, 0, 63, 0
1, 619800, Note_on_c, 0, 59, 120
1, 619910, Note_on_c, 0, 93, 0
1, 619910, Note_on_c, 0, 81, 0
1, 619910, Note_on_c, 0, 59, 0
1, 619910, Note_on_c, 0, 59, 0
1, 619920, Note_on_c, 0, 92, 120
1, 619920, Note_on_c, 0, 80, 120
1, 619920, Note_on_c, 0, 59, 120
1, 620030, Note_on_c, 0, 59, 0
1, 620040, Note_on_c, 0, 61, 120
1, 620046, Control_c, 0, 64, 0
1, 620150, Note_on_c, 0, 61, 0
1, 620160, Note_on_c, 0, 59, 120
1, 620270, Note_on_c, 0, 59, 0
1, 620280, Note_on_c, 0, 58, 120
1, 620390, Note_on_c, 0, 58, 0
1, 620400, Note_on_c, 0, 59, 120
1, 620510, Note_on_c, 0, 59, 0
1, 620520, Note_on_c, 0, 61, 120
1, 620630, Note_on_c, 0, 92, 0
1, 620630, Note_on_c, 0, 80, 0
1, 620630, Note_on_c, 0, 61, 0
1, 620640, Note_on_c, 0, 91, 120
1, 620640, Note_on_c, 0, 79, 120
1, 620640, Note_on_c, 0, 59, 120
1, 620640, Note_on_c, 0, 52, 120
1, 620750, Note_on_c, 0, 59, 0
1, 620760, Note_on_c, 0, 61, 120
1, 620870, Note_on_c, 0, 61, 0
1, 620880, Note_on_c, 0, 59, 120
1, 620990, Note_on_c, 0, 59, 0
1, 621000, Note_on_c, 0, 57, 120
1, 621110, Note_on_c, 0, 57, 0
1, 621120, Note_on_c, 0, 59, 120
1, 621230, Note_on_c, 0, 59, 0
1, 621240, Note_on_c, 0, 64, 120
1, 621350, Note_on_c, 0, 91, 0
1, 621350, Note_on_c, 0, 79, 0
1, 621350, Note_on_c, 0, 64, 0
1, 621350, Note_on_c, 0, 52, 0
1, 621360, Note_on_c, 0, 88, 120
1, 621360, Note_on_c, 0, 91, 120
1, 621360, Note_on_c, 0, 79, 120
1, 621360, Note_on_c, 0, 62, 120
1, 621360, Note_on_c, 0, 58, 120
1, 621470, Note_on_c, 0, 62, 0
1, 621470, Note_on_c, 0, 58, 0
1, 621480, Note_on_c, 0, 64, 120
1, 621590, Note_on_c, 0, 64, 0
1, 621600, Note_on_c, 0, 62, 120
1, 621600, Note_on_c, 0, 58, 120
1, 621710, Note_on_c, 0, 62, 0
1, 621710, Note_on_c, 0, 58, 0
1, 621720, Note_on_c, 0, 50, 120
1, 621830, Note_on_c, 0, 50, 0
1, 621840, Note_on_c, 0, 58, 120
1, 621950, Note_on_c, 0, 58, 0
1, 621960, Note_on_c, 0, 50, 120
1, 622070, Note_on_c, 0, 88, 0
1, 622070, Note_on_c, 0, 91, 0
1, 622070, Note_on_c, 0, 79, 0
1, 622070, Note_on_c, 0, 50, 0
1, 622080, Note_on_c, 0, 76, 120
1, 622080, Note_on_c, 0, 79, 120
1, 622080, Note_on_c, 0, 67, 120
1, 622080, Note_on_c, 0, 61, 120
1, 622080, Note_on_c, 0, 57, 120
1, 622190, Note_on_c, 0, 61, 0
1, 622190, Note_on_c, 0, 57, 0
1, 622200, Note_on_c, 0, 64, 120
1, 622310, Note_on_c, 0, 64, 0
1, 622320, Note_on_c, 0, 61, 120
1, 622320, Note_on_c, 0, 57, 120
1, 622430, Note_on_c, 0, 61, 0
1, 622430, Note_on_c, 0, 57, 0
1, 622440, Note_on_c, 0, 49, 120
1, 622550, Note_on_c, 0, 49, 0
1, 622560, Note_on_c, 0, 57, 120
1, 622670, Note_on_c, 0, 57, 0
1, 622680, Note_on_c, 0, 49, 120
1, 622790, Note_on_c, 0, 76, 0
1, 622790, Note_on_c, 0, 79, 0
1, 622790, Note_on_c, 0, 67, 0
1, 622790, Note_on_c, 0, 49, 0
1, 622800, Note_on_c, 0, 78, 120
1, 622800, Note_on_c, 0, 66, 120
1, 622800, Note_on_c, 0, 76, 120
1, 622800, Note_on_c, 0, 50, 120
1, 622910, Note_on_c, 0, 50, 0
1, 622920, Note_on_c, 0, 55, 120
1, 623030, Note_on_c, 0, 55, 0
1, 623040, Note_on_c, 0, 59, 120
1, 623150, Note_on_c, 0, 59, 0
1, 623160, Note_on_c, 0, 61, 120
1, 623270, Note_on_c, 0, 76, 0
1, 623270, Note_on_c, 0, 61, 0
1, 623280, Note_on_c, 0, 74, 120
1, 623280, Note_on_c, 0, 62, 120
1, 623390, Note_on_c, 0, 62, 0
1, 623400, Note_on_c, 0, 64, 120
1, 623510, Note_on_c, 0, 78, 0
1, 623510, Note_on_c, 0, 66, 0
1, 623510, Note_on_c, 0, 74, 0
1, 623510, Note_on_c, 0, 64, 0
1, 623520, Note_on_c, 0, 74, 120
1, 623520, Note_on_c, 0, 66, 120
1, 623630, Note_on_c, 0, 66, 0
1, 623640, Note_on_c, 0, 67, 120
1, 623750, Note_on_c, 0, 67, 0
1, 623760, Note_on_c, 0, 66, 120
1, 623870, Note_on_c, 0, 66, 0
1, 623880, Note_on_c, 0, 64, 120
1, 623990, Note_on_c, 0, 64, 0
1, 624000, Note_on_c, 0, 66, 120
1, 624110, Note_on_c, 0, 66, 0
1, 624120, Note_on_c, 0, 64, 120
1, 624230, Note_on_c, 0, 74, 0
1, 624230, Note_on_c, 0, 64, 0
1, 624240, Note_on_c, 0, 90, 120
1, 624240, Note_on_c, 0, 78, 120
1, 624240, Note_on_c, 0, 64, 120
1, 624260, Control_c, 0, 64, 127
1, 624350, Note_on_c, 0, 90, 0
1, 624350, Note_on_c, 0, 64, 0
1, 624360, Note_on_c, 0, 81, 120
1, 624360, Note_on_c, 0, 66, 120
1, 624470, Control_c, 0, 64, 0
1, 624470, Note_on_c, 0, 81, 0
1, 624470, Note_on_c, 0, 66, 0
1, 624480, Note_on_c, 0, 83, 120
1, 624480, Note_on_c, 0, 64, 120
1, 624590, Note_on_c, 0, 83, 0
1, 624590, Note_on_c, 0, 64, 0
1, 624600, Note_on_c, 0, 85, 120
1, 624600, Note_on_c, 0, 62, 120
1, 624659, Control_c, 0, 64, 127
1, 624710, Note_on_c, 0, 85, 0
1, 624710, Note_on_c, 0, 78, 0
1, 624710, Note_on_c, 0, 62, 0
1, 624720, Note_on_c, 0, 86, 120
1, 624720, Note_on_c, 0, 78, 120
1, 624720, Note_on_c, 0, 64, 120
1, 624830, Note_on_c, 0, 86, 0
1, 624830, Note_on_c, 0, 64, 0
1, 624840, Note_on_c, 0, 90, 120
1, 624840, Note_on_c, 0, 62, 120
1, 624950, Note_on_c, 0, 90, 0
1, 624950, Note_on_c, 0, 78, 0
1, 624950, Note_on_c, 0, 62, 0
1, 624960, Note_on_c, 0, 91, 120
1, 624960, Note_on_c, 0, 79, 120
1, 624960, Note_on_c, 0, 74, 120
1, 624960, Note_on_c, 0, 64, 120
1, 625070, Note_on_c, 0, 91, 0
1, 625080, Note_on_c, 0, 86, 120
1, 625190, Note_on_c, 0, 86, 0
1, 625200, Note_on_c, 0, 91, 120
1, 625310, Note_on_c, 0, 91, 0
1, 625320, Note_on_c, 0, 86, 120
1, 625430, Note_on_c, 0, 86, 0
1, 625430, Note_on_c, 0, 79, 0
1, 625430, Note_on_c, 0, 74, 0
1, 625430, Note_on_c, 0, 64, 0
1, 625440, Note_on_c, 0, 93, 120
1, 625440, Note_on_c, 0, 81, 120
1, 625440, Note_on_c, 0, 66, 120
1, 625550, Note_on_c, 0, 93, 0
1, 625560, Note_on_c, 0, 86, 120
1, 625670, Note_on_c, 0, 86, 0
1, 625670, Note_on_c, 0, 81, 0
1, 625670, Note_on_c, 0, 66, 0
1, 625680, Note_on_c, 0, 93, 120
1, 625680, Note_on_c, 0, 81, 120
1, 625680, Note_on_c, 0, 73, 120
1, 625680, Note_on_c, 0, 64, 120
1, 625680, Note_on_c, 0, 69, 120
1, 625736, Control_c, 0, 64, 0
1, 625790, Note_on_c, 0, 93, 0
1, 625800, Note_on_c, 0, 95, 120
1, 625856, Control_c, 0, 64, 127
1, 625910, Note_on_c, 0, 95, 0
1, 625920, Note_on_c, 0, 93, 120
1, 626030, Note_on_c, 0, 93, 0
1, 626040, Note_on_c, 0, 91, 120
1, 626150, Note_on_c, 0, 91, 0
1, 626150, Note_on_c, 0, 81, 0
1, 626150, Note_on_c, 0, 69, 0
1, 626160, Note_on_c, 0, 93, 120
1, 626160, Note_on_c, 0, 67, 120
1, 626270, Note_on_c, 0, 93, 0
1, 626280, Note_on_c, 0, 91, 120
1, 626390, Note_on_c, 0, 91, 0
1, 626390, Note_on_c, 0, 67, 0
1, 626390, Note_on_c, 0, 73, 0
1, 626390, Note_on_c, 0, 64, 0
1, 626400, Note_on_c, 0, 90, 120
1, 626400, Note_on_c, 0, 78, 120
1, 626400, Note_on_c, 0, 69, 120
1, 626400, Note_on_c, 0, 66, 120
1, 626400, Note_on_c, 0, 62, 120
1, 626510, Note_on_c, 0, 90, 0
1, 626520, Note_on_c, 0, 91, 120
1, 626630, Note_on_c, 0, 91, 0
1, 626640, Note_on_c, 0, 90, 120
1, 626750, Note_on_c, 0, 90, 0
1, 626760, Note_on_c, 0, 88, 120
1, 626870, Note_on_c, 0, 88, 0
1, 626870, Note_on_c, 0, 78, 0
1, 626870, Note_on_c, 0, 66, 0
1, 626870, Note_on_c, 0, 62, 0
1, 626880, Note_on_c, 0, 90, 120
1, 626880, Note_on_c, 0, 64, 120
1, 626880, Note_on_c, 0, 61, 120
1, 626990, Note_on_c, 0, 90, 0
1, 627000, Note_on_c, 0, 88, 120
1, 627110, Note_on_c, 0, 88, 0
1, 627110, Note_on_c, 0, 64, 0
1, 627110, Note_on_c, 0, 69, 0
1, 627110, Note_on_c, 0, 61, 0
1, 627120, Note_on_c, 0, 86, 120
1, 627120, Note_on_c, 0, 74, 120
1, 627120, Note_on_c, 0, 71, 120
1, 627120, Note_on_c, 0, 66, 120
1, 627120, Note_on_c, 0, 61, 120
1, 627129, Control_c, 0, 64, 0
1, 627230, Note_on_c, 0, 86, 0
1, 627240, Note_on_c, 0, 78, 120
1, 627350, Note_on_c, 0, 78, 0
1, 627360, Note_on_c, 0, 83, 120
1, 627470, Note_on_c, 0, 83, 0
1, 627480, Note_on_c, 0, 85, 120
1, 627590, Note_on_c, 0, 85, 0
1, 627590, Note_on_c, 0, 74, 0
1, 627590, Note_on_c, 0, 61, 0
1, 627600, Note_on_c, 0, 86, 120
1, 627600, Note_on_c, 0, 74, 120
1, 627600, Note_on_c, 0, 59, 120
1, 627710, Note_on_c, 0, 86, 0
1, 627720, Note_on_c, 0, 83, 120
1, 627830, Note_on_c, 0, 83, 0
1, 627830, Note_on_c, 0, 74, 0
1, 627830, Note_on_c, 0, 71, 0
1, 627830, Note_on_c, 0, 66, 0
1, 627830, Note_on_c, 0, 59, 0
1, 627840, Note_on_c, 0, 88, 120
1, 627840, Note_on_c, 0, 76, 120
1, 627840, Note_on_c, 0, 71, 120
1, 627840, Note_on_c, 0, 61, 120
1, 627950, Note_on_c, 0, 88, 0
1, 627960, Note_on_c, 0, 83, 120
1, 628070, Note_on_c, 0, 83, 0
1, 628080, Note_on_c, 0, 88, 120
1, 628190, Note_on_c, 0, 88, 0
1, 628200, Note_on_c, 0, 83, 120
1, 628310, Note_on_c, 0, 83, 0
1, 628310, Note_on_c, 0, 76, 0
1, 628310, Note_on_c, 0, 61, 0
1, 628320, Note_on_c, 0, 90, 120
1, 628320, Note_on_c, 0, 78, 120
1, 628320, Note_on_c, 0, 62, 120
1, 628430, Note_on_c, 0, 90, 0
1, 628440, Note_on_c, 0, 83, 120
1, 628550, Note_on_c, 0, 83, 0
1, 628550, Note_on_c, 0, 78, 0
1, 628550, Note_on_c, 0, 71, 0
1, 628550, Note_on_c, 0, 62, 0
1, 628560, Note_on_c, 0, 90, 120
1, 628560, Note_on_c, 0, 66, 120
1, 628560, Note_on_c, 0, 69, 120
1, 628560, Note_on_c, 0, 66, 120
1, 628560, Note_on_c, 0, 62, 120
1, 628670, Note_on_c, 0, 90, 0
1, 628680, Note_on_c, 0, 91, 120
1, 628733, Control_c, 0, 64, 127
1, 628790, Note_on_c, 0, 91, 0
1, 628800, Note_on_c, 0, 90, 120
1, 628910, Note_on_c, 0, 90, 0
1, 628920, Note_on_c, 0, 88, 120
1, 629030, Note_on_c, 0, 88, 0
1, 629030, Note_on_c, 0, 66, 0
1, 629030, Note_on_c, 0, 66, 0
1, 629030, Note_on_c, 0, 62, 0
1, 629040, Note_on_c, 0, 90, 120
1, 629040, Note_on_c, 0, 64, 120
1, 629040, Note_on_c, 0, 61, 120
1, 629150, Note_on_c, 0, 90, 0
1, 629160, Note_on_c, 0, 88, 120
1, 629270, Note_on_c, 0, 88, 0
1, 629270, Note_on_c, 0, 64, 0
1, 629270, Note_on_c, 0, 69, 0
1, 629270, Note_on_c, 0, 61, 0
1, 629280, Note_on_c, 0, 86, 120
1, 629280, Note_on_c, 0, 62, 120
1, 629280, Note_on_c, 0, 66, 120
1, 629280, Note_on_c, 0, 62, 120
1, 629280, Note_on_c, 0, 59, 120
1, 629390, Note_on_c, 0, 86, 0
1, 629400, Note_on_c, 0, 88, 120
1, 629510, Note_on_c, 0, 88, 0
1, 629520, Note_on_c, 0, 86, 120
1, 629630, Note_on_c, 0, 86, 0
1, 629640, Note_on_c, 0, 85, 120
1, 629750, Note_on_c, 0, 85, 0
1, 629750, Note_on_c, 0, 62, 0
1, 629750, Note_on_c, 0, 62, 0
1, 629750, Note_on_c, 0, 59, 0
1, 629760, Note_on_c, 0, 86, 120
1, 629760, Note_on_c, 0, 61, 120
1, 629760, Note_on_c, 0, 57, 120
1, 629870, Note_on_c, 0, 86, 0
1, 629880, Note_on_c, 0, 85, 120
1, 629990, Note_on_c, 0, 85, 0
1, 629990, Note_on_c, 0, 61, 0
1, 629990, Note_on_c, 0, 66, 0
1, 629990, Note_on_c, 0, 57, 0
1, 630000, Note_on_c, 0, 83, 120
1, 630000, Note_on_c, 0, 71, 120
1, 630000, Note_on_c, 0, 68, 120
1, 630000, Note_on_c, 0, 64, 120
1, 630064, Control_c, 0, 64, 0
1, 630110, Note_on_c, 0, 83, 0
1, 630120, Note_on_c, 0, 76, 120
1, 630230, Note_on_c, 0, 76, 0
1, 630240, Note_on_c, 0, 80, 120
1, 630350, Note_on_c, 0, 80, 0
1, 630360, Note_on_c, 0, 81, 120
1, 630470, Note_on_c, 0, 81, 0
1, 630470, Note_on_c, 0, 71, 0
1, 630470, Note_on_c, 0, 64, 0
1, 630480, Note_on_c, 0, 83, 120
1, 630480, Note_on_c, 0, 71, 120
1, 630480, Note_on_c, 0, 62, 120
1, 630590, Note_on_c, 0, 83, 0
1, 630600, Note_on_c, 0, 76, 120
1, 630710, Note_on_c, 0, 76, 0
1, 630710, Note_on_c, 0, 71, 0
1, 630710, Note_on_c, 0, 68, 0
1, 630710, Note_on_c, 0, 62, 0
1, 630720, Note_on_c, 0, 85, 120
1, 630720, Note_on_c, 0, 73, 120
1, 630720, Note_on_c, 0, 68, 120
1, 630720, Note_on_c, 0, 52, 120
1, 630720, Note_on_c, 0, 61, 120
1, 630830, Note_on_c, 0, 85, 0
1, 630840, Note_on_c, 0, 81, 120
1, 630950, Note_on_c, 0, 81, 0
1, 630960, Note_on_c, 0, 83, 120
1, 631070, Note_on_c, 0, 83, 0
1, 631080, Note_on_c, 0, 85, 120
1, 631190, Note_on_c, 0, 85, 0
1, 631190, Note_on_c, 0, 73, 0
1, 631190, Note_on_c, 0, 61, 0
1, 631200, Note_on_c, 0, 86, 120
1, 631200, Note_on_c, 0, 74, 120
1, 631200, Note_on_c, 0, 59, 120
1, 631310, Note_on_c, 0, 86, 0
1, 631320, Note_on_c, 0, 83, 120
1, 631430, Note_on_c, 0, 83, 0
1, 631430, Note_on_c, 0, 74, 0
1, 631430, Note_on_c, 0, 68, 0
1, 631430, Note_on_c, 0, 52, 0
1, 631430, Note_on_c, 0, 59, 0
1, 631440, Note_on_c, 0, 86, 120
1, 631440, Note_on_c, 0, 78, 120
1, 631440, Note_on_c, 0, 62, 120
1, 631440, Note_on_c, 0, 66, 120
1, 631440, Note_on_c, 0, 59, 120
1, 631550, Note_on_c, 0, 86, 0
1, 631560, Note_on_c, 0, 88, 120
1, 631670, Note_on_c, 0, 88, 0
1, 631680, Note_on_c, 0, 86, 120
1, 631790, Note_on_c, 0, 86, 0
1, 631800, Note_on_c, 0, 85, 120
1, 631910, Note_on_c, 0, 85, 0
1, 631910, Note_on_c, 0, 78, 0
1, 631910, Note_on_c, 0, 62, 0
1, 631910, Note_on_c, 0, 66, 0
1, 631910, Note_on_c, 0, 59, 0
1, 631920, Note_on_c, 0, 86, 120
1, 631920, Note_on_c, 0, 76, 120
1, 631920, Note_on_c, 0, 50, 120
1, 631920, Note_on_c, 0, 47, 120
1, 632030, Note_on_c, 0, 86, 0
1, 632040, Note_on_c, 0, 85, 120
1, 632150, Note_on_c, 0, 85, 0
1, 632150, Note_on_c, 0, 76, 0
1, 632150, Note_on_c, 0, 50, 0
1, 632150, Note_on_c, 0, 47, 0
1, 632160, Note_on_c, 0, 83, 120
1, 632160, Note_on_c, 0, 74, 120
1, 632160, Note_on_c, 0, 52, 120
1, 632160, Note_on_c, 0, 49, 120
1, 632270, Note_on_c, 0, 83, 0
1, 632280, Note_on_c, 0, 85, 120
1, 632390, Note_on_c, 0, 85, 0
1, 632400, Note_on_c, 0, 83, 120
1, 632510, Note_on_c, 0, 83, 0
1, 632520, Note_on_c, 0, 81, 120
1, 632630, Note_on_c, 0, 81, 0
1, 632630, Note_on_c, 0, 74, 0
1, 632630, Note_on_c, 0, 52, 0
1, 632630, Note_on_c, 0, 49, 0
1, 632640, Note_on_c, 0, 83, 120
1, 632640, Note_on_c, 0, 73, 120
1, 632640, Note_on_c, 0, 54, 120
1, 632640, Note_on_c, 0, 50, 120
1, 632750, Note_on_c, 0, 83, 0
1, 632760, Note_on_c, 0, 81, 120
1, 632870, Note_on_c, 0, 81, 0
1, 632870, Note_on_c, 0, 73, 0
1, 632870, Note_on_c, 0, 54, 0
1, 632870, Note_on_c, 0, 50, 0
1, 632880, Note_on_c, 0, 80, 120
1, 632880, Note_on_c, 0, 71, 120
1, 632880, Note_on_c, 0, 56, 120
1, 632880, Note_on_c, 0, 52, 120
1, 632990, Note_on_c, 0, 80, 0
1, 633000, Note_on_c, 0, 81, 120
1, 633110, Note_on_c, 0, 81, 0
1, 633120, Note_on_c, 0, 80, 120
1, 633230, Note_on_c, 0, 80, 0
1, 633240, Note_on_c, 0, 78, 120
1, 633350, Note_on_c, 0, 78, 0
1, 633350, Note_on_c, 0, 71, 0
1, 633350, Note_on_c, 0, 56, 0
1, 633350, Note_on_c, 0, 52, 0
1, 633360, Note_on_c, 0, 80, 120
1, 633360, Note_on_c, 0, 69, 120
1, 633360, Note_on_c, 0, 57, 120
1, 633360, Note_on_c, 0, 54, 120
1, 633470, Note_on_c, 0, 80, 0
1, 633480, Note_on_c, 0, 78, 120
1, 633590, Note_on_c, 0, 78, 0
1, 633590, Note_on_c, 0, 69, 0
1, 633590, Note_on_c, 0, 57, 0
1, 633590, Note_on_c, 0, 54, 0
1, 633600, Note_on_c, 0, 76, 120
1, 633600, Note_on_c, 0, 68, 120
1, 633600, Note_on_c, 0, 59, 120
1, 633600, Note_on_c, 0, 56, 120
1, 633710, Note_on_c, 0, 76, 0
1, 633720, Note_on_c, 0, 78, 120
1, 633830, Note_on_c, 0, 78, 0
1, 633840, Note_on_c, 0, 76, 120
1, 633950, Note_on_c, 0, 76, 0
1, 633960, Note_on_c, 0, 73, 120
1, 634070, Note_on_c, 0, 73, 0
1, 634070, Note_on_c, 0, 59, 0
1, 634070, Note_on_c, 0, 56, 0
1, 634080, Note_on_c, 0, 74, 120
1, 634080, Note_on_c, 0, 64, 120
1, 634080, Note_on_c, 0, 52, 120
1, 634190, Note_on_c, 0, 74, 0
1, 634200, Note_on_c, 0, 71, 120
1, 634310, Note_on_c, 0, 71, 0
1, 634310, Note_on_c, 0, 68, 0
1, 634310, Note_on_c, 0, 64, 0
1, 634310, Note_on_c, 0, 52, 0
1, 634320, Note_on_c, 0, 69, 120
1, 634320, Note_on_c, 0, 62, 120
1, 634320, Note_on_c, 0, 59, 120
1, 634430, Note_on_c, 0, 62, 0
1, 634440, Note_on_c, 0, 64, 120
1, 634550, Note_on_c, 0, 64, 0
1, 634560, Note_on_c, 0, 62, 120
1, 634670, Note_on_c, 0, 62, 0
1, 634680, Note_on_c, 0, 64, 120
1, 634790, Note_on_c, 0, 69, 0
1, 634790, Note_on_c, 0, 64, 0
1, 634790, Note_on_c, 0, 59, 0
1, 634800, Note_on_c, 0, 61, 120
1, 634800, Note_on_c, 0, 57, 120
1, 634910, Note_on_c, 0, 61, 0
1, 634920, Note_on_c, 0, 64, 120
1, 635030, Note_on_c, 0, 64, 0
1, 635030, Note_on_c, 0, 57, 0
1, 635040, Note_on_c, 0, 81, 120
1, 635040, Note_on_c, 0, 69, 120
1, 635040, Note_on_c, 0, 62, 120
1, 635040, Note_on_c, 0, 59, 120
1, 635150, Note_on_c, 0, 62, 0
1, 635160, Note_on_c, 0, 64, 120
1, 635270, Note_on_c, 0, 64, 0
1, 635280, Note_on_c, 0, 62, 120
1, 635390, Note_on_c, 0, 62, 0
1, 635400, Note_on_c, 0, 64, 120
1, 635510, Note_on_c, 0, 64, 0
1, 635510, Note_on_c, 0, 59, 0
1, 635520, Note_on_c, 0, 61, 120
1, 635640, Note_on_c, 0, 64, 120
1, 635750, Note_on_c, 0, 61, 0
1, 635750, Note_on_c, 0, 64, 0
1, 635760, Note_on_c, 0, 66, 120
1, 635760, Note_on_c, 0, 61, 120
1, 635880, Note_on_c, 0, 59, 120
1, 635907, Control_c, 0, 64, 127
1, 635990, Note_on_c, 0, 59, 0
1, 636000, Note_on_c, 0, 57, 120
1, 636110, Note_on_c, 0, 57, 0
1, 636120, Note_on_c, 0, 59, 120
1, 636230, Note_on_c, 0, 61, 0
1, 636230, Note_on_c, 0, 59, 0
1, 636240, Note_on_c, 0, 61, 120
1, 636360, Note_on_c, 0, 57, 120
1, 636470, Note_on_c, 0, 69, 0
1, 636470, Note_on_c, 0, 81, 0
1, 636470, Note_on_c, 0, 66, 0
1, 636470, Note_on_c, 0, 61, 0
1, 636470, Note_on_c, 0, 57, 0
1, 636480, Note_on_c, 0, 81, 120
1, 636480, Note_on_c, 0, 69, 120
1, 636480, Note_on_c, 0, 66, 120
1, 636480, Note_on_c, 0, 63, 120
1, 636596, Control_c, 0, 64, 0
1, 636600, Note_on_c, 0, 59, 120
1, 636710, Note_on_c, 0, 59, 0
1, 636720, Note_on_c, 0, 61, 120
1, 636786, Control_c, 0, 64, 127
1, 636830, Note_on_c, 0, 61, 0
1, 636840, Note_on_c, 0, 62, 120
1, 636950, Note_on_c, 0, 63, 0
1, 636950, Note_on_c, 0, 62, 0
1, 636960, Note_on_c, 0, 64, 120
1, 637080, Note_on_c, 0, 62, 120
1, 637105, Control_c, 0, 64, 0
1, 637190, Note_on_c, 0, 81, 0
1, 637190, Note_on_c, 0, 69, 0
1, 637190, Note_on_c, 0, 66, 0
1, 637190, Note_on_c, 0, 64, 0
1, 637190, Note_on_c, 0, 62, 0
1, 637200, Note_on_c, 0, 80, 120
1, 637200, Note_on_c, 0, 68, 120
1, 637200, Note_on_c, 0, 64, 120
1, 637320, Note_on_c, 0, 66, 120
1, 637430, Note_on_c, 0, 66, 0
1, 637440, Note_on_c, 0, 64, 120
1, 637550, Note_on_c, 0, 64, 0
1, 637560, Note_on_c, 0, 62, 120
1, 637670, Note_on_c, 0, 62, 0
1, 637680, Note_on_c, 0, 64, 120
1, 637790, Note_on_c, 0, 64, 0
1, 637800, Note_on_c, 0, 62, 120
1, 637910, Note_on_c, 0, 80, 0
1, 637910, Note_on_c, 0, 68, 0
1, 637910, Note_on_c, 0, 64, 0
1, 637910, Note_on_c, 0, 62, 0
1, 637920, Note_on_c, 0, 76, 120
1, 637920, Note_on_c, 0, 64, 120
1, 637920, Note_on_c, 0, 61, 120
1, 637920, Note_on_c, 0, 47, 120
1, 638030, Note_on_c, 0, 61, 0
1, 638040, Note_on_c, 0, 62, 120
1, 638126, Control_c, 0, 64, 127
1, 638150, Note_on_c, 0, 62, 0
1, 638160, Note_on_c, 0, 61, 120
1, 638270, Note_on_c, 0, 61, 0
1, 638280, Note_on_c, 0, 59, 120
1, 638390, Note_on_c, 0, 59, 0
1, 638400, Note_on_c, 0, 61, 120
1, 638510, Note_on_c, 0, 61, 0
1, 638520, Note_on_c, 0, 59, 120
1, 638630, Note_on_c, 0, 76, 0
1, 638630, Note_on_c, 0, 64, 0
1, 638630, Note_on_c, 0, 59, 0
1, 638640, Note_on_c, 0, 62, 120
1, 638738, Control_c, 0, 64, 0
1, 638760, Note_on_c, 0, 58, 120
1, 638870, Note_on_c, 0, 58, 0
1, 638880, Note_on_c, 0, 59, 120
1, 638990, Note_on_c, 0, 59, 0
1, 639000, Note_on_c, 0, 61, 120
1, 639007, Control_c, 0, 64, 127
1, 639110, Note_on_c, 0, 62, 0
1, 639110, Note_on_c, 0, 61, 0
1, 639120, Note_on_c, 0, 62, 120
1, 639240, Note_on_c, 0, 59, 120
1, 639350, Note_on_c, 0, 47, 0
1, 639350, Note_on_c, 0, 62, 0
1, 639350, Note_on_c, 0, 59, 0
1, 639360, Note_on_c, 0, 64, 120
1, 639360, Note_on_c, 0, 59, 120
1, 639360, Note_on_c, 0, 47, 120
1, 639466, Control_c, 0, 64, 0
1, 639480, Note_on_c, 0, 61, 120
1, 639590, Note_on_c, 0, 61, 0
1, 639600, Note_on_c, 0, 62, 120
1, 639647, Control_c, 0, 64, 127
1, 639710, Note_on_c, 0, 62, 0
1, 639720, Note_on_c, 0, 64, 120
1, 639830, Note_on_c, 0, 64, 0
1, 639830, Note_on_c, 0, 64, 0
1, 639840, Note_on_c, 0, 66, 120
1, 639960, Note_on_c, 0, 64, 120
1, 640070, Note_on_c, 0, 66, 0
1, 640070, Note_on_c, 0, 59, 0
1, 640070, Note_on_c, 0, 47, 0
1, 640070, Note_on_c, 0, 64, 0
1, 640080, Note_on_c, 0, 66, 120
1, 640080, Note_on_c, 0, 61, 120
1, 640080, Note_on_c, 0, 58, 120
1, 640080, Note_on_c, 0, 46, 120
1, 640200, Note_on_c, 0, 67, 120
1, 640256, Control_c, 0, 64, 0
1, 640310, Note_on_c, 0, 67, 0
1, 640320, Note_on_c, 0, 66, 120
1, 640426, Control_c, 0, 64, 127
1, 640430, Note_on_c, 0, 66, 0
1, 640440, Note_on_c, 0, 64, 120
1, 640550, Note_on_c, 0, 66, 0
1, 640550, Note_on_c, 0, 61, 0
1, 640550, Note_on_c, 0, 58, 0
1, 640550, Note_on_c, 0, 46, 0
1, 640550, Note_on_c, 0, 64, 0
1, 640560, Note_on_c, 0, 66, 120
1, 640670, Note_on_c, 0, 66, 0
1, 640680, Note_on_c, 0, 64, 120
1, 640680, Note_on_c, 0, 42, 120
1, 640730, Note_on_c, 0, 42, 0
1, 640740, Note_on_c, 0, 54, 120
1, 640790, Note_on_c, 0, 64, 0
1, 640790, Note_on_c, 0, 54, 0
1, 640800, Note_on_c, 0, 90, 120
1, 640800, Note_on_c, 0, 78, 120
1, 640800, Note_on_c, 0, 62, 120
1, 640800, Note_on_c, 0, 59, 120
1, 640883, Control_c, 0, 64, 0
1, 640910, Note_on_c, 0, 62, 0
1, 640920, Note_on_c, 0, 64, 120
1, 640973, Control_c, 0, 64, 127
1, 641030, Note_on_c, 0, 64, 0
1, 641040, Note_on_c, 0, 62, 120
1, 641150, Note_on_c, 0, 62, 0
1, 641160, Note_on_c, 0, 61, 120
1, 641270, Note_on_c, 0, 61, 0
1, 641270, Note_on_c, 0, 59, 0
1, 641280, Note_on_c, 0, 62, 120
1, 641280, Note_on_c, 0, 57, 120
1, 641390, Note_on_c, 0, 62, 0
1, 641400, Note_on_c, 0, 61, 120
1, 641449, Control_c, 0, 64, 0
1, 641510, Note_on_c, 0, 61, 0
1, 641510, Note_on_c, 0, 57, 0
1, 641520, Note_on_c, 0, 59, 120
1, 641520, Note_on_c, 0, 59, 120
1, 641520, Note_on_c, 0, 50, 120
1, 641630, Note_on_c, 0, 59, 0
1, 641640, Note_on_c, 0, 54, 120
1, 641750, Note_on_c, 0, 54, 0
1, 641760, Note_on_c, 0, 56, 120
1, 641870, Note_on_c, 0, 56, 0
1, 641880, Note_on_c, 0, 58, 120
1, 641934, Control_c, 0, 64, 127
1, 641990, Note_on_c, 0, 58, 0
1, 642000, Note_on_c, 0, 59, 120
1, 642110, Note_on_c, 0, 59, 0
1, 642120, Note_on_c, 0, 54, 120
1, 642230, Note_on_c, 0, 78, 0
1, 642230, Note_on_c, 0, 90, 0
1, 642230, Note_on_c, 0, 59, 0
1, 642230, Note_on_c, 0, 54, 0
1, 642230, Note_on_c, 0, 50, 0
1, 642240, Note_on_c, 0, 86, 120
1, 642240, Note_on_c, 0, 90, 120
1, 642240, Note_on_c, 0, 78, 120
1, 642240, Note_on_c, 0, 61, 120
1, 642240, Note_on_c, 0, 47, 120
1, 642360, Note_on_c, 0, 54, 120
1, 642363, Control_c, 0, 64, 0
1, 642470, Note_on_c, 0, 54, 0
1, 642480, Note_on_c, 0, 61, 120
1, 642590, Note_on_c, 0, 61, 0
1, 642600, Note_on_c, 0, 54, 120
1, 642710, Note_on_c, 0, 54, 0
1, 642720, Note_on_c, 0, 62, 120
1, 642830, Note_on_c, 0, 62, 0
1, 642840, Note_on_c, 0, 54, 120
1, 642950, Note_on_c, 0, 86, 0
1, 642950, Note_on_c, 0, 90, 0
1, 642950, Note_on_c, 0, 78, 0
1, 642950, Note_on_c, 0, 61, 0
1, 642950, Note_on_c, 0, 47, 0
1, 642950, Note_on_c, 0, 54, 0
1, 642960, Note_on_c, 0, 85, 120
1, 642960, Note_on_c, 0, 89, 120
1, 642960, Note_on_c, 0, 77, 120
1, 642960, Note_on_c, 0, 61, 120
1, 642960, Note_on_c, 0, 49, 120
1, 643070, Note_on_c, 0, 61, 0
1, 643080, Note_on_c, 0, 62, 120
1, 643190, Note_on_c, 0, 62, 0
1, 643193, Control_c, 0, 64, 127
1, 643200, Note_on_c, 0, 61, 120
1, 643310, Note_on_c, 0, 61, 0
1, 643320, Note_on_c, 0, 59, 120
1, 643430, Note_on_c, 0, 59, 0
1, 643440, Note_on_c, 0, 61, 120
1, 643550, Note_on_c, 0, 61, 0
1, 643560, Note_on_c, 0, 59, 120
1, 643670, Note_on_c, 0, 85, 0
1, 643670, Note_on_c, 0, 89, 0
1, 643670, Note_on_c, 0, 77, 0
1, 643670, Note_on_c, 0, 59, 0
1, 643670, Note_on_c, 0, 49, 0
1, 643680, Note_on_c, 0, 65, 120
1, 643680, Note_on_c, 0, 73, 120
1, 643680, Note_on_c, 0, 61, 120
1, 643680, Note_on_c, 0, 58, 120
1, 643680, Note_on_c, 0, 49, 120
1, 643790, Note_on_c, 0, 58, 0
1, 643800, Note_on_c, 0, 59, 120
1, 643910, Note_on_c, 0, 59, 0
1, 643920, Note_on_c, 0, 58, 120
1, 644030, Note_on_c, 0, 58, 0
1, 644040, Note_on_c, 0, 56, 120
1, 644150, Note_on_c, 0, 56, 0
1, 644160, Note_on_c, 0, 58, 120
1, 644269, Control_c, 0, 64, 0
1, 644270, Note_on_c, 0, 58, 0
1, 644280, Note_on_c, 0, 56, 120
1, 644390, Note_on_c, 0, 65, 0
1, 644390, Note_on_c, 0, 73, 0
1, 644390, Note_on_c, 0, 61, 0
1, 644390, Note_on_c, 0, 56, 0
1, 644390, Note_on_c, 0, 49, 0
1, 644400, Note_on_c, 0, 73, 120
1, 644400, Note_on_c, 0, 76, 120
1, 644400, Note_on_c, 0, 64, 120
1, 644400, Note_on_c, 0, 58, 120
1, 644400, Note_on_c, 0, 42, 120
1, 644508, Control_c, 0, 64, 127
1, 644520, Note_on_c, 0, 49, 120
1, 644630, Note_on_c, 0, 49, 0
1, 644640, Note_on_c, 0, 54, 120
1, 644750, Note_on_c, 0, 54, 0
1, 644760, Note_on_c, 0, 56, 120
1, 644870, Note_on_c, 0, 58, 0
1, 644870, Note_on_c, 0, 56, 0
1, 644880, Note_on_c, 0, 58, 120
1, 645000, Note_on_c, 0, 54, 120
1, 645110, Note_on_c, 0, 73, 0
1, 645110, Note_on_c, 0, 76, 0
1, 645110, Note_on_c, 0, 64, 0
1, 645110, Note_on_c, 0, 58, 0
1, 645110, Note_on_c, 0, 42, 0
1, 645110, Note_on_c, 0, 54, 0
1, 645120, Note_on_c, 0, 85, 120
1, 645120, Note_on_c, 0, 88, 120
1, 645120, Note_on_c, 0, 76, 120
1, 645120, Note_on_c, 0, 59, 120
1, 645240, Note_on_c, 0, 54, 120
1, 645350, Note_on_c, 0, 54, 0
1, 645360, Note_on_c, 0, 59, 120
1, 645470, Note_on_c, 0, 59, 0
1, 645480, Note_on_c, 0, 54, 120
1, 645590, Note_on_c, 0, 59, 0
1, 645590, Note_on_c, 0, 54, 0
1, 645600, Note_on_c, 0, 61, 120
1, 645706, Control_c, 0, 64, 0
1, 645720, Note_on_c, 0, 54, 120
1, 645830, Note_on_c, 0, 85, 0
1, 645830, Note_on_c, 0, 88, 0
1, 645830, Note_on_c, 0, 76, 0
1, 645830, Note_on_c, 0, 61, 0
1, 645830, Note_on_c, 0, 54, 0
1, 645840, Note_on_c, 0, 83, 120
1, 645840, Note_on_c, 0, 87, 120
1, 645840, Note_on_c, 0, 75, 120
1, 645840, Note_on_c, 0, 61, 120
1, 645840, Note_on_c, 0, 47, 120
1, 645960, Note_on_c, 0, 54, 120
1, 646070, Note_on_c, 0, 54, 0
1, 646080, Note_on_c, 0, 61, 120
1, 646190, Note_on_c, 0, 61, 0
1, 646200, Note_on_c, 0, 54, 120
1, 646310, Note_on_c, 0, 54, 0
1, 646320, Note_on_c, 0, 59, 120
1, 646430, Note_on_c, 0, 59, 0
1, 646440, Note_on_c, 0, 54, 120
1, 646550, Note_on_c, 0, 83, 0
1, 646550, Note_on_c, 0, 87, 0
1, 646550, Note_on_c, 0, 75, 0
1, 646550, Note_on_c, 0, 61, 0
1, 646550, Note_on_c, 0, 47, 0
1, 646550, Note_on_c, 0, 54, 0
1, 646560, Note_on_c, 0, 74, 120
1, 646560, Note_on_c, 0, 83, 120
1, 646560, Note_on_c, 0, 71, 120
1, 646560, Note_on_c, 0, 61, 120
1, 646560, Note_on_c, 0, 61, 120
1, 646670, Note_on_c, 0, 61, 0
1, 646680, Note_on_c, 0, 54, 120
1, 646790, Note_on_c, 0, 54, 0
1, 646800, Note_on_c, 0, 61, 120
1, 646910, Note_on_c, 0, 61, 0
1, 646920, Note_on_c, 0, 54, 120
1, 647030, Note_on_c, 0, 61, 0
1, 647030, Note_on_c, 0, 54, 0
1, 647040, Note_on_c, 0, 62, 120
1, 647270, Note_on_c, 0, 74, 0
1, 647270, Note_on_c, 0, 83, 0
1, 647270, Note_on_c, 0, 71, 0
1, 647270, Note_on_c, 0, 62, 0
1, 647280, Note_on_c, 0, 62, 120
1, 647280, Note_on_c, 0, 35, 120
1, 647390, Note_on_c, 0, 35, 0
1, 647400, Note_on_c, 0, 30, 120
1, 647510, Note_on_c, 0, 30, 0
1, 647520, Note_on_c, 0, 32, 120
1, 647630, Note_on_c, 0, 32, 0
1, 647640, Note_on_c, 0, 34, 120
1, 647750, Note_on_c, 0, 62, 0
1, 647750, Note_on_c, 0, 34, 0
1, 647760, Note_on_c, 0, 62, 120
1, 647760, Note_on_c, 0, 35, 120
1, 647870, Note_on_c, 0, 35, 0
1, 647880, Note_on_c, 0, 37, 120
1, 647990, Note_on_c, 0, 62, 0
1, 647990, Note_on_c, 0, 37, 0
1, 648000, Note_on_c, 0, 71, 120
1, 648000, Note_on_c, 0, 59, 120
1, 648000, Note_on_c, 0, 64, 120
1, 648000, Note_on_c, 0, 38, 120
1, 648110, Note_on_c, 0, 38, 0
1, 648120, Note_on_c, 0, 37, 120
1, 648230, Note_on_c, 0, 37, 0
1, 648240, Note_on_c, 0, 35, 120
1, 648350, Note_on_c, 0, 35, 0
1, 648360, Note_on_c, 0, 37, 120
1, 648470, Note_on_c, 0, 64, 0
1, 648470, Note_on_c, 0, 37, 0
1, 648480, Note_on_c, 0, 66, 120
1, 648480, Note_on_c, 0, 38, 120
1, 648590, Note_on_c, 0, 38, 0
1, 648600, Note_on_c, 0, 40, 120
1, 648710, Note_on_c, 0, 71, 0
1, 648710, Note_on_c, 0, 59, 0
1, 648710, Note_on_c, 0, 66, 0
1, 648710, Note_on_c, 0, 40, 0
1, 648720, Note_on_c, 0, 70, 120
1, 648720, Note_on_c, 0, 58, 120
1, 648720, Note_on_c, 0, 66, 120
1, 648720, Note_on_c, 0, 64, 120
1, 648720, Note_on_c, 0, 42, 120
1, 648830, Note_on_c, 0, 42, 0
1, 648840, Note_on_c, 0, 43, 120
1, 648950, Note_on_c, 0, 43, 0
1, 648960, Note_on_c, 0, 42, 120
1, 649070, Note_on_c, 0, 42, 0
1, 649080, Note_on_c, 0, 40, 120
1, 649190, Note_on_c, 0, 66, 0
1, 649190, Note_on_c, 0, 64, 0
1, 649190, Note_on_c, 0, 40, 0
1, 649200, Note_on_c, 0, 61, 120
1, 649200, Note_on_c, 0, 42, 120
1, 649310, Note_on_c, 0, 42, 0
1, 649320, Note_on_c, 0, 40, 120
1, 649430, Note_on_c, 0, 70, 0
1, 649430, Note_on_c, 0, 58, 0
1, 649430, Note_on_c, 0, 61, 0
1, 649430, Note_on_c, 0, 40, 0
1, 649440, Note_on_c, 0, 66, 120
1, 649440, Note_on_c, 0, 62, 120
1, 649440, Note_on_c, 0, 59, 120
1, 649440, Note_on_c, 0, 38, 120
1, 649550, Note_on_c, 0, 38, 0
1, 649560, Note_on_c, 0, 40, 120
1, 649670, Note_on_c, 0, 40, 0
1, 649680, Note_on_c, 0, 38, 120
1, 649790, Note_on_c, 0, 38, 0
1, 649800, Note_on_c, 0, 37, 120
1, 649910, Note_on_c, 0, 62, 0
1, 649910, Note_on_c, 0, 59, 0
1, 649910, Note_on_c, 0, 37, 0
1, 649920, Note_on_c, 0, 64, 120
1, 649920, Note_on_c, 0, 57, 120
1, 649920, Note_on_c, 0, 38, 120
1, 650030, Note_on_c, 0, 38, 0
1, 650040, Note_on_c, 0, 37, 120
1, 650150, Note_on_c, 0, 66, 0
1, 650150, Note_on_c, 0, 64, 0
1, 650150, Note_on_c, 0, 57, 0
1, 650150, Note_on_c, 0, 37, 0
1, 650160, Note_on_c, 0, 70, 120
1, 650160, Note_on_c, 0, 76, 120
1, 650160, Note_on_c, 0, 64, 120
1, 650160, Note_on_c, 0, 54, 120
1, 650160, Note_on_c, 0, 49, 120
1, 650270, Note_on_c, 0, 49, 0
1, 650280, Note_on_c, 0, 42, 120
1, 650390, Note_on_c, 0, 54, 0
1, 650390, Note_on_c, 0, 42, 0
1, 650400, Note_on_c, 0, 44, 120
1, 650510, Note_on_c, 0, 44, 0
1, 650520, Note_on_c, 0, 46, 120
1, 650630, Note_on_c, 0, 46, 0
1, 650640, Note_on_c, 0, 47, 120
1, 650750, Note_on_c, 0, 47, 0
1, 650760, Note_on_c, 0, 49, 120
1, 650870, Note_on_c, 0, 70, 0
1, 650870, Note_on_c, 0, 76, 0
1, 650870, Note_on_c, 0, 64, 0
1, 650870, Note_on_c, 0, 49, 0
1, 650880, Note_on_c, 0, 71, 120
1, 650880, Note_on_c, 0, 75, 120
1, 650880, Note_on_c, 0, 63, 120
1, 650880, Note_on_c, 0, 54, 120
1, 650880, Note_on_c, 0, 51, 120
1, 650990, Note_on_c, 0, 51, 0
1, 651000, Note_on_c, 0, 47, 120
1, 651110, Note_on_c, 0, 54, 0
1, 651110, Note_on_c, 0, 47, 0
1, 651120, Note_on_c, 0, 49, 120
1, 651230, Note_on_c, 0, 49, 0
1, 651240, Note_on_c, 0, 51, 120
1, 651350, Note_on_c, 0, 71, 0
1, 651350, Note_on_c, 0, 75, 0
1, 651350, Note_on_c, 0, 63, 0
1, 651350, Note_on_c, 0, 51, 0
1, 651360, Note_on_c, 0, 70, 120
1, 651360, Note_on_c, 0, 73, 120
1, 651360, Note_on_c, 0, 61, 120
1, 651360, Note_on_c, 0, 52, 120
1, 651470, Note_on_c, 0, 52, 0
1, 651480, Note_on_c, 0, 47, 120
1, 651590, Note_on_c, 0, 70, 0
1, 651590, Note_on_c, 0, 73, 0
1, 651590, Note_on_c, 0, 61, 0
1, 651590, Note_on_c, 0, 47, 0
1, 651600, Note_on_c, 0, 71, 120
1, 651600, Note_on_c, 0, 75, 120
1, 651600, Note_on_c, 0, 63, 120
1, 651600, Note_on_c, 0, 54, 120
1, 651710, Note_on_c, 0, 54, 0
1, 651720, Note_on_c, 0, 56, 120
1, 651830, Note_on_c, 0, 56, 0
1, 651840, Note_on_c, 0, 54, 120
1, 651950, Note_on_c, 0, 54, 0
1, 651960, Note_on_c, 0, 51, 120
1, 652070, Note_on_c, 0, 51, 0
1, 652080, Note_on_c, 0, 52, 120
1, 652190, Note_on_c, 0, 52, 0
1, 652200, Note_on_c, 0, 51, 120
1, 652310, Note_on_c, 0, 71, 0
1, 652310, Note_on_c, 0, 75, 0
1, 652310, Note_on_c, 0, 63, 0
1, 652310, Note_on_c, 0, 51, 0
1, 652320, Note_on_c, 0, 75, 120
1, 652320, Note_on_c, 0, 78, 120
1, 652320, Note_on_c, 0, 66, 120
1, 652320, Note_on_c, 0, 49, 120
1, 652430, Note_on_c, 0, 49, 0
1, 652440, Note_on_c, 0, 51, 120
1, 652550, Note_on_c, 0, 51, 0
1, 652560, Note_on_c, 0, 49, 120
1, 652670, Note_on_c, 0, 49, 0
1, 652680, Note_on_c, 0, 47, 120
1, 652790, Note_on_c, 0, 47, 0
1, 652800, Note_on_c, 0, 49, 120
1, 652910, Note_on_c, 0, 49, 0
1, 652920, Note_on_c, 0, 47, 120
1, 653030, Note_on_c, 0, 75, 0
1, 653030, Note_on_c, 0, 78, 0
1, 653030, Note_on_c, 0, 66, 0
1, 653030, Note_on_c, 0, 47, 0
1, 653040, Note_on_c, 0, 75, 120
1, 653040, Note_on_c, 0, 81, 120
1, 653040, Note_on_c, 0, 69, 120
1, 653040, Note_on_c, 0, 59, 120
1, 653040, Note_on_c, 0, 54, 120
1, 653150, Note_on_c, 0, 54, 0
1, 653160, Note_on_c, 0, 47, 120
1, 653270, Note_on_c, 0, 59, 0
1, 653270, Note_on_c, 0, 47, 0
1, 653280, Note_on_c, 0, 49, 120
1, 653390, Note_on_c, 0, 49, 0
1, 653400, Note_on_c, 0, 51, 120
1, 653510, Note_on_c, 0, 51, 0
1, 653520, Note_on_c, 0, 52, 120
1, 653630, Note_on_c, 0, 52, 0
1, 653640, Note_on_c, 0, 54, 120
1, 653750, Note_on_c, 0, 75, 0
1, 653750, Note_on_c, 0, 81, 0
1, 653750, Note_on_c, 0, 69, 0
1, 653750, Note_on_c, 0, 54, 0
1, 653760, Note_on_c, 0, 75, 120
1, 653760, Note_on_c, 0, 80, 120
1, 653760, Note_on_c, 0, 68, 120
1, 653760, Note_on_c, 0, 59, 120
1, 653760, Note_on_c, 0, 56, 120
1, 653870, Note_on_c, 0, 56, 0
1, 653880, Note_on_c, 0, 47, 120
1, 653990, Note_on_c, 0, 59, 0
1, 653990, Note_on_c, 0, 47, 0
1, 654000, Note_on_c, 0, 54, 120
1, 654110, Note_on_c, 0, 54, 0
1, 654120, Note_on_c, 0, 56, 120
1, 654230, Note_on_c, 0, 75, 0
1, 654230, Note_on_c, 0, 80, 0
1, 654230, Note_on_c, 0, 68, 0
1, 654230, Note_on_c, 0, 56, 0
1, 654240, Note_on_c, 0, 78, 120
1, 654240, Note_on_c, 0, 66, 120
1, 654240, Note_on_c, 0, 57, 120
1, 654350, Note_on_c, 0, 57, 0
1, 654360, Note_on_c, 0, 54, 120
1, 654470, Note_on_c, 0, 78, 0
1, 654470, Note_on_c, 0, 66, 0
1, 654470, Note_on_c, 0, 54, 0
1, 654480, Note_on_c, 0, 76, 120
1, 654480, Note_on_c, 0, 64, 120
1, 654480, Note_on_c, 0, 71, 120
1, 654480, Note_on_c, 0, 57, 120
1, 654590, Note_on_c, 0, 57, 0
1, 654600, Note_on_c, 0, 59, 120
1, 654710, Note_on_c, 0, 59, 0
1, 654720, Note_on_c, 0, 57, 120
1, 654830, Note_on_c, 0, 57, 0
1, 654840, Note_on_c, 0, 56, 120
1, 654950, Note_on_c, 0, 76, 0
1, 654950, Note_on_c, 0, 64, 0
1, 654950, Note_on_c, 0, 56, 0
1, 654960, Note_on_c, 0, 80, 120
1, 654960, Note_on_c, 0, 68, 120
1, 654960, Note_on_c, 0, 57, 120
1, 655070, Note_on_c, 0, 57, 0
1, 655080, Note_on_c, 0, 56, 120
1, 655190, Note_on_c, 0, 80, 0
1, 655190, Note_on_c, 0, 68, 0
1, 655190, Note_on_c, 0, 71, 0
1, 655190, Note_on_c, 0, 56, 0
1, 655200, Note_on_c, 0, 81, 120
1, 655200, Note_on_c, 0, 69, 120
1, 655200, Note_on_c, 0, 76, 120
1, 655200, Note_on_c, 0, 54, 120
1, 655310, Note_on_c, 0, 54, 0
1, 655320, Note_on_c, 0, 56, 120
1, 655430, Note_on_c, 0, 56, 0
1, 655440, Note_on_c, 0, 54, 120
1, 655550, Note_on_c, 0, 54, 0
1, 655560, Note_on_c, 0, 52, 120
1, 655670, Note_on_c, 0, 81, 0
1, 655670, Note_on_c, 0, 69, 0
1, 655670, Note_on_c, 0, 52, 0
1, 655680, Note_on_c, 0, 83, 120
1, 655680, Note_on_c, 0, 71, 120
1, 655680, Note_on_c, 0, 56, 120
1, 655790, Note_on_c, 0, 56, 0
1, 655800, Note_on_c, 0, 52, 120
1, 655910, Note_on_c, 0, 83, 0
1, 655910, Note_on_c, 0, 71, 0
1, 655910, Note_on_c, 0, 76, 0
1, 655910, Note_on_c, 0, 52, 0
1, 655920, Note_on_c, 0, 88, 120
1, 655920, Note_on_c, 0, 76, 120
1, 655920, Note_on_c, 0, 80, 120
1, 655920, Note_on_c, 0, 64, 120
1, 655920, Note_on_c, 0, 59, 120
1, 656030, Note_on_c, 0, 59, 0
1, 656040, Note_on_c, 0, 52, 120
1, 656150, Note_on_c, 0, 64, 0
1, 656150, Note_on_c, 0, 52, 0
1, 656160, Note_on_c, 0, 56, 120
1, 656270, Note_on_c, 0, 56, 0
1, 656280, Note_on_c, 0, 57, 120
1, 656390, Note_on_c, 0, 88, 0
1, 656390, Note_on_c, 0, 76, 0
1, 656390, Note_on_c, 0, 57, 0
1, 656400, Note_on_c, 0, 86, 120
1, 656400, Note_on_c, 0, 74, 120
1, 656400, Note_on_c, 0, 59, 120
1, 656510, Note_on_c, 0, 59, 0
1, 656520, Note_on_c, 0, 52, 120
1, 656630, Note_on_c, 0, 86, 0
1, 656630, Note_on_c, 0, 74, 0
1, 656630, Note_on_c, 0, 80, 0
1, 656630, Note_on_c, 0, 52, 0
1, 656640, Note_on_c, 0, 85, 120
1, 656640, Note_on_c, 0, 73, 120
1, 656640, Note_on_c, 0, 80, 120
1, 656640, Note_on_c, 0, 64, 120
1, 656760, Note_on_c, 0, 66, 120
1, 656870, Note_on_c, 0, 64, 0
1, 656870, Note_on_c, 0, 66, 0
1, 656880, Note_on_c, 0, 64, 120
1, 656990, Note_on_c, 0, 64, 0
1, 657000, Note_on_c, 0, 62, 120
1, 657110, Note_on_c, 0, 85, 0
1, 657110, Note_on_c, 0, 73, 0
1, 657110, Note_on_c, 0, 62, 0
1, 657120, Note_on_c, 0, 83, 120
1, 657120, Note_on_c, 0, 71, 120
1, 657120, Note_on_c, 0, 64, 120
1, 657230, Note_on_c, 0, 64, 0
1, 657240, Note_on_c, 0, 62, 120
1, 657350, Note_on_c, 0, 83, 0
1, 657350, Note_on_c, 0, 71, 0
1, 657350, Note_on_c, 0, 80, 0
1, 657350, Note_on_c, 0, 62, 0
1, 657360, Note_on_c, 0, 81, 120
1, 657360, Note_on_c, 0, 69, 120
1, 657360, Note_on_c, 0, 61, 120
1, 657470, Note_on_c, 0, 61, 0
1, 657480, Note_on_c, 0, 64, 120
1, 657590, Note_on_c, 0, 64, 0
1, 657600, Note_on_c, 0, 62, 120
1, 657710, Note_on_c, 0, 62, 0
1, 657720, Note_on_c, 0, 61, 120
1, 657830, Note_on_c, 0, 61, 0
1, 657840, Note_on_c, 0, 76, 120
1, 657840, Note_on_c, 0, 62, 120
1, 657950, Note_on_c, 0, 62, 0
1, 657960, Note_on_c, 0, 61, 120
1, 658070, Note_on_c, 0, 81, 0
1, 658070, Note_on_c, 0, 69, 0
1, 658070, Note_on_c, 0, 76, 0
1, 658070, Note_on_c, 0, 61, 0
1, 658080, Note_on_c, 0, 74, 120
1, 658080, Note_on_c, 0, 81, 120
1, 658080, Note_on_c, 0, 69, 120
1, 658080, Note_on_c, 0, 59, 120
1, 658190, Note_on_c, 0, 59, 0
1, 658200, Note_on_c, 0, 61, 120
1, 658310, Note_on_c, 0, 61, 0
1, 658320, Note_on_c, 0, 59, 120
1, 658430, Note_on_c, 0, 59, 0
1, 658440, Note_on_c, 0, 57, 120
1, 658550, Note_on_c, 0, 74, 0
1, 658550, Note_on_c, 0, 57, 0
1, 658560, Note_on_c, 0, 76, 120
1, 658560, Note_on_c, 0, 61, 120
1, 658670, Note_on_c, 0, 61, 0
1, 658680, Note_on_c, 0, 59, 120
1, 658790, Note_on_c, 0, 76, 0
1, 658790, Note_on_c, 0, 81, 0
1, 658790, Note_on_c, 0, 69, 0
1, 658790, Note_on_c, 0, 59, 0
1, 658800, Note_on_c, 0, 74, 120
1, 658800, Note_on_c, 0, 81, 120
1, 658800, Note_on_c, 0, 69, 120
1, 658800, Note_on_c, 0, 59, 120
1, 658910, Note_on_c, 0, 59, 0
1, 658920, Note_on_c, 0, 57, 120
1, 659030, Note_on_c, 0, 57, 0
1, 659040, Note_on_c, 0, 59, 120
1, 659150, Note_on_c, 0, 59, 0
1, 659160, Note_on_c, 0, 57, 120
1, 659270, Note_on_c, 0, 74, 0
1, 659270, Note_on_c, 0, 57, 0
1, 659280, Note_on_c, 0, 73, 120
1, 659280, Note_on_c, 0, 45, 120
1, 659390, Note_on_c, 0, 45, 0
1, 659510, Note_on_c, 0, 73, 0
1, 659510, Note_on_c, 0, 81, 0
1, 659510, Note_on_c, 0, 69, 0
1, 659520, Note_on_c, 0, 81, 120
1, 659520, Note_on_c, 0, 69, 120
1, 660230, Note_on_c, 0, 81, 0
1, 660230, Note_on_c, 0, 69, 0
1, 660240, Note_on_c, 0, 81, 127
1, 660350, Note_on_c, 0, 81, 0
1, 660360, Note_on_c, 0, 93, 127
1, 660470, Note_on_c, 0, 93, 0
1, 660480, Note_on_c, 0, 81, 127
1, 660518, Control_c, 0, 64, 127
1, 660590, Note_on_c, 0, 81, 0
1, 660600, Note_on_c, 0, 93, 127
1, 660710, Note_on_c, 0, 93, 0
1, 660720, Note_on_c, 0, 81, 127
1, 660830, Note_on_c, 0, 81, 0
1, 660840, Note_on_c, 0, 93, 127
1, 660950, Note_on_c, 0, 93, 0
1, 660960, Note_on_c, 0, 81, 127
1, 660960, Note_on_c, 0, 57, 127
1, 660960, Note_on_c, 0, 45, 127
1, 661070, Note_on_c, 0, 81, 0
1, 661080, Note_on_c, 0, 93, 127
1, 661190, Note_on_c, 0, 93, 0
1, 661200, Note_on_c, 0, 81, 127
1, 661310, Note_on_c, 0, 81, 0
1, 661320, Note_on_c, 0, 93, 127
1, 661430, Note_on_c, 0, 93, 0
1, 661440, Note_on_c, 0, 81, 127
1, 661550, Note_on_c, 0, 81, 0
1, 661560, Note_on_c, 0, 93, 127
1, 661670, Note_on_c, 0, 93, 0
1, 661670, Note_on_c, 0, 57, 0
1, 661670, Note_on_c, 0, 45, 0
1, 661680, Note_on_c, 0, 81, 127
1, 661680, Note_on_c, 0, 69, 127
1, 661680, Note_on_c, 0, 57, 127
1, 661790, Note_on_c, 0, 81, 0
1, 661800, Note_on_c, 0, 93, 127
1, 661910, Note_on_c, 0, 93, 0
1, 661920, Note_on_c, 0, 81, 127
1, 662030, Note_on_c, 0, 81, 0
1, 662040, Note_on_c, 0, 93, 127
1, 662150, Note_on_c, 0, 93, 0
1, 662160, Note_on_c, 0, 81, 127
1, 662270, Note_on_c, 0, 81, 0
1, 662280, Note_on_c, 0, 93, 127
1, 662390, Note_on_c, 0, 93, 0
1, 662390, Note_on_c, 0, 69, 0
1, 662390, Note_on_c, 0, 57, 0
1, 662400, Note_on_c, 0, 81, 127
1, 662400, Note_on_c, 0, 50, 127
1, 662400, Note_on_c, 0, 38, 127
1, 662510, Note_on_c, 0, 81, 0
1, 662520, Note_on_c, 0, 93, 127
1, 662630, Note_on_c, 0, 93, 0
1, 662640, Note_on_c, 0, 81, 127
1, 662750, Note_on_c, 0, 81, 0
1, 662760, Note_on_c, 0, 93, 127
1, 662870, Note_on_c, 0, 93, 0
1, 662880, Note_on_c, 0, 81, 127
1, 662990, Note_on_c, 0, 81, 0
1, 663000, Note_on_c, 0, 93, 127
1, 663110, Note_on_c, 0, 93, 0
1, 663120, Note_on_c, 0, 81, 127
1, 663120, Note_on_c, 0, 62, 127
1, 663120, Note_on_c, 0, 66, 127
1, 663120, Note_on_c, 0, 54, 127
1, 663230, Note_on_c, 0, 81, 0
1, 663240, Note_on_c, 0, 93, 127
1, 663350, Note_on_c, 0, 93, 0
1, 663360, Note_on_c, 0, 81, 127
1, 663470, Note_on_c, 0, 81, 0
1, 663480, Note_on_c, 0, 93, 127
1, 663590, Note_on_c, 0, 38, 0
1, 663590, Note_on_c, 0, 50, 0
1, 663590, Note_on_c, 0, 93, 0
1, 663590, Note_on_c, 0, 62, 0
1, 663590, Note_on_c, 0, 66, 0
1, 663590, Note_on_c, 0, 54, 0
1, 663600, Note_on_c, 0, 81, 127
1, 663600, Note_on_c, 0, 66, 127
1, 663600, Note_on_c, 0, 62, 127
1, 663710, Note_on_c, 0, 81, 0
1, 663720, Note_on_c, 0, 93, 127
1, 663720, Note_on_c, 0, 50, 127
1, 663830, Note_on_c, 0, 93, 0
1, 663830, Note_on_c, 0, 66, 0
1, 663830, Note_on_c, 0, 62, 0
1, 663830, Note_on_c, 0, 50, 0
1, 663840, Note_on_c, 0, 81, 127
1, 663840, Note_on_c, 0, 64, 127
1, 663840, Note_on_c, 0, 67, 127
1, 663840, Note_on_c, 0, 62, 127
1, 663950, Note_on_c, 0, 81, 0
1, 663960, Note_on_c, 0, 93, 127
1, 664070, Note_on_c, 0, 93, 0
1, 664080, Note_on_c, 0, 81, 127
1, 664190, Note_on_c, 0, 81, 0
1, 664200, Note_on_c, 0, 93, 127
1, 664310, Note_on_c, 0, 93, 0
1, 664310, Note_on_c, 0, 64, 0
1, 664310, Note_on_c, 0, 67, 0
1, 664310, Note_on_c, 0, 62, 0
1, 664320, Note_on_c, 0, 81, 127
1, 664320, Note_on_c, 0, 69, 127
1, 664320, Note_on_c, 0, 66, 127
1, 664430, Note_on_c, 0, 81, 0
1, 664440, Note_on_c, 0, 93, 127
1, 664440, Note_on_c, 0, 49, 127
1, 664550, Note_on_c, 0, 93, 0
1, 664550, Note_on_c, 0, 69, 0
1, 664550, Note_on_c, 0, 66, 0
1, 664550, Note_on_c, 0, 49, 0
1, 664556, Control_c, 0, 64, 0
1, 664560, Note_on_c, 0, 81, 127
1, 664560, Note_on_c, 0, 64, 127
1, 664560, Note_on_c, 0, 69, 127
1, 664560, Note_on_c, 0, 61, 127
1, 664670, Note_on_c, 0, 81, 0
1, 664680, Note_on_c, 0, 93, 127
1, 664703, Control_c, 0, 64, 127
1, 664790, Note_on_c, 0, 93, 0
1, 664800, Note_on_c, 0, 81, 127
1, 664910, Note_on_c, 0, 81, 0
1, 664920, Note_on_c, 0, 93, 127
1, 665030, Note_on_c, 0, 93, 0
1, 665030, Note_on_c, 0, 64, 0
1, 665030, Note_on_c, 0, 69, 0
1, 665030, Note_on_c, 0, 61, 0
1, 665040, Note_on_c, 0, 81, 127
1, 665040, Note_on_c, 0, 67, 127
1, 665150, Note_on_c, 0, 81, 0
1, 665160, Note_on_c, 0, 93, 127
1, 665160, Note_on_c, 0, 45, 127
1, 665270, Note_on_c, 0, 93, 0
1, 665270, Note_on_c, 0, 67, 0
1, 665270, Note_on_c, 0, 45, 0
1, 665280, Note_on_c, 0, 81, 127
1, 665280, Note_on_c, 0, 62, 127
1, 665280, Note_on_c, 0, 66, 127
1, 665280, Note_on_c, 0, 57, 127
1, 665390, Note_on_c, 0, 81, 0
1, 665400, Note_on_c, 0, 93, 127
1, 665510, Note_on_c, 0, 93, 0
1, 665520, Note_on_c, 0, 81, 127
1, 665630, Note_on_c, 0, 81, 0
1, 665640, Note_on_c, 0, 93, 127
1, 665750, Note_on_c, 0, 93, 0
1, 665750, Note_on_c, 0, 62, 0
1, 665750, Note_on_c, 0, 66, 0
1, 665750, Note_on_c, 0, 57, 0
1, 665760, Note_on_c, 0, 81, 127
1, 665760, Note_on_c, 0, 64, 127
1, 665870, Note_on_c, 0, 81, 0
1, 665880, Note_on_c, 0, 93, 127
1, 665990, Note_on_c, 0, 93, 0
1, 665990, Note_on_c, 0, 64, 0
1, 666000, Note_on_c, 0, 81, 127
1, 666000, Note_on_c, 0, 54, 127
1, 666000, Note_on_c, 0, 59, 127
1, 666000, Note_on_c, 0, 62, 127
1, 666000, Note_on_c, 0, 47, 127
1, 666066, Control_c, 0, 64, 0
1, 666110, Note_on_c, 0, 81, 0
1, 666120, Note_on_c, 0, 93, 127
1, 666202, Control_c, 0, 64, 127
1, 666230, Note_on_c, 0, 93, 0
1, 666240, Note_on_c, 0, 81, 127
1, 666350, Note_on_c, 0, 81, 0
1, 666360, Note_on_c, 0, 93, 127
1, 666470, Note_on_c, 0, 93, 0
1, 666470, Note_on_c, 0, 54, 0
1, 666470, Note_on_c, 0, 59, 0
1, 666470, Note_on_c, 0, 62, 0
1, 666470, Note_on_c, 0, 47, 0
1, 666480, Note_on_c, 0, 81, 127
1, 666480, Note_on_c, 0, 62, 127
1, 666480, Note_on_c, 0, 59, 127
1, 666590, Note_on_c, 0, 81, 0
1, 666600, Note_on_c, 0, 93, 127
1, 666600, Note_on_c, 0, 47, 127
1, 666710, Note_on_c, 0, 93, 0
1, 666710, Note_on_c, 0, 62, 0
1, 666710, Note_on_c, 0, 59, 0
1, 666710, Note_on_c, 0, 47, 0
1, 666720, Note_on_c, 0, 81, 127
1, 666720, Note_on_c, 0, 61, 127
1, 666720, Note_on_c, 0, 64, 127
1, 666720, Note_on_c, 0, 59, 127
1, 666830, Note_on_c, 0, 81, 0
1, 666840, Note_on_c, 0, 93, 127
1, 666950, Note_on_c, 0, 93, 0
1, 666960, Note_on_c, 0, 81, 127
1, 667070, Note_on_c, 0, 81, 0
1, 667080, Note_on_c, 0, 93, 127
1, 667190, Note_on_c, 0, 93, 0
1, 667190, Note_on_c, 0, 61, 0
1, 667190, Note_on_c, 0, 64, 0
1, 667190, Note_on_c, 0, 59, 0
1, 667200, Note_on_c, 0, 81, 127
1, 667200, Note_on_c, 0, 66, 127
1, 667200, Note_on_c, 0, 62, 127
1, 667310, Note_on_c, 0, 81, 0
1, 667320, Note_on_c, 0, 93, 127
1, 667320, Note_on_c, 0, 45, 127
1, 667382, Control_c, 0, 64, 0
1, 667430, Note_on_c, 0, 93, 0
1, 667430, Note_on_c, 0, 66, 0
1, 667430, Note_on_c, 0, 62, 0
1, 667430, Note_on_c, 0, 45, 0
1, 667440, Note_on_c, 0, 81, 127
1, 667440, Note_on_c, 0, 60, 127
1, 667440, Note_on_c, 0, 66, 127
1, 667440, Note_on_c, 0, 57, 127
1, 667550, Note_on_c, 0, 81, 0
1, 667560, Note_on_c, 0, 93, 127
1, 667563, Control_c, 0, 64, 127
1, 667670, Note_on_c, 0, 93, 0
1, 667680, Note_on_c, 0, 81, 127
1, 667790, Note_on_c, 0, 81, 0
1, 667800, Note_on_c, 0, 93, 127
1, 667910, Note_on_c, 0, 93, 0
1, 667910, Note_on_c, 0, 60, 0
1, 667910, Note_on_c, 0, 66, 0
1, 667910, Note_on_c, 0, 57, 0
1, 667920, Note_on_c, 0, 81, 127
1, 667920, Note_on_c, 0, 64, 127
1, 668030, Note_on_c, 0, 81, 0
1, 668040, Note_on_c, 0, 93, 127
1, 668040, Note_on_c, 0, 42, 127
1, 668150, Note_on_c, 0, 93, 0
1, 668150, Note_on_c, 0, 64, 0
1, 668150, Note_on_c, 0, 42, 0
1, 668160, Note_on_c, 0, 81, 127
1, 668160, Note_on_c, 0, 57, 127
1, 668160, Note_on_c, 0, 62, 127
1, 668160, Note_on_c, 0, 54, 127
1, 668270, Note_on_c, 0, 81, 0
1, 668280, Note_on_c, 0, 93, 127
1, 668390, Note_on_c, 0, 93, 0
1, 668400, Note_on_c, 0, 81, 127
1, 668510, Note_on_c, 0, 81, 0
1, 668520, Note_on_c, 0, 93, 127
1, 668630, Note_on_c, 0, 93, 0
1, 668630, Note_on_c, 0, 57, 0
1, 668630, Note_on_c, 0, 62, 0
1, 668630, Note_on_c, 0, 54, 0
1, 668640, Note_on_c, 0, 81, 127
1, 668640, Note_on_c, 0, 60, 127
1, 668750, Note_on_c, 0, 81, 0
1, 668760, Note_on_c, 0, 93, 127
1, 668789, Control_c, 0, 64, 0
1, 668870, Note_on_c, 0, 93, 0
1, 668870, Note_on_c, 0, 60, 0
1, 668880, Note_on_c, 0, 81, 127
1, 668880, Note_on_c, 0, 50, 127
1, 668880, Note_on_c, 0, 55, 127
1, 668880, Note_on_c, 0, 59, 127
1, 668880, Note_on_c, 0, 43, 127
1, 668990, Note_on_c, 0, 81, 0
1, 669000, Note_on_c, 0, 93, 127
1, 669110, Note_on_c, 0, 93, 0
1, 669112, Control_c, 0, 64, 127
1, 669120, Note_on_c, 0, 81, 127
1, 669230, Note_on_c, 0, 81, 0
1, 669240, Note_on_c, 0, 93, 127
1, 669350, Note_on_c, 0, 93, 0
1, 669350, Note_on_c, 0, 50, 0
1, 669350, Note_on_c, 0, 55, 0
1, 669350, Note_on_c, 0, 59, 0
1, 669350, Note_on_c, 0, 43, 0
1, 669360, Note_on_c, 0, 81, 127
1, 669360, Note_on_c, 0, 59, 127
1, 669360, Note_on_c, 0, 55, 127
1, 669470, Note_on_c, 0, 81, 0
1, 669480, Note_on_c, 0, 93, 127
1, 669480, Note_on_c, 0, 43, 127
1, 669590, Note_on_c, 0, 93, 0
1, 669590, Note_on_c, 0, 59, 0
1, 669590, Note_on_c, 0, 55, 0
1, 669590, Note_on_c, 0, 43, 0
1, 669600, Note_on_c, 0, 81, 127
1, 669600, Note_on_c, 0, 57, 127
1, 669600, Note_on_c, 0, 60, 127
1, 669600, Note_on_c, 0, 55, 127
1, 669710, Note_on_c, 0, 81, 0
1, 669720, Note_on_c, 0, 93, 127
1, 669830, Note_on_c, 0, 93, 0
1, 669840, Note_on_c, 0, 81, 127
1, 669950, Note_on_c, 0, 81, 0
1, 669960, Note_on_c, 0, 93, 127
1, 670070, Note_on_c, 0, 93, 0
1, 670070, Note_on_c, 0, 57, 0
1, 670070, Note_on_c, 0, 60, 0
1, 670070, Note_on_c, 0, 55, 0
1, 670080, Note_on_c, 0, 81, 127
1, 670080, Note_on_c, 0, 62, 127
1, 670080, Note_on_c, 0, 59, 127
1, 670190, Note_on_c, 0, 81, 0
1, 670200, Note_on_c, 0, 93, 127
1, 670200, Note_on_c, 0, 42, 127
1, 670310, Note_on_c, 0, 93, 0
1, 670310, Note_on_c, 0, 62, 0
1, 670310, Note_on_c, 0, 59, 0
1, 670310, Note_on_c, 0, 42, 0
1, 670320, Note_on_c, 0, 81, 127
1, 670320, Note_on_c, 0, 57, 127
1, 670320, Note_on_c, 0, 62, 127
1, 670320, Note_on_c, 0, 54, 127
1, 670343, Control_c, 0, 64, 0
1, 670430, Note_on_c, 0, 81, 0
1, 670440, Note_on_c, 0, 93, 127
1, 670531, Control_c, 0, 64, 127
1, 670550, Note_on_c, 0, 93, 0
1, 670560, Note_on_c, 0, 81, 127
1, 670670, Note_on_c, 0, 81, 0
1, 670680, Note_on_c, 0, 93, 127
1, 670790, Note_on_c, 0, 93, 0
1, 670790, Note_on_c, 0, 57, 0
1, 670790, Note_on_c, 0, 62, 0
1, 670790, Note_on_c, 0, 54, 0
1, 670800, Note_on_c, 0, 81, 127
1, 670800, Note_on_c, 0, 66, 127
1, 670800, Note_on_c, 0, 62, 127
1, 670910, Note_on_c, 0, 81, 0
1, 670920, Note_on_c, 0, 93, 127
1, 670920, Note_on_c, 0, 50, 127
1, 671030, Note_on_c, 0, 93, 0
1, 671030, Note_on_c, 0, 66, 0
1, 671030, Note_on_c, 0, 62, 0
1, 671030, Note_on_c, 0, 50, 0
1, 671040, Note_on_c, 0, 81, 127
1, 671040, Note_on_c, 0, 64, 127
1, 671040, Note_on_c, 0, 67, 127
1, 671040, Note_on_c, 0, 62, 127
1, 671150, Note_on_c, 0, 81, 0
1, 671160, Note_on_c, 0, 93, 127
1, 671270, Note_on_c, 0, 93, 0
1, 671280, Note_on_c, 0, 81, 127
1, 671390, Note_on_c, 0, 81, 0
1, 671400, Note_on_c, 0, 93, 127
1, 671510, Note_on_c, 0, 93, 0
1, 671510, Note_on_c, 0, 64, 0
1, 671510, Note_on_c, 0, 67, 0
1, 671510, Note_on_c, 0, 62, 0
1, 671520, Note_on_c, 0, 81, 127
1, 671520, Note_on_c, 0, 69, 127
1, 671520, Note_on_c, 0, 66, 127
1, 671623, Control_c, 0, 64, 0
1, 671630, Note_on_c, 0, 81, 0
1, 671640, Note_on_c, 0, 93, 127
1, 671640, Note_on_c, 0, 52, 127
1, 671740, Control_c, 0, 64, 127
1, 671750, Note_on_c, 0, 93, 0
1, 671750, Note_on_c, 0, 69, 0
1, 671750, Note_on_c, 0, 66, 0
1, 671750, Note_on_c, 0, 52, 0
1, 671760, Note_on_c, 0, 81, 127
1, 671760, Note_on_c, 0, 67, 127
1, 671760, Note_on_c, 0, 64, 127
1, 671870, Note_on_c, 0, 81, 0
1, 671880, Note_on_c, 0, 93, 127
1, 671990, Note_on_c, 0, 93, 0
1, 672000, Note_on_c, 0, 81, 127
1, 672110, Note_on_c, 0, 81, 0
1, 672120, Note_on_c, 0, 93, 127
1, 672230, Note_on_c, 0, 93, 0
1, 672230, Note_on_c, 0, 67, 0
1, 672230, Note_on_c, 0, 64, 0
1, 672240, Note_on_c, 0, 81, 127
1, 672240, Note_on_c, 0, 66, 127
1, 672240, Note_on_c, 0, 62, 127
1, 672350, Note_on_c, 0, 81, 0
1, 672360, Note_on_c, 0, 93, 127
1, 672360, Note_on_c, 0, 52, 127
1, 672470, Note_on_c, 0, 93, 0
1, 672470, Note_on_c, 0, 66, 0
1, 672470, Note_on_c, 0, 62, 0
1, 672470, Note_on_c, 0, 52, 0
1, 672480, Note_on_c, 0, 81, 127
1, 672480, Note_on_c, 0, 67, 127
1, 672480, Note_on_c, 0, 64, 127
1, 672590, Note_on_c, 0, 81, 0
1, 672600, Note_on_c, 0, 93, 127
1, 672710, Note_on_c, 0, 93, 0
1, 672720, Note_on_c, 0, 81, 127
1, 672830, Note_on_c, 0, 81, 0
1, 672840, Note_on_c, 0, 93, 127
1, 672950, Note_on_c, 0, 93, 0
1, 672950, Note_on_c, 0, 67, 0
1, 672950, Note_on_c, 0, 64, 0
1, 672960, Note_on_c, 0, 81, 127
1, 672960, Note_on_c, 0, 69, 127
1, 672960, Note_on_c, 0, 66, 127
1, 673070, Note_on_c, 0, 81, 0
1, 673080, Note_on_c, 0, 93, 127
1, 673080, Note_on_c, 0, 52, 127
1, 673190, Note_on_c, 0, 93, 0
1, 673190, Note_on_c, 0, 69, 0
1, 673190, Note_on_c, 0, 66, 0
1, 673190, Note_on_c, 0, 52, 0
1, 673200, Note_on_c, 0, 81, 127
1, 673200, Note_on_c, 0, 71, 127
1, 673200, Note_on_c, 0, 67, 127
1, 673200, Note_on_c, 0, 64, 127
1, 673214, Control_c, 0, 64, 0
1, 673310, Note_on_c, 0, 81, 0
1, 673320, Note_on_c, 0, 93, 127
1, 673405, Control_c, 0, 64, 127
1, 673430, Note_on_c, 0, 93, 0
1, 673440, Note_on_c, 0, 81, 127
1, 673550, Note_on_c, 0, 81, 0
1, 673560, Note_on_c, 0, 93, 127
1, 673670, Note_on_c, 0, 93, 0
1, 673670, Note_on_c, 0, 71, 0
1, 673670, Note_on_c, 0, 67, 0
1, 673680, Note_on_c, 0, 81, 127
1, 673680, Note_on_c, 0, 69, 127
1, 673680, Note_on_c, 0, 66, 127
1, 673790, Note_on_c, 0, 81, 0
1, 673800, Note_on_c, 0, 93, 127
1, 673910, Note_on_c, 0, 93, 0
1, 673910, Note_on_c, 0, 69, 0
1, 673910, Note_on_c, 0, 66, 0
1, 673910, Note_on_c, 0, 64, 0
1, 673920, Note_on_c, 0, 81, 127
1, 673920, Note_on_c, 0, 71, 127
1, 673920, Note_on_c, 0, 67, 127
1, 673920, Note_on_c, 0, 64, 127
1, 674030, Note_on_c, 0, 81, 0
1, 674040, Note_on_c, 0, 93, 127
1, 674150, Note_on_c, 0, 93, 0
1, 674160, Note_on_c, 0, 81, 127
1, 674270, Note_on_c, 0, 81, 0
1, 674280, Note_on_c, 0, 93, 127
1, 674390, Note_on_c, 0, 93, 0
1, 674390, Note_on_c, 0, 71, 0
1, 674400, Note_on_c, 0, 81, 127
1, 674400, Note_on_c, 0, 73, 127
1, 674510, Note_on_c, 0, 81, 0
1, 674520, Note_on_c, 0, 93, 127
1, 674630, Note_on_c, 0, 93, 0
1, 674640, Note_on_c, 0, 81, 127
1, 674707, Control_c, 0, 64, 0
1, 674750, Note_on_c, 0, 81, 0
1, 674760, Note_on_c, 0, 93, 127
1, 674838, Control_c, 0, 64, 127
1, 674870, Note_on_c, 0, 93, 0
1, 674880, Note_on_c, 0, 81, 127
1, 674990, Note_on_c, 0, 81, 0
1, 675000, Note_on_c, 0, 93, 127
1, 675110, Note_on_c, 0, 93, 0
1, 675110, Note_on_c, 0, 73, 0
1, 675120, Note_on_c, 0, 81, 127
1, 675120, Note_on_c, 0, 69, 127
1, 675230, Note_on_c, 0, 81, 0
1, 675240, Note_on_c, 0, 93, 127
1, 675240, Note_on_c, 0, 52, 127
1, 675350, Note_on_c, 0, 64, 0
1, 675350, Note_on_c, 0, 67, 0
1, 675350, Note_on_c, 0, 93, 0
1, 675350, Note_on_c, 0, 69, 0
1, 675350, Note_on_c, 0, 52, 0
1, 675360, Note_on_c, 0, 81, 127
1, 675360, Note_on_c, 0, 71, 127
1, 675360, Note_on_c, 0, 67, 127
1, 675360, Note_on_c, 0, 64, 127
1, 675470, Note_on_c, 0, 81, 0
1, 675480, Note_on_c, 0, 93, 127
1, 675590, Note_on_c, 0, 93, 0
1, 675600, Note_on_c, 0, 81, 127
1, 675710, Note_on_c, 0, 81, 0
1, 675720, Note_on_c, 0, 93, 127
1, 675830, Note_on_c, 0, 93, 0
1, 675830, Note_on_c, 0, 71, 0
1, 675840, Note_on_c, 0, 81, 127
1, 675840, Note_on_c, 0, 73, 127
1, 675950, Note_on_c, 0, 81, 0
1, 675960, Note_on_c, 0, 93, 127
1, 675960, Note_on_c, 0, 50, 127
1, 675986, Control_c, 0, 64, 0
1, 676070, Note_on_c, 0, 93, 0
1, 676070, Note_on_c, 0, 73, 0
1, 676070, Note_on_c, 0, 67, 0
1, 676070, Note_on_c, 0, 64, 0
1, 676070, Note_on_c, 0, 50, 0
1, 676080, Note_on_c, 0, 81, 127
1, 676080, Note_on_c, 0, 66, 127
1, 676080, Note_on_c, 0, 74, 127
1, 676080, Note_on_c, 0, 62, 127
1, 676190, Note_on_c, 0, 81, 0
1, 676200, Note_on_c, 0, 93, 127
1, 676227, Control_c, 0, 64, 127
1, 676310, Note_on_c, 0, 93, 0
1, 676320, Note_on_c, 0, 81, 127
1, 676430, Note_on_c, 0, 81, 0
1, 676440, Note_on_c, 0, 93, 127
1, 676550, Note_on_c, 0, 93, 0
1, 676550, Note_on_c, 0, 66, 0
1, 676550, Note_on_c, 0, 74, 0
1, 676550, Note_on_c, 0, 62, 0
1, 676560, Note_on_c, 0, 81, 127
1, 676560, Note_on_c, 0, 66, 127
1, 676560, Note_on_c, 0, 74, 127
1, 676560, Note_on_c, 0, 62, 127
1, 676670, Note_on_c, 0, 81, 0
1, 676680, Note_on_c, 0, 93, 127
1, 676790, Note_on_c, 0, 93, 0
1, 676790, Note_on_c, 0, 66, 0
1, 676790, Note_on_c, 0, 74, 0
1, 676790, Note_on_c, 0, 62, 0
1, 676800, Note_on_c, 0, 66, 127
1, 676800, Note_on_c, 0, 74, 127
1, 676800, Note_on_c, 0, 62, 127
1, 677203, Control_c, 0, 64, 0
1, 677510, Note_on_c, 0, 66, 0
1, 677510, Note_on_c, 0, 74, 0
1, 677510, Note_on_c, 0, 62, 0
1, 677520, Note_on_c, 0, 42, 47
1, 677545, Control_c, 0, 64, 127
1, 677760, Note_on_c, 0, 66, 47
1, 677760, Note_on_c, 0, 54, 47
1, 677990, Note_on_c, 0, 42, 0
1, 677990, Note_on_c, 0, 66, 0
1, 677990, Note_on_c, 0, 54, 0
1, 678000, Note_on_c, 0, 66, 47
1, 678000, Note_on_c, 0, 54, 47
1, 678230, Note_on_c, 0, 66, 0
1, 678230, Note_on_c, 0, 54, 0
1, 678240, Note_on_c, 0, 66, 47
1, 678240, Note_on_c, 0, 54, 47
1, 678470, Note_on_c, 0, 66, 0
1, 678470, Note_on_c, 0, 54, 0
1, 678480, Note_on_c, 0, 66, 47
1, 678480, Note_on_c, 0, 54, 47
1, 678710, Note_on_c, 0, 66, 0
1, 678710, Note_on_c, 0, 54, 0
1, 678720, Note_on_c, 0, 66, 47
1, 678720, Note_on_c, 0, 54, 47
1, 678720, Note_on_c, 0, 42, 47
1, 678819, Control_c, 0, 64, 0
1, 678950, Note_on_c, 0, 66, 0
1, 678950, Note_on_c, 0, 54, 0
1, 678950, Note_on_c, 0, 42, 0
1, 678958, Control_c, 0, 64, 127
1, 678960, Note_on_c, 0, 48, 47
1, 678960, Note_on_c, 0, 36, 47
1, 679200, Note_on_c, 0, 60, 47
1, 679430, Note_on_c, 0, 48, 0
1, 679430, Note_on_c, 0, 36, 0
1, 679430, Note_on_c, 0, 60, 0
1, 679440, Note_on_c, 0, 60, 47
1, 679670, Note_on_c, 0, 60, 0
1, 679680, Note_on_c, 0, 60, 47
1, 679910, Note_on_c, 0, 60, 0
1, 679920, Note_on_c, 0, 60, 47
1, 680150, Note_on_c, 0, 60, 0
1, 680160, Note_on_c, 0, 60, 47
1, 680160, Note_on_c, 0, 48, 47
1, 680160, Note_on_c, 0, 36, 47
1, 680359, Control_c, 0, 64, 0
1, 680390, Note_on_c, 0, 60, 0
1, 680390, Note_on_c, 0, 48, 0
1, 680390, Note_on_c, 0, 36, 0
1, 680400, Note_on_c, 0, 45, 47
1, 680640, Note_on_c, 0, 69, 47
1, 680640, Note_on_c, 0, 57, 47
1, 680667, Control_c, 0, 64, 127
1, 680870, Note_on_c, 0, 45, 0
1, 680870, Note_on_c, 0, 69, 0
1, 680870, Note_on_c, 0, 57, 0
1, 680880, Note_on_c, 0, 69, 47
1, 680880, Note_on_c, 0, 57, 47
1, 681110, Note_on_c, 0, 69, 0
1, 681110, Note_on_c, 0, 57, 0
1, 681120, Note_on_c, 0, 69, 47
1, 681120, Note_on_c, 0, 57, 47
1, 681350, Note_on_c, 0, 69, 0
1, 681350, Note_on_c, 0, 57, 0
1, 681360, Note_on_c, 0, 69, 47
1, 681360, Note_on_c, 0, 57, 47
1, 681590, Note_on_c, 0, 69, 0
1, 681590, Note_on_c, 0, 57, 0
1, 681600, Note_on_c, 0, 69, 47
1, 681600, Note_on_c, 0, 57, 47
1, 681600, Note_on_c, 0, 45, 47
1, 681618, Control_c, 0, 64, 0
1, 681830, Note_on_c, 0, 69, 0
1, 681830, Note_on_c, 0, 57, 0
1, 681830, Note_on_c, 0, 45, 0
1, 681840, Note_on_c, 0, 46, 47
1, 682030, Control_c, 0, 64, 127
1, 682080, Note_on_c, 0, 70, 47
1, 682080, Note_on_c, 0, 58, 47
1, 682310, Note_on_c, 0, 46, 0
1, 682310, Note_on_c, 0, 70, 0
1, 682310, Note_on_c, 0, 58, 0
1, 682320, Note_on_c, 0, 70, 47
1, 682320, Note_on_c, 0, 58, 47
1, 682550, Note_on_c, 0, 70, 0
1, 682550, Note_on_c, 0, 58, 0
1, 682560, Note_on_c, 0, 70, 47
1, 682560, Note_on_c, 0, 58, 47
1, 682790, Note_on_c, 0, 70, 0
1, 682790, Note_on_c, 0, 58, 0
1, 682800, Note_on_c, 0, 70, 47
1, 682800, Note_on_c, 0, 58, 47
1, 683030, Note_on_c, 0, 70, 0
1, 683030, Note_on_c, 0, 58, 0
1, 683040, Note_on_c, 0, 70, 47
1, 683040, Note_on_c, 0, 58, 47
1, 683040, Note_on_c, 0, 46, 47
1, 683045, Control_c, 0, 64, 0
1, 683270, Note_on_c, 0, 70, 0
1, 683270, Note_on_c, 0, 58, 0
1, 683270, Note_on_c, 0, 46, 0
1, 683280, Note_on_c, 0, 52, 47
1, 683280, Note_on_c, 0, 40, 47
1, 683486, Control_c, 0, 64, 127
1, 683520, Note_on_c, 0, 64, 47
1, 683750, Note_on_c, 0, 52, 0
1, 683750, Note_on_c, 0, 40, 0
1, 683750, Note_on_c, 0, 64, 0
1, 683760, Note_on_c, 0, 64, 47
1, 683990, Note_on_c, 0, 64, 0
1, 684000, Note_on_c, 0, 64, 47
1, 684230, Note_on_c, 0, 64, 0
1, 684240, Note_on_c, 0, 64, 47
1, 684304, Control_c, 0, 64, 0
1, 684470, Note_on_c, 0, 64, 0
1, 684480, Note_on_c, 0, 64, 47
1, 684480, Note_on_c, 0, 52, 47
1, 684480, Note_on_c, 0, 40, 47
1, 684710, Note_on_c, 0, 64, 0
1, 684710, Note_on_c, 0, 52, 0
1, 684710, Note_on_c, 0, 40, 0
1, 684720, Note_on_c, 0, 49, 47
1, 684960, Note_on_c, 0, 73, 47
1, 684960, Note_on_c, 0, 61, 47
1, 684982, Control_c, 0, 64, 127
1, 685190, Note_on_c, 0, 49, 0
1, 685190, Note_on_c, 0, 73, 0
1, 685190, Note_on_c, 0, 61, 0
1, 685200, Note_on_c, 0, 73, 47
1, 685200, Note_on_c, 0, 61, 47
1, 685430, Note_on_c, 0, 73, 0
1, 685430, Note_on_c, 0, 61, 0
1, 685440, Note_on_c, 0, 73, 47
1, 685440, Note_on_c, 0, 61, 47
1, 685670, Note_on_c, 0, 73, 0
1, 685670, Note_on_c, 0, 61, 0
1, 685680, Note_on_c, 0, 73, 47
1, 685680, Note_on_c, 0, 61, 47
1, 685847, Control_c, 0, 64, 0
1, 685910, Note_on_c, 0, 73, 0
1, 685910, Note_on_c, 0, 61, 0
1, 685920, Note_on_c, 0, 73, 47
1, 685920, Note_on_c, 0, 61, 47
1, 685920, Note_on_c, 0, 49, 47
1, 686150, Note_on_c, 0, 73, 0
1, 686150, Note_on_c, 0, 61, 0
1, 686150, Note_on_c, 0, 49, 0
1, 686160, Note_on_c, 0, 50, 47
1, 686275, Control_c, 0, 64, 127
1, 686400, Note_on_c, 0, 74, 47
1, 686400, Note_on_c, 0, 62, 47
1, 686630, Note_on_c, 0, 50, 0
1, 686630, Note_on_c, 0, 74, 0
1, 686630, Note_on_c, 0, 62, 0
1, 686640, Note_on_c, 0, 74, 47
1, 686640, Note_on_c, 0, 62, 47
1, 686870, Note_on_c, 0, 74, 0
1, 686870, Note_on_c, 0, 62, 0
1, 686880, Note_on_c, 0, 74, 47
1, 686880, Note_on_c, 0, 62, 47
1, 687110, Note_on_c, 0, 74, 0
1, 687110, Note_on_c, 0, 62, 0
1, 687120, Note_on_c, 0, 74, 47
1, 687120, Note_on_c, 0, 62, 47
1, 687350, Note_on_c, 0, 74, 0
1, 687350, Note_on_c, 0, 62, 0
1, 687360, Note_on_c, 0, 74, 47
1, 687360, Note_on_c, 0, 62, 47
1, 687360, Note_on_c, 0, 50, 47
1, 687414, Control_c, 0, 64, 0
1, 687590, Note_on_c, 0, 74, 0
1, 687590, Note_on_c, 0, 62, 0
1, 687590, Note_on_c, 0, 50, 0
1, 687600, Note_on_c, 0, 51, 47
1, 687706, Control_c, 0, 64, 127
1, 687840, Note_on_c, 0, 75, 47
1, 687840, Note_on_c, 0, 63, 47
1, 688070, Note_on_c, 0, 75, 0
1, 688070, Note_on_c, 0, 63, 0
1, 688080, Note_on_c, 0, 75, 47
1, 688080, Note_on_c, 0, 63, 47
1, 688310, Note_on_c, 0, 75, 0
1, 688310, Note_on_c, 0, 63, 0
1, 688320, Note_on_c, 0, 75, 47
1, 688320, Note_on_c, 0, 63, 47
1, 688550, Note_on_c, 0, 75, 0
1, 688550, Note_on_c, 0, 63, 0
1, 688560, Note_on_c, 0, 75, 47
1, 688560, Note_on_c, 0, 63, 47
1, 688790, Note_on_c, 0, 75, 0
1, 688790, Note_on_c, 0, 63, 0
1, 688800, Note_on_c, 0, 75, 47
1, 688800, Note_on_c, 0, 63, 47
1, 689030, Note_on_c, 0, 51, 0
1, 689030, Note_on_c, 0, 75, 0
1, 689030, Note_on_c, 0, 63, 0
1, 689040, Note_on_c, 0, 43, 47
1, 689040, Note_on_c, 0, 31, 47
1, 689086, Control_c, 0, 64, 0
1, 689280, Note_on_c, 0, 67, 47
1, 689280, Note_on_c, 0, 55, 47
1, 689346, Control_c, 0, 64, 127
1, 689510, Note_on_c, 0, 43, 0
1, 689510, Note_on_c, 0, 31, 0
1, 689510, Note_on_c, 0, 67, 0
1, 689510, Note_on_c, 0, 55, 0
1, 689520, Note_on_c, 0, 67, 47
1, 689520, Note_on_c, 0, 55, 47
1, 689697, Control_c, 0, 64, 0
1, 689750, Note_on_c, 0, 67, 0
1, 689750, Note_on_c, 0, 55, 0
1, 689760, Note_on_c, 0, 67, 47
1, 689760, Note_on_c, 0, 55, 47
1, 689990, Note_on_c, 0, 67, 0
1, 689990, Note_on_c, 0, 55, 0
1, 690000, Note_on_c, 0, 67, 47
1, 690000, Note_on_c, 0, 55, 47
1, 690230, Note_on_c, 0, 67, 0
1, 690230, Note_on_c, 0, 55, 0
1, 690240, Note_on_c, 0, 67, 47
1, 690240, Note_on_c, 0, 55, 47
1, 690240, Note_on_c, 0, 43, 47
1, 690240, Note_on_c, 0, 31, 47
1, 690470, Note_on_c, 0, 67, 0
1, 690470, Note_on_c, 0, 55, 0
1, 690470, Note_on_c, 0, 43, 0
1, 690470, Note_on_c, 0, 31, 0
1, 690480, Note_on_c, 0, 52, 47
1, 690480, Note_on_c, 0, 40, 47
1, 690720, Note_on_c, 0, 76, 47
1, 690720, Note_on_c, 0, 64, 47
1, 690786, Control_c, 0, 64, 127
1, 690950, Note_on_c, 0, 52, 0
1, 690950, Note_on_c, 0, 40, 0
1, 690950, Note_on_c, 0, 76, 0
1, 690950, Note_on_c, 0, 64, 0
1, 690960, Note_on_c, 0, 76, 47
1, 690960, Note_on_c, 0, 64, 47
1, 691190, Note_on_c, 0, 76, 0
1, 691190, Note_on_c, 0, 64, 0
1, 691200, Note_on_c, 0, 76, 47
1, 691200, Note_on_c, 0, 64, 47
1, 691430, Note_on_c, 0, 76, 0
1, 691430, Note_on_c, 0, 64, 0
1, 691440, Note_on_c, 0, 76, 47
1, 691440, Note_on_c, 0, 64, 47
1, 691670, Note_on_c, 0, 76, 0
1, 691670, Note_on_c, 0, 64, 0
1, 691680, Note_on_c, 0, 76, 47
1, 691680, Note_on_c, 0, 64, 47
1, 691680, Note_on_c, 0, 52, 47
1, 691680, Note_on_c, 0, 40, 47
1, 691714, Control_c, 0, 64, 0
1, 691910, Note_on_c, 0, 76, 0
1, 691910, Note_on_c, 0, 64, 0
1, 691910, Note_on_c, 0, 52, 0
1, 691910, Note_on_c, 0, 40, 0
1, 691920, Note_on_c, 0, 53, 47
1, 691920, Note_on_c, 0, 41, 47
1, 692152, Control_c, 0, 64, 127
1, 692160, Note_on_c, 0, 77, 47
1, 692160, Note_on_c, 0, 65, 47
1, 692390, Note_on_c, 0, 53, 0
1, 692390, Note_on_c, 0, 41, 0
1, 692390, Note_on_c, 0, 77, 0
1, 692390, Note_on_c, 0, 65, 0
1, 692400, Note_on_c, 0, 77, 47
1, 692400, Note_on_c, 0, 65, 47
1, 692630, Note_on_c, 0, 77, 0
1, 692630, Note_on_c, 0, 65, 0
1, 692640, Note_on_c, 0, 77, 47
1, 692640, Note_on_c, 0, 65, 47
1, 692870, Note_on_c, 0, 77, 0
1, 692870, Note_on_c, 0, 65, 0
1, 692880, Note_on_c, 0, 77, 47
1, 692880, Note_on_c, 0, 65, 47
1, 693088, Control_c, 0, 64, 0
1, 693110, Note_on_c, 0, 77, 0
1, 693110, Note_on_c, 0, 65, 0
1, 693120, Note_on_c, 0, 77, 47
1, 693120, Note_on_c, 0, 65, 47
1, 693120, Note_on_c, 0, 53, 47
1, 693120, Note_on_c, 0, 41, 47
1, 693350, Note_on_c, 0, 77, 0
1, 693350, Note_on_c, 0, 65, 0
1, 693350, Note_on_c, 0, 53, 0
1, 693350, Note_on_c, 0, 41, 0
1, 693360, Note_on_c, 0, 54, 47
1, 693360, Note_on_c, 0, 42, 47
1, 693580, Control_c, 0, 64, 127
1, 693600, Note_on_c, 0, 78, 47
1, 693600, Note_on_c, 0, 66, 47
1, 693830, Note_on_c, 0, 54, 0
1, 693830, Note_on_c, 0, 42, 0
1, 693830, Note_on_c, 0, 78, 0
1, 693830, Note_on_c, 0, 66, 0
1, 693840, Note_on_c, 0, 78, 47
1, 693840, Note_on_c, 0, 66, 47
1, 694070, Note_on_c, 0, 78, 0
1, 694070, Note_on_c, 0, 66, 0
1, 694080, Note_on_c, 0, 78, 47
1, 694080, Note_on_c, 0, 66, 47
1, 694310, Note_on_c, 0, 78, 0
1, 694310, Note_on_c, 0, 66, 0
1, 694320, Note_on_c, 0, 78, 47
1, 694320, Note_on_c, 0, 66, 47
1, 694550, Note_on_c, 0, 78, 0
1, 694550, Note_on_c, 0, 66, 0
1, 694560, Note_on_c, 0, 78, 47
1, 694560, Note_on_c, 0, 66, 47
1, 694560, Note_on_c, 0, 54, 47
1, 694560, Note_on_c, 0, 42, 47
1, 694667, Control_c, 0, 64, 0
1, 694790, Note_on_c, 0, 78, 0
1, 694790, Note_on_c, 0, 66, 0
1, 694790, Note_on_c, 0, 54, 0
1, 694790, Note_on_c, 0, 42, 0
1, 694800, Note_on_c, 0, 46, 47
1, 694800, Note_on_c, 0, 34, 47
1, 695040, Note_on_c, 0, 70, 47
1, 695040, Note_on_c, 0, 58, 90
1, 695056, Control_c, 0, 64, 127
1, 695270, Note_on_c, 0, 46, 0
1, 695270, Note_on_c, 0, 34, 0
1, 695270, Note_on_c, 0, 70, 0
1, 695270, Note_on_c, 0, 58, 0
1, 695280, Note_on_c, 0, 70, 49
1, 695280, Note_on_c, 0, 58, 90
1, 695510, Note_on_c, 0, 70, 0
1, 695510, Note_on_c, 0, 58, 0
1, 695520, Note_on_c, 0, 70, 52
1, 695520, Note_on_c, 0, 58, 90
1, 695750, Note_on_c, 0, 70, 0
1, 695750, Note_on_c, 0, 58, 0
1, 695760, Note_on_c, 0, 70, 55
1, 695760, Note_on_c, 0, 58, 90
1, 695990, Note_on_c, 0, 70, 0
1, 695990, Note_on_c, 0, 58, 0
1, 696000, Note_on_c, 0, 70, 57
1, 696000, Note_on_c, 0, 58, 90
1, 696000, Note_on_c, 0, 46, 59
1, 696000, Note_on_c, 0, 34, 59
1, 696230, Note_on_c, 0, 70, 0
1, 696230, Note_on_c, 0, 58, 0
1, 696230, Note_on_c, 0, 46, 0
1, 696230, Note_on_c, 0, 34, 0
1, 696240, Note_on_c, 0, 55, 62
1, 696240, Note_on_c, 0, 43, 62
1, 696263, Control_c, 0, 64, 0
1, 696480, Note_on_c, 0, 79, 63
1, 696480, Note_on_c, 0, 67, 90
1, 696580, Control_c, 0, 64, 127
1, 696710, Note_on_c, 0, 55, 0
1, 696710, Note_on_c, 0, 43, 0
1, 696710, Note_on_c, 0, 79, 0
1, 696710, Note_on_c, 0, 67, 0
1, 696720, Note_on_c, 0, 79, 65
1, 696720, Note_on_c, 0, 67, 90
1, 696950, Note_on_c, 0, 79, 0
1, 696950, Note_on_c, 0, 67, 0
1, 696960, Note_on_c, 0, 79, 68
1, 696960, Note_on_c, 0, 67, 90
1, 697190, Note_on_c, 0, 79, 0
1, 697190, Note_on_c, 0, 67, 0
1, 697200, Note_on_c, 0, 79, 71
1, 697200, Note_on_c, 0, 67, 90
1, 697430, Note_on_c, 0, 79, 0
1, 697430, Note_on_c, 0, 67, 0
1, 697440, Note_on_c, 0, 79, 73
1, 697440, Note_on_c, 0, 67, 90
1, 697440, Note_on_c, 0, 55, 74
1, 697440, Note_on_c, 0, 43, 74
1, 697652, Control_c, 0, 64, 0
1, 697670, Note_on_c, 0, 79, 0
1, 697670, Note_on_c, 0, 67, 0
1, 697670, Note_on_c, 0, 55, 0
1, 697670, Note_on_c, 0, 43, 0
1, 697680, Note_on_c, 0, 56, 77
1, 697680, Note_on_c, 0, 44, 77
1, 697888, Control_c, 0, 64, 127
1, 697920, Note_on_c, 0, 80, 79
1, 697920, Note_on_c, 0, 68, 90
1, 698150, Note_on_c, 0, 56, 0
1, 698150, Note_on_c, 0, 44, 0
1, 698150, Note_on_c, 0, 80, 0
1, 698150, Note_on_c, 0, 68, 0
1, 698160, Note_on_c, 0, 80, 81
1, 698160, Note_on_c, 0, 68, 90
1, 698390, Note_on_c, 0, 80, 0
1, 698390, Note_on_c, 0, 68, 0
1, 698400, Note_on_c, 0, 80, 84
1, 698400, Note_on_c, 0, 68, 90
1, 698630, Note_on_c, 0, 80, 0
1, 698630, Note_on_c, 0, 68, 0
1, 698640, Note_on_c, 0, 80, 87
1, 698640, Note_on_c, 0, 68, 90
1, 698870, Note_on_c, 0, 80, 0
1, 698870, Note_on_c, 0, 68, 0
1, 698880, Note_on_c, 0, 80, 90
1, 698880, Note_on_c, 0, 68, 90
1, 698880, Note_on_c, 0, 56, 90
1, 698880, Note_on_c, 0, 44, 90
1, 699068, Control_c, 0, 64, 0
1, 699110, Note_on_c, 0, 80, 0
1, 699110, Note_on_c, 0, 68, 0
1, 699110, Note_on_c, 0, 56, 0
1, 699110, Note_on_c, 0, 44, 0
1, 699120, Note_on_c, 0, 81, 90
1, 699120, Note_on_c, 0, 69, 90
1, 699120, Note_on_c, 0, 57, 90
1, 699120, Note_on_c, 0, 45, 90
1, 699350, Note_on_c, 0, 81, 0
1, 699350, Note_on_c, 0, 69, 0
1, 699350, Note_on_c, 0, 57, 0
1, 699350, Note_on_c, 0, 45, 0
1, 699840, Note_on_c, 0, 69, 90
1, 699840, Note_on_c, 0, 73, 90
1, 699840, Note_on_c, 0, 76, 90
1, 699840, Note_on_c, 0, 64, 90
1, 699840, Note_on_c, 0, 52, 90
1, 699840, Note_on_c, 0, 57, 90
1, 699840, Note_on_c, 0, 61, 90
1, 699840, Note_on_c, 0, 45, 90
1, 700115, Control_c, 0, 64, 127
1, 701270, Note_on_c, 0, 64, 0
1, 701270, Note_on_c, 0, 69, 0
1, 701270, Note_on_c, 0, 73, 0
1, 701270, Note_on_c, 0, 76, 0
1, 701270, Note_on_c, 0, 45, 0
1, 701270, Note_on_c, 0, 52, 0
1, 701270, Note_on_c, 0, 57, 0
1, 701270, Note_on_c, 0, 61, 0
1, 701280, Note_on_c, 0, 69, 90
1, 701280, Note_on_c, 0, 73, 90
1, 701280, Note_on_c, 0, 76, 90
1, 701280, Note_on_c, 0, 64, 90
1, 701280, Note_on_c, 0, 52, 90
1, 701280, Note_on_c, 0, 57, 90
1, 701280, Note_on_c, 0, 61, 90
1, 701280, Note_on_c, 0, 45, 90
1, 701990, Note_on_c, 0, 69, 0
1, 701990, Note_on_c, 0, 73, 0
1, 701990, Note_on_c, 0, 76, 0
1, 701990, Note_on_c, 0, 64, 0
1, 701990, Note_on_c, 0, 52, 0
1, 701990, Note_on_c, 0, 57, 0
1, 701990, Note_on_c, 0, 61, 0
1, 701990, Note_on_c, 0, 45, 0
1, 702000, Note_on_c, 0, 64, 90
1, 702000, Note_on_c, 0, 45, 90
1, 702000, Note_on_c, 0, 52, 90
1, 702000, Note_on_c, 0, 56, 90
1, 702000, Note_on_c, 0, 59, 90
1, 702000, Note_on_c, 0, 62, 90
1, 702000, Note_on_c, 0, 33, 90
1, 702277, Control_c, 0, 64, 0
1, 702470, Control_c, 0, 64, 127
1, 702710, Note_on_c, 0, 64, 0
1, 702710, Note_on_c, 0, 45, 0
1, 702710, Note_on_c, 0, 52, 0
1, 702710, Note_on_c, 0, 56, 0
1, 702710, Note_on_c, 0, 59, 0
1, 702710, Note_on_c, 0, 62, 0
1, 702710, Note_on_c, 0, 33, 0
1, 702720, Note_on_c, 0, 64, 90
1, 702720, Note_on_c, 0, 45, 90
1, 702720, Note_on_c, 0, 52, 90
1, 702720, Note_on_c, 0, 56, 90
1, 702720, Note_on_c, 0, 59, 90
1, 702720, Note_on_c, 0, 62, 90
1, 702720, Note_on_c, 0, 33, 90
1, 703430, Note_on_c, 0, 64, 0
1, 703430, Note_on_c, 0, 45, 0
1, 703430, Note_on_c, 0, 52, 0
1, 703430, Note_on_c, 0, 56, 0
1, 703430, Note_on_c, 0, 59, 0
1, 703430, Note_on_c, 0, 62, 0
1, 703430, Note_on_c, 0, 33, 0
1, 703440, Note_on_c, 0, 88, 90
1, 703440, Note_on_c, 0, 80, 90
1, 703440, Note_on_c, 0, 76, 90
1, 703440, Note_on_c, 0, 71, 90
1, 703440, Note_on_c, 0, 62, 90
1, 703440, Note_on_c, 0, 56, 90
1, 703440, Note_on_c, 0, 52, 90
1, 703440, Note_on_c, 0, 45, 90
1, 704150, Note_on_c, 0, 88, 0
1, 704150, Note_on_c, 0, 80, 0
1, 704150, Note_on_c, 0, 76, 0
1, 704150, Note_on_c, 0, 71, 0
1, 704150, Note_on_c, 0, 62, 0
1, 704150, Note_on_c, 0, 56, 0
1, 704150, Note_on_c, 0, 52, 0
1, 704150, Note_on_c, 0, 45, 0
1, 704160, Note_on_c, 0, 88, 90
1, 704160, Note_on_c, 0, 80, 90
1, 704160, Note_on_c, 0, 76, 90
1, 704160, Note_on_c, 0, 71, 90
1, 704160, Note_on_c, 0, 62, 90
1, 704160, Note_on_c, 0, 56, 90
1, 704160, Note_on_c, 0, 52, 90
1, 704160, Note_on_c, 0, 45, 90
1, 704595, Control_c, 0, 64, 0
1, 704870, Note_on_c, 0, 88, 0
1, 704870, Note_on_c, 0, 80, 0
1, 704870, Note_on_c, 0, 76, 0
1, 704870, Note_on_c, 0, 71, 0
1, 704870, Note_on_c, 0, 62, 0
1, 704870, Note_on_c, 0, 56, 0
1, 704870, Note_on_c, 0, 52, 0
1, 704870, Note_on_c, 0, 45, 0
1, 704880, Note_on_c, 0, 69, 50
1, 704880, Note_on_c, 0, 73, 50
1, 704880, Note_on_c, 0, 76, 50
1, 704880, Note_on_c, 0, 64, 50
1, 704880, Note_on_c, 0, 52, 50
1, 704880, Note_on_c, 0, 57, 50
1, 704880, Note_on_c, 0, 61, 50
1, 704880, Note_on_c, 0, 45, 50
1, 705233, Control_c, 0, 64, 127
1, 705590, Note_on_c, 0, 69, 0
1, 705590, Note_on_c, 0, 73, 0
1, 705590, Note_on_c, 0, 76, 0
1, 705590, Note_on_c, 0, 64, 0
1, 705590, Note_on_c, 0, 52, 0
1, 705590, Note_on_c, 0, 57, 0
1, 705590, Note_on_c, 0, 61, 0
1, 705590, Note_on_c, 0, 45, 0
1, 705600, Note_on_c, 0, 69, 50
1, 705600, Note_on_c, 0, 73, 50
1, 705600, Note_on_c, 0, 76, 50
1, 705600, Note_on_c, 0, 64, 50
1, 705600, Note_on_c, 0, 52, 50
1, 705600, Note_on_c, 0, 57, 50
1, 705600, Note_on_c, 0, 61, 50
1, 705600, Note_on_c, 0, 45, 50
1, 707030, Note_on_c, 0, 64, 0
1, 707030, Note_on_c, 0, 69, 0
1, 707030, Note_on_c, 0, 73, 0
1, 707030, Note_on_c, 0, 76, 0
1, 707030, Note_on_c, 0, 45, 0
1, 707030, Note_on_c, 0, 52, 0
1, 707030, Note_on_c, 0, 57, 0
1, 707030, Note_on_c, 0, 61, 0
1, 707040, Note_on_c, 0, 69, 50
1, 707040, Note_on_c, 0, 73, 50
1, 707040, Note_on_c, 0, 76, 50
1, 707040, Note_on_c, 0, 64, 50
1, 707040, Note_on_c, 0, 52, 50
1, 707040, Note_on_c, 0, 57, 50
1, 707040, Note_on_c, 0, 61, 50
1, 707040, Note_on_c, 0, 45, 50
1, 707750, Control_c, 0, 64, 0
1, 707750, Note_on_c, 0, 69, 0
1, 707750, Note_on_c, 0, 73, 0
1, 707750, Note_on_c, 0, 76, 0
1, 707750, Note_on_c, 0, 64, 0
1, 707750, Note_on_c, 0, 52, 0
1, 707750, Note_on_c, 0, 57, 0
1, 707750, Note_on_c, 0, 61, 0
1, 707750, Note_on_c, 0, 45, 0
1, 707760, Note_on_c, 0, 71, 50
1, 707760, Note_on_c, 0, 80, 50
1, 707760, Note_on_c, 0, 68, 50
1, 707760, Note_on_c, 0, 52, 50
1, 707760, Note_on_c, 0, 56, 50
1, 707760, Note_on_c, 0, 62, 50
1, 707760, Note_on_c, 0, 64, 50
1, 707760, Note_on_c, 0, 45, 50
1, 707954, Control_c, 0, 64, 127
1, 708230, Note_on_c, 0, 71, 0
1, 708230, Note_on_c, 0, 80, 0
1, 708230, Note_on_c, 0, 68, 0
1, 708240, Note_on_c, 0, 73, 50
1, 708240, Note_on_c, 0, 81, 50
1, 708240, Note_on_c, 0, 69, 50
1, 708470, Note_on_c, 0, 73, 0
1, 708470, Note_on_c, 0, 81, 0
1, 708470, Note_on_c, 0, 69, 0
1, 708470, Note_on_c, 0, 52, 0
1, 708470, Note_on_c, 0, 56, 0
1, 708470, Note_on_c, 0, 62, 0
1, 708470, Note_on_c, 0, 64, 0
1, 708470, Note_on_c, 0, 45, 0
1, 708480, Note_on_c, 0, 74, 50
1, 708480, Note_on_c, 0, 83, 50
1, 708480, Note_on_c, 0, 71, 50
1, 708480, Note_on_c, 0, 52, 50
1, 708480, Note_on_c, 0, 56, 50
1, 708480, Note_on_c, 0, 62, 50
1, 708480, Note_on_c, 0, 64, 50
1, 708480, Note_on_c, 0, 45, 50
1, 708950, Note_on_c, 0, 74, 0
1, 708950, Note_on_c, 0, 83, 0
1, 708950, Note_on_c, 0, 71, 0
1, 708960, Note_on_c, 0, 76, 50
1, 708960, Note_on_c, 0, 85, 50
1, 708960, Note_on_c, 0, 73, 50
1, 709172, Control_c, 0, 64, 0
1, 709190, Note_on_c, 0, 76, 0
1, 709190, Note_on_c, 0, 85, 0
1, 709190, Note_on_c, 0, 73, 0
1, 709190, Note_on_c, 0, 52, 0
1, 709190, Note_on_c, 0, 56, 0
1, 709190, Note_on_c, 0, 62, 0
1, 709190, Note_on_c, 0, 64, 0
1, 709190, Note_on_c, 0, 45, 0
1, 709200, Note_on_c, 0, 78, 50
1, 709200, Note_on_c, 0, 86, 50
1, 709200, Note_on_c, 0, 74, 50
1, 709200, Note_on_c, 0, 52, 50
1, 709200, Note_on_c, 0, 56, 50
1, 709200, Note_on_c, 0, 62, 50
1, 709200, Note_on_c, 0, 64, 50
1, 709200, Note_on_c, 0, 45, 50
1, 709472, Control_c, 0, 64, 127
1, 709670, Note_on_c, 0, 78, 0
1, 709670, Note_on_c, 0, 86, 0
1, 709670, Note_on_c, 0, 74, 0
1, 709680, Note_on_c, 0, 80, 50
1, 709680, Note_on_c, 0, 88, 50
1, 709680, Note_on_c, 0, 76, 50
1, 709910, Note_on_c, 0, 80, 0
1, 709910, Note_on_c, 0, 88, 0
1, 709910, Note_on_c, 0, 76, 0
1, 709910, Note_on_c, 0, 52, 0
1, 709910, Note_on_c, 0, 56, 0
1, 709910, Note_on_c, 0, 62, 0
1, 709910, Note_on_c, 0, 64, 0
1, 709910, Note_on_c, 0, 45, 0
1, 709920, Note_on_c, 0, 81, 50
1, 709920, Note_on_c, 0, 90, 50
1, 709920, Note_on_c, 0, 78, 50
1, 709920, Note_on_c, 0, 52, 50
1, 709920, Note_on_c, 0, 56, 50
1, 709920, Note_on_c, 0, 62, 50
1, 709920, Note_on_c, 0, 64, 50
1, 709920, Note_on_c, 0, 45, 50
1, 710390, Note_on_c, 0, 81, 0
1, 710390, Note_on_c, 0, 90, 0
1, 710390, Note_on_c, 0, 78, 0
1, 710400, Note_on_c, 0, 83, 50
1, 710400, Note_on_c, 0, 92, 50
1, 710400, Note_on_c, 0, 80, 50
1, 710630, Note_on_c, 0, 83, 0
1, 710630, Note_on_c, 0, 92, 0
1, 710630, Note_on_c, 0, 80, 0
1, 710630, Note_on_c, 0, 52, 0
1, 710630, Note_on_c, 0, 56, 0
1, 710630, Note_on_c, 0, 62, 0
1, 710630, Note_on_c, 0, 64, 0
1, 710630, Note_on_c, 0, 45, 0
1, 710640, Note_on_c, 0, 85, 50
1, 710640, Note_on_c, 0, 93, 50
1, 710640, Note_on_c, 0, 81, 50
1, 710640, Note_on_c, 0, 61, 50
1, 710640, Note_on_c, 0, 57, 50
1, 710640, Note_on_c, 0, 52, 50
1, 710640, Note_on_c, 0, 45, 50
1, 710683, Control_c, 0, 64, 0
1, 710833, Control_c, 0, 64, 127
1, 710870, Note_on_c, 0, 85, 0
1, 710870, Note_on_c, 0, 93, 0
1, 710870, Note_on_c, 0, 81, 0
1, 711110, Note_on_c, 0, 61, 0
1, 711110, Note_on_c, 0, 57, 0
1, 711120, Note_on_c, 0, 62, 50
1, 711120, Note_on_c, 0, 59, 50
1, 711350, Note_on_c, 0, 62, 0
1, 711350, Note_on_c, 0, 59, 0
1, 711350, Note_on_c, 0, 52, 0
1, 711350, Note_on_c, 0, 45, 0
1, 711360, Note_on_c, 0, 64, 50
1, 711360, Note_on_c, 0, 61, 50
1, 711360, Note_on_c, 0, 52, 50
1, 711360, Note_on_c, 0, 57, 50
1, 711360, Note_on_c, 0, 45, 50
1, 711830, Note_on_c, 0, 64, 0
1, 711830, Note_on_c, 0, 61, 0
1, 711840, Note_on_c, 0, 66, 50
1, 711840, Note_on_c, 0, 62, 50
1, 712061, Control_c, 0, 64, 0
1, 712070, Note_on_c, 0, 66, 0
1, 712070, Note_on_c, 0, 62, 0
1, 712070, Note_on_c, 0, 52, 0
1, 712070, Note_on_c, 0, 57, 0
1, 712070, Note_on_c, 0, 45, 0
1, 712080, Note_on_c, 0, 68, 50
1, 712080, Note_on_c, 0, 64, 50
1, 712080, Note_on_c, 0, 52, 50
1, 712080, Note_on_c, 0, 57, 50
1, 712080, Note_on_c, 0, 61, 50
1, 712080, Note_on_c, 0, 45, 50
1, 712550, Note_on_c, 0, 68, 0
1, 712550, Note_on_c, 0, 64, 0
1, 712560, Note_on_c, 0, 69, 50
1, 712560, Note_on_c, 0, 66, 50
1, 712790, Note_on_c, 0, 69, 0
1, 712790, Note_on_c, 0, 66, 0
1, 712790, Note_on_c, 0, 52, 0
1, 712790, Note_on_c, 0, 57, 0
1, 712790, Note_on_c, 0, 61, 0
1, 712790, Note_on_c, 0, 45, 0
1, 712800, Note_on_c, 0, 71, 50
1, 712800, Note_on_c, 0, 68, 50
1, 712800, Note_on_c, 0, 52, 50
1, 712800, Note_on_c, 0, 57, 50
1, 712800, Note_on_c, 0, 61, 50
1, 712800, Note_on_c, 0, 45, 50
1, 713270, Note_on_c, 0, 71, 0
1, 713270, Note_on_c, 0, 68, 0
1, 713280, Note_on_c, 0, 73, 50
1, 713280, Note_on_c, 0, 69, 50
1, 713510, Note_on_c, 0, 73, 0
1, 713510, Note_on_c, 0, 69, 0
1, 713510, Note_on_c, 0, 52, 0
1, 713510, Note_on_c, 0, 57, 0
1, 713510, Note_on_c, 0, 61, 0
1, 713510, Note_on_c, 0, 45, 0
1, 713520, Note_on_c, 0, 71, 50
1, 713520, Note_on_c, 0, 74, 50
1, 713520, Note_on_c, 0, 62, 50
1, 713520, Note_on_c, 0, 52, 50
1, 713520, Note_on_c, 0, 56, 50
1, 713520, Note_on_c, 0, 59, 50
1, 713520, Note_on_c, 0, 45, 50
1, 713815, Control_c, 0, 64, 127
1, 713990, Note_on_c, 0, 71, 0
1, 713990, Note_on_c, 0, 74, 0
1, 713990, Note_on_c, 0, 62, 0
1, 714000, Note_on_c, 0, 73, 50
1, 714000, Note_on_c, 0, 76, 50
1, 714000, Note_on_c, 0, 64, 50
1, 714230, Note_on_c, 0, 73, 0
1, 714230, Note_on_c, 0, 76, 0
1, 714230, Note_on_c, 0, 64, 0
1, 714230, Note_on_c, 0, 52, 0
1, 714230, Note_on_c, 0, 56, 0
1, 714230, Note_on_c, 0, 59, 0
1, 714230, Note_on_c, 0, 45, 0
1, 714240, Note_on_c, 0, 74, 50
1, 714240, Note_on_c, 0, 78, 50
1, 714240, Note_on_c, 0, 66, 50
1, 714240, Note_on_c, 0, 52, 50
1, 714240, Note_on_c, 0, 56, 50
1, 714240, Note_on_c, 0, 59, 50
1, 714240, Note_on_c, 0, 45, 50
1, 714710, Note_on_c, 0, 74, 0
1, 714710, Note_on_c, 0, 78, 0
1, 714710, Note_on_c, 0, 66, 0
1, 714720, Note_on_c, 0, 76, 50
1, 714720, Note_on_c, 0, 80, 50
1, 714720, Note_on_c, 0, 68, 50
1, 714950, Note_on_c, 0, 76, 0
1, 714950, Note_on_c, 0, 80, 0
1, 714950, Note_on_c, 0, 68, 0
1, 714950, Note_on_c, 0, 52, 0
1, 714950, Note_on_c, 0, 56, 0
1, 714950, Note_on_c, 0, 59, 0
1, 714950, Note_on_c, 0, 45, 0
1, 714960, Note_on_c, 0, 78, 50
1, 714960, Note_on_c, 0, 81, 50
1, 714960, Note_on_c, 0, 69, 50
1, 714960, Note_on_c, 0, 52, 50
1, 714960, Note_on_c, 0, 56, 50
1, 714960, Note_on_c, 0, 62, 50
1, 714960, Note_on_c, 0, 64, 50
1, 714960, Note_on_c, 0, 45, 50
1, 715009, Control_c, 0, 64, 0
1, 715210, Control_c, 0, 64, 127
1, 715430, Note_on_c, 0, 78, 0
1, 715430, Note_on_c, 0, 81, 0
1, 715430, Note_on_c, 0, 69, 0
1, 715440, Note_on_c, 0, 80, 50
1, 715440, Note_on_c, 0, 83, 50
1, 715440, Note_on_c, 0, 71, 50
1, 715670, Note_on_c, 0, 80, 0
1, 715670, Note_on_c, 0, 83, 0
1, 715670, Note_on_c, 0, 71, 0
1, 715670, Note_on_c, 0, 52, 0
1, 715670, Note_on_c, 0, 56, 0
1, 715670, Note_on_c, 0, 62, 0
1, 715670, Note_on_c, 0, 64, 0
1, 715670, Note_on_c, 0, 45, 0
1, 715680, Note_on_c, 0, 81, 50
1, 715680, Note_on_c, 0, 85, 50
1, 715680, Note_on_c, 0, 73, 50
1, 715680, Note_on_c, 0, 52, 50
1, 715680, Note_on_c, 0, 56, 50
1, 715680, Note_on_c, 0, 62, 50
1, 715680, Note_on_c, 0, 64, 50
1, 715680, Note_on_c, 0, 45, 50
1, 716150, Note_on_c, 0, 81, 0
1, 716150, Note_on_c, 0, 85, 0
1, 716150, Note_on_c, 0, 73, 0
1, 716160, Note_on_c, 0, 83, 50
1, 716160, Note_on_c, 0, 86, 50
1, 716160, Note_on_c, 0, 74, 50
1, 716390, Note_on_c, 0, 83, 0
1, 716390, Note_on_c, 0, 86, 0
1, 716390, Note_on_c, 0, 74, 0
1, 716390, Note_on_c, 0, 52, 0
1, 716390, Note_on_c, 0, 56, 0
1, 716390, Note_on_c, 0, 62, 0
1, 716390, Note_on_c, 0, 64, 0
1, 716390, Note_on_c, 0, 45, 0
1, 716400, Note_on_c, 0, 76, 50
1, 716400, Note_on_c, 0, 85, 50
1, 716400, Note_on_c, 0, 73, 50
1, 716400, Note_on_c, 0, 52, 50
1, 716400, Note_on_c, 0, 57, 50
1, 716400, Note_on_c, 0, 61, 50
1, 716400, Note_on_c, 0, 45, 50
1, 716500, Control_c, 0, 64, 0
1, 716615, Control_c, 0, 64, 127
1, 716870, Note_on_c, 0, 76, 0
1, 716870, Note_on_c, 0, 85, 0
1, 716870, Note_on_c, 0, 73, 0
1, 716880, Note_on_c, 0, 74, 50
1, 716880, Note_on_c, 0, 83, 50
1, 716880, Note_on_c, 0, 71, 50
1, 717110, Note_on_c, 0, 74, 0
1, 717110, Note_on_c, 0, 83, 0
1, 717110, Note_on_c, 0, 71, 0
1, 717110, Note_on_c, 0, 52, 0
1, 717110, Note_on_c, 0, 57, 0
1, 717110, Note_on_c, 0, 61, 0
1, 717110, Note_on_c, 0, 45, 0
1, 717120, Note_on_c, 0, 73, 50
1, 717120, Note_on_c, 0, 81, 50
1, 717120, Note_on_c, 0, 69, 50
1, 717120, Note_on_c, 0, 52, 50
1, 717120, Note_on_c, 0, 57, 50
1, 717120, Note_on_c, 0, 61, 50
1, 717120, Note_on_c, 0, 45, 50
1, 717590, Note_on_c, 0, 73, 0
1, 717590, Note_on_c, 0, 81, 0
1, 717590, Note_on_c, 0, 69, 0
1, 717600, Note_on_c, 0, 74, 50
1, 717600, Note_on_c, 0, 83, 50
1, 717600, Note_on_c, 0, 71, 50
1, 717830, Note_on_c, 0, 74, 0
1, 717830, Note_on_c, 0, 83, 0
1, 717830, Note_on_c, 0, 71, 0
1, 717830, Note_on_c, 0, 52, 0
1, 717830, Note_on_c, 0, 57, 0
1, 717830, Note_on_c, 0, 61, 0
1, 717830, Note_on_c, 0, 45, 0
1, 717840, Note_on_c, 0, 76, 50
1, 717840, Note_on_c, 0, 85, 50
1, 717840, Note_on_c, 0, 73, 50
1, 717840, Note_on_c, 0, 52, 50
1, 717840, Note_on_c, 0, 57, 50
1, 717840, Note_on_c, 0, 61, 50
1, 717840, Note_on_c, 0, 45, 50
1, 717870, Control_c, 0, 64, 0
1, 718055, Control_c, 0, 64, 127
1, 718070, Note_on_c, 0, 85, 0
1, 718070, Note_on_c, 0, 73, 0
1, 718080, Note_on_c, 0, 83, 50
1, 718080, Note_on_c, 0, 71, 50
1, 718310, Note_on_c, 0, 76, 0
1, 718310, Note_on_c, 0, 83, 0
1, 718310, Note_on_c, 0, 71, 0
1, 718320, Note_on_c, 0, 85, 50
1, 718320, Note_on_c, 0, 73, 50
1, 718390, Control_c, 0, 64, 0
1, 718440, Note_on_c, 0, 38, 50
1, 718550, Note_on_c, 0, 85, 0
1, 718550, Note_on_c, 0, 73, 0
1, 718550, Note_on_c, 0, 38, 0
1, 718550, Note_on_c, 0, 52, 0
1, 718550, Note_on_c, 0, 57, 0
1, 718550, Note_on_c, 0, 61, 0
1, 718550, Note_on_c, 0, 45, 0
1, 718560, Note_on_c, 0, 78, 50
1, 718560, Note_on_c, 0, 86, 50
1, 718560, Note_on_c, 0, 74, 50
1, 718560, Note_on_c, 0, 57, 50
1, 718560, Note_on_c, 0, 60, 50
1, 718560, Note_on_c, 0, 50, 50
1, 718790, Note_on_c, 0, 86, 0
1, 718790, Note_on_c, 0, 74, 0
1, 718800, Note_on_c, 0, 88, 50
1, 718800, Note_on_c, 0, 76, 50
1, 719030, Note_on_c, 0, 78, 0
1, 719030, Note_on_c, 0, 88, 0
1, 719030, Note_on_c, 0, 76, 0
1, 719040, Note_on_c, 0, 90, 50
1, 719040, Note_on_c, 0, 78, 50
1, 719270, Note_on_c, 0, 90, 0
1, 719270, Note_on_c, 0, 78, 0
1, 719270, Note_on_c, 0, 57, 0
1, 719270, Note_on_c, 0, 60, 0
1, 719270, Note_on_c, 0, 50, 0
1, 719280, Note_on_c, 0, 91, 50
1, 719280, Note_on_c, 0, 79, 50
1, 719280, Note_on_c, 0, 50, 50
1, 719280, Note_on_c, 0, 55, 50
1, 719280, Note_on_c, 0, 59, 50
1, 719280, Note_on_c, 0, 43, 50
1, 719510, Note_on_c, 0, 91, 0
1, 719510, Note_on_c, 0, 79, 0
1, 719520, Note_on_c, 0, 67, 50
1, 719538, Control_c, 0, 64, 127
1, 719750, Note_on_c, 0, 67, 0
1, 719760, Note_on_c, 0, 69, 50
1, 719990, Note_on_c, 0, 69, 0
1, 719990, Note_on_c, 0, 50, 0
1, 719990, Note_on_c, 0, 55, 0
1, 719990, Note_on_c, 0, 59, 0
1, 719990, Note_on_c, 0, 43, 0
1, 720000, Note_on_c, 0, 62, 50
1, 720000, Note_on_c, 0, 71, 50
1, 720000, Note_on_c, 0, 67, 50
1, 720000, Note_on_c, 0, 50, 50
1, 720000, Note_on_c, 0, 55, 50
1, 720000, Note_on_c, 0, 59, 50
1, 720000, Note_on_c, 0, 43, 50
1, 720470, Note_on_c, 0, 71, 0
1, 720470, Note_on_c, 0, 67, 0
1, 720480, Note_on_c, 0, 72, 50
1, 720480, Note_on_c, 0, 69, 50
1, 720696, Control_c, 0, 64, 0
1, 720710, Note_on_c, 0, 62, 0
1, 720710, Note_on_c, 0, 72, 0
1, 720710, Note_on_c, 0, 69, 0
1, 720710, Note_on_c, 0, 50, 0
1, 720710, Note_on_c, 0, 55, 0
1, 720710, Note_on_c, 0, 59, 0
1, 720710, Note_on_c, 0, 43, 0
1, 720720, Note_on_c, 0, 62, 50
1, 720720, Note_on_c, 0, 74, 50
1, 720720, Note_on_c, 0, 71, 50
1, 720720, Note_on_c, 0, 50, 50
1, 720720, Note_on_c, 0, 55, 50
1, 720720, Note_on_c, 0, 59, 50
1, 720720, Note_on_c, 0, 43, 50
1, 721190, Note_on_c, 0, 74, 0
1, 721190, Note_on_c, 0, 71, 0
1, 721200, Note_on_c, 0, 76, 50
1, 721200, Note_on_c, 0, 72, 50
1, 721430, Note_on_c, 0, 62, 0
1, 721430, Note_on_c, 0, 76, 0
1, 721430, Note_on_c, 0, 72, 0
1, 721430, Note_on_c, 0, 50, 0
1, 721430, Note_on_c, 0, 55, 0
1, 721430, Note_on_c, 0, 59, 0
1, 721430, Note_on_c, 0, 43, 0
1, 721440, Note_on_c, 0, 78, 50
1, 721440, Note_on_c, 0, 74, 50
1, 721440, Note_on_c, 0, 50, 50
1, 721440, Note_on_c, 0, 55, 50
1, 721440, Note_on_c, 0, 59, 50
1, 721440, Note_on_c, 0, 43, 50
1, 721910, Note_on_c, 0, 78, 0
1, 721910, Note_on_c, 0, 74, 0
1, 721920, Note_on_c, 0, 79, 50
1, 721920, Note_on_c, 0, 76, 50
1, 722150, Note_on_c, 0, 79, 0
1, 722150, Note_on_c, 0, 76, 0
1, 722150, Note_on_c, 0, 50, 0
1, 722150, Note_on_c, 0, 55, 0
1, 722150, Note_on_c, 0, 59, 0
1, 722150, Note_on_c, 0, 43, 0
1, 722160, Note_on_c, 0, 81, 50
1, 722160, Note_on_c, 0, 78, 50
1, 722160, Note_on_c, 0, 50, 50
1, 722160, Note_on_c, 0, 55, 50
1, 722160, Note_on_c, 0, 59, 50
1, 722160, Note_on_c, 0, 43, 50
1, 722630, Note_on_c, 0, 81, 0
1, 722630, Note_on_c, 0, 78, 0
1, 722640, Note_on_c, 0, 83, 50
1, 722640, Note_on_c, 0, 79, 50
1, 722870, Note_on_c, 0, 83, 0
1, 722870, Note_on_c, 0, 79, 0
1, 722880, Note_on_c, 0, 84, 50
1, 722880, Note_on_c, 0, 81, 50
1, 723350, Note_on_c, 0, 84, 0
1, 723350, Note_on_c, 0, 81, 0
1, 723360, Note_on_c, 0, 86, 50
1, 723360, Note_on_c, 0, 83, 50
1, 724310, Note_on_c, 0, 43, 0
1, 724310, Note_on_c, 0, 50, 0
1, 724310, Note_on_c, 0, 55, 0
1, 724310, Note_on_c, 0, 59, 0
1, 724310, Note_on_c, 0, 86, 0
1, 724310, Note_on_c, 0, 83, 0
1, 724320, Note_on_c, 0, 83, 45
1, 724320, Note_on_c, 0, 86, 45
1, 724320, Note_on_c, 0, 91, 45
1, 724320, Note_on_c, 0, 79, 45
1, 724320, Note_on_c, 0, 50, 45
1, 724320, Note_on_c, 0, 55, 45
1, 724320, Note_on_c, 0, 59, 45
1, 724320, Note_on_c, 0, 43, 45
1, 725030, Note_on_c, 0, 83, 0
1, 725030, Note_on_c, 0, 86, 0
1, 725030, Note_on_c, 0, 91, 0
1, 725030, Note_on_c, 0, 79, 0
1, 725030, Note_on_c, 0, 50, 0
1, 725030, Note_on_c, 0, 55, 0
1, 725030, Note_on_c, 0, 59, 0
1, 725030, Note_on_c, 0, 43, 0
1, 725040, Time_signature, 4, 2, 24, 8
1, 725040, Note_on_c, 0, 83, 47
1, 725150, Note_on_c, 0, 83, 0
1, 725160, Note_on_c, 0, 85, 47
1, 725270, Note_on_c, 0, 85, 0
1, 725280, Note_on_c, 0, 86, 47
1, 725390, Note_on_c, 0, 86, 0
1, 725400, Note_on_c, 0, 86, 47
1, 725510, Note_on_c, 0, 86, 0
1, 725520, Note_on_c, 0, 86, 47
1, 725520, Note_on_c, 0, 71, 47
1, 725520, Note_on_c, 0, 67, 47
1, 725630, Note_on_c, 0, 86, 0
1, 725630, Note_on_c, 0, 71, 0
1, 725630, Note_on_c, 0, 67, 0
1, 725640, Note_on_c, 0, 85, 47
1, 725640, Note_on_c, 0, 72, 47
1, 725640, Note_on_c, 0, 69, 47
1, 725750, Note_on_c, 0, 85, 0
1, 725750, Note_on_c, 0, 72, 0
1, 725750, Note_on_c, 0, 69, 0
1, 725760, Note_on_c, 0, 83, 47
1, 725760, Note_on_c, 0, 74, 47
1, 725760, Note_on_c, 0, 71, 47
1, 725870, Note_on_c, 0, 83, 0
1, 725870, Note_on_c, 0, 74, 0
1, 725870, Note_on_c, 0, 71, 0
1, 725880, Note_on_c, 0, 81, 47
1, 725880, Note_on_c, 0, 74, 47
1, 725880, Note_on_c, 0, 71, 47
1, 725990, Note_on_c, 0, 81, 0
1, 725990, Note_on_c, 0, 74, 0
1, 725990, Note_on_c, 0, 71, 0
1, 726000, Time_signature, 4, 2, 24, 8
1, 726000, Note_on_c, 0, 79, 47
1, 726000, Note_on_c, 0, 74, 47
1, 726000, Note_on_c, 0, 71, 47
1, 726110, Note_on_c, 0, 79, 0
1, 726110, Note_on_c, 0, 74, 0
1, 726110, Note_on_c, 0, 71, 0
1, 726120, Note_on_c, 0, 81, 47
1, 726120, Note_on_c, 0, 72, 47
1, 726120, Note_on_c, 0, 69, 47
1, 726230, Note_on_c, 0, 81, 0
1, 726230, Note_on_c, 0, 72, 0
1, 726230, Note_on_c, 0, 69, 0
1, 726240, Note_on_c, 0, 83, 47
1, 726240, Note_on_c, 0, 71, 47
1, 726240, Note_on_c, 0, 67, 47
1, 726350, Note_on_c, 0, 83, 0
1, 726350, Note_on_c, 0, 71, 0
1, 726350, Note_on_c, 0, 67, 0
1, 726360, Note_on_c, 0, 83, 47
1, 726360, Note_on_c, 0, 69, 47
1, 726360, Note_on_c, 0, 66, 47
1, 726470, Note_on_c, 0, 83, 0
1, 726470, Note_on_c, 0, 69, 0
1, 726470, Note_on_c, 0, 66, 0
1, 726480, Note_on_c, 0, 83, 47
1, 726480, Note_on_c, 0, 67, 47
1, 726480, Note_on_c, 0, 64, 47
1, 726590, Note_on_c, 0, 83, 0
1, 726590, Note_on_c, 0, 67, 0
1, 726590, Note_on_c, 0, 64, 0
1, 726600, Note_on_c, 0, 81, 47
1, 726600, Note_on_c, 0, 69, 47
1, 726600, Note_on_c, 0, 66, 47
1, 726710, Note_on_c, 0, 81, 0
1, 726710, Note_on_c, 0, 69, 0
1, 726710, Note_on_c, 0, 66, 0
1, 726720, Note_on_c, 0, 79, 47
1, 726720, Note_on_c, 0, 71, 47
1, 726720, Note_on_c, 0, 67, 47
1, 726830, Note_on_c, 0, 79, 0
1, 726830, Note_on_c, 0, 71, 0
1, 726830, Note_on_c, 0, 67, 0
1, 726840, Note_on_c, 0, 78, 47
1, 726840, Note_on_c, 0, 71, 47
1, 726840, Note_on_c, 0, 67, 47
1, 726950, Note_on_c, 0, 78, 0
1, 726950, Note_on_c, 0, 71, 0
1, 726950, Note_on_c, 0, 67, 0
1, 726960, Time_signature, 4, 2, 24, 8
1, 726960, Note_on_c, 0, 76, 47
1, 726960, Note_on_c, 0, 71, 47
1, 726960, Note_on_c, 0, 67, 47
1, 727070, Note_on_c, 0, 76, 0
1, 727070, Note_on_c, 0, 71, 0
1, 727070, Note_on_c, 0, 67, 0
1, 727080, Note_on_c, 0, 78, 47
1, 727080, Note_on_c, 0, 69, 47
1, 727080, Note_on_c, 0, 66, 47
1, 727190, Note_on_c, 0, 78, 0
1, 727190, Note_on_c, 0, 69, 0
1, 727190, Note_on_c, 0, 66, 0
1, 727200, Note_on_c, 0, 79, 47
1, 727200, Note_on_c, 0, 67, 47
1, 727200, Note_on_c, 0, 64, 47
1, 727310, Note_on_c, 0, 79, 0
1, 727310, Note_on_c, 0, 67, 0
1, 727310, Note_on_c, 0, 64, 0
1, 727320, Note_on_c, 0, 79, 47
1, 727320, Note_on_c, 0, 66, 47
1, 727320, Note_on_c, 0, 62, 47
1, 727430, Note_on_c, 0, 79, 0
1, 727430, Note_on_c, 0, 66, 0
1, 727430, Note_on_c, 0, 62, 0
1, 727440, Note_on_c, 0, 79, 47
1, 727440, Note_on_c, 0, 64, 47
1, 727440, Note_on_c, 0, 61, 47
1, 727440, Note_on_c, 0, 57, 47
1, 727550, Note_on_c, 0, 79, 0
1, 727550, Note_on_c, 0, 64, 0
1, 727550, Note_on_c, 0, 61, 0
1, 727560, Note_on_c, 0, 78, 47
1, 727560, Note_on_c, 0, 66, 47
1, 727560, Note_on_c, 0, 62, 47
1, 727670, Note_on_c, 0, 78, 0
1, 727670, Note_on_c, 0, 66, 0
1, 727670, Note_on_c, 0, 62, 0
1, 727670, Note_on_c, 0, 57, 0
1, 727680, Note_on_c, 0, 76, 47
1, 727680, Note_on_c, 0, 67, 47
1, 727680, Note_on_c, 0, 64, 47
1, 727790, Note_on_c, 0, 76, 0
1, 727790, Note_on_c, 0, 67, 0
1, 727790, Note_on_c, 0, 64, 0
1, 727800, Note_on_c, 0, 74, 47
1, 727910, Note_on_c, 0, 74, 0
1, 727920, Time_signature, 4, 2, 24, 8
1, 727920, Note_on_c, 0, 73, 47
1, 727920, Note_on_c, 0, 64, 47
1, 727920, Note_on_c, 0, 57, 47
1, 728030, Note_on_c, 0, 73, 0
1, 728030, Note_on_c, 0, 64, 0
1, 728030, Note_on_c, 0, 57, 0
1, 728040, Note_on_c, 0, 74, 47
1, 728040, Note_on_c, 0, 66, 47
1, 728040, Note_on_c, 0, 55, 47
1, 728150, Note_on_c, 0, 74, 0
1, 728150, Note_on_c, 0, 66, 0
1, 728150, Note_on_c, 0, 55, 0
1, 728160, Note_on_c, 0, 76, 47
1, 728160, Note_on_c, 0, 67, 47
1, 728160, Note_on_c, 0, 54, 47
1, 728270, Note_on_c, 0, 76, 0
1, 728270, Note_on_c, 0, 67, 0
1, 728270, Note_on_c, 0, 54, 0
1, 728280, Note_on_c, 0, 78, 47
1, 728280, Note_on_c, 0, 69, 47
1, 728280, Note_on_c, 0, 52, 47
1, 728390, Note_on_c, 0, 78, 0
1, 728390, Note_on_c, 0, 69, 0
1, 728390, Note_on_c, 0, 52, 0
1, 728400, Note_on_c, 0, 79, 47
1, 728400, Note_on_c, 0, 71, 47
1, 728400, Note_on_c, 0, 50, 47
1, 728510, Note_on_c, 0, 79, 0
1, 728510, Note_on_c, 0, 71, 0
1, 728510, Note_on_c, 0, 50, 0
1, 728520, Note_on_c, 0, 81, 47
1, 728520, Note_on_c, 0, 73, 47
1, 728520, Note_on_c, 0, 49, 47
1, 728630, Note_on_c, 0, 81, 0
1, 728630, Note_on_c, 0, 73, 0
1, 728630, Note_on_c, 0, 49, 0
1, 728640, Note_on_c, 0, 83, 47
1, 728640, Note_on_c, 0, 74, 47
1, 728640, Note_on_c, 0, 47, 47
1, 728750, Note_on_c, 0, 83, 0
1, 728750, Note_on_c, 0, 74, 0
1, 728750, Note_on_c, 0, 47, 0
1, 728760, Note_on_c, 0, 85, 47
1, 728760, Note_on_c, 0, 76, 47
1, 728760, Note_on_c, 0, 45, 47
1, 728870, Note_on_c, 0, 85, 0
1, 728870, Note_on_c, 0, 76, 0
1, 728870, Note_on_c, 0, 45, 0
1, 728880, Time_signature, 4, 2, 24, 8
1, 728880, Note_on_c, 0, 86, 47
1, 728880, Note_on_c, 0, 74, 47
1, 728880, Note_on_c, 0, 54, 47
1, 728880, Note_on_c, 0, 50, 47
1, 729110, Note_on_c, 0, 86, 0
1, 729110, Note_on_c, 0, 74, 0
1, 729470, Note_on_c, 0, 54, 0
1, 729470, Note_on_c, 0, 50, 0
1, 729480, Note_on_c, 0, 55, 47
1, 729480, Note_on_c, 0, 52, 47
1, 729590, Note_on_c, 0, 55, 0
1, 729590, Note_on_c, 0, 52, 0
1, 729600, Note_on_c, 0, 57, 47
1, 729600, Note_on_c, 0, 54, 47
1, 729710, Note_on_c, 0, 57, 0
1, 729710, Note_on_c, 0, 54, 0
1, 729720, Note_on_c, 0, 54, 47
1, 729720, Note_on_c, 0, 50, 47
1, 729830, Note_on_c, 0, 54, 0
1, 729830, Note_on_c, 0, 50, 0
1, 729840, Time_signature, 4, 2, 24, 8
1, 729840, Note_on_c, 0, 69, 47
1, 729840, Note_on_c, 0, 55, 47
1, 729840, Note_on_c, 0, 52, 47
1, 730070, Note_on_c, 0, 55, 0
1, 730070, Note_on_c, 0, 52, 0
1, 730080, Note_on_c, 0, 52, 47
1, 730080, Note_on_c, 0, 55, 47
1, 730080, Note_on_c, 0, 50, 47
1, 730310, Note_on_c, 0, 52, 0
1, 730310, Note_on_c, 0, 55, 0
1, 730310, Note_on_c, 0, 50, 0
1, 730320, Note_on_c, 0, 52, 47
1, 730320, Note_on_c, 0, 55, 47
1, 730320, Note_on_c, 0, 50, 47
1, 730430, Note_on_c, 0, 69, 0
1, 730440, Note_on_c, 0, 71, 47
1, 730550, Note_on_c, 0, 71, 0
1, 730550, Note_on_c, 0, 52, 0
1, 730550, Note_on_c, 0, 55, 0
1, 730550, Note_on_c, 0, 50, 0
1, 730560, Note_on_c, 0, 73, 47
1, 730560, Note_on_c, 0, 52, 47
1, 730560, Note_on_c, 0, 55, 47
1, 730560, Note_on_c, 0, 50, 47
1, 730670, Note_on_c, 0, 73, 0
1, 730680, Note_on_c, 0, 69, 47
1, 730790, Note_on_c, 0, 69, 0
1, 730790, Note_on_c, 0, 52, 0
1, 730790, Note_on_c, 0, 55, 0
1, 730790, Note_on_c, 0, 50, 0
1, 730800, Time_signature, 4, 2, 24, 8
1, 730800, Note_on_c, 0, 74, 47
1, 730800, Note_on_c, 0, 66, 47
1, 730800, Note_on_c, 0, 52, 47
1, 730800, Note_on_c, 0, 55, 47
1, 730800, Note_on_c, 0, 50, 47
1, 731150, Note_on_c, 0, 52, 0
1, 731150, Note_on_c, 0, 55, 0
1, 731150, Note_on_c, 0, 50, 0
1, 731160, Note_on_c, 0, 54, 47
1, 731160, Note_on_c, 0, 50, 47
1, 731270, Note_on_c, 0, 54, 0
1, 731270, Note_on_c, 0, 50, 0
1, 731280, Note_on_c, 0, 54, 47
1, 731280, Note_on_c, 0, 50, 47
1, 731390, Note_on_c, 0, 74, 0
1, 731390, Note_on_c, 0, 66, 0
1, 731400, Note_on_c, 0, 76, 47
1, 731400, Note_on_c, 0, 67, 47
1, 731510, Note_on_c, 0, 76, 0
1, 731510, Note_on_c, 0, 67, 0
1, 731510, Note_on_c, 0, 54, 0
1, 731510, Note_on_c, 0, 50, 0
1, 731520, Note_on_c, 0, 78, 47
1, 731520, Note_on_c, 0, 69, 47
1, 731630, Note_on_c, 0, 78, 0
1, 731630, Note_on_c, 0, 69, 0
1, 731640, Note_on_c, 0, 74, 47
1, 731640, Note_on_c, 0, 66, 47
1, 731750, Note_on_c, 0, 74, 0
1, 731750, Note_on_c, 0, 66, 0
1, 731760, Time_signature, 4, 2, 24, 8
1, 731760, Note_on_c, 0, 81, 47
1, 731760, Note_on_c, 0, 76, 47
1, 731760, Note_on_c, 0, 67, 47
1, 731990, Note_on_c, 0, 76, 0
1, 731990, Note_on_c, 0, 67, 0
1, 732000, Note_on_c, 0, 76, 47
1, 732000, Note_on_c, 0, 67, 47
1, 732000, Note_on_c, 0, 62, 47
1, 732230, Note_on_c, 0, 76, 0
1, 732230, Note_on_c, 0, 67, 0
1, 732230, Note_on_c, 0, 62, 0
1, 732240, Note_on_c, 0, 76, 47
1, 732240, Note_on_c, 0, 67, 47
1, 732240, Note_on_c, 0, 62, 47
1, 732350, Note_on_c, 0, 81, 0
1, 732360, Note_on_c, 0, 83, 47
1, 732470, Note_on_c, 0, 83, 0
1, 732470, Note_on_c, 0, 76, 0
1, 732470, Note_on_c, 0, 67, 0
1, 732470, Note_on_c, 0, 62, 0
1, 732480, Note_on_c, 0, 85, 47
1, 732480, Note_on_c, 0, 76, 47
1, 732480, Note_on_c, 0, 67, 47
1, 732480, Note_on_c, 0, 62, 47
1, 732590, Note_on_c, 0, 85, 0
1, 732600, Note_on_c, 0, 81, 47
1, 732710, Note_on_c, 0, 81, 0
1, 732710, Note_on_c, 0, 76, 0
1, 732710, Note_on_c, 0, 67, 0
1, 732710, Note_on_c, 0, 62, 0
1, 732720, Time_signature, 4, 2, 24, 8
1, 732720, Note_on_c, 0, 86, 47
1, 732720, Note_on_c, 0, 67, 47
1, 732720, Note_on_c, 0, 62, 47
1, 732950, Note_on_c, 0, 86, 0
1, 733070, Note_on_c, 0, 67, 0
1, 733080, Note_on_c, 0, 66, 47
1, 733190, Note_on_c, 0, 66, 0
1, 733200, Note_on_c, 0, 66, 47
1, 733310, Note_on_c, 0, 66, 0
1, 733310, Note_on_c, 0, 62, 0
1, 733320, Note_on_c, 0, 67, 47
1, 733320, Note_on_c, 0, 64, 47
1, 733430, Note_on_c, 0, 67, 0
1, 733430, Note_on_c, 0, 64, 0
1, 733440, Note_on_c, 0, 69, 47
1, 733440, Note_on_c, 0, 66, 47
1, 733550, Note_on_c, 0, 69, 0
1, 733550, Note_on_c, 0, 66, 0
1, 733560, Note_on_c, 0, 66, 47
1, 733560, Note_on_c, 0, 62, 47
1, 733670, Note_on_c, 0, 66, 0
1, 733670, Note_on_c, 0, 62, 0
1, 733680, Time_signature, 4, 2, 24, 8
1, 733680, Note_on_c, 0, 81, 47
1, 733680, Note_on_c, 0, 69, 47
1, 733680, Note_on_c, 0, 67, 47
1, 733680, Note_on_c, 0, 64, 47
1, 733910, Note_on_c, 0, 67, 0
1, 733910, Note_on_c, 0, 64, 0
1, 733920, Note_on_c, 0, 64, 47
1, 733920, Note_on_c, 0, 67, 47
1, 733920, Note_on_c, 0, 62, 47
1, 734150, Note_on_c, 0, 64, 0
1, 734150, Note_on_c, 0, 67, 0
1, 734150, Note_on_c, 0, 62, 0
1, 734160, Note_on_c, 0, 64, 47
1, 734160, Note_on_c, 0, 67, 47
1, 734160, Note_on_c, 0, 62, 47
1, 734270, Note_on_c, 0, 81, 0
1, 734270, Note_on_c, 0, 69, 0
1, 734280, Note_on_c, 0, 83, 47
1, 734280, Note_on_c, 0, 71, 47
1, 734390, Note_on_c, 0, 83, 0
1, 734390, Note_on_c, 0, 71, 0
1, 734390, Note_on_c, 0, 64, 0
1, 734390, Note_on_c, 0, 67, 0
1, 734390, Note_on_c, 0, 62, 0
1, 734400, Note_on_c, 0, 85, 47
1, 734400, Note_on_c, 0, 73, 47
1, 734400, Note_on_c, 0, 64, 47
1, 734400, Note_on_c, 0, 67, 47
1, 734400, Note_on_c, 0, 62, 47
1, 734510, Note_on_c, 0, 85, 0
1, 734510, Note_on_c, 0, 73, 0
1, 734520, Note_on_c, 0, 81, 47
1, 734520, Note_on_c, 0, 69, 47
1, 734630, Note_on_c, 0, 81, 0
1, 734630, Note_on_c, 0, 69, 0
1, 734630, Note_on_c, 0, 64, 0
1, 734630, Note_on_c, 0, 67, 0
1, 734630, Note_on_c, 0, 62, 0
1, 734640, Time_signature, 4, 2, 24, 8
1, 734640, Note_on_c, 0, 86, 47
1, 734640, Note_on_c, 0, 74, 47
1, 734640, Note_on_c, 0, 66, 47
1, 734640, Note_on_c, 0, 62, 47
1, 734750, Note_on_c, 0, 86, 0
1, 734750, Note_on_c, 0, 74, 0
1, 734760, Note_on_c, 0, 88, 47
1, 734760, Note_on_c, 0, 76, 47
1, 734870, Note_on_c, 0, 88, 0
1, 734870, Note_on_c, 0, 76, 0
1, 734870, Note_on_c, 0, 66, 0
1, 734870, Note_on_c, 0, 62, 0
1, 734880, Note_on_c, 0, 90, 47
1, 734880, Note_on_c, 0, 78, 47
1, 734990, Note_on_c, 0, 90, 0
1, 734990, Note_on_c, 0, 78, 0
1, 735000, Note_on_c, 0, 90, 47
1, 735000, Note_on_c, 0, 78, 47
1, 735110, Note_on_c, 0, 90, 0
1, 735110, Note_on_c, 0, 78, 0
1, 735120, Note_on_c, 0, 90, 47
1, 735120, Note_on_c, 0, 78, 47
1, 735120, Note_on_c, 0, 62, 47
1, 735120, Note_on_c, 0, 50, 47
1, 735230, Note_on_c, 0, 90, 0
1, 735230, Note_on_c, 0, 78, 0
1, 735230, Note_on_c, 0, 62, 0
1, 735230, Note_on_c, 0, 50, 0
1, 735240, Note_on_c, 0, 88, 47
1, 735240, Note_on_c, 0, 76, 47
1, 735240, Note_on_c, 0, 64, 47
1, 735240, Note_on_c, 0, 52, 47
1, 735350, Note_on_c, 0, 88, 0
1, 735350, Note_on_c, 0, 76, 0
1, 735350, Note_on_c, 0, 64, 0
1, 735350, Note_on_c, 0, 52, 0
1, 735360, Note_on_c, 0, 86, 47
1, 735360, Note_on_c, 0, 74, 47
1, 735360, Note_on_c, 0, 66, 47
1, 735360, Note_on_c, 0, 54, 47
1, 735470, Note_on_c, 0, 86, 0
1, 735470, Note_on_c, 0, 74, 0
1, 735470, Note_on_c, 0, 66, 0
1, 735470, Note_on_c, 0, 54, 0
1, 735480, Note_on_c, 0, 85, 47
1, 735480, Note_on_c, 0, 73, 47
1, 735480, Note_on_c, 0, 66, 47
1, 735480, Note_on_c, 0, 54, 47
1, 735590, Note_on_c, 0, 85, 0
1, 735590, Note_on_c, 0, 73, 0
1, 735590, Note_on_c, 0, 66, 0
1, 735590, Note_on_c, 0, 54, 0
1, 735600, Time_signature, 4, 2, 24, 8
1, 735600, Note_on_c, 0, 83, 47
1, 735600, Note_on_c, 0, 71, 47
1, 735600, Note_on_c, 0, 66, 47
1, 735600, Note_on_c, 0, 54, 47
1, 735710, Note_on_c, 0, 83, 0
1, 735710, Note_on_c, 0, 71, 0
1, 735710, Note_on_c, 0, 66, 0
1, 735710, Note_on_c, 0, 54, 0
1, 735720, Note_on_c, 0, 85, 47
1, 735720, Note_on_c, 0, 73, 47
1, 735720, Note_on_c, 0, 64, 47
1, 735720, Note_on_c, 0, 52, 47
1, 735830, Note_on_c, 0, 85, 0
1, 735830, Note_on_c, 0, 73, 0
1, 735830, Note_on_c, 0, 64, 0
1, 735830, Note_on_c, 0, 52, 0
1, 735840, Note_on_c, 0, 86, 47
1, 735840, Note_on_c, 0, 74, 47
1, 735840, Note_on_c, 0, 62, 47
1, 735840, Note_on_c, 0, 50, 47
1, 735950, Note_on_c, 0, 86, 0
1, 735950, Note_on_c, 0, 74, 0
1, 735950, Note_on_c, 0, 62, 0
1, 735950, Note_on_c, 0, 50, 0
1, 735960, Note_on_c, 0, 86, 47
1, 735960, Note_on_c, 0, 74, 47
1, 735960, Note_on_c, 0, 61, 47
1, 735960, Note_on_c, 0, 49, 47
1, 736070, Note_on_c, 0, 86, 0
1, 736070, Note_on_c, 0, 74, 0
1, 736070, Note_on_c, 0, 61, 0
1, 736070, Note_on_c, 0, 49, 0
1, 736080, Note_on_c, 0, 86, 47
1, 736080, Note_on_c, 0, 74, 47
1, 736080, Note_on_c, 0, 59, 47
1, 736080, Note_on_c, 0, 47, 47
1, 736190, Note_on_c, 0, 86, 0
1, 736190, Note_on_c, 0, 74, 0
1, 736190, Note_on_c, 0, 59, 0
1, 736190, Note_on_c, 0, 47, 0
1, 736200, Note_on_c, 0, 85, 47
1, 736200, Note_on_c, 0, 73, 47
1, 736200, Note_on_c, 0, 61, 47
1, 736200, Note_on_c, 0, 49, 47
1, 736310, Note_on_c, 0, 85, 0
1, 736310, Note_on_c, 0, 73, 0
1, 736310, Note_on_c, 0, 61, 0
1, 736310, Note_on_c, 0, 49, 0
1, 736320, Note_on_c, 0, 83, 47
1, 736320, Note_on_c, 0, 71, 47
1, 736320, Note_on_c, 0, 62, 47
1, 736320, Note_on_c, 0, 50, 47
1, 736430, Note_on_c, 0, 83, 0
1, 736430, Note_on_c, 0, 71, 0
1, 736430, Note_on_c, 0, 62, 0
1, 736430, Note_on_c, 0, 50, 0
1, 736440, Note_on_c, 0, 81, 47
1, 736440, Note_on_c, 0, 69, 47
1, 736440, Note_on_c, 0, 62, 47
1, 736440, Note_on_c, 0, 50, 47
1, 736550, Note_on_c, 0, 81, 0
1, 736550, Note_on_c, 0, 69, 0
1, 736550, Note_on_c, 0, 62, 0
1, 736550, Note_on_c, 0, 50, 0
1, 736560, Time_signature, 4, 2, 24, 8
1, 736560, Note_on_c, 0, 80, 47
1, 736560, Note_on_c, 0, 68, 47
1, 736560, Note_on_c, 0, 62, 47
1, 736560, Note_on_c, 0, 50, 47
1, 736670, Note_on_c, 0, 80, 0
1, 736670, Note_on_c, 0, 68, 0
1, 736670, Note_on_c, 0, 62, 0
1, 736670, Note_on_c, 0, 50, 0
1, 736680, Note_on_c, 0, 81, 47
1, 736680, Note_on_c, 0, 69, 47
1, 736680, Note_on_c, 0, 61, 47
1, 736680, Note_on_c, 0, 49, 47
1, 736790, Note_on_c, 0, 81, 0
1, 736790, Note_on_c, 0, 69, 0
1, 736790, Note_on_c, 0, 61, 0
1, 736790, Note_on_c, 0, 49, 0
1, 736800, Note_on_c, 0, 83, 47
1, 736800, Note_on_c, 0, 71, 47
1, 736800, Note_on_c, 0, 59, 47
1, 736800, Note_on_c, 0, 47, 47
1, 736910, Note_on_c, 0, 83, 0
1, 736910, Note_on_c, 0, 71, 0
1, 736910, Note_on_c, 0, 59, 0
1, 736910, Note_on_c, 0, 47, 0
1, 736920, Note_on_c, 0, 83, 47
1, 736920, Note_on_c, 0, 71, 47
1, 736920, Note_on_c, 0, 57, 47
1, 736920, Note_on_c, 0, 45, 47
1, 737030, Note_on_c, 0, 83, 0
1, 737030, Note_on_c, 0, 71, 0
1, 737030, Note_on_c, 0, 57, 0
1, 737030, Note_on_c, 0, 45, 0
1, 737040, Note_on_c, 0, 83, 47
1, 737040, Note_on_c, 0, 71, 47
1, 737040, Note_on_c, 0, 56, 47
1, 737040, Note_on_c, 0, 44, 47
1, 737150, Note_on_c, 0, 83, 0
1, 737150, Note_on_c, 0, 71, 0
1, 737150, Note_on_c, 0, 56, 0
1, 737150, Note_on_c, 0, 44, 0
1, 737160, Note_on_c, 0, 81, 47
1, 737160, Note_on_c, 0, 69, 47
1, 737160, Note_on_c, 0, 57, 47
1, 737160, Note_on_c, 0, 45, 47
1, 737270, Note_on_c, 0, 81, 0
1, 737270, Note_on_c, 0, 69, 0
1, 737270, Note_on_c, 0, 57, 0
1, 737270, Note_on_c, 0, 45, 0
1, 737280, Note_on_c, 0, 80, 47
1, 737280, Note_on_c, 0, 68, 47
1, 737280, Note_on_c, 0, 59, 47
1, 737280, Note_on_c, 0, 47, 47
1, 737390, Note_on_c, 0, 80, 0
1, 737390, Note_on_c, 0, 68, 0
1, 737390, Note_on_c, 0, 59, 0
1, 737390, Note_on_c, 0, 47, 0
1, 737400, Note_on_c, 0, 78, 47
1, 737400, Note_on_c, 0, 66, 47
1, 737400, Note_on_c, 0, 59, 47
1, 737400, Note_on_c, 0, 47, 47
1, 737510, Note_on_c, 0, 78, 0
1, 737510, Note_on_c, 0, 66, 0
1, 737510, Note_on_c, 0, 59, 0
1, 737510, Note_on_c, 0, 47, 0
1, 737520, Time_signature, 4, 2, 24, 8
1, 737520, Note_on_c, 0, 80, 47
1, 737520, Note_on_c, 0, 68, 47
1, 737520, Note_on_c, 0, 59, 47
1, 737520, Note_on_c, 0, 47, 47
1, 737630, Note_on_c, 0, 80, 0
1, 737630, Note_on_c, 0, 68, 0
1, 737630, Note_on_c, 0, 59, 0
1, 737630, Note_on_c, 0, 47, 0
1, 737640, Note_on_c, 0, 81, 47
1, 737640, Note_on_c, 0, 69, 47
1, 737640, Note_on_c, 0, 57, 47
1, 737640, Note_on_c, 0, 45, 47
1, 737750, Note_on_c, 0, 81, 0
1, 737750, Note_on_c, 0, 69, 0
1, 737750, Note_on_c, 0, 57, 0
1, 737750, Note_on_c, 0, 45, 0
1, 737760, Note_on_c, 0, 83, 47
1, 737760, Note_on_c, 0, 71, 47
1, 737760, Note_on_c, 0, 56, 47
1, 737760, Note_on_c, 0, 44, 47
1, 737870, Note_on_c, 0, 83, 0
1, 737870, Note_on_c, 0, 71, 0
1, 737870, Note_on_c, 0, 56, 0
1, 737870, Note_on_c, 0, 44, 0
1, 737880, Note_on_c, 0, 85, 47
1, 737880, Note_on_c, 0, 73, 47
1, 737880, Note_on_c, 0, 54, 47
1, 737880, Note_on_c, 0, 42, 47
1, 737990, Note_on_c, 0, 85, 0
1, 737990, Note_on_c, 0, 73, 0
1, 737990, Note_on_c, 0, 54, 0
1, 737990, Note_on_c, 0, 42, 0
1, 738000, Note_on_c, 0, 86, 47
1, 738000, Note_on_c, 0, 74, 47
1, 738000, Note_on_c, 0, 52, 47
1, 738000, Note_on_c, 0, 40, 47
1, 738110, Note_on_c, 0, 86, 0
1, 738110, Note_on_c, 0, 74, 0
1, 738110, Note_on_c, 0, 52, 0
1, 738110, Note_on_c, 0, 40, 0
1, 738120, Note_on_c, 0, 88, 47
1, 738120, Note_on_c, 0, 76, 47
1, 738120, Note_on_c, 0, 50, 47
1, 738120, Note_on_c, 0, 38, 47
1, 738230, Note_on_c, 0, 88, 0
1, 738230, Note_on_c, 0, 76, 0
1, 738230, Note_on_c, 0, 50, 0
1, 738230, Note_on_c, 0, 38, 0
1, 738240, Note_on_c, 0, 90, 47
1, 738240, Note_on_c, 0, 78, 47
1, 738240, Note_on_c, 0, 49, 47
1, 738240, Note_on_c, 0, 37, 47
1, 738350, Note_on_c, 0, 90, 0
1, 738350, Note_on_c, 0, 78, 0
1, 738350, Note_on_c, 0, 49, 0
1, 738350, Note_on_c, 0, 37, 0
1, 738360, Note_on_c, 0, 92, 47
1, 738360, Note_on_c, 0, 80, 47
1, 738360, Note_on_c, 0, 47, 47
1, 738360, Note_on_c, 0, 35, 47
1, 738470, Note_on_c, 0, 92, 0
1, 738470, Note_on_c, 0, 80, 0
1, 738470, Note_on_c, 0, 47, 0
1, 738470, Note_on_c, 0, 35, 0
1, 738480, Time_signature, 4, 2, 24, 8
1, 738480, Note_on_c, 0, 93, 47
1, 738480, Note_on_c, 0, 81, 47
1, 738480, Note_on_c, 0, 45, 47
1, 738480, Note_on_c, 0, 33, 47
1, 738710, Note_on_c, 0, 93, 0
1, 738710, Note_on_c, 0, 81, 0
1, 738710, Note_on_c, 0, 45, 0
1, 738710, Note_on_c, 0, 33, 0
1, 738720, Note_on_c, 0, 73, 47
1, 738720, Note_on_c, 0, 69, 47
1, 739070, Note_on_c, 0, 73, 0
1, 739070, Note_on_c, 0, 69, 0
1, 739080, Note_on_c, 0, 74, 47
1, 739080, Note_on_c, 0, 71, 47
1, 739190, Note_on_c, 0, 74, 0
1, 739190, Note_on_c, 0, 71, 0
1, 739200, Note_on_c, 0, 76, 47
1, 739200, Note_on_c, 0, 73, 47
1, 739310, Note_on_c, 0, 76, 0
1, 739310, Note_on_c, 0, 73, 0
1, 739320, Note_on_c, 0, 73, 47
1, 739320, Note_on_c, 0, 69, 47
1, 739430, Note_on_c, 0, 73, 0
1, 739430, Note_on_c, 0, 69, 0
1, 739440, Time_signature, 4, 2, 24, 8
1, 739440, Note_on_c, 0, 76, 47
1, 739440, Note_on_c, 0, 74, 47
1, 739440, Note_on_c, 0, 71, 47
1, 739670, Note_on_c, 0, 74, 0
1, 739670, Note_on_c, 0, 71, 0
1, 739680, Note_on_c, 0, 71, 47
1, 739680, Note_on_c, 0, 74, 47
1, 739680, Note_on_c, 0, 69, 47
1, 739910, Note_on_c, 0, 71, 0
1, 739910, Note_on_c, 0, 74, 0
1, 739910, Note_on_c, 0, 69, 0
1, 739920, Note_on_c, 0, 71, 47
1, 739920, Note_on_c, 0, 74, 47
1, 739920, Note_on_c, 0, 69, 47
1, 740030, Note_on_c, 0, 76, 0
1, 740040, Note_on_c, 0, 78, 47
1, 740150, Note_on_c, 0, 78, 0
1, 740150, Note_on_c, 0, 71, 0
1, 740150, Note_on_c, 0, 74, 0
1, 740150, Note_on_c, 0, 69, 0
1, 740160, Note_on_c, 0, 80, 47
1, 740160, Note_on_c, 0, 71, 47
1, 740160, Note_on_c, 0, 74, 47
1, 740160, Note_on_c, 0, 69, 47
1, 740270, Note_on_c, 0, 80, 0
1, 740280, Note_on_c, 0, 76, 47
1, 740390, Note_on_c, 0, 76, 0
1, 740390, Note_on_c, 0, 71, 0
1, 740390, Note_on_c, 0, 74, 0
1, 740390, Note_on_c, 0, 69, 0
1, 740400, Time_signature, 4, 2, 24, 8
1, 740400, Note_on_c, 0, 81, 47
1, 740400, Note_on_c, 0, 74, 47
1, 740400, Note_on_c, 0, 71, 47
1, 740400, Note_on_c, 0, 61, 47
1, 740400, Note_on_c, 0, 57, 47
1, 740630, Note_on_c, 0, 81, 0
1, 740750, Note_on_c, 0, 74, 0
1, 740750, Note_on_c, 0, 71, 0
1, 740760, Note_on_c, 0, 73, 47
1, 740760, Note_on_c, 0, 69, 47
1, 740870, Note_on_c, 0, 73, 0
1, 740870, Note_on_c, 0, 69, 0
1, 740880, Note_on_c, 0, 73, 47
1, 740880, Note_on_c, 0, 69, 47
1, 740990, Note_on_c, 0, 61, 0
1, 740990, Note_on_c, 0, 57, 0
1, 741000, Note_on_c, 0, 62, 47
1, 741000, Note_on_c, 0, 59, 47
1, 741110, Note_on_c, 0, 73, 0
1, 741110, Note_on_c, 0, 69, 0
1, 741110, Note_on_c, 0, 62, 0
1, 741110, Note_on_c, 0, 59, 0
1, 741120, Note_on_c, 0, 64, 47
1, 741120, Note_on_c, 0, 61, 47
1, 741230, Note_on_c, 0, 64, 0
1, 741230, Note_on_c, 0, 61, 0
1, 741240, Note_on_c, 0, 61, 47
1, 741240, Note_on_c, 0, 57, 47
1, 741350, Note_on_c, 0, 61, 0
1, 741350, Note_on_c, 0, 57, 0
1, 741360, Time_signature, 4, 2, 24, 8
1, 741360, Note_on_c, 0, 64, 47
1, 741360, Note_on_c, 0, 62, 47
1, 741360, Note_on_c, 0, 59, 47
1, 741590, Note_on_c, 0, 62, 0
1, 741590, Note_on_c, 0, 59, 0
1, 741600, Note_on_c, 0, 59, 47
1, 741600, Note_on_c, 0, 62, 47
1, 741600, Note_on_c, 0, 57, 47
1, 741830, Note_on_c, 0, 59, 0
1, 741830, Note_on_c, 0, 62, 0
1, 741830, Note_on_c, 0, 57, 0
1, 741840, Note_on_c, 0, 59, 47
1, 741840, Note_on_c, 0, 62, 47
1, 741840, Note_on_c, 0, 57, 47
1, 741950, Note_on_c, 0, 64, 0
1, 741960, Note_on_c, 0, 66, 47
1, 742070, Note_on_c, 0, 66, 0
1, 742070, Note_on_c, 0, 59, 0
1, 742070, Note_on_c, 0, 62, 0
1, 742070, Note_on_c, 0, 57, 0
1, 742080, Note_on_c, 0, 68, 47
1, 742080, Note_on_c, 0, 59, 47
1, 742080, Note_on_c, 0, 62, 47
1, 742080, Note_on_c, 0, 57, 47
1, 742190, Note_on_c, 0, 68, 0
1, 742200, Note_on_c, 0, 64, 47
1, 742310, Note_on_c, 0, 64, 0
1, 742310, Note_on_c, 0, 59, 0
1, 742310, Note_on_c, 0, 62, 0
1, 742310, Note_on_c, 0, 57, 0
1, 742320, Time_signature, 4, 2, 24, 8
1, 742320, Note_on_c, 0, 73, 47
1, 742320, Note_on_c, 0, 69, 47
1, 742320, Note_on_c, 0, 62, 47
1, 742320, Note_on_c, 0, 59, 47
1, 742320, Note_on_c, 0, 57, 47
1, 742550, Note_on_c, 0, 57, 0
1, 742670, Note_on_c, 0, 62, 0
1, 742670, Note_on_c, 0, 59, 0
1, 742680, Note_on_c, 0, 61, 47
1, 742680, Note_on_c, 0, 57, 47
1, 742790, Note_on_c, 0, 61, 0
1, 742790, Note_on_c, 0, 57, 0
1, 742800, Note_on_c, 0, 61, 47
1, 742800, Note_on_c, 0, 57, 47
1, 742910, Note_on_c, 0, 73, 0
1, 742910, Note_on_c, 0, 69, 0
1, 742920, Note_on_c, 0, 74, 47
1, 742920, Note_on_c, 0, 71, 47
1, 743030, Note_on_c, 0, 74, 0
1, 743030, Note_on_c, 0, 71, 0
1, 743030, Note_on_c, 0, 61, 0
1, 743030, Note_on_c, 0, 57, 0
1, 743040, Note_on_c, 0, 76, 47
1, 743040, Note_on_c, 0, 73, 47
1, 743150, Note_on_c, 0, 76, 0
1, 743150, Note_on_c, 0, 73, 0
1, 743160, Note_on_c, 0, 73, 47
1, 743160, Note_on_c, 0, 69, 47
1, 743270, Note_on_c, 0, 73, 0
1, 743270, Note_on_c, 0, 69, 0
1, 743280, Time_signature, 4, 2, 24, 8
1, 743280, Note_on_c, 0, 81, 47
1, 743280, Note_on_c, 0, 74, 47
1, 743280, Note_on_c, 0, 71, 47
1, 743280, Note_on_c, 0, 45, 47
1, 743390, Note_on_c, 0, 45, 0
1, 743400, Note_on_c, 0, 57, 47
1, 743510, Note_on_c, 0, 74, 0
1, 743510, Note_on_c, 0, 71, 0
1, 743510, Note_on_c, 0, 57, 0
1, 743520, Note_on_c, 0, 74, 47
1, 743520, Note_on_c, 0, 71, 47
1, 743520, Note_on_c, 0, 45, 47
1, 743630, Note_on_c, 0, 45, 0
1, 743640, Note_on_c, 0, 57, 47
1, 743750, Note_on_c, 0, 74, 0
1, 743750, Note_on_c, 0, 71, 0
1, 743750, Note_on_c, 0, 57, 0
1, 743760, Note_on_c, 0, 76, 47
1, 743760, Note_on_c, 0, 73, 47
1, 743760, Note_on_c, 0, 45, 47
1, 743870, Note_on_c, 0, 81, 0
1, 743870, Note_on_c, 0, 45, 0
1, 743880, Note_on_c, 0, 83, 47
1, 743880, Note_on_c, 0, 57, 47
1, 743990, Note_on_c, 0, 83, 0
1, 743990, Note_on_c, 0, 76, 0
1, 743990, Note_on_c, 0, 73, 0
1, 743990, Note_on_c, 0, 57, 0
1, 744000, Note_on_c, 0, 85, 47
1, 744000, Note_on_c, 0, 73, 47
1, 744110, Note_on_c, 0, 85, 0
1, 744120, Note_on_c, 0, 81, 47
1, 744230, Note_on_c, 0, 81, 0
1, 744230, Note_on_c, 0, 73, 0
1, 744240, Time_signature, 4, 2, 24, 8
1, 744240, Note_on_c, 0, 88, 47
1, 744240, Note_on_c, 0, 76, 47
1, 744240, Note_on_c, 0, 67, 47
1, 744470, Note_on_c, 0, 88, 0
1, 744470, Note_on_c, 0, 76, 0
1, 744470, Note_on_c, 0, 67, 0
1, 744480, Note_on_c, 0, 73, 47
1, 744480, Note_on_c, 0, 76, 47
1, 744480, Note_on_c, 0, 67, 47
1, 744710, Note_on_c, 0, 73, 0
1, 744710, Note_on_c, 0, 76, 0
1, 744710, Note_on_c, 0, 67, 0
1, 744720, Note_on_c, 0, 69, 47
1, 744720, Note_on_c, 0, 74, 47
1, 744720, Note_on_c, 0, 66, 47
1, 744720, Note_on_c, 0, 57, 47
1, 744720, Note_on_c, 0, 45, 47
1, 744950, Note_on_c, 0, 69, 0
1, 744950, Note_on_c, 0, 74, 0
1, 744950, Note_on_c, 0, 66, 0
1, 744950, Note_on_c, 0, 57, 0
1, 744950, Note_on_c, 0, 45, 0
1, 744960, Note_on_c, 0, 69, 47
1, 744960, Note_on_c, 0, 74, 47
1, 744960, Note_on_c, 0, 66, 47
1, 745190, Note_on_c, 0, 69, 0
1, 745190, Note_on_c, 0, 74, 0
1, 745190, Note_on_c, 0, 66, 0
1, 745200, Time_signature, 4, 2, 24, 8
1, 745200, Note_on_c, 0, 73, 47
1, 745200, Note_on_c, 0, 79, 47
1, 745200, Note_on_c, 0, 69, 47
1, 745200, Note_on_c, 0, 64, 47
1, 745200, Note_on_c, 0, 57, 47
1, 745430, Note_on_c, 0, 73, 0
1, 745430, Note_on_c, 0, 79, 0
1, 745430, Note_on_c, 0, 69, 0
1, 745430, Note_on_c, 0, 64, 0
1, 745430, Note_on_c, 0, 57, 0
1, 745440, Note_on_c, 0, 73, 47
1, 745440, Note_on_c, 0, 79, 47
1, 745440, Note_on_c, 0, 69, 47
1, 745440, Note_on_c, 0, 64, 47
1, 745670, Note_on_c, 0, 73, 0
1, 745670, Note_on_c, 0, 79, 0
1, 745670, Note_on_c, 0, 69, 0
1, 745670, Note_on_c, 0, 64, 0
1, 745680, Note_on_c, 0, 74, 47
1, 745680, Note_on_c, 0, 78, 47
1, 745680, Note_on_c, 0, 69, 47
1, 745680, Note_on_c, 0, 62, 47
1, 745680, Note_on_c, 0, 57, 47
1, 745910, Note_on_c, 0, 74, 0
1, 745910, Note_on_c, 0, 78, 0
1, 745910, Note_on_c, 0, 69, 0
1, 745910, Note_on_c, 0, 62, 0
1, 745910, Note_on_c, 0, 57, 0
1, 745920, Note_on_c, 0, 74, 47
1, 745920, Note_on_c, 0, 78, 47
1, 745920, Note_on_c, 0, 69, 47
1, 745920, Note_on_c, 0, 62, 47
1, 746150, Note_on_c, 0, 74, 0
1, 746150, Note_on_c, 0, 78, 0
1, 746150, Note_on_c, 0, 69, 0
1, 746150, Note_on_c, 0, 62, 0
1, 746160, Time_signature, 4, 2, 24, 8
1, 746160, Note_on_c, 0, 78, 47
1, 746160, Note_on_c, 0, 74, 47
1, 746160, Note_on_c, 0, 69, 47
1, 746160, Note_on_c, 0, 67, 47
1, 746160, Note_on_c, 0, 57, 47
1, 746390, Note_on_c, 0, 78, 0
1, 746390, Note_on_c, 0, 74, 0
1, 746390, Note_on_c, 0, 67, 0
1, 746390, Note_on_c, 0, 57, 0
1, 746400, Note_on_c, 0, 76, 47
1, 746400, Note_on_c, 0, 73, 47
1, 746400, Note_on_c, 0, 67, 47
1, 746630, Note_on_c, 0, 76, 0
1, 746630, Note_on_c, 0, 73, 0
1, 746630, Note_on_c, 0, 69, 0
1, 746630, Note_on_c, 0, 67, 0
1, 746640, Note_on_c, 0, 74, 47
1, 746640, Note_on_c, 0, 69, 47
1, 746640, Note_on_c, 0, 66, 47
1, 746640, Note_on_c, 0, 57, 47
1, 746870, Note_on_c, 0, 74, 0
1, 746870, Note_on_c, 0, 69, 0
1, 746870, Note_on_c, 0, 66, 0
1, 746870, Note_on_c, 0, 57, 0
1, 746880, Note_on_c, 0, 74, 47
1, 746880, Note_on_c, 0, 81, 47
1, 746880, Note_on_c, 0, 69, 47
1, 746880, Note_on_c, 0, 66, 47
1, 747110, Note_on_c, 0, 74, 0
1, 747110, Note_on_c, 0, 81, 0
1, 747110, Note_on_c, 0, 69, 0
1, 747110, Note_on_c, 0, 66, 0
1, 747120, Time_signature, 4, 2, 24, 8
1, 747120, Note_on_c, 0, 81, 47
1, 747120, Note_on_c, 0, 69, 47
1, 747120, Note_on_c, 0, 66, 47
1, 747120, Note_on_c, 0, 57, 47
1, 747350, Note_on_c, 0, 81, 0
1, 747350, Note_on_c, 0, 69, 0
1, 747350, Note_on_c, 0, 66, 0
1, 747350, Note_on_c, 0, 57, 0
1, 747360, Note_on_c, 0, 79, 47
1, 747360, Note_on_c, 0, 73, 47
1, 747360, Note_on_c, 0, 64, 47
1, 747590, Note_on_c, 0, 79, 0
1, 747590, Note_on_c, 0, 73, 0
1, 747590, Note_on_c, 0, 64, 0
1, 747600, Note_on_c, 0, 79, 47
1, 747600, Note_on_c, 0, 69, 47
1, 747600, Note_on_c, 0, 62, 47
1, 747600, Note_on_c, 0, 57, 47
1, 747830, Note_on_c, 0, 79, 0
1, 747830, Note_on_c, 0, 69, 0
1, 747830, Note_on_c, 0, 62, 0
1, 747830, Note_on_c, 0, 57, 0
1, 747840, Note_on_c, 0, 78, 47
1, 747840, Note_on_c, 0, 74, 47
1, 747840, Note_on_c, 0, 69, 47
1, 748070, Note_on_c, 0, 78, 0
1, 748070, Note_on_c, 0, 74, 0
1, 748070, Note_on_c, 0, 69, 0
1, 748080, Time_signature, 4, 2, 24, 8
1, 748080, Note_on_c, 0, 69, 47
1, 748080, Note_on_c, 0, 61, 47
1, 748080, Note_on_c, 0, 57, 47
1, 748080, Note_on_c, 0, 52, 47
1, 748310, Note_on_c, 0, 69, 0
1, 748310, Note_on_c, 0, 61, 0
1, 748310, Note_on_c, 0, 52, 0
1, 748320, Note_on_c, 0, 73, 47
1, 748320, Note_on_c, 0, 67, 47
1, 748320, Note_on_c, 0, 52, 47
1, 748550, Note_on_c, 0, 73, 0
1, 748550, Note_on_c, 0, 67, 0
1, 748550, Note_on_c, 0, 57, 0
1, 748550, Note_on_c, 0, 52, 0
1, 748560, Note_on_c, 0, 74, 48
1, 748560, Note_on_c, 0, 67, 48
1, 748560, Note_on_c, 0, 57, 48
1, 748560, Note_on_c, 0, 50, 48
1, 748790, Note_on_c, 0, 74, 0
1, 748790, Note_on_c, 0, 67, 0
1, 748790, Note_on_c, 0, 50, 0
1, 748800, Note_on_c, 0, 78, 49
1, 748800, Note_on_c, 0, 66, 49
1, 748800, Note_on_c, 0, 50, 49
1, 749030, Note_on_c, 0, 78, 0
1, 749030, Note_on_c, 0, 66, 0
1, 749030, Note_on_c, 0, 57, 0
1, 749030, Note_on_c, 0, 50, 0
1, 749040, Time_signature, 4, 2, 24, 8
1, 749040, Note_on_c, 0, 81, 49
1, 749040, Note_on_c, 0, 69, 49
1, 749040, Note_on_c, 0, 64, 49
1, 749040, Note_on_c, 0, 55, 49
1, 749270, Note_on_c, 0, 81, 0
1, 749270, Note_on_c, 0, 64, 0
1, 749270, Note_on_c, 0, 55, 0
1, 749280, Note_on_c, 0, 73, 50
1, 749280, Note_on_c, 0, 64, 50
1, 749280, Note_on_c, 0, 55, 50
1, 749510, Note_on_c, 0, 73, 0
1, 749510, Note_on_c, 0, 69, 0
1, 749510, Note_on_c, 0, 64, 0
1, 749510, Note_on_c, 0, 55, 0
1, 749520, Note_on_c, 0, 74, 51
1, 749520, Note_on_c, 0, 69, 51
1, 749520, Note_on_c, 0, 62, 51
1, 749520, Note_on_c, 0, 54, 51
1, 749750, Note_on_c, 0, 74, 0
1, 749750, Note_on_c, 0, 62, 0
1, 749750, Note_on_c, 0, 54, 0
1, 749760, Note_on_c, 0, 78, 52
1, 749760, Note_on_c, 0, 62, 52
1, 749760, Note_on_c, 0, 54, 52
1, 749990, Note_on_c, 0, 78, 0
1, 749990, Note_on_c, 0, 69, 0
1, 749990, Note_on_c, 0, 62, 0
1, 749990, Note_on_c, 0, 54, 0
1, 750000, Time_signature, 4, 2, 24, 8
1, 750000, Note_on_c, 0, 69, 52
1, 750000, Note_on_c, 0, 67, 52
1, 750000, Note_on_c, 0, 57, 52
1, 750000, Note_on_c, 0, 54, 52
1, 750230, Note_on_c, 0, 69, 0
1, 750230, Note_on_c, 0, 67, 0
1, 750230, Note_on_c, 0, 57, 0
1, 750230, Note_on_c, 0, 54, 0
1, 750240, Note_on_c, 0, 73, 53
1, 750240, Note_on_c, 0, 67, 53
1, 750240, Note_on_c, 0, 52, 53
1, 750470, Note_on_c, 0, 73, 0
1, 750470, Note_on_c, 0, 67, 0
1, 750470, Note_on_c, 0, 52, 0
1, 750480, Note_on_c, 0, 74, 54
1, 750480, Note_on_c, 0, 66, 54
1, 750480, Note_on_c, 0, 50, 54
1, 750710, Note_on_c, 0, 74, 0
1, 750710, Note_on_c, 0, 66, 0
1, 750710, Note_on_c, 0, 50, 0
1, 750720, Note_on_c, 0, 78, 54
1, 750720, Note_on_c, 0, 66, 54
1, 750720, Note_on_c, 0, 57, 54
1, 750950, Note_on_c, 0, 78, 0
1, 750950, Note_on_c, 0, 66, 0
1, 750950, Note_on_c, 0, 57, 0
1, 750960, Time_signature, 4, 2, 24, 8
1, 750960, Note_on_c, 0, 81, 55
1, 750960, Note_on_c, 0, 69, 55
1, 750960, Note_on_c, 0, 66, 55
1, 750960, Note_on_c, 0, 57, 55
1, 751190, Note_on_c, 0, 81, 0
1, 751190, Note_on_c, 0, 69, 0
1, 751190, Note_on_c, 0, 66, 0
1, 751190, Note_on_c, 0, 57, 0
1, 751200, Note_on_c, 0, 73, 56
1, 751200, Note_on_c, 0, 64, 56
1, 751200, Note_on_c, 0, 55, 56
1, 751430, Note_on_c, 0, 73, 0
1, 751430, Note_on_c, 0, 64, 0
1, 751430, Note_on_c, 0, 55, 0
1, 751440, Note_on_c, 0, 74, 57
1, 751440, Note_on_c, 0, 69, 57
1, 751440, Note_on_c, 0, 62, 57
1, 751440, Note_on_c, 0, 55, 57
1, 751670, Note_on_c, 0, 74, 0
1, 751670, Note_on_c, 0, 69, 0
1, 751670, Note_on_c, 0, 62, 0
1, 751670, Note_on_c, 0, 55, 0
1, 751680, Note_on_c, 0, 78, 57
1, 751680, Note_on_c, 0, 69, 57
1, 751680, Note_on_c, 0, 57, 57
1, 751680, Note_on_c, 0, 54, 57
1, 751910, Note_on_c, 0, 78, 0
1, 751910, Note_on_c, 0, 69, 0
1, 751910, Note_on_c, 0, 57, 0
1, 751910, Note_on_c, 0, 54, 0
1, 751920, Time_signature, 4, 2, 24, 8
1, 751920, Note_on_c, 0, 78, 58
1, 751920, Note_on_c, 0, 69, 58
1, 751920, Note_on_c, 0, 57, 58
1, 751920, Note_on_c, 0, 45, 58
1, 752150, Note_on_c, 0, 78, 0
1, 752150, Note_on_c, 0, 69, 0
1, 752150, Note_on_c, 0, 45, 0
1, 752160, Note_on_c, 0, 76, 59
1, 752160, Note_on_c, 0, 67, 59
1, 752160, Note_on_c, 0, 49, 59
1, 752390, Note_on_c, 0, 76, 0
1, 752390, Note_on_c, 0, 67, 0
1, 752390, Note_on_c, 0, 57, 0
1, 752390, Note_on_c, 0, 49, 0
1, 752400, Note_on_c, 0, 76, 60
1, 752400, Note_on_c, 0, 67, 60
1, 752400, Note_on_c, 0, 57, 60
1, 752400, Note_on_c, 0, 50, 60
1, 752630, Note_on_c, 0, 76, 0
1, 752630, Note_on_c, 0, 67, 0
1, 752630, Note_on_c, 0, 50, 0
1, 752640, Note_on_c, 0, 74, 60
1, 752640, Note_on_c, 0, 66, 60
1, 752640, Note_on_c, 0, 54, 60
1, 752870, Note_on_c, 0, 74, 0
1, 752870, Note_on_c, 0, 66, 0
1, 752870, Note_on_c, 0, 57, 0
1, 752870, Note_on_c, 0, 54, 0
1, 752880, Time_signature, 4, 2, 24, 8
1, 752880, Note_on_c, 0, 69, 61
1, 752880, Note_on_c, 0, 67, 61
1, 752880, Note_on_c, 0, 64, 61
1, 752880, Note_on_c, 0, 57, 61
1, 753110, Note_on_c, 0, 69, 0
1, 753110, Note_on_c, 0, 67, 0
1, 753110, Note_on_c, 0, 64, 0
1, 753110, Note_on_c, 0, 57, 0
1, 753120, Note_on_c, 0, 64, 62
1, 753120, Note_on_c, 0, 49, 62
1, 753350, Note_on_c, 0, 64, 0
1, 753350, Note_on_c, 0, 49, 0
1, 753360, Note_on_c, 0, 69, 62
1, 753360, Note_on_c, 0, 66, 62
1, 753360, Note_on_c, 0, 62, 62
1, 753360, Note_on_c, 0, 50, 62
1, 753590, Note_on_c, 0, 69, 0
1, 753590, Note_on_c, 0, 66, 0
1, 753590, Note_on_c, 0, 62, 0
1, 753590, Note_on_c, 0, 50, 0
1, 753600, Note_on_c, 0, 74, 63
1, 753600, Note_on_c, 0, 62, 63
1, 753600, Note_on_c, 0, 54, 63
1, 753830, Note_on_c, 0, 74, 0
1, 753830, Note_on_c, 0, 62, 0
1, 753830, Note_on_c, 0, 54, 0
1, 753840, Time_signature, 4, 2, 24, 8
1, 753840, Note_on_c, 0, 76, 64
1, 753840, Note_on_c, 0, 69, 64
1, 753840, Note_on_c, 0, 67, 64
1, 753840, Note_on_c, 0, 45, 64
1, 754070, Note_on_c, 0, 76, 0
1, 754070, Note_on_c, 0, 69, 0
1, 754070, Note_on_c, 0, 67, 0
1, 754070, Note_on_c, 0, 45, 0
1, 754080, Note_on_c, 0, 78, 65
1, 754080, Note_on_c, 0, 67, 65
1, 754080, Note_on_c, 0, 49, 65
1, 754190, Note_on_c, 0, 78, 0
1, 754200, Note_on_c, 0, 76, 65
1, 754310, Note_on_c, 0, 76, 0
1, 754310, Note_on_c, 0, 67, 0
1, 754310, Note_on_c, 0, 49, 0
1, 754320, Note_on_c, 0, 74, 65
1, 754320, Note_on_c, 0, 69, 65
1, 754320, Note_on_c, 0, 66, 65
1, 754320, Note_on_c, 0, 50, 65
1, 754550, Note_on_c, 0, 74, 0
1, 754550, Note_on_c, 0, 69, 0
1, 754550, Note_on_c, 0, 66, 0
1, 754550, Note_on_c, 0, 50, 0
1, 754560, Note_on_c, 0, 76, 66
1, 754560, Note_on_c, 0, 66, 66
1, 754560, Note_on_c, 0, 54, 66
1, 754670, Note_on_c, 0, 76, 0
1, 754680, Note_on_c, 0, 74, 66
1, 754790, Note_on_c, 0, 74, 0
1, 754790, Note_on_c, 0, 66, 0
1, 754790, Note_on_c, 0, 54, 0
1, 754800, Time_signature, 4, 2, 24, 8
1, 754800, Note_on_c, 0, 79, 67
1, 754800, Note_on_c, 0, 69, 67
1, 754800, Note_on_c, 0, 66, 67
1, 754800, Note_on_c, 0, 57, 67
1, 755030, Note_on_c, 0, 79, 0
1, 755030, Note_on_c, 0, 69, 0
1, 755030, Note_on_c, 0, 66, 0
1, 755030, Note_on_c, 0, 57, 0
1, 755040, Note_on_c, 0, 81, 67
1, 755040, Note_on_c, 0, 64, 67
1, 755040, Note_on_c, 0, 61, 67
1, 755150, Note_on_c, 0, 81, 0
1, 755160, Note_on_c, 0, 79, 68
1, 755270, Note_on_c, 0, 79, 0
1, 755270, Note_on_c, 0, 64, 0
1, 755270, Note_on_c, 0, 61, 0
1, 755280, Note_on_c, 0, 78, 68
1, 755280, Note_on_c, 0, 69, 68
1, 755280, Note_on_c, 0, 64, 68
1, 755280, Note_on_c, 0, 50, 68
1, 755510, Note_on_c, 0, 78, 0
1, 755510, Note_on_c, 0, 69, 0
1, 755510, Note_on_c, 0, 64, 0
1, 755510, Note_on_c, 0, 50, 0
1, 755520, Note_on_c, 0, 79, 69
1, 755520, Note_on_c, 0, 62, 69
1, 755520, Note_on_c, 0, 54, 69
1, 755630, Note_on_c, 0, 79, 0
1, 755640, Note_on_c, 0, 78, 69
1, 755750, Note_on_c, 0, 78, 0
1, 755750, Note_on_c, 0, 62, 0
1, 755750, Note_on_c, 0, 54, 0
1, 755760, Time_signature, 4, 2, 24, 8
1, 755760, Note_on_c, 0, 69, 70
1, 755760, Note_on_c, 0, 61, 70
1, 755760, Note_on_c, 0, 52, 70
1, 755760, Note_on_c, 0, 40, 70
1, 755990, Note_on_c, 0, 69, 0
1, 755990, Note_on_c, 0, 61, 0
1, 755990, Note_on_c, 0, 52, 0
1, 755990, Note_on_c, 0, 40, 0
1, 756000, Note_on_c, 0, 73, 70
1, 756000, Note_on_c, 0, 67, 70
1, 756000, Note_on_c, 0, 52, 70
1, 756000, Note_on_c, 0, 40, 70
1, 756230, Note_on_c, 0, 73, 0
1, 756230, Note_on_c, 0, 67, 0
1, 756230, Note_on_c, 0, 52, 0
1, 756230, Note_on_c, 0, 40, 0
1, 756240, Note_on_c, 0, 69, 71
1, 756240, Note_on_c, 0, 74, 71
1, 756240, Note_on_c, 0, 67, 71
1, 756240, Note_on_c, 0, 50, 71
1, 756240, Note_on_c, 0, 38, 71
1, 756470, Note_on_c, 0, 69, 0
1, 756470, Note_on_c, 0, 74, 0
1, 756470, Note_on_c, 0, 67, 0
1, 756470, Note_on_c, 0, 50, 0
1, 756470, Note_on_c, 0, 38, 0
1, 756480, Note_on_c, 0, 78, 72
1, 756480, Note_on_c, 0, 66, 72
1, 756480, Note_on_c, 0, 50, 72
1, 756480, Note_on_c, 0, 38, 72
1, 756710, Note_on_c, 0, 78, 0
1, 756710, Note_on_c, 0, 66, 0
1, 756710, Note_on_c, 0, 50, 0
1, 756710, Note_on_c, 0, 38, 0
1, 756720, Time_signature, 4, 2, 24, 8
1, 756720, Note_on_c, 0, 81, 73
1, 756720, Note_on_c, 0, 69, 73
1, 756720, Note_on_c, 0, 55, 73
1, 756720, Note_on_c, 0, 43, 73
1, 756950, Note_on_c, 0, 81, 0
1, 756950, Note_on_c, 0, 69, 0
1, 756950, Note_on_c, 0, 55, 0
1, 756950, Note_on_c, 0, 43, 0
1, 756960, Note_on_c, 0, 73, 73
1, 756960, Note_on_c, 0, 69, 73
1, 756960, Note_on_c, 0, 64, 73
1, 756960, Note_on_c, 0, 55, 73
1, 756960, Note_on_c, 0, 43, 73
1, 757190, Note_on_c, 0, 73, 0
1, 757190, Note_on_c, 0, 69, 0
1, 757190, Note_on_c, 0, 64, 0
1, 757190, Note_on_c, 0, 55, 0
1, 757190, Note_on_c, 0, 43, 0
1, 757200, Note_on_c, 0, 74, 74
1, 757200, Note_on_c, 0, 69, 74
1, 757200, Note_on_c, 0, 62, 74
1, 757200, Note_on_c, 0, 54, 74
1, 757200, Note_on_c, 0, 42, 74
1, 757430, Note_on_c, 0, 74, 0
1, 757430, Note_on_c, 0, 69, 0
1, 757430, Note_on_c, 0, 62, 0
1, 757430, Note_on_c, 0, 54, 0
1, 757430, Note_on_c, 0, 42, 0
1, 757440, Note_on_c, 0, 78, 75
1, 757440, Note_on_c, 0, 66, 75
1, 757440, Note_on_c, 0, 54, 75
1, 757440, Note_on_c, 0, 42, 75
1, 757670, Note_on_c, 0, 78, 0
1, 757670, Note_on_c, 0, 66, 0
1, 757670, Note_on_c, 0, 54, 0
1, 757670, Note_on_c, 0, 42, 0
1, 757680, Time_signature, 4, 2, 24, 8
1, 757680, Note_on_c, 0, 81, 75
1, 757680, Note_on_c, 0, 69, 75
1, 757680, Note_on_c, 0, 54, 75
1, 757680, Note_on_c, 0, 42, 75
1, 757910, Note_on_c, 0, 81, 0
1, 757910, Note_on_c, 0, 69, 0
1, 757910, Note_on_c, 0, 54, 0
1, 757910, Note_on_c, 0, 42, 0
1, 757920, Note_on_c, 0, 79, 76
1, 757920, Note_on_c, 0, 73, 76
1, 757920, Note_on_c, 0, 67, 76
1, 757920, Note_on_c, 0, 52, 76
1, 757920, Note_on_c, 0, 40, 76
1, 758150, Note_on_c, 0, 79, 0
1, 758150, Note_on_c, 0, 73, 0
1, 758150, Note_on_c, 0, 67, 0
1, 758150, Note_on_c, 0, 52, 0
1, 758150, Note_on_c, 0, 40, 0
1, 758160, Note_on_c, 0, 81, 77
1, 758160, Note_on_c, 0, 69, 77
1, 758160, Note_on_c, 0, 50, 77
1, 758160, Note_on_c, 0, 38, 77
1, 758390, Note_on_c, 0, 81, 0
1, 758390, Note_on_c, 0, 69, 0
1, 758390, Note_on_c, 0, 50, 0
1, 758390, Note_on_c, 0, 38, 0
1, 758400, Note_on_c, 0, 78, 78
1, 758400, Note_on_c, 0, 74, 78
1, 758400, Note_on_c, 0, 66, 78
1, 758400, Note_on_c, 0, 57, 78
1, 758400, Note_on_c, 0, 45, 78
1, 758630, Note_on_c, 0, 78, 0
1, 758630, Note_on_c, 0, 74, 0
1, 758630, Note_on_c, 0, 66, 0
1, 758630, Note_on_c, 0, 57, 0
1, 758630, Note_on_c, 0, 45, 0
1, 758640, Time_signature, 4, 2, 24, 8
1, 758640, Note_on_c, 0, 81, 78
1, 758640, Note_on_c, 0, 57, 78
1, 758640, Note_on_c, 0, 45, 78
1, 758870, Note_on_c, 0, 81, 0
1, 758870, Note_on_c, 0, 57, 0
1, 758870, Note_on_c, 0, 45, 0
1, 758880, Note_on_c, 0, 73, 79
1, 758880, Note_on_c, 0, 76, 79
1, 758880, Note_on_c, 0, 64, 79
1, 758880, Note_on_c, 0, 55, 79
1, 758880, Note_on_c, 0, 43, 79
1, 759110, Note_on_c, 0, 73, 0
1, 759110, Note_on_c, 0, 55, 0
1, 759110, Note_on_c, 0, 43, 0
1, 759120, Note_on_c, 0, 69, 80
1, 759120, Note_on_c, 0, 55, 80
1, 759120, Note_on_c, 0, 43, 80
1, 759230, Note_on_c, 0, 76, 0
1, 759230, Note_on_c, 0, 64, 0
1, 759240, Note_on_c, 0, 74, 80
1, 759240, Note_on_c, 0, 62, 80
1, 759350, Note_on_c, 0, 69, 0
1, 759350, Note_on_c, 0, 74, 0
1, 759350, Note_on_c, 0, 62, 0
1, 759350, Note_on_c, 0, 55, 0
1, 759350, Note_on_c, 0, 43, 0
1, 759360, Note_on_c, 0, 74, 80
1, 759360, Note_on_c, 0, 81, 80
1, 759360, Note_on_c, 0, 69, 80
1, 759360, Note_on_c, 0, 54, 80
1, 759360, Note_on_c, 0, 42, 80
1, 759590, Note_on_c, 0, 74, 0
1, 759590, Note_on_c, 0, 81, 0
1, 759590, Note_on_c, 0, 69, 0
1, 759590, Note_on_c, 0, 54, 0
1, 759590, Note_on_c, 0, 42, 0
1, 759600, Time_signature, 4, 2, 24, 8
1, 759600, Note_on_c, 0, 81, 81
1, 759600, Note_on_c, 0, 69, 81
1, 759600, Note_on_c, 0, 54, 81
1, 759600, Note_on_c, 0, 42, 81
1, 759830, Note_on_c, 0, 81, 0
1, 759830, Note_on_c, 0, 69, 0
1, 759830, Note_on_c, 0, 54, 0
1, 759830, Note_on_c, 0, 42, 0
1, 759840, Note_on_c, 0, 79, 82
1, 759840, Note_on_c, 0, 73, 82
1, 759840, Note_on_c, 0, 67, 82
1, 759840, Note_on_c, 0, 52, 82
1, 759840, Note_on_c, 0, 40, 82
1, 760070, Note_on_c, 0, 79, 0
1, 760070, Note_on_c, 0, 73, 0
1, 760070, Note_on_c, 0, 67, 0
1, 760070, Note_on_c, 0, 52, 0
1, 760070, Note_on_c, 0, 40, 0
1, 760080, Note_on_c, 0, 81, 83
1, 760080, Note_on_c, 0, 69, 83
1, 760080, Note_on_c, 0, 50, 83
1, 760080, Note_on_c, 0, 38, 83
1, 760310, Note_on_c, 0, 81, 0
1, 760310, Note_on_c, 0, 69, 0
1, 760310, Note_on_c, 0, 50, 0
1, 760310, Note_on_c, 0, 38, 0
1, 760320, Note_on_c, 0, 78, 83
1, 760320, Note_on_c, 0, 74, 83
1, 760320, Note_on_c, 0, 66, 83
1, 760320, Note_on_c, 0, 57, 83
1, 760320, Note_on_c, 0, 45, 83
1, 760550, Note_on_c, 0, 78, 0
1, 760550, Note_on_c, 0, 74, 0
1, 760550, Note_on_c, 0, 66, 0
1, 760550, Note_on_c, 0, 57, 0
1, 760550, Note_on_c, 0, 45, 0
1, 760560, Time_signature, 4, 2, 24, 8
1, 760560, Note_on_c, 0, 81, 84
1, 760560, Note_on_c, 0, 57, 84
1, 760560, Note_on_c, 0, 45, 84
1, 760790, Note_on_c, 0, 81, 0
1, 760790, Note_on_c, 0, 57, 0
1, 760790, Note_on_c, 0, 45, 0
1, 760800, Note_on_c, 0, 73, 85
1, 760800, Note_on_c, 0, 76, 85
1, 760800, Note_on_c, 0, 64, 85
1, 760800, Note_on_c, 0, 55, 85
1, 760800, Note_on_c, 0, 43, 85
1, 761030, Note_on_c, 0, 73, 0
1, 761030, Note_on_c, 0, 55, 0
1, 761030, Note_on_c, 0, 43, 0
1, 761040, Note_on_c, 0, 69, 86
1, 761040, Note_on_c, 0, 55, 86
1, 761040, Note_on_c, 0, 43, 86
1, 761150, Note_on_c, 0, 76, 0
1, 761150, Note_on_c, 0, 64, 0
1, 761160, Note_on_c, 0, 74, 86
1, 761160, Note_on_c, 0, 62, 86
1, 761270, Note_on_c, 0, 69, 0
1, 761270, Note_on_c, 0, 74, 0
1, 761270, Note_on_c, 0, 62, 0
1, 761270, Note_on_c, 0, 55, 0
1, 761270, Note_on_c, 0, 43, 0
1, 761280, Note_on_c, 0, 81, 86
1, 761280, Note_on_c, 0, 69, 86
1, 761280, Note_on_c, 0, 54, 86
1, 761280, Note_on_c, 0, 42, 86
1, 761510, Note_on_c, 0, 54, 0
1, 761510, Note_on_c, 0, 42, 0
1, 761520, Time_signature, 4, 2, 24, 8
1, 761520, Note_on_c, 0, 57, 87
1, 761520, Note_on_c, 0, 45, 87
1, 761750, Note_on_c, 0, 81, 0
1, 761750, Note_on_c, 0, 69, 0
1, 761750, Note_on_c, 0, 57, 0
1, 761750, Note_on_c, 0, 45, 0
1, 761760, Note_on_c, 0, 76, 88
1, 761760, Note_on_c, 0, 79, 88
1, 761760, Note_on_c, 0, 67, 88
1, 761760, Note_on_c, 0, 33, 88
1, 761870, Note_on_c, 0, 33, 0
1, 761880, Note_on_c, 0, 45, 88
1, 761990, Note_on_c, 0, 76, 0
1, 761990, Note_on_c, 0, 79, 0
1, 761990, Note_on_c, 0, 67, 0
1, 761990, Note_on_c, 0, 45, 0
1, 762000, Note_on_c, 0, 76, 88
1, 762000, Note_on_c, 0, 79, 88
1, 762000, Note_on_c, 0, 67, 88
1, 762000, Note_on_c, 0, 35, 88
1, 762110, Note_on_c, 0, 35, 0
1, 762120, Note_on_c, 0, 47, 89
1, 762230, Note_on_c, 0, 76, 0
1, 762230, Note_on_c, 0, 79, 0
1, 762230, Note_on_c, 0, 67, 0
1, 762230, Note_on_c, 0, 47, 0
1, 762240, Note_on_c, 0, 33, 89
1, 762350, Note_on_c, 0, 33, 0
1, 762360, Note_on_c, 0, 45, 90
1, 762470, Note_on_c, 0, 45, 0
1, 762480, Time_signature, 4, 2, 24, 8
1, 762480, Note_on_c, 0, 50, 100
1, 762480, Note_on_c, 0, 38, 100
1, 762590, Note_on_c, 0, 50, 0
1, 762590, Note_on_c, 0, 38, 0
1, 762600, Note_on_c, 0, 62, 100
1, 762710, Note_on_c, 0, 62, 0
1, 762720, Note_on_c, 0, 49, 100
1, 762720, Note_on_c, 0, 37, 100
1, 762830, Note_on_c, 0, 49, 0
1, 762830, Note_on_c, 0, 37, 0
1, 762840, Note_on_c, 0, 61, 100
1, 762950, Note_on_c, 0, 61, 0
1, 762960, Note_on_c, 0, 54, 100
1, 762960, Note_on_c, 0, 42, 100
1, 763070, Note_on_c, 0, 54, 0
1, 763070, Note_on_c, 0, 42, 0
1, 763080, Note_on_c, 0, 66, 100
1, 763190, Note_on_c, 0, 66, 0
1, 763200, Note_on_c, 0, 52, 100
1, 763200, Note_on_c, 0, 40, 100
1, 763310, Note_on_c, 0, 52, 0
1, 763310, Note_on_c, 0, 40, 0
1, 763320, Note_on_c, 0, 64, 100
1, 763430, Note_on_c, 0, 64, 0
1, 763440, Time_signature, 4, 2, 24, 8
1, 763440, Note_on_c, 0, 57, 100
1, 763440, Note_on_c, 0, 45, 100
1, 763550, Note_on_c, 0, 57, 0
1, 763550, Note_on_c, 0, 45, 0
1, 763560, Note_on_c, 0, 69, 100
1, 763670, Note_on_c, 0, 69, 0
1, 763680, Note_on_c, 0, 55, 100
1, 763680, Note_on_c, 0, 43, 100
1, 763790, Note_on_c, 0, 55, 0
1, 763790, Note_on_c, 0, 43, 0
1, 763800, Note_on_c, 0, 67, 100
1, 763910, Note_on_c, 0, 67, 0
1, 763920, Note_on_c, 0, 55, 100
1, 763920, Note_on_c, 0, 43, 100
1, 764030, Note_on_c, 0, 55, 0
1, 764030, Note_on_c, 0, 43, 0
1, 764040, Note_on_c, 0, 67, 100
1, 764150, Note_on_c, 0, 67, 0
1, 764160, Note_on_c, 0, 55, 100
1, 764160, Note_on_c, 0, 43, 100
1, 764270, Note_on_c, 0, 55, 0
1, 764270, Note_on_c, 0, 43, 0
1, 764280, Note_on_c, 0, 79, 100
1, 764280, Note_on_c, 0, 67, 100
1, 764390, Note_on_c, 0, 79, 0
1, 764390, Note_on_c, 0, 67, 0
1, 764400, Time_signature, 4, 2, 24, 8
1, 764400, Note_on_c, 0, 62, 100
1, 764400, Note_on_c, 0, 50, 100
1, 764510, Note_on_c, 0, 62, 0
1, 764510, Note_on_c, 0, 50, 0
1, 764520, Note_on_c, 0, 86, 100
1, 764520, Note_on_c, 0, 74, 100
1, 764630, Note_on_c, 0, 86, 0
1, 764630, Note_on_c, 0, 74, 0
1, 764640, Note_on_c, 0, 61, 100
1, 764640, Note_on_c, 0, 49, 100
1, 764750, Note_on_c, 0, 61, 0
1, 764750, Note_on_c, 0, 49, 0
1, 764760, Note_on_c, 0, 85, 100
1, 764760, Note_on_c, 0, 73, 100
1, 764870, Note_on_c, 0, 85, 0
1, 764870, Note_on_c, 0, 73, 0
1, 764880, Note_on_c, 0, 66, 100
1, 764880, Note_on_c, 0, 54, 100
1, 764990, Note_on_c, 0, 66, 0
1, 764990, Note_on_c, 0, 54, 0
1, 765000, Note_on_c, 0, 90, 100
1, 765000, Note_on_c, 0, 78, 100
1, 765110, Note_on_c, 0, 90, 0
1, 765110, Note_on_c, 0, 78, 0
1, 765120, Note_on_c, 0, 64, 100
1, 765120, Note_on_c, 0, 52, 100
1, 765230, Note_on_c, 0, 64, 0
1, 765230, Note_on_c, 0, 52, 0
1, 765240, Note_on_c, 0, 88, 100
1, 765240, Note_on_c, 0, 76, 100
1, 765350, Note_on_c, 0, 88, 0
1, 765350, Note_on_c, 0, 76, 0
1, 765360, Time_signature, 4, 2, 24, 8
1, 765360, Note_on_c, 0, 69, 100
1, 765360, Note_on_c, 0, 57, 100
1, 765470, Note_on_c, 0, 69, 0
1, 765470, Note_on_c, 0, 57, 0
1, 765480, Note_on_c, 0, 93, 100
1, 765480, Note_on_c, 0, 81, 100
1, 765590, Note_on_c, 0, 93, 0
1, 765590, Note_on_c, 0, 81, 0
1, 765600, Note_on_c, 0, 67, 100
1, 765600, Note_on_c, 0, 55, 100
1, 765710, Note_on_c, 0, 67, 0
1, 765710, Note_on_c, 0, 55, 0
1, 765720, Note_on_c, 0, 91, 100
1, 765720, Note_on_c, 0, 79, 100
1, 765830, Note_on_c, 0, 91, 0
1, 765830, Note_on_c, 0, 79, 0
1, 765840, Note_on_c, 0, 85, 50
1, 765840, Note_on_c, 0, 88, 50
1, 765840, Note_on_c, 0, 91, 50
1, 765840, Note_on_c, 0, 79, 50
1, 765840, Note_on_c, 0, 33, 50
1, 765950, Note_on_c, 0, 33, 0
1, 765960, Note_on_c, 0, 45, 50
1, 766070, Note_on_c, 0, 45, 0
1, 766080, Note_on_c, 0, 49, 50
1, 766190, Note_on_c, 0, 49, 0
1, 766200, Note_on_c, 0, 52, 50
1, 766310, Note_on_c, 0, 52, 0
1, 766320, Time_signature, 4, 2, 24, 8
1, 766320, Note_on_c, 0, 57, 50
1, 766430, Note_on_c, 0, 57, 0
1, 766440, Note_on_c, 0, 61, 50
1, 766550, Note_on_c, 0, 85, 0
1, 766550, Note_on_c, 0, 88, 0
1, 766550, Note_on_c, 0, 91, 0
1, 766550, Note_on_c, 0, 79, 0
1, 766550, Note_on_c, 0, 61, 0
1, 766560, Note_on_c, 0, 86, 120
1, 766560, Note_on_c, 0, 90, 120
1, 766560, Note_on_c, 0, 78, 120
1, 766560, Note_on_c, 0, 54, 120
1, 766560, Note_on_c, 0, 57, 120
1, 766560, Note_on_c, 0, 62, 120
1, 766560, Note_on_c, 0, 50, 120
1, 766670, Note_on_c, 0, 54, 0
1, 766670, Note_on_c, 0, 57, 0
1, 766670, Note_on_c, 0, 62, 0
1, 766670, Note_on_c, 0, 50, 0
1, 766680, Note_on_c, 0, 54, 120
1, 766680, Note_on_c, 0, 57, 120
1, 766680, Note_on_c, 0, 62, 120
1, 766680, Note_on_c, 0, 50, 120
1, 766790, Note_on_c, 0, 54, 0
1, 766790, Note_on_c, 0, 57, 0
1, 766790, Note_on_c, 0, 62, 0
1, 766790, Note_on_c, 0, 50, 0
1, 766800, Note_on_c, 0, 54, 120
1, 766800, Note_on_c, 0, 57, 120
1, 766800, Note_on_c, 0, 62, 120
1, 766800, Note_on_c, 0, 50, 120
1, 766848, Control_c, 0, 64, 127
1, 767030, Note_on_c, 0, 54, 0
1, 767030, Note_on_c, 0, 57, 0
1, 767030, Note_on_c, 0, 62, 0
1, 767030, Note_on_c, 0, 50, 0
1, 767040, Note_on_c, 0, 54, 120
1, 767040, Note_on_c, 0, 57, 120
1, 767040, Note_on_c, 0, 62, 120
1, 767040, Note_on_c, 0, 50, 120
1, 767150, Note_on_c, 0, 86, 0
1, 767150, Note_on_c, 0, 90, 0
1, 767150, Note_on_c, 0, 78, 0
1, 767160, Note_on_c, 0, 90, 120
1, 767160, Note_on_c, 0, 78, 120
1, 767270, Note_on_c, 0, 90, 0
1, 767270, Note_on_c, 0, 78, 0
1, 767270, Note_on_c, 0, 54, 0
1, 767270, Note_on_c, 0, 57, 0
1, 767270, Note_on_c, 0, 62, 0
1, 767270, Note_on_c, 0, 50, 0
1, 767280, Time_signature, 4, 2, 24, 8
1, 767280, Note_on_c, 0, 74, 120
1, 767280, Note_on_c, 0, 62, 120
1, 767280, Note_on_c, 0, 90, 120
1, 767280, Note_on_c, 0, 78, 120
1, 767510, Note_on_c, 0, 74, 0
1, 767510, Note_on_c, 0, 62, 0
1, 767510, Note_on_c, 0, 90, 0
1, 767510, Note_on_c, 0, 78, 0
1, 767520, Note_on_c, 0, 71, 120
1, 767520, Note_on_c, 0, 59, 120
1, 767520, Note_on_c, 0, 86, 120
1, 767520, Note_on_c, 0, 74, 120
1, 767621, Control_c, 0, 64, 0
1, 767750, Note_on_c, 0, 71, 0
1, 767750, Note_on_c, 0, 59, 0
1, 767750, Note_on_c, 0, 86, 0
1, 767750, Note_on_c, 0, 74, 0
1, 767760, Note_on_c, 0, 66, 120
1, 767760, Note_on_c, 0, 71, 120
1, 767760, Note_on_c, 0, 74, 120
1, 767760, Note_on_c, 0, 62, 120
1, 767760, Note_on_c, 0, 50, 120
1, 767760, Note_on_c, 0, 54, 120
1, 767760, Note_on_c, 0, 59, 120
1, 767760, Note_on_c, 0, 47, 120
1, 768022, Control_c, 0, 64, 127
1, 768110, Note_on_c, 0, 66, 0
1, 768110, Note_on_c, 0, 71, 0
1, 768110, Note_on_c, 0, 74, 0
1, 768110, Note_on_c, 0, 62, 0
1, 768110, Note_on_c, 0, 50, 0
1, 768110, Note_on_c, 0, 54, 0
1, 768110, Note_on_c, 0, 59, 0
1, 768110, Note_on_c, 0, 47, 0
1, 768120, Note_on_c, 0, 71, 120
1, 768120, Note_on_c, 0, 59, 120
1, 768120, Note_on_c, 0, 86, 120
1, 768120, Note_on_c, 0, 74, 120
1, 768202, Control_c, 0, 64, 0
1, 768230, Note_on_c, 0, 71, 0
1, 768230, Note_on_c, 0, 59, 0
1, 768230, Note_on_c, 0, 86, 0
1, 768230, Note_on_c, 0, 74, 0
1, 768240, Time_signature, 4, 2, 24, 8
1, 768240, Note_on_c, 0, 71, 120
1, 768240, Note_on_c, 0, 59, 120
1, 768240, Note_on_c, 0, 86, 120
1, 768240, Note_on_c, 0, 74, 120
1, 768470, Note_on_c, 0, 71, 0
1, 768470, Note_on_c, 0, 59, 0
1, 768470, Note_on_c, 0, 86, 0
1, 768470, Note_on_c, 0, 74, 0
1, 768480, Note_on_c, 0, 67, 120
1, 768480, Note_on_c, 0, 55, 120
1, 768480, Note_on_c, 0, 83, 120
1, 768480, Note_on_c, 0, 71, 120
1, 768655, Control_c, 0, 64, 127
1, 768710, Note_on_c, 0, 67, 0
1, 768710, Note_on_c, 0, 55, 0
1, 768710, Note_on_c, 0, 83, 0
1, 768710, Note_on_c, 0, 71, 0
1, 768720, Note_on_c, 0, 59, 120
1, 768720, Note_on_c, 0, 64, 120
1, 768720, Note_on_c, 0, 67, 120
1, 768720, Note_on_c, 0, 55, 120
1, 768720, Note_on_c, 0, 43, 120
1, 768720, Note_on_c, 0, 47, 120
1, 768720, Note_on_c, 0, 52, 120
1, 768720, Note_on_c, 0, 40, 120
1, 769070, Note_on_c, 0, 59, 0
1, 769070, Note_on_c, 0, 64, 0
1, 769070, Note_on_c, 0, 67, 0
1, 769070, Note_on_c, 0, 55, 0
1, 769070, Note_on_c, 0, 43, 0
1, 769070, Note_on_c, 0, 47, 0
1, 769070, Note_on_c, 0, 52, 0
1, 769070, Note_on_c, 0, 40, 0
1, 769080, Note_on_c, 0, 83, 120
1, 769080, Note_on_c, 0, 71, 120
1, 769080, Note_on_c, 0, 67, 120
1, 769080, Note_on_c, 0, 55, 120
1, 769190, Note_on_c, 0, 83, 0
1, 769190, Note_on_c, 0, 71, 0
1, 769190, Note_on_c, 0, 67, 0
1, 769190, Note_on_c, 0, 55, 0
1, 769200, Time_signature, 4, 2, 24, 8
1, 769200, Note_on_c, 0, 83, 120
1, 769200, Note_on_c, 0, 71, 120
1, 769200, Note_on_c, 0, 67, 120
1, 769200, Note_on_c, 0, 55, 120
1, 769389, Control_c, 0, 64, 0
1, 769430, Note_on_c, 0, 83, 0
1, 769430, Note_on_c, 0, 71, 0
1, 769430, Note_on_c, 0, 67, 0
1, 769430, Note_on_c, 0, 55, 0
1, 769440, Note_on_c, 0, 79, 120
1, 769440, Note_on_c, 0, 67, 120
1, 769440, Note_on_c, 0, 64, 120
1, 769440, Note_on_c, 0, 52, 120
1, 769670, Note_on_c, 0, 79, 0
1, 769670, Note_on_c, 0, 67, 0
1, 769670, Note_on_c, 0, 64, 0
1, 769670, Note_on_c, 0, 52, 0
1, 769680, Note_on_c, 0, 59, 120
1, 769680, Note_on_c, 0, 64, 120
1, 769680, Note_on_c, 0, 67, 120
1, 769680, Note_on_c, 0, 55, 120
1, 769680, Note_on_c, 0, 43, 120
1, 769680, Note_on_c, 0, 47, 120
1, 769680, Note_on_c, 0, 52, 120
1, 769680, Note_on_c, 0, 40, 120
1, 769809, Control_c, 0, 64, 127
1, 770030, Note_on_c, 0, 59, 0
1, 770030, Note_on_c, 0, 64, 0
1, 770030, Note_on_c, 0, 67, 0
1, 770030, Note_on_c, 0, 55, 0
1, 770030, Note_on_c, 0, 43, 0
1, 770030, Note_on_c, 0, 47, 0
1, 770030, Note_on_c, 0, 52, 0
1, 770030, Note_on_c, 0, 40, 0
1, 770040, Note_on_c, 0, 59, 120
1, 770040, Note_on_c, 0, 64, 120
1, 770040, Note_on_c, 0, 67, 120
1, 770040, Note_on_c, 0, 55, 120
1, 770040, Note_on_c, 0, 52, 120
1, 770040, Note_on_c, 0, 40, 120
1, 770150, Note_on_c, 0, 59, 0
1, 770150, Note_on_c, 0, 64, 0
1, 770150, Note_on_c, 0, 67, 0
1, 770150, Note_on_c, 0, 55, 0
1, 770150, Note_on_c, 0, 52, 0
1, 770150, Note_on_c, 0, 40, 0
1, 770160, Time_signature, 4, 2, 24, 8
1, 770160, Tempo, 909090
1, 770160, Note_on_c, 0, 61, 120
1, 770160, Note_on_c, 0, 64, 120
1, 770160, Note_on_c, 0, 67, 120
1, 770160, Note_on_c, 0, 55, 120
1, 770160, Note_on_c, 0, 45, 120
1, 770160, Note_on_c, 0, 33, 120
1, 770232, Control_c, 0, 64, 0
1, 770390, Note_on_c, 0, 61, 0
1, 770390, Note_on_c, 0, 64, 0
1, 770390, Note_on_c, 0, 67, 0
1, 770390, Note_on_c, 0, 55, 0
1, 770390, Note_on_c, 0, 45, 0
1, 770390, Note_on_c, 0, 33, 0
1, 770400, Note_on_c, 0, 64, 50
1, 770400, Note_on_c, 0, 67, 50
1, 770400, Note_on_c, 0, 57, 50
1, 770537, Control_c, 0, 64, 127
1, 770630, Note_on_c, 0, 64, 0
1, 770630, Note_on_c, 0, 67, 0
1, 770630, Note_on_c, 0, 57, 0
1, 770640, Note_on_c, 0, 64, 50
1, 770640, Note_on_c, 0, 67, 50
1, 770640, Note_on_c, 0, 57, 50
1, 770760, Note_on_c, 0, 88, 50
1, 770760, Note_on_c, 0, 76, 50
1, 770870, Note_on_c, 0, 64, 0
1, 770870, Note_on_c, 0, 67, 0
1, 770870, Note_on_c, 0, 57, 0
1, 770880, Note_on_c, 0, 64, 50
1, 770880, Note_on_c, 0, 67, 50
1, 770880, Note_on_c, 0, 57, 50
1, 770990, Note_on_c, 0, 88, 0
1, 770990, Note_on_c, 0, 76, 0
1, 771000, Note_on_c, 0, 85, 50
1, 771000, Note_on_c, 0, 73, 50
1, 771050, Note_on_c, 0, 85, 0
1, 771050, Note_on_c, 0, 73, 0
1, 771060, Note_on_c, 0, 79, 50
1, 771110, Note_on_c, 0, 64, 0
1, 771110, Note_on_c, 0, 67, 0
1, 771110, Note_on_c, 0, 57, 0
1, 771110, Note_on_c, 0, 79, 0
1, 771120, Time_signature, 4, 2, 24, 8
1, 771120, Note_on_c, 0, 79, 50
1, 771120, Note_on_c, 0, 76, 50
1, 771120, Note_on_c, 0, 67, 50
1, 771120, Note_on_c, 0, 64, 50
1, 771120, Note_on_c, 0, 59, 50
1, 771230, Note_on_c, 0, 79, 0
1, 771230, Note_on_c, 0, 76, 0
1, 771230, Note_on_c, 0, 67, 0
1, 771230, Note_on_c, 0, 64, 0
1, 771240, Note_on_c, 0, 78, 50
1, 771240, Note_on_c, 0, 74, 50
1, 771240, Note_on_c, 0, 66, 50
1, 771240, Note_on_c, 0, 62, 50
1, 771257, Control_c, 0, 64, 0
1, 771310, Control_c, 0, 64, 127
1, 771350, Note_on_c, 0, 78, 0
1, 771350, Note_on_c, 0, 74, 0
1, 771350, Note_on_c, 0, 66, 0
1, 771350, Note_on_c, 0, 62, 0
1, 771350, Note_on_c, 0, 59, 0
1, 771360, Note_on_c, 0, 78, 50
1, 771360, Note_on_c, 0, 74, 50
1, 771360, Note_on_c, 0, 66, 50
1, 771360, Note_on_c, 0, 62, 50
1, 771360, Note_on_c, 0, 59, 50
1, 771458, Control_c, 0, 64, 0
1, 771487, Control_c, 0, 64, 127
1, 771590, Note_on_c, 0, 78, 0
1, 771590, Note_on_c, 0, 74, 0
1, 771590, Note_on_c, 0, 66, 0
1, 771590, Note_on_c, 0, 62, 0
1, 771590, Note_on_c, 0, 59, 0
1, 771600, Note_on_c, 0, 66, 50
1, 771600, Note_on_c, 0, 62, 50
1, 771600, Note_on_c, 0, 59, 50
1, 771720, Note_on_c, 0, 86, 50
1, 771720, Note_on_c, 0, 74, 50
1, 771780, Note_on_c, 0, 47, 50
1, 771830, Note_on_c, 0, 66, 0
1, 771830, Note_on_c, 0, 62, 0
1, 771830, Note_on_c, 0, 59, 0
1, 771830, Note_on_c, 0, 47, 0
1, 771840, Note_on_c, 0, 66, 50
1, 771840, Note_on_c, 0, 62, 50
1, 771840, Note_on_c, 0, 59, 50
1, 771856, Control_c, 0, 64, 0
1, 771885, Control_c, 0, 64, 127
1, 771890, Note_on_c, 0, 86, 0
1, 771890, Note_on_c, 0, 74, 0
1, 771900, Note_on_c, 0, 85, 50
1, 771900, Note_on_c, 0, 73, 50
1, 771950, Note_on_c, 0, 85, 0
1, 771950, Note_on_c, 0, 73, 0
1, 771960, Note_on_c, 0, 86, 50
1, 771960, Note_on_c, 0, 74, 50
1, 772010, Note_on_c, 0, 86, 0
1, 772010, Note_on_c, 0, 74, 0
1, 772020, Note_on_c, 0, 78, 50
1, 772070, Note_on_c, 0, 66, 0
1, 772070, Note_on_c, 0, 62, 0
1, 772070, Note_on_c, 0, 59, 0
1, 772070, Note_on_c, 0, 78, 0
1, 772080, Time_signature, 4, 2, 24, 8
1, 772080, Note_on_c, 0, 76, 50
1, 772080, Note_on_c, 0, 71, 50
1, 772080, Note_on_c, 0, 67, 50
1, 772080, Note_on_c, 0, 55, 50
1, 772080, Note_on_c, 0, 43, 50
1, 772296, Control_c, 0, 64, 0
1, 772310, Note_on_c, 0, 55, 0
1, 772310, Note_on_c, 0, 43, 0
1, 772320, Note_on_c, 0, 59, 50
1, 772320, Note_on_c, 0, 64, 50
1, 772320, Note_on_c, 0, 55, 50
1, 772321, Control_c, 0, 64, 127
1, 772430, Note_on_c, 0, 76, 0
1, 772440, Note_on_c, 0, 78, 50
1, 772470, Note_on_c, 0, 78, 0
1, 772480, Note_on_c, 0, 76, 50
1, 772510, Note_on_c, 0, 76, 0
1, 772520, Note_on_c, 0, 75, 50
1, 772550, Note_on_c, 0, 75, 0
1, 772550, Note_on_c, 0, 59, 0
1, 772550, Note_on_c, 0, 64, 0
1, 772550, Note_on_c, 0, 55, 0
1, 772560, Note_on_c, 0, 76, 50
1, 772564, Control_c, 0, 64, 0
1, 772670, Note_on_c, 0, 76, 0
1, 772670, Note_on_c, 0, 71, 0
1, 772670, Note_on_c, 0, 67, 0
1, 772680, Note_on_c, 0, 78, 50
1, 772680, Note_on_c, 0, 69, 50
1, 772790, Note_on_c, 0, 78, 0
1, 772790, Note_on_c, 0, 69, 0
1, 772800, Note_on_c, 0, 79, 50
1, 772800, Note_on_c, 0, 71, 50
1, 772800, Note_on_c, 0, 59, 50
1, 772800, Note_on_c, 0, 64, 50
1, 772800, Note_on_c, 0, 55, 50
1, 772910, Note_on_c, 0, 79, 0
1, 772910, Note_on_c, 0, 71, 0
1, 772920, Note_on_c, 0, 76, 50
1, 772920, Note_on_c, 0, 67, 50
1, 773030, Note_on_c, 0, 76, 0
1, 773030, Note_on_c, 0, 67, 0
1, 773030, Note_on_c, 0, 59, 0
1, 773030, Note_on_c, 0, 64, 0
1, 773030, Note_on_c, 0, 55, 0
1, 773040, Time_signature, 4, 2, 24, 8
1, 773040, Note_on_c, 0, 76, 50
1, 773040, Note_on_c, 0, 67, 50
1, 773040, Note_on_c, 0, 57, 50
1, 773040, Note_on_c, 0, 45, 50
1, 773150, Note_on_c, 0, 76, 0
1, 773150, Note_on_c, 0, 67, 0
1, 773160, Note_on_c, 0, 74, 50
1, 773160, Note_on_c, 0, 66, 50
1, 773270, Note_on_c, 0, 74, 0
1, 773270, Note_on_c, 0, 66, 0
1, 773270, Note_on_c, 0, 57, 0
1, 773270, Note_on_c, 0, 45, 0
1, 773280, Note_on_c, 0, 74, 50
1, 773280, Note_on_c, 0, 66, 50
1, 773280, Note_on_c, 0, 57, 50
1, 773280, Note_on_c, 0, 57, 50
1, 773390, Note_on_c, 0, 57, 0
1, 773400, Note_on_c, 0, 62, 50
1, 773510, Note_on_c, 0, 74, 0
1, 773510, Note_on_c, 0, 66, 0
1, 773510, Note_on_c, 0, 57, 0
1, 773510, Note_on_c, 0, 62, 0
1, 773520, Note_on_c, 0, 74, 50
1, 773520, Note_on_c, 0, 69, 50
1, 773520, Note_on_c, 0, 66, 50
1, 773520, Note_on_c, 0, 62, 50
1, 773520, Note_on_c, 0, 57, 50
1, 773750, Note_on_c, 0, 74, 0
1, 773750, Note_on_c, 0, 69, 0
1, 773750, Note_on_c, 0, 66, 0
1, 773750, Note_on_c, 0, 62, 0
1, 773750, Note_on_c, 0, 57, 0
1, 773760, Note_on_c, 0, 76, 50
1, 773760, Note_on_c, 0, 69, 50
1, 773760, Note_on_c, 0, 64, 50
1, 773760, Note_on_c, 0, 61, 50
1, 773760, Note_on_c, 0, 57, 50
1, 773990, Note_on_c, 0, 76, 0
1, 773990, Note_on_c, 0, 69, 0
1, 773990, Note_on_c, 0, 64, 0
1, 773990, Note_on_c, 0, 61, 0
1, 773990, Note_on_c, 0, 57, 0
1, 774000, Time_signature, 4, 2, 24, 8
1, 774000, Tempo, 250000
1, 774000, Note_on_c, 0, 76, 50
1, 774000, Note_on_c, 0, 69, 50
1, 774000, Note_on_c, 0, 55, 50
1, 774230, Note_on_c, 0, 76, 0
1, 774230, Note_on_c, 0, 69, 0
1, 774230, Note_on_c, 0, 55, 0
1, 774240, Note_on_c, 0, 76, 50
1, 774240, Note_on_c, 0, 69, 50
1, 774240, Note_on_c, 0, 64, 50
1, 774240, Note_on_c, 0, 61, 50
1, 774470, Note_on_c, 0, 76, 0
1, 774470, Note_on_c, 0, 69, 0
1, 774470, Note_on_c, 0, 64, 0
1, 774470, Note_on_c, 0, 61, 0
1, 774480, Note_on_c, 0, 74, 50
1, 774480, Note_on_c, 0, 69, 50
1, 774480, Note_on_c, 0, 54, 50
1, 774710, Note_on_c, 0, 74, 0
1, 774710, Note_on_c, 0, 69, 0
1, 774710, Note_on_c, 0, 54, 0
1, 774720, Note_on_c, 0, 76, 50
1, 774720, Note_on_c, 0, 62, 50
1, 774720, Note_on_c, 0, 57, 50
1, 774830, Note_on_c, 0, 76, 0
1, 774840, Note_on_c, 0, 78, 50
1, 774950, Note_on_c, 0, 78, 0
1, 774950, Note_on_c, 0, 62, 0
1, 774950, Note_on_c, 0, 57, 0
1, 774960, Time_signature, 4, 2, 24, 8
1, 774960, Note_on_c, 0, 73, 50
1, 774960, Note_on_c, 0, 79, 50
1, 774960, Note_on_c, 0, 69, 50
1, 774960, Note_on_c, 0, 52, 50
1, 775190, Note_on_c, 0, 73, 0
1, 775190, Note_on_c, 0, 79, 0
1, 775190, Note_on_c, 0, 69, 0
1, 775190, Note_on_c, 0, 52, 0
1, 775200, Note_on_c, 0, 76, 50
1, 775200, Note_on_c, 0, 79, 50
1, 775200, Note_on_c, 0, 69, 50
1, 775200, Note_on_c, 0, 61, 50
1, 775200, Note_on_c, 0, 57, 50
1, 775430, Note_on_c, 0, 76, 0
1, 775430, Note_on_c, 0, 79, 0
1, 775430, Note_on_c, 0, 69, 0
1, 775430, Note_on_c, 0, 61, 0
1, 775430, Note_on_c, 0, 57, 0
1, 775440, Note_on_c, 0, 78, 50
1, 775440, Note_on_c, 0, 69, 50
1, 775440, Note_on_c, 0, 50, 50
1, 775670, Note_on_c, 0, 78, 0
1, 775670, Note_on_c, 0, 69, 0
1, 775670, Note_on_c, 0, 50, 0
1, 775680, Note_on_c, 0, 78, 50
1, 775680, Note_on_c, 0, 74, 50
1, 775680, Note_on_c, 0, 62, 50
1, 775680, Note_on_c, 0, 57, 50
1, 775910, Note_on_c, 0, 78, 0
1, 775910, Note_on_c, 0, 74, 0
1, 775910, Note_on_c, 0, 62, 0
1, 775910, Note_on_c, 0, 57, 0
1, 775920, Time_signature, 4, 2, 24, 8
1, 775920, Note_on_c, 0, 78, 50
1, 775920, Note_on_c, 0, 69, 50
1, 775920, Note_on_c, 0, 57, 50
1, 775920, Note_on_c, 0, 45, 50
1, 776150, Note_on_c, 0, 78, 0
1, 776150, Note_on_c, 0, 69, 0
1, 776150, Note_on_c, 0, 57, 0
1, 776150, Note_on_c, 0, 45, 0
1, 776160, Note_on_c, 0, 76, 50
1, 776160, Note_on_c, 0, 67, 50
1, 776160, Note_on_c, 0, 61, 50
1, 776160, Note_on_c, 0, 49, 50
1, 776390, Note_on_c, 0, 76, 0
1, 776390, Note_on_c, 0, 67, 0
1, 776390, Note_on_c, 0, 61, 0
1, 776390, Note_on_c, 0, 49, 0
1, 776400, Note_on_c, 0, 74, 50
1, 776400, Note_on_c, 0, 66, 50
1, 776400, Note_on_c, 0, 62, 50
1, 776400, Note_on_c, 0, 50, 50
1, 776630, Note_on_c, 0, 74, 0
1, 776630, Note_on_c, 0, 66, 0
1, 776630, Note_on_c, 0, 62, 0
1, 776630, Note_on_c, 0, 50, 0
1, 776640, Note_on_c, 0, 81, 50
1, 776640, Note_on_c, 0, 74, 50
1, 776640, Note_on_c, 0, 66, 50
1, 776640, Note_on_c, 0, 54, 50
1, 776870, Note_on_c, 0, 81, 0
1, 776870, Note_on_c, 0, 74, 0
1, 776870, Note_on_c, 0, 66, 0
1, 776870, Note_on_c, 0, 54, 0
1, 776880, Time_signature, 4, 2, 24, 8
1, 776880, Note_on_c, 0, 81, 50
1, 776880, Note_on_c, 0, 78, 50
1, 776880, Note_on_c, 0, 69, 50
1, 776880, Note_on_c, 0, 57, 50
1, 777110, Note_on_c, 0, 81, 0
1, 777110, Note_on_c, 0, 78, 0
1, 777110, Note_on_c, 0, 69, 0
1, 777110, Note_on_c, 0, 57, 0
1, 777120, Note_on_c, 0, 79, 50
1, 777120, Note_on_c, 0, 76, 50
1, 777120, Note_on_c, 0, 61, 50
1, 777120, Note_on_c, 0, 49, 50
1, 777350, Note_on_c, 0, 79, 0
1, 777350, Note_on_c, 0, 76, 0
1, 777350, Note_on_c, 0, 61, 0
1, 777350, Note_on_c, 0, 49, 0
1, 777360, Note_on_c, 0, 79, 50
1, 777360, Note_on_c, 0, 76, 50
1, 777360, Note_on_c, 0, 62, 50
1, 777360, Note_on_c, 0, 50, 50
1, 777590, Note_on_c, 0, 79, 0
1, 777590, Note_on_c, 0, 76, 0
1, 777590, Note_on_c, 0, 62, 0
1, 777590, Note_on_c, 0, 50, 0
1, 777600, Note_on_c, 0, 78, 50
1, 777600, Note_on_c, 0, 74, 50
1, 777600, Note_on_c, 0, 66, 50
1, 777600, Note_on_c, 0, 54, 50
1, 777830, Note_on_c, 0, 78, 0
1, 777830, Note_on_c, 0, 74, 0
1, 777830, Note_on_c, 0, 66, 0
1, 777830, Note_on_c, 0, 54, 0
1, 777840, Time_signature, 4, 2, 24, 8
1, 777840, Note_on_c, 0, 81, 47
1, 777840, Note_on_c, 0, 69, 47
1, 777840, Note_on_c, 0, 61, 47
1, 777840, Note_on_c, 0, 64, 47
1, 777840, Note_on_c, 0, 55, 47
1, 778070, Note_on_c, 0, 81, 0
1, 778070, Note_on_c, 0, 69, 0
1, 778070, Note_on_c, 0, 61, 0
1, 778070, Note_on_c, 0, 64, 0
1, 778070, Note_on_c, 0, 55, 0
1, 778080, Note_on_c, 0, 85, 49
1, 778080, Note_on_c, 0, 73, 49
1, 778080, Note_on_c, 0, 61, 49
1, 778080, Note_on_c, 0, 64, 49
1, 778080, Note_on_c, 0, 55, 49
1, 778310, Note_on_c, 0, 85, 0
1, 778310, Note_on_c, 0, 73, 0
1, 778310, Note_on_c, 0, 61, 0
1, 778310, Note_on_c, 0, 64, 0
1, 778310, Note_on_c, 0, 55, 0
1, 778320, Note_on_c, 0, 86, 52
1, 778320, Note_on_c, 0, 74, 52
1, 778320, Note_on_c, 0, 57, 52
1, 778320, Note_on_c, 0, 62, 52
1, 778320, Note_on_c, 0, 54, 52
1, 778550, Note_on_c, 0, 86, 0
1, 778550, Note_on_c, 0, 74, 0
1, 778550, Note_on_c, 0, 57, 0
1, 778550, Note_on_c, 0, 62, 0
1, 778550, Note_on_c, 0, 54, 0
1, 778560, Note_on_c, 0, 90, 55
1, 778560, Note_on_c, 0, 78, 55
1, 778560, Note_on_c, 0, 57, 55
1, 778560, Note_on_c, 0, 62, 55
1, 778560, Note_on_c, 0, 54, 55
1, 778790, Note_on_c, 0, 90, 0
1, 778790, Note_on_c, 0, 78, 0
1, 778790, Note_on_c, 0, 57, 0
1, 778790, Note_on_c, 0, 62, 0
1, 778790, Note_on_c, 0, 54, 0
1, 778800, Time_signature, 4, 2, 24, 8
1, 778800, Note_on_c, 0, 93, 58
1, 778800, Note_on_c, 0, 81, 58
1, 778800, Note_on_c, 0, 64, 58
1, 778800, Note_on_c, 0, 67, 58
1, 778800, Note_on_c, 0, 57, 58
1, 779030, Note_on_c, 0, 93, 0
1, 779030, Note_on_c, 0, 81, 0
1, 779030, Note_on_c, 0, 64, 0
1, 779030, Note_on_c, 0, 67, 0
1, 779030, Note_on_c, 0, 57, 0
1, 779040, Note_on_c, 0, 85, 61
1, 779040, Note_on_c, 0, 73, 61
1, 779040, Note_on_c, 0, 64, 61
1, 779040, Note_on_c, 0, 67, 61
1, 779040, Note_on_c, 0, 57, 61
1, 779270, Note_on_c, 0, 85, 0
1, 779270, Note_on_c, 0, 73, 0
1, 779270, Note_on_c, 0, 64, 0
1, 779270, Note_on_c, 0, 67, 0
1, 779270, Note_on_c, 0, 57, 0
1, 779280, Note_on_c, 0, 86, 64
1, 779280, Note_on_c, 0, 74, 64
1, 779280, Note_on_c, 0, 62, 64
1, 779280, Note_on_c, 0, 66, 64
1, 779280, Note_on_c, 0, 57, 64
1, 779510, Note_on_c, 0, 86, 0
1, 779510, Note_on_c, 0, 74, 0
1, 779510, Note_on_c, 0, 62, 0
1, 779510, Note_on_c, 0, 66, 0
1, 779510, Note_on_c, 0, 57, 0
1, 779520, Note_on_c, 0, 90, 67
1, 779520, Note_on_c, 0, 78, 67
1, 779520, Note_on_c, 0, 62, 67
1, 779520, Note_on_c, 0, 66, 67
1, 779520, Note_on_c, 0, 57, 67
1, 779750, Note_on_c, 0, 90, 0
1, 779750, Note_on_c, 0, 78, 0
1, 779750, Note_on_c, 0, 62, 0
1, 779750, Note_on_c, 0, 66, 0
1, 779750, Note_on_c, 0, 57, 0
1, 779760, Time_signature, 4, 2, 24, 8
1, 779760, Note_on_c, 0, 90, 69
1, 779760, Note_on_c, 0, 81, 69
1, 779760, Note_on_c, 0, 78, 69
1, 779760, Note_on_c, 0, 57, 69
1, 779760, Note_on_c, 0, 45, 69
1, 779990, Note_on_c, 0, 90, 0
1, 779990, Note_on_c, 0, 81, 0
1, 779990, Note_on_c, 0, 78, 0
1, 779990, Note_on_c, 0, 57, 0
1, 779990, Note_on_c, 0, 45, 0
1, 780000, Note_on_c, 0, 88, 72
1, 780000, Note_on_c, 0, 79, 72
1, 780000, Note_on_c, 0, 76, 72
1, 780000, Note_on_c, 0, 61, 72
1, 780000, Note_on_c, 0, 49, 72
1, 780230, Note_on_c, 0, 88, 0
1, 780230, Note_on_c, 0, 79, 0
1, 780230, Note_on_c, 0, 76, 0
1, 780230, Note_on_c, 0, 61, 0
1, 780230, Note_on_c, 0, 49, 0
1, 780240, Note_on_c, 0, 86, 75
1, 780240, Note_on_c, 0, 78, 75
1, 780240, Note_on_c, 0, 74, 75
1, 780240, Note_on_c, 0, 62, 75
1, 780240, Note_on_c, 0, 50, 75
1, 780470, Note_on_c, 0, 86, 0
1, 780470, Note_on_c, 0, 78, 0
1, 780470, Note_on_c, 0, 74, 0
1, 780470, Note_on_c, 0, 62, 0
1, 780470, Note_on_c, 0, 50, 0
1, 780480, Note_on_c, 0, 93, 78
1, 780480, Note_on_c, 0, 81, 78
1, 780480, Note_on_c, 0, 66, 78
1, 780480, Note_on_c, 0, 54, 78
1, 780710, Note_on_c, 0, 93, 0
1, 780710, Note_on_c, 0, 81, 0
1, 780710, Note_on_c, 0, 66, 0
1, 780710, Note_on_c, 0, 54, 0
1, 780720, Time_signature, 4, 2, 24, 8
1, 780720, Note_on_c, 0, 93, 81
1, 780720, Note_on_c, 0, 90, 81
1, 780720, Note_on_c, 0, 81, 81
1, 780720, Note_on_c, 0, 69, 81
1, 780720, Note_on_c, 0, 57, 81
1, 780950, Note_on_c, 0, 93, 0
1, 780950, Note_on_c, 0, 90, 0
1, 780950, Note_on_c, 0, 81, 0
1, 780950, Note_on_c, 0, 69, 0
1, 780950, Note_on_c, 0, 57, 0
1, 780960, Note_on_c, 0, 91, 84
1, 780960, Note_on_c, 0, 88, 84
1, 780960, Note_on_c, 0, 79, 84
1, 780960, Note_on_c, 0, 61, 84
1, 780960, Note_on_c, 0, 49, 84
1, 781190, Note_on_c, 0, 91, 0
1, 781190, Note_on_c, 0, 88, 0
1, 781190, Note_on_c, 0, 79, 0
1, 781190, Note_on_c, 0, 61, 0
1, 781190, Note_on_c, 0, 49, 0
1, 781200, Note_on_c, 0, 91, 87
1, 781200, Note_on_c, 0, 88, 87
1, 781200, Note_on_c, 0, 79, 87
1, 781200, Note_on_c, 0, 62, 87
1, 781200, Note_on_c, 0, 50, 87
1, 781430, Note_on_c, 0, 91, 0
1, 781430, Note_on_c, 0, 88, 0
1, 781430, Note_on_c, 0, 79, 0
1, 781430, Note_on_c, 0, 62, 0
1, 781430, Note_on_c, 0, 50, 0
1, 781440, Note_on_c, 0, 90, 90
1, 781440, Note_on_c, 0, 86, 90
1, 781440, Note_on_c, 0, 78, 90
1, 781440, Note_on_c, 0, 66, 90
1, 781440, Note_on_c, 0, 54, 90
1, 781670, Note_on_c, 0, 90, 0
1, 781670, Note_on_c, 0, 86, 0
1, 781670, Note_on_c, 0, 78, 0
1, 781670, Note_on_c, 0, 66, 0
1, 781670, Note_on_c, 0, 54, 0
1, 781680, Time_signature, 4, 2, 24, 8
1, 781680, Note_on_c, 0, 85, 90
1, 781680, Note_on_c, 0, 88, 90
1, 781680, Note_on_c, 0, 76, 90
1, 781680, Note_on_c, 0, 69, 90
1, 781680, Note_on_c, 0, 57, 90
1, 781910, Note_on_c, 0, 85, 0
1, 781910, Note_on_c, 0, 88, 0
1, 781910, Note_on_c, 0, 76, 0
1, 781910, Note_on_c, 0, 69, 0
1, 781910, Note_on_c, 0, 57, 0
1, 781920, Note_on_c, 0, 45, 90
1, 781920, Note_on_c, 0, 33, 90
1, 782030, Note_on_c, 0, 45, 0
1, 782030, Note_on_c, 0, 33, 0
1, 782040, Note_on_c, 0, 69, 90
1, 782040, Note_on_c, 0, 57, 90
1, 782150, Note_on_c, 0, 69, 0
1, 782150, Note_on_c, 0, 57, 0
1, 782160, Note_on_c, 0, 47, 90
1, 782160, Note_on_c, 0, 35, 90
1, 782270, Note_on_c, 0, 47, 0
1, 782270, Note_on_c, 0, 35, 0
1, 782280, Note_on_c, 0, 71, 90
1, 782280, Note_on_c, 0, 59, 90
1, 782390, Note_on_c, 0, 71, 0
1, 782390, Note_on_c, 0, 59, 0
1, 782400, Note_on_c, 0, 45, 90
1, 782400, Note_on_c, 0, 33, 90
1, 782510, Note_on_c, 0, 45, 0
1, 782510, Note_on_c, 0, 33, 0
1, 782520, Note_on_c, 0, 69, 90
1, 782520, Note_on_c, 0, 57, 90
1, 782630, Note_on_c, 0, 69, 0
1, 782630, Note_on_c, 0, 57, 0
1, 782640, Time_signature, 4, 2, 24, 8
1, 782640, Note_on_c, 0, 50, 90
1, 782640, Note_on_c, 0, 38, 90
1, 782750, Note_on_c, 0, 50, 0
1, 782750, Note_on_c, 0, 38, 0
1, 782760, Note_on_c, 0, 74, 90
1, 782760, Note_on_c, 0, 62, 90
1, 782870, Note_on_c, 0, 74, 0
1, 782870, Note_on_c, 0, 62, 0
1, 782880, Note_on_c, 0, 49, 90
1, 782880, Note_on_c, 0, 37, 90
1, 782990, Note_on_c, 0, 49, 0
1, 782990, Note_on_c, 0, 37, 0
1, 783000, Note_on_c, 0, 73, 90
1, 783000, Note_on_c, 0, 61, 90
1, 783110, Note_on_c, 0, 73, 0
1, 783110, Note_on_c, 0, 61, 0
1, 783120, Note_on_c, 0, 54, 90
1, 783120, Note_on_c, 0, 42, 90
1, 783230, Note_on_c, 0, 54, 0
1, 783230, Note_on_c, 0, 42, 0
1, 783240, Note_on_c, 0, 78, 90
1, 783240, Note_on_c, 0, 66, 90
1, 783350, Note_on_c, 0, 78, 0
1, 783350, Note_on_c, 0, 66, 0
1, 783360, Note_on_c, 0, 52, 90
1, 783360, Note_on_c, 0, 40, 90
1, 783470, Note_on_c, 0, 52, 0
1, 783470, Note_on_c, 0, 40, 0
1, 783480, Note_on_c, 0, 76, 90
1, 783480, Note_on_c, 0, 64, 90
1, 783590, Note_on_c, 0, 76, 0
1, 783590, Note_on_c, 0, 64, 0
1, 783600, Time_signature, 4, 2, 24, 8
1, 783600, Note_on_c, 0, 57, 90
1, 783600, Note_on_c, 0, 45, 90
1, 783710, Note_on_c, 0, 57, 0
1, 783710, Note_on_c, 0, 45, 0
1, 783720, Note_on_c, 0, 81, 90
1, 783720, Note_on_c, 0, 69, 90
1, 783830, Note_on_c, 0, 81, 0
1, 783830, Note_on_c, 0, 69, 0
1, 783840, Note_on_c, 0, 55, 90
1, 783840, Note_on_c, 0, 43, 90
1, 783950, Note_on_c, 0, 55, 0
1, 783950, Note_on_c, 0, 43, 0
1, 783960, Note_on_c, 0, 79, 90
1, 783960, Note_on_c, 0, 67, 90
1, 784070, Note_on_c, 0, 79, 0
1, 784070, Note_on_c, 0, 67, 0
1, 784080, Note_on_c, 0, 55, 90
1, 784080, Note_on_c, 0, 43, 90
1, 784190, Note_on_c, 0, 55, 0
1, 784190, Note_on_c, 0, 43, 0
1, 784200, Note_on_c, 0, 79, 90
1, 784200, Note_on_c, 0, 67, 90
1, 784310, Note_on_c, 0, 79, 0
1, 784310, Note_on_c, 0, 67, 0
1, 784320, Note_on_c, 0, 55, 90
1, 784320, Note_on_c, 0, 43, 90
1, 784430, Note_on_c, 0, 55, 0
1, 784430, Note_on_c, 0, 43, 0
1, 784440, Note_on_c, 0, 79, 90
1, 784440, Note_on_c, 0, 67, 90
1, 784550, Note_on_c, 0, 79, 0
1, 784550, Note_on_c, 0, 67, 0
1, 784560, Time_signature, 4, 2, 24, 8
1, 784560, Note_on_c, 0, 62, 90
1, 784560, Note_on_c, 0, 50, 90
1, 784670, Note_on_c, 0, 62, 0
1, 784670, Note_on_c, 0, 50, 0
1, 784680, Note_on_c, 0, 86, 90
1, 784680, Note_on_c, 0, 74, 90
1, 784790, Note_on_c, 0, 86, 0
1, 784790, Note_on_c, 0, 74, 0
1, 784800, Note_on_c, 0, 61, 90
1, 784800, Note_on_c, 0, 49, 90
1, 784910, Note_on_c, 0, 61, 0
1, 784910, Note_on_c, 0, 49, 0
1, 784920, Note_on_c, 0, 85, 90
1, 784920, Note_on_c, 0, 73, 90
1, 785030, Note_on_c, 0, 85, 0
1, 785030, Note_on_c, 0, 73, 0
1, 785040, Note_on_c, 0, 66, 90
1, 785040, Note_on_c, 0, 54, 90
1, 785150, Note_on_c, 0, 66, 0
1, 785150, Note_on_c, 0, 54, 0
1, 785160, Note_on_c, 0, 90, 90
1, 785160, Note_on_c, 0, 78, 90
1, 785270, Note_on_c, 0, 90, 0
1, 785270, Note_on_c, 0, 78, 0
1, 785280, Note_on_c, 0, 64, 90
1, 785280, Note_on_c, 0, 52, 90
1, 785390, Note_on_c, 0, 64, 0
1, 785390, Note_on_c, 0, 52, 0
1, 785400, Note_on_c, 0, 88, 90
1, 785400, Note_on_c, 0, 76, 90
1, 785510, Note_on_c, 0, 88, 0
1, 785510, Note_on_c, 0, 76, 0
1, 785520, Time_signature, 4, 2, 24, 8
1, 785520, Note_on_c, 0, 69, 90
1, 785520, Note_on_c, 0, 57, 90
1, 785630, Note_on_c, 0, 69, 0
1, 785630, Note_on_c, 0, 57, 0
1, 785640, Note_on_c, 0, 93, 90
1, 785640, Note_on_c, 0, 81, 90
1, 785750, Note_on_c, 0, 93, 0
1, 785750, Note_on_c, 0, 81, 0
1, 785760, Note_on_c, 0, 67, 90
1, 785760, Note_on_c, 0, 55, 90
1, 785870, Note_on_c, 0, 67, 0
1, 785870, Note_on_c, 0, 55, 0
1, 785880, Note_on_c, 0, 91, 90
1, 785880, Note_on_c, 0, 79, 90
1, 785990, Note_on_c, 0, 91, 0
1, 785990, Note_on_c, 0, 79, 0
1, 786000, Note_on_c, 0, 85, 47
1, 786000, Note_on_c, 0, 88, 47
1, 786000, Note_on_c, 0, 91, 47
1, 786000, Note_on_c, 0, 79, 47
1, 786000, Note_on_c, 0, 33, 47
1, 786110, Note_on_c, 0, 33, 0
1, 786120, Note_on_c, 0, 45, 55
1, 786230, Note_on_c, 0, 45, 0
1, 786240, Note_on_c, 0, 49, 64
1, 786333, Control_c, 0, 64, 127
1, 786350, Note_on_c, 0, 49, 0
1, 786360, Note_on_c, 0, 52, 72
1, 786470, Note_on_c, 0, 52, 0
1, 786480, Time_signature, 4, 2, 24, 8
1, 786480, Note_on_c, 0, 57, 81
1, 786590, Note_on_c, 0, 57, 0
1, 786600, Note_on_c, 0, 61, 90
1, 786710, Note_on_c, 0, 85, 0
1, 786710, Note_on_c, 0, 88, 0
1, 786710, Note_on_c, 0, 91, 0
1, 786710, Note_on_c, 0, 79, 0
1, 786710, Note_on_c, 0, 61, 0
1, 786720, Note_on_c, 0, 86, 120
1, 786720, Note_on_c, 0, 90, 120
1, 786720, Note_on_c, 0, 78, 120
1, 786720, Note_on_c, 0, 54, 120
1, 786720, Note_on_c, 0, 57, 120
1, 786720, Note_on_c, 0, 62, 120
1, 786720, Note_on_c, 0, 50, 120
1, 786771, Control_c, 0, 64, 0
1, 786830, Note_on_c, 0, 54, 0
1, 786830, Note_on_c, 0, 57, 0
1, 786830, Note_on_c, 0, 62, 0
1, 786830, Note_on_c, 0, 50, 0
1, 786840, Note_on_c, 0, 54, 120
1, 786840, Note_on_c, 0, 57, 120
1, 786840, Note_on_c, 0, 62, 120
1, 786840, Note_on_c, 0, 50, 120
1, 786950, Note_on_c, 0, 54, 0
1, 786950, Note_on_c, 0, 57, 0
1, 786950, Note_on_c, 0, 62, 0
1, 786950, Note_on_c, 0, 50, 0
1, 786960, Note_on_c, 0, 54, 120
1, 786960, Note_on_c, 0, 57, 120
1, 786960, Note_on_c, 0, 62, 120
1, 786960, Note_on_c, 0, 50, 120
1, 787074, Control_c, 0, 64, 127
1, 787190, Note_on_c, 0, 54, 0
1, 787190, Note_on_c, 0, 57, 0
1, 787190, Note_on_c, 0, 62, 0
1, 787190, Note_on_c, 0, 50, 0
1, 787200, Note_on_c, 0, 54, 120
1, 787200, Note_on_c, 0, 57, 120
1, 787200, Note_on_c, 0, 62, 120
1, 787200, Note_on_c, 0, 50, 120
1, 787310, Note_on_c, 0, 86, 0
1, 787310, Note_on_c, 0, 90, 0
1, 787310, Note_on_c, 0, 78, 0
1, 787320, Note_on_c, 0, 90, 120
1, 787320, Note_on_c, 0, 78, 120
1, 787430, Note_on_c, 0, 90, 0
1, 787430, Note_on_c, 0, 78, 0
1, 787430, Note_on_c, 0, 54, 0
1, 787430, Note_on_c, 0, 57, 0
1, 787430, Note_on_c, 0, 62, 0
1, 787430, Note_on_c, 0, 50, 0
1, 787440, Time_signature, 4, 2, 24, 8
1, 787440, Note_on_c, 0, 74, 120
1, 787440, Note_on_c, 0, 62, 120
1, 787440, Note_on_c, 0, 90, 120
1, 787440, Note_on_c, 0, 78, 120
1, 787670, Note_on_c, 0, 74, 0
1, 787670, Note_on_c, 0, 62, 0
1, 787670, Note_on_c, 0, 90, 0
1, 787670, Note_on_c, 0, 78, 0
1, 787680, Note_on_c, 0, 71, 120
1, 787680, Note_on_c, 0, 59, 120
1, 787680, Note_on_c, 0, 86, 120
1, 787680, Note_on_c, 0, 74, 120
1, 787863, Control_c, 0, 64, 0
1, 787910, Note_on_c, 0, 71, 0
1, 787910, Note_on_c, 0, 59, 0
1, 787910, Note_on_c, 0, 86, 0
1, 787910, Note_on_c, 0, 74, 0
1, 787920, Note_on_c, 0, 66, 120
1, 787920, Note_on_c, 0, 71, 120
1, 787920, Note_on_c, 0, 74, 120
1, 787920, Note_on_c, 0, 62, 120
1, 787920, Note_on_c, 0, 50, 120
1, 787920, Note_on_c, 0, 54, 120
1, 787920, Note_on_c, 0, 59, 120
1, 787920, Note_on_c, 0, 47, 120
1, 788115, Control_c, 0, 64, 127
1, 788270, Note_on_c, 0, 66, 0
1, 788270, Note_on_c, 0, 71, 0
1, 788270, Note_on_c, 0, 74, 0
1, 788270, Note_on_c, 0, 62, 0
1, 788270, Note_on_c, 0, 50, 0
1, 788270, Note_on_c, 0, 54, 0
1, 788270, Note_on_c, 0, 59, 0
1, 788270, Note_on_c, 0, 47, 0
1, 788280, Note_on_c, 0, 71, 120
1, 788280, Note_on_c, 0, 59, 120
1, 788280, Note_on_c, 0, 86, 120
1, 788280, Note_on_c, 0, 74, 120
1, 788390, Note_on_c, 0, 71, 0
1, 788390, Note_on_c, 0, 59, 0
1, 788390, Note_on_c, 0, 86, 0
1, 788390, Note_on_c, 0, 74, 0
1, 788400, Time_signature, 4, 2, 24, 8
1, 788400, Note_on_c, 0, 71, 120
1, 788400, Note_on_c, 0, 59, 120
1, 788400, Note_on_c, 0, 86, 120
1, 788400, Note_on_c, 0, 74, 120
1, 788630, Note_on_c, 0, 71, 0
1, 788630, Note_on_c, 0, 59, 0
1, 788630, Note_on_c, 0, 86, 0
1, 788630, Note_on_c, 0, 74, 0
1, 788640, Note_on_c, 0, 67, 120
1, 788640, Note_on_c, 0, 55, 120
1, 788640, Note_on_c, 0, 83, 120
1, 788640, Note_on_c, 0, 71, 120
1, 788688, Control_c, 0, 64, 0
1, 788870, Note_on_c, 0, 67, 0
1, 788870, Note_on_c, 0, 55, 0
1, 788870, Note_on_c, 0, 83, 0
1, 788870, Note_on_c, 0, 71, 0
1, 788880, Note_on_c, 0, 59, 120
1, 788880, Note_on_c, 0, 64, 120
1, 788880, Note_on_c, 0, 67, 120
1, 788880, Note_on_c, 0, 55, 120
1, 788880, Note_on_c, 0, 43, 120
1, 788880, Note_on_c, 0, 47, 120
1, 788880, Note_on_c, 0, 52, 120
1, 788880, Note_on_c, 0, 40, 120
1, 789033, Control_c, 0, 64, 127
1, 789230, Note_on_c, 0, 59, 0
1, 789230, Note_on_c, 0, 64, 0
1, 789230, Note_on_c, 0, 67, 0
1, 789230, Note_on_c, 0, 55, 0
1, 789230, Note_on_c, 0, 43, 0
1, 789230, Note_on_c, 0, 47, 0
1, 789230, Note_on_c, 0, 52, 0
1, 789230, Note_on_c, 0, 40, 0
1, 789240, Note_on_c, 0, 83, 120
1, 789240, Note_on_c, 0, 71, 120
1, 789240, Note_on_c, 0, 67, 120
1, 789240, Note_on_c, 0, 55, 120
1, 789350, Note_on_c, 0, 83, 0
1, 789350, Note_on_c, 0, 71, 0
1, 789350, Note_on_c, 0, 67, 0
1, 789350, Note_on_c, 0, 55, 0
1, 789360, Time_signature, 4, 2, 24, 8
1, 789360, Note_on_c, 0, 83, 120
1, 789360, Note_on_c, 0, 71, 120
1, 789360, Note_on_c, 0, 67, 120
1, 789360, Note_on_c, 0, 55, 120
1, 789590, Note_on_c, 0, 83, 0
1, 789590, Note_on_c, 0, 71, 0
1, 789590, Note_on_c, 0, 67, 0
1, 789590, Note_on_c, 0, 55, 0
1, 789600, Note_on_c, 0, 79, 120
1, 789600, Note_on_c, 0, 67, 120
1, 789600, Note_on_c, 0, 64, 120
1, 789600, Note_on_c, 0, 52, 120
1, 789700, Control_c, 0, 64, 0
1, 789830, Note_on_c, 0, 79, 0
1, 789830, Note_on_c, 0, 67, 0
1, 789830, Note_on_c, 0, 64, 0
1, 789830, Note_on_c, 0, 52, 0
1, 789840, Note_on_c, 0, 59, 120
1, 789840, Note_on_c, 0, 64, 120
1, 789840, Note_on_c, 0, 67, 120
1, 789840, Note_on_c, 0, 55, 120
1, 789840, Note_on_c, 0, 43, 120
1, 789840, Note_on_c, 0, 47, 120
1, 789840, Note_on_c, 0, 52, 120
1, 789840, Note_on_c, 0, 40, 120
1, 790013, Control_c, 0, 64, 127
1, 790190, Note_on_c, 0, 59, 0
1, 790190, Note_on_c, 0, 64, 0
1, 790190, Note_on_c, 0, 67, 0
1, 790190, Note_on_c, 0, 55, 0
1, 790190, Note_on_c, 0, 43, 0
1, 790190, Note_on_c, 0, 47, 0
1, 790190, Note_on_c, 0, 52, 0
1, 790190, Note_on_c, 0, 40, 0
1, 790200, Note_on_c, 0, 71, 120
1, 790200, Note_on_c, 0, 76, 120
1, 790200, Note_on_c, 0, 79, 120
1, 790200, Note_on_c, 0, 67, 120
1, 790200, Note_on_c, 0, 55, 120
1, 790200, Note_on_c, 0, 59, 120
1, 790200, Note_on_c, 0, 64, 120
1, 790200, Note_on_c, 0, 52, 120
1, 790310, Note_on_c, 0, 71, 0
1, 790310, Note_on_c, 0, 76, 0
1, 790310, Note_on_c, 0, 79, 0
1, 790310, Note_on_c, 0, 67, 0
1, 790310, Note_on_c, 0, 55, 0
1, 790310, Note_on_c, 0, 59, 0
1, 790310, Note_on_c, 0, 64, 0
1, 790310, Note_on_c, 0, 52, 0
1, 790320, Time_signature, 4, 2, 24, 8
1, 790320, Note_on_c, 0, 71, 120
1, 790320, Note_on_c, 0, 76, 120
1, 790320, Note_on_c, 0, 79, 120
1, 790320, Note_on_c, 0, 67, 120
1, 790320, Note_on_c, 0, 55, 120
1, 790320, Note_on_c, 0, 59, 120
1, 790320, Note_on_c, 0, 64, 120
1, 790320, Note_on_c, 0, 52, 120
1, 790550, Note_on_c, 0, 71, 0
1, 790550, Note_on_c, 0, 76, 0
1, 790550, Note_on_c, 0, 79, 0
1, 790550, Note_on_c, 0, 67, 0
1, 790550, Note_on_c, 0, 55, 0
1, 790550, Note_on_c, 0, 59, 0
1, 790550, Note_on_c, 0, 64, 0
1, 790550, Note_on_c, 0, 52, 0
1, 790560, Note_on_c, 0, 71, 120
1, 790560, Note_on_c, 0, 76, 120
1, 790560, Note_on_c, 0, 79, 120
1, 790560, Note_on_c, 0, 67, 120
1, 790560, Note_on_c, 0, 55, 120
1, 790560, Note_on_c, 0, 59, 120
1, 790560, Note_on_c, 0, 64, 120
1, 790560, Note_on_c, 0, 52, 120
1, 790790, Control_c, 0, 64, 0
1, 790790, Note_on_c, 0, 71, 0
1, 790790, Note_on_c, 0, 76, 0
1, 790790, Note_on_c, 0, 79, 0
1, 790790, Note_on_c, 0, 67, 0
1, 790790, Note_on_c, 0, 55, 0
1, 790790, Note_on_c, 0, 59, 0
1, 790790, Note_on_c, 0, 64, 0
1, 790790, Note_on_c, 0, 52, 0
1, 790800, Note_on_c, 0, 71, 120
1, 790800, Note_on_c, 0, 76, 120
1, 790800, Note_on_c, 0, 80, 120
1, 790800, Note_on_c, 0, 68, 120
1, 790800, Note_on_c, 0, 56, 120
1, 790800, Note_on_c, 0, 59, 120
1, 790800, Note_on_c, 0, 64, 120
1, 790800, Note_on_c, 0, 52, 120
1, 791009, Control_c, 0, 64, 127
1, 791150, Note_on_c, 0, 71, 0
1, 791150, Note_on_c, 0, 76, 0
1, 791150, Note_on_c, 0, 80, 0
1, 791150, Note_on_c, 0, 68, 0
1, 791150, Note_on_c, 0, 56, 0
1, 791150, Note_on_c, 0, 59, 0
1, 791150, Note_on_c, 0, 64, 0
1, 791150, Note_on_c, 0, 52, 0
1, 791160, Note_on_c, 0, 71, 120
1, 791160, Note_on_c, 0, 76, 120
1, 791160, Note_on_c, 0, 80, 120
1, 791160, Note_on_c, 0, 68, 120
1, 791160, Note_on_c, 0, 56, 120
1, 791160, Note_on_c, 0, 59, 120
1, 791160, Note_on_c, 0, 64, 120
1, 791160, Note_on_c, 0, 52, 120
1, 791270, Note_on_c, 0, 71, 0
1, 791270, Note_on_c, 0, 76, 0
1, 791270, Note_on_c, 0, 80, 0
1, 791270, Note_on_c, 0, 68, 0
1, 791270, Note_on_c, 0, 56, 0
1, 791270, Note_on_c, 0, 59, 0
1, 791270, Note_on_c, 0, 64, 0
1, 791270, Note_on_c, 0, 52, 0
1, 791280, Time_signature, 4, 2, 24, 8
1, 791280, Tempo, 1034482
1, 791280, Note_on_c, 0, 71, 64
1, 791280, Note_on_c, 0, 76, 64
1, 791280, Note_on_c, 0, 80, 64
1, 791280, Note_on_c, 0, 68, 64
1, 791280, Note_on_c, 0, 56, 64
1, 791280, Note_on_c, 0, 59, 64
1, 791280, Note_on_c, 0, 64, 64
1, 791280, Note_on_c, 0, 52, 64
1, 791990, Note_on_c, 0, 71, 0
1, 791990, Note_on_c, 0, 76, 0
1, 791990, Note_on_c, 0, 80, 0
1, 791990, Note_on_c, 0, 68, 0
1, 791990, Note_on_c, 0, 56, 0
1, 791990, Note_on_c, 0, 59, 0
1, 791990, Note_on_c, 0, 64, 0
1, 791990, Note_on_c, 0, 52, 0
1, 792000, Note_on_c, 0, 71, 64
1, 792000, Note_on_c, 0, 80, 64
1, 792000, Note_on_c, 0, 68, 64
1, 792000, Note_on_c, 0, 59, 64
1, 792000, Note_on_c, 0, 52, 64
1, 792230, Note_on_c, 0, 71, 0
1, 792230, Note_on_c, 0, 80, 0
1, 792230, Note_on_c, 0, 68, 0
1, 792230, Note_on_c, 0, 59, 0
1, 792230, Note_on_c, 0, 52, 0
1, 792240, Time_signature, 4, 2, 24, 8
1, 792240, Note_on_c, 0, 71, 64
1, 792240, Note_on_c, 0, 80, 64
1, 792240, Note_on_c, 0, 68, 64
1, 792240, Note_on_c, 0, 59, 64
1, 792240, Note_on_c, 0, 52, 64
1, 792530, Note_on_c, 0, 71, 0
1, 792530, Note_on_c, 0, 80, 0
1, 792530, Note_on_c, 0, 68, 0
1, 792530, Note_on_c, 0, 59, 0
1, 792530, Note_on_c, 0, 52, 0
1, 792540, Note_on_c, 0, 76, 64
1, 792540, Note_on_c, 0, 71, 64
1, 792540, Note_on_c, 0, 64, 64
1, 792540, Note_on_c, 0, 56, 64
1, 792548, Control_c, 0, 64, 0
1, 792590, Note_on_c, 0, 76, 0
1, 792590, Note_on_c, 0, 71, 0
1, 792590, Note_on_c, 0, 64, 0
1, 792590, Note_on_c, 0, 56, 0
1, 792600, Note_on_c, 0, 76, 64
1, 792600, Note_on_c, 0, 71, 64
1, 792600, Note_on_c, 0, 64, 64
1, 792600, Note_on_c, 0, 56, 64
1, 792710, Note_on_c, 0, 76, 0
1, 792710, Note_on_c, 0, 71, 0
1, 792710, Note_on_c, 0, 64, 0
1, 792710, Note_on_c, 0, 56, 0
1, 792720, Note_on_c, 0, 71, 64
1, 792720, Note_on_c, 0, 76, 64
1, 792720, Note_on_c, 0, 64, 64
1, 792720, Note_on_c, 0, 56, 64
1, 792720, Note_on_c, 0, 44, 64
1, 792933, Control_c, 0, 64, 127
1, 792950, Note_on_c, 0, 71, 0
1, 792950, Note_on_c, 0, 76, 0
1, 792950, Note_on_c, 0, 64, 0
1, 792950, Note_on_c, 0, 56, 0
1, 792950, Note_on_c, 0, 44, 0
1, 792960, Note_on_c, 0, 76, 64
1, 792960, Note_on_c, 0, 71, 64
1, 792960, Note_on_c, 0, 64, 64
1, 792960, Note_on_c, 0, 56, 64
1, 793190, Note_on_c, 0, 76, 0
1, 793190, Note_on_c, 0, 71, 0
1, 793190, Note_on_c, 0, 64, 0
1, 793190, Note_on_c, 0, 56, 0
1, 793200, Time_signature, 4, 2, 24, 8
1, 793200, Note_on_c, 0, 76, 64
1, 793200, Note_on_c, 0, 71, 64
1, 793200, Note_on_c, 0, 64, 64
1, 793200, Note_on_c, 0, 56, 64
1, 793279, Control_c, 0, 64, 0
1, 793310, Note_on_c, 0, 76, 0
1, 793310, Note_on_c, 0, 64, 0
1, 793310, Note_on_c, 0, 56, 0
1, 793320, Note_on_c, 0, 75, 64
1, 793320, Note_on_c, 0, 59, 64
1, 793320, Note_on_c, 0, 54, 64
1, 793430, Note_on_c, 0, 75, 0
1, 793430, Note_on_c, 0, 71, 0
1, 793430, Note_on_c, 0, 59, 0
1, 793430, Note_on_c, 0, 54, 0
1, 793440, Note_on_c, 0, 71, 64
1, 793440, Note_on_c, 0, 75, 64
1, 793440, Note_on_c, 0, 63, 64
1, 793440, Note_on_c, 0, 54, 64
1, 793440, Note_on_c, 0, 42, 64
1, 793518, Control_c, 0, 64, 127
1, 793550, Note_on_c, 0, 71, 0
1, 793560, Note_on_c, 0, 66, 64
1, 793670, Note_on_c, 0, 66, 0
1, 793670, Note_on_c, 0, 75, 0
1, 793670, Note_on_c, 0, 63, 0
1, 793670, Note_on_c, 0, 54, 0
1, 793670, Note_on_c, 0, 42, 0
1, 793680, Note_on_c, 0, 66, 64
1, 793680, Note_on_c, 0, 75, 64
1, 793680, Note_on_c, 0, 59, 64
1, 793680, Note_on_c, 0, 54, 64
1, 793790, Note_on_c, 0, 66, 0
1, 793800, Note_on_c, 0, 63, 64
1, 793910, Note_on_c, 0, 63, 0
1, 793910, Note_on_c, 0, 75, 0
1, 793910, Note_on_c, 0, 59, 0
1, 793910, Note_on_c, 0, 54, 0
1, 793920, Note_on_c, 0, 63, 64
1, 793920, Note_on_c, 0, 75, 64
1, 793920, Note_on_c, 0, 59, 64
1, 793920, Note_on_c, 0, 54, 64
1, 794030, Note_on_c, 0, 63, 0
1, 794040, Note_on_c, 0, 71, 64
1, 794140, Control_c, 0, 64, 0
1, 794150, Note_on_c, 0, 71, 0
1, 794150, Note_on_c, 0, 75, 0
1, 794150, Note_on_c, 0, 59, 0
1, 794150, Note_on_c, 0, 54, 0
1, 794160, Time_signature, 4, 2, 24, 8
1, 794160, Note_on_c, 0, 73, 64
1, 794160, Note_on_c, 0, 68, 64
1, 794160, Note_on_c, 0, 64, 64
1, 794160, Note_on_c, 0, 52, 64
1, 794177, Control_c, 0, 64, 127
1, 794510, Note_on_c, 0, 73, 0
1, 794520, Note_on_c, 0, 75, 64
1, 794550, Note_on_c, 0, 75, 0
1, 794560, Note_on_c, 0, 73, 64
1, 794590, Note_on_c, 0, 73, 0
1, 794600, Note_on_c, 0, 72, 64
1, 794630, Note_on_c, 0, 72, 0
1, 794630, Note_on_c, 0, 64, 0
1, 794640, Note_on_c, 0, 73, 64
1, 794640, Note_on_c, 0, 56, 64
1, 794710, Note_on_c, 0, 73, 0
1, 794720, Note_on_c, 0, 68, 64
1, 794750, Note_on_c, 0, 68, 0
1, 794760, Note_on_c, 0, 66, 64
1, 794790, Note_on_c, 0, 68, 0
1, 794800, Note_on_c, 0, 75, 64
1, 794870, Note_on_c, 0, 66, 0
1, 794870, Note_on_c, 0, 75, 0
1, 794880, Note_on_c, 0, 78, 64
1, 794880, Note_on_c, 0, 68, 64
1, 794950, Note_on_c, 0, 78, 0
1, 794960, Note_on_c, 0, 76, 64
1, 794990, Note_on_c, 0, 68, 0
1, 795000, Note_on_c, 0, 66, 64
1, 795030, Note_on_c, 0, 76, 0
1, 795040, Note_on_c, 0, 73, 64
1, 795041, Control_c, 0, 64, 0
1, 795110, Note_on_c, 0, 73, 0
1, 795110, Note_on_c, 0, 66, 0
1, 795110, Note_on_c, 0, 56, 0
1, 795110, Note_on_c, 0, 52, 0
1, 795120, Time_signature, 4, 2, 24, 8
1, 795120, Note_on_c, 0, 71, 64
1, 795120, Note_on_c, 0, 71, 64
1, 795120, Note_on_c, 0, 63, 64
1, 795120, Note_on_c, 0, 54, 64
1, 795140, Control_c, 0, 64, 127
1, 795190, Note_on_c, 0, 71, 0
1, 795200, Note_on_c, 0, 73, 64
1, 795212, Control_c, 0, 64, 0
1, 795270, Note_on_c, 0, 73, 0
1, 795280, Note_on_c, 0, 70, 64
1, 795350, Note_on_c, 0, 71, 0
1, 795350, Note_on_c, 0, 70, 0
1, 795360, Note_on_c, 0, 71, 64
1, 795360, Note_on_c, 0, 71, 64
1, 795430, Note_on_c, 0, 71, 0
1, 795440, Note_on_c, 0, 73, 64
1, 795510, Note_on_c, 0, 73, 0
1, 795520, Note_on_c, 0, 75, 64
1, 795590, Note_on_c, 0, 75, 0
1, 795600, Note_on_c, 0, 76, 64
1, 795670, Note_on_c, 0, 76, 0
1, 795680, Note_on_c, 0, 77, 64
1, 795750, Note_on_c, 0, 77, 0
1, 795760, Note_on_c, 0, 78, 64
1, 795830, Note_on_c, 0, 71, 0
1, 795830, Note_on_c, 0, 78, 0
1, 795830, Note_on_c, 0, 63, 0
1, 795830, Note_on_c, 0, 54, 0
1, 795840, Note_on_c, 0, 77, 64
1, 795840, Note_on_c, 0, 71, 64
1, 795840, Note_on_c, 0, 63, 64
1, 795840, Note_on_c, 0, 54, 64
1, 795890, Note_on_c, 0, 77, 0
1, 795900, Note_on_c, 0, 78, 64
1, 795950, Note_on_c, 0, 78, 0
1, 795960, Note_on_c, 0, 80, 64
1, 796010, Note_on_c, 0, 80, 0
1, 796020, Note_on_c, 0, 78, 64
1, 796070, Note_on_c, 0, 78, 0
1, 796070, Note_on_c, 0, 71, 0
1, 796070, Note_on_c, 0, 63, 0
1, 796070, Note_on_c, 0, 54, 0
1, 796080, Time_signature, 4, 2, 24, 8
1, 796080, Note_on_c, 0, 78, 64
1, 796080, Note_on_c, 0, 70, 64
1, 796080, Note_on_c, 0, 61, 64
1, 796080, Note_on_c, 0, 54, 64
1, 796150, Note_on_c, 0, 70, 0
1, 796150, Note_on_c, 0, 61, 0
1, 796160, Note_on_c, 0, 71, 64
1, 796160, Note_on_c, 0, 63, 64
1, 796190, Note_on_c, 0, 54, 0
1, 796200, Note_on_c, 0, 54, 64
1, 796230, Note_on_c, 0, 71, 0
1, 796230, Note_on_c, 0, 63, 0
1, 796240, Note_on_c, 0, 68, 64
1, 796240, Note_on_c, 0, 59, 64
1, 796310, Note_on_c, 0, 68, 0
1, 796310, Note_on_c, 0, 59, 0
1, 796310, Note_on_c, 0, 54, 0
1, 796320, Note_on_c, 0, 70, 64
1, 796320, Note_on_c, 0, 61, 64
1, 796320, Note_on_c, 0, 54, 64
1, 796390, Note_on_c, 0, 70, 0
1, 796390, Note_on_c, 0, 61, 0
1, 796400, Note_on_c, 0, 71, 64
1, 796400, Note_on_c, 0, 63, 64
1, 796470, Note_on_c, 0, 71, 0
1, 796470, Note_on_c, 0, 63, 0
1, 796480, Note_on_c, 0, 73, 64
1, 796480, Note_on_c, 0, 64, 64
1, 796550, Note_on_c, 0, 64, 0
1, 796560, Note_on_c, 0, 58, 64
1, 796630, Note_on_c, 0, 73, 0
1, 796630, Note_on_c, 0, 58, 0
1, 796640, Note_on_c, 0, 75, 64
1, 796640, Note_on_c, 0, 59, 64
1, 796710, Note_on_c, 0, 75, 0
1, 796710, Note_on_c, 0, 59, 0
1, 796720, Note_on_c, 0, 76, 64
1, 796720, Note_on_c, 0, 61, 64
1, 796790, Note_on_c, 0, 78, 0
1, 796790, Note_on_c, 0, 76, 0
1, 796790, Note_on_c, 0, 61, 0
1, 796800, Note_on_c, 0, 76, 64
1, 796800, Note_on_c, 0, 68, 64
1, 796800, Note_on_c, 0, 64, 64
1, 796850, Note_on_c, 0, 68, 0
1, 796850, Note_on_c, 0, 64, 0
1, 796860, Note_on_c, 0, 66, 64
1, 796860, Note_on_c, 0, 63, 64
1, 796910, Note_on_c, 0, 66, 0
1, 796910, Note_on_c, 0, 63, 0
1, 796920, Note_on_c, 0, 68, 64
1, 796920, Note_on_c, 0, 64, 64
1, 796970, Note_on_c, 0, 68, 0
1, 796970, Note_on_c, 0, 64, 0
1, 796980, Note_on_c, 0, 70, 64
1, 796980, Note_on_c, 0, 61, 64
1, 797030, Note_on_c, 0, 76, 0
1, 797030, Note_on_c, 0, 70, 0
1, 797030, Note_on_c, 0, 61, 0
1, 797030, Note_on_c, 0, 54, 0
1, 797040, Time_signature, 4, 2, 24, 8
1, 797040, Note_on_c, 0, 75, 64
1, 797040, Note_on_c, 0, 71, 64
1, 797040, Note_on_c, 0, 59, 64
1, 797040, Note_on_c, 0, 54, 64
1, 797110, Note_on_c, 0, 59, 0
1, 797120, Note_on_c, 0, 61, 64
1, 797150, Note_on_c, 0, 75, 0
1, 797150, Note_on_c, 0, 71, 0
1, 797160, Note_on_c, 0, 75, 64
1, 797160, Note_on_c, 0, 71, 64
1, 797190, Note_on_c, 0, 61, 0
1, 797200, Note_on_c, 0, 58, 64
1, 797270, Note_on_c, 0, 75, 0
1, 797270, Note_on_c, 0, 71, 0
1, 797270, Note_on_c, 0, 58, 0
1, 797270, Note_on_c, 0, 54, 0
1, 797280, Note_on_c, 0, 75, 64
1, 797280, Note_on_c, 0, 71, 64
1, 797280, Note_on_c, 0, 59, 64
1, 797350, Note_on_c, 0, 59, 0
1, 797360, Note_on_c, 0, 61, 64
1, 797430, Note_on_c, 0, 61, 0
1, 797440, Note_on_c, 0, 63, 64
1, 797510, Note_on_c, 0, 63, 0
1, 797520, Note_on_c, 0, 64, 64
1, 797590, Note_on_c, 0, 64, 0
1, 797600, Note_on_c, 0, 65, 64
1, 797670, Note_on_c, 0, 65, 0
1, 797680, Note_on_c, 0, 66, 64
1, 797750, Note_on_c, 0, 66, 0
1, 797760, Note_on_c, 0, 68, 64
1, 797810, Note_on_c, 0, 68, 0
1, 797820, Note_on_c, 0, 66, 64
1, 797870, Note_on_c, 0, 66, 0
1, 797880, Note_on_c, 0, 65, 64
1, 797930, Note_on_c, 0, 65, 0
1, 797940, Note_on_c, 0, 66, 64
1, 797990, Note_on_c, 0, 75, 0
1, 797990, Note_on_c, 0, 71, 0
1, 797990, Note_on_c, 0, 66, 0
1, 798000, Time_signature, 4, 2, 24, 8
1, 798000, Note_on_c, 0, 42, 64
1, 798070, Note_on_c, 0, 42, 0
1, 798080, Note_on_c, 0, 44, 64
1, 798120, Note_on_c, 0, 71, 64
1, 798120, Note_on_c, 0, 75, 64
1, 798120, Note_on_c, 0, 66, 64
1, 798150, Note_on_c, 0, 44, 0
1, 798160, Note_on_c, 0, 46, 64
1, 798230, Note_on_c, 0, 46, 0
1, 798230, Note_on_c, 0, 71, 0
1, 798230, Note_on_c, 0, 75, 0
1, 798230, Note_on_c, 0, 66, 0
1, 798240, Note_on_c, 0, 71, 64
1, 798240, Note_on_c, 0, 75, 64
1, 798240, Note_on_c, 0, 66, 64
1, 798240, Note_on_c, 0, 47, 64
1, 798310, Note_on_c, 0, 47, 0
1, 798320, Note_on_c, 0, 49, 64
1, 798390, Note_on_c, 0, 49, 0
1, 798400, Note_on_c, 0, 51, 64
1, 798470, Note_on_c, 0, 51, 0
1, 798480, Note_on_c, 0, 52, 64
1, 798550, Note_on_c, 0, 52, 0
1, 798560, Note_on_c, 0, 53, 64
1, 798630, Note_on_c, 0, 53, 0
1, 798640, Note_on_c, 0, 54, 64
1, 798710, Note_on_c, 0, 54, 0
1, 798720, Note_on_c, 0, 53, 64
1, 798770, Note_on_c, 0, 53, 0
1, 798780, Note_on_c, 0, 54, 64
1, 798830, Note_on_c, 0, 54, 0
1, 798840, Note_on_c, 0, 56, 64
1, 798890, Note_on_c, 0, 56, 0
1, 798900, Note_on_c, 0, 54, 64
1, 798950, Note_on_c, 0, 71, 0
1, 798950, Note_on_c, 0, 75, 0
1, 798950, Note_on_c, 0, 66, 0
1, 798950, Note_on_c, 0, 54, 0
1, 798960, Time_signature, 4, 2, 24, 8
1, 798960, Note_on_c, 0, 73, 64
1, 798960, Note_on_c, 0, 70, 64
1, 798960, Note_on_c, 0, 54, 64
1, 799030, Note_on_c, 0, 54, 0
1, 799040, Note_on_c, 0, 64, 64
1, 799110, Note_on_c, 0, 64, 0
1, 799120, Note_on_c, 0, 63, 64
1, 799190, Note_on_c, 0, 73, 0
1, 799190, Note_on_c, 0, 63, 0
1, 799200, Note_on_c, 0, 78, 64
1, 799200, Note_on_c, 0, 64, 64
1, 799270, Note_on_c, 0, 64, 0
1, 799280, Note_on_c, 0, 61, 64
1, 799350, Note_on_c, 0, 61, 0
1, 799360, Note_on_c, 0, 58, 64
1, 799430, Note_on_c, 0, 78, 0
1, 799430, Note_on_c, 0, 70, 0
1, 799430, Note_on_c, 0, 58, 0
1, 799440, Note_on_c, 0, 80, 64
1, 799440, Note_on_c, 0, 71, 64
1, 799440, Note_on_c, 0, 54, 64
1, 799510, Note_on_c, 0, 54, 0
1, 799520, Note_on_c, 0, 52, 64
1, 799560, Note_on_c, 0, 66, 64
1, 799590, Note_on_c, 0, 52, 0
1, 799600, Note_on_c, 0, 49, 64
1, 799670, Note_on_c, 0, 80, 0
1, 799670, Note_on_c, 0, 71, 0
1, 799670, Note_on_c, 0, 49, 0
1, 799670, Note_on_c, 0, 66, 0
1, 799680, Note_on_c, 0, 82, 64
1, 799680, Note_on_c, 0, 73, 64
1, 799680, Note_on_c, 0, 66, 64
1, 799680, Note_on_c, 0, 42, 64
1, 799750, Note_on_c, 0, 42, 0
1, 799760, Note_on_c, 0, 54, 64
1, 799790, Note_on_c, 0, 66, 0
1, 799800, Note_on_c, 0, 64, 64
1, 799830, Note_on_c, 0, 54, 0
1, 799840, Note_on_c, 0, 42, 64
1, 799910, Note_on_c, 0, 82, 0
1, 799910, Note_on_c, 0, 73, 0
1, 799910, Note_on_c, 0, 64, 0
1, 799910, Note_on_c, 0, 42, 0
1, 799920, Time_signature, 4, 2, 24, 8
1, 799920, Note_on_c, 0, 83, 64
1, 799920, Note_on_c, 0, 71, 64
1, 799920, Note_on_c, 0, 66, 64
1, 799920, Note_on_c, 0, 47, 64
1, 799979, Control_c, 0, 64, 127
1, 800150, Note_on_c, 0, 83, 0
1, 800150, Note_on_c, 0, 71, 0
1, 800150, Note_on_c, 0, 66, 0
1, 800150, Note_on_c, 0, 47, 0
1, 800160, Note_on_c, 0, 83, 64
1, 800160, Note_on_c, 0, 66, 64
1, 800270, Note_on_c, 0, 83, 0
1, 800270, Note_on_c, 0, 66, 0
1, 800280, Note_on_c, 0, 78, 64
1, 800280, Note_on_c, 0, 71, 64
1, 800280, Note_on_c, 0, 63, 64
1, 800280, Note_on_c, 0, 54, 64
1, 800280, Note_on_c, 0, 47, 64
1, 800380, Control_c, 0, 64, 0
1, 800390, Note_on_c, 0, 78, 0
1, 800390, Note_on_c, 0, 71, 0
1, 800390, Note_on_c, 0, 63, 0
1, 800400, Note_on_c, 0, 78, 64
1, 800400, Note_on_c, 0, 74, 64
1, 800400, Note_on_c, 0, 66, 64
1, 800400, Note_on_c, 0, 62, 64
1, 800458, Control_c, 0, 64, 127
1, 800630, Note_on_c, 0, 62, 0
1, 800630, Note_on_c, 0, 54, 0
1, 800630, Note_on_c, 0, 47, 0
1, 800880, Time_signature, 4, 2, 24, 8
1, 800929, Control_c, 0, 64, 0
1, 801048, Control_c, 0, 64, 127
1, 801240, Note_on_c, 0, 54, 64
1, 801240, Note_on_c, 0, 62, 64
1, 801240, Note_on_c, 0, 45, 64
1, 801350, Note_on_c, 0, 66, 0
1, 801360, Note_on_c, 0, 66, 64
1, 801590, Note_on_c, 0, 54, 0
1, 801590, Note_on_c, 0, 62, 0
1, 801590, Note_on_c, 0, 45, 0
1, 801830, Note_on_c, 0, 74, 0
1, 801830, Note_on_c, 0, 78, 0
1, 801830, Note_on_c, 0, 66, 0
1, 801840, Time_signature, 4, 2, 24, 8
1, 801840, Tempo, 258620
1, 801913, Control_c, 0, 64, 0
1, 802080, Note_on_c, 0, 83, 47
1, 802080, Note_on_c, 0, 71, 47
1, 802310, Note_on_c, 0, 83, 0
1, 802310, Note_on_c, 0, 71, 0
1, 802320, Note_on_c, 0, 81, 47
1, 802320, Note_on_c, 0, 69, 47
1, 802550, Note_on_c, 0, 81, 0
1, 802550, Note_on_c, 0, 69, 0
1, 802560, Note_on_c, 0, 59, 47
1, 802560, Note_on_c, 0, 47, 47
1, 802790, Note_on_c, 0, 59, 0
1, 802790, Note_on_c, 0, 47, 0
1, 802800, Time_signature, 4, 2, 24, 8
1, 802800, Note_on_c, 0, 57, 47
1, 802800, Note_on_c, 0, 45, 47
1, 803030, Note_on_c, 0, 57, 0
1, 803030, Note_on_c, 0, 45, 0
1, 803040, Note_on_c, 0, 83, 47
1, 803040, Note_on_c, 0, 71, 47
1, 803270, Note_on_c, 0, 83, 0
1, 803270, Note_on_c, 0, 71, 0
1, 803280, Note_on_c, 0, 81, 47
1, 803280, Note_on_c, 0, 69, 47
1, 803510, Note_on_c, 0, 81, 0
1, 803510, Note_on_c, 0, 69, 0
1, 803520, Note_on_c, 0, 59, 47
1, 803520, Note_on_c, 0, 47, 47
1, 803750, Note_on_c, 0, 59, 0
1, 803750, Note_on_c, 0, 47, 0
1, 803760, Time_signature, 4, 2, 24, 8
1, 803760, Note_on_c, 0, 57, 47
1, 803760, Note_on_c, 0, 45, 47
1, 803990, Note_on_c, 0, 57, 0
1, 803990, Note_on_c, 0, 45, 0
1, 804000, Note_on_c, 0, 83, 47
1, 804000, Note_on_c, 0, 71, 47
1, 804230, Note_on_c, 0, 83, 0
1, 804230, Note_on_c, 0, 71, 0
1, 804240, Note_on_c, 0, 81, 47
1, 804240, Note_on_c, 0, 69, 47
1, 804470, Note_on_c, 0, 81, 0
1, 804470, Note_on_c, 0, 69, 0
1, 804480, Note_on_c, 0, 59, 47
1, 804480, Note_on_c, 0, 47, 47
1, 804710, Note_on_c, 0, 59, 0
1, 804710, Note_on_c, 0, 47, 0
1, 804720, Time_signature, 4, 2, 24, 8
1, 804720, Note_on_c, 0, 57, 47
1, 804720, Note_on_c, 0, 45, 47
1, 804950, Note_on_c, 0, 57, 0
1, 804950, Note_on_c, 0, 45, 0
1, 804960, Note_on_c, 0, 83, 47
1, 804960, Note_on_c, 0, 71, 47
1, 805190, Note_on_c, 0, 83, 0
1, 805190, Note_on_c, 0, 71, 0
1, 805200, Note_on_c, 0, 81, 47
1, 805200, Note_on_c, 0, 69, 47
1, 805430, Note_on_c, 0, 81, 0
1, 805430, Note_on_c, 0, 69, 0
1, 805440, Note_on_c, 0, 59, 47
1, 805440, Note_on_c, 0, 47, 47
1, 805670, Note_on_c, 0, 59, 0
1, 805670, Note_on_c, 0, 47, 0
1, 805680, Time_signature, 4, 2, 24, 8
1, 805680, Note_on_c, 0, 57, 47
1, 805680, Note_on_c, 0, 45, 47
1, 805910, Note_on_c, 0, 57, 0
1, 805910, Note_on_c, 0, 45, 0
1, 805920, Note_on_c, 0, 83, 51
1, 805920, Note_on_c, 0, 71, 51
1, 805920, Note_on_c, 0, 59, 51
1, 805920, Note_on_c, 0, 47, 51
1, 806150, Note_on_c, 0, 83, 0
1, 806150, Note_on_c, 0, 71, 0
1, 806150, Note_on_c, 0, 59, 0
1, 806150, Note_on_c, 0, 47, 0
1, 806160, Note_on_c, 0, 81, 56
1, 806160, Note_on_c, 0, 69, 56
1, 806160, Note_on_c, 0, 57, 56
1, 806160, Note_on_c, 0, 45, 56
1, 806390, Note_on_c, 0, 81, 0
1, 806390, Note_on_c, 0, 69, 0
1, 806390, Note_on_c, 0, 57, 0
1, 806390, Note_on_c, 0, 45, 0
1, 806400, Note_on_c, 0, 83, 61
1, 806400, Note_on_c, 0, 71, 61
1, 806400, Note_on_c, 0, 59, 61
1, 806400, Note_on_c, 0, 47, 61
1, 806630, Note_on_c, 0, 83, 0
1, 806630, Note_on_c, 0, 71, 0
1, 806630, Note_on_c, 0, 59, 0
1, 806630, Note_on_c, 0, 47, 0
1, 806640, Time_signature, 4, 2, 24, 8
1, 806640, Note_on_c, 0, 81, 65
1, 806640, Note_on_c, 0, 69, 65
1, 806640, Note_on_c, 0, 57, 65
1, 806640, Note_on_c, 0, 45, 65
1, 806870, Note_on_c, 0, 81, 0
1, 806870, Note_on_c, 0, 69, 0
1, 806870, Note_on_c, 0, 57, 0
1, 806870, Note_on_c, 0, 45, 0
1, 806880, Note_on_c, 0, 83, 70
1, 806880, Note_on_c, 0, 71, 70
1, 806880, Note_on_c, 0, 59, 70
1, 806880, Note_on_c, 0, 47, 70
1, 807110, Note_on_c, 0, 83, 0
1, 807110, Note_on_c, 0, 71, 0
1, 807110, Note_on_c, 0, 59, 0
1, 807110, Note_on_c, 0, 47, 0
1, 807120, Note_on_c, 0, 81, 75
1, 807120, Note_on_c, 0, 69, 75
1, 807120, Note_on_c, 0, 57, 75
1, 807120, Note_on_c, 0, 45, 75
1, 807350, Note_on_c, 0, 81, 0
1, 807350, Note_on_c, 0, 69, 0
1, 807350, Note_on_c, 0, 57, 0
1, 807350, Note_on_c, 0, 45, 0
1, 807360, Note_on_c, 0, 83, 79
1, 807360, Note_on_c, 0, 71, 79
1, 807360, Note_on_c, 0, 59, 79
1, 807360, Note_on_c, 0, 47, 79
1, 807590, Note_on_c, 0, 83, 0
1, 807590, Note_on_c, 0, 71, 0
1, 807590, Note_on_c, 0, 59, 0
1, 807590, Note_on_c, 0, 47, 0
1, 807600, Time_signature, 4, 2, 24, 8
1, 807600, Note_on_c, 0, 81, 84
1, 807600, Note_on_c, 0, 69, 84
1, 807600, Note_on_c, 0, 57, 84
1, 807600, Note_on_c, 0, 45, 84
1, 807830, Note_on_c, 0, 81, 0
1, 807830, Note_on_c, 0, 69, 0
1, 807830, Note_on_c, 0, 57, 0
1, 807830, Note_on_c, 0, 45, 0
1, 807840, Note_on_c, 0, 83, 89
1, 807840, Note_on_c, 0, 71, 89
1, 807840, Note_on_c, 0, 59, 89
1, 807840, Note_on_c, 0, 47, 89
1, 808070, Note_on_c, 0, 83, 0
1, 808070, Note_on_c, 0, 71, 0
1, 808070, Note_on_c, 0, 59, 0
1, 808070, Note_on_c, 0, 47, 0
1, 808080, Note_on_c, 0, 81, 94
1, 808080, Note_on_c, 0, 69, 94
1, 808080, Note_on_c, 0, 57, 94
1, 808080, Note_on_c, 0, 45, 94
1, 808310, Note_on_c, 0, 81, 0
1, 808310, Note_on_c, 0, 69, 0
1, 808310, Note_on_c, 0, 57, 0
1, 808310, Note_on_c, 0, 45, 0
1, 808320, Note_on_c, 0, 83, 98
1, 808320, Note_on_c, 0, 71, 98
1, 808320, Note_on_c, 0, 59, 98
1, 808320, Note_on_c, 0, 47, 98
1, 808550, Note_on_c, 0, 83, 0
1, 808550, Note_on_c, 0, 71, 0
1, 808550, Note_on_c, 0, 59, 0
1, 808550, Note_on_c, 0, 47, 0
1, 808560, Time_signature, 4, 2, 24, 8
1, 808560, Note_on_c, 0, 81, 103
1, 808560, Note_on_c, 0, 69, 103
1, 808560, Note_on_c, 0, 57, 103
1, 808560, Note_on_c, 0, 45, 103
1, 808790, Note_on_c, 0, 81, 0
1, 808790, Note_on_c, 0, 69, 0
1, 808790, Note_on_c, 0, 57, 0
1, 808790, Note_on_c, 0, 45, 0
1, 808800, Note_on_c, 0, 83, 108
1, 808800, Note_on_c, 0, 71, 108
1, 808800, Note_on_c, 0, 59, 108
1, 808800, Note_on_c, 0, 47, 108
1, 809030, Note_on_c, 0, 83, 0
1, 809030, Note_on_c, 0, 71, 0
1, 809030, Note_on_c, 0, 59, 0
1, 809030, Note_on_c, 0, 47, 0
1, 809040, Note_on_c, 0, 81, 112
1, 809040, Note_on_c, 0, 69, 112
1, 809040, Note_on_c, 0, 57, 112
1, 809040, Note_on_c, 0, 45, 112
1, 809270, Note_on_c, 0, 81, 0
1, 809270, Note_on_c, 0, 69, 0
1, 809270, Note_on_c, 0, 57, 0
1, 809270, Note_on_c, 0, 45, 0
1, 809280, Note_on_c, 0, 83, 117
1, 809280, Note_on_c, 0, 71, 117
1, 809280, Note_on_c, 0, 59, 117
1, 809280, Note_on_c, 0, 47, 117
1, 809390, Note_on_c, 0, 83, 0
1, 809390, Note_on_c, 0, 71, 0
1, 809390, Note_on_c, 0, 59, 0
1, 809390, Note_on_c, 0, 47, 0
1, 809400, Note_on_c, 0, 85, 120
1, 809400, Note_on_c, 0, 73, 120
1, 809400, Note_on_c, 0, 61, 120
1, 809400, Note_on_c, 0, 49, 120
1, 809510, Note_on_c, 0, 85, 0
1, 809510, Note_on_c, 0, 73, 0
1, 809510, Note_on_c, 0, 61, 0
1, 809510, Note_on_c, 0, 49, 0
1, 809520, Time_signature, 4, 2, 24, 8
1, 809520, Tempo, 227272
1, 809520, Note_on_c, 0, 86, 120
1, 809520, Note_on_c, 0, 74, 120
1, 809520, Note_on_c, 0, 62, 120
1, 809520, Note_on_c, 0, 50, 120
1, 809750, Note_on_c, 0, 86, 0
1, 809750, Note_on_c, 0, 74, 0
1, 809750, Note_on_c, 0, 62, 0
1, 809750, Note_on_c, 0, 50, 0
1, 809760, Note_on_c, 0, 86, 120
1, 809760, Note_on_c, 0, 74, 120
1, 809760, Note_on_c, 0, 62, 120
1, 809760, Note_on_c, 0, 50, 120
1, 809990, Note_on_c, 0, 86, 0
1, 809990, Note_on_c, 0, 74, 0
1, 809990, Note_on_c, 0, 62, 0
1, 809990, Note_on_c, 0, 50, 0
1, 810000, Note_on_c, 0, 85, 120
1, 810000, Note_on_c, 0, 73, 120
1, 810000, Note_on_c, 0, 61, 120
1, 810000, Note_on_c, 0, 49, 120
1, 810230, Note_on_c, 0, 85, 0
1, 810230, Note_on_c, 0, 73, 0
1, 810230, Note_on_c, 0, 61, 0
1, 810230, Note_on_c, 0, 49, 0
1, 810240, Note_on_c, 0, 81, 120
1, 810240, Note_on_c, 0, 69, 120
1, 810240, Note_on_c, 0, 57, 120
1, 810240, Note_on_c, 0, 45, 120
1, 810470, Note_on_c, 0, 81, 0
1, 810470, Note_on_c, 0, 69, 0
1, 810470, Note_on_c, 0, 57, 0
1, 810470, Note_on_c, 0, 45, 0
1, 810480, Time_signature, 4, 2, 24, 8
1, 810480, Note_on_c, 0, 88, 120
1, 810480, Note_on_c, 0, 76, 120
1, 810480, Note_on_c, 0, 64, 120
1, 810480, Note_on_c, 0, 52, 120
1, 810710, Note_on_c, 0, 88, 0
1, 810710, Note_on_c, 0, 76, 0
1, 810710, Note_on_c, 0, 64, 0
1, 810710, Note_on_c, 0, 52, 0
1, 810720, Note_on_c, 0, 88, 120
1, 810720, Note_on_c, 0, 76, 120
1, 810720, Note_on_c, 0, 64, 120
1, 810720, Note_on_c, 0, 52, 120
1, 810950, Note_on_c, 0, 88, 0
1, 810950, Note_on_c, 0, 76, 0
1, 810950, Note_on_c, 0, 64, 0
1, 810950, Note_on_c, 0, 52, 0
1, 810960, Note_on_c, 0, 87, 120
1, 810960, Note_on_c, 0, 75, 120
1, 810960, Note_on_c, 0, 63, 120
1, 810960, Note_on_c, 0, 51, 120
1, 811190, Note_on_c, 0, 87, 0
1, 811190, Note_on_c, 0, 75, 0
1, 811190, Note_on_c, 0, 63, 0
1, 811190, Note_on_c, 0, 51, 0
1, 811200, Note_on_c, 0, 83, 120
1, 811200, Note_on_c, 0, 71, 120
1, 811200, Note_on_c, 0, 59, 120
1, 811200, Note_on_c, 0, 47, 120
1, 811430, Note_on_c, 0, 83, 0
1, 811430, Note_on_c, 0, 71, 0
1, 811430, Note_on_c, 0, 59, 0
1, 811430, Note_on_c, 0, 47, 0
1, 811440, Time_signature, 4, 2, 24, 8
1, 811440, Note_on_c, 0, 88, 120
1, 811440, Note_on_c, 0, 76, 120
1, 811440, Note_on_c, 0, 64, 120
1, 811440, Note_on_c, 0, 52, 120
1, 811670, Note_on_c, 0, 88, 0
1, 811670, Note_on_c, 0, 76, 0
1, 811670, Note_on_c, 0, 64, 0
1, 811670, Note_on_c, 0, 52, 0
1, 811680, Note_on_c, 0, 90, 120
1, 811680, Note_on_c, 0, 78, 120
1, 811680, Note_on_c, 0, 66, 120
1, 811680, Note_on_c, 0, 54, 120
1, 811910, Note_on_c, 0, 90, 0
1, 811910, Note_on_c, 0, 78, 0
1, 811910, Note_on_c, 0, 66, 0
1, 811910, Note_on_c, 0, 54, 0
1, 811920, Note_on_c, 0, 91, 120
1, 811920, Note_on_c, 0, 79, 120
1, 811920, Note_on_c, 0, 67, 120
1, 811920, Note_on_c, 0, 55, 120
1, 812150, Note_on_c, 0, 91, 0
1, 812150, Note_on_c, 0, 79, 0
1, 812150, Note_on_c, 0, 67, 0
1, 812150, Note_on_c, 0, 55, 0
1, 812160, Note_on_c, 0, 92, 120
1, 812160, Note_on_c, 0, 80, 120
1, 812160, Note_on_c, 0, 68, 120
1, 812160, Note_on_c, 0, 56, 120
1, 812390, Note_on_c, 0, 92, 0
1, 812390, Note_on_c, 0, 80, 0
1, 812390, Note_on_c, 0, 68, 0
1, 812390, Note_on_c, 0, 56, 0
1, 812400, Time_signature, 4, 2, 24, 8
1, 812400, Note_on_c, 0, 81, 120
1, 812400, Note_on_c, 0, 81, 120
1, 812400, Note_on_c, 0, 69, 120
1, 812400, Note_on_c, 0, 57, 120
1, 812630, Note_on_c, 0, 81, 0
1, 812630, Note_on_c, 0, 81, 0
1, 812630, Note_on_c, 0, 69, 0
1, 812630, Note_on_c, 0, 57, 0
1, 812640, Note_on_c, 0, 80, 120
1, 812640, Note_on_c, 0, 80, 120
1, 812870, Note_on_c, 0, 80, 0
1, 812870, Note_on_c, 0, 80, 0
1, 812880, Note_on_c, 0, 81, 120
1, 812880, Note_on_c, 0, 81, 120
1, 812880, Note_on_c, 0, 57, 120
1, 812880, Note_on_c, 0, 45, 120
1, 813110, Note_on_c, 0, 81, 0
1, 813110, Note_on_c, 0, 81, 0
1, 813110, Note_on_c, 0, 57, 0
1, 813110, Note_on_c, 0, 45, 0
1, 813120, Note_on_c, 0, 79, 120
1, 813120, Note_on_c, 0, 79, 120
1, 813120, Note_on_c, 0, 59, 120
1, 813120, Note_on_c, 0, 47, 120
1, 813230, Note_on_c, 0, 59, 0
1, 813230, Note_on_c, 0, 47, 0
1, 813240, Note_on_c, 0, 61, 120
1, 813240, Note_on_c, 0, 49, 120
1, 813350, Note_on_c, 0, 79, 0
1, 813350, Note_on_c, 0, 79, 0
1, 813350, Note_on_c, 0, 61, 0
1, 813350, Note_on_c, 0, 49, 0
1, 813360, Time_signature, 4, 2, 24, 8
1, 813360, Note_on_c, 0, 66, 120
1, 813360, Note_on_c, 0, 78, 120
1, 813360, Note_on_c, 0, 62, 120
1, 813360, Note_on_c, 0, 50, 120
1, 813590, Note_on_c, 0, 66, 0
1, 813590, Note_on_c, 0, 78, 0
1, 813590, Note_on_c, 0, 62, 0
1, 813590, Note_on_c, 0, 50, 0
1, 813600, Note_on_c, 0, 78, 120
1, 813600, Note_on_c, 0, 62, 120
1, 813600, Note_on_c, 0, 50, 120
1, 813710, Note_on_c, 0, 78, 0
1, 813720, Note_on_c, 0, 79, 120
1, 813830, Note_on_c, 0, 79, 0
1, 813830, Note_on_c, 0, 62, 0
1, 813830, Note_on_c, 0, 50, 0
1, 813840, Note_on_c, 0, 69, 120
1, 813840, Note_on_c, 0, 81, 120
1, 813840, Note_on_c, 0, 61, 120
1, 813840, Note_on_c, 0, 49, 120
1, 814070, Note_on_c, 0, 69, 0
1, 814070, Note_on_c, 0, 81, 0
1, 814070, Note_on_c, 0, 61, 0
1, 814070, Note_on_c, 0, 49, 0
1, 814080, Note_on_c, 0, 57, 120
1, 814080, Note_on_c, 0, 45, 120
1, 814310, Note_on_c, 0, 57, 0
1, 814310, Note_on_c, 0, 45, 0
1, 814320, Time_signature, 4, 2, 24, 8
1, 814320, Note_on_c, 0, 91, 120
1, 814320, Note_on_c, 0, 79, 120
1, 814320, Note_on_c, 0, 64, 120
1, 814320, Note_on_c, 0, 52, 120
1, 814550, Note_on_c, 0, 91, 0
1, 814550, Note_on_c, 0, 79, 0
1, 814550, Note_on_c, 0, 64, 0
1, 814550, Note_on_c, 0, 52, 0
1, 814560, Note_on_c, 0, 91, 120
1, 814560, Note_on_c, 0, 64, 120
1, 814560, Note_on_c, 0, 52, 120
1, 814670, Note_on_c, 0, 91, 0
1, 814680, Note_on_c, 0, 93, 120
1, 814790, Note_on_c, 0, 93, 0
1, 814790, Note_on_c, 0, 64, 0
1, 814790, Note_on_c, 0, 52, 0
1, 814800, Note_on_c, 0, 95, 120
1, 814800, Note_on_c, 0, 83, 120
1, 814800, Note_on_c, 0, 63, 120
1, 814800, Note_on_c, 0, 51, 120
1, 815030, Note_on_c, 0, 95, 0
1, 815030, Note_on_c, 0, 83, 0
1, 815030, Note_on_c, 0, 63, 0
1, 815030, Note_on_c, 0, 51, 0
1, 815040, Note_on_c, 0, 83, 120
1, 815040, Note_on_c, 0, 59, 120
1, 815040, Note_on_c, 0, 47, 120
1, 815150, Note_on_c, 0, 83, 0
1, 815160, Note_on_c, 0, 81, 120
1, 815270, Note_on_c, 0, 81, 0
1, 815270, Note_on_c, 0, 59, 0
1, 815270, Note_on_c, 0, 47, 0
1, 815280, Time_signature, 4, 2, 24, 8
1, 815280, Note_on_c, 0, 91, 120
1, 815280, Note_on_c, 0, 79, 120
1, 815280, Note_on_c, 0, 52, 120
1, 815280, Note_on_c, 0, 40, 120
1, 815510, Note_on_c, 0, 91, 0
1, 815510, Note_on_c, 0, 79, 0
1, 815510, Note_on_c, 0, 52, 0
1, 815510, Note_on_c, 0, 40, 0
1, 815520, Note_on_c, 0, 79, 120
1, 815520, Note_on_c, 0, 54, 120
1, 815520, Note_on_c, 0, 42, 120
1, 815630, Note_on_c, 0, 79, 0
1, 815640, Note_on_c, 0, 78, 120
1, 815750, Note_on_c, 0, 78, 0
1, 815750, Note_on_c, 0, 54, 0
1, 815750, Note_on_c, 0, 42, 0
1, 815760, Note_on_c, 0, 88, 120
1, 815760, Note_on_c, 0, 76, 120
1, 815760, Note_on_c, 0, 55, 120
1, 815760, Note_on_c, 0, 43, 120
1, 815990, Note_on_c, 0, 88, 0
1, 815990, Note_on_c, 0, 76, 0
1, 815990, Note_on_c, 0, 55, 0
1, 815990, Note_on_c, 0, 43, 0
1, 816000, Note_on_c, 0, 76, 120
1, 816000, Note_on_c, 0, 56, 120
1, 816000, Note_on_c, 0, 44, 120
1, 816110, Note_on_c, 0, 76, 0
1, 816120, Note_on_c, 0, 74, 120
1, 816230, Note_on_c, 0, 74, 0
1, 816230, Note_on_c, 0, 56, 0
1, 816230, Note_on_c, 0, 44, 0
1, 816240, Time_signature, 4, 2, 24, 8
1, 816240, Note_on_c, 0, 85, 120
1, 816240, Note_on_c, 0, 73, 120
1, 816240, Note_on_c, 0, 57, 120
1, 816240, Note_on_c, 0, 45, 120
1, 816470, Note_on_c, 0, 85, 0
1, 816470, Note_on_c, 0, 73, 0
1, 816470, Note_on_c, 0, 57, 0
1, 816470, Note_on_c, 0, 45, 0
1, 816480, Note_on_c, 0, 73, 120
1, 816480, Note_on_c, 0, 56, 120
1, 816480, Note_on_c, 0, 44, 120
1, 816590, Note_on_c, 0, 73, 0
1, 816600, Note_on_c, 0, 71, 120
1, 816710, Note_on_c, 0, 71, 0
1, 816710, Note_on_c, 0, 56, 0
1, 816710, Note_on_c, 0, 44, 0
1, 816720, Note_on_c, 0, 81, 120
1, 816720, Note_on_c, 0, 69, 120
1, 816720, Note_on_c, 0, 57, 120
1, 816720, Note_on_c, 0, 45, 120
1, 816950, Note_on_c, 0, 81, 0
1, 816950, Note_on_c, 0, 69, 0
1, 816950, Note_on_c, 0, 57, 0
1, 816950, Note_on_c, 0, 45, 0
1, 816960, Note_on_c, 0, 75, 120
1, 816960, Note_on_c, 0, 63, 120
1, 816960, Note_on_c, 0, 59, 120
1, 817070, Note_on_c, 0, 59, 0
1, 817080, Note_on_c, 0, 57, 120
1, 817190, Note_on_c, 0, 75, 0
1, 817190, Note_on_c, 0, 63, 0
1, 817190, Note_on_c, 0, 57, 0
1, 817200, Time_signature, 4, 2, 24, 8
1, 817200, Note_on_c, 0, 76, 120
1, 817200, Note_on_c, 0, 64, 120
1, 817200, Note_on_c, 0, 55, 120
1, 817200, Note_on_c, 0, 43, 120
1, 817430, Note_on_c, 0, 76, 0
1, 817430, Note_on_c, 0, 64, 0
1, 817430, Note_on_c, 0, 55, 0
1, 817430, Note_on_c, 0, 43, 0
1, 817440, Note_on_c, 0, 78, 120
1, 817440, Note_on_c, 0, 66, 120
1, 817440, Note_on_c, 0, 55, 120
1, 817550, Note_on_c, 0, 55, 0
1, 817560, Note_on_c, 0, 54, 120
1, 817670, Note_on_c, 0, 78, 0
1, 817670, Note_on_c, 0, 66, 0
1, 817670, Note_on_c, 0, 54, 0
1, 817680, Note_on_c, 0, 79, 120
1, 817680, Note_on_c, 0, 67, 120
1, 817680, Note_on_c, 0, 52, 120
1, 817680, Note_on_c, 0, 40, 120
1, 817910, Note_on_c, 0, 79, 0
1, 817910, Note_on_c, 0, 67, 0
1, 817910, Note_on_c, 0, 52, 0
1, 817910, Note_on_c, 0, 40, 0
1, 817920, Note_on_c, 0, 80, 120
1, 817920, Note_on_c, 0, 68, 120
1, 817920, Note_on_c, 0, 52, 120
1, 818030, Note_on_c, 0, 52, 0
1, 818040, Note_on_c, 0, 50, 120
1, 818150, Note_on_c, 0, 80, 0
1, 818150, Note_on_c, 0, 68, 0
1, 818150, Note_on_c, 0, 50, 0
1, 818160, Time_signature, 4, 2, 24, 8
1, 818160, Note_on_c, 0, 81, 120
1, 818160, Note_on_c, 0, 69, 120
1, 818160, Note_on_c, 0, 49, 120
1, 818160, Note_on_c, 0, 37, 120
1, 818390, Note_on_c, 0, 81, 0
1, 818390, Note_on_c, 0, 69, 0
1, 818390, Note_on_c, 0, 49, 0
1, 818390, Note_on_c, 0, 37, 0
1, 818400, Note_on_c, 0, 76, 120
1, 818400, Note_on_c, 0, 80, 120
1, 818400, Note_on_c, 0, 68, 120
1, 818400, Note_on_c, 0, 49, 120
1, 818510, Note_on_c, 0, 49, 0
1, 818520, Note_on_c, 0, 47, 120
1, 818630, Note_on_c, 0, 76, 0
1, 818630, Note_on_c, 0, 80, 0
1, 818630, Note_on_c, 0, 68, 0
1, 818630, Note_on_c, 0, 47, 0
1, 818640, Note_on_c, 0, 81, 120
1, 818640, Note_on_c, 0, 69, 120
1, 818640, Note_on_c, 0, 45, 120
1, 818640, Note_on_c, 0, 33, 120
1, 818750, Note_on_c, 0, 69, 0
1, 818760, Note_on_c, 0, 71, 120
1, 818870, Note_on_c, 0, 81, 0
1, 818870, Note_on_c, 0, 71, 0
1, 818870, Note_on_c, 0, 45, 0
1, 818870, Note_on_c, 0, 33, 0
1, 818880, Note_on_c, 0, 73, 120
1, 818880, Note_on_c, 0, 57, 120
1, 818880, Note_on_c, 0, 45, 120
1, 818990, Note_on_c, 0, 73, 0
1, 819000, Note_on_c, 0, 74, 120
1, 819110, Note_on_c, 0, 74, 0
1, 819110, Note_on_c, 0, 57, 0
1, 819110, Note_on_c, 0, 45, 0
1, 819120, Time_signature, 4, 2, 24, 8
1, 819120, Note_on_c, 0, 69, 120
1, 819120, Note_on_c, 0, 76, 120
1, 819120, Note_on_c, 0, 64, 120
1, 819120, Note_on_c, 0, 43, 120
1, 819230, Note_on_c, 0, 43, 0
1, 819239, Control_c, 0, 64, 127
1, 819240, Note_on_c, 0, 55, 120
1, 819350, Note_on_c, 0, 55, 0
1, 819360, Note_on_c, 0, 45, 120
1, 819470, Note_on_c, 0, 69, 0
1, 819470, Note_on_c, 0, 76, 0
1, 819470, Note_on_c, 0, 64, 0
1, 819470, Note_on_c, 0, 45, 0
1, 819480, Note_on_c, 0, 78, 120
1, 819480, Note_on_c, 0, 66, 120
1, 819480, Note_on_c, 0, 57, 120
1, 819590, Note_on_c, 0, 78, 0
1, 819590, Note_on_c, 0, 66, 0
1, 819590, Note_on_c, 0, 57, 0
1, 819600, Note_on_c, 0, 69, 120
1, 819600, Note_on_c, 0, 76, 120
1, 819600, Note_on_c, 0, 64, 120
1, 819600, Note_on_c, 0, 43, 120
1, 819710, Note_on_c, 0, 43, 0
1, 819720, Note_on_c, 0, 55, 120
1, 819727, Control_c, 0, 64, 0
1, 819830, Note_on_c, 0, 69, 0
1, 819830, Note_on_c, 0, 76, 0
1, 819830, Note_on_c, 0, 64, 0
1, 819830, Note_on_c, 0, 55, 0
1, 819840, Note_on_c, 0, 69, 120
1, 819840, Note_on_c, 0, 74, 120
1, 819840, Note_on_c, 0, 62, 120
1, 819840, Note_on_c, 0, 42, 120
1, 819950, Note_on_c, 0, 42, 0
1, 819960, Note_on_c, 0, 54, 120
1, 820035, Control_c, 0, 64, 127
1, 820070, Note_on_c, 0, 69, 0
1, 820070, Note_on_c, 0, 74, 0
1, 820070, Note_on_c, 0, 62, 0
1, 820070, Note_on_c, 0, 54, 0
1, 820080, Time_signature, 4, 2, 24, 8
1, 820080, Note_on_c, 0, 69, 120
1, 820080, Note_on_c, 0, 76, 120
1, 820080, Note_on_c, 0, 64, 120
1, 820080, Note_on_c, 0, 43, 120
1, 820190, Note_on_c, 0, 43, 0
1, 820200, Note_on_c, 0, 55, 120
1, 820310, Note_on_c, 0, 55, 0
1, 820320, Note_on_c, 0, 45, 120
1, 820430, Note_on_c, 0, 69, 0
1, 820430, Note_on_c, 0, 76, 0
1, 820430, Note_on_c, 0, 64, 0
1, 820430, Note_on_c, 0, 45, 0
1, 820440, Note_on_c, 0, 78, 120
1, 820440, Note_on_c, 0, 66, 120
1, 820440, Note_on_c, 0, 57, 120
1, 820534, Control_c, 0, 64, 0
1, 820550, Note_on_c, 0, 78, 0
1, 820550, Note_on_c, 0, 66, 0
1, 820550, Note_on_c, 0, 57, 0
1, 820560, Note_on_c, 0, 69, 120
1, 820560, Note_on_c, 0, 76, 120
1, 820560, Note_on_c, 0, 64, 120
1, 820560, Note_on_c, 0, 43, 120
1, 820670, Note_on_c, 0, 43, 0
1, 820680, Note_on_c, 0, 55, 120
1, 820790, Note_on_c, 0, 69, 0
1, 820790, Note_on_c, 0, 76, 0
1, 820790, Note_on_c, 0, 64, 0
1, 820790, Note_on_c, 0, 55, 0
1, 820800, Note_on_c, 0, 69, 120
1, 820800, Note_on_c, 0, 74, 120
1, 820800, Note_on_c, 0, 62, 120
1, 820800, Note_on_c, 0, 42, 120
1, 820910, Note_on_c, 0, 42, 0
1, 820920, Note_on_c, 0, 54, 120
1, 821030, Note_on_c, 0, 69, 0
1, 821030, Note_on_c, 0, 74, 0
1, 821030, Note_on_c, 0, 62, 0
1, 821030, Note_on_c, 0, 54, 0
1, 821040, Time_signature, 4, 2, 24, 8
1, 821040, Note_on_c, 0, 69, 120
1, 821040, Note_on_c, 0, 76, 120
1, 821040, Note_on_c, 0, 64, 120
1, 821040, Note_on_c, 0, 43, 120
1, 821111, Control_c, 0, 64, 127
1, 821150, Note_on_c, 0, 43, 0
1, 821160, Note_on_c, 0, 55, 120
1, 821270, Note_on_c, 0, 55, 0
1, 821280, Note_on_c, 0, 45, 120
1, 821390, Note_on_c, 0, 69, 0
1, 821390, Note_on_c, 0, 76, 0
1, 821390, Note_on_c, 0, 64, 0
1, 821390, Note_on_c, 0, 45, 0
1, 821400, Note_on_c, 0, 78, 120
1, 821400, Note_on_c, 0, 66, 120
1, 821400, Note_on_c, 0, 57, 120
1, 821510, Note_on_c, 0, 78, 0
1, 821510, Note_on_c, 0, 66, 0
1, 821510, Note_on_c, 0, 57, 0
1, 821520, Note_on_c, 0, 69, 120
1, 821520, Note_on_c, 0, 76, 120
1, 821520, Note_on_c, 0, 64, 120
1, 821520, Note_on_c, 0, 43, 120
1, 821593, Control_c, 0, 64, 0
1, 821630, Note_on_c, 0, 43, 0
1, 821640, Note_on_c, 0, 55, 120
1, 821750, Note_on_c, 0, 69, 0
1, 821750, Note_on_c, 0, 76, 0
1, 821750, Note_on_c, 0, 64, 0
1, 821750, Note_on_c, 0, 55, 0
1, 821760, Note_on_c, 0, 69, 120
1, 821760, Note_on_c, 0, 74, 120
1, 821760, Note_on_c, 0, 62, 120
1, 821760, Note_on_c, 0, 42, 120
1, 821870, Note_on_c, 0, 42, 0
1, 821880, Note_on_c, 0, 54, 120
1, 821990, Note_on_c, 0, 69, 0
1, 821990, Note_on_c, 0, 74, 0
1, 821990, Note_on_c, 0, 62, 0
1, 821990, Note_on_c, 0, 54, 0
1, 822000, Time_signature, 4, 2, 24, 8
1, 822000, Note_on_c, 0, 69, 120
1, 822000, Note_on_c, 0, 76, 120
1, 822000, Note_on_c, 0, 64, 120
1, 822000, Note_on_c, 0, 43, 120
1, 822107, Control_c, 0, 64, 127
1, 822110, Note_on_c, 0, 43, 0
1, 822120, Note_on_c, 0, 55, 120
1, 822230, Note_on_c, 0, 55, 0
1, 822240, Note_on_c, 0, 45, 120
1, 822350, Note_on_c, 0, 69, 0
1, 822350, Note_on_c, 0, 76, 0
1, 822350, Note_on_c, 0, 64, 0
1, 822350, Note_on_c, 0, 45, 0
1, 822360, Note_on_c, 0, 78, 120
1, 822360, Note_on_c, 0, 66, 120
1, 822360, Note_on_c, 0, 57, 120
1, 822470, Note_on_c, 0, 78, 0
1, 822470, Note_on_c, 0, 66, 0
1, 822470, Note_on_c, 0, 57, 0
1, 822480, Note_on_c, 0, 69, 120
1, 822480, Note_on_c, 0, 76, 120
1, 822480, Note_on_c, 0, 64, 120
1, 822480, Note_on_c, 0, 43, 120
1, 822590, Note_on_c, 0, 43, 0
1, 822600, Note_on_c, 0, 55, 120
1, 822613, Control_c, 0, 64, 0
1, 822710, Note_on_c, 0, 69, 0
1, 822710, Note_on_c, 0, 76, 0
1, 822710, Note_on_c, 0, 64, 0
1, 822710, Note_on_c, 0, 55, 0
1, 822720, Note_on_c, 0, 69, 120
1, 822720, Note_on_c, 0, 74, 120
1, 822720, Note_on_c, 0, 62, 120
1, 822720, Note_on_c, 0, 42, 120
1, 822830, Note_on_c, 0, 42, 0
1, 822840, Note_on_c, 0, 54, 120
1, 822950, Note_on_c, 0, 69, 0
1, 822950, Note_on_c, 0, 74, 0
1, 822950, Note_on_c, 0, 62, 0
1, 822950, Note_on_c, 0, 54, 0
1, 822960, Time_signature, 4, 2, 24, 8
1, 822960, Note_on_c, 0, 69, 120
1, 822960, Note_on_c, 0, 64, 120
1, 822960, Note_on_c, 0, 55, 120
1, 823014, Control_c, 0, 64, 127
1, 823070, Note_on_c, 0, 69, 0
1, 823080, Note_on_c, 0, 81, 120
1, 823190, Note_on_c, 0, 81, 0
1, 823200, Note_on_c, 0, 81, 120
1, 823310, Note_on_c, 0, 81, 0
1, 823310, Note_on_c, 0, 64, 0
1, 823310, Note_on_c, 0, 55, 0
1, 823320, Note_on_c, 0, 93, 120
1, 823320, Note_on_c, 0, 66, 120
1, 823320, Note_on_c, 0, 57, 120
1, 823430, Note_on_c, 0, 93, 0
1, 823430, Note_on_c, 0, 66, 0
1, 823430, Note_on_c, 0, 57, 0
1, 823440, Note_on_c, 0, 81, 120
1, 823440, Note_on_c, 0, 64, 120
1, 823440, Note_on_c, 0, 55, 120
1, 823488, Control_c, 0, 64, 0
1, 823550, Note_on_c, 0, 81, 0
1, 823560, Note_on_c, 0, 81, 120
1, 823670, Note_on_c, 0, 81, 0
1, 823670, Note_on_c, 0, 64, 0
1, 823670, Note_on_c, 0, 55, 0
1, 823680, Note_on_c, 0, 69, 120
1, 823680, Note_on_c, 0, 62, 120
1, 823680, Note_on_c, 0, 54, 120
1, 823790, Note_on_c, 0, 69, 0
1, 823800, Note_on_c, 0, 81, 120
1, 823877, Control_c, 0, 64, 127
1, 823910, Note_on_c, 0, 81, 0
1, 823910, Note_on_c, 0, 62, 0
1, 823910, Note_on_c, 0, 54, 0
1, 823920, Time_signature, 4, 2, 24, 8
1, 823920, Note_on_c, 0, 69, 120
1, 823920, Note_on_c, 0, 64, 120
1, 823920, Note_on_c, 0, 55, 120
1, 824030, Note_on_c, 0, 69, 0
1, 824040, Note_on_c, 0, 81, 120
1, 824150, Note_on_c, 0, 81, 0
1, 824160, Note_on_c, 0, 81, 120
1, 824270, Note_on_c, 0, 81, 0
1, 824270, Note_on_c, 0, 64, 0
1, 824270, Note_on_c, 0, 55, 0
1, 824280, Note_on_c, 0, 93, 120
1, 824280, Note_on_c, 0, 66, 120
1, 824280, Note_on_c, 0, 57, 120
1, 824390, Note_on_c, 0, 93, 0
1, 824390, Note_on_c, 0, 66, 0
1, 824390, Note_on_c, 0, 57, 0
1, 824400, Note_on_c, 0, 81, 120
1, 824400, Note_on_c, 0, 64, 120
1, 824400, Note_on_c, 0, 55, 120
1, 824454, Control_c, 0, 64, 0
1, 824510, Note_on_c, 0, 81, 0
1, 824520, Note_on_c, 0, 81, 120
1, 824630, Note_on_c, 0, 81, 0
1, 824630, Note_on_c, 0, 64, 0
1, 824630, Note_on_c, 0, 55, 0
1, 824640, Note_on_c, 0, 69, 120
1, 824640, Note_on_c, 0, 62, 120
1, 824640, Note_on_c, 0, 54, 120
1, 824750, Note_on_c, 0, 69, 0
1, 824760, Note_on_c, 0, 81, 120
1, 824870, Note_on_c, 0, 81, 0
1, 824870, Note_on_c, 0, 62, 0
1, 824870, Note_on_c, 0, 54, 0
1, 824880, Time_signature, 4, 2, 24, 8
1, 824880, Note_on_c, 0, 69, 120
1, 824880, Note_on_c, 0, 64, 120
1, 824880, Note_on_c, 0, 55, 120
1, 824990, Note_on_c, 0, 69, 0
1, 825000, Note_on_c, 0, 81, 120
1, 825020, Control_c, 0, 64, 127
1, 825110, Note_on_c, 0, 81, 0
1, 825120, Note_on_c, 0, 81, 120
1, 825230, Note_on_c, 0, 81, 0
1, 825230, Note_on_c, 0, 64, 0
1, 825230, Note_on_c, 0, 55, 0
1, 825240, Note_on_c, 0, 93, 120
1, 825240, Note_on_c, 0, 66, 120
1, 825240, Note_on_c, 0, 57, 120
1, 825350, Note_on_c, 0, 93, 0
1, 825350, Note_on_c, 0, 66, 0
1, 825350, Note_on_c, 0, 57, 0
1, 825360, Note_on_c, 0, 81, 120
1, 825360, Note_on_c, 0, 64, 120
1, 825360, Note_on_c, 0, 55, 120
1, 825470, Note_on_c, 0, 81, 0
1, 825480, Note_on_c, 0, 81, 120
1, 825530, Control_c, 0, 64, 0
1, 825590, Note_on_c, 0, 81, 0
1, 825590, Note_on_c, 0, 64, 0
1, 825590, Note_on_c, 0, 55, 0
1, 825600, Note_on_c, 0, 69, 120
1, 825600, Note_on_c, 0, 62, 120
1, 825600, Note_on_c, 0, 54, 120
1, 825710, Note_on_c, 0, 69, 0
1, 825720, Note_on_c, 0, 81, 120
1, 825830, Note_on_c, 0, 81, 0
1, 825830, Note_on_c, 0, 62, 0
1, 825830, Note_on_c, 0, 54, 0
1, 825840, Time_signature, 4, 2, 24, 8
1, 825840, Note_on_c, 0, 69, 120
1, 825840, Note_on_c, 0, 64, 120
1, 825840, Note_on_c, 0, 55, 120
1, 825950, Note_on_c, 0, 69, 0
1, 825960, Note_on_c, 0, 81, 120
1, 826013, Control_c, 0, 64, 127
1, 826070, Note_on_c, 0, 81, 0
1, 826080, Note_on_c, 0, 81, 120
1, 826190, Note_on_c, 0, 81, 0
1, 826190, Note_on_c, 0, 64, 0
1, 826190, Note_on_c, 0, 55, 0
1, 826200, Note_on_c, 0, 93, 120
1, 826200, Note_on_c, 0, 66, 120
1, 826200, Note_on_c, 0, 57, 120
1, 826310, Note_on_c, 0, 93, 0
1, 826310, Note_on_c, 0, 66, 0
1, 826310, Note_on_c, 0, 57, 0
1, 826320, Note_on_c, 0, 81, 120
1, 826320, Note_on_c, 0, 64, 120
1, 826320, Note_on_c, 0, 55, 120
1, 826430, Note_on_c, 0, 81, 0
1, 826440, Note_on_c, 0, 93, 120
1, 826468, Control_c, 0, 64, 0
1, 826550, Note_on_c, 0, 93, 0
1, 826550, Note_on_c, 0, 64, 0
1, 826550, Note_on_c, 0, 55, 0
1, 826560, Note_on_c, 0, 81, 120
1, 826560, Note_on_c, 0, 62, 120
1, 826560, Note_on_c, 0, 54, 120
1, 826670, Note_on_c, 0, 81, 0
1, 826680, Note_on_c, 0, 93, 120
1, 826790, Note_on_c, 0, 93, 0
1, 826790, Note_on_c, 0, 62, 0
1, 826790, Note_on_c, 0, 54, 0
1, 826800, Time_signature, 4, 2, 24, 8
1, 826800, Note_on_c, 0, 85, 120
1, 826800, Note_on_c, 0, 81, 120
1, 826800, Note_on_c, 0, 52, 120
1, 826910, Note_on_c, 0, 85, 0
1, 826910, Note_on_c, 0, 81, 0
1, 826916, Control_c, 0, 64, 127
1, 826920, Note_on_c, 0, 93, 120
1, 827030, Note_on_c, 0, 93, 0
1, 827030, Note_on_c, 0, 52, 0
1, 827040, Note_on_c, 0, 79, 120
1, 827040, Note_on_c, 0, 61, 120
1, 827040, Note_on_c, 0, 67, 120
1, 827040, Note_on_c, 0, 57, 120
1, 827150, Note_on_c, 0, 79, 0
1, 827160, Note_on_c, 0, 91, 120
1, 827270, Note_on_c, 0, 91, 0
1, 827270, Note_on_c, 0, 61, 0
1, 827270, Note_on_c, 0, 67, 0
1, 827270, Note_on_c, 0, 57, 0
1, 827280, Note_on_c, 0, 86, 120
1, 827280, Note_on_c, 0, 79, 120
1, 827280, Note_on_c, 0, 50, 120
1, 827289, Control_c, 0, 64, 0
1, 827390, Note_on_c, 0, 86, 0
1, 827390, Note_on_c, 0, 79, 0
1, 827400, Note_on_c, 0, 91, 120
1, 827510, Note_on_c, 0, 91, 0
1, 827510, Note_on_c, 0, 50, 0
1, 827520, Note_on_c, 0, 78, 120
1, 827520, Note_on_c, 0, 62, 120
1, 827520, Note_on_c, 0, 66, 120
1, 827520, Note_on_c, 0, 57, 120
1, 827630, Note_on_c, 0, 78, 0
1, 827640, Note_on_c, 0, 90, 120
1, 827750, Note_on_c, 0, 90, 0
1, 827750, Note_on_c, 0, 62, 0
1, 827750, Note_on_c, 0, 66, 0
1, 827750, Note_on_c, 0, 57, 0
1, 827760, Time_signature, 4, 2, 24, 8
1, 827760, Note_on_c, 0, 81, 120
1, 827760, Note_on_c, 0, 78, 120
1, 827760, Note_on_c, 0, 43, 120
1, 827870, Note_on_c, 0, 81, 0
1, 827870, Note_on_c, 0, 78, 0
1, 827880, Note_on_c, 0, 90, 120
1, 827937, Control_c, 0, 64, 127
1, 827990, Note_on_c, 0, 90, 0
1, 827990, Note_on_c, 0, 43, 0
1, 828000, Note_on_c, 0, 79, 120
1, 828000, Note_on_c, 0, 76, 120
1, 828000, Note_on_c, 0, 59, 120
1, 828000, Note_on_c, 0, 64, 120
1, 828000, Note_on_c, 0, 55, 120
1, 828110, Note_on_c, 0, 79, 0
1, 828110, Note_on_c, 0, 76, 0
1, 828120, Note_on_c, 0, 88, 120
1, 828173, Control_c, 0, 64, 0
1, 828230, Note_on_c, 0, 88, 0
1, 828230, Note_on_c, 0, 59, 0
1, 828230, Note_on_c, 0, 64, 0
1, 828230, Note_on_c, 0, 55, 0
1, 828240, Note_on_c, 0, 83, 120
1, 828240, Note_on_c, 0, 79, 120
1, 828240, Note_on_c, 0, 43, 120
1, 828350, Note_on_c, 0, 83, 0
1, 828350, Note_on_c, 0, 79, 0
1, 828360, Note_on_c, 0, 91, 120
1, 828371, Control_c, 0, 64, 127
1, 828470, Note_on_c, 0, 91, 0
1, 828470, Note_on_c, 0, 43, 0
1, 828480, Note_on_c, 0, 79, 120
1, 828480, Note_on_c, 0, 76, 120
1, 828480, Note_on_c, 0, 59, 120
1, 828480, Note_on_c, 0, 64, 120
1, 828480, Note_on_c, 0, 55, 120
1, 828590, Note_on_c, 0, 79, 0
1, 828590, Note_on_c, 0, 76, 0
1, 828600, Note_on_c, 0, 88, 120
1, 828710, Note_on_c, 0, 88, 0
1, 828710, Note_on_c, 0, 59, 0
1, 828710, Note_on_c, 0, 64, 0
1, 828710, Note_on_c, 0, 55, 0
1, 828720, Time_signature, 4, 2, 24, 8
1, 828720, Note_on_c, 0, 79, 120
1, 828720, Note_on_c, 0, 76, 120
1, 828720, Note_on_c, 0, 45, 120
1, 828758, Control_c, 0, 64, 0
1, 828830, Note_on_c, 0, 79, 0
1, 828830, Note_on_c, 0, 76, 0
1, 828840, Note_on_c, 0, 88, 120
1, 828950, Note_on_c, 0, 88, 0
1, 828950, Note_on_c, 0, 45, 0
1, 828960, Note_on_c, 0, 78, 120
1, 828960, Note_on_c, 0, 74, 120
1, 828960, Note_on_c, 0, 57, 120
1, 828960, Note_on_c, 0, 62, 120
1, 828960, Note_on_c, 0, 54, 120
1, 828989, Control_c, 0, 64, 127
1, 829070, Note_on_c, 0, 78, 0
1, 829070, Note_on_c, 0, 74, 0
1, 829080, Note_on_c, 0, 86, 120
1, 829190, Note_on_c, 0, 86, 0
1, 829190, Note_on_c, 0, 57, 0
1, 829190, Note_on_c, 0, 62, 0
1, 829190, Note_on_c, 0, 54, 0
1, 829200, Note_on_c, 0, 81, 120
1, 829200, Note_on_c, 0, 74, 120
1, 829200, Note_on_c, 0, 43, 120
1, 829218, Control_c, 0, 64, 0
1, 829310, Note_on_c, 0, 81, 0
1, 829310, Note_on_c, 0, 74, 0
1, 829320, Note_on_c, 0, 86, 120
1, 829430, Note_on_c, 0, 86, 0
1, 829430, Note_on_c, 0, 43, 0
1, 829440, Note_on_c, 0, 81, 120
1, 829440, Note_on_c, 0, 73, 120
1, 829440, Note_on_c, 0, 57, 120
1, 829440, Note_on_c, 0, 61, 120
1, 829440, Note_on_c, 0, 52, 120
1, 829478, Control_c, 0, 64, 127
1, 829550, Note_on_c, 0, 81, 0
1, 829550, Note_on_c, 0, 73, 0
1, 829560, Note_on_c, 0, 85, 120
1, 829649, Control_c, 0, 64, 0
1, 829670, Note_on_c, 0, 85, 0
1, 829670, Note_on_c, 0, 57, 0
1, 829670, Note_on_c, 0, 61, 0
1, 829670, Note_on_c, 0, 52, 0
1, 829680, Time_signature, 4, 2, 24, 8
1, 829680, Note_on_c, 0, 86, 120
1, 829680, Note_on_c, 0, 83, 120
1, 829680, Note_on_c, 0, 54, 120
1, 829680, Note_on_c, 0, 42, 120
1, 829790, Note_on_c, 0, 86, 0
1, 829790, Note_on_c, 0, 83, 0
1, 829800, Note_on_c, 0, 95, 120
1, 829910, Note_on_c, 0, 95, 0
1, 829910, Note_on_c, 0, 54, 0
1, 829910, Note_on_c, 0, 42, 0
1, 829917, Control_c, 0, 64, 127
1, 829920, Note_on_c, 0, 86, 120
1, 829920, Note_on_c, 0, 83, 120
1, 829920, Note_on_c, 0, 66, 120
1, 829920, Note_on_c, 0, 71, 120
1, 829920, Note_on_c, 0, 62, 120
1, 830030, Note_on_c, 0, 86, 0
1, 830030, Note_on_c, 0, 83, 0
1, 830040, Note_on_c, 0, 95, 120
1, 830150, Note_on_c, 0, 95, 0
1, 830150, Note_on_c, 0, 66, 0
1, 830150, Note_on_c, 0, 71, 0
1, 830150, Note_on_c, 0, 62, 0
1, 830160, Note_on_c, 0, 86, 120
1, 830160, Note_on_c, 0, 81, 120
1, 830160, Note_on_c, 0, 54, 120
1, 830252, Control_c, 0, 64, 0
1, 830270, Note_on_c, 0, 86, 0
1, 830270, Note_on_c, 0, 81, 0
1, 830280, Note_on_c, 0, 93, 120
1, 830390, Note_on_c, 0, 93, 0
1, 830390, Note_on_c, 0, 54, 0
1, 830400, Note_on_c, 0, 86, 120
1, 830400, Note_on_c, 0, 81, 120
1, 830400, Note_on_c, 0, 66, 120
1, 830400, Note_on_c, 0, 69, 120
1, 830400, Note_on_c, 0, 62, 120
1, 830477, Control_c, 0, 64, 127
1, 830510, Note_on_c, 0, 86, 0
1, 830510, Note_on_c, 0, 81, 0
1, 830520, Note_on_c, 0, 93, 120
1, 830630, Note_on_c, 0, 93, 0
1, 830630, Note_on_c, 0, 66, 0
1, 830630, Note_on_c, 0, 69, 0
1, 830630, Note_on_c, 0, 62, 0
1, 830640, Time_signature, 4, 2, 24, 8
1, 830640, Note_on_c, 0, 83, 120
1, 830640, Note_on_c, 0, 81, 120
1, 830640, Note_on_c, 0, 52, 120
1, 830694, Control_c, 0, 64, 0
1, 830750, Note_on_c, 0, 83, 0
1, 830750, Note_on_c, 0, 81, 0
1, 830760, Note_on_c, 0, 93, 120
1, 830870, Note_on_c, 0, 93, 0
1, 830870, Note_on_c, 0, 52, 0
1, 830880, Note_on_c, 0, 85, 120
1, 830880, Note_on_c, 0, 79, 120
1, 830880, Note_on_c, 0, 61, 120
1, 830880, Note_on_c, 0, 67, 120
1, 830880, Note_on_c, 0, 57, 120
1, 830972, Control_c, 0, 64, 127
1, 830990, Note_on_c, 0, 85, 0
1, 830990, Note_on_c, 0, 79, 0
1, 831000, Note_on_c, 0, 91, 120
1, 831110, Note_on_c, 0, 91, 0
1, 831110, Note_on_c, 0, 61, 0
1, 831110, Note_on_c, 0, 67, 0
1, 831110, Note_on_c, 0, 57, 0
1, 831120, Note_on_c, 0, 88, 120
1, 831120, Note_on_c, 0, 79, 120
1, 831120, Note_on_c, 0, 50, 120
1, 831230, Note_on_c, 0, 88, 0
1, 831230, Note_on_c, 0, 79, 0
1, 831240, Note_on_c, 0, 91, 120
1, 831282, Control_c, 0, 64, 0
1, 831350, Note_on_c, 0, 91, 0
1, 831350, Note_on_c, 0, 50, 0
1, 831360, Note_on_c, 0, 86, 120
1, 831360, Note_on_c, 0, 78, 120
1, 831360, Note_on_c, 0, 62, 120
1, 831360, Note_on_c, 0, 66, 120
1, 831360, Note_on_c, 0, 57, 120
1, 831458, Control_c, 0, 64, 127
1, 831470, Note_on_c, 0, 86, 0
1, 831470, Note_on_c, 0, 78, 0
1, 831480, Note_on_c, 0, 90, 120
1, 831590, Note_on_c, 0, 90, 0
1, 831590, Note_on_c, 0, 62, 0
1, 831590, Note_on_c, 0, 66, 0
1, 831590, Note_on_c, 0, 57, 0
1, 831600, Time_signature, 4, 2, 24, 8
1, 831600, Note_on_c, 0, 81, 120
1, 831600, Note_on_c, 0, 78, 120
1, 831600, Note_on_c, 0, 43, 120
1, 831666, Control_c, 0, 64, 0
1, 831710, Note_on_c, 0, 81, 0
1, 831710, Note_on_c, 0, 78, 0
1, 831720, Note_on_c, 0, 90, 120
1, 831830, Note_on_c, 0, 90, 0
1, 831830, Note_on_c, 0, 43, 0
1, 831840, Note_on_c, 0, 79, 120
1, 831840, Note_on_c, 0, 76, 120
1, 831840, Note_on_c, 0, 59, 120
1, 831840, Note_on_c, 0, 64, 120
1, 831840, Note_on_c, 0, 55, 120
1, 831950, Note_on_c, 0, 79, 0
1, 831950, Note_on_c, 0, 76, 0
1, 831958, Control_c, 0, 64, 127
1, 831960, Note_on_c, 0, 88, 120
1, 832070, Note_on_c, 0, 88, 0
1, 832070, Note_on_c, 0, 59, 0
1, 832070, Note_on_c, 0, 64, 0
1, 832070, Note_on_c, 0, 55, 0
1, 832080, Note_on_c, 0, 83, 120
1, 832080, Note_on_c, 0, 79, 120
1, 832080, Note_on_c, 0, 43, 120
1, 832176, Control_c, 0, 64, 0
1, 832190, Note_on_c, 0, 83, 0
1, 832190, Note_on_c, 0, 79, 0
1, 832200, Note_on_c, 0, 91, 120
1, 832310, Note_on_c, 0, 91, 0
1, 832310, Note_on_c, 0, 43, 0
1, 832320, Note_on_c, 0, 79, 120
1, 832320, Note_on_c, 0, 76, 120
1, 832320, Note_on_c, 0, 59, 120
1, 832320, Note_on_c, 0, 64, 120
1, 832320, Note_on_c, 0, 55, 120
1, 832379, Control_c, 0, 64, 127
1, 832430, Note_on_c, 0, 79, 0
1, 832430, Note_on_c, 0, 76, 0
1, 832440, Note_on_c, 0, 88, 120
1, 832550, Note_on_c, 0, 88, 0
1, 832550, Note_on_c, 0, 59, 0
1, 832550, Note_on_c, 0, 64, 0
1, 832550, Note_on_c, 0, 55, 0
1, 832560, Time_signature, 4, 2, 24, 8
1, 832560, Note_on_c, 0, 79, 120
1, 832560, Note_on_c, 0, 76, 120
1, 832560, Note_on_c, 0, 45, 120
1, 832611, Control_c, 0, 64, 0
1, 832670, Note_on_c, 0, 79, 0
1, 832670, Note_on_c, 0, 76, 0
1, 832680, Note_on_c, 0, 88, 120
1, 832790, Note_on_c, 0, 88, 0
1, 832790, Note_on_c, 0, 45, 0
1, 832800, Note_on_c, 0, 78, 120
1, 832800, Note_on_c, 0, 74, 120
1, 832800, Note_on_c, 0, 57, 120
1, 832800, Note_on_c, 0, 62, 120
1, 832800, Note_on_c, 0, 54, 120
1, 832820, Control_c, 0, 64, 127
1, 832910, Note_on_c, 0, 78, 0
1, 832910, Note_on_c, 0, 74, 0
1, 832920, Note_on_c, 0, 86, 120
1, 833030, Note_on_c, 0, 86, 0
1, 833030, Note_on_c, 0, 57, 0
1, 833030, Note_on_c, 0, 62, 0
1, 833030, Note_on_c, 0, 54, 0
1, 833040, Note_on_c, 0, 78, 120
1, 833040, Note_on_c, 0, 74, 120
1, 833040, Note_on_c, 0, 45, 120
1, 833098, Control_c, 0, 64, 0
1, 833150, Note_on_c, 0, 78, 0
1, 833150, Note_on_c, 0, 74, 0
1, 833160, Note_on_c, 0, 86, 120
1, 833270, Note_on_c, 0, 86, 0
1, 833270, Note_on_c, 0, 45, 0
1, 833280, Note_on_c, 0, 76, 120
1, 833280, Note_on_c, 0, 73, 120
1, 833280, Note_on_c, 0, 57, 120
1, 833280, Note_on_c, 0, 61, 120
1, 833280, Note_on_c, 0, 52, 120
1, 833300, Control_c, 0, 64, 127
1, 833390, Note_on_c, 0, 76, 0
1, 833390, Note_on_c, 0, 73, 0
1, 833400, Note_on_c, 0, 85, 120
1, 833453, Control_c, 0, 64, 0
1, 833510, Note_on_c, 0, 85, 0
1, 833510, Note_on_c, 0, 57, 0
1, 833510, Note_on_c, 0, 61, 0
1, 833510, Note_on_c, 0, 52, 0
1, 833520, Time_signature, 4, 2, 24, 8
1, 833520, Note_on_c, 0, 86, 120
1, 833520, Note_on_c, 0, 74, 120
1, 833520, Note_on_c, 0, 62, 120
1, 833520, Note_on_c, 0, 50, 120
1, 833750, Note_on_c, 0, 86, 0
1, 833750, Note_on_c, 0, 74, 0
1, 833750, Note_on_c, 0, 62, 0
1, 833750, Note_on_c, 0, 50, 0
1, 833760, Note_on_c, 0, 90, 120
1, 833760, Note_on_c, 0, 62, 120
1, 833760, Note_on_c, 0, 50, 120
1, 833870, Note_on_c, 0, 90, 0
1, 833880, Note_on_c, 0, 91, 120
1, 833990, Note_on_c, 0, 91, 0
1, 833990, Note_on_c, 0, 62, 0
1, 833990, Note_on_c, 0, 50, 0
1, 834000, Note_on_c, 0, 88, 120
1, 834000, Note_on_c, 0, 93, 120
1, 834000, Note_on_c, 0, 81, 120
1, 834000, Note_on_c, 0, 61, 120
1, 834000, Note_on_c, 0, 49, 120
1, 834230, Note_on_c, 0, 88, 0
1, 834230, Note_on_c, 0, 93, 0
1, 834230, Note_on_c, 0, 81, 0
1, 834230, Note_on_c, 0, 61, 0
1, 834230, Note_on_c, 0, 49, 0
1, 834240, Note_on_c, 0, 57, 120
1, 834240, Note_on_c, 0, 45, 120
1, 834470, Note_on_c, 0, 57, 0
1, 834470, Note_on_c, 0, 45, 0
1, 834480, Time_signature, 4, 2, 24, 8
1, 834480, Note_on_c, 0, 78, 120
1, 834480, Note_on_c, 0, 66, 120
1, 834480, Note_on_c, 0, 50, 120
1, 834480, Note_on_c, 0, 38, 120
1, 834710, Note_on_c, 0, 78, 0
1, 834710, Note_on_c, 0, 66, 0
1, 834710, Note_on_c, 0, 50, 0
1, 834710, Note_on_c, 0, 38, 0
1, 834720, Note_on_c, 0, 78, 120
1, 834720, Note_on_c, 0, 50, 120
1, 834720, Note_on_c, 0, 38, 120
1, 834830, Note_on_c, 0, 78, 0
1, 834840, Note_on_c, 0, 79, 120
1, 834950, Note_on_c, 0, 79, 0
1, 834950, Note_on_c, 0, 50, 0
1, 834950, Note_on_c, 0, 38, 0
1, 834960, Note_on_c, 0, 76, 120
1, 834960, Note_on_c, 0, 81, 120
1, 834960, Note_on_c, 0, 69, 120
1, 834960, Note_on_c, 0, 49, 120
1, 834960, Note_on_c, 0, 37, 120
1, 835190, Note_on_c, 0, 76, 0
1, 835190, Note_on_c, 0, 81, 0
1, 835190, Note_on_c, 0, 69, 0
1, 835190, Note_on_c, 0, 49, 0
1, 835190, Note_on_c, 0, 37, 0
1, 835200, Note_on_c, 0, 45, 120
1, 835200, Note_on_c, 0, 33, 120
1, 835430, Note_on_c, 0, 45, 0
1, 835430, Note_on_c, 0, 33, 0
1, 835440, Time_signature, 4, 2, 24, 8
1, 835440, Note_on_c, 0, 79, 120
1, 835440, Note_on_c, 0, 67, 120
1, 835440, Note_on_c, 0, 52, 120
1, 835440, Note_on_c, 0, 40, 120
1, 835670, Note_on_c, 0, 79, 0
1, 835670, Note_on_c, 0, 67, 0
1, 835670, Note_on_c, 0, 52, 0
1, 835670, Note_on_c, 0, 40, 0
1, 835680, Note_on_c, 0, 79, 120
1, 835680, Note_on_c, 0, 52, 120
1, 835680, Note_on_c, 0, 40, 120
1, 835790, Note_on_c, 0, 79, 0
1, 835800, Note_on_c, 0, 81, 120
1, 835910, Note_on_c, 0, 81, 0
1, 835910, Note_on_c, 0, 52, 0
1, 835910, Note_on_c, 0, 40, 0
1, 835920, Note_on_c, 0, 83, 120
1, 835920, Note_on_c, 0, 71, 120
1, 835920, Note_on_c, 0, 51, 120
1, 835920, Note_on_c, 0, 39, 120
1, 836150, Note_on_c, 0, 83, 0
1, 836150, Note_on_c, 0, 71, 0
1, 836150, Note_on_c, 0, 51, 0
1, 836150, Note_on_c, 0, 39, 0
1, 836160, Note_on_c, 0, 78, 120
1, 836160, Note_on_c, 0, 47, 120
1, 836160, Note_on_c, 0, 35, 120
1, 836270, Note_on_c, 0, 78, 0
1, 836280, Note_on_c, 0, 79, 120
1, 836390, Note_on_c, 0, 79, 0
1, 836390, Note_on_c, 0, 47, 0
1, 836390, Note_on_c, 0, 35, 0
1, 836400, Time_signature, 4, 2, 24, 8
1, 836400, Note_on_c, 0, 75, 120
1, 836400, Note_on_c, 0, 81, 120
1, 836400, Note_on_c, 0, 69, 120
1, 836400, Note_on_c, 0, 54, 120
1, 836400, Note_on_c, 0, 59, 120
1, 836400, Note_on_c, 0, 47, 120
1, 836630, Note_on_c, 0, 75, 0
1, 836630, Note_on_c, 0, 81, 0
1, 836630, Note_on_c, 0, 69, 0
1, 836640, Note_on_c, 0, 90, 120
1, 836750, Note_on_c, 0, 90, 0
1, 836760, Note_on_c, 0, 91, 120
1, 836870, Note_on_c, 0, 91, 0
1, 836870, Note_on_c, 0, 54, 0
1, 836870, Note_on_c, 0, 59, 0
1, 836870, Note_on_c, 0, 47, 0
1, 836880, Note_on_c, 0, 93, 120
1, 836880, Note_on_c, 0, 81, 120
1, 836880, Note_on_c, 0, 54, 120
1, 836880, Note_on_c, 0, 57, 120
1, 836880, Note_on_c, 0, 63, 120
1, 836880, Note_on_c, 0, 47, 120
1, 837110, Note_on_c, 0, 93, 0
1, 837110, Note_on_c, 0, 81, 0
1, 837120, Note_on_c, 0, 78, 120
1, 837127, Control_c, 0, 64, 127
1, 837230, Note_on_c, 0, 78, 0
1, 837240, Note_on_c, 0, 79, 120
1, 837350, Note_on_c, 0, 79, 0
1, 837350, Note_on_c, 0, 54, 0
1, 837350, Note_on_c, 0, 57, 0
1, 837350, Note_on_c, 0, 63, 0
1, 837350, Note_on_c, 0, 47, 0
1, 837360, Time_signature, 4, 2, 24, 8
1, 837360, Note_on_c, 0, 81, 120
1, 837360, Note_on_c, 0, 69, 120
1, 837360, Note_on_c, 0, 54, 120
1, 837360, Note_on_c, 0, 57, 120
1, 837360, Note_on_c, 0, 63, 120
1, 837360, Note_on_c, 0, 47, 120
1, 837590, Note_on_c, 0, 81, 0
1, 837590, Note_on_c, 0, 69, 0
1, 837600, Note_on_c, 0, 90, 120
1, 837710, Note_on_c, 0, 90, 0
1, 837720, Note_on_c, 0, 91, 120
1, 837830, Note_on_c, 0, 91, 0
1, 837830, Note_on_c, 0, 54, 0
1, 837830, Note_on_c, 0, 57, 0
1, 837830, Note_on_c, 0, 63, 0
1, 837830, Note_on_c, 0, 47, 0
1, 837840, Note_on_c, 0, 93, 120
1, 837840, Note_on_c, 0, 81, 120
1, 837840, Note_on_c, 0, 54, 120
1, 837840, Note_on_c, 0, 57, 120
1, 837840, Note_on_c, 0, 63, 120
1, 837840, Note_on_c, 0, 47, 120
1, 838070, Note_on_c, 0, 93, 0
1, 838070, Note_on_c, 0, 81, 0
1, 838080, Note_on_c, 0, 78, 120
1, 838190, Note_on_c, 0, 78, 0
1, 838200, Note_on_c, 0, 79, 120
1, 838310, Note_on_c, 0, 79, 0
1, 838310, Note_on_c, 0, 54, 0
1, 838310, Note_on_c, 0, 57, 0
1, 838310, Note_on_c, 0, 63, 0
1, 838310, Note_on_c, 0, 47, 0
1, 838320, Time_signature, 4, 2, 24, 8
1, 838320, Note_on_c, 0, 81, 120
1, 838320, Note_on_c, 0, 69, 120
1, 838320, Note_on_c, 0, 54, 120
1, 838320, Note_on_c, 0, 57, 120
1, 838320, Note_on_c, 0, 63, 120
1, 838320, Note_on_c, 0, 47, 120
1, 838389, Control_c, 0, 64, 0
1, 838488, Control_c, 0, 64, 127
1, 838550, Note_on_c, 0, 81, 0
1, 838550, Note_on_c, 0, 69, 0
1, 838560, Note_on_c, 0, 90, 120
1, 838670, Note_on_c, 0, 90, 0
1, 838680, Note_on_c, 0, 91, 120
1, 838790, Note_on_c, 0, 91, 0
1, 838790, Note_on_c, 0, 54, 0
1, 838790, Note_on_c, 0, 57, 0
1, 838790, Note_on_c, 0, 63, 0
1, 838790, Note_on_c, 0, 47, 0
1, 838800, Note_on_c, 0, 93, 120
1, 838800, Note_on_c, 0, 81, 120
1, 838800, Note_on_c, 0, 54, 120
1, 838800, Note_on_c, 0, 57, 120
1, 838800, Note_on_c, 0, 63, 120
1, 838800, Note_on_c, 0, 47, 120
1, 839030, Note_on_c, 0, 93, 0
1, 839030, Note_on_c, 0, 81, 0
1, 839040, Note_on_c, 0, 83, 120
1, 839150, Note_on_c, 0, 83, 0
1, 839160, Note_on_c, 0, 81, 120
1, 839163, Control_c, 0, 64, 0
1, 839270, Note_on_c, 0, 81, 0
1, 839270, Note_on_c, 0, 54, 0
1, 839270, Note_on_c, 0, 57, 0
1, 839270, Note_on_c, 0, 63, 0
1, 839270, Note_on_c, 0, 47, 0
1, 839280, Time_signature, 4, 2, 24, 8
1, 839280, Note_on_c, 0, 91, 120
1, 839280, Note_on_c, 0, 79, 120
1, 839280, Note_on_c, 0, 52, 120
1, 839280, Note_on_c, 0, 55, 120
1, 839280, Note_on_c, 0, 64, 120
1, 839280, Note_on_c, 0, 48, 120
1, 839510, Note_on_c, 0, 91, 0
1, 839510, Note_on_c, 0, 79, 0
1, 839520, Note_on_c, 0, 76, 120
1, 839527, Control_c, 0, 64, 127
1, 839630, Note_on_c, 0, 76, 0
1, 839640, Note_on_c, 0, 78, 120
1, 839750, Note_on_c, 0, 78, 0
1, 839750, Note_on_c, 0, 52, 0
1, 839750, Note_on_c, 0, 55, 0
1, 839750, Note_on_c, 0, 64, 0
1, 839750, Note_on_c, 0, 48, 0
1, 839760, Note_on_c, 0, 72, 120
1, 839760, Note_on_c, 0, 79, 120
1, 839760, Note_on_c, 0, 67, 120
1, 839760, Note_on_c, 0, 52, 120
1, 839760, Note_on_c, 0, 55, 120
1, 839760, Note_on_c, 0, 64, 120
1, 839760, Note_on_c, 0, 48, 120
1, 839990, Note_on_c, 0, 72, 0
1, 839990, Note_on_c, 0, 79, 0
1, 839990, Note_on_c, 0, 67, 0
1, 840000, Note_on_c, 0, 88, 120
1, 840110, Note_on_c, 0, 88, 0
1, 840120, Note_on_c, 0, 90, 120
1, 840230, Note_on_c, 0, 90, 0
1, 840230, Note_on_c, 0, 52, 0
1, 840230, Note_on_c, 0, 55, 0
1, 840230, Note_on_c, 0, 64, 0
1, 840230, Note_on_c, 0, 48, 0
1, 840240, Time_signature, 4, 2, 24, 8
1, 840240, Note_on_c, 0, 84, 120
1, 840240, Note_on_c, 0, 91, 120
1, 840240, Note_on_c, 0, 79, 120
1, 840240, Note_on_c, 0, 52, 120
1, 840240, Note_on_c, 0, 55, 120
1, 840240, Note_on_c, 0, 64, 120
1, 840240, Note_on_c, 0, 48, 120
1, 840470, Note_on_c, 0, 84, 0
1, 840470, Note_on_c, 0, 91, 0
1, 840470, Note_on_c, 0, 79, 0
1, 840480, Note_on_c, 0, 76, 120
1, 840590, Note_on_c, 0, 76, 0
1, 840600, Note_on_c, 0, 78, 120
1, 840710, Note_on_c, 0, 78, 0
1, 840710, Note_on_c, 0, 52, 0
1, 840710, Note_on_c, 0, 55, 0
1, 840710, Note_on_c, 0, 64, 0
1, 840710, Note_on_c, 0, 48, 0
1, 840720, Note_on_c, 0, 72, 120
1, 840720, Note_on_c, 0, 79, 120
1, 840720, Note_on_c, 0, 67, 120
1, 840720, Note_on_c, 0, 52, 120
1, 840720, Note_on_c, 0, 55, 120
1, 840720, Note_on_c, 0, 64, 120
1, 840720, Note_on_c, 0, 48, 120
1, 840950, Note_on_c, 0, 72, 0
1, 840950, Note_on_c, 0, 79, 0
1, 840950, Note_on_c, 0, 67, 0
1, 840960, Note_on_c, 0, 81, 120
1, 841070, Note_on_c, 0, 81, 0
1, 841080, Note_on_c, 0, 79, 120
1, 841181, Control_c, 0, 64, 0
1, 841190, Note_on_c, 0, 79, 0
1, 841190, Note_on_c, 0, 52, 0
1, 841190, Note_on_c, 0, 55, 0
1, 841190, Note_on_c, 0, 64, 0
1, 841190, Note_on_c, 0, 48, 0
1, 841200, Time_signature, 4, 2, 24, 8
1, 841200, Note_on_c, 0, 89, 120
1, 841200, Note_on_c, 0, 77, 120
1, 841200, Note_on_c, 0, 57, 120
1, 841200, Note_on_c, 0, 65, 120
1, 841200, Note_on_c, 0, 53, 120
1, 841407, Control_c, 0, 64, 127
1, 841430, Note_on_c, 0, 89, 0
1, 841430, Note_on_c, 0, 77, 0
1, 841440, Note_on_c, 0, 86, 120
1, 841550, Note_on_c, 0, 86, 0
1, 841560, Note_on_c, 0, 88, 120
1, 841670, Note_on_c, 0, 88, 0
1, 841670, Note_on_c, 0, 57, 0
1, 841670, Note_on_c, 0, 65, 0
1, 841670, Note_on_c, 0, 53, 0
1, 841680, Note_on_c, 0, 89, 120
1, 841680, Note_on_c, 0, 77, 120
1, 841680, Note_on_c, 0, 57, 120
1, 841680, Note_on_c, 0, 62, 120
1, 841680, Note_on_c, 0, 65, 120
1, 841680, Note_on_c, 0, 50, 120
1, 841910, Note_on_c, 0, 89, 0
1, 841910, Note_on_c, 0, 77, 0
1, 841920, Note_on_c, 0, 79, 120
1, 842030, Note_on_c, 0, 79, 0
1, 842040, Note_on_c, 0, 77, 120
1, 842056, Control_c, 0, 64, 0
1, 842150, Note_on_c, 0, 77, 0
1, 842150, Note_on_c, 0, 57, 0
1, 842150, Note_on_c, 0, 62, 0
1, 842150, Note_on_c, 0, 65, 0
1, 842150, Note_on_c, 0, 50, 0
1, 842160, Time_signature, 4, 2, 24, 8
1, 842160, Note_on_c, 0, 88, 120
1, 842160, Note_on_c, 0, 76, 120
1, 842160, Note_on_c, 0, 61, 120
1, 842160, Note_on_c, 0, 64, 120
1, 842160, Note_on_c, 0, 69, 120
1, 842160, Note_on_c, 0, 57, 120
1, 842384, Control_c, 0, 64, 127
1, 842390, Note_on_c, 0, 88, 0
1, 842390, Note_on_c, 0, 76, 0
1, 842400, Note_on_c, 0, 76, 120
1, 842510, Note_on_c, 0, 76, 0
1, 842520, Note_on_c, 0, 73, 120
1, 842630, Note_on_c, 0, 73, 0
1, 842630, Note_on_c, 0, 61, 0
1, 842630, Note_on_c, 0, 64, 0
1, 842630, Note_on_c, 0, 69, 0
1, 842630, Note_on_c, 0, 57, 0
1, 842640, Note_on_c, 0, 81, 120
1, 842640, Note_on_c, 0, 69, 120
1, 842640, Note_on_c, 0, 57, 120
1, 842640, Note_on_c, 0, 45, 120
1, 842870, Note_on_c, 0, 81, 0
1, 842870, Note_on_c, 0, 69, 0
1, 842880, Note_on_c, 0, 80, 120
1, 842990, Note_on_c, 0, 80, 0
1, 843000, Note_on_c, 0, 81, 120
1, 843039, Control_c, 0, 64, 0
1, 843110, Note_on_c, 0, 81, 0
1, 843110, Note_on_c, 0, 57, 0
1, 843110, Note_on_c, 0, 45, 0
1, 843120, Time_signature, 4, 2, 24, 8
1, 843120, Note_on_c, 0, 75, 120
1, 843120, Note_on_c, 0, 81, 120
1, 843120, Note_on_c, 0, 69, 120
1, 843120, Note_on_c, 0, 54, 120
1, 843120, Note_on_c, 0, 47, 120
1, 843230, Note_on_c, 0, 54, 0
1, 843230, Note_on_c, 0, 47, 0
1, 843240, Note_on_c, 0, 59, 120
1, 843273, Control_c, 0, 64, 127
1, 843350, Note_on_c, 0, 75, 0
1, 843350, Note_on_c, 0, 81, 0
1, 843350, Note_on_c, 0, 69, 0
1, 843350, Note_on_c, 0, 59, 0
1, 843360, Note_on_c, 0, 54, 120
1, 843360, Note_on_c, 0, 47, 120
1, 843470, Note_on_c, 0, 54, 0
1, 843470, Note_on_c, 0, 47, 0
1, 843480, Note_on_c, 0, 75, 120
1, 843480, Note_on_c, 0, 78, 120
1, 843480, Note_on_c, 0, 69, 120
1, 843480, Note_on_c, 0, 59, 120
1, 843590, Note_on_c, 0, 75, 0
1, 843590, Note_on_c, 0, 78, 0
1, 843590, Note_on_c, 0, 69, 0
1, 843590, Note_on_c, 0, 59, 0
1, 843600, Note_on_c, 0, 75, 120
1, 843600, Note_on_c, 0, 81, 120
1, 843600, Note_on_c, 0, 69, 120
1, 843600, Note_on_c, 0, 54, 120
1, 843600, Note_on_c, 0, 47, 120
1, 843710, Note_on_c, 0, 54, 0
1, 843710, Note_on_c, 0, 47, 0
1, 843720, Note_on_c, 0, 59, 120
1, 843830, Note_on_c, 0, 75, 0
1, 843830, Note_on_c, 0, 81, 0
1, 843830, Note_on_c, 0, 69, 0
1, 843830, Note_on_c, 0, 59, 0
1, 843840, Note_on_c, 0, 54, 120
1, 843840, Note_on_c, 0, 47, 120
1, 843950, Note_on_c, 0, 54, 0
1, 843950, Note_on_c, 0, 47, 0
1, 843960, Note_on_c, 0, 75, 120
1, 843960, Note_on_c, 0, 78, 120
1, 843960, Note_on_c, 0, 69, 120
1, 843960, Note_on_c, 0, 59, 120
1, 844070, Note_on_c, 0, 75, 0
1, 844070, Note_on_c, 0, 78, 0
1, 844070, Note_on_c, 0, 69, 0
1, 844070, Note_on_c, 0, 59, 0
1, 844080, Time_signature, 4, 2, 24, 8
1, 844080, Note_on_c, 0, 75, 120
1, 844080, Note_on_c, 0, 81, 120
1, 844080, Note_on_c, 0, 69, 120
1, 844080, Note_on_c, 0, 54, 120
1, 844080, Note_on_c, 0, 47, 120
1, 844190, Note_on_c, 0, 54, 0
1, 844190, Note_on_c, 0, 47, 0
1, 844200, Note_on_c, 0, 47, 120
1, 844310, Note_on_c, 0, 75, 0
1, 844310, Note_on_c, 0, 81, 0
1, 844310, Note_on_c, 0, 69, 0
1, 844310, Note_on_c, 0, 47, 0
1, 844320, Note_on_c, 0, 42, 120
1, 844320, Note_on_c, 0, 35, 120
1, 844430, Note_on_c, 0, 42, 0
1, 844430, Note_on_c, 0, 35, 0
1, 844440, Note_on_c, 0, 87, 120
1, 844440, Note_on_c, 0, 90, 120
1, 844440, Note_on_c, 0, 81, 120
1, 844440, Note_on_c, 0, 47, 120
1, 844550, Note_on_c, 0, 87, 0
1, 844550, Note_on_c, 0, 90, 0
1, 844550, Note_on_c, 0, 81, 0
1, 844550, Note_on_c, 0, 47, 0
1, 844560, Note_on_c, 0, 87, 120
1, 844560, Note_on_c, 0, 93, 120
1, 844560, Note_on_c, 0, 81, 120
1, 844560, Note_on_c, 0, 42, 120
1, 844560, Note_on_c, 0, 35, 120
1, 844670, Note_on_c, 0, 42, 0
1, 844670, Note_on_c, 0, 35, 0
1, 844680, Note_on_c, 0, 47, 120
1, 844790, Note_on_c, 0, 87, 0
1, 844790, Note_on_c, 0, 93, 0
1, 844790, Note_on_c, 0, 81, 0
1, 844790, Note_on_c, 0, 47, 0
1, 844800, Note_on_c, 0, 42, 120
1, 844800, Note_on_c, 0, 35, 120
1, 844910, Note_on_c, 0, 42, 0
1, 844910, Note_on_c, 0, 35, 0
1, 844920, Note_on_c, 0, 87, 120
1, 844920, Note_on_c, 0, 90, 120
1, 844920, Note_on_c, 0, 81, 120
1, 844920, Note_on_c, 0, 47, 120
1, 845030, Note_on_c, 0, 87, 0
1, 845030, Note_on_c, 0, 90, 0
1, 845030, Note_on_c, 0, 81, 0
1, 845030, Note_on_c, 0, 47, 0
1, 845040, Time_signature, 4, 2, 24, 8
1, 845040, Note_on_c, 0, 87, 120
1, 845040, Note_on_c, 0, 93, 120
1, 845040, Note_on_c, 0, 81, 120
1, 845040, Note_on_c, 0, 54, 120
1, 845040, Note_on_c, 0, 47, 120
1, 845150, Note_on_c, 0, 54, 0
1, 845150, Note_on_c, 0, 47, 0
1, 845160, Note_on_c, 0, 59, 120
1, 845270, Note_on_c, 0, 87, 0
1, 845270, Note_on_c, 0, 93, 0
1, 845270, Note_on_c, 0, 81, 0
1, 845270, Note_on_c, 0, 59, 0
1, 845280, Note_on_c, 0, 54, 120
1, 845280, Note_on_c, 0, 47, 120
1, 845390, Note_on_c, 0, 54, 0
1, 845390, Note_on_c, 0, 47, 0
1, 845400, Note_on_c, 0, 75, 120
1, 845400, Note_on_c, 0, 78, 120
1, 845400, Note_on_c, 0, 69, 120
1, 845400, Note_on_c, 0, 59, 120
1, 845510, Note_on_c, 0, 75, 0
1, 845510, Note_on_c, 0, 78, 0
1, 845510, Note_on_c, 0, 69, 0
1, 845510, Note_on_c, 0, 59, 0
1, 845520, Note_on_c, 0, 75, 120
1, 845520, Note_on_c, 0, 81, 120
1, 845520, Note_on_c, 0, 69, 120
1, 845520, Note_on_c, 0, 54, 120
1, 845520, Note_on_c, 0, 47, 120
1, 845630, Note_on_c, 0, 54, 0
1, 845630, Note_on_c, 0, 47, 0
1, 845640, Note_on_c, 0, 59, 120
1, 845750, Note_on_c, 0, 75, 0
1, 845750, Note_on_c, 0, 81, 0
1, 845750, Note_on_c, 0, 69, 0
1, 845750, Note_on_c, 0, 59, 0
1, 845760, Note_on_c, 0, 54, 120
1, 845760, Note_on_c, 0, 47, 120
1, 845870, Note_on_c, 0, 54, 0
1, 845870, Note_on_c, 0, 47, 0
1, 845880, Note_on_c, 0, 75, 120
1, 845880, Note_on_c, 0, 78, 120
1, 845880, Note_on_c, 0, 69, 120
1, 845880, Note_on_c, 0, 59, 120
1, 845941, Control_c, 0, 64, 0
1, 845990, Note_on_c, 0, 75, 0
1, 845990, Note_on_c, 0, 78, 0
1, 845990, Note_on_c, 0, 69, 0
1, 845990, Note_on_c, 0, 59, 0
1, 846000, Time_signature, 4, 2, 24, 8
1, 846000, Note_on_c, 0, 75, 120
1, 846000, Note_on_c, 0, 81, 120
1, 846000, Note_on_c, 0, 69, 120
1, 846000, Note_on_c, 0, 54, 120
1, 846000, Note_on_c, 0, 47, 120
1, 846110, Note_on_c, 0, 54, 0
1, 846110, Note_on_c, 0, 47, 0
1, 846120, Note_on_c, 0, 47, 120
1, 846195, Control_c, 0, 64, 127
1, 846230, Note_on_c, 0, 75, 0
1, 846230, Note_on_c, 0, 81, 0
1, 846230, Note_on_c, 0, 69, 0
1, 846230, Note_on_c, 0, 47, 0
1, 846240, Note_on_c, 0, 42, 120
1, 846240, Note_on_c, 0, 35, 120
1, 846350, Note_on_c, 0, 42, 0
1, 846350, Note_on_c, 0, 35, 0
1, 846360, Note_on_c, 0, 87, 120
1, 846360, Note_on_c, 0, 90, 120
1, 846360, Note_on_c, 0, 81, 120
1, 846360, Note_on_c, 0, 47, 120
1, 846470, Note_on_c, 0, 87, 0
1, 846470, Note_on_c, 0, 90, 0
1, 846470, Note_on_c, 0, 81, 0
1, 846470, Note_on_c, 0, 47, 0
1, 846480, Note_on_c, 0, 87, 120
1, 846480, Note_on_c, 0, 93, 120
1, 846480, Note_on_c, 0, 81, 120
1, 846480, Note_on_c, 0, 42, 120
1, 846480, Note_on_c, 0, 35, 120
1, 846590, Note_on_c, 0, 42, 0
1, 846590, Note_on_c, 0, 35, 0
1, 846600, Note_on_c, 0, 47, 120
1, 846710, Note_on_c, 0, 87, 0
1, 846710, Note_on_c, 0, 93, 0
1, 846710, Note_on_c, 0, 81, 0
1, 846710, Note_on_c, 0, 47, 0
1, 846720, Note_on_c, 0, 42, 120
1, 846720, Note_on_c, 0, 35, 120
1, 846830, Note_on_c, 0, 42, 0
1, 846830, Note_on_c, 0, 35, 0
1, 846840, Note_on_c, 0, 87, 120
1, 846840, Note_on_c, 0, 90, 120
1, 846840, Note_on_c, 0, 81, 120
1, 846840, Note_on_c, 0, 47, 120
1, 846865, Control_c, 0, 64, 0
1, 846950, Note_on_c, 0, 87, 0
1, 846950, Note_on_c, 0, 90, 0
1, 846950, Note_on_c, 0, 81, 0
1, 846950, Note_on_c, 0, 47, 0
1, 846960, Time_signature, 4, 2, 24, 8
1, 846960, Note_on_c, 0, 88, 120
1, 846960, Note_on_c, 0, 91, 120
1, 846960, Note_on_c, 0, 79, 120
1, 846960, Note_on_c, 0, 52, 120
1, 846960, Note_on_c, 0, 48, 120
1, 847070, Note_on_c, 0, 52, 0
1, 847070, Note_on_c, 0, 48, 0
1, 847080, Note_on_c, 0, 60, 120
1, 847190, Note_on_c, 0, 88, 0
1, 847190, Note_on_c, 0, 91, 0
1, 847190, Note_on_c, 0, 79, 0
1, 847190, Note_on_c, 0, 60, 0
1, 847200, Note_on_c, 0, 52, 120
1, 847200, Note_on_c, 0, 48, 120
1, 847243, Control_c, 0, 64, 127
1, 847310, Note_on_c, 0, 52, 0
1, 847310, Note_on_c, 0, 48, 0
1, 847320, Note_on_c, 0, 76, 120
1, 847320, Note_on_c, 0, 67, 120
1, 847320, Note_on_c, 0, 60, 120
1, 847430, Note_on_c, 0, 76, 0
1, 847430, Note_on_c, 0, 67, 0
1, 847430, Note_on_c, 0, 60, 0
1, 847440, Note_on_c, 0, 76, 120
1, 847440, Note_on_c, 0, 79, 120
1, 847440, Note_on_c, 0, 67, 120
1, 847440, Note_on_c, 0, 52, 120
1, 847440, Note_on_c, 0, 48, 120
1, 847550, Note_on_c, 0, 52, 0
1, 847550, Note_on_c, 0, 48, 0
1, 847560, Note_on_c, 0, 60, 120
1, 847670, Note_on_c, 0, 76, 0
1, 847670, Note_on_c, 0, 79, 0
1, 847670, Note_on_c, 0, 67, 0
1, 847670, Note_on_c, 0, 60, 0
1, 847680, Note_on_c, 0, 52, 120
1, 847680, Note_on_c, 0, 48, 120
1, 847790, Note_on_c, 0, 52, 0
1, 847790, Note_on_c, 0, 48, 0
1, 847800, Note_on_c, 0, 76, 120
1, 847800, Note_on_c, 0, 67, 120
1, 847800, Note_on_c, 0, 60, 120
1, 847910, Note_on_c, 0, 76, 0
1, 847910, Note_on_c, 0, 67, 0
1, 847910, Note_on_c, 0, 60, 0
1, 847920, Time_signature, 4, 2, 24, 8
1, 847920, Note_on_c, 0, 76, 120
1, 847920, Note_on_c, 0, 79, 120
1, 847920, Note_on_c, 0, 67, 120
1, 847920, Note_on_c, 0, 52, 120
1, 847920, Note_on_c, 0, 48, 120
1, 848030, Note_on_c, 0, 52, 0
1, 848030, Note_on_c, 0, 48, 0
1, 848040, Note_on_c, 0, 48, 120
1, 848150, Note_on_c, 0, 76, 0
1, 848150, Note_on_c, 0, 79, 0
1, 848150, Note_on_c, 0, 67, 0
1, 848150, Note_on_c, 0, 48, 0
1, 848160, Note_on_c, 0, 37, 120
1, 848270, Note_on_c, 0, 37, 0
1, 848280, Note_on_c, 0, 88, 120
1, 848280, Note_on_c, 0, 79, 120
1, 848280, Note_on_c, 0, 48, 120
1, 848390, Note_on_c, 0, 88, 0
1, 848390, Note_on_c, 0, 79, 0
1, 848390, Note_on_c, 0, 48, 0
1, 848400, Note_on_c, 0, 88, 120
1, 848400, Note_on_c, 0, 91, 120
1, 848400, Note_on_c, 0, 79, 120
1, 848400, Note_on_c, 0, 37, 120
1, 848510, Note_on_c, 0, 37, 0
1, 848520, Note_on_c, 0, 48, 120
1, 848630, Note_on_c, 0, 88, 0
1, 848630, Note_on_c, 0, 91, 0
1, 848630, Note_on_c, 0, 79, 0
1, 848630, Note_on_c, 0, 48, 0
1, 848640, Note_on_c, 0, 37, 120
1, 848750, Note_on_c, 0, 37, 0
1, 848760, Note_on_c, 0, 88, 120
1, 848760, Note_on_c, 0, 79, 120
1, 848760, Note_on_c, 0, 48, 120
1, 848870, Note_on_c, 0, 88, 0
1, 848870, Note_on_c, 0, 79, 0
1, 848870, Note_on_c, 0, 48, 0
1, 848880, Time_signature, 4, 2, 24, 8
1, 848880, Note_on_c, 0, 81, 120
1, 848880, Note_on_c, 0, 89, 120
1, 848880, Note_on_c, 0, 77, 120
1, 848880, Note_on_c, 0, 41, 120
1, 848990, Note_on_c, 0, 41, 0
1, 849000, Note_on_c, 0, 53, 120
1, 849029, Control_c, 0, 64, 0
1, 849110, Note_on_c, 0, 81, 0
1, 849110, Note_on_c, 0, 89, 0
1, 849110, Note_on_c, 0, 77, 0
1, 849110, Note_on_c, 0, 53, 0
1, 849120, Note_on_c, 0, 41, 120
1, 849225, Control_c, 0, 64, 127
1, 849230, Note_on_c, 0, 41, 0
1, 849240, Note_on_c, 0, 69, 120
1, 849240, Note_on_c, 0, 65, 120
1, 849240, Note_on_c, 0, 53, 120
1, 849350, Note_on_c, 0, 69, 0
1, 849350, Note_on_c, 0, 65, 0
1, 849350, Note_on_c, 0, 53, 0
1, 849360, Note_on_c, 0, 74, 120
1, 849360, Note_on_c, 0, 77, 120
1, 849360, Note_on_c, 0, 65, 120
1, 849360, Note_on_c, 0, 38, 120
1, 849470, Note_on_c, 0, 38, 0
1, 849480, Note_on_c, 0, 50, 120
1, 849590, Note_on_c, 0, 74, 0
1, 849590, Note_on_c, 0, 77, 0
1, 849590, Note_on_c, 0, 65, 0
1, 849590, Note_on_c, 0, 50, 0
1, 849600, Note_on_c, 0, 38, 120
1, 849710, Note_on_c, 0, 38, 0
1, 849711, Control_c, 0, 64, 0
1, 849720, Note_on_c, 0, 74, 120
1, 849720, Note_on_c, 0, 77, 120
1, 849720, Note_on_c, 0, 65, 120
1, 849720, Note_on_c, 0, 50, 120
1, 849830, Note_on_c, 0, 74, 0
1, 849830, Note_on_c, 0, 77, 0
1, 849830, Note_on_c, 0, 65, 0
1, 849830, Note_on_c, 0, 50, 0
1, 849840, Time_signature, 4, 2, 24, 8
1, 849840, Note_on_c, 0, 73, 120
1, 849840, Note_on_c, 0, 76, 120
1, 849840, Note_on_c, 0, 64, 120
1, 849840, Note_on_c, 0, 45, 120
1, 849950, Note_on_c, 0, 45, 0
1, 849960, Note_on_c, 0, 57, 120
1, 850009, Control_c, 0, 64, 127
1, 850070, Note_on_c, 0, 73, 0
1, 850070, Note_on_c, 0, 76, 0
1, 850070, Note_on_c, 0, 64, 0
1, 850070, Note_on_c, 0, 57, 0
1, 850080, Note_on_c, 0, 45, 120
1, 850190, Note_on_c, 0, 45, 0
1, 850200, Note_on_c, 0, 69, 120
1, 850200, Note_on_c, 0, 64, 120
1, 850200, Note_on_c, 0, 57, 120
1, 850310, Note_on_c, 0, 69, 0
1, 850310, Note_on_c, 0, 64, 0
1, 850310, Note_on_c, 0, 57, 0
1, 850320, Note_on_c, 0, 73, 120
1, 850320, Note_on_c, 0, 76, 120
1, 850320, Note_on_c, 0, 64, 120
1, 850320, Note_on_c, 0, 45, 120
1, 850430, Note_on_c, 0, 45, 0
1, 850440, Note_on_c, 0, 57, 120
1, 850550, Note_on_c, 0, 73, 0
1, 850550, Note_on_c, 0, 76, 0
1, 850550, Note_on_c, 0, 64, 0
1, 850550, Note_on_c, 0, 57, 0
1, 850560, Note_on_c, 0, 69, 120
1, 850560, Note_on_c, 0, 72, 120
1, 850560, Note_on_c, 0, 76, 120
1, 850560, Note_on_c, 0, 64, 120
1, 850560, Note_on_c, 0, 48, 120
1, 850598, Control_c, 0, 64, 0
1, 850670, Note_on_c, 0, 48, 0
1, 850680, Note_on_c, 0, 60, 120
1, 850790, Note_on_c, 0, 69, 0
1, 850790, Note_on_c, 0, 72, 0
1, 850790, Note_on_c, 0, 76, 0
1, 850790, Note_on_c, 0, 64, 0
1, 850790, Note_on_c, 0, 60, 0
1, 850800, Time_signature, 4, 2, 24, 8
1, 850800, Note_on_c, 0, 69, 120
1, 850800, Note_on_c, 0, 74, 120
1, 850800, Note_on_c, 0, 78, 120
1, 850800, Note_on_c, 0, 66, 120
1, 850800, Note_on_c, 0, 48, 120
1, 850920, Note_on_c, 0, 60, 120
1, 851030, Note_on_c, 0, 60, 0
1, 851040, Note_on_c, 0, 48, 120
1, 851150, Note_on_c, 0, 48, 0
1, 851160, Note_on_c, 0, 60, 120
1, 851270, Note_on_c, 0, 69, 0
1, 851270, Note_on_c, 0, 74, 0
1, 851270, Note_on_c, 0, 78, 0
1, 851270, Note_on_c, 0, 66, 0
1, 851270, Note_on_c, 0, 48, 0
1, 851270, Note_on_c, 0, 60, 0
1, 851280, Note_on_c, 0, 71, 120
1, 851280, Note_on_c, 0, 74, 120
1, 851280, Note_on_c, 0, 79, 120
1, 851280, Note_on_c, 0, 67, 120
1, 851280, Note_on_c, 0, 47, 120
1, 851390, Note_on_c, 0, 71, 0
1, 851390, Note_on_c, 0, 74, 0
1, 851390, Note_on_c, 0, 79, 0
1, 851390, Note_on_c, 0, 67, 0
1, 851400, Note_on_c, 0, 62, 120
1, 851400, Note_on_c, 0, 59, 120
1, 851459, Control_c, 0, 64, 127
1, 851510, Note_on_c, 0, 62, 0
1, 851510, Note_on_c, 0, 59, 0
1, 851510, Note_on_c, 0, 47, 0
1, 851520, Note_on_c, 0, 64, 120
1, 851520, Note_on_c, 0, 55, 120
1, 851630, Note_on_c, 0, 64, 0
1, 851640, Note_on_c, 0, 66, 120
1, 851640, Note_on_c, 0, 59, 120
1, 851662, Control_c, 0, 64, 0
1, 851750, Note_on_c, 0, 66, 0
1, 851750, Note_on_c, 0, 55, 0
1, 851750, Note_on_c, 0, 59, 0
1, 851760, Time_signature, 4, 2, 24, 8
1, 851760, Note_on_c, 0, 67, 120
1, 851760, Note_on_c, 0, 52, 120
1, 851870, Note_on_c, 0, 67, 0
1, 851880, Note_on_c, 0, 67, 120
1, 851880, Note_on_c, 0, 64, 120
1, 851990, Note_on_c, 0, 67, 0
1, 851990, Note_on_c, 0, 52, 0
1, 851990, Note_on_c, 0, 64, 0
1, 852000, Note_on_c, 0, 69, 120
1, 852000, Note_on_c, 0, 49, 120
1, 852043, Control_c, 0, 64, 127
1, 852110, Note_on_c, 0, 69, 0
1, 852120, Note_on_c, 0, 71, 120
1, 852120, Note_on_c, 0, 61, 120
1, 852230, Note_on_c, 0, 71, 0
1, 852230, Note_on_c, 0, 49, 0
1, 852230, Note_on_c, 0, 61, 0
1, 852240, Note_on_c, 0, 73, 120
1, 852240, Note_on_c, 0, 45, 120
1, 852350, Note_on_c, 0, 73, 0
1, 852360, Note_on_c, 0, 74, 120
1, 852360, Note_on_c, 0, 71, 120
1, 852360, Note_on_c, 0, 57, 120
1, 852470, Note_on_c, 0, 74, 0
1, 852470, Note_on_c, 0, 45, 0
1, 852470, Note_on_c, 0, 71, 0
1, 852470, Note_on_c, 0, 57, 0
1, 852480, Note_on_c, 0, 76, 120
1, 852480, Note_on_c, 0, 73, 120
1, 852480, Note_on_c, 0, 43, 120
1, 852590, Note_on_c, 0, 76, 0
1, 852590, Note_on_c, 0, 73, 0
1, 852600, Note_on_c, 0, 78, 120
1, 852600, Note_on_c, 0, 74, 120
1, 852600, Note_on_c, 0, 55, 120
1, 852710, Note_on_c, 0, 78, 0
1, 852710, Note_on_c, 0, 74, 0
1, 852710, Note_on_c, 0, 43, 0
1, 852710, Note_on_c, 0, 55, 0
1, 852720, Time_signature, 4, 2, 24, 8
1, 852720, Note_on_c, 0, 79, 120
1, 852720, Note_on_c, 0, 76, 120
1, 852720, Note_on_c, 0, 40, 120
1, 852830, Note_on_c, 0, 79, 0
1, 852830, Note_on_c, 0, 76, 0
1, 852840, Note_on_c, 0, 81, 120
1, 852840, Note_on_c, 0, 78, 120
1, 852840, Note_on_c, 0, 52, 120
1, 852950, Note_on_c, 0, 81, 0
1, 852950, Note_on_c, 0, 78, 0
1, 852950, Note_on_c, 0, 40, 0
1, 852950, Note_on_c, 0, 52, 0
1, 852960, Note_on_c, 0, 83, 120
1, 852960, Note_on_c, 0, 79, 120
1, 852960, Note_on_c, 0, 37, 120
1, 853070, Note_on_c, 0, 83, 0
1, 853070, Note_on_c, 0, 79, 0
1, 853080, Note_on_c, 0, 85, 120
1, 853080, Note_on_c, 0, 81, 120
1, 853080, Note_on_c, 0, 49, 120
1, 853125, Control_c, 0, 64, 0
1, 853190, Note_on_c, 0, 85, 0
1, 853190, Note_on_c, 0, 81, 0
1, 853190, Note_on_c, 0, 37, 0
1, 853190, Note_on_c, 0, 49, 0
1, 853200, Note_on_c, 0, 86, 120
1, 853200, Note_on_c, 0, 83, 120
1, 853200, Note_on_c, 0, 33, 120
1, 853310, Note_on_c, 0, 86, 0
1, 853310, Note_on_c, 0, 83, 0
1, 853320, Note_on_c, 0, 88, 120
1, 853320, Note_on_c, 0, 85, 120
1, 853320, Note_on_c, 0, 45, 120
1, 853430, Note_on_c, 0, 88, 0
1, 853430, Note_on_c, 0, 85, 0
1, 853430, Note_on_c, 0, 33, 0
1, 853430, Note_on_c, 0, 45, 0
1, 853440, Note_on_c, 0, 90, 120
1, 853440, Note_on_c, 0, 86, 120
1, 853440, Note_on_c, 0, 45, 120
1, 853550, Note_on_c, 0, 90, 0
1, 853550, Note_on_c, 0, 86, 0
1, 853560, Note_on_c, 0, 91, 120
1, 853560, Note_on_c, 0, 88, 120
1, 853560, Note_on_c, 0, 57, 120
1, 853670, Note_on_c, 0, 91, 0
1, 853670, Note_on_c, 0, 88, 0
1, 853670, Note_on_c, 0, 45, 0
1, 853670, Note_on_c, 0, 57, 0
1, 853680, Time_signature, 4, 2, 24, 8
1, 853680, Note_on_c, 0, 86, 120
1, 853680, Note_on_c, 0, 90, 120
1, 853680, Note_on_c, 0, 78, 120
1, 853680, Note_on_c, 0, 45, 120
1, 853800, Note_on_c, 0, 57, 120
1, 853910, Note_on_c, 0, 45, 0
1, 853910, Note_on_c, 0, 57, 0
1, 853920, Note_on_c, 0, 45, 120
1, 854040, Note_on_c, 0, 57, 120
1, 854150, Note_on_c, 0, 86, 0
1, 854150, Note_on_c, 0, 90, 0
1, 854150, Note_on_c, 0, 78, 0
1, 854150, Note_on_c, 0, 45, 0
1, 854150, Note_on_c, 0, 57, 0
1, 854160, Note_on_c, 0, 85, 120
1, 854160, Note_on_c, 0, 88, 120
1, 854160, Note_on_c, 0, 76, 120
1, 854160, Note_on_c, 0, 45, 120
1, 854280, Note_on_c, 0, 57, 120
1, 854390, Note_on_c, 0, 85, 0
1, 854390, Note_on_c, 0, 88, 0
1, 854390, Note_on_c, 0, 76, 0
1, 854390, Note_on_c, 0, 45, 0
1, 854390, Note_on_c, 0, 57, 0
1, 854400, Note_on_c, 0, 81, 120
1, 854400, Note_on_c, 0, 88, 120
1, 854400, Note_on_c, 0, 76, 120
1, 854400, Note_on_c, 0, 48, 120
1, 854520, Note_on_c, 0, 60, 120
1, 854630, Note_on_c, 0, 81, 0
1, 854630, Note_on_c, 0, 88, 0
1, 854630, Note_on_c, 0, 76, 0
1, 854630, Note_on_c, 0, 48, 0
1, 854630, Note_on_c, 0, 60, 0
1, 854640, Time_signature, 4, 2, 24, 8
1, 854640, Note_on_c, 0, 81, 120
1, 854640, Note_on_c, 0, 86, 120
1, 854640, Note_on_c, 0, 90, 120
1, 854640, Note_on_c, 0, 78, 120
1, 854640, Note_on_c, 0, 48, 120
1, 854760, Note_on_c, 0, 60, 120
1, 854870, Note_on_c, 0, 60, 0
1, 854880, Note_on_c, 0, 48, 120
1, 854990, Note_on_c, 0, 48, 0
1, 855000, Note_on_c, 0, 60, 120
1, 855110, Note_on_c, 0, 81, 0
1, 855110, Note_on_c, 0, 86, 0
1, 855110, Note_on_c, 0, 90, 0
1, 855110, Note_on_c, 0, 78, 0
1, 855110, Note_on_c, 0, 48, 0
1, 855110, Note_on_c, 0, 60, 0
1, 855120, Note_on_c, 0, 83, 120
1, 855120, Note_on_c, 0, 86, 120
1, 855120, Note_on_c, 0, 91, 120
1, 855120, Note_on_c, 0, 79, 120
1, 855120, Note_on_c, 0, 47, 120
1, 855230, Control_c, 0, 64, 127
1, 855230, Note_on_c, 0, 83, 0
1, 855230, Note_on_c, 0, 86, 0
1, 855230, Note_on_c, 0, 91, 0
1, 855230, Note_on_c, 0, 79, 0
1, 855240, Note_on_c, 0, 62, 120
1, 855240, Note_on_c, 0, 59, 120
1, 855350, Note_on_c, 0, 62, 0
1, 855350, Note_on_c, 0, 59, 0
1, 855350, Note_on_c, 0, 47, 0
1, 855360, Note_on_c, 0, 64, 120
1, 855360, Note_on_c, 0, 55, 120
1, 855470, Note_on_c, 0, 64, 0
1, 855480, Note_on_c, 0, 66, 120
1, 855480, Note_on_c, 0, 59, 120
1, 855583, Control_c, 0, 64, 0
1, 855590, Note_on_c, 0, 66, 0
1, 855590, Note_on_c, 0, 55, 0
1, 855590, Note_on_c, 0, 59, 0
1, 855600, Time_signature, 4, 2, 24, 8
1, 855600, Note_on_c, 0, 67, 120
1, 855600, Note_on_c, 0, 52, 120
1, 855710, Note_on_c, 0, 67, 0
1, 855720, Note_on_c, 0, 67, 120
1, 855720, Note_on_c, 0, 64, 120
1, 855830, Note_on_c, 0, 67, 0
1, 855830, Note_on_c, 0, 52, 0
1, 855830, Note_on_c, 0, 64, 0
1, 855840, Note_on_c, 0, 69, 120
1, 855840, Note_on_c, 0, 49, 120
1, 855860, Control_c, 0, 64, 127
1, 855950, Note_on_c, 0, 69, 0
1, 855960, Note_on_c, 0, 71, 120
1, 855960, Note_on_c, 0, 61, 120
1, 856070, Note_on_c, 0, 71, 0
1, 856070, Note_on_c, 0, 49, 0
1, 856070, Note_on_c, 0, 61, 0
1, 856080, Note_on_c, 0, 73, 120
1, 856080, Note_on_c, 0, 45, 120
1, 856190, Note_on_c, 0, 73, 0
1, 856200, Note_on_c, 0, 74, 120
1, 856200, Note_on_c, 0, 71, 120
1, 856200, Note_on_c, 0, 57, 120
1, 856310, Note_on_c, 0, 74, 0
1, 856310, Note_on_c, 0, 45, 0
1, 856310, Note_on_c, 0, 71, 0
1, 856310, Note_on_c, 0, 57, 0
1, 856320, Note_on_c, 0, 76, 120
1, 856320, Note_on_c, 0, 73, 120
1, 856320, Note_on_c, 0, 43, 120
1, 856430, Note_on_c, 0, 76, 0
1, 856430, Note_on_c, 0, 73, 0
1, 856440, Note_on_c, 0, 78, 120
1, 856440, Note_on_c, 0, 74, 120
1, 856440, Note_on_c, 0, 55, 120
1, 856550, Note_on_c, 0, 78, 0
1, 856550, Note_on_c, 0, 74, 0
1, 856550, Note_on_c, 0, 43, 0
1, 856550, Note_on_c, 0, 55, 0
1, 856560, Time_signature, 4, 2, 24, 8
1, 856560, Note_on_c, 0, 79, 120
1, 856560, Note_on_c, 0, 76, 120
1, 856560, Note_on_c, 0, 40, 120
1, 856670, Note_on_c, 0, 79, 0
1, 856670, Note_on_c, 0, 76, 0
1, 856680, Note_on_c, 0, 81, 120
1, 856680, Note_on_c, 0, 78, 120
1, 856680, Note_on_c, 0, 52, 120
1, 856790, Note_on_c, 0, 81, 0
1, 856790, Note_on_c, 0, 78, 0
1, 856790, Note_on_c, 0, 40, 0
1, 856790, Note_on_c, 0, 52, 0
1, 856800, Note_on_c, 0, 83, 120
1, 856800, Note_on_c, 0, 79, 120
1, 856800, Note_on_c, 0, 37, 120
1, 856910, Note_on_c, 0, 83, 0
1, 856910, Note_on_c, 0, 79, 0
1, 856920, Note_on_c, 0, 85, 120
1, 856920, Note_on_c, 0, 81, 120
1, 856920, Note_on_c, 0, 49, 120
1, 857030, Note_on_c, 0, 85, 0
1, 857030, Note_on_c, 0, 81, 0
1, 857030, Note_on_c, 0, 37, 0
1, 857030, Note_on_c, 0, 49, 0
1, 857040, Note_on_c, 0, 86, 120
1, 857040, Note_on_c, 0, 83, 120
1, 857040, Note_on_c, 0, 33, 120
1, 857150, Note_on_c, 0, 86, 0
1, 857150, Note_on_c, 0, 83, 0
1, 857160, Note_on_c, 0, 88, 120
1, 857160, Note_on_c, 0, 85, 120
1, 857160, Note_on_c, 0, 45, 120
1, 857181, Control_c, 0, 64, 0
1, 857270, Note_on_c, 0, 88, 0
1, 857270, Note_on_c, 0, 85, 0
1, 857270, Note_on_c, 0, 33, 0
1, 857270, Note_on_c, 0, 45, 0
1, 857280, Note_on_c, 0, 90, 120
1, 857280, Note_on_c, 0, 86, 120
1, 857280, Note_on_c, 0, 45, 120
1, 857390, Note_on_c, 0, 90, 0
1, 857390, Note_on_c, 0, 86, 0
1, 857390, Note_on_c, 0, 45, 0
1, 857400, Note_on_c, 0, 91, 120
1, 857400, Note_on_c, 0, 88, 120
1, 857400, Note_on_c, 0, 57, 120
1, 857510, Note_on_c, 0, 91, 0
1, 857510, Note_on_c, 0, 88, 0
1, 857510, Note_on_c, 0, 57, 0
1, 857520, Time_signature, 4, 2, 24, 8
1, 857520, Note_on_c, 0, 90, 120
1, 857520, Note_on_c, 0, 86, 120
1, 857520, Note_on_c, 0, 81, 120
1, 857520, Note_on_c, 0, 62, 120
1, 857520, Note_on_c, 0, 66, 120
1, 857520, Note_on_c, 0, 57, 120
1, 857630, Note_on_c, 0, 62, 0
1, 857630, Note_on_c, 0, 66, 0
1, 857630, Note_on_c, 0, 57, 0
1, 857640, Note_on_c, 0, 69, 120
1, 857750, Note_on_c, 0, 90, 0
1, 857750, Note_on_c, 0, 69, 0
1, 857760, Note_on_c, 0, 91, 120
1, 857760, Note_on_c, 0, 62, 120
1, 857760, Note_on_c, 0, 66, 120
1, 857760, Note_on_c, 0, 57, 120
1, 857870, Note_on_c, 0, 91, 0
1, 857870, Note_on_c, 0, 62, 0
1, 857870, Note_on_c, 0, 66, 0
1, 857870, Note_on_c, 0, 57, 0
1, 857880, Note_on_c, 0, 90, 120
1, 857880, Note_on_c, 0, 69, 120
1, 857990, Note_on_c, 0, 90, 0
1, 857990, Note_on_c, 0, 86, 0
1, 857990, Note_on_c, 0, 81, 0
1, 857990, Note_on_c, 0, 69, 0
1, 858000, Note_on_c, 0, 88, 120
1, 858000, Note_on_c, 0, 85, 120
1, 858000, Note_on_c, 0, 81, 120
1, 858000, Note_on_c, 0, 61, 120
1, 858000, Note_on_c, 0, 64, 120
1, 858000, Note_on_c, 0, 57, 120
1, 858110, Note_on_c, 0, 61, 0
1, 858110, Note_on_c, 0, 64, 0
1, 858110, Note_on_c, 0, 57, 0
1, 858120, Note_on_c, 0, 69, 120
1, 858230, Note_on_c, 0, 88, 0
1, 858230, Note_on_c, 0, 69, 0
1, 858240, Note_on_c, 0, 90, 120
1, 858240, Note_on_c, 0, 61, 120
1, 858240, Note_on_c, 0, 64, 120
1, 858240, Note_on_c, 0, 57, 120
1, 858350, Note_on_c, 0, 90, 0
1, 858350, Note_on_c, 0, 61, 0
1, 858350, Note_on_c, 0, 64, 0
1, 858350, Note_on_c, 0, 57, 0
1, 858360, Note_on_c, 0, 88, 120
1, 858360, Note_on_c, 0, 69, 120
1, 858470, Note_on_c, 0, 88, 0
1, 858470, Note_on_c, 0, 85, 0
1, 858470, Note_on_c, 0, 81, 0
1, 858470, Note_on_c, 0, 69, 0
1, 858480, Time_signature, 4, 2, 24, 8
1, 858480, Note_on_c, 0, 86, 120
1, 858480, Note_on_c, 0, 74, 120
1, 858480, Note_on_c, 0, 62, 120
1, 858480, Note_on_c, 0, 62, 120
1, 858630, Note_on_c, 0, 86, 0
1, 858630, Note_on_c, 0, 74, 0
1, 858630, Note_on_c, 0, 62, 0
1, 858630, Note_on_c, 0, 62, 0
1, 858640, Note_on_c, 0, 74, 120
1, 858640, Note_on_c, 0, 62, 120
1, 858640, Note_on_c, 0, 50, 120
1, 858640, Note_on_c, 0, 50, 120
1, 858790, Note_on_c, 0, 74, 0
1, 858790, Note_on_c, 0, 62, 0
1, 858790, Note_on_c, 0, 50, 0
1, 858790, Note_on_c, 0, 50, 0
1, 858800, Note_on_c, 0, 76, 120
1, 858800, Note_on_c, 0, 64, 120
1, 858800, Note_on_c, 0, 52, 120
1, 858800, Note_on_c, 0, 52, 120
1, 858950, Note_on_c, 0, 76, 0
1, 858950, Note_on_c, 0, 64, 0
1, 858950, Note_on_c, 0, 52, 0
1, 858950, Note_on_c, 0, 52, 0
1, 858960, Note_on_c, 0, 78, 120
1, 858960, Note_on_c, 0, 66, 120
1, 858960, Note_on_c, 0, 54, 120
1, 858960, Note_on_c, 0, 54, 120
1, 859006, Control_c, 0, 64, 127
1, 859110, Note_on_c, 0, 78, 0
1, 859110, Note_on_c, 0, 66, 0
1, 859110, Note_on_c, 0, 54, 0
1, 859110, Note_on_c, 0, 54, 0
1, 859120, Note_on_c, 0, 79, 120
1, 859120, Note_on_c, 0, 67, 120
1, 859120, Note_on_c, 0, 50, 120
1, 859120, Note_on_c, 0, 50, 120
1, 859270, Note_on_c, 0, 79, 0
1, 859270, Note_on_c, 0, 67, 0
1, 859270, Note_on_c, 0, 50, 0
1, 859270, Note_on_c, 0, 50, 0
1, 859280, Note_on_c, 0, 81, 120
1, 859280, Note_on_c, 0, 69, 120
1, 859280, Note_on_c, 0, 48, 120
1, 859280, Note_on_c, 0, 48, 120
1, 859430, Note_on_c, 0, 81, 0
1, 859430, Note_on_c, 0, 69, 0
1, 859430, Note_on_c, 0, 48, 0
1, 859430, Note_on_c, 0, 48, 0
1, 859440, Time_signature, 4, 2, 24, 8
1, 859440, Note_on_c, 0, 83, 120
1, 859440, Note_on_c, 0, 71, 120
1, 859440, Note_on_c, 0, 47, 120
1, 859440, Note_on_c, 0, 47, 120
1, 859590, Note_on_c, 0, 83, 0
1, 859590, Note_on_c, 0, 71, 0
1, 859590, Note_on_c, 0, 47, 0
1, 859590, Note_on_c, 0, 47, 0
1, 859600, Note_on_c, 0, 83, 120
1, 859600, Note_on_c, 0, 71, 120
1, 859600, Note_on_c, 0, 59, 120
1, 859600, Note_on_c, 0, 59, 120
1, 859604, Control_c, 0, 64, 0
1, 859750, Note_on_c, 0, 83, 0
1, 859750, Note_on_c, 0, 71, 0
1, 859750, Note_on_c, 0, 59, 0
1, 859750, Note_on_c, 0, 59, 0
1, 859760, Note_on_c, 0, 84, 120
1, 859760, Note_on_c, 0, 72, 120
1, 859760, Note_on_c, 0, 60, 120
1, 859760, Note_on_c, 0, 60, 120
1, 859910, Note_on_c, 0, 84, 0
1, 859910, Note_on_c, 0, 72, 0
1, 859910, Note_on_c, 0, 60, 0
1, 859910, Note_on_c, 0, 60, 0
1, 859920, Note_on_c, 0, 86, 120
1, 859920, Note_on_c, 0, 74, 120
1, 859920, Note_on_c, 0, 62, 120
1, 859920, Note_on_c, 0, 62, 120
1, 860070, Note_on_c, 0, 86, 0
1, 860070, Note_on_c, 0, 74, 0
1, 860070, Note_on_c, 0, 62, 0
1, 860070, Note_on_c, 0, 62, 0
1, 860080, Note_on_c, 0, 88, 120
1, 860080, Note_on_c, 0, 76, 120
1, 860080, Note_on_c, 0, 59, 120
1, 860080, Note_on_c, 0, 59, 120
1, 860230, Note_on_c, 0, 88, 0
1, 860230, Note_on_c, 0, 76, 0
1, 860230, Note_on_c, 0, 59, 0
1, 860230, Note_on_c, 0, 59, 0
1, 860240, Note_on_c, 0, 90, 120
1, 860240, Note_on_c, 0, 78, 120
1, 860240, Note_on_c, 0, 57, 120
1, 860240, Note_on_c, 0, 57, 120
1, 860390, Note_on_c, 0, 90, 0
1, 860390, Note_on_c, 0, 78, 0
1, 860390, Note_on_c, 0, 57, 0
1, 860390, Note_on_c, 0, 57, 0
1, 860400, Time_signature, 4, 2, 24, 8
1, 860400, Note_on_c, 0, 91, 120
1, 860400, Note_on_c, 0, 79, 120
1, 860400, Note_on_c, 0, 55, 120
1, 860400, Note_on_c, 0, 43, 120
1, 860423, Control_c, 0, 64, 127
1, 860550, Note_on_c, 0, 91, 0
1, 860550, Note_on_c, 0, 79, 0
1, 860550, Note_on_c, 0, 55, 0
1, 860550, Note_on_c, 0, 43, 0
1, 860560, Note_on_c, 0, 57, 120
1, 860560, Note_on_c, 0, 45, 120
1, 860702, Control_c, 0, 64, 0
1, 860710, Note_on_c, 0, 57, 0
1, 860710, Note_on_c, 0, 45, 0
1, 860720, Note_on_c, 0, 59, 120
1, 860720, Note_on_c, 0, 47, 120
1, 860870, Note_on_c, 0, 59, 0
1, 860870, Note_on_c, 0, 47, 0
1, 860880, Note_on_c, 0, 76, 120
1, 860880, Note_on_c, 0, 64, 120
1, 860880, Note_on_c, 0, 52, 120
1, 860880, Note_on_c, 0, 40, 120
1, 861030, Note_on_c, 0, 76, 0
1, 861030, Note_on_c, 0, 64, 0
1, 861030, Note_on_c, 0, 52, 0
1, 861030, Note_on_c, 0, 40, 0
1, 861040, Note_on_c, 0, 78, 120
1, 861040, Note_on_c, 0, 66, 120
1, 861040, Note_on_c, 0, 54, 120
1, 861040, Note_on_c, 0, 42, 120
1, 861090, Control_c, 0, 64, 127
1, 861190, Note_on_c, 0, 78, 0
1, 861190, Note_on_c, 0, 66, 0
1, 861190, Note_on_c, 0, 54, 0
1, 861190, Note_on_c, 0, 42, 0
1, 861200, Note_on_c, 0, 79, 120
1, 861200, Note_on_c, 0, 67, 120
1, 861200, Note_on_c, 0, 55, 120
1, 861200, Note_on_c, 0, 43, 120
1, 861350, Note_on_c, 0, 79, 0
1, 861350, Note_on_c, 0, 67, 0
1, 861350, Note_on_c, 0, 55, 0
1, 861350, Note_on_c, 0, 43, 0
1, 861360, Time_signature, 4, 2, 24, 8
1, 861360, Note_on_c, 0, 81, 120
1, 861360, Note_on_c, 0, 69, 120
1, 861360, Note_on_c, 0, 57, 120
1, 861360, Note_on_c, 0, 45, 120
1, 861510, Note_on_c, 0, 81, 0
1, 861510, Note_on_c, 0, 69, 0
1, 861510, Note_on_c, 0, 57, 0
1, 861510, Note_on_c, 0, 45, 0
1, 861520, Note_on_c, 0, 85, 120
1, 861520, Note_on_c, 0, 73, 120
1, 861520, Note_on_c, 0, 61, 120
1, 861520, Note_on_c, 0, 49, 120
1, 861670, Note_on_c, 0, 85, 0
1, 861670, Note_on_c, 0, 73, 0
1, 861670, Note_on_c, 0, 61, 0
1, 861670, Note_on_c, 0, 49, 0
1, 861680, Note_on_c, 0, 86, 120
1, 861680, Note_on_c, 0, 74, 120
1, 861680, Note_on_c, 0, 62, 120
1, 861680, Note_on_c, 0, 50, 120
1, 861830, Note_on_c, 0, 86, 0
1, 861830, Note_on_c, 0, 74, 0
1, 861830, Note_on_c, 0, 62, 0
1, 861830, Note_on_c, 0, 50, 0
1, 861840, Note_on_c, 0, 88, 120
1, 861840, Note_on_c, 0, 76, 120
1, 861840, Note_on_c, 0, 64, 120
1, 861840, Note_on_c, 0, 52, 120
1, 861990, Note_on_c, 0, 88, 0
1, 861990, Note_on_c, 0, 76, 0
1, 861990, Note_on_c, 0, 64, 0
1, 861990, Note_on_c, 0, 52, 0
1, 862000, Note_on_c, 0, 90, 120
1, 862000, Note_on_c, 0, 78, 120
1, 862000, Note_on_c, 0, 66, 120
1, 862000, Note_on_c, 0, 54, 120
1, 862010, Control_c, 0, 64, 0
1, 862150, Note_on_c, 0, 90, 0
1, 862150, Note_on_c, 0, 78, 0
1, 862150, Note_on_c, 0, 66, 0
1, 862150, Note_on_c, 0, 54, 0
1, 862160, Note_on_c, 0, 91, 120
1, 862160, Note_on_c, 0, 79, 120
1, 862160, Note_on_c, 0, 67, 120
1, 862160, Note_on_c, 0, 55, 120
1, 862310, Note_on_c, 0, 91, 0
1, 862310, Note_on_c, 0, 79, 0
1, 862310, Note_on_c, 0, 67, 0
1, 862310, Note_on_c, 0, 55, 0
1, 862320, Time_signature, 4, 2, 24, 8
1, 862320, Note_on_c, 0, 93, 120
1, 862320, Note_on_c, 0, 81, 120
1, 862320, Note_on_c, 0, 69, 120
1, 862320, Note_on_c, 0, 57, 120
1, 862348, Control_c, 0, 64, 127
1, 862470, Note_on_c, 0, 69, 0
1, 862470, Note_on_c, 0, 57, 0
1, 862480, Note_on_c, 0, 71, 120
1, 862480, Note_on_c, 0, 59, 120
1, 862550, Note_on_c, 0, 93, 0
1, 862550, Note_on_c, 0, 81, 0
1, 862630, Note_on_c, 0, 71, 0
1, 862630, Note_on_c, 0, 59, 0
1, 862640, Note_on_c, 0, 73, 120
1, 862640, Note_on_c, 0, 61, 120
1, 862661, Control_c, 0, 64, 0
1, 862790, Note_on_c, 0, 73, 0
1, 862790, Note_on_c, 0, 61, 0
1, 862800, Note_on_c, 0, 74, 120
1, 862800, Note_on_c, 0, 62, 120
1, 862800, Note_on_c, 0, 50, 120
1, 862800, Note_on_c, 0, 38, 120
1, 862950, Note_on_c, 0, 74, 0
1, 862950, Note_on_c, 0, 62, 0
1, 862950, Note_on_c, 0, 50, 0
1, 862950, Note_on_c, 0, 38, 0
1, 862960, Note_on_c, 0, 78, 120
1, 862960, Note_on_c, 0, 66, 120
1, 862960, Note_on_c, 0, 54, 120
1, 862960, Note_on_c, 0, 42, 120
1, 863110, Note_on_c, 0, 78, 0
1, 863110, Note_on_c, 0, 66, 0
1, 863110, Note_on_c, 0, 54, 0
1, 863110, Note_on_c, 0, 42, 0
1, 863120, Note_on_c, 0, 79, 120
1, 863120, Note_on_c, 0, 67, 120
1, 863120, Note_on_c, 0, 55, 120
1, 863120, Note_on_c, 0, 43, 120
1, 863270, Note_on_c, 0, 79, 0
1, 863270, Note_on_c, 0, 67, 0
1, 863270, Note_on_c, 0, 55, 0
1, 863270, Note_on_c, 0, 43, 0
1, 863280, Time_signature, 4, 2, 24, 8
1, 863280, Note_on_c, 0, 81, 120
1, 863280, Note_on_c, 0, 69, 120
1, 863280, Note_on_c, 0, 57, 120
1, 863280, Note_on_c, 0, 45, 120
1, 863430, Note_on_c, 0, 81, 0
1, 863430, Note_on_c, 0, 69, 0
1, 863430, Note_on_c, 0, 57, 0
1, 863430, Note_on_c, 0, 45, 0
1, 863440, Note_on_c, 0, 85, 120
1, 863440, Note_on_c, 0, 73, 120
1, 863440, Note_on_c, 0, 61, 120
1, 863440, Note_on_c, 0, 49, 120
1, 863590, Note_on_c, 0, 85, 0
1, 863590, Note_on_c, 0, 73, 0
1, 863590, Note_on_c, 0, 61, 0
1, 863590, Note_on_c, 0, 49, 0
1, 863600, Note_on_c, 0, 86, 120
1, 863600, Note_on_c, 0, 74, 120
1, 863600, Note_on_c, 0, 62, 120
1, 863600, Note_on_c, 0, 50, 120
1, 863750, Note_on_c, 0, 86, 0
1, 863750, Note_on_c, 0, 74, 0
1, 863750, Note_on_c, 0, 62, 0
1, 863750, Note_on_c, 0, 50, 0
1, 863760, Note_on_c, 0, 88, 120
1, 863760, Note_on_c, 0, 76, 120
1, 863760, Note_on_c, 0, 64, 120
1, 863760, Note_on_c, 0, 52, 120
1, 863910, Note_on_c, 0, 88, 0
1, 863910, Note_on_c, 0, 76, 0
1, 863910, Note_on_c, 0, 64, 0
1, 863910, Note_on_c, 0, 52, 0
1, 863920, Note_on_c, 0, 90, 120
1, 863920, Note_on_c, 0, 78, 120
1, 863920, Note_on_c, 0, 66, 120
1, 863920, Note_on_c, 0, 54, 120
1, 864070, Note_on_c, 0, 90, 0
1, 864070, Note_on_c, 0, 78, 0
1, 864070, Note_on_c, 0, 66, 0
1, 864070, Note_on_c, 0, 54, 0
1, 864080, Note_on_c, 0, 91, 120
1, 864080, Note_on_c, 0, 79, 120
1, 864080, Note_on_c, 0, 67, 120
1, 864080, Note_on_c, 0, 55, 120
1, 864230, Note_on_c, 0, 91, 0
1, 864230, Note_on_c, 0, 79, 0
1, 864230, Note_on_c, 0, 67, 0
1, 864230, Note_on_c, 0, 55, 0
1, 864240, Time_signature, 4, 2, 24, 8
1, 864240, Note_on_c, 0, 93, 120
1, 864240, Note_on_c, 0, 81, 120
1, 864240, Note_on_c, 0, 69, 120
1, 864240, Note_on_c, 0, 57, 120
1, 864390, Note_on_c, 0, 69, 0
1, 864390, Note_on_c, 0, 57, 0
1, 864400, Note_on_c, 0, 71, 120
1, 864400, Note_on_c, 0, 59, 120
1, 864470, Note_on_c, 0, 93, 0
1, 864470, Note_on_c, 0, 81, 0
1, 864550, Note_on_c, 0, 71, 0
1, 864550, Note_on_c, 0, 59, 0
1, 864560, Note_on_c, 0, 73, 120
1, 864560, Note_on_c, 0, 61, 120
1, 864710, Note_on_c, 0, 73, 0
1, 864710, Note_on_c, 0, 61, 0
1, 864720, Note_on_c, 0, 74, 120
1, 864720, Note_on_c, 0, 62, 120
1, 864720, Note_on_c, 0, 50, 120
1, 864720, Note_on_c, 0, 38, 120
1, 864870, Note_on_c, 0, 74, 0
1, 864870, Note_on_c, 0, 62, 0
1, 864870, Note_on_c, 0, 50, 0
1, 864870, Note_on_c, 0, 38, 0
1, 864880, Note_on_c, 0, 76, 120
1, 864880, Note_on_c, 0, 64, 120
1, 864880, Note_on_c, 0, 52, 120
1, 864880, Note_on_c, 0, 40, 120
1, 865030, Note_on_c, 0, 76, 0
1, 865030, Note_on_c, 0, 64, 0
1, 865030, Note_on_c, 0, 52, 0
1, 865030, Note_on_c, 0, 40, 0
1, 865040, Note_on_c, 0, 78, 120
1, 865040, Note_on_c, 0, 66, 120
1, 865040, Note_on_c, 0, 54, 120
1, 865040, Note_on_c, 0, 42, 120
1, 865190, Note_on_c, 0, 78, 0
1, 865190, Note_on_c, 0, 66, 0
1, 865190, Note_on_c, 0, 54, 0
1, 865190, Note_on_c, 0, 42, 0
1, 865200, Time_signature, 4, 2, 24, 8
1, 865200, Note_on_c, 0, 81, 120
1, 865200, Note_on_c, 0, 69, 120
1, 865200, Note_on_c, 0, 49, 120
1, 865200, Note_on_c, 0, 37, 120
1, 865350, Note_on_c, 0, 49, 0
1, 865350, Note_on_c, 0, 37, 0
1, 865360, Note_on_c, 0, 50, 120
1, 865360, Note_on_c, 0, 38, 120
1, 865510, Note_on_c, 0, 50, 0
1, 865510, Note_on_c, 0, 38, 0
1, 865520, Note_on_c, 0, 52, 120
1, 865520, Note_on_c, 0, 40, 120
1, 865670, Note_on_c, 0, 81, 0
1, 865670, Note_on_c, 0, 69, 0
1, 865670, Note_on_c, 0, 52, 0
1, 865670, Note_on_c, 0, 40, 0
1, 865680, Note_on_c, 0, 69, 120
1, 865680, Note_on_c, 0, 57, 120
1, 865680, Note_on_c, 0, 50, 120
1, 865680, Note_on_c, 0, 38, 120
1, 865830, Note_on_c, 0, 50, 0
1, 865830, Note_on_c, 0, 38, 0
1, 865840, Note_on_c, 0, 52, 120
1, 865840, Note_on_c, 0, 40, 120
1, 865990, Note_on_c, 0, 52, 0
1, 865990, Note_on_c, 0, 40, 0
1, 866000, Note_on_c, 0, 54, 120
1, 866000, Note_on_c, 0, 42, 120
1, 866150, Note_on_c, 0, 69, 0
1, 866150, Note_on_c, 0, 57, 0
1, 866150, Note_on_c, 0, 54, 0
1, 866150, Note_on_c, 0, 42, 0
1, 866160, Time_signature, 4, 2, 24, 8
1, 866160, Note_on_c, 0, 81, 120
1, 866160, Note_on_c, 0, 69, 120
1, 866160, Note_on_c, 0, 51, 120
1, 866160, Note_on_c, 0, 39, 120
1, 866310, Note_on_c, 0, 51, 0
1, 866310, Note_on_c, 0, 39, 0
1, 866320, Note_on_c, 0, 52, 120
1, 866320, Note_on_c, 0, 40, 120
1, 866470, Note_on_c, 0, 52, 0
1, 866470, Note_on_c, 0, 40, 0
1, 866480, Note_on_c, 0, 54, 120
1, 866480, Note_on_c, 0, 42, 120
1, 866630, Note_on_c, 0, 54, 0
1, 866630, Note_on_c, 0, 42, 0
1, 866640, Note_on_c, 0, 55, 120
1, 866640, Note_on_c, 0, 43, 120
1, 866790, Note_on_c, 0, 81, 0
1, 866790, Note_on_c, 0, 69, 0
1, 866800, Note_on_c, 0, 83, 120
1, 866800, Note_on_c, 0, 71, 120
1, 866950, Note_on_c, 0, 83, 0
1, 866950, Note_on_c, 0, 71, 0
1, 866960, Note_on_c, 0, 85, 120
1, 866960, Note_on_c, 0, 73, 120
1, 867110, Note_on_c, 0, 85, 0
1, 867110, Note_on_c, 0, 73, 0
1, 867110, Note_on_c, 0, 55, 0
1, 867110, Note_on_c, 0, 43, 0
1, 867120, Time_signature, 4, 2, 24, 8
1, 867120, Note_on_c, 0, 86, 120
1, 867120, Note_on_c, 0, 74, 120
1, 867120, Note_on_c, 0, 54, 120
1, 867120, Note_on_c, 0, 42, 120
1, 867270, Note_on_c, 0, 86, 0
1, 867270, Note_on_c, 0, 74, 0
1, 867270, Note_on_c, 0, 54, 0
1, 867270, Note_on_c, 0, 42, 0
1, 867280, Note_on_c, 0, 88, 120
1, 867280, Note_on_c, 0, 76, 120
1, 867280, Note_on_c, 0, 52, 120
1, 867280, Note_on_c, 0, 40, 120
1, 867430, Note_on_c, 0, 88, 0
1, 867430, Note_on_c, 0, 76, 0
1, 867430, Note_on_c, 0, 52, 0
1, 867430, Note_on_c, 0, 40, 0
1, 867440, Note_on_c, 0, 90, 120
1, 867440, Note_on_c, 0, 78, 120
1, 867440, Note_on_c, 0, 50, 120
1, 867440, Note_on_c, 0, 38, 120
1, 867590, Note_on_c, 0, 90, 0
1, 867590, Note_on_c, 0, 78, 0
1, 867590, Note_on_c, 0, 50, 0
1, 867590, Note_on_c, 0, 38, 0
1, 867600, Note_on_c, 0, 93, 120
1, 867600, Note_on_c, 0, 81, 120
1, 867600, Note_on_c, 0, 50, 120
1, 867600, Note_on_c, 0, 38, 120
1, 867750, Note_on_c, 0, 50, 0
1, 867750, Note_on_c, 0, 38, 0
1, 867760, Note_on_c, 0, 52, 120
1, 867760, Note_on_c, 0, 40, 120
1, 867830, Note_on_c, 0, 93, 0
1, 867830, Note_on_c, 0, 81, 0
1, 867910, Note_on_c, 0, 52, 0
1, 867910, Note_on_c, 0, 40, 0
1, 867920, Note_on_c, 0, 54, 120
1, 867920, Note_on_c, 0, 42, 120
1, 868070, Note_on_c, 0, 54, 0
1, 868070, Note_on_c, 0, 42, 0
1, 868080, Time_signature, 4, 2, 24, 8
1, 868080, Note_on_c, 0, 81, 120
1, 868080, Note_on_c, 0, 69, 120
1, 868080, Note_on_c, 0, 49, 120
1, 868080, Note_on_c, 0, 37, 120
1, 868230, Note_on_c, 0, 49, 0
1, 868230, Note_on_c, 0, 37, 0
1, 868240, Note_on_c, 0, 50, 120
1, 868240, Note_on_c, 0, 38, 120
1, 868390, Note_on_c, 0, 50, 0
1, 868390, Note_on_c, 0, 38, 0
1, 868400, Note_on_c, 0, 52, 120
1, 868400, Note_on_c, 0, 40, 120
1, 868550, Note_on_c, 0, 81, 0
1, 868550, Note_on_c, 0, 69, 0
1, 868550, Note_on_c, 0, 52, 0
1, 868550, Note_on_c, 0, 40, 0
1, 868560, Note_on_c, 0, 69, 120
1, 868560, Note_on_c, 0, 57, 120
1, 868560, Note_on_c, 0, 50, 120
1, 868560, Note_on_c, 0, 38, 120
1, 868710, Note_on_c, 0, 50, 0
1, 868710, Note_on_c, 0, 38, 0
1, 868720, Note_on_c, 0, 52, 120
1, 868720, Note_on_c, 0, 40, 120
1, 868870, Note_on_c, 0, 52, 0
1, 868870, Note_on_c, 0, 40, 0
1, 868880, Note_on_c, 0, 54, 120
1, 868880, Note_on_c, 0, 42, 120
1, 869030, Note_on_c, 0, 69, 0
1, 869030, Note_on_c, 0, 57, 0
1, 869030, Note_on_c, 0, 54, 0
1, 869030, Note_on_c, 0, 42, 0
1, 869040, Time_signature, 4, 2, 24, 8
1, 869040, Note_on_c, 0, 81, 120
1, 869040, Note_on_c, 0, 69, 120
1, 869040, Note_on_c, 0, 51, 120
1, 869040, Note_on_c, 0, 39, 120
1, 869190, Note_on_c, 0, 51, 0
1, 869190, Note_on_c, 0, 39, 0
1, 869200, Note_on_c, 0, 52, 120
1, 869200, Note_on_c, 0, 40, 120
1, 869350, Note_on_c, 0, 52, 0
1, 869350, Note_on_c, 0, 40, 0
1, 869360, Note_on_c, 0, 54, 120
1, 869360, Note_on_c, 0, 42, 120
1, 869510, Note_on_c, 0, 54, 0
1, 869510, Note_on_c, 0, 42, 0
1, 869520, Note_on_c, 0, 55, 120
1, 869520, Note_on_c, 0, 43, 120
1, 869670, Note_on_c, 0, 81, 0
1, 869670, Note_on_c, 0, 69, 0
1, 869680, Note_on_c, 0, 83, 120
1, 869680, Note_on_c, 0, 71, 120
1, 869830, Note_on_c, 0, 83, 0
1, 869830, Note_on_c, 0, 71, 0
1, 869840, Note_on_c, 0, 85, 120
1, 869840, Note_on_c, 0, 73, 120
1, 869990, Note_on_c, 0, 85, 0
1, 869990, Note_on_c, 0, 73, 0
1, 869990, Note_on_c, 0, 55, 0
1, 869990, Note_on_c, 0, 43, 0
1, 870000, Time_signature, 4, 2, 24, 8
1, 870000, Note_on_c, 0, 86, 120
1, 870000, Note_on_c, 0, 74, 120
1, 870000, Note_on_c, 0, 54, 120
1, 870000, Note_on_c, 0, 42, 120
1, 870150, Note_on_c, 0, 86, 0
1, 870150, Note_on_c, 0, 74, 0
1, 870150, Note_on_c, 0, 54, 0
1, 870150, Note_on_c, 0, 42, 0
1, 870160, Note_on_c, 0, 88, 120
1, 870160, Note_on_c, 0, 76, 120
1, 870160, Note_on_c, 0, 52, 120
1, 870160, Note_on_c, 0, 40, 120
1, 870310, Note_on_c, 0, 88, 0
1, 870310, Note_on_c, 0, 76, 0
1, 870310, Note_on_c, 0, 52, 0
1, 870310, Note_on_c, 0, 40, 0
1, 870320, Note_on_c, 0, 90, 120
1, 870320, Note_on_c, 0, 78, 120
1, 870320, Note_on_c, 0, 50, 120
1, 870320, Note_on_c, 0, 38, 120
1, 870470, Note_on_c, 0, 90, 0
1, 870470, Note_on_c, 0, 78, 0
1, 870470, Note_on_c, 0, 50, 0
1, 870470, Note_on_c, 0, 38, 0
1, 870480, Note_on_c, 0, 93, 120
1, 870480, Note_on_c, 0, 81, 120
1, 870480, Note_on_c, 0, 50, 120
1, 870480, Note_on_c, 0, 38, 120
1, 870630, Note_on_c, 0, 50, 0
1, 870630, Note_on_c, 0, 38, 0
1, 870640, Note_on_c, 0, 52, 120
1, 870640, Note_on_c, 0, 40, 120
1, 870710, Note_on_c, 0, 93, 0
1, 870710, Note_on_c, 0, 81, 0
1, 870790, Note_on_c, 0, 52, 0
1, 870790, Note_on_c, 0, 40, 0
1, 870800, Note_on_c, 0, 54, 120
1, 870800, Note_on_c, 0, 42, 120
1, 870950, Note_on_c, 0, 54, 0
1, 870950, Note_on_c, 0, 42, 0
1, 870960, Time_signature, 4, 2, 24, 8
1, 870960, Note_on_c, 0, 81, 120
1, 870960, Note_on_c, 0, 69, 120
1, 870960, Note_on_c, 0, 49, 120
1, 870960, Note_on_c, 0, 37, 120
1, 871110, Note_on_c, 0, 49, 0
1, 871110, Note_on_c, 0, 37, 0
1, 871120, Note_on_c, 0, 50, 120
1, 871120, Note_on_c, 0, 38, 120
1, 871270, Note_on_c, 0, 50, 0
1, 871270, Note_on_c, 0, 38, 0
1, 871280, Note_on_c, 0, 52, 120
1, 871280, Note_on_c, 0, 40, 120
1, 871430, Note_on_c, 0, 81, 0
1, 871430, Note_on_c, 0, 69, 0
1, 871430, Note_on_c, 0, 52, 0
1, 871430, Note_on_c, 0, 40, 0
1, 871440, Note_on_c, 0, 69, 120
1, 871440, Note_on_c, 0, 57, 120
1, 871440, Note_on_c, 0, 50, 120
1, 871440, Note_on_c, 0, 38, 120
1, 871590, Note_on_c, 0, 50, 0
1, 871590, Note_on_c, 0, 38, 0
1, 871600, Note_on_c, 0, 52, 120
1, 871600, Note_on_c, 0, 40, 120
1, 871750, Note_on_c, 0, 52, 0
1, 871750, Note_on_c, 0, 40, 0
1, 871760, Note_on_c, 0, 54, 120
1, 871760, Note_on_c, 0, 42, 120
1, 871910, Note_on_c, 0, 69, 0
1, 871910, Note_on_c, 0, 57, 0
1, 871910, Note_on_c, 0, 54, 0
1, 871910, Note_on_c, 0, 42, 0
1, 871920, Time_signature, 4, 2, 24, 8
1, 871920, Note_on_c, 0, 81, 120
1, 871920, Note_on_c, 0, 69, 120
1, 871920, Note_on_c, 0, 51, 120
1, 871920, Note_on_c, 0, 39, 120
1, 872070, Note_on_c, 0, 51, 0
1, 872070, Note_on_c, 0, 39, 0
1, 872080, Note_on_c, 0, 52, 120
1, 872080, Note_on_c, 0, 40, 120
1, 872230, Note_on_c, 0, 52, 0
1, 872230, Note_on_c, 0, 40, 0
1, 872240, Note_on_c, 0, 54, 120
1, 872240, Note_on_c, 0, 42, 120
1, 872390, Note_on_c, 0, 54, 0
1, 872390, Note_on_c, 0, 42, 0
1, 872400, Note_on_c, 0, 55, 120
1, 872400, Note_on_c, 0, 43, 120
1, 872550, Note_on_c, 0, 81, 0
1, 872550, Note_on_c, 0, 69, 0
1, 872560, Note_on_c, 0, 83, 120
1, 872560, Note_on_c, 0, 71, 120
1, 872710, Note_on_c, 0, 83, 0
1, 872710, Note_on_c, 0, 71, 0
1, 872710, Note_on_c, 0, 55, 0
1, 872710, Note_on_c, 0, 43, 0
1, 872720, Note_on_c, 0, 85, 120
1, 872720, Note_on_c, 0, 73, 120
1, 872720, Note_on_c, 0, 57, 120
1, 872720, Note_on_c, 0, 45, 120
1, 872870, Note_on_c, 0, 85, 0
1, 872870, Note_on_c, 0, 73, 0
1, 872870, Note_on_c, 0, 57, 0
1, 872870, Note_on_c, 0, 45, 0
1, 872880, Time_signature, 4, 2, 24, 8
1, 872880, Note_on_c, 0, 86, 120
1, 872880, Note_on_c, 0, 74, 120
1, 872880, Note_on_c, 0, 59, 120
1, 872880, Note_on_c, 0, 47, 120
1, 873030, Note_on_c, 0, 86, 0
1, 873030, Note_on_c, 0, 74, 0
1, 873030, Note_on_c, 0, 59, 0
1, 873030, Note_on_c, 0, 47, 0
1, 873040, Note_on_c, 0, 88, 120
1, 873040, Note_on_c, 0, 76, 120
1, 873040, Note_on_c, 0, 61, 120
1, 873040, Note_on_c, 0, 49, 120
1, 873190, Note_on_c, 0, 88, 0
1, 873190, Note_on_c, 0, 76, 0
1, 873190, Note_on_c, 0, 61, 0
1, 873190, Note_on_c, 0, 49, 0
1, 873200, Note_on_c, 0, 90, 120
1, 873200, Note_on_c, 0, 78, 120
1, 873200, Note_on_c, 0, 62, 120
1, 873200, Note_on_c, 0, 50, 120
1, 873350, Note_on_c, 0, 90, 0
1, 873350, Note_on_c, 0, 78, 0
1, 873350, Note_on_c, 0, 62, 0
1, 873350, Note_on_c, 0, 50, 0
1, 873360, Note_on_c, 0, 91, 120
1, 873360, Note_on_c, 0, 79, 120
1, 873360, Note_on_c, 0, 64, 120
1, 873360, Note_on_c, 0, 52, 120
1, 873510, Note_on_c, 0, 91, 0
1, 873510, Note_on_c, 0, 79, 0
1, 873510, Note_on_c, 0, 64, 0
1, 873510, Note_on_c, 0, 52, 0
1, 873520, Note_on_c, 0, 91, 120
1, 873520, Note_on_c, 0, 79, 120
1, 873520, Note_on_c, 0, 64, 120
1, 873520, Note_on_c, 0, 52, 120
1, 873670, Note_on_c, 0, 91, 0
1, 873670, Note_on_c, 0, 79, 0
1, 873670, Note_on_c, 0, 64, 0
1, 873670, Note_on_c, 0, 52, 0
1, 873680, Note_on_c, 0, 91, 120
1, 873680, Note_on_c, 0, 79, 120
1, 873680, Note_on_c, 0, 64, 120
1, 873680, Note_on_c, 0, 52, 120
1, 873830, Note_on_c, 0, 91, 0
1, 873830, Note_on_c, 0, 79, 0
1, 873830, Note_on_c, 0, 64, 0
1, 873830, Note_on_c, 0, 52, 0
1, 873840, Time_signature, 3, 2, 24, 8
1, 873840, Tempo, 1111111
1, 873840, Note_on_c, 0, 85, 120
1, 873840, Note_on_c, 0, 88, 120
1, 873840, Note_on_c, 0, 91, 120
1, 873840, Note_on_c, 0, 79, 120
1, 873840, Note_on_c, 0, 57, 120
1, 873840, Note_on_c, 0, 45, 120
1, 873937, Control_c, 0, 64, 127
1, 874190, Note_on_c, 0, 85, 0
1, 874190, Note_on_c, 0, 88, 0
1, 874190, Note_on_c, 0, 91, 0
1, 874190, Note_on_c, 0, 79, 0
1, 874190, Note_on_c, 0, 57, 0
1, 874190, Note_on_c, 0, 45, 0
1, 874200, Note_on_c, 0, 88, 120
1, 874200, Note_on_c, 0, 91, 120
1, 874200, Note_on_c, 0, 79, 120
1, 874200, Note_on_c, 0, 61, 120
1, 874200, Note_on_c, 0, 64, 120
1, 874200, Note_on_c, 0, 67, 120
1, 874200, Note_on_c, 0, 57, 120
1, 874310, Note_on_c, 0, 88, 0
1, 874310, Note_on_c, 0, 91, 0
1, 874310, Note_on_c, 0, 79, 0
1, 874310, Note_on_c, 0, 61, 0
1, 874310, Note_on_c, 0, 64, 0
1, 874310, Note_on_c, 0, 67, 0
1, 874310, Note_on_c, 0, 57, 0
1, 874320, Note_on_c, 0, 88, 120
1, 874320, Note_on_c, 0, 91, 120
1, 874320, Note_on_c, 0, 79, 120
1, 874320, Note_on_c, 0, 61, 120
1, 874320, Note_on_c, 0, 64, 120
1, 874320, Note_on_c, 0, 67, 120
1, 874320, Note_on_c, 0, 57, 120
1, 874490, Note_on_c, 0, 88, 0
1, 874490, Note_on_c, 0, 91, 0
1, 874490, Note_on_c, 0, 79, 0
1, 874490, Note_on_c, 0, 61, 0
1, 874490, Note_on_c, 0, 64, 0
1, 874490, Note_on_c, 0, 67, 0
1, 874490, Note_on_c, 0, 57, 0
1, 874500, Note_on_c, 0, 79, 120
1, 874500, Note_on_c, 0, 88, 120
1, 874500, Note_on_c, 0, 76, 120
1, 874500, Note_on_c, 0, 61, 120
1, 874500, Note_on_c, 0, 64, 120
1, 874500, Note_on_c, 0, 67, 120
1, 874500, Note_on_c, 0, 57, 120
1, 874550, Note_on_c, 0, 79, 0
1, 874550, Note_on_c, 0, 88, 0
1, 874550, Note_on_c, 0, 76, 0
1, 874550, Note_on_c, 0, 61, 0
1, 874550, Note_on_c, 0, 64, 0
1, 874550, Note_on_c, 0, 67, 0
1, 874550, Note_on_c, 0, 57, 0
1, 874560, Note_on_c, 0, 79, 120
1, 874560, Note_on_c, 0, 86, 120
1, 874560, Note_on_c, 0, 74, 120
1, 874560, Note_on_c, 0, 61, 120
1, 874560, Note_on_c, 0, 64, 120
1, 874560, Note_on_c, 0, 67, 120
1, 874560, Note_on_c, 0, 57, 120
1, 874634, Control_c, 0, 64, 0
1, 874730, Note_on_c, 0, 79, 0
1, 874730, Note_on_c, 0, 86, 0
1, 874730, Note_on_c, 0, 74, 0
1, 874730, Note_on_c, 0, 61, 0
1, 874730, Note_on_c, 0, 64, 0
1, 874730, Note_on_c, 0, 67, 0
1, 874730, Note_on_c, 0, 57, 0
1, 874740, Note_on_c, 0, 79, 120
1, 874740, Note_on_c, 0, 85, 120
1, 874740, Note_on_c, 0, 73, 120
1, 874740, Note_on_c, 0, 61, 120
1, 874740, Note_on_c, 0, 64, 120
1, 874740, Note_on_c, 0, 67, 120
1, 874740, Note_on_c, 0, 57, 120
1, 874790, Note_on_c, 0, 79, 0
1, 874790, Note_on_c, 0, 85, 0
1, 874790, Note_on_c, 0, 73, 0
1, 874790, Note_on_c, 0, 61, 0
1, 874790, Note_on_c, 0, 64, 0
1, 874790, Note_on_c, 0, 67, 0
1, 874790, Note_on_c, 0, 57, 0
1, 874800, Note_on_c, 0, 88, 120
1, 874800, Note_on_c, 0, 85, 120
1, 874800, Note_on_c, 0, 61, 120
1, 874800, Note_on_c, 0, 64, 120
1, 874800, Note_on_c, 0, 67, 120
1, 874800, Note_on_c, 0, 57, 120
1, 874800, Note_on_c, 0, 64, 120
1, 874851, Control_c, 0, 64, 127
1, 874910, Note_on_c, 0, 61, 0
1, 874910, Note_on_c, 0, 64, 0
1, 874910, Note_on_c, 0, 67, 0
1, 874910, Note_on_c, 0, 57, 0
1, 874910, Note_on_c, 0, 64, 0
1, 874920, Note_on_c, 0, 76, 120
1, 874920, Note_on_c, 0, 73, 120
1, 875060, Note_on_c, 0, 76, 0
1, 875060, Note_on_c, 0, 73, 0
1, 875070, Note_on_c, 0, 74, 120
1, 875070, Note_on_c, 0, 71, 120
1, 875090, Note_on_c, 0, 74, 0
1, 875090, Note_on_c, 0, 71, 0
1, 875100, Note_on_c, 0, 73, 120
1, 875100, Note_on_c, 0, 69, 120
1, 875120, Note_on_c, 0, 73, 0
1, 875120, Note_on_c, 0, 69, 0
1, 875130, Note_on_c, 0, 71, 120
1, 875130, Note_on_c, 0, 67, 120
1, 875150, Note_on_c, 0, 88, 0
1, 875150, Note_on_c, 0, 85, 0
1, 875150, Note_on_c, 0, 71, 0
1, 875150, Note_on_c, 0, 67, 0
1, 875160, Note_on_c, 0, 86, 120
1, 875160, Note_on_c, 0, 90, 120
1, 875160, Note_on_c, 0, 78, 120
1, 875160, Note_on_c, 0, 69, 120
1, 875160, Note_on_c, 0, 66, 120
1, 875180, Note_on_c, 0, 69, 0
1, 875180, Note_on_c, 0, 66, 0
1, 875190, Note_on_c, 0, 67, 120
1, 875190, Note_on_c, 0, 64, 120
1, 875210, Note_on_c, 0, 86, 0
1, 875210, Note_on_c, 0, 90, 0
1, 875210, Note_on_c, 0, 78, 0
1, 875210, Note_on_c, 0, 67, 0
1, 875210, Note_on_c, 0, 64, 0
1, 875220, Note_on_c, 0, 88, 120
1, 875220, Note_on_c, 0, 91, 120
1, 875220, Note_on_c, 0, 79, 120
1, 875220, Note_on_c, 0, 66, 120
1, 875220, Note_on_c, 0, 62, 120
1, 875232, Control_c, 0, 64, 0
1, 875240, Note_on_c, 0, 66, 0
1, 875240, Note_on_c, 0, 62, 0
1, 875250, Note_on_c, 0, 64, 120
1, 875250, Note_on_c, 0, 61, 120
1, 875270, Note_on_c, 0, 88, 0
1, 875270, Note_on_c, 0, 91, 0
1, 875270, Note_on_c, 0, 79, 0
1, 875270, Note_on_c, 0, 64, 0
1, 875270, Note_on_c, 0, 61, 0
1, 875280, Note_on_c, 0, 86, 120
1, 875280, Note_on_c, 0, 90, 120
1, 875280, Note_on_c, 0, 78, 120
1, 875280, Note_on_c, 0, 62, 120
1, 875280, Note_on_c, 0, 66, 120
1, 875280, Note_on_c, 0, 50, 120
1, 875300, Note_on_c, 0, 62, 0
1, 875300, Note_on_c, 0, 66, 0
1, 875300, Note_on_c, 0, 50, 0
1, 875310, Note_on_c, 0, 64, 120
1, 875310, Note_on_c, 0, 61, 120
1, 875330, Note_on_c, 0, 64, 0
1, 875330, Note_on_c, 0, 61, 0
1, 875340, Note_on_c, 0, 62, 120
1, 875340, Note_on_c, 0, 59, 120
1, 875360, Note_on_c, 0, 62, 0
1, 875360, Note_on_c, 0, 59, 0
1, 875370, Note_on_c, 0, 61, 120
1, 875370, Note_on_c, 0, 57, 120
1, 875390, Note_on_c, 0, 61, 0
1, 875390, Note_on_c, 0, 57, 0
1, 875400, Note_on_c, 0, 59, 120
1, 875400, Note_on_c, 0, 55, 120
1, 875420, Note_on_c, 0, 59, 0
1, 875420, Note_on_c, 0, 55, 0
1, 875430, Note_on_c, 0, 57, 120
1, 875430, Note_on_c, 0, 54, 120
1, 875431, Control_c, 0, 64, 127
1, 875450, Note_on_c, 0, 86, 0
1, 875450, Note_on_c, 0, 90, 0
1, 875450, Note_on_c, 0, 78, 0
1, 875450, Note_on_c, 0, 57, 0
1, 875450, Note_on_c, 0, 54, 0
1, 875460, Note_on_c, 0, 90, 120
1, 875460, Note_on_c, 0, 86, 120
1, 875460, Note_on_c, 0, 55, 120
1, 875460, Note_on_c, 0, 52, 120
1, 875480, Note_on_c, 0, 55, 0
1, 875480, Note_on_c, 0, 52, 0
1, 875490, Note_on_c, 0, 54, 120
1, 875490, Note_on_c, 0, 50, 120
1, 875510, Note_on_c, 0, 90, 0
1, 875510, Note_on_c, 0, 86, 0
1, 875510, Note_on_c, 0, 54, 0
1, 875510, Note_on_c, 0, 50, 0
1, 875514, Control_c, 0, 64, 0
1, 875520, Note_on_c, 0, 91, 120
1, 875520, Note_on_c, 0, 83, 120
1, 875520, Note_on_c, 0, 79, 120
1, 875520, Note_on_c, 0, 50, 120
1, 875520, Note_on_c, 0, 55, 120
1, 875520, Note_on_c, 0, 59, 120
1, 875520, Note_on_c, 0, 43, 120
1, 875540, Note_on_c, 0, 83, 0
1, 875540, Note_on_c, 0, 79, 0
1, 875550, Note_on_c, 0, 81, 120
1, 875550, Note_on_c, 0, 78, 120
1, 875570, Note_on_c, 0, 81, 0
1, 875570, Note_on_c, 0, 78, 0
1, 875570, Note_on_c, 0, 50, 0
1, 875570, Note_on_c, 0, 55, 0
1, 875570, Note_on_c, 0, 59, 0
1, 875570, Note_on_c, 0, 43, 0
1, 875578, Control_c, 0, 64, 127
1, 875580, Note_on_c, 0, 79, 120
1, 875580, Note_on_c, 0, 76, 120
1, 875580, Note_on_c, 0, 67, 120
1, 875580, Note_on_c, 0, 64, 120
1, 875600, Note_on_c, 0, 79, 0
1, 875600, Note_on_c, 0, 76, 0
1, 875600, Note_on_c, 0, 67, 0
1, 875600, Note_on_c, 0, 64, 0
1, 875610, Note_on_c, 0, 78, 120
1, 875610, Note_on_c, 0, 74, 120
1, 875610, Note_on_c, 0, 66, 120
1, 875610, Note_on_c, 0, 62, 120
1, 875630, Note_on_c, 0, 78, 0
1, 875630, Note_on_c, 0, 74, 0
1, 875630, Note_on_c, 0, 66, 0
1, 875630, Note_on_c, 0, 62, 0
1, 875640, Note_on_c, 0, 76, 120
1, 875640, Note_on_c, 0, 73, 120
1, 875640, Note_on_c, 0, 64, 120
1, 875640, Note_on_c, 0, 61, 120
1, 875660, Note_on_c, 0, 76, 0
1, 875660, Note_on_c, 0, 73, 0
1, 875660, Note_on_c, 0, 64, 0
1, 875660, Note_on_c, 0, 61, 0
1, 875670, Note_on_c, 0, 74, 120
1, 875670, Note_on_c, 0, 71, 120
1, 875670, Note_on_c, 0, 62, 120
1, 875670, Note_on_c, 0, 59, 120
1, 875690, Note_on_c, 0, 74, 0
1, 875690, Note_on_c, 0, 71, 0
1, 875690, Note_on_c, 0, 62, 0
1, 875690, Note_on_c, 0, 59, 0
1, 875700, Note_on_c, 0, 73, 120
1, 875700, Note_on_c, 0, 69, 120
1, 875700, Note_on_c, 0, 61, 120
1, 875700, Note_on_c, 0, 57, 120
1, 875720, Note_on_c, 0, 73, 0
1, 875720, Note_on_c, 0, 69, 0
1, 875720, Note_on_c, 0, 61, 0
1, 875720, Note_on_c, 0, 57, 0
1, 875728, Control_c, 0, 64, 0
1, 875730, Note_on_c, 0, 71, 120
1, 875730, Note_on_c, 0, 67, 120
1, 875730, Note_on_c, 0, 59, 120
1, 875730, Note_on_c, 0, 55, 120
1, 875750, Note_on_c, 0, 91, 0
1, 875750, Note_on_c, 0, 71, 0
1, 875750, Note_on_c, 0, 67, 0
1, 875750, Note_on_c, 0, 59, 0
1, 875750, Note_on_c, 0, 55, 0
1, 875760, Note_on_c, 0, 76, 120
1, 875760, Note_on_c, 0, 79, 120
1, 875760, Note_on_c, 0, 67, 120
1, 875760, Note_on_c, 0, 45, 120
1, 875760, Note_on_c, 0, 33, 120
1, 875780, Note_on_c, 0, 76, 0
1, 875780, Note_on_c, 0, 79, 0
1, 875780, Note_on_c, 0, 67, 0
1, 875790, Note_on_c, 0, 78, 120
1, 875790, Note_on_c, 0, 74, 120
1, 875810, Note_on_c, 0, 78, 0
1, 875810, Note_on_c, 0, 74, 0
1, 875810, Note_on_c, 0, 45, 0
1, 875810, Note_on_c, 0, 33, 0
1, 875819, Control_c, 0, 64, 127
1, 875820, Note_on_c, 0, 76, 120
1, 875820, Note_on_c, 0, 73, 120
1, 875820, Note_on_c, 0, 64, 120
1, 875820, Note_on_c, 0, 61, 120
1, 875840, Note_on_c, 0, 76, 0
1, 875840, Note_on_c, 0, 73, 0
1, 875840, Note_on_c, 0, 64, 0
1, 875840, Note_on_c, 0, 61, 0
1, 875850, Note_on_c, 0, 74, 120
1, 875850, Note_on_c, 0, 71, 120
1, 875850, Note_on_c, 0, 62, 120
1, 875850, Note_on_c, 0, 59, 120
1, 875870, Note_on_c, 0, 74, 0
1, 875870, Note_on_c, 0, 71, 0
1, 875870, Note_on_c, 0, 62, 0
1, 875870, Note_on_c, 0, 59, 0
1, 875880, Note_on_c, 0, 88, 120
1, 875880, Note_on_c, 0, 73, 120
1, 875880, Note_on_c, 0, 76, 120
1, 875880, Note_on_c, 0, 69, 120
1, 875880, Note_on_c, 0, 61, 120
1, 875880, Note_on_c, 0, 64, 120
1, 875880, Note_on_c, 0, 57, 120
1, 875900, Note_on_c, 0, 73, 0
1, 875900, Note_on_c, 0, 76, 0
1, 875900, Note_on_c, 0, 69, 0
1, 875900, Note_on_c, 0, 61, 0
1, 875900, Note_on_c, 0, 64, 0
1, 875900, Note_on_c, 0, 57, 0
1, 875910, Note_on_c, 0, 71, 120
1, 875910, Note_on_c, 0, 67, 120
1, 875910, Note_on_c, 0, 59, 120
1, 875910, Note_on_c, 0, 55, 120
1, 875930, Note_on_c, 0, 71, 0
1, 875930, Note_on_c, 0, 67, 0
1, 875930, Note_on_c, 0, 59, 0
1, 875930, Note_on_c, 0, 55, 0
1, 875940, Note_on_c, 0, 69, 120
1, 875940, Note_on_c, 0, 66, 120
1, 875940, Note_on_c, 0, 57, 120
1, 875940, Note_on_c, 0, 54, 120
1, 875960, Note_on_c, 0, 69, 0
1, 875960, Note_on_c, 0, 66, 0
1, 875960, Note_on_c, 0, 57, 0
1, 875960, Note_on_c, 0, 54, 0
1, 875970, Note_on_c, 0, 67, 120
1, 875970, Note_on_c, 0, 64, 120
1, 875970, Note_on_c, 0, 55, 120
1, 875970, Note_on_c, 0, 52, 120
1, 875971, Control_c, 0, 64, 0
1, 875990, Note_on_c, 0, 88, 0
1, 875990, Note_on_c, 0, 67, 0
1, 875990, Note_on_c, 0, 64, 0
1, 875990, Note_on_c, 0, 55, 0
1, 875990, Note_on_c, 0, 52, 0
1, 876000, Note_on_c, 0, 81, 120
1, 876000, Note_on_c, 0, 69, 120
1, 876000, Note_on_c, 0, 55, 120
1, 876000, Note_on_c, 0, 52, 120
1, 876020, Note_on_c, 0, 55, 0
1, 876020, Note_on_c, 0, 52, 0
1, 876030, Note_on_c, 0, 54, 120
1, 876030, Note_on_c, 0, 50, 120
1, 876050, Note_on_c, 0, 54, 0
1, 876050, Note_on_c, 0, 50, 0
1, 876059, Control_c, 0, 64, 127
1, 876060, Note_on_c, 0, 55, 120
1, 876060, Note_on_c, 0, 52, 120
1, 876080, Note_on_c, 0, 55, 0
1, 876080, Note_on_c, 0, 52, 0
1, 876090, Note_on_c, 0, 57, 120
1, 876090, Note_on_c, 0, 54, 120
1, 876110, Note_on_c, 0, 57, 0
1, 876110, Note_on_c, 0, 54, 0
1, 876119, Control_c, 0, 64, 0
1, 876120, Note_on_c, 0, 59, 120
1, 876120, Note_on_c, 0, 55, 120
1, 876140, Note_on_c, 0, 59, 0
1, 876140, Note_on_c, 0, 55, 0
1, 876150, Note_on_c, 0, 57, 120
1, 876150, Note_on_c, 0, 54, 120
1, 876170, Note_on_c, 0, 81, 0
1, 876170, Note_on_c, 0, 69, 0
1, 876170, Note_on_c, 0, 57, 0
1, 876170, Note_on_c, 0, 54, 0
1, 876180, Note_on_c, 0, 81, 120
1, 876180, Note_on_c, 0, 69, 120
1, 876180, Note_on_c, 0, 59, 120
1, 876180, Note_on_c, 0, 55, 120
1, 876200, Note_on_c, 0, 59, 0
1, 876200, Note_on_c, 0, 55, 0
1, 876210, Note_on_c, 0, 61, 120
1, 876210, Note_on_c, 0, 52, 120
1, 876230, Note_on_c, 0, 81, 0
1, 876230, Note_on_c, 0, 69, 0
1, 876230, Note_on_c, 0, 61, 0
1, 876230, Note_on_c, 0, 52, 0
1, 876240, Note_on_c, 0, 81, 120
1, 876240, Note_on_c, 0, 69, 120
1, 876240, Note_on_c, 0, 62, 120
1, 876240, Note_on_c, 0, 50, 120
1, 876260, Note_on_c, 0, 62, 0
1, 876260, Note_on_c, 0, 50, 0
1, 876270, Note_on_c, 0, 61, 120
1, 876270, Note_on_c, 0, 49, 120
1, 876290, Note_on_c, 0, 61, 0
1, 876290, Note_on_c, 0, 49, 0
1, 876300, Note_on_c, 0, 62, 120
1, 876300, Note_on_c, 0, 50, 120
1, 876320, Note_on_c, 0, 62, 0
1, 876320, Note_on_c, 0, 50, 0
1, 876330, Note_on_c, 0, 64, 120
1, 876330, Note_on_c, 0, 52, 120
1, 876350, Note_on_c, 0, 81, 0
1, 876350, Note_on_c, 0, 69, 0
1, 876350, Note_on_c, 0, 64, 0
1, 876350, Note_on_c, 0, 52, 0
1, 876360, Note_on_c, 0, 74, 120
1, 876360, Note_on_c, 0, 62, 120
1, 876360, Note_on_c, 0, 66, 120
1, 876360, Note_on_c, 0, 54, 120
1, 876380, Note_on_c, 0, 66, 0
1, 876380, Note_on_c, 0, 54, 0
1, 876390, Note_on_c, 0, 64, 120
1, 876390, Note_on_c, 0, 52, 120
1, 876410, Note_on_c, 0, 64, 0
1, 876410, Note_on_c, 0, 52, 0
1, 876420, Note_on_c, 0, 66, 120
1, 876420, Note_on_c, 0, 54, 120
1, 876440, Note_on_c, 0, 66, 0
1, 876440, Note_on_c, 0, 54, 0
1, 876450, Note_on_c, 0, 62, 120
1, 876450, Note_on_c, 0, 50, 120
1, 876470, Note_on_c, 0, 74, 0
1, 876470, Note_on_c, 0, 62, 0
1, 876470, Note_on_c, 0, 62, 0
1, 876470, Note_on_c, 0, 50, 0
1, 876480, Note_on_c, 0, 81, 120
1, 876480, Note_on_c, 0, 69, 120
1, 876480, Note_on_c, 0, 61, 120
1, 876480, Note_on_c, 0, 49, 120
1, 876500, Note_on_c, 0, 61, 0
1, 876500, Note_on_c, 0, 49, 0
1, 876510, Note_on_c, 0, 62, 120
1, 876510, Note_on_c, 0, 50, 120
1, 876530, Note_on_c, 0, 62, 0
1, 876530, Note_on_c, 0, 50, 0
1, 876540, Note_on_c, 0, 64, 120
1, 876540, Note_on_c, 0, 52, 120
1, 876560, Note_on_c, 0, 64, 0
1, 876560, Note_on_c, 0, 52, 0
1, 876570, Note_on_c, 0, 57, 120
1, 876570, Note_on_c, 0, 45, 120
1, 876590, Note_on_c, 0, 57, 0
1, 876590, Note_on_c, 0, 45, 0
1, 876600, Note_on_c, 0, 59, 120
1, 876600, Note_on_c, 0, 47, 120
1, 876620, Note_on_c, 0, 59, 0
1, 876620, Note_on_c, 0, 47, 0
1, 876630, Note_on_c, 0, 57, 120
1, 876630, Note_on_c, 0, 45, 120
1, 876650, Note_on_c, 0, 81, 0
1, 876650, Note_on_c, 0, 69, 0
1, 876650, Note_on_c, 0, 57, 0
1, 876650, Note_on_c, 0, 45, 0
1, 876660, Note_on_c, 0, 81, 120
1, 876660, Note_on_c, 0, 69, 120
1, 876660, Note_on_c, 0, 59, 120
1, 876660, Note_on_c, 0, 47, 120
1, 876680, Note_on_c, 0, 59, 0
1, 876680, Note_on_c, 0, 47, 0
1, 876690, Note_on_c, 0, 61, 120
1, 876690, Note_on_c, 0, 49, 120
1, 876710, Note_on_c, 0, 81, 0
1, 876710, Note_on_c, 0, 69, 0
1, 876710, Note_on_c, 0, 61, 0
1, 876710, Note_on_c, 0, 49, 0
1, 876720, Time_signature, 4, 2, 24, 8
1, 876720, Tempo, 250000
1, 876720, Note_on_c, 0, 81, 120
1, 876720, Note_on_c, 0, 69, 120
1, 876720, Note_on_c, 0, 62, 120
1, 876720, Note_on_c, 0, 50, 120
1, 876950, Note_on_c, 0, 81, 0
1, 876950, Note_on_c, 0, 69, 0
1, 876960, Note_on_c, 0, 86, 120
1, 876960, Note_on_c, 0, 90, 120
1, 876960, Note_on_c, 0, 78, 120
1, 877190, Note_on_c, 0, 86, 0
1, 877190, Note_on_c, 0, 90, 0
1, 877190, Note_on_c, 0, 78, 0
1, 877200, Note_on_c, 0, 88, 120
1, 877200, Note_on_c, 0, 91, 120
1, 877200, Note_on_c, 0, 79, 120
1, 877430, Note_on_c, 0, 88, 0
1, 877430, Note_on_c, 0, 91, 0
1, 877430, Note_on_c, 0, 62, 0
1, 877430, Note_on_c, 0, 50, 0
1, 877430, Note_on_c, 0, 79, 0
1, 877440, Note_on_c, 0, 90, 120
1, 877440, Note_on_c, 0, 93, 120
1, 877440, Note_on_c, 0, 81, 120
1, 877440, Note_on_c, 0, 57, 120
1, 877440, Note_on_c, 0, 45, 120
1, 877670, Note_on_c, 0, 90, 0
1, 877670, Note_on_c, 0, 93, 0
1, 877670, Note_on_c, 0, 81, 0
1, 877670, Note_on_c, 0, 57, 0
1, 877670, Note_on_c, 0, 45, 0
1, 877680, Time_signature, 4, 2, 24, 8
1, 877680, Note_on_c, 0, 90, 120
1, 877680, Note_on_c, 0, 93, 120
1, 877680, Note_on_c, 0, 81, 120
1, 877680, Note_on_c, 0, 50, 120
1, 877680, Note_on_c, 0, 38, 120
1, 877910, Note_on_c, 0, 90, 0
1, 877910, Note_on_c, 0, 93, 0
1, 877910, Note_on_c, 0, 81, 0
1, 877920, Note_on_c, 0, 88, 120
1, 877920, Note_on_c, 0, 91, 120
1, 877920, Note_on_c, 0, 79, 120
1, 878150, Note_on_c, 0, 88, 0
1, 878150, Note_on_c, 0, 91, 0
1, 878150, Note_on_c, 0, 79, 0
1, 878160, Note_on_c, 0, 86, 120
1, 878160, Note_on_c, 0, 90, 120
1, 878160, Note_on_c, 0, 78, 120
1, 878390, Note_on_c, 0, 86, 0
1, 878390, Note_on_c, 0, 90, 0
1, 878390, Note_on_c, 0, 78, 0
1, 878390, Note_on_c, 0, 50, 0
1, 878390, Note_on_c, 0, 38, 0
1, 878400, Note_on_c, 0, 85, 120
1, 878400, Note_on_c, 0, 88, 120
1, 878400, Note_on_c, 0, 76, 120
1, 878400, Note_on_c, 0, 45, 120
1, 878400, Note_on_c, 0, 33, 120
1, 878630, Note_on_c, 0, 85, 0
1, 878630, Note_on_c, 0, 88, 0
1, 878630, Note_on_c, 0, 76, 0
1, 878630, Note_on_c, 0, 45, 0
1, 878630, Note_on_c, 0, 33, 0
1, 878640, Time_signature, 4, 2, 24, 8
1, 878640, Note_on_c, 0, 86, 120
1, 878640, Note_on_c, 0, 90, 120
1, 878640, Note_on_c, 0, 78, 120
1, 878640, Note_on_c, 0, 50, 120
1, 878640, Note_on_c, 0, 38, 120
1, 878870, Note_on_c, 0, 86, 0
1, 878870, Note_on_c, 0, 90, 0
1, 878870, Note_on_c, 0, 78, 0
1, 878880, Note_on_c, 0, 86, 120
1, 878880, Note_on_c, 0, 90, 120
1, 878880, Note_on_c, 0, 78, 120
1, 879110, Note_on_c, 0, 86, 0
1, 879110, Note_on_c, 0, 90, 0
1, 879110, Note_on_c, 0, 78, 0
1, 879120, Note_on_c, 0, 88, 120
1, 879120, Note_on_c, 0, 91, 120
1, 879120, Note_on_c, 0, 79, 120
1, 879350, Note_on_c, 0, 88, 0
1, 879350, Note_on_c, 0, 91, 0
1, 879350, Note_on_c, 0, 79, 0
1, 879350, Note_on_c, 0, 50, 0
1, 879350, Note_on_c, 0, 38, 0
1, 879360, Note_on_c, 0, 90, 120
1, 879360, Note_on_c, 0, 93, 120
1, 879360, Note_on_c, 0, 81, 120
1, 879360, Note_on_c, 0, 57, 120
1, 879360, Note_on_c, 0, 45, 120
1, 879590, Note_on_c, 0, 90, 0
1, 879590, Note_on_c, 0, 93, 0
1, 879590, Note_on_c, 0, 81, 0
1, 879590, Note_on_c, 0, 57, 0
1, 879590, Note_on_c, 0, 45, 0
1, 879600, Time_signature, 4, 2, 24, 8
1, 879600, Note_on_c, 0, 90, 120
1, 879600, Note_on_c, 0, 93, 120
1, 879600, Note_on_c, 0, 81, 120
1, 879600, Note_on_c, 0, 62, 120
1, 879600, Note_on_c, 0, 50, 120
1, 879830, Note_on_c, 0, 90, 0
1, 879830, Note_on_c, 0, 93, 0
1, 879830, Note_on_c, 0, 81, 0
1, 879840, Note_on_c, 0, 88, 120
1, 879840, Note_on_c, 0, 91, 120
1, 879840, Note_on_c, 0, 79, 120
1, 880070, Note_on_c, 0, 88, 0
1, 880070, Note_on_c, 0, 91, 0
1, 880070, Note_on_c, 0, 79, 0
1, 880080, Note_on_c, 0, 86, 120
1, 880080, Note_on_c, 0, 90, 120
1, 880080, Note_on_c, 0, 78, 120
1, 880310, Note_on_c, 0, 86, 0
1, 880310, Note_on_c, 0, 90, 0
1, 880310, Note_on_c, 0, 78, 0
1, 880310, Note_on_c, 0, 62, 0
1, 880310, Note_on_c, 0, 50, 0
1, 880320, Note_on_c, 0, 85, 120
1, 880320, Note_on_c, 0, 88, 120
1, 880320, Note_on_c, 0, 76, 120
1, 880320, Note_on_c, 0, 57, 120
1, 880320, Note_on_c, 0, 45, 120
1, 880550, Note_on_c, 0, 85, 0
1, 880550, Note_on_c, 0, 88, 0
1, 880550, Note_on_c, 0, 76, 0
1, 880550, Note_on_c, 0, 57, 0
1, 880550, Note_on_c, 0, 45, 0
1, 880560, Time_signature, 4, 2, 24, 8
1, 880560, Note_on_c, 0, 86, 120
1, 880560, Note_on_c, 0, 90, 120
1, 880560, Note_on_c, 0, 78, 120
1, 880560, Note_on_c, 0, 50, 120
1, 880560, Note_on_c, 0, 38, 120
1, 880790, Note_on_c, 0, 86, 0
1, 880790, Note_on_c, 0, 90, 0
1, 880790, Note_on_c, 0, 78, 0
1, 880790, Note_on_c, 0, 50, 0
1, 880790, Note_on_c, 0, 38, 0
1, 880800, Note_on_c, 0, 85, 120
1, 880800, Note_on_c, 0, 88, 120
1, 880800, Note_on_c, 0, 76, 120
1, 880800, Note_on_c, 0, 45, 120
1, 880800, Note_on_c, 0, 33, 120
1, 881030, Note_on_c, 0, 85, 0
1, 881030, Note_on_c, 0, 88, 0
1, 881030, Note_on_c, 0, 76, 0
1, 881030, Note_on_c, 0, 45, 0
1, 881030, Note_on_c, 0, 33, 0
1, 881040, Note_on_c, 0, 86, 120
1, 881040, Note_on_c, 0, 90, 120
1, 881040, Note_on_c, 0, 78, 120
1, 881040, Note_on_c, 0, 50, 120
1, 881040, Note_on_c, 0, 38, 120
1, 881270, Note_on_c, 0, 86, 0
1, 881270, Note_on_c, 0, 90, 0
1, 881270, Note_on_c, 0, 78, 0
1, 881270, Note_on_c, 0, 50, 0
1, 881270, Note_on_c, 0, 38, 0
1, 881280, Note_on_c, 0, 76, 120
1, 881280, Note_on_c, 0, 85, 120
1, 881280, Note_on_c, 0, 73, 120
1, 881280, Note_on_c, 0, 45, 120
1, 881280, Note_on_c, 0, 33, 120
1, 881510, Note_on_c, 0, 76, 0
1, 881510, Note_on_c, 0, 85, 0
1, 881510, Note_on_c, 0, 73, 0
1, 881510, Note_on_c, 0, 45, 0
1, 881510, Note_on_c, 0, 33, 0
1, 881520, Time_signature, 4, 2, 24, 8
1, 881520, Note_on_c, 0, 78, 120
1, 881520, Note_on_c, 0, 86, 120
1, 881520, Note_on_c, 0, 74, 120
1, 881520, Note_on_c, 0, 50, 120
1, 881520, Note_on_c, 0, 38, 120
1, 881750, Note_on_c, 0, 78, 0
1, 881750, Note_on_c, 0, 86, 0
1, 881750, Note_on_c, 0, 74, 0
1, 881750, Note_on_c, 0, 50, 0
1, 881750, Note_on_c, 0, 38, 0
1, 881760, Note_on_c, 0, 76, 120
1, 881760, Note_on_c, 0, 85, 120
1, 881760, Note_on_c, 0, 73, 120
1, 881760, Note_on_c, 0, 45, 120
1, 881760, Note_on_c, 0, 33, 120
1, 881990, Note_on_c, 0, 76, 0
1, 881990, Note_on_c, 0, 85, 0
1, 881990, Note_on_c, 0, 73, 0
1, 881990, Note_on_c, 0, 45, 0
1, 881990, Note_on_c, 0, 33, 0
1, 882000, Note_on_c, 0, 78, 120
1, 882000, Note_on_c, 0, 86, 120
1, 882000, Note_on_c, 0, 74, 120
1, 882000, Note_on_c, 0, 50, 120
1, 882000, Note_on_c, 0, 38, 120
1, 882230, Note_on_c, 0, 78, 0
1, 882230, Note_on_c, 0, 86, 0
1, 882230, Note_on_c, 0, 74, 0
1, 882230, Note_on_c, 0, 50, 0
1, 882230, Note_on_c, 0, 38, 0
1, 882240, Note_on_c, 0, 85, 120
1, 882240, Note_on_c, 0, 88, 120
1, 882240, Note_on_c, 0, 76, 120
1, 882240, Note_on_c, 0, 57, 120
1, 882240, Note_on_c, 0, 45, 120
1, 882470, Note_on_c, 0, 85, 0
1, 882470, Note_on_c, 0, 88, 0
1, 882470, Note_on_c, 0, 76, 0
1, 882470, Note_on_c, 0, 57, 0
1, 882470, Note_on_c, 0, 45, 0
1, 882480, Time_signature, 4, 2, 24, 8
1, 882480, Note_on_c, 0, 86, 120
1, 882480, Note_on_c, 0, 90, 120
1, 882480, Note_on_c, 0, 78, 120
1, 882480, Note_on_c, 0, 62, 120
1, 882480, Note_on_c, 0, 50, 120
1, 882710, Note_on_c, 0, 86, 0
1, 882710, Note_on_c, 0, 90, 0
1, 882710, Note_on_c, 0, 78, 0
1, 882710, Note_on_c, 0, 62, 0
1, 882710, Note_on_c, 0, 50, 0
1, 882720, Note_on_c, 0, 85, 120
1, 882720, Note_on_c, 0, 88, 120
1, 882720, Note_on_c, 0, 76, 120
1, 882720, Note_on_c, 0, 57, 120
1, 882720, Note_on_c, 0, 45, 120
1, 882950, Note_on_c, 0, 85, 0
1, 882950, Note_on_c, 0, 88, 0
1, 882950, Note_on_c, 0, 76, 0
1, 882950, Note_on_c, 0, 57, 0
1, 882950, Note_on_c, 0, 45, 0
1, 882960, Note_on_c, 0, 86, 120
1, 882960, Note_on_c, 0, 90, 120
1, 882960, Note_on_c, 0, 78, 120
1, 882960, Note_on_c, 0, 62, 120
1, 882960, Note_on_c, 0, 50, 120
1, 883190, Note_on_c, 0, 86, 0
1, 883190, Note_on_c, 0, 90, 0
1, 883190, Note_on_c, 0, 78, 0
1, 883190, Note_on_c, 0, 62, 0
1, 883190, Note_on_c, 0, 50, 0
1, 883200, Note_on_c, 0, 88, 120
1, 883200, Note_on_c, 0, 91, 120
1, 883200, Note_on_c, 0, 79, 120
1, 883200, Note_on_c, 0, 57, 120
1, 883200, Note_on_c, 0, 45, 120
1, 883430, Note_on_c, 0, 88, 0
1, 883430, Note_on_c, 0, 91, 0
1, 883430, Note_on_c, 0, 79, 0
1, 883430, Note_on_c, 0, 57, 0
1, 883430, Note_on_c, 0, 45, 0
1, 883440, Time_signature, 4, 2, 24, 8
1, 883440, Note_on_c, 0, 88, 120
1, 883440, Note_on_c, 0, 91, 120
1, 883440, Note_on_c, 0, 79, 120
1, 883440, Note_on_c, 0, 62, 120
1, 883440, Note_on_c, 0, 50, 120
1, 883670, Note_on_c, 0, 88, 0
1, 883670, Note_on_c, 0, 91, 0
1, 883670, Note_on_c, 0, 79, 0
1, 883670, Note_on_c, 0, 62, 0
1, 883670, Note_on_c, 0, 50, 0
1, 883680, Note_on_c, 0, 86, 120
1, 883680, Note_on_c, 0, 90, 120
1, 883680, Note_on_c, 0, 78, 120
1, 883680, Note_on_c, 0, 62, 120
1, 883680, Note_on_c, 0, 50, 120
1, 883910, Note_on_c, 0, 86, 0
1, 883910, Note_on_c, 0, 90, 0
1, 883910, Note_on_c, 0, 78, 0
1, 883910, Note_on_c, 0, 62, 0
1, 883910, Note_on_c, 0, 50, 0
1, 883920, Note_on_c, 0, 88, 120
1, 883920, Note_on_c, 0, 91, 120
1, 883920, Note_on_c, 0, 79, 120
1, 883920, Note_on_c, 0, 62, 120
1, 883920, Note_on_c, 0, 50, 120
1, 884150, Note_on_c, 0, 88, 0
1, 884150, Note_on_c, 0, 91, 0
1, 884150, Note_on_c, 0, 79, 0
1, 884150, Note_on_c, 0, 62, 0
1, 884150, Note_on_c, 0, 50, 0
1, 884160, Note_on_c, 0, 90, 120
1, 884160, Note_on_c, 0, 93, 120
1, 884160, Note_on_c, 0, 81, 120
1, 884160, Note_on_c, 0, 62, 120
1, 884160, Note_on_c, 0, 50, 120
1, 884390, Note_on_c, 0, 90, 0
1, 884390, Note_on_c, 0, 93, 0
1, 884390, Note_on_c, 0, 81, 0
1, 884390, Note_on_c, 0, 62, 0
1, 884390, Note_on_c, 0, 50, 0
1, 884400, Time_signature, 4, 2, 24, 8
1, 884400, Note_on_c, 0, 86, 120
1, 884400, Note_on_c, 0, 90, 120
1, 884400, Note_on_c, 0, 93, 120
1, 884400, Note_on_c, 0, 81, 120
1, 884630, Note_on_c, 0, 86, 0
1, 884630, Note_on_c, 0, 90, 0
1, 884630, Note_on_c, 0, 93, 0
1, 884630, Note_on_c, 0, 81, 0
1, 884640, Note_on_c, 0, 62, 120
1, 884640, Note_on_c, 0, 66, 120
1, 884640, Note_on_c, 0, 69, 120
1, 884640, Note_on_c, 0, 57, 120
1, 884870, Note_on_c, 0, 62, 0
1, 884870, Note_on_c, 0, 66, 0
1, 884870, Note_on_c, 0, 69, 0
1, 884870, Note_on_c, 0, 57, 0
1, 884880, Note_on_c, 0, 74, 120
1, 884880, Note_on_c, 0, 78, 120
1, 884880, Note_on_c, 0, 81, 120
1, 884880, Note_on_c, 0, 69, 120
1, 885110, Note_on_c, 0, 74, 0
1, 885110, Note_on_c, 0, 78, 0
1, 885110, Note_on_c, 0, 81, 0
1, 885110, Note_on_c, 0, 69, 0
1, 885120, Note_on_c, 0, 42, 120
1, 885120, Note_on_c, 0, 45, 120
1, 885120, Note_on_c, 0, 50, 120
1, 885120, Note_on_c, 0, 38, 120
1, 885350, Note_on_c, 0, 42, 0
1, 885350, Note_on_c, 0, 45, 0
1, 885350, Note_on_c, 0, 50, 0
1, 885350, Note_on_c, 0, 38, 0
1, 885360, Time_signature, 4, 2, 24, 8
1, 885360, Note_on_c, 0, 86, 120
1, 885360, Note_on_c, 0, 90, 120
1, 885360, Note_on_c, 0, 93, 120
1, 885360, Note_on_c, 0, 81, 120
1, 885590, Note_on_c, 0, 86, 0
1, 885590, Note_on_c, 0, 90, 0
1, 885590, Note_on_c, 0, 93, 0
1, 885590, Note_on_c, 0, 81, 0
1, 885600, Note_on_c, 0, 62, 120
1, 885600, Note_on_c, 0, 66, 120
1, 885600, Note_on_c, 0, 69, 120
1, 885600, Note_on_c, 0, 57, 120
1, 885830, Note_on_c, 0, 62, 0
1, 885830, Note_on_c, 0, 66, 0
1, 885830, Note_on_c, 0, 69, 0
1, 885830, Note_on_c, 0, 57, 0
1, 885840, Note_on_c, 0, 74, 120
1, 885840, Note_on_c, 0, 78, 120
1, 885840, Note_on_c, 0, 81, 120
1, 885840, Note_on_c, 0, 69, 120
1, 886070, Note_on_c, 0, 74, 0
1, 886070, Note_on_c, 0, 78, 0
1, 886070, Note_on_c, 0, 81, 0
1, 886070, Note_on_c, 0, 69, 0
1, 886080, Note_on_c, 0, 42, 120
1, 886080, Note_on_c, 0, 45, 120
1, 886080, Note_on_c, 0, 50, 120
1, 886080, Note_on_c, 0, 38, 120
1, 886310, Note_on_c, 0, 42, 0
1, 886310, Note_on_c, 0, 45, 0
1, 886310, Note_on_c, 0, 50, 0
1, 886310, Note_on_c, 0, 38, 0
1, 886320, Time_signature, 4, 2, 24, 8
1, 886320, Note_on_c, 0, 86, 120
1, 886320, Note_on_c, 0, 90, 120
1, 886320, Note_on_c, 0, 93, 120
1, 886320, Note_on_c, 0, 81, 120
1, 886550, Note_on_c, 0, 86, 0
1, 886550, Note_on_c, 0, 90, 0
1, 886550, Note_on_c, 0, 93, 0
1, 886550, Note_on_c, 0, 81, 0
1, 886560, Note_on_c, 0, 62, 120
1, 886560, Note_on_c, 0, 66, 120
1, 886560, Note_on_c, 0, 69, 120
1, 886560, Note_on_c, 0, 57, 120
1, 886790, Note_on_c, 0, 62, 0
1, 886790, Note_on_c, 0, 66, 0
1, 886790, Note_on_c, 0, 69, 0
1, 886790, Note_on_c, 0, 57, 0
1, 886800, Note_on_c, 0, 74, 120
1, 886800, Note_on_c, 0, 78, 120
1, 886800, Note_on_c, 0, 81, 120
1, 886800, Note_on_c, 0, 69, 120
1, 887030, Note_on_c, 0, 74, 0
1, 887030, Note_on_c, 0, 78, 0
1, 887030, Note_on_c, 0, 81, 0
1, 887030, Note_on_c, 0, 69, 0
1, 887040, Note_on_c, 0, 42, 120
1, 887040, Note_on_c, 0, 45, 120
1, 887040, Note_on_c, 0, 50, 120
1, 887040, Note_on_c, 0, 38, 120
1, 887270, Note_on_c, 0, 42, 0
1, 887270, Note_on_c, 0, 45, 0
1, 887270, Note_on_c, 0, 50, 0
1, 887270, Note_on_c, 0, 38, 0
1, 887280, Time_signature, 4, 2, 24, 8
1, 887280, Note_on_c, 0, 86, 120
1, 887280, Note_on_c, 0, 90, 120
1, 887280, Note_on_c, 0, 93, 120
1, 887280, Note_on_c, 0, 81, 120
1, 887510, Note_on_c, 0, 86, 0
1, 887510, Note_on_c, 0, 90, 0
1, 887510, Note_on_c, 0, 93, 0
1, 887510, Note_on_c, 0, 81, 0
1, 887520, Note_on_c, 0, 62, 120
1, 887520, Note_on_c, 0, 66, 120
1, 887520, Note_on_c, 0, 69, 120
1, 887520, Note_on_c, 0, 57, 120
1, 887750, Note_on_c, 0, 62, 0
1, 887750, Note_on_c, 0, 66, 0
1, 887750, Note_on_c, 0, 69, 0
1, 887750, Note_on_c, 0, 57, 0
1, 887760, Note_on_c, 0, 74, 120
1, 887760, Note_on_c, 0, 78, 120
1, 887760, Note_on_c, 0, 81, 120
1, 887760, Note_on_c, 0, 69, 120
1, 887990, Note_on_c, 0, 74, 0
1, 887990, Note_on_c, 0, 78, 0
1, 887990, Note_on_c, 0, 81, 0
1, 887990, Note_on_c, 0, 69, 0
1, 888000, Note_on_c, 0, 42, 120
1, 888000, Note_on_c, 0, 45, 120
1, 888000, Note_on_c, 0, 50, 120
1, 888000, Note_on_c, 0, 38, 120
1, 888230, Note_on_c, 0, 42, 0
1, 888230, Note_on_c, 0, 45, 0
1, 888230, Note_on_c, 0, 50, 0
1, 888230, Note_on_c, 0, 38, 0
1, 888240, Time_signature, 4, 2, 24, 8
1, 888240, Note_on_c, 0, 93, 120
1, 888240, Note_on_c, 0, 81, 120
1, 888240, Note_on_c, 0, 50, 120
1, 888240, Note_on_c, 0, 38, 120
1, 888470, Note_on_c, 0, 93, 0
1, 888470, Note_on_c, 0, 81, 0
1, 888470, Note_on_c, 0, 50, 0
1, 888470, Note_on_c, 0, 38, 0
1, 888480, Note_on_c, 0, 90, 120
1, 888480, Note_on_c, 0, 86, 120
1, 888480, Note_on_c, 0, 57, 120
1, 888480, Note_on_c, 0, 54, 120
1, 888590, Note_on_c, 0, 90, 0
1, 888590, Note_on_c, 0, 86, 0
1, 888590, Note_on_c, 0, 57, 0
1, 888590, Note_on_c, 0, 54, 0
1, 888720, Note_on_c, 0, 81, 120
1, 888720, Note_on_c, 0, 69, 120
1, 888720, Note_on_c, 0, 50, 120
1, 888720, Note_on_c, 0, 38, 120
1, 888950, Note_on_c, 0, 81, 0
1, 888950, Note_on_c, 0, 69, 0
1, 888950, Note_on_c, 0, 50, 0
1, 888950, Note_on_c, 0, 38, 0
1, 888960, Note_on_c, 0, 78, 120
1, 888960, Note_on_c, 0, 74, 120
1, 888960, Note_on_c, 0, 57, 120
1, 888960, Note_on_c, 0, 54, 120
1, 889070, Note_on_c, 0, 78, 0
1, 889070, Note_on_c, 0, 74, 0
1, 889070, Note_on_c, 0, 57, 0
1, 889070, Note_on_c, 0, 54, 0
1, 889200, Time_signature, 4, 2, 24, 8
1, 889200, Note_on_c, 0, 69, 120
1, 889200, Note_on_c, 0, 57, 120
1, 889200, Note_on_c, 0, 50, 120
1, 889200, Note_on_c, 0, 38, 120
1, 889430, Note_on_c, 0, 69, 0
1, 889430, Note_on_c, 0, 57, 0
1, 889430, Note_on_c, 0, 50, 0
1, 889430, Note_on_c, 0, 38, 0
1, 889440, Note_on_c, 0, 66, 120
1, 889440, Note_on_c, 0, 62, 120
1, 889440, Note_on_c, 0, 57, 120
1, 889440, Note_on_c, 0, 54, 120
1, 889550, Note_on_c, 0, 66, 0
1, 889550, Note_on_c, 0, 62, 0
1, 889550, Note_on_c, 0, 57, 0
1, 889550, Note_on_c, 0, 54, 0
1, 889680, Note_on_c, 0, 81, 120
1, 889680, Note_on_c, 0, 69, 120
1, 889680, Note_on_c, 0, 50, 120
1, 889680, Note_on_c, 0, 38, 120
1, 889910, Note_on_c, 0, 81, 0
1, 889910, Note_on_c, 0, 69, 0
1, 889910, Note_on_c, 0, 50, 0
1, 889910, Note_on_c, 0, 38, 0
1, 889920, Note_on_c, 0, 78, 120
1, 889920, Note_on_c, 0, 74, 120
1, 889920, Note_on_c, 0, 57, 120
1, 889920, Note_on_c, 0, 54, 120
1, 890030, Note_on_c, 0, 78, 0
1, 890030, Note_on_c, 0, 74, 0
1, 890030, Note_on_c, 0, 57, 0
1, 890030, Note_on_c, 0, 54, 0
1, 890160, Time_signature, 4, 2, 24, 8
1, 890160, Note_on_c, 0, 93, 120
1, 890160, Note_on_c, 0, 81, 120
1, 890160, Note_on_c, 0, 50, 120
1, 890160, Note_on_c, 0, 38, 120
1, 890390, Note_on_c, 0, 93, 0
1, 890390, Note_on_c, 0, 81, 0
1, 890390, Note_on_c, 0, 50, 0
1, 890390, Note_on_c, 0, 38, 0
1, 890400, Note_on_c, 0, 90, 120
1, 890400, Note_on_c, 0, 86, 120
1, 890400, Note_on_c, 0, 57, 120
1, 890400, Note_on_c, 0, 54, 120
1, 890510, Note_on_c, 0, 90, 0
1, 890510, Note_on_c, 0, 86, 0
1, 890510, Note_on_c, 0, 57, 0
1, 890510, Note_on_c, 0, 54, 0
1, 890640, Note_on_c, 0, 81, 120
1, 890640, Note_on_c, 0, 69, 120
1, 890640, Note_on_c, 0, 50, 120
1, 890640, Note_on_c, 0, 38, 120
1, 890870, Note_on_c, 0, 81, 0
1, 890870, Note_on_c, 0, 69, 0
1, 890870, Note_on_c, 0, 50, 0
1, 890870, Note_on_c, 0, 38, 0
1, 890880, Note_on_c, 0, 78, 120
1, 890880, Note_on_c, 0, 74, 120
1, 890880, Note_on_c, 0, 57, 120
1, 890880, Note_on_c, 0, 54, 120
1, 890990, Note_on_c, 0, 78, 0
1, 890990, Note_on_c, 0, 74, 0
1, 890990, Note_on_c, 0, 57, 0
1, 890990, Note_on_c, 0, 54, 0
1, 891120, Time_signature, 4, 2, 24, 8
1, 891120, Note_on_c, 0, 69, 120
1, 891120, Note_on_c, 0, 57, 120
1, 891120, Note_on_c, 0, 50, 120
1, 891120, Note_on_c, 0, 38, 120
1, 891350, Note_on_c, 0, 69, 0
1, 891350, Note_on_c, 0, 57, 0
1, 891350, Note_on_c, 0, 50, 0
1, 891350, Note_on_c, 0, 38, 0
1, 891360, Note_on_c, 0, 66, 120
1, 891360, Note_on_c, 0, 62, 120
1, 891360, Note_on_c, 0, 57, 120
1, 891360, Note_on_c, 0, 54, 120
1, 891470, Note_on_c, 0, 66, 0
1, 891470, Note_on_c, 0, 62, 0
1, 891470, Note_on_c, 0, 57, 0
1, 891470, Note_on_c, 0, 54, 0
1, 891600, Note_on_c, 0, 81, 120
1, 891600, Note_on_c, 0, 69, 120
1, 891600, Note_on_c, 0, 50, 120
1, 891600, Note_on_c, 0, 38, 120
1, 891830, Note_on_c, 0, 81, 0
1, 891830, Note_on_c, 0, 69, 0
1, 891830, Note_on_c, 0, 50, 0
1, 891830, Note_on_c, 0, 38, 0
1, 891840, Note_on_c, 0, 78, 120
1, 891840, Note_on_c, 0, 74, 120
1, 891840, Note_on_c, 0, 57, 120
1, 891840, Note_on_c, 0, 54, 120
1, 891950, Note_on_c, 0, 78, 0
1, 891950, Note_on_c, 0, 74, 0
1, 891950, Note_on_c, 0, 57, 0
1, 891950, Note_on_c, 0, 54, 0
1, 892080, Time_signature, 4, 2, 24, 8
1, 892080, Note_on_c, 0, 69, 120
1, 892080, Note_on_c, 0, 57, 120
1, 892080, Note_on_c, 0, 45, 120
1, 892230, Note_on_c, 0, 69, 0
1, 892230, Note_on_c, 0, 57, 0
1, 892230, Note_on_c, 0, 45, 0
1, 892240, Note_on_c, 0, 71, 120
1, 892240, Note_on_c, 0, 59, 120
1, 892240, Note_on_c, 0, 47, 120
1, 892390, Note_on_c, 0, 71, 0
1, 892390, Note_on_c, 0, 59, 0
1, 892390, Note_on_c, 0, 47, 0
1, 892400, Note_on_c, 0, 73, 120
1, 892400, Note_on_c, 0, 61, 120
1, 892400, Note_on_c, 0, 49, 120
1, 892550, Note_on_c, 0, 73, 0
1, 892550, Note_on_c, 0, 61, 0
1, 892550, Note_on_c, 0, 49, 0
1, 892560, Note_on_c, 0, 74, 120
1, 892560, Note_on_c, 0, 62, 120
1, 892560, Note_on_c, 0, 50, 120
1, 892560, Note_on_c, 0, 38, 120
1, 892710, Note_on_c, 0, 74, 0
1, 892710, Note_on_c, 0, 62, 0
1, 892710, Note_on_c, 0, 50, 0
1, 892710, Note_on_c, 0, 38, 0
1, 892720, Note_on_c, 0, 76, 120
1, 892720, Note_on_c, 0, 64, 120
1, 892720, Note_on_c, 0, 52, 120
1, 892720, Note_on_c, 0, 40, 120
1, 892870, Note_on_c, 0, 76, 0
1, 892870, Note_on_c, 0, 64, 0
1, 892870, Note_on_c, 0, 52, 0
1, 892870, Note_on_c, 0, 40, 0
1, 892880, Note_on_c, 0, 78, 120
1, 892880, Note_on_c, 0, 66, 120
1, 892880, Note_on_c, 0, 54, 120
1, 892880, Note_on_c, 0, 42, 120
1, 893030, Note_on_c, 0, 78, 0
1, 893030, Note_on_c, 0, 66, 0
1, 893030, Note_on_c, 0, 54, 0
1, 893030, Note_on_c, 0, 42, 0
1, 893040, Time_signature, 4, 2, 24, 8
1, 893040, Note_on_c, 0, 79, 120
1, 893040, Note_on_c, 0, 67, 120
1, 893040, Note_on_c, 0, 55, 120
1, 893040, Note_on_c, 0, 43, 120
1, 893190, Note_on_c, 0, 79, 0
1, 893190, Note_on_c, 0, 67, 0
1, 893190, Note_on_c, 0, 55, 0
1, 893190, Note_on_c, 0, 43, 0
1, 893200, Note_on_c, 0, 78, 120
1, 893200, Note_on_c, 0, 66, 120
1, 893200, Note_on_c, 0, 54, 120
1, 893200, Note_on_c, 0, 42, 120
1, 893350, Note_on_c, 0, 78, 0
1, 893350, Note_on_c, 0, 66, 0
1, 893350, Note_on_c, 0, 54, 0
1, 893350, Note_on_c, 0, 42, 0
1, 893360, Note_on_c, 0, 79, 120
1, 893360, Note_on_c, 0, 67, 120
1, 893360, Note_on_c, 0, 55, 120
1, 893360, Note_on_c, 0, 43, 120
1, 893510, Note_on_c, 0, 79, 0
1, 893510, Note_on_c, 0, 67, 0
1, 893510, Note_on_c, 0, 55, 0
1, 893510, Note_on_c, 0, 43, 0
1, 893520, Note_on_c, 0, 81, 120
1, 893520, Note_on_c, 0, 69, 120
1, 893520, Note_on_c, 0, 57, 120
1, 893520, Note_on_c, 0, 45, 120
1, 893670, Note_on_c, 0, 81, 0
1, 893670, Note_on_c, 0, 69, 0
1, 893670, Note_on_c, 0, 57, 0
1, 893670, Note_on_c, 0, 45, 0
1, 893680, Note_on_c, 0, 83, 120
1, 893680, Note_on_c, 0, 71, 120
1, 893680, Note_on_c, 0, 59, 120
1, 893680, Note_on_c, 0, 47, 120
1, 893830, Note_on_c, 0, 83, 0
1, 893830, Note_on_c, 0, 71, 0
1, 893830, Note_on_c, 0, 59, 0
1, 893830, Note_on_c, 0, 47, 0
1, 893840, Note_on_c, 0, 85, 120
1, 893840, Note_on_c, 0, 73, 120
1, 893840, Note_on_c, 0, 61, 120
1, 893840, Note_on_c, 0, 49, 120
1, 893990, Note_on_c, 0, 85, 0
1, 893990, Note_on_c, 0, 73, 0
1, 893990, Note_on_c, 0, 61, 0
1, 893990, Note_on_c, 0, 49, 0
1, 894000, Time_signature, 4, 2, 24, 8
1, 894000, Note_on_c, 0, 86, 120
1, 894000, Note_on_c, 0, 74, 120
1, 894000, Note_on_c, 0, 62, 120
1, 894000, Note_on_c, 0, 50, 120
1, 894150, Note_on_c, 0, 86, 0
1, 894150, Note_on_c, 0, 74, 0
1, 894150, Note_on_c, 0, 62, 0
1, 894150, Note_on_c, 0, 50, 0
1, 894160, Note_on_c, 0, 85, 120
1, 894160, Note_on_c, 0, 73, 120
1, 894160, Note_on_c, 0, 61, 120
1, 894160, Note_on_c, 0, 49, 120
1, 894310, Note_on_c, 0, 85, 0
1, 894310, Note_on_c, 0, 73, 0
1, 894310, Note_on_c, 0, 61, 0
1, 894310, Note_on_c, 0, 49, 0
1, 894320, Note_on_c, 0, 86, 120
1, 894320, Note_on_c, 0, 74, 120
1, 894320, Note_on_c, 0, 62, 120
1, 894320, Note_on_c, 0, 50, 120
1, 894470, Note_on_c, 0, 86, 0
1, 894470, Note_on_c, 0, 74, 0
1, 894470, Note_on_c, 0, 62, 0
1, 894470, Note_on_c, 0, 50, 0
1, 894480, Note_on_c, 0, 88, 120
1, 894480, Note_on_c, 0, 76, 120
1, 894480, Note_on_c, 0, 64, 120
1, 894480, Note_on_c, 0, 52, 120
1, 894630, Note_on_c, 0, 88, 0
1, 894630, Note_on_c, 0, 76, 0
1, 894630, Note_on_c, 0, 64, 0
1, 894630, Note_on_c, 0, 52, 0
1, 894640, Note_on_c, 0, 90, 120
1, 894640, Note_on_c, 0, 78, 120
1, 894640, Note_on_c, 0, 66, 120
1, 894640, Note_on_c, 0, 54, 120
1, 894790, Note_on_c, 0, 90, 0
1, 894790, Note_on_c, 0, 78, 0
1, 894790, Note_on_c, 0, 66, 0
1, 894790, Note_on_c, 0, 54, 0
1, 894800, Note_on_c, 0, 91, 120
1, 894800, Note_on_c, 0, 79, 120
1, 894800, Note_on_c, 0, 67, 120
1, 894800, Note_on_c, 0, 55, 120
1, 894950, Note_on_c, 0, 91, 0
1, 894950, Note_on_c, 0, 79, 0
1, 894950, Note_on_c, 0, 67, 0
1, 894950, Note_on_c, 0, 55, 0
1, 894960, Time_signature, 4, 2, 24, 8
1, 894960, Note_on_c, 0, 93, 120
1, 894960, Note_on_c, 0, 81, 120
1, 894960, Note_on_c, 0, 69, 120
1, 894960, Note_on_c, 0, 57, 120
1, 895190, Note_on_c, 0, 93, 0
1, 895190, Note_on_c, 0, 81, 0
1, 895190, Note_on_c, 0, 69, 0
1, 895190, Note_on_c, 0, 57, 0
1, 895200, Note_on_c, 0, 93, 120
1, 895200, Note_on_c, 0, 81, 120
1, 895200, Note_on_c, 0, 69, 120
1, 895200, Note_on_c, 0, 57, 120
1, 895430, Note_on_c, 0, 93, 0
1, 895430, Note_on_c, 0, 81, 0
1, 895430, Note_on_c, 0, 69, 0
1, 895430, Note_on_c, 0, 57, 0
1, 895440, Note_on_c, 0, 93, 120
1, 895440, Note_on_c, 0, 81, 120
1, 895440, Note_on_c, 0, 69, 120
1, 895440, Note_on_c, 0, 57, 120
1, 895670, Note_on_c, 0, 93, 0
1, 895670, Note_on_c, 0, 81, 0
1, 895670, Note_on_c, 0, 69, 0
1, 895670, Note_on_c, 0, 57, 0
1, 895680, Note_on_c, 0, 93, 120
1, 895680, Note_on_c, 0, 81, 120
1, 895680, Note_on_c, 0, 69, 120
1, 895680, Note_on_c, 0, 57, 120
1, 895910, Note_on_c, 0, 93, 0
1, 895910, Note_on_c, 0, 81, 0
1, 895910, Note_on_c, 0, 69, 0
1, 895910, Note_on_c, 0, 57, 0
1, 895920, Time_signature, 4, 2, 24, 8
1, 895920, Note_on_c, 0, 74, 120
1, 895920, Note_on_c, 0, 62, 120
1, 895920, Note_on_c, 0, 50, 120
1, 895920, Note_on_c, 0, 38, 120
1, 896150, Note_on_c, 0, 74, 0
1, 896150, Note_on_c, 0, 62, 0
1, 896150, Note_on_c, 0, 50, 0
1, 896150, Note_on_c, 0, 38, 0
1, 896880, End_track
0, 0, End_of_file
